M48
METRIC,LZ,000.000
;FILE_FORMAT=3:3
;TYPE=PLATED
;Layer: PTH_Through
;EasyEDA v6.5.44, 2024-08-15 16:42:12
;206e0cd2ca1848caba6ec3024fd8e249,080bb0d1436b4706b040d70de8f1a738,10
;Gerber Generator version 0.2
;Holesize 1 = 0.341 mm
T01C0.341
;Holesize 2 = 0.701 mm
T02C0.701
;Holesize 3 = 0.915 mm
T03C0.915
;Holesize 4 = 1.000 mm
T04C1.000
;Holesize 5 = 1.021 mm
T05C1.021
;Holesize 6 = 1.199 mm
T06C1.199
;Holesize 7 = 1.501 mm
T07C1.501
%
G05
G90
T01
X083795Y113490
X094210Y112058
T02
X080140Y077470G85X080134Y077470
X077600Y077470G85X077594Y077470
X075060Y077470G85X075054Y077470
X072520Y077470G85X072514Y077470
X069980Y077470G85X069974Y077470
X067440Y077470G85X067434Y077470
X064900Y077470G85X064894Y077470
X062360Y077470G85X062354Y077470
X058296Y077470G85X058290Y077470
X055756Y077470G85X055750Y077470
X053216Y077470G85X053210Y077470
X050676Y077470G85X050670Y077470
X048136Y077470G85X048130Y077470
X045596Y077470G85X045590Y077470
X043056Y077470G85X043050Y077470
X040516Y077470G85X040510Y077470
X040516Y125730G85X040510Y125730
X043056Y125730G85X043050Y125730
X045596Y125730G85X045590Y125730
X048136Y125730G85X048130Y125730
X050676Y125730G85X050670Y125730
X053216Y125730G85X053210Y125730
X058296Y125730G85X058290Y125730
X060836Y125730G85X060830Y125730
X063376Y125730G85X063370Y125730
X065916Y125730G85X065910Y125730
X068456Y125730G85X068450Y125730
X070996Y125730G85X070990Y125730
T03
X017399Y115570
X014859Y115570
X012319Y115570
X017399Y090170
X014859Y090170
X012319Y090170
T04
X106680Y100457G85X106680Y100457
X109220Y100457G85X109220Y100457
X111760Y100457G85X111760Y100457
X114300Y100457G85X114300Y100457
T05
X065659Y090170
X063119Y090170
X060579Y090170
X058039Y090170
X055499Y090170
X052959Y090170
X050419Y090170
X047879Y090170
X045339Y090170
X042799Y090170
X040259Y090170
X037719Y090170
X035179Y090170
X032639Y090170
X030099Y090170
X027559Y090170
X025019Y090170
X022479Y090170
X019939Y090170
X065657Y115570
X063119Y115570
X060579Y115570
X058039Y115570
X055499Y115570
X052959Y115570
X050419Y115570
X047879Y115570
X045339Y115570
X042799Y115570
X040259Y115570
X037719Y115570
X035179Y115570
X032639Y115570
X030099Y115570
X027559Y115570
X025019Y115570
X022479Y115570
X019939Y115570
T06
X108128Y111366
X110617Y111366
X113106Y111366
X113106Y125870
X108128Y125870
T07
X104367Y118309G85X104367Y119409
X116867Y118309G85X116867Y119409
M30
