M48
METRIC,LZ,000.000
;FILE_FORMAT=3:3
;TYPE=PLATED
;Layer: PTH_Through_Via
;EasyEDA v6.5.44, 2024-08-21 21:21:16
;a079ae6def3d47c492197c10d7659819,080bb0d1436b4706b040d70de8f1a738,10
;Gerber Generator version 0.2
;Holesize 1 = 0.341 mm
T01C0.341
;Holesize 2 = 0.501 mm
T02C0.501
%
G05
G90
T01
X056116Y124031
X053547Y117839
X047692Y118598
X031183Y113354
X073282Y110365
X039583Y081824
T02
X095631Y094869
X027940Y082169
X031623Y081788
X034925Y079629
X041275Y094107
X052451Y121285
X049403Y103886
X021209Y103378
X026035Y102997
X035560Y087122
X033528Y085471
X040386Y086360
X040513Y084201
X049022Y080645
X042926Y107950
M30
