M48
METRIC,LZ,000.000
;FILE_FORMAT=3:3
;TYPE=PLATED
;Layer: PTH_Through
;EasyEDA v6.5.44, 2024-08-15 16:30:46
;47a5133be28f4d398fb1845f12d33526,080bb0d1436b4706b040d70de8f1a738,10
;Gerber Generator version 0.2
;Holesize 1 = 0.341 mm
T01C0.341
;Holesize 2 = 0.701 mm
T02C0.701
;Holesize 3 = 0.915 mm
T03C0.915
;Holesize 4 = 1.000 mm
T04C1.000
;Holesize 5 = 1.021 mm
T05C1.021
;Holesize 6 = 1.199 mm
T06C1.199
;Holesize 7 = 1.501 mm
T07C1.501
%
G05
G90
T01
X054771Y103721
T02
X076330Y077566G85X076324Y077566
X073790Y077566G85X073784Y077566
X071250Y077566G85X071244Y077566
X068710Y077566G85X068704Y077566
X066170Y077566G85X066164Y077566
X063630Y077566G85X063624Y077566
X061090Y077566G85X061084Y077566
X058550Y077566G85X058544Y077566
X054486Y077566G85X054480Y077566
X051946Y077566G85X051940Y077566
X049406Y077566G85X049400Y077566
X046866Y077566G85X046860Y077566
X044326Y077566G85X044320Y077566
X041786Y077566G85X041780Y077566
X039246Y077566G85X039240Y077566
X036706Y077566G85X036700Y077566
X036706Y125826G85X036700Y125826
X039246Y125826G85X039240Y125826
X041786Y125826G85X041780Y125826
X044326Y125826G85X044320Y125826
X046866Y125826G85X046860Y125826
X049406Y125826G85X049400Y125826
X054486Y125826G85X054480Y125826
X057026Y125826G85X057020Y125826
X059566Y125826G85X059560Y125826
X062106Y125826G85X062100Y125826
X064646Y125826G85X064640Y125826
X067186Y125826G85X067180Y125826
T03
X017399Y115570
X014859Y115570
X012319Y115570
X017399Y090170
X014859Y090170
X012319Y090170
T04
X106680Y100457G85X106680Y100457
X109220Y100457G85X109220Y100457
X111760Y100457G85X111760Y100457
X114300Y100457G85X114300Y100457
T05
X065659Y090170
X063119Y090170
X060579Y090170
X058039Y090170
X055499Y090170
X052959Y090170
X050419Y090170
X047879Y090170
X045339Y090170
X042799Y090170
X040259Y090170
X037719Y090170
X035179Y090170
X032639Y090170
X030099Y090170
X027559Y090170
X025019Y090170
X022479Y090170
X019939Y090170
X065657Y115570
X063119Y115570
X060579Y115570
X058039Y115570
X055499Y115570
X052959Y115570
X050419Y115570
X047879Y115570
X045339Y115570
X042799Y115570
X040259Y115570
X037719Y115570
X035179Y115570
X032639Y115570
X030099Y115570
X027559Y115570
X025019Y115570
X022479Y115570
X019939Y115570
T06
X108128Y111366
X110617Y111366
X113106Y111366
X113106Y125870
X108128Y125870
T07
X104367Y118309G85X104367Y119409
X116867Y118309G85X116867Y119409
M30
