M48
METRIC,LZ,000.000
;FILE_FORMAT=3:3
;TYPE=PLATED
;Layer: PTH_Through
;EasyEDA v6.5.44, 2024-08-15 21:03:17
;2693c8bcb35a4eaa91412144a2bdb0cb,080bb0d1436b4706b040d70de8f1a738,10
;Gerber Generator version 0.2
;Holesize 1 = 0.341 mm
T01C0.341
;Holesize 2 = 0.701 mm
T02C0.701
;Holesize 3 = 0.915 mm
T03C0.915
;Holesize 4 = 1.000 mm
T04C1.000
;Holesize 5 = 1.021 mm
T05C1.021
;Holesize 6 = 1.199 mm
T06C1.199
;Holesize 7 = 1.501 mm
T07C1.501
%
G05
G90
T01
X054778Y126166
X045843Y124186
X039273Y119163
X046011Y088294
X021190Y086107
X073638Y115570
X098881Y113336
X063379Y082710
X052425Y104528
T02
X080140Y077470G85X080134Y077470
X077600Y077470G85X077594Y077470
X075060Y077470G85X075054Y077470
X072520Y077470G85X072514Y077470
X069980Y077470G85X069974Y077470
X067440Y077470G85X067434Y077470
X064900Y077470G85X064894Y077470
X062360Y077470G85X062354Y077470
X058296Y077470G85X058290Y077470
X055756Y077470G85X055750Y077470
X053216Y077470G85X053210Y077470
X050676Y077470G85X050670Y077470
X048136Y077470G85X048130Y077470
X045596Y077470G85X045590Y077470
X043056Y077470G85X043050Y077470
X040516Y077470G85X040510Y077470
X040516Y125730G85X040510Y125730
X043056Y125730G85X043050Y125730
X045596Y125730G85X045590Y125730
X048136Y125730G85X048130Y125730
X050676Y125730G85X050670Y125730
X053216Y125730G85X053210Y125730
X058296Y125730G85X058290Y125730
X060836Y125730G85X060830Y125730
X063376Y125730G85X063370Y125730
X065916Y125730G85X065910Y125730
X068456Y125730G85X068450Y125730
X070996Y125730G85X070990Y125730
T03
X012573Y115570
X010033Y115570
X007493Y115570
X012573Y090170
X010033Y090170
X007493Y090170
T04
X106680Y100457G85X106680Y100457
X109220Y100457G85X109220Y100457
X111760Y100457G85X111760Y100457
X114300Y100457G85X114300Y100457
T05
X060833Y090170
X058293Y090170
X055753Y090170
X053213Y090170
X050673Y090170
X048133Y090170
X045593Y090170
X043053Y090170
X040513Y090170
X037973Y090170
X035433Y090170
X032893Y090170
X030353Y090170
X027813Y090170
X025273Y090170
X022733Y090170
X020193Y090170
X017653Y090170
X015113Y090170
X060830Y115570
X058293Y115570
X055753Y115570
X053213Y115570
X050673Y115570
X048133Y115570
X045593Y115570
X043053Y115570
X040513Y115570
X037973Y115570
X035433Y115570
X032893Y115570
X030353Y115570
X027813Y115570
X025273Y115570
X022733Y115570
X020193Y115570
X017653Y115570
X015113Y115570
T06
X108128Y111366
X110617Y111366
X113106Y111366
X113106Y125870
X108128Y125870
T07
X104367Y118309G85X104367Y119409
X116867Y118309G85X116867Y119409
M30
