M48
METRIC,LZ,000.000
;FILE_FORMAT=3:3
;TYPE=PLATED
;Layer: PTH_Through
;EasyEDA v6.5.44, 2024-08-21 21:21:16
;a079ae6def3d47c492197c10d7659819,080bb0d1436b4706b040d70de8f1a738,10
;Gerber Generator version 0.2
;Holesize 1 = 0.341 mm
T01C0.341
;Holesize 2 = 0.501 mm
T02C0.501
;Holesize 3 = 0.701 mm
T03C0.701
;Holesize 4 = 0.915 mm
T04C0.915
;Holesize 5 = 1.000 mm
T05C1.000
;Holesize 6 = 1.021 mm
T06C1.021
;Holesize 7 = 1.199 mm
T07C1.199
;Holesize 8 = 1.501 mm
T08C1.501
%
G05
G90
T01
X056116Y124031
X053547Y117839
X047692Y118598
X031183Y113354
X073282Y110365
X039583Y081824
T02
X095631Y094869
X027940Y082169
X031623Y081788
X034925Y079629
X041275Y094107
X052451Y121285
X049403Y103886
X021209Y103378
X026035Y102997
X035560Y087122
X033528Y085471
X040386Y086360
X040513Y084201
X049022Y080645
X042926Y107950
T03
X068130Y077440G85X068125Y077440
X065590Y077440G85X065585Y077440
X063050Y077440G85X063045Y077440
X060510Y077440G85X060505Y077440
X057970Y077440G85X057965Y077440
X055430Y077440G85X055425Y077440
X052890Y077440G85X052885Y077440
X050350Y077440G85X050345Y077440
X046286Y077440G85X046281Y077440
X043746Y077440G85X043741Y077440
X041206Y077440G85X041201Y077440
X038666Y077440G85X038661Y077440
X036126Y077440G85X036121Y077440
X033586Y077440G85X033581Y077440
X031046Y077440G85X031041Y077440
X028506Y077440G85X028501Y077440
X028506Y125700G85X028501Y125700
X031046Y125700G85X031041Y125700
X033586Y125700G85X033581Y125700
X036126Y125700G85X036121Y125700
X038666Y125700G85X038661Y125700
X041206Y125700G85X041201Y125700
X046286Y125700G85X046281Y125700
X048826Y125700G85X048821Y125700
X051366Y125700G85X051361Y125700
X053906Y125700G85X053901Y125700
X056446Y125700G85X056441Y125700
X058986Y125700G85X058981Y125700
T04
X024931Y115672
X022391Y115672
X019851Y115672
X024931Y090272
X022391Y090272
X019851Y090272
T05
X106021Y098568G85X106021Y098568
X108561Y098568G85X108561Y098568
X111101Y098568G85X111101Y098568
X113641Y098568G85X113641Y098568
T06
X073191Y090272
X070651Y090272
X068111Y090272
X065571Y090272
X063031Y090272
X060491Y090272
X057951Y090272
X055411Y090272
X052871Y090272
X050331Y090272
X047791Y090272
X045251Y090272
X042711Y090272
X040171Y090272
X037631Y090272
X035091Y090272
X032551Y090272
X030011Y090272
X027471Y090272
X073189Y115672
X070651Y115672
X068111Y115672
X065571Y115672
X063031Y115672
X060491Y115672
X057951Y115672
X055411Y115672
X052871Y115672
X050331Y115672
X047791Y115672
X045251Y115672
X042711Y115672
X040171Y115672
X037631Y115672
X035091Y115672
X032551Y115672
X030011Y115672
X027471Y115672
T07
X108128Y111366
X110617Y111366
X113106Y111366
X113106Y125870
X108128Y125870
T08
X104367Y118309G85X104367Y119409
X116867Y118309G85X116867Y119409
M30
