M48
METRIC,LZ,000.000
;FILE_FORMAT=3:3
;TYPE=PLATED
;Layer: PTH_Through
;EasyEDA v6.5.44, 2024-08-15 20:33:31
;766ad0b31a144a319dc85637c029b1d6,080bb0d1436b4706b040d70de8f1a738,10
;Gerber Generator version 0.2
;Holesize 1 = 0.341 mm
T01C0.341
;Holesize 2 = 0.701 mm
T02C0.701
;Holesize 3 = 0.915 mm
T03C0.915
;Holesize 4 = 1.000 mm
T04C1.000
;Holesize 5 = 1.021 mm
T05C1.021
;Holesize 6 = 1.199 mm
T06C1.199
;Holesize 7 = 1.501 mm
T07C1.501
%
G05
G90
T01
X057066Y120435
X054008Y122280
X052246Y122848
X028350Y086371
X033367Y078674
X082875Y115570
X104123Y108094
X025732Y094359
X060526Y105990
T02
X080140Y077470G85X080134Y077470
X077600Y077470G85X077594Y077470
X075060Y077470G85X075054Y077470
X072520Y077470G85X072514Y077470
X069980Y077470G85X069974Y077470
X067440Y077470G85X067434Y077470
X064900Y077470G85X064894Y077470
X062360Y077470G85X062354Y077470
X058296Y077470G85X058290Y077470
X055756Y077470G85X055750Y077470
X053216Y077470G85X053210Y077470
X050676Y077470G85X050670Y077470
X048136Y077470G85X048130Y077470
X045596Y077470G85X045590Y077470
X043056Y077470G85X043050Y077470
X040516Y077470G85X040510Y077470
X040516Y125730G85X040510Y125730
X043056Y125730G85X043050Y125730
X045596Y125730G85X045590Y125730
X048136Y125730G85X048130Y125730
X050676Y125730G85X050670Y125730
X053216Y125730G85X053210Y125730
X058296Y125730G85X058290Y125730
X060836Y125730G85X060830Y125730
X063376Y125730G85X063370Y125730
X065916Y125730G85X065910Y125730
X068456Y125730G85X068450Y125730
X070996Y125730G85X070990Y125730
T03
X014986Y115570
X012446Y115570
X009906Y115570
X014986Y090170
X012446Y090170
X009906Y090170
T04
X106680Y100457G85X106680Y100457
X109220Y100457G85X109220Y100457
X111760Y100457G85X111760Y100457
X114300Y100457G85X114300Y100457
T05
X063246Y090170
X060706Y090170
X058166Y090170
X055626Y090170
X053086Y090170
X050546Y090170
X048006Y090170
X045466Y090170
X042926Y090170
X040386Y090170
X037846Y090170
X035306Y090170
X032766Y090170
X030226Y090170
X027686Y090170
X025146Y090170
X022606Y090170
X020066Y090170
X017526Y090170
X063243Y115570
X060706Y115570
X058166Y115570
X055626Y115570
X053086Y115570
X050546Y115570
X048006Y115570
X045466Y115570
X042926Y115570
X040386Y115570
X037846Y115570
X035306Y115570
X032766Y115570
X030226Y115570
X027686Y115570
X025146Y115570
X022606Y115570
X020066Y115570
X017526Y115570
T06
X108128Y111366
X110617Y111366
X113106Y111366
X113106Y125870
X108128Y125870
T07
X104367Y118309G85X104367Y119409
X116867Y118309G85X116867Y119409
M30
