M48
METRIC,LZ,000.000
;FILE_FORMAT=3:3
;TYPE=PLATED
;Layer: PTH_Through
;EasyEDA v6.5.44, 2024-08-14 21:30:50
;c2a1b1e31fd54ff6a21d47cdd87efd23,080bb0d1436b4706b040d70de8f1a738,10
;Gerber Generator version 0.2
;Holesize 1 = 0.341 mm
T01C0.341
;Holesize 2 = 0.701 mm
T02C0.701
;Holesize 3 = 0.915 mm
T03C0.915
;Holesize 4 = 1.000 mm
T04C1.000
;Holesize 5 = 1.021 mm
T05C1.021
;Holesize 6 = 1.199 mm
T06C1.199
;Holesize 7 = 1.501 mm
T07C1.501
%
G05
G90
T01
X043951Y122726
X043949Y094279
T02
X026540Y125888G85X026546Y125888
X029080Y125888G85X029086Y125888
X031620Y125888G85X031626Y125888
X034160Y125888G85X034166Y125888
X036700Y125888G85X036706Y125888
X039240Y125888G85X039246Y125888
X041780Y125888G85X041786Y125888
X044320Y125888G85X044326Y125888
X048384Y125888G85X048390Y125888
X050924Y125888G85X050930Y125888
X053464Y125888G85X053470Y125888
X056004Y125888G85X056010Y125888
X058544Y125888G85X058550Y125888
X061084Y125888G85X061090Y125888
X063624Y125888G85X063630Y125888
X066164Y125888G85X066170Y125888
X066164Y077628G85X066170Y077628
X063624Y077628G85X063630Y077628
X061084Y077628G85X061090Y077628
X058544Y077628G85X058550Y077628
X056004Y077628G85X056010Y077628
X053464Y077628G85X053470Y077628
X048384Y077628G85X048390Y077628
X045844Y077628G85X045850Y077628
X043304Y077628G85X043310Y077628
X040764Y077628G85X040770Y077628
X038224Y077628G85X038230Y077628
X035684Y077628G85X035690Y077628
T03
X017399Y115570
X014859Y115570
X012319Y115570
X017399Y090170
X014859Y090170
X012319Y090170
T04
X106680Y100457G85X106680Y100457
X109220Y100457G85X109220Y100457
X111760Y100457G85X111760Y100457
X114300Y100457G85X114300Y100457
T05
X065659Y090170
X063119Y090170
X060579Y090170
X058039Y090170
X055499Y090170
X052959Y090170
X050419Y090170
X047879Y090170
X045339Y090170
X042799Y090170
X040259Y090170
X037719Y090170
X035179Y090170
X032639Y090170
X030099Y090170
X027559Y090170
X025019Y090170
X022479Y090170
X019939Y090170
X065657Y115570
X063119Y115570
X060579Y115570
X058039Y115570
X055499Y115570
X052959Y115570
X050419Y115570
X047879Y115570
X045339Y115570
X042799Y115570
X040259Y115570
X037719Y115570
X035179Y115570
X032639Y115570
X030099Y115570
X027559Y115570
X025019Y115570
X022479Y115570
X019939Y115570
T06
X108128Y111366
X110617Y111366
X113106Y111366
X113106Y125870
X108128Y125870
T07
X104367Y118309G85X104367Y119409
X116867Y118309G85X116867Y119409
M30
