G04 Layer: BottomLayer*
G04 EasyEDA v6.5.44, 2024-08-21 21:21:16*
G04 a079ae6def3d47c492197c10d7659819,080bb0d1436b4706b040d70de8f1a738,10*
G04 Gerber Generator version 0.2*
G04 Scale: 100 percent, Rotated: No, Reflected: No *
G04 Dimensions in millimeters *
G04 leading zeros omitted , absolute positions ,4 integer and 5 decimal *
%FSLAX45Y45*%
%MOMM*%

%ADD10C,1.0000*%
%ADD11C,0.6000*%
%ADD12C,1.8009*%
%ADD13R,1.9990X3.5992*%
%ADD14C,1.6000*%
%ADD15C,1.5240*%
%ADD16R,1.5080X1.5080*%
%ADD17C,1.5080*%
%ADD18R,1.5000X1.5000*%
%ADD19C,1.5000*%
%ADD20C,0.6100*%
%ADD21C,1.0100*%
%ADD22C,0.6200*%
%ADD23C,0.0117*%

%LPD*%
G36*
X1077468Y7137908D02*
G01*
X1073556Y7138670D01*
X1070305Y7140905D01*
X1068070Y7144156D01*
X1067308Y7148068D01*
X1067308Y13171932D01*
X1068070Y13175843D01*
X1070305Y13179094D01*
X1073556Y13181330D01*
X1077468Y13182092D01*
X12346432Y13182092D01*
X12350343Y13181330D01*
X12353594Y13179094D01*
X12355830Y13175843D01*
X12356592Y13171932D01*
X12356592Y7148068D01*
X12355830Y7144156D01*
X12353594Y7140905D01*
X12350343Y7138670D01*
X12346432Y7137908D01*
G37*

%LPC*%
G36*
X1295400Y7238492D02*
G01*
X1310792Y7239457D01*
X1325930Y7242200D01*
X1340612Y7246772D01*
X1354632Y7253122D01*
X1367840Y7261098D01*
X1379931Y7270597D01*
X1390802Y7281468D01*
X1400302Y7293559D01*
X1408277Y7306767D01*
X1414627Y7320788D01*
X1419199Y7335469D01*
X1421942Y7350607D01*
X1422908Y7366000D01*
X1421942Y7381392D01*
X1419199Y7396530D01*
X1414627Y7411212D01*
X1408277Y7425232D01*
X1400302Y7438440D01*
X1390802Y7450531D01*
X1379931Y7461402D01*
X1367840Y7470902D01*
X1354632Y7478877D01*
X1340612Y7485227D01*
X1325930Y7489799D01*
X1310792Y7492542D01*
X1295400Y7493508D01*
X1280007Y7492542D01*
X1264869Y7489799D01*
X1250188Y7485227D01*
X1236167Y7478877D01*
X1222959Y7470902D01*
X1210868Y7461402D01*
X1199997Y7450531D01*
X1190498Y7438440D01*
X1182522Y7425232D01*
X1176172Y7411212D01*
X1171600Y7396530D01*
X1168857Y7381392D01*
X1167892Y7366000D01*
X1168857Y7350607D01*
X1171600Y7335469D01*
X1176172Y7320788D01*
X1182522Y7306767D01*
X1190498Y7293559D01*
X1199997Y7281468D01*
X1210868Y7270597D01*
X1222959Y7261098D01*
X1236167Y7253122D01*
X1250188Y7246772D01*
X1264869Y7242200D01*
X1280007Y7239457D01*
G37*
G36*
X12062612Y7406843D02*
G01*
X12077801Y7407757D01*
X12092736Y7410500D01*
X12107265Y7415022D01*
X12121134Y7421219D01*
X12134138Y7429093D01*
X12146076Y7438491D01*
X12156846Y7449210D01*
X12166193Y7461199D01*
X12174067Y7474203D01*
X12180316Y7488072D01*
X12184837Y7502601D01*
X12187580Y7517536D01*
X12188494Y7532725D01*
X12187580Y7547864D01*
X12184837Y7562850D01*
X12180316Y7577328D01*
X12174067Y7591196D01*
X12166193Y7604201D01*
X12156846Y7616190D01*
X12146076Y7626959D01*
X12134138Y7636306D01*
X12121134Y7644180D01*
X12107265Y7650429D01*
X12092736Y7654950D01*
X12077801Y7657693D01*
X12062612Y7658608D01*
X12047423Y7657693D01*
X12032488Y7654950D01*
X12017959Y7650429D01*
X12004090Y7644180D01*
X11991086Y7636306D01*
X11979148Y7626959D01*
X11968378Y7616190D01*
X11959031Y7604201D01*
X11951157Y7591196D01*
X11944908Y7577328D01*
X11940387Y7562850D01*
X11937644Y7547864D01*
X11936730Y7532725D01*
X11937644Y7517536D01*
X11940387Y7502601D01*
X11944908Y7488072D01*
X11951157Y7474203D01*
X11959031Y7461199D01*
X11968378Y7449210D01*
X11979148Y7438491D01*
X11991086Y7429093D01*
X12004090Y7421219D01*
X12017959Y7415022D01*
X12032488Y7410500D01*
X12047423Y7407757D01*
G37*
G36*
X9903612Y7406843D02*
G01*
X9918801Y7407757D01*
X9933736Y7410500D01*
X9948265Y7415022D01*
X9962134Y7421219D01*
X9975138Y7429093D01*
X9987076Y7438491D01*
X9997846Y7449210D01*
X10007193Y7461199D01*
X10015067Y7474203D01*
X10021316Y7488072D01*
X10025837Y7502601D01*
X10028580Y7517536D01*
X10029494Y7532725D01*
X10028580Y7547864D01*
X10025837Y7562850D01*
X10021316Y7577328D01*
X10015067Y7591196D01*
X10007193Y7604201D01*
X9997846Y7616190D01*
X9987076Y7626959D01*
X9975138Y7636306D01*
X9962134Y7644180D01*
X9948265Y7650429D01*
X9933736Y7654950D01*
X9918801Y7657693D01*
X9903612Y7658608D01*
X9888423Y7657693D01*
X9873488Y7654950D01*
X9858959Y7650429D01*
X9845090Y7644180D01*
X9832086Y7636306D01*
X9820148Y7626959D01*
X9809378Y7616190D01*
X9800031Y7604201D01*
X9792157Y7591196D01*
X9785908Y7577328D01*
X9781387Y7562850D01*
X9778644Y7547864D01*
X9777730Y7532725D01*
X9778644Y7517536D01*
X9781387Y7502601D01*
X9785908Y7488072D01*
X9792157Y7474203D01*
X9800031Y7461199D01*
X9809378Y7449210D01*
X9820148Y7438491D01*
X9832086Y7429093D01*
X9845090Y7421219D01*
X9858959Y7415022D01*
X9873488Y7410500D01*
X9888423Y7407757D01*
G37*
G36*
X2879344Y7482179D02*
G01*
X5082692Y7482179D01*
X5087772Y7482433D01*
X5092598Y7483043D01*
X5097373Y7484109D01*
X5101996Y7485583D01*
X5106517Y7487462D01*
X5110835Y7489698D01*
X5114950Y7492339D01*
X5118811Y7495286D01*
X5122570Y7498740D01*
X5265369Y7641488D01*
X5267960Y7643418D01*
X5271008Y7644384D01*
X5274259Y7644333D01*
X5278678Y7643622D01*
X5292140Y7643164D01*
X5305552Y7644485D01*
X5318658Y7647635D01*
X5331206Y7652461D01*
X5343042Y7658963D01*
X5353913Y7666939D01*
X5363565Y7676286D01*
X5371947Y7686903D01*
X5378805Y7698486D01*
X5384088Y7710881D01*
X5387644Y7723886D01*
X5389422Y7737246D01*
X5389422Y7750708D01*
X5387644Y7764068D01*
X5384088Y7777073D01*
X5378805Y7789468D01*
X5371947Y7801051D01*
X5363565Y7811668D01*
X5353913Y7821015D01*
X5343042Y7828991D01*
X5331206Y7835493D01*
X5318658Y7840319D01*
X5305552Y7843469D01*
X5292140Y7844790D01*
X5278678Y7844332D01*
X5265369Y7842097D01*
X5252516Y7838135D01*
X5240274Y7832445D01*
X5228894Y7825181D01*
X5218633Y7816494D01*
X5209590Y7806486D01*
X5201970Y7795412D01*
X5195874Y7783372D01*
X5191455Y7770622D01*
X5188762Y7757414D01*
X5187899Y7743952D01*
X5189067Y7726324D01*
X5188102Y7723174D01*
X5186172Y7720482D01*
X5062728Y7596987D01*
X5059426Y7594803D01*
X5055514Y7594041D01*
X4582007Y7594041D01*
X4578096Y7594803D01*
X4574794Y7596987D01*
X4572609Y7600289D01*
X4571847Y7604201D01*
X4572609Y7608062D01*
X4574794Y7611364D01*
X4603546Y7640116D01*
X4606848Y7642301D01*
X4610709Y7643063D01*
X4702810Y7643063D01*
X4709109Y7643774D01*
X4714595Y7645704D01*
X4719472Y7648752D01*
X4723587Y7652867D01*
X4726635Y7657744D01*
X4728565Y7663230D01*
X4729276Y7669530D01*
X4729276Y7818424D01*
X4728565Y7824724D01*
X4726635Y7830210D01*
X4723587Y7835087D01*
X4719472Y7839202D01*
X4714595Y7842250D01*
X4709109Y7844180D01*
X4702810Y7844891D01*
X4578858Y7844891D01*
X4574997Y7845653D01*
X4571695Y7847838D01*
X4569460Y7851140D01*
X4568698Y7855051D01*
X4569460Y7858912D01*
X4571695Y7862214D01*
X5570677Y8861196D01*
X5573928Y8863431D01*
X5577840Y8864193D01*
X5581751Y8863431D01*
X5585002Y8861196D01*
X5587238Y8857894D01*
X5588000Y8854033D01*
X5588000Y8421116D01*
X5588711Y8419388D01*
X5841288Y8166811D01*
X5843016Y8166100D01*
X9142984Y8166100D01*
X9144711Y8166811D01*
X9397288Y8419388D01*
X9398000Y8421116D01*
X9398000Y11975084D01*
X9397288Y11976811D01*
X9144711Y12229388D01*
X9142984Y12230100D01*
X6095796Y12230100D01*
X6091885Y12230862D01*
X6088634Y12233097D01*
X5869940Y12451740D01*
X5867755Y12455042D01*
X5866993Y12458903D01*
X5867755Y12462814D01*
X5869940Y12466116D01*
X5873242Y12468301D01*
X5877153Y12469063D01*
X5972810Y12469063D01*
X5979109Y12469774D01*
X5984595Y12471704D01*
X5989472Y12474752D01*
X5993587Y12478867D01*
X5996635Y12483744D01*
X5998565Y12489230D01*
X5999276Y12495530D01*
X5999276Y12644424D01*
X5998565Y12650724D01*
X5996635Y12656210D01*
X5993587Y12661087D01*
X5989472Y12665202D01*
X5984595Y12668250D01*
X5979109Y12670180D01*
X5972810Y12670891D01*
X5823915Y12670891D01*
X5817616Y12670180D01*
X5812129Y12668250D01*
X5807252Y12665202D01*
X5803138Y12661087D01*
X5800090Y12656210D01*
X5798159Y12650724D01*
X5797448Y12644424D01*
X5797448Y12548768D01*
X5796686Y12544856D01*
X5794502Y12541554D01*
X5791200Y12539370D01*
X5787288Y12538608D01*
X5783427Y12539370D01*
X5780125Y12541554D01*
X5747461Y12574219D01*
X5745530Y12576911D01*
X5744565Y12580061D01*
X5743244Y12590068D01*
X5739688Y12603073D01*
X5734405Y12615468D01*
X5727547Y12627051D01*
X5719165Y12637668D01*
X5709513Y12647015D01*
X5698642Y12654991D01*
X5686806Y12661493D01*
X5674258Y12666319D01*
X5661152Y12669469D01*
X5647740Y12670790D01*
X5634278Y12670332D01*
X5620969Y12668097D01*
X5608116Y12664135D01*
X5595874Y12658445D01*
X5584494Y12651181D01*
X5577586Y12645339D01*
X5573979Y12643358D01*
X5569915Y12643002D01*
X5566054Y12644221D01*
X5562955Y12646914D01*
X5560314Y12650317D01*
X5556910Y12654076D01*
X5481167Y12729819D01*
X5477408Y12733223D01*
X5473547Y12736220D01*
X5469432Y12738811D01*
X5465114Y12741097D01*
X5460593Y12742926D01*
X5455970Y12744399D01*
X5451195Y12745466D01*
X5446369Y12746126D01*
X5441289Y12746329D01*
X5081676Y12746329D01*
X5076596Y12746126D01*
X5071719Y12745466D01*
X5066995Y12744399D01*
X5062321Y12742926D01*
X5057800Y12741097D01*
X5053482Y12738811D01*
X5049367Y12736220D01*
X5045506Y12733223D01*
X5041747Y12729819D01*
X4970119Y12658191D01*
X4966766Y12654534D01*
X4962448Y12648590D01*
X4959553Y12645898D01*
X4955794Y12644577D01*
X4951831Y12644729D01*
X4948224Y12646456D01*
X4936642Y12655042D01*
X4926228Y12660731D01*
X4926228Y12613843D01*
X4943449Y12613843D01*
X4947310Y12613030D01*
X4950612Y12610846D01*
X4952847Y12607544D01*
X4953609Y12603683D01*
X4953609Y12540335D01*
X4952847Y12536424D01*
X4950612Y12533122D01*
X4946599Y12529108D01*
X4943297Y12526924D01*
X4939436Y12526111D01*
X4926228Y12526111D01*
X4926228Y12512903D01*
X4925415Y12509042D01*
X4923231Y12505740D01*
X4918557Y12501067D01*
X4915255Y12498882D01*
X4911394Y12498120D01*
X4848656Y12498120D01*
X4844796Y12498882D01*
X4841494Y12501067D01*
X4839309Y12504369D01*
X4838496Y12508280D01*
X4838496Y12526111D01*
X4791760Y12526111D01*
X4795570Y12518542D01*
X4798669Y12514021D01*
X4800346Y12509957D01*
X4800092Y12505588D01*
X4798060Y12501676D01*
X4794605Y12499035D01*
X4790287Y12498120D01*
X4720590Y12498120D01*
X4716475Y12498984D01*
X4713020Y12501473D01*
X4710938Y12505182D01*
X4710531Y12509398D01*
X4711852Y12513411D01*
X4718405Y12524486D01*
X4723688Y12536881D01*
X4727244Y12549886D01*
X4729022Y12563246D01*
X4729022Y12576708D01*
X4727244Y12590068D01*
X4723688Y12603073D01*
X4718405Y12615468D01*
X4711547Y12627051D01*
X4703165Y12637668D01*
X4693513Y12647015D01*
X4682642Y12654991D01*
X4670806Y12661493D01*
X4658258Y12666319D01*
X4645152Y12669469D01*
X4631740Y12670790D01*
X4618278Y12670332D01*
X4604969Y12668097D01*
X4592116Y12664135D01*
X4579874Y12658445D01*
X4568494Y12651181D01*
X4558233Y12642494D01*
X4549190Y12632486D01*
X4541570Y12621412D01*
X4535474Y12609372D01*
X4531055Y12596622D01*
X4528362Y12583414D01*
X4527499Y12569952D01*
X4528362Y12556540D01*
X4531055Y12543332D01*
X4535474Y12530582D01*
X4541570Y12518542D01*
X4544669Y12514021D01*
X4546346Y12509957D01*
X4546092Y12505588D01*
X4544060Y12501676D01*
X4540605Y12499035D01*
X4536287Y12498120D01*
X4231436Y12498120D01*
X4227525Y12498882D01*
X4224223Y12501067D01*
X4222038Y12504369D01*
X4221276Y12508280D01*
X4221276Y12644424D01*
X4220565Y12650724D01*
X4218635Y12656210D01*
X4215587Y12661087D01*
X4211472Y12665202D01*
X4206595Y12668250D01*
X4201109Y12670180D01*
X4194810Y12670891D01*
X4045915Y12670891D01*
X4039615Y12670180D01*
X4034129Y12668250D01*
X4029252Y12665202D01*
X4025137Y12661087D01*
X4022090Y12656210D01*
X4020159Y12650724D01*
X4019448Y12644424D01*
X4019448Y12508280D01*
X4018686Y12504369D01*
X4016501Y12501067D01*
X4013200Y12498882D01*
X4009288Y12498120D01*
X3958590Y12498120D01*
X3954475Y12498984D01*
X3951020Y12501473D01*
X3948937Y12505182D01*
X3948531Y12509398D01*
X3949852Y12513411D01*
X3956405Y12524486D01*
X3961688Y12536881D01*
X3965244Y12549886D01*
X3967022Y12563246D01*
X3967022Y12576708D01*
X3965244Y12590068D01*
X3961688Y12603073D01*
X3956405Y12615468D01*
X3949547Y12627051D01*
X3941165Y12637668D01*
X3931513Y12647015D01*
X3920642Y12654991D01*
X3908806Y12661493D01*
X3896258Y12666319D01*
X3883151Y12669469D01*
X3869740Y12670790D01*
X3856278Y12670332D01*
X3842969Y12668097D01*
X3830116Y12664135D01*
X3817874Y12658445D01*
X3806494Y12651181D01*
X3796233Y12642494D01*
X3787190Y12632486D01*
X3779570Y12621412D01*
X3773474Y12609372D01*
X3769055Y12596622D01*
X3766362Y12583414D01*
X3765499Y12569952D01*
X3766362Y12556540D01*
X3769055Y12543332D01*
X3773474Y12530582D01*
X3779570Y12518542D01*
X3782669Y12514021D01*
X3784346Y12509957D01*
X3784092Y12505588D01*
X3782060Y12501676D01*
X3778605Y12499035D01*
X3774287Y12498120D01*
X3704590Y12498120D01*
X3700475Y12498984D01*
X3697020Y12501473D01*
X3694937Y12505182D01*
X3694531Y12509398D01*
X3695852Y12513411D01*
X3702405Y12524486D01*
X3707688Y12536881D01*
X3711244Y12549886D01*
X3713022Y12563246D01*
X3713022Y12576708D01*
X3711244Y12590068D01*
X3707688Y12603073D01*
X3702405Y12615468D01*
X3695547Y12627051D01*
X3687165Y12637668D01*
X3677513Y12647015D01*
X3666642Y12654991D01*
X3654806Y12661493D01*
X3642258Y12666319D01*
X3629151Y12669469D01*
X3615740Y12670790D01*
X3602278Y12670332D01*
X3588969Y12668097D01*
X3576116Y12664135D01*
X3563874Y12658445D01*
X3552494Y12651181D01*
X3542233Y12642494D01*
X3533190Y12632486D01*
X3525570Y12621412D01*
X3519474Y12609372D01*
X3515055Y12596622D01*
X3512362Y12583414D01*
X3511499Y12569952D01*
X3512362Y12556540D01*
X3515055Y12543332D01*
X3519474Y12530582D01*
X3525570Y12518542D01*
X3528669Y12514021D01*
X3530346Y12509957D01*
X3530092Y12505588D01*
X3528060Y12501676D01*
X3524605Y12499035D01*
X3520287Y12498120D01*
X3450590Y12498120D01*
X3446475Y12498984D01*
X3443020Y12501473D01*
X3440937Y12505182D01*
X3440531Y12509398D01*
X3441852Y12513411D01*
X3448405Y12524486D01*
X3453688Y12536881D01*
X3457244Y12549886D01*
X3459022Y12563246D01*
X3459022Y12576708D01*
X3457244Y12590068D01*
X3453688Y12603073D01*
X3448405Y12615468D01*
X3441547Y12627051D01*
X3433165Y12637668D01*
X3423513Y12647015D01*
X3412642Y12654991D01*
X3400806Y12661493D01*
X3388258Y12666319D01*
X3375151Y12669469D01*
X3361740Y12670790D01*
X3348278Y12670332D01*
X3334969Y12668097D01*
X3322116Y12664135D01*
X3309874Y12658445D01*
X3298494Y12651181D01*
X3288233Y12642494D01*
X3279190Y12632486D01*
X3271570Y12621412D01*
X3265474Y12609372D01*
X3261055Y12596622D01*
X3258362Y12583414D01*
X3257499Y12569952D01*
X3258362Y12556540D01*
X3261055Y12543332D01*
X3265474Y12530582D01*
X3271570Y12518542D01*
X3274669Y12514021D01*
X3276346Y12509957D01*
X3276092Y12505588D01*
X3274060Y12501676D01*
X3270605Y12499035D01*
X3266287Y12498120D01*
X3259531Y12498120D01*
X3255619Y12498882D01*
X3252317Y12501067D01*
X3206800Y12546584D01*
X3204972Y12549073D01*
X3204006Y12552019D01*
X3203956Y12555118D01*
X3205022Y12563246D01*
X3205022Y12576708D01*
X3203244Y12590068D01*
X3199688Y12603073D01*
X3194405Y12615468D01*
X3187547Y12627051D01*
X3179165Y12637668D01*
X3169513Y12647015D01*
X3158642Y12654991D01*
X3146806Y12661493D01*
X3134258Y12666319D01*
X3121152Y12669469D01*
X3107740Y12670790D01*
X3094278Y12670332D01*
X3080969Y12668097D01*
X3068116Y12664135D01*
X3055874Y12658445D01*
X3044494Y12651181D01*
X3034233Y12642494D01*
X3025190Y12632486D01*
X3017570Y12621412D01*
X3011474Y12609372D01*
X3007055Y12596622D01*
X3004362Y12583414D01*
X3003499Y12569952D01*
X3004362Y12556540D01*
X3007055Y12543332D01*
X3011474Y12530582D01*
X3017570Y12518542D01*
X3025190Y12507468D01*
X3034233Y12497460D01*
X3044494Y12488773D01*
X3055874Y12481509D01*
X3068116Y12475819D01*
X3080969Y12471857D01*
X3094278Y12469622D01*
X3107740Y12469164D01*
X3119628Y12470333D01*
X3124098Y12469825D01*
X3127857Y12467437D01*
X3192475Y12402820D01*
X3196234Y12399365D01*
X3200095Y12396419D01*
X3204210Y12393777D01*
X3208528Y12391542D01*
X3213049Y12389662D01*
X3217672Y12388189D01*
X3222447Y12387122D01*
X3227273Y12386513D01*
X3232353Y12386259D01*
X4938522Y12386259D01*
X4943602Y12386513D01*
X4948478Y12387122D01*
X4953203Y12388189D01*
X4957876Y12389662D01*
X4962398Y12391542D01*
X4966716Y12393777D01*
X4970830Y12396419D01*
X4974691Y12399365D01*
X4978450Y12402820D01*
X5048910Y12473279D01*
X5052314Y12477038D01*
X5055311Y12480899D01*
X5059121Y12487249D01*
X5061305Y12490145D01*
X5064404Y12492024D01*
X5067960Y12492736D01*
X5071516Y12492126D01*
X5074666Y12490348D01*
X5076494Y12488773D01*
X5087874Y12481509D01*
X5092496Y12479375D01*
X5092496Y12526111D01*
X5075580Y12526111D01*
X5071719Y12526924D01*
X5068417Y12529108D01*
X5066182Y12532410D01*
X5065420Y12536271D01*
X5065420Y12591135D01*
X5066182Y12594996D01*
X5068417Y12598298D01*
X5080965Y12610846D01*
X5084216Y12613030D01*
X5088128Y12613843D01*
X5092496Y12613843D01*
X5092496Y12618212D01*
X5093309Y12622123D01*
X5095494Y12625374D01*
X5101640Y12631521D01*
X5104942Y12633756D01*
X5108803Y12634518D01*
X5170068Y12634518D01*
X5173929Y12633756D01*
X5177231Y12631521D01*
X5179415Y12628219D01*
X5180228Y12624358D01*
X5180228Y12613843D01*
X5227116Y12613843D01*
X5224221Y12619177D01*
X5222849Y12623190D01*
X5223256Y12627406D01*
X5225389Y12631115D01*
X5228793Y12633604D01*
X5232958Y12634518D01*
X5276443Y12634518D01*
X5280304Y12633756D01*
X5283606Y12631521D01*
X5285841Y12628219D01*
X5286603Y12624358D01*
X5285841Y12620447D01*
X5283606Y12617196D01*
X5195570Y12529108D01*
X5192268Y12526924D01*
X5188356Y12526111D01*
X5180228Y12526111D01*
X5180228Y12517983D01*
X5179415Y12514072D01*
X5177231Y12510770D01*
X4532985Y11866524D01*
X4529683Y11864289D01*
X4525772Y11863527D01*
X1998421Y11863476D01*
X1989582Y11862663D01*
X1987143Y11862257D01*
X1978558Y11860123D01*
X1976221Y11859361D01*
X1967992Y11855958D01*
X1965807Y11854840D01*
X1956155Y11848795D01*
X1949297Y11843156D01*
X1773275Y11667083D01*
X1767586Y11660225D01*
X1766163Y11658244D01*
X1761591Y11650624D01*
X1760474Y11648440D01*
X1757070Y11640210D01*
X1756308Y11637873D01*
X1754174Y11629237D01*
X1753768Y11626799D01*
X1752904Y11617960D01*
X1752904Y9434931D01*
X1753768Y9426092D01*
X1754174Y9423654D01*
X1756308Y9415068D01*
X1757070Y9412732D01*
X1760474Y9404502D01*
X1761591Y9402318D01*
X1766163Y9394698D01*
X1767586Y9392666D01*
X1773275Y9385808D01*
X2026615Y9132417D01*
X2028799Y9129115D01*
X2029561Y9125254D01*
X2029561Y9071711D01*
X2083104Y9071711D01*
X2087016Y9070898D01*
X2090318Y9068714D01*
X2134616Y9024416D01*
X2136546Y9021724D01*
X2137511Y9018574D01*
X2139086Y9006890D01*
X2142693Y8993733D01*
X2148027Y8981186D01*
X2154936Y8969451D01*
X2163419Y8958783D01*
X2173224Y8949283D01*
X2184196Y8941206D01*
X2196134Y8934653D01*
X2208885Y8929725D01*
X2222144Y8926576D01*
X2235708Y8925204D01*
X2249322Y8925661D01*
X2262784Y8927947D01*
X2275789Y8931960D01*
X2288184Y8937701D01*
X2294585Y8941816D01*
X2298649Y8943289D01*
X2302967Y8942984D01*
X2306726Y8940901D01*
X2309317Y8937447D01*
X2310231Y8933230D01*
X2310231Y8051292D01*
X2310434Y8046212D01*
X2311095Y8041386D01*
X2312162Y8036610D01*
X2313635Y8031988D01*
X2315464Y8027466D01*
X2317750Y8023148D01*
X2320340Y8019034D01*
X2323338Y8015173D01*
X2326741Y8011414D01*
X2839415Y7498740D01*
X2843174Y7495286D01*
X2847035Y7492339D01*
X2851150Y7489698D01*
X2855468Y7487462D01*
X2859989Y7485583D01*
X2864662Y7484109D01*
X2869387Y7483043D01*
X2874264Y7482433D01*
G37*
G36*
X6738315Y7643063D02*
G01*
X6887209Y7643063D01*
X6893509Y7643774D01*
X6898995Y7645704D01*
X6903872Y7648752D01*
X6907987Y7652867D01*
X6911035Y7657744D01*
X6912965Y7663230D01*
X6913676Y7669530D01*
X6913676Y7818424D01*
X6912965Y7824724D01*
X6911035Y7830210D01*
X6907987Y7835087D01*
X6903872Y7839202D01*
X6898995Y7842250D01*
X6893509Y7844180D01*
X6887209Y7844891D01*
X6738315Y7844891D01*
X6732016Y7844180D01*
X6726529Y7842250D01*
X6721652Y7839202D01*
X6717538Y7835087D01*
X6714490Y7830210D01*
X6712559Y7824724D01*
X6711848Y7818424D01*
X6711848Y7669530D01*
X6712559Y7663230D01*
X6714490Y7657744D01*
X6717538Y7652867D01*
X6721652Y7648752D01*
X6726529Y7645704D01*
X6732016Y7643774D01*
G37*
G36*
X6054140Y7643164D02*
G01*
X6067552Y7644485D01*
X6080658Y7647635D01*
X6093206Y7652461D01*
X6105042Y7658963D01*
X6115913Y7666939D01*
X6125565Y7676286D01*
X6133947Y7686903D01*
X6140805Y7698486D01*
X6146088Y7710881D01*
X6149644Y7723886D01*
X6151422Y7737246D01*
X6151422Y7750708D01*
X6149644Y7764068D01*
X6146088Y7777073D01*
X6140805Y7789468D01*
X6133947Y7801051D01*
X6125565Y7811668D01*
X6115913Y7821015D01*
X6105042Y7828991D01*
X6093206Y7835493D01*
X6080658Y7840319D01*
X6067552Y7843469D01*
X6054140Y7844790D01*
X6040678Y7844332D01*
X6027369Y7842097D01*
X6014516Y7838135D01*
X6002274Y7832445D01*
X5990894Y7825181D01*
X5980633Y7816494D01*
X5971590Y7806486D01*
X5963970Y7795412D01*
X5957874Y7783372D01*
X5953455Y7770622D01*
X5950762Y7757414D01*
X5949899Y7743952D01*
X5950762Y7730540D01*
X5953455Y7717332D01*
X5957874Y7704581D01*
X5963970Y7692542D01*
X5971590Y7681468D01*
X5980633Y7671460D01*
X5990894Y7662773D01*
X6002274Y7655509D01*
X6014516Y7649819D01*
X6027369Y7645857D01*
X6040678Y7643622D01*
G37*
G36*
X5038140Y7643164D02*
G01*
X5051552Y7644485D01*
X5064658Y7647635D01*
X5077206Y7652461D01*
X5089042Y7658963D01*
X5099913Y7666939D01*
X5109565Y7676286D01*
X5117947Y7686903D01*
X5124805Y7698486D01*
X5130088Y7710881D01*
X5133644Y7723886D01*
X5135422Y7737246D01*
X5135422Y7750708D01*
X5133644Y7764068D01*
X5130088Y7777073D01*
X5124805Y7789468D01*
X5117947Y7801051D01*
X5109565Y7811668D01*
X5099913Y7821015D01*
X5089042Y7828991D01*
X5077206Y7835493D01*
X5064658Y7840319D01*
X5051552Y7843469D01*
X5038140Y7844790D01*
X5024678Y7844332D01*
X5011369Y7842097D01*
X4998516Y7838135D01*
X4986274Y7832445D01*
X4974894Y7825181D01*
X4964633Y7816494D01*
X4955590Y7806486D01*
X4947970Y7795412D01*
X4941874Y7783372D01*
X4937455Y7770622D01*
X4934762Y7757414D01*
X4933899Y7743952D01*
X4934762Y7730540D01*
X4937455Y7717332D01*
X4941874Y7704581D01*
X4947970Y7692542D01*
X4955590Y7681468D01*
X4964633Y7671460D01*
X4974894Y7662773D01*
X4986274Y7655509D01*
X4998516Y7649819D01*
X5011369Y7645857D01*
X5024678Y7643622D01*
G37*
G36*
X6562140Y7643164D02*
G01*
X6575552Y7644485D01*
X6588658Y7647635D01*
X6601206Y7652461D01*
X6613042Y7658963D01*
X6623913Y7666939D01*
X6633565Y7676286D01*
X6641947Y7686903D01*
X6648805Y7698486D01*
X6654088Y7710881D01*
X6657644Y7723886D01*
X6659422Y7737246D01*
X6659422Y7750708D01*
X6657644Y7764068D01*
X6654088Y7777073D01*
X6648805Y7789468D01*
X6641947Y7801051D01*
X6633565Y7811668D01*
X6623913Y7821015D01*
X6613042Y7828991D01*
X6601206Y7835493D01*
X6588658Y7840319D01*
X6575552Y7843469D01*
X6562140Y7844790D01*
X6548678Y7844332D01*
X6535369Y7842097D01*
X6522516Y7838135D01*
X6510274Y7832445D01*
X6498894Y7825181D01*
X6488633Y7816494D01*
X6479590Y7806486D01*
X6471970Y7795412D01*
X6465874Y7783372D01*
X6461455Y7770622D01*
X6458762Y7757414D01*
X6457899Y7743952D01*
X6458762Y7730540D01*
X6461455Y7717332D01*
X6465874Y7704581D01*
X6471970Y7692542D01*
X6479590Y7681468D01*
X6488633Y7671460D01*
X6498894Y7662773D01*
X6510274Y7655509D01*
X6522516Y7649819D01*
X6535369Y7645857D01*
X6548678Y7643622D01*
G37*
G36*
X5800140Y7643164D02*
G01*
X5813552Y7644485D01*
X5826658Y7647635D01*
X5839206Y7652461D01*
X5851042Y7658963D01*
X5861913Y7666939D01*
X5871565Y7676286D01*
X5879947Y7686903D01*
X5886805Y7698486D01*
X5892088Y7710881D01*
X5895644Y7723886D01*
X5897422Y7737246D01*
X5897422Y7750708D01*
X5895644Y7764068D01*
X5892088Y7777073D01*
X5886805Y7789468D01*
X5879947Y7801051D01*
X5871565Y7811668D01*
X5861913Y7821015D01*
X5851042Y7828991D01*
X5839206Y7835493D01*
X5826658Y7840319D01*
X5813552Y7843469D01*
X5800140Y7844790D01*
X5786678Y7844332D01*
X5773369Y7842097D01*
X5760516Y7838135D01*
X5748274Y7832445D01*
X5736894Y7825181D01*
X5726633Y7816494D01*
X5717590Y7806486D01*
X5709970Y7795412D01*
X5703874Y7783372D01*
X5699455Y7770622D01*
X5696762Y7757414D01*
X5695899Y7743952D01*
X5696762Y7730540D01*
X5699455Y7717332D01*
X5703874Y7704581D01*
X5709970Y7692542D01*
X5717590Y7681468D01*
X5726633Y7671460D01*
X5736894Y7662773D01*
X5748274Y7655509D01*
X5760516Y7649819D01*
X5773369Y7645857D01*
X5786678Y7643622D01*
G37*
G36*
X5546140Y7643164D02*
G01*
X5559552Y7644485D01*
X5572658Y7647635D01*
X5585206Y7652461D01*
X5597042Y7658963D01*
X5607913Y7666939D01*
X5617565Y7676286D01*
X5625947Y7686903D01*
X5632805Y7698486D01*
X5638088Y7710881D01*
X5641644Y7723886D01*
X5643422Y7737246D01*
X5643422Y7750708D01*
X5641644Y7764068D01*
X5638088Y7777073D01*
X5632805Y7789468D01*
X5625947Y7801051D01*
X5617565Y7811668D01*
X5607913Y7821015D01*
X5597042Y7828991D01*
X5585206Y7835493D01*
X5572658Y7840319D01*
X5559552Y7843469D01*
X5546140Y7844790D01*
X5532678Y7844332D01*
X5519369Y7842097D01*
X5506516Y7838135D01*
X5494274Y7832445D01*
X5482894Y7825181D01*
X5472633Y7816494D01*
X5463590Y7806486D01*
X5455970Y7795412D01*
X5449874Y7783372D01*
X5445455Y7770622D01*
X5442762Y7757414D01*
X5441899Y7743952D01*
X5442762Y7730540D01*
X5445455Y7717332D01*
X5449874Y7704581D01*
X5455970Y7692542D01*
X5463590Y7681468D01*
X5472633Y7671460D01*
X5482894Y7662773D01*
X5494274Y7655509D01*
X5506516Y7649819D01*
X5519369Y7645857D01*
X5532678Y7643622D01*
G37*
G36*
X6308140Y7643164D02*
G01*
X6321552Y7644485D01*
X6334658Y7647635D01*
X6347206Y7652461D01*
X6359042Y7658963D01*
X6369913Y7666939D01*
X6379565Y7676286D01*
X6387947Y7686903D01*
X6394805Y7698486D01*
X6400088Y7710881D01*
X6403644Y7723886D01*
X6405422Y7737246D01*
X6405422Y7750708D01*
X6403644Y7764068D01*
X6400088Y7777073D01*
X6394805Y7789468D01*
X6387947Y7801051D01*
X6379565Y7811668D01*
X6369913Y7821015D01*
X6359042Y7828991D01*
X6347206Y7835493D01*
X6334658Y7840319D01*
X6321552Y7843469D01*
X6308140Y7844790D01*
X6294678Y7844332D01*
X6281369Y7842097D01*
X6268516Y7838135D01*
X6256274Y7832445D01*
X6244894Y7825181D01*
X6234633Y7816494D01*
X6225590Y7806486D01*
X6217970Y7795412D01*
X6211874Y7783372D01*
X6207455Y7770622D01*
X6204762Y7757414D01*
X6203899Y7743952D01*
X6204762Y7730540D01*
X6207455Y7717332D01*
X6211874Y7704581D01*
X6217970Y7692542D01*
X6225590Y7681468D01*
X6234633Y7671460D01*
X6244894Y7662773D01*
X6256274Y7655509D01*
X6268516Y7649819D01*
X6281369Y7645857D01*
X6294678Y7643622D01*
G37*
G36*
X1940661Y8935466D02*
G01*
X1940661Y8982811D01*
X1893316Y8982811D01*
X1894027Y8981186D01*
X1900936Y8969451D01*
X1909419Y8958783D01*
X1919224Y8949283D01*
X1930196Y8941206D01*
G37*
G36*
X2029561Y8935567D02*
G01*
X2034184Y8937701D01*
X2045665Y8945067D01*
X2056079Y8953855D01*
X2065223Y8963964D01*
X2072944Y8975191D01*
X2076805Y8982811D01*
X2029561Y8982811D01*
G37*
G36*
X1893316Y9071711D02*
G01*
X1940661Y9071711D01*
X1940661Y9119006D01*
X1930196Y9113266D01*
X1919224Y9105188D01*
X1909419Y9095740D01*
X1900936Y9085021D01*
X1894027Y9073286D01*
G37*
G36*
X10527284Y9755479D02*
G01*
X10676940Y9755479D01*
X10683240Y9756190D01*
X10688726Y9758121D01*
X10693603Y9761220D01*
X10697718Y9765284D01*
X10700816Y9770211D01*
X10702696Y9775647D01*
X10703407Y9781997D01*
X10703407Y9931654D01*
X10702696Y9937953D01*
X10700816Y9943439D01*
X10697718Y9948316D01*
X10693603Y9952431D01*
X10688726Y9955479D01*
X10683240Y9957409D01*
X10676940Y9958120D01*
X10527284Y9958120D01*
X10520984Y9957409D01*
X10515498Y9955479D01*
X10510621Y9952431D01*
X10506506Y9948316D01*
X10503408Y9943439D01*
X10501528Y9937953D01*
X10500817Y9931654D01*
X10500817Y9781997D01*
X10501528Y9775647D01*
X10503408Y9770211D01*
X10506506Y9765284D01*
X10510621Y9761220D01*
X10515498Y9758121D01*
X10520984Y9756190D01*
G37*
G36*
X10852708Y9755581D02*
G01*
X10866272Y9756038D01*
X10879582Y9758273D01*
X10892536Y9762286D01*
X10904778Y9767976D01*
X10916208Y9775291D01*
X10926521Y9784029D01*
X10935614Y9794036D01*
X10943234Y9805212D01*
X10949381Y9817252D01*
X10953800Y9830054D01*
X10956493Y9843312D01*
X10957407Y9856825D01*
X10956493Y9870287D01*
X10953800Y9883546D01*
X10949381Y9896348D01*
X10943234Y9908438D01*
X10935614Y9919563D01*
X10926521Y9929622D01*
X10916208Y9938359D01*
X10904778Y9945624D01*
X10892536Y9951313D01*
X10879582Y9955326D01*
X10866272Y9957562D01*
X10852708Y9958019D01*
X10839246Y9956698D01*
X10826089Y9953548D01*
X10813491Y9948672D01*
X10801604Y9942169D01*
X10790732Y9934143D01*
X10780979Y9924745D01*
X10772597Y9914128D01*
X10765688Y9902494D01*
X10760456Y9890048D01*
X10756849Y9876993D01*
X10755071Y9863582D01*
X10755071Y9850069D01*
X10756849Y9836658D01*
X10760456Y9823602D01*
X10765688Y9811105D01*
X10772597Y9799472D01*
X10780979Y9788855D01*
X10790732Y9779457D01*
X10801604Y9771430D01*
X10813491Y9764928D01*
X10826089Y9760051D01*
X10839246Y9756952D01*
G37*
G36*
X11360708Y9755581D02*
G01*
X11374272Y9756038D01*
X11387582Y9758273D01*
X11400536Y9762286D01*
X11412778Y9767976D01*
X11424208Y9775291D01*
X11434521Y9784029D01*
X11443614Y9794036D01*
X11451234Y9805212D01*
X11457381Y9817252D01*
X11461800Y9830054D01*
X11464493Y9843312D01*
X11465407Y9856825D01*
X11464493Y9870287D01*
X11461800Y9883546D01*
X11457381Y9896348D01*
X11451234Y9908438D01*
X11443614Y9919563D01*
X11434521Y9929622D01*
X11424208Y9938359D01*
X11412778Y9945624D01*
X11400536Y9951313D01*
X11387582Y9955326D01*
X11374272Y9957562D01*
X11360708Y9958019D01*
X11347246Y9956698D01*
X11334089Y9953548D01*
X11321491Y9948672D01*
X11309604Y9942169D01*
X11298732Y9934143D01*
X11288979Y9924745D01*
X11280597Y9914128D01*
X11273688Y9902494D01*
X11268456Y9890048D01*
X11264849Y9876993D01*
X11263071Y9863582D01*
X11263071Y9850069D01*
X11264849Y9836658D01*
X11268456Y9823602D01*
X11273688Y9811105D01*
X11280597Y9799472D01*
X11288979Y9788855D01*
X11298732Y9779457D01*
X11309604Y9771430D01*
X11321491Y9764928D01*
X11334089Y9760051D01*
X11347246Y9756952D01*
G37*
G36*
X11106708Y9755581D02*
G01*
X11120272Y9756038D01*
X11133582Y9758273D01*
X11146536Y9762286D01*
X11158778Y9767976D01*
X11170208Y9775291D01*
X11180521Y9784029D01*
X11189614Y9794036D01*
X11197234Y9805212D01*
X11203381Y9817252D01*
X11207800Y9830054D01*
X11210493Y9843312D01*
X11211407Y9856825D01*
X11210493Y9870287D01*
X11207800Y9883546D01*
X11203381Y9896348D01*
X11197234Y9908438D01*
X11189614Y9919563D01*
X11180521Y9929622D01*
X11170208Y9938359D01*
X11158778Y9945624D01*
X11146536Y9951313D01*
X11133582Y9955326D01*
X11120272Y9957562D01*
X11106708Y9958019D01*
X11093246Y9956698D01*
X11080089Y9953548D01*
X11067491Y9948672D01*
X11055604Y9942169D01*
X11044732Y9934143D01*
X11034979Y9924745D01*
X11026597Y9914128D01*
X11019688Y9902494D01*
X11014456Y9890048D01*
X11010849Y9876993D01*
X11009071Y9863582D01*
X11009071Y9850069D01*
X11010849Y9836658D01*
X11014456Y9823602D01*
X11019688Y9811105D01*
X11026597Y9799472D01*
X11034979Y9788855D01*
X11044732Y9779457D01*
X11055604Y9771430D01*
X11067491Y9764928D01*
X11080089Y9760051D01*
X11093246Y9756952D01*
G37*
G36*
X10805515Y11020907D02*
G01*
X10820044Y11020907D01*
X10834522Y11022736D01*
X10848594Y11026394D01*
X10862157Y11031728D01*
X10874908Y11038738D01*
X10886694Y11047323D01*
X10897311Y11057280D01*
X10906556Y11068507D01*
X10914380Y11080800D01*
X10920577Y11093958D01*
X10925048Y11107775D01*
X10927283Y11119307D01*
X10928756Y11122964D01*
X10931550Y11125809D01*
X10935258Y11127333D01*
X10939221Y11127333D01*
X10942929Y11125809D01*
X10945723Y11122964D01*
X10947196Y11119307D01*
X10949432Y11107775D01*
X10953902Y11093958D01*
X10960100Y11080800D01*
X10967923Y11068507D01*
X10977168Y11057280D01*
X10987786Y11047323D01*
X10999571Y11038738D01*
X11012322Y11031728D01*
X11025886Y11026394D01*
X11039957Y11022736D01*
X11054435Y11020907D01*
X11068964Y11020907D01*
X11083442Y11022736D01*
X11097514Y11026394D01*
X11111077Y11031728D01*
X11123828Y11038738D01*
X11135614Y11047323D01*
X11146231Y11057280D01*
X11155476Y11068507D01*
X11163300Y11080800D01*
X11169497Y11093958D01*
X11173968Y11107775D01*
X11176203Y11119307D01*
X11177676Y11122964D01*
X11180470Y11125809D01*
X11184178Y11127333D01*
X11188141Y11127333D01*
X11191849Y11125809D01*
X11194643Y11122964D01*
X11196116Y11119307D01*
X11198352Y11107775D01*
X11202822Y11093958D01*
X11209020Y11080800D01*
X11216843Y11068507D01*
X11226088Y11057280D01*
X11236706Y11047323D01*
X11248491Y11038738D01*
X11261242Y11031728D01*
X11274806Y11026394D01*
X11288877Y11022736D01*
X11303355Y11020907D01*
X11317884Y11020907D01*
X11332362Y11022736D01*
X11346434Y11026394D01*
X11359997Y11031728D01*
X11372748Y11038738D01*
X11384534Y11047323D01*
X11395151Y11057280D01*
X11404396Y11068507D01*
X11412220Y11080800D01*
X11418417Y11093958D01*
X11422888Y11107775D01*
X11425631Y11122101D01*
X11426545Y11136630D01*
X11425631Y11151158D01*
X11422888Y11165484D01*
X11418417Y11179302D01*
X11412220Y11192459D01*
X11404396Y11204752D01*
X11395151Y11215979D01*
X11384534Y11225936D01*
X11372748Y11234521D01*
X11359997Y11241532D01*
X11346434Y11246866D01*
X11332362Y11250523D01*
X11317884Y11252352D01*
X11303355Y11252352D01*
X11288877Y11250523D01*
X11274806Y11246866D01*
X11261242Y11241532D01*
X11248491Y11234521D01*
X11236706Y11225936D01*
X11226088Y11215979D01*
X11216843Y11204752D01*
X11209020Y11192459D01*
X11202822Y11179302D01*
X11198352Y11165484D01*
X11196116Y11153952D01*
X11194643Y11150295D01*
X11191849Y11147450D01*
X11188141Y11145926D01*
X11184178Y11145926D01*
X11180470Y11147450D01*
X11177676Y11150295D01*
X11176203Y11153952D01*
X11173968Y11165484D01*
X11169497Y11179302D01*
X11163300Y11192459D01*
X11155476Y11204752D01*
X11146231Y11215979D01*
X11135614Y11225936D01*
X11123828Y11234521D01*
X11111077Y11241532D01*
X11097514Y11246866D01*
X11083442Y11250523D01*
X11068964Y11252352D01*
X11054435Y11252352D01*
X11039957Y11250523D01*
X11025886Y11246866D01*
X11012322Y11241532D01*
X10999571Y11234521D01*
X10987786Y11225936D01*
X10977168Y11215979D01*
X10967923Y11204752D01*
X10960100Y11192459D01*
X10953902Y11179302D01*
X10949432Y11165484D01*
X10947196Y11153952D01*
X10945723Y11150295D01*
X10942929Y11147450D01*
X10939221Y11145926D01*
X10935258Y11145926D01*
X10931550Y11147450D01*
X10928756Y11150295D01*
X10927283Y11153952D01*
X10925048Y11165484D01*
X10920577Y11179302D01*
X10914380Y11192459D01*
X10906556Y11204752D01*
X10897311Y11215979D01*
X10886694Y11225936D01*
X10874908Y11234521D01*
X10862157Y11241532D01*
X10848594Y11246866D01*
X10834522Y11250523D01*
X10820044Y11252352D01*
X10805515Y11252352D01*
X10791037Y11250523D01*
X10776966Y11246866D01*
X10763402Y11241532D01*
X10750651Y11234521D01*
X10738866Y11225936D01*
X10728248Y11215979D01*
X10719003Y11204752D01*
X10711180Y11192459D01*
X10704982Y11179302D01*
X10700512Y11165484D01*
X10697768Y11151158D01*
X10696854Y11136630D01*
X10697768Y11122101D01*
X10700512Y11107775D01*
X10704982Y11093958D01*
X10711180Y11080800D01*
X10719003Y11068507D01*
X10728248Y11057280D01*
X10738866Y11047323D01*
X10750651Y11038738D01*
X10763402Y11031728D01*
X10776966Y11026394D01*
X10791037Y11022736D01*
G37*
G36*
X10337342Y11680037D02*
G01*
X10536072Y11680037D01*
X10542422Y11680799D01*
X10547858Y11682679D01*
X10552785Y11685778D01*
X10556849Y11689842D01*
X10559948Y11694769D01*
X10561828Y11700205D01*
X10562539Y11706555D01*
X10562539Y12065304D01*
X10561828Y12071654D01*
X10559948Y12077090D01*
X10556849Y12082018D01*
X10552785Y12086082D01*
X10547858Y12089180D01*
X10542422Y12091060D01*
X10536072Y12091771D01*
X10337342Y12091771D01*
X10330992Y12091060D01*
X10325557Y12089180D01*
X10320629Y12086082D01*
X10316565Y12082018D01*
X10313466Y12077090D01*
X10311536Y12071654D01*
X10310825Y12065304D01*
X10310825Y11706555D01*
X10311536Y11700205D01*
X10313466Y11694769D01*
X10316565Y11689842D01*
X10320629Y11685778D01*
X10325557Y11682679D01*
X10330992Y11680799D01*
G37*
G36*
X11587327Y11680037D02*
G01*
X11786057Y11680037D01*
X11792407Y11680799D01*
X11797842Y11682679D01*
X11802770Y11685778D01*
X11806834Y11689842D01*
X11809933Y11694769D01*
X11811863Y11700205D01*
X11812574Y11706555D01*
X11812574Y12065304D01*
X11811863Y12071654D01*
X11809933Y12077090D01*
X11806834Y12082018D01*
X11802770Y12086082D01*
X11797842Y12089180D01*
X11792407Y12091060D01*
X11786057Y12091771D01*
X11587327Y12091771D01*
X11580977Y12091060D01*
X11575542Y12089180D01*
X11570614Y12086082D01*
X11566550Y12082018D01*
X11563451Y12077090D01*
X11561572Y12071654D01*
X11560860Y12065304D01*
X11560860Y11706555D01*
X11561572Y11700205D01*
X11563451Y11694769D01*
X11566550Y11689842D01*
X11570614Y11685778D01*
X11575542Y11682679D01*
X11580977Y11680799D01*
G37*
G36*
X2853740Y12469164D02*
G01*
X2867152Y12470485D01*
X2880258Y12473635D01*
X2892806Y12478461D01*
X2904642Y12484963D01*
X2915513Y12492939D01*
X2925165Y12502286D01*
X2933547Y12512903D01*
X2940405Y12524486D01*
X2945688Y12536881D01*
X2949244Y12549886D01*
X2951022Y12563246D01*
X2951022Y12576708D01*
X2949244Y12590068D01*
X2945688Y12603073D01*
X2940405Y12615468D01*
X2933547Y12627051D01*
X2925165Y12637668D01*
X2915513Y12647015D01*
X2904642Y12654991D01*
X2892806Y12661493D01*
X2880258Y12666319D01*
X2867152Y12669469D01*
X2853740Y12670790D01*
X2840278Y12670332D01*
X2826969Y12668097D01*
X2814116Y12664135D01*
X2801874Y12658445D01*
X2790494Y12651181D01*
X2780233Y12642494D01*
X2771190Y12632486D01*
X2763570Y12621412D01*
X2757474Y12609372D01*
X2753055Y12596622D01*
X2750362Y12583414D01*
X2749499Y12569952D01*
X2750362Y12556540D01*
X2753055Y12543332D01*
X2757474Y12530582D01*
X2763570Y12518542D01*
X2771190Y12507468D01*
X2780233Y12497460D01*
X2790494Y12488773D01*
X2801874Y12481509D01*
X2814116Y12475819D01*
X2826969Y12471857D01*
X2840278Y12469622D01*
G37*
G36*
X11303355Y12471247D02*
G01*
X11317884Y12471247D01*
X11332362Y12473076D01*
X11346434Y12476734D01*
X11359997Y12482068D01*
X11372748Y12489078D01*
X11384534Y12497663D01*
X11395151Y12507620D01*
X11404396Y12518847D01*
X11412220Y12531140D01*
X11418417Y12544298D01*
X11422888Y12558115D01*
X11425631Y12572441D01*
X11426545Y12586970D01*
X11425631Y12601498D01*
X11422888Y12615824D01*
X11418417Y12629642D01*
X11412220Y12642799D01*
X11404396Y12655092D01*
X11395151Y12666319D01*
X11384534Y12676276D01*
X11372748Y12684861D01*
X11359997Y12691872D01*
X11346434Y12697206D01*
X11332362Y12700863D01*
X11317884Y12702692D01*
X11303355Y12702692D01*
X11288877Y12700863D01*
X11274806Y12697206D01*
X11261242Y12691872D01*
X11248491Y12684861D01*
X11236706Y12676276D01*
X11226088Y12666319D01*
X11216843Y12655092D01*
X11209020Y12642799D01*
X11202822Y12629642D01*
X11198352Y12615824D01*
X11195608Y12601498D01*
X11194694Y12586970D01*
X11195608Y12572441D01*
X11198352Y12558115D01*
X11202822Y12544298D01*
X11209020Y12531140D01*
X11216843Y12518847D01*
X11226088Y12507620D01*
X11236706Y12497663D01*
X11248491Y12489078D01*
X11261242Y12482068D01*
X11274806Y12476734D01*
X11288877Y12473076D01*
G37*
G36*
X10805515Y12471247D02*
G01*
X10820044Y12471247D01*
X10834522Y12473076D01*
X10848594Y12476734D01*
X10862157Y12482068D01*
X10874908Y12489078D01*
X10886694Y12497663D01*
X10897311Y12507620D01*
X10906556Y12518847D01*
X10914380Y12531140D01*
X10920577Y12544298D01*
X10925048Y12558115D01*
X10927791Y12572441D01*
X10928705Y12586970D01*
X10927791Y12601498D01*
X10925048Y12615824D01*
X10920577Y12629642D01*
X10914380Y12642799D01*
X10906556Y12655092D01*
X10897311Y12666319D01*
X10886694Y12676276D01*
X10874908Y12684861D01*
X10862157Y12691872D01*
X10848594Y12697206D01*
X10834522Y12700863D01*
X10820044Y12702692D01*
X10805515Y12702692D01*
X10791037Y12700863D01*
X10776966Y12697206D01*
X10763402Y12691872D01*
X10750651Y12684861D01*
X10738866Y12676276D01*
X10728248Y12666319D01*
X10719003Y12655092D01*
X10711180Y12642799D01*
X10704982Y12629642D01*
X10700512Y12615824D01*
X10697768Y12601498D01*
X10696854Y12586970D01*
X10697768Y12572441D01*
X10700512Y12558115D01*
X10704982Y12544298D01*
X10711180Y12531140D01*
X10719003Y12518847D01*
X10728248Y12507620D01*
X10738866Y12497663D01*
X10750651Y12489078D01*
X10763402Y12482068D01*
X10776966Y12476734D01*
X10791037Y12473076D01*
G37*
G36*
X4791760Y12613843D02*
G01*
X4838496Y12613843D01*
X4838496Y12660579D01*
X4833874Y12658445D01*
X4822494Y12651181D01*
X4812233Y12642494D01*
X4803190Y12632486D01*
X4795570Y12621412D01*
G37*
G36*
X1295400Y12826492D02*
G01*
X1310792Y12827457D01*
X1325930Y12830200D01*
X1340612Y12834772D01*
X1354632Y12841122D01*
X1367840Y12849098D01*
X1379931Y12858597D01*
X1390802Y12869468D01*
X1400302Y12881559D01*
X1408277Y12894767D01*
X1414627Y12908788D01*
X1419199Y12923469D01*
X1421942Y12938607D01*
X1422908Y12954000D01*
X1421942Y12969392D01*
X1419199Y12984530D01*
X1414627Y12999212D01*
X1408277Y13013232D01*
X1400302Y13026440D01*
X1390802Y13038531D01*
X1379931Y13049402D01*
X1367840Y13058902D01*
X1354632Y13066877D01*
X1340612Y13073227D01*
X1325930Y13077799D01*
X1310792Y13080542D01*
X1295400Y13081508D01*
X1280007Y13080542D01*
X1264869Y13077799D01*
X1250188Y13073227D01*
X1236167Y13066877D01*
X1222959Y13058902D01*
X1210868Y13049402D01*
X1199997Y13038531D01*
X1190498Y13026440D01*
X1182522Y13013232D01*
X1176172Y12999212D01*
X1171600Y12984530D01*
X1168857Y12969392D01*
X1167892Y12954000D01*
X1168857Y12938607D01*
X1171600Y12923469D01*
X1176172Y12908788D01*
X1182522Y12894767D01*
X1190498Y12881559D01*
X1199997Y12869468D01*
X1210868Y12858597D01*
X1222959Y12849098D01*
X1236167Y12841122D01*
X1250188Y12834772D01*
X1264869Y12830200D01*
X1280007Y12827457D01*
G37*
G36*
X12065000Y12828117D02*
G01*
X12080189Y12829032D01*
X12095124Y12831775D01*
X12109653Y12836296D01*
X12123521Y12842544D01*
X12136526Y12850418D01*
X12148464Y12859766D01*
X12159234Y12870535D01*
X12168581Y12882473D01*
X12176455Y12895478D01*
X12182703Y12909346D01*
X12187224Y12923875D01*
X12189968Y12938810D01*
X12190882Y12954000D01*
X12189968Y12969189D01*
X12187224Y12984124D01*
X12182703Y12998653D01*
X12176455Y13012521D01*
X12168581Y13025526D01*
X12159234Y13037464D01*
X12148464Y13048234D01*
X12136526Y13057581D01*
X12123521Y13065455D01*
X12109653Y13071703D01*
X12095124Y13076224D01*
X12080189Y13078968D01*
X12065000Y13079882D01*
X12049810Y13078968D01*
X12034875Y13076224D01*
X12020346Y13071703D01*
X12006478Y13065455D01*
X11993473Y13057581D01*
X11981535Y13048234D01*
X11970766Y13037464D01*
X11961418Y13025526D01*
X11953544Y13012521D01*
X11947296Y12998653D01*
X11942775Y12984124D01*
X11940032Y12969189D01*
X11939117Y12954000D01*
X11940032Y12938810D01*
X11942775Y12923875D01*
X11947296Y12909346D01*
X11953544Y12895478D01*
X11961418Y12882473D01*
X11970766Y12870535D01*
X11981535Y12859766D01*
X11993473Y12850418D01*
X12006478Y12842544D01*
X12020346Y12836296D01*
X12034875Y12831775D01*
X12049810Y12829032D01*
G37*
G36*
X9918700Y12828117D02*
G01*
X9933889Y12829032D01*
X9948824Y12831775D01*
X9963353Y12836296D01*
X9977221Y12842544D01*
X9990226Y12850418D01*
X10002164Y12859766D01*
X10012934Y12870535D01*
X10022281Y12882473D01*
X10030155Y12895478D01*
X10036403Y12909346D01*
X10040924Y12923875D01*
X10043668Y12938810D01*
X10044582Y12954000D01*
X10043668Y12969189D01*
X10040924Y12984124D01*
X10036403Y12998653D01*
X10030155Y13012521D01*
X10022281Y13025526D01*
X10012934Y13037464D01*
X10002164Y13048234D01*
X9990226Y13057581D01*
X9977221Y13065455D01*
X9963353Y13071703D01*
X9948824Y13076224D01*
X9933889Y13078968D01*
X9918700Y13079882D01*
X9903510Y13078968D01*
X9888575Y13076224D01*
X9874046Y13071703D01*
X9860178Y13065455D01*
X9847173Y13057581D01*
X9835235Y13048234D01*
X9824466Y13037464D01*
X9815118Y13025526D01*
X9807244Y13012521D01*
X9800996Y12998653D01*
X9796475Y12984124D01*
X9793732Y12969189D01*
X9792817Y12954000D01*
X9793732Y12938810D01*
X9796475Y12923875D01*
X9800996Y12909346D01*
X9807244Y12895478D01*
X9815118Y12882473D01*
X9824466Y12870535D01*
X9835235Y12859766D01*
X9847173Y12850418D01*
X9860178Y12842544D01*
X9874046Y12836296D01*
X9888575Y12831775D01*
X9903510Y12829032D01*
G37*

%LPD*%
G36*
X2298649Y9111183D02*
G01*
X2294585Y9112656D01*
X2288184Y9116771D01*
X2275789Y9122511D01*
X2262784Y9126524D01*
X2248763Y9128810D01*
X2245055Y9129674D01*
X2241905Y9131808D01*
X1907641Y9466072D01*
X1905457Y9469374D01*
X1904695Y9473234D01*
X1904695Y11479885D01*
X1905660Y11484203D01*
X1908403Y11487708D01*
X1912366Y11489740D01*
X1916785Y11489842D01*
X1920849Y11488064D01*
X1930196Y11481206D01*
X1942134Y11474653D01*
X1954885Y11469725D01*
X1968144Y11466576D01*
X1981707Y11465204D01*
X1995322Y11465661D01*
X2008784Y11467947D01*
X2021789Y11471960D01*
X2034184Y11477701D01*
X2045665Y11485067D01*
X2056079Y11493855D01*
X2065223Y11503964D01*
X2072944Y11515191D01*
X2079091Y11527383D01*
X2083562Y11540286D01*
X2086305Y11553647D01*
X2087219Y11567210D01*
X2086305Y11580825D01*
X2083562Y11594185D01*
X2079091Y11607088D01*
X2072944Y11619280D01*
X2065223Y11630507D01*
X2056079Y11640616D01*
X2045665Y11649405D01*
X2034184Y11656771D01*
X2021789Y11662511D01*
X2008479Y11666626D01*
X2004872Y11668658D01*
X2002332Y11671909D01*
X2001367Y11675973D01*
X2002028Y11680037D01*
X2004314Y11683542D01*
X2029561Y11708739D01*
X2032863Y11710974D01*
X2036724Y11711736D01*
X2352192Y11711736D01*
X2356104Y11710974D01*
X2359406Y11708739D01*
X2361590Y11705437D01*
X2362352Y11701576D01*
X2361590Y11697665D01*
X2359406Y11694363D01*
X2326741Y11661749D01*
X2323338Y11657990D01*
X2320340Y11654129D01*
X2317445Y11649506D01*
X2314397Y11646458D01*
X2310384Y11644934D01*
X2306116Y11645188D01*
X2302306Y11647220D01*
X2299665Y11649405D01*
X2288184Y11656771D01*
X2275789Y11662511D01*
X2262784Y11666524D01*
X2249322Y11668810D01*
X2235708Y11669268D01*
X2222144Y11667896D01*
X2208885Y11664746D01*
X2196134Y11659819D01*
X2184196Y11653266D01*
X2173224Y11645188D01*
X2163419Y11635689D01*
X2154936Y11625021D01*
X2148027Y11613286D01*
X2142693Y11600738D01*
X2139086Y11587581D01*
X2137257Y11574068D01*
X2137257Y11560403D01*
X2139086Y11546890D01*
X2142693Y11533733D01*
X2148027Y11521186D01*
X2154936Y11509451D01*
X2163419Y11498783D01*
X2173224Y11489283D01*
X2184196Y11481206D01*
X2196134Y11474653D01*
X2208885Y11469725D01*
X2222144Y11466576D01*
X2235708Y11465204D01*
X2249322Y11465661D01*
X2262784Y11467947D01*
X2275789Y11471960D01*
X2288184Y11477701D01*
X2294585Y11481816D01*
X2298649Y11483289D01*
X2302967Y11482984D01*
X2306726Y11480901D01*
X2309317Y11477447D01*
X2310231Y11473230D01*
X2310231Y9121241D01*
X2309317Y9117025D01*
X2306726Y9113570D01*
X2302967Y9111488D01*
G37*

%LPD*%
G36*
X2651252Y8952992D02*
G01*
X2647035Y8953652D01*
X2643479Y8955938D01*
X2596743Y9002725D01*
X2594762Y9005417D01*
X2593848Y9008618D01*
X2595219Y9027261D01*
X2594305Y9040825D01*
X2591562Y9054236D01*
X2587091Y9067088D01*
X2580944Y9079280D01*
X2573223Y9090507D01*
X2564079Y9100616D01*
X2553665Y9109405D01*
X2542184Y9116771D01*
X2529789Y9122511D01*
X2516784Y9126524D01*
X2503322Y9128810D01*
X2489708Y9129268D01*
X2476144Y9127896D01*
X2462885Y9124746D01*
X2450185Y9119870D01*
X2437130Y9112605D01*
X2433116Y9111386D01*
X2428951Y9111843D01*
X2425344Y9113977D01*
X2422906Y9117380D01*
X2422042Y9121495D01*
X2422042Y11472976D01*
X2422906Y11477091D01*
X2425344Y11480495D01*
X2428951Y11482628D01*
X2433116Y11483086D01*
X2437130Y11481866D01*
X2450185Y11474602D01*
X2462885Y11469725D01*
X2476144Y11466576D01*
X2489708Y11465204D01*
X2503322Y11465661D01*
X2508707Y11466576D01*
X2511907Y11466576D01*
X2514955Y11465610D01*
X2517597Y11463731D01*
X2815234Y11166043D01*
X2817469Y11162741D01*
X2818231Y11158880D01*
X2818231Y9125813D01*
X2817317Y9121546D01*
X2814675Y9118092D01*
X2810814Y9116060D01*
X2806496Y9115806D01*
X2802432Y9117380D01*
X2800096Y9118955D01*
X2787650Y9125051D01*
X2774543Y9129522D01*
X2760929Y9132214D01*
X2747111Y9133128D01*
X2733294Y9132214D01*
X2719730Y9129522D01*
X2706624Y9125051D01*
X2694178Y9118955D01*
X2682697Y9111234D01*
X2672283Y9102090D01*
X2663139Y9091676D01*
X2655417Y9080195D01*
X2649321Y9067749D01*
X2644851Y9054642D01*
X2642158Y9041079D01*
X2641244Y9027261D01*
X2642158Y9013444D01*
X2644851Y8999829D01*
X2649321Y8986723D01*
X2655417Y8974277D01*
X2659126Y8968790D01*
X2660700Y8964828D01*
X2660497Y8960612D01*
X2658618Y8956802D01*
X2655316Y8954109D01*
G37*

%LPD*%
G36*
X2743047Y7758277D02*
G01*
X2738729Y7758887D01*
X2735072Y7761224D01*
X2425039Y8071256D01*
X2422804Y8074558D01*
X2422042Y8078470D01*
X2422042Y8932976D01*
X2422906Y8937091D01*
X2425344Y8940495D01*
X2428951Y8942628D01*
X2433116Y8943086D01*
X2437130Y8941866D01*
X2450185Y8934653D01*
X2462885Y8929725D01*
X2476144Y8926576D01*
X2489708Y8925204D01*
X2503322Y8925661D01*
X2508707Y8926576D01*
X2511907Y8926576D01*
X2514955Y8925610D01*
X2517546Y8923731D01*
X2918460Y8522817D01*
X2920695Y8519515D01*
X2921457Y8515654D01*
X2921457Y7836712D01*
X2920492Y7832394D01*
X2917748Y7828889D01*
X2913786Y7826908D01*
X2909316Y7826756D01*
X2904642Y7828991D01*
X2892806Y7835493D01*
X2880258Y7840319D01*
X2867152Y7843469D01*
X2853740Y7844790D01*
X2840278Y7844332D01*
X2826969Y7842097D01*
X2814116Y7838135D01*
X2801874Y7832445D01*
X2790494Y7825181D01*
X2780233Y7816494D01*
X2771190Y7806486D01*
X2763570Y7795412D01*
X2757474Y7783372D01*
X2753055Y7770622D01*
X2752191Y7766405D01*
X2750464Y7762392D01*
X2747162Y7759547D01*
G37*

%LPD*%
G36*
X3451148Y7673035D02*
G01*
X3446983Y7673898D01*
X3443579Y7676388D01*
X3441446Y7680096D01*
X3441039Y7684312D01*
X3442411Y7688325D01*
X3448405Y7698486D01*
X3453688Y7710881D01*
X3457244Y7723886D01*
X3459022Y7737246D01*
X3459022Y7750708D01*
X3457244Y7764068D01*
X3453688Y7777073D01*
X3448405Y7789468D01*
X3441547Y7801051D01*
X3433165Y7811668D01*
X3423513Y7821015D01*
X3418382Y7824774D01*
X3416198Y7827009D01*
X3414776Y7829854D01*
X3414268Y7832953D01*
X3414268Y8342782D01*
X3414064Y8347862D01*
X3413404Y8352739D01*
X3412337Y8357463D01*
X3410915Y8362137D01*
X3409035Y8366658D01*
X3406749Y8370976D01*
X3404158Y8375091D01*
X3401161Y8378952D01*
X3397758Y8382711D01*
X2933039Y8847429D01*
X2930804Y8850731D01*
X2930042Y8854592D01*
X2930042Y8928658D01*
X2930956Y8932926D01*
X2933598Y8936380D01*
X2937459Y8938412D01*
X2941777Y8938666D01*
X2945841Y8937091D01*
X2948178Y8935516D01*
X2960624Y8929420D01*
X2973730Y8924950D01*
X2987294Y8922258D01*
X3001111Y8921343D01*
X3014929Y8922258D01*
X3028543Y8924950D01*
X3041650Y8929420D01*
X3054045Y8935516D01*
X3065576Y8943238D01*
X3075990Y8952382D01*
X3085134Y8962796D01*
X3092805Y8974277D01*
X3098952Y8986723D01*
X3103422Y8999829D01*
X3106115Y9013444D01*
X3107029Y9027261D01*
X3106115Y9041079D01*
X3103422Y9054642D01*
X3098952Y9067749D01*
X3092805Y9080195D01*
X3085134Y9091676D01*
X3075990Y9102090D01*
X3065576Y9111234D01*
X3054045Y9118955D01*
X3041650Y9125051D01*
X3028543Y9129522D01*
X3014929Y9132214D01*
X3001111Y9133128D01*
X2987294Y9132214D01*
X2973730Y9129522D01*
X2960624Y9125051D01*
X2948178Y9118955D01*
X2945841Y9117380D01*
X2941777Y9115806D01*
X2937459Y9116060D01*
X2933598Y9118092D01*
X2930956Y9121597D01*
X2930042Y9125813D01*
X2930042Y11186007D01*
X2929839Y11191087D01*
X2929178Y11195964D01*
X2928112Y11200688D01*
X2926689Y11205362D01*
X2924810Y11209883D01*
X2922524Y11214201D01*
X2919933Y11218316D01*
X2916936Y11222177D01*
X2913532Y11225936D01*
X2675890Y11463578D01*
X2673553Y11467134D01*
X2672892Y11471300D01*
X2674010Y11475415D01*
X2676702Y11478717D01*
X2680512Y11480596D01*
X2684780Y11480749D01*
X2688691Y11479174D01*
X2694178Y11475516D01*
X2706624Y11469420D01*
X2719730Y11464950D01*
X2733294Y11462258D01*
X2747111Y11461343D01*
X2760929Y11462258D01*
X2774543Y11464950D01*
X2787650Y11469420D01*
X2800096Y11475516D01*
X2811576Y11483238D01*
X2821990Y11492382D01*
X2831134Y11502796D01*
X2838856Y11514277D01*
X2844952Y11526723D01*
X2849422Y11539829D01*
X2852115Y11553393D01*
X2853029Y11567210D01*
X2852115Y11581028D01*
X2849422Y11594642D01*
X2844952Y11607749D01*
X2838856Y11620195D01*
X2831134Y11631676D01*
X2821990Y11642090D01*
X2811576Y11651234D01*
X2800096Y11658955D01*
X2787650Y11665051D01*
X2774543Y11669522D01*
X2760929Y11672214D01*
X2747111Y11673128D01*
X2733294Y11672214D01*
X2728569Y11671249D01*
X2725267Y11671147D01*
X2722067Y11672112D01*
X2719374Y11674043D01*
X2699054Y11694363D01*
X2696870Y11697665D01*
X2696108Y11701576D01*
X2696870Y11705437D01*
X2699054Y11708739D01*
X2702356Y11710974D01*
X2706268Y11711736D01*
X4564075Y11711787D01*
X4572914Y11712600D01*
X4575352Y11713006D01*
X4583582Y11715038D01*
X4587240Y11715292D01*
X4590745Y11714175D01*
X4593640Y11711940D01*
X4595520Y11708790D01*
X4596180Y11705183D01*
X4596180Y11665813D01*
X4595266Y11661546D01*
X4592624Y11658092D01*
X4588814Y11656060D01*
X4584446Y11655806D01*
X4580382Y11657380D01*
X4578045Y11658955D01*
X4565650Y11665051D01*
X4552543Y11669522D01*
X4538929Y11672214D01*
X4525111Y11673128D01*
X4511294Y11672214D01*
X4497730Y11669522D01*
X4484624Y11665051D01*
X4472178Y11658955D01*
X4460646Y11651234D01*
X4450232Y11642090D01*
X4441139Y11631676D01*
X4433417Y11620195D01*
X4427270Y11607749D01*
X4422851Y11594642D01*
X4420158Y11581028D01*
X4419244Y11567210D01*
X4420158Y11553393D01*
X4422851Y11539829D01*
X4427270Y11526723D01*
X4433417Y11514277D01*
X4441139Y11502796D01*
X4450232Y11492382D01*
X4460646Y11483238D01*
X4472178Y11475516D01*
X4484624Y11469420D01*
X4497730Y11464950D01*
X4511294Y11462258D01*
X4525111Y11461343D01*
X4538929Y11462258D01*
X4552543Y11464950D01*
X4565650Y11469420D01*
X4578045Y11475516D01*
X4580382Y11477091D01*
X4584446Y11478666D01*
X4588814Y11478412D01*
X4592624Y11476380D01*
X4595266Y11472875D01*
X4596180Y11468658D01*
X4596180Y9181592D01*
X4595418Y9177731D01*
X4593234Y9174429D01*
X4552848Y9134043D01*
X4550156Y9132112D01*
X4547006Y9131147D01*
X4543704Y9131300D01*
X4538929Y9132214D01*
X4525111Y9133128D01*
X4511294Y9132214D01*
X4497730Y9129522D01*
X4484624Y9125051D01*
X4472178Y9118955D01*
X4460646Y9111234D01*
X4450232Y9102090D01*
X4441139Y9091676D01*
X4433417Y9080195D01*
X4427270Y9067749D01*
X4422851Y9054642D01*
X4420158Y9041079D01*
X4419244Y9027261D01*
X4420158Y9013444D01*
X4422851Y8999829D01*
X4427270Y8986723D01*
X4433417Y8974277D01*
X4441139Y8962796D01*
X4450232Y8952382D01*
X4460646Y8943238D01*
X4472178Y8935516D01*
X4484624Y8929420D01*
X4497730Y8924950D01*
X4511294Y8922258D01*
X4525111Y8921343D01*
X4538929Y8922258D01*
X4552543Y8924950D01*
X4565650Y8929420D01*
X4578045Y8935516D01*
X4589576Y8943238D01*
X4599990Y8952382D01*
X4609134Y8962796D01*
X4616805Y8974277D01*
X4622952Y8986723D01*
X4627422Y8999829D01*
X4630115Y9013444D01*
X4631029Y9027261D01*
X4630115Y9041079D01*
X4629150Y9045803D01*
X4629048Y9049156D01*
X4630013Y9052306D01*
X4631944Y9054998D01*
X4675479Y9098534D01*
X4679035Y9100870D01*
X4683252Y9101480D01*
X4687316Y9100362D01*
X4690618Y9097670D01*
X4692497Y9093911D01*
X4692700Y9089644D01*
X4691126Y9085732D01*
X4687417Y9080195D01*
X4681270Y9067749D01*
X4676851Y9054642D01*
X4674158Y9041079D01*
X4673244Y9027261D01*
X4674158Y9013444D01*
X4676851Y8999829D01*
X4681270Y8986723D01*
X4687417Y8974277D01*
X4695139Y8962796D01*
X4704232Y8952382D01*
X4714646Y8943238D01*
X4718710Y8940546D01*
X4721098Y8938260D01*
X4722672Y8935364D01*
X4723180Y8932113D01*
X4723180Y8923274D01*
X4722418Y8919362D01*
X4720234Y8916060D01*
X4018787Y8214664D01*
X4015079Y8212277D01*
X4010710Y8211718D01*
X4006545Y8213039D01*
X4003294Y8215985D01*
X4001465Y8218627D01*
X3994099Y8225891D01*
X3992727Y8227009D01*
X3948988Y8270748D01*
X3946804Y8274050D01*
X3946042Y8277910D01*
X3946042Y8928658D01*
X3946956Y8932926D01*
X3949598Y8936380D01*
X3953408Y8938463D01*
X3957777Y8938717D01*
X3961841Y8937142D01*
X3964178Y8935516D01*
X3976624Y8929420D01*
X3989730Y8924950D01*
X4003294Y8922258D01*
X4017111Y8921343D01*
X4030929Y8922258D01*
X4044543Y8924950D01*
X4057650Y8929420D01*
X4070045Y8935516D01*
X4081576Y8943238D01*
X4091990Y8952382D01*
X4101134Y8962796D01*
X4108805Y8974277D01*
X4114952Y8986723D01*
X4119422Y8999829D01*
X4122115Y9013444D01*
X4123029Y9027261D01*
X4122115Y9041079D01*
X4119422Y9054642D01*
X4114952Y9067749D01*
X4108805Y9080195D01*
X4101134Y9091676D01*
X4091990Y9102090D01*
X4081576Y9111234D01*
X4070045Y9118955D01*
X4057650Y9125051D01*
X4044543Y9129522D01*
X4030929Y9132214D01*
X4017111Y9133128D01*
X4003294Y9132214D01*
X3989730Y9129522D01*
X3976624Y9125051D01*
X3964178Y9118955D01*
X3961841Y9117380D01*
X3957777Y9115755D01*
X3953408Y9116009D01*
X3949598Y9118092D01*
X3946956Y9121546D01*
X3946042Y9125813D01*
X3946042Y10678007D01*
X3945788Y10683087D01*
X3945178Y10687964D01*
X3944112Y10692688D01*
X3942638Y10697362D01*
X3940759Y10701883D01*
X3938524Y10706201D01*
X3935882Y10710316D01*
X3932936Y10714177D01*
X3929481Y10717936D01*
X3183788Y11463629D01*
X3181502Y11467185D01*
X3180842Y11471351D01*
X3181959Y11475466D01*
X3184652Y11478717D01*
X3188462Y11480647D01*
X3192678Y11480800D01*
X3196640Y11479225D01*
X3202178Y11475516D01*
X3214624Y11469420D01*
X3227730Y11464950D01*
X3241294Y11462258D01*
X3255111Y11461343D01*
X3268929Y11462258D01*
X3282543Y11464950D01*
X3295650Y11469420D01*
X3308045Y11475516D01*
X3319576Y11483238D01*
X3329990Y11492382D01*
X3339134Y11502796D01*
X3346805Y11514277D01*
X3352952Y11526723D01*
X3357422Y11539829D01*
X3360115Y11553393D01*
X3361029Y11567210D01*
X3360115Y11581028D01*
X3357422Y11594642D01*
X3352952Y11607749D01*
X3346805Y11620195D01*
X3339134Y11631676D01*
X3329990Y11642090D01*
X3319576Y11651234D01*
X3308045Y11658955D01*
X3295650Y11665051D01*
X3282543Y11669522D01*
X3268929Y11672214D01*
X3255111Y11673128D01*
X3241294Y11672214D01*
X3227730Y11669522D01*
X3214624Y11665051D01*
X3202178Y11658955D01*
X3190646Y11651234D01*
X3180232Y11642090D01*
X3171139Y11631676D01*
X3163417Y11620195D01*
X3157321Y11607749D01*
X3152851Y11594642D01*
X3150158Y11581028D01*
X3149244Y11567210D01*
X3150158Y11553393D01*
X3152851Y11539829D01*
X3157321Y11526723D01*
X3163417Y11514277D01*
X3167126Y11508740D01*
X3168700Y11504777D01*
X3168548Y11500561D01*
X3166618Y11496751D01*
X3163366Y11494058D01*
X3159252Y11492941D01*
X3155086Y11493601D01*
X3151479Y11495887D01*
X3107944Y11539474D01*
X3106013Y11542166D01*
X3105048Y11545316D01*
X3105150Y11548618D01*
X3106115Y11553393D01*
X3107029Y11567210D01*
X3106115Y11581028D01*
X3103422Y11594642D01*
X3098952Y11607749D01*
X3092805Y11620195D01*
X3085134Y11631676D01*
X3075990Y11642090D01*
X3065576Y11651234D01*
X3054045Y11658955D01*
X3041650Y11665051D01*
X3028543Y11669522D01*
X3014929Y11672214D01*
X3001111Y11673128D01*
X2987294Y11672214D01*
X2973730Y11669522D01*
X2960624Y11665051D01*
X2948178Y11658955D01*
X2936646Y11651234D01*
X2926232Y11642090D01*
X2917139Y11631676D01*
X2909417Y11620195D01*
X2903321Y11607749D01*
X2898851Y11594642D01*
X2896158Y11581028D01*
X2895244Y11567210D01*
X2896158Y11553393D01*
X2898851Y11539829D01*
X2903321Y11526723D01*
X2909417Y11514277D01*
X2917139Y11502796D01*
X2926232Y11492382D01*
X2936646Y11483238D01*
X2948178Y11475516D01*
X2960624Y11469420D01*
X2973730Y11464950D01*
X2987294Y11462258D01*
X3001111Y11461343D01*
X3014929Y11462258D01*
X3019704Y11463172D01*
X3023006Y11463324D01*
X3026156Y11462359D01*
X3028848Y11460429D01*
X3090367Y11398910D01*
X3092754Y11395202D01*
X3093313Y11390833D01*
X3091992Y11386667D01*
X3088995Y11383416D01*
X3082086Y11378539D01*
X3075127Y11371580D01*
X3069488Y11363553D01*
X3065322Y11354663D01*
X3062782Y11345164D01*
X3061919Y11335359D01*
X3062782Y11325555D01*
X3065322Y11316055D01*
X3069488Y11307165D01*
X3075127Y11299139D01*
X3082493Y11291874D01*
X3083864Y11290757D01*
X3704234Y10670387D01*
X3706418Y10667085D01*
X3707180Y10663174D01*
X3707180Y9122359D01*
X3706672Y9119108D01*
X3705098Y9116212D01*
X3702710Y9113926D01*
X3698646Y9111234D01*
X3688232Y9102090D01*
X3679139Y9091676D01*
X3671417Y9080195D01*
X3665321Y9067749D01*
X3660851Y9054642D01*
X3658158Y9041079D01*
X3657244Y9027261D01*
X3658158Y9013444D01*
X3660851Y8999829D01*
X3665321Y8986723D01*
X3671417Y8974277D01*
X3679139Y8962796D01*
X3688232Y8952382D01*
X3698646Y8943238D01*
X3710178Y8935516D01*
X3722624Y8929420D01*
X3735730Y8924950D01*
X3749294Y8922258D01*
X3763111Y8921343D01*
X3776929Y8922258D01*
X3790543Y8924950D01*
X3803650Y8929420D01*
X3816045Y8935516D01*
X3818382Y8937091D01*
X3822446Y8938666D01*
X3826814Y8938412D01*
X3830624Y8936380D01*
X3833266Y8932926D01*
X3834180Y8928658D01*
X3834180Y8250783D01*
X3834434Y8245703D01*
X3835044Y8240826D01*
X3836111Y8236102D01*
X3837584Y8231428D01*
X3839464Y8226907D01*
X3841699Y8222589D01*
X3844340Y8218474D01*
X3847287Y8214614D01*
X3850741Y8210854D01*
X3913682Y8147964D01*
X3915105Y8146135D01*
X3922064Y8139175D01*
X3924655Y8137347D01*
X3927652Y8134146D01*
X3928973Y8129930D01*
X3928364Y8125561D01*
X3926027Y8121853D01*
X3648049Y7843926D01*
X3645255Y7841945D01*
X3641953Y7840980D01*
X3638550Y7841234D01*
X3629151Y7843469D01*
X3615740Y7844790D01*
X3602278Y7844332D01*
X3588969Y7842097D01*
X3576116Y7838135D01*
X3563874Y7832445D01*
X3552494Y7825181D01*
X3542233Y7816494D01*
X3533190Y7806486D01*
X3525570Y7795412D01*
X3519474Y7783372D01*
X3515055Y7770622D01*
X3512362Y7757414D01*
X3511499Y7743952D01*
X3512362Y7730540D01*
X3515055Y7717332D01*
X3519474Y7704581D01*
X3525570Y7692542D01*
X3528060Y7688935D01*
X3529685Y7684871D01*
X3529482Y7680502D01*
X3527450Y7676591D01*
X3523945Y7673949D01*
X3519678Y7673035D01*
G37*

%LPC*%
G36*
X3255111Y8921343D02*
G01*
X3268929Y8922258D01*
X3282543Y8924950D01*
X3295650Y8929420D01*
X3308045Y8935516D01*
X3319576Y8943238D01*
X3329990Y8952382D01*
X3339134Y8962796D01*
X3346805Y8974277D01*
X3352952Y8986723D01*
X3357422Y8999829D01*
X3360115Y9013444D01*
X3361029Y9027261D01*
X3360115Y9041079D01*
X3357422Y9054642D01*
X3352952Y9067749D01*
X3346805Y9080195D01*
X3339134Y9091676D01*
X3329990Y9102090D01*
X3319576Y9111234D01*
X3308045Y9118955D01*
X3295650Y9125051D01*
X3282543Y9129522D01*
X3268929Y9132214D01*
X3255111Y9133128D01*
X3241294Y9132214D01*
X3227730Y9129522D01*
X3214624Y9125051D01*
X3202178Y9118955D01*
X3190646Y9111234D01*
X3180232Y9102090D01*
X3171139Y9091676D01*
X3163417Y9080195D01*
X3157321Y9067749D01*
X3152851Y9054642D01*
X3150158Y9041079D01*
X3149244Y9027261D01*
X3150158Y9013444D01*
X3152851Y8999829D01*
X3157321Y8986723D01*
X3163417Y8974277D01*
X3171139Y8962796D01*
X3180232Y8952382D01*
X3190646Y8943238D01*
X3202178Y8935516D01*
X3214624Y8929420D01*
X3227730Y8924950D01*
X3241294Y8922258D01*
G37*
G36*
X4271111Y8921343D02*
G01*
X4284929Y8922258D01*
X4298543Y8924950D01*
X4311650Y8929420D01*
X4324045Y8935516D01*
X4335576Y8943238D01*
X4345990Y8952382D01*
X4355134Y8962796D01*
X4362805Y8974277D01*
X4368952Y8986723D01*
X4373422Y8999829D01*
X4376115Y9013444D01*
X4377029Y9027261D01*
X4376115Y9041079D01*
X4373422Y9054642D01*
X4368952Y9067749D01*
X4362805Y9080195D01*
X4355134Y9091676D01*
X4345990Y9102090D01*
X4335576Y9111234D01*
X4324045Y9118955D01*
X4311650Y9125051D01*
X4298543Y9129522D01*
X4284929Y9132214D01*
X4271111Y9133128D01*
X4257294Y9132214D01*
X4243730Y9129522D01*
X4230624Y9125051D01*
X4218178Y9118955D01*
X4206646Y9111234D01*
X4196232Y9102090D01*
X4187139Y9091676D01*
X4179417Y9080195D01*
X4173270Y9067749D01*
X4168851Y9054642D01*
X4166158Y9041079D01*
X4165244Y9027261D01*
X4166158Y9013444D01*
X4168851Y8999829D01*
X4173270Y8986723D01*
X4179417Y8974277D01*
X4187139Y8962796D01*
X4196232Y8952382D01*
X4206646Y8943238D01*
X4218178Y8935516D01*
X4230624Y8929420D01*
X4243730Y8924950D01*
X4257294Y8922258D01*
G37*
G36*
X3509111Y8921343D02*
G01*
X3522929Y8922258D01*
X3536543Y8924950D01*
X3549650Y8929420D01*
X3562045Y8935516D01*
X3573576Y8943238D01*
X3583990Y8952382D01*
X3593134Y8962796D01*
X3600805Y8974277D01*
X3606952Y8986723D01*
X3611422Y8999829D01*
X3614115Y9013444D01*
X3615029Y9027261D01*
X3614115Y9041079D01*
X3611422Y9054642D01*
X3606952Y9067749D01*
X3600805Y9080195D01*
X3593134Y9091676D01*
X3583990Y9102090D01*
X3573576Y9111234D01*
X3562045Y9118955D01*
X3549650Y9125051D01*
X3536543Y9129522D01*
X3522929Y9132214D01*
X3509111Y9133128D01*
X3495294Y9132214D01*
X3481730Y9129522D01*
X3468624Y9125051D01*
X3456178Y9118955D01*
X3444646Y9111234D01*
X3434232Y9102090D01*
X3425139Y9091676D01*
X3417417Y9080195D01*
X3411321Y9067749D01*
X3406851Y9054642D01*
X3404158Y9041079D01*
X3403244Y9027261D01*
X3404158Y9013444D01*
X3406851Y8999829D01*
X3411321Y8986723D01*
X3417417Y8974277D01*
X3425139Y8962796D01*
X3434232Y8952382D01*
X3444646Y8943238D01*
X3456178Y8935516D01*
X3468624Y8929420D01*
X3481730Y8924950D01*
X3495294Y8922258D01*
G37*
G36*
X3763111Y11461343D02*
G01*
X3776929Y11462258D01*
X3790543Y11464950D01*
X3803650Y11469420D01*
X3816045Y11475516D01*
X3827576Y11483238D01*
X3837990Y11492382D01*
X3847134Y11502796D01*
X3854805Y11514277D01*
X3860952Y11526723D01*
X3865422Y11539829D01*
X3868115Y11553393D01*
X3869029Y11567210D01*
X3868115Y11581028D01*
X3865422Y11594642D01*
X3860952Y11607749D01*
X3854805Y11620195D01*
X3847134Y11631676D01*
X3837990Y11642090D01*
X3827576Y11651234D01*
X3816045Y11658955D01*
X3803650Y11665051D01*
X3790543Y11669522D01*
X3776929Y11672214D01*
X3763111Y11673128D01*
X3749294Y11672214D01*
X3735730Y11669522D01*
X3722624Y11665051D01*
X3710178Y11658955D01*
X3698646Y11651234D01*
X3688232Y11642090D01*
X3679139Y11631676D01*
X3671417Y11620195D01*
X3665321Y11607749D01*
X3660851Y11594642D01*
X3658158Y11581028D01*
X3657244Y11567210D01*
X3658158Y11553393D01*
X3660851Y11539829D01*
X3665321Y11526723D01*
X3671417Y11514277D01*
X3679139Y11502796D01*
X3688232Y11492382D01*
X3698646Y11483238D01*
X3710178Y11475516D01*
X3722624Y11469420D01*
X3735730Y11464950D01*
X3749294Y11462258D01*
G37*
G36*
X4017111Y11461343D02*
G01*
X4030929Y11462258D01*
X4044543Y11464950D01*
X4057650Y11469420D01*
X4070045Y11475516D01*
X4081576Y11483238D01*
X4091990Y11492382D01*
X4101134Y11502796D01*
X4108805Y11514277D01*
X4114952Y11526723D01*
X4119422Y11539829D01*
X4122115Y11553393D01*
X4123029Y11567210D01*
X4122115Y11581028D01*
X4119422Y11594642D01*
X4114952Y11607749D01*
X4108805Y11620195D01*
X4101134Y11631676D01*
X4091990Y11642090D01*
X4081576Y11651234D01*
X4070045Y11658955D01*
X4057650Y11665051D01*
X4044543Y11669522D01*
X4030929Y11672214D01*
X4017111Y11673128D01*
X4003294Y11672214D01*
X3989730Y11669522D01*
X3976624Y11665051D01*
X3964178Y11658955D01*
X3952646Y11651234D01*
X3942232Y11642090D01*
X3933139Y11631676D01*
X3925417Y11620195D01*
X3919321Y11607749D01*
X3914851Y11594642D01*
X3912158Y11581028D01*
X3911244Y11567210D01*
X3912158Y11553393D01*
X3914851Y11539829D01*
X3919321Y11526723D01*
X3925417Y11514277D01*
X3933139Y11502796D01*
X3942232Y11492382D01*
X3952646Y11483238D01*
X3964178Y11475516D01*
X3976624Y11469420D01*
X3989730Y11464950D01*
X4003294Y11462258D01*
G37*
G36*
X3509111Y11461343D02*
G01*
X3522929Y11462258D01*
X3536543Y11464950D01*
X3549650Y11469420D01*
X3562045Y11475516D01*
X3573576Y11483238D01*
X3583990Y11492382D01*
X3593134Y11502796D01*
X3600805Y11514277D01*
X3606952Y11526723D01*
X3611422Y11539829D01*
X3614115Y11553393D01*
X3615029Y11567210D01*
X3614115Y11581028D01*
X3611422Y11594642D01*
X3606952Y11607749D01*
X3600805Y11620195D01*
X3593134Y11631676D01*
X3583990Y11642090D01*
X3573576Y11651234D01*
X3562045Y11658955D01*
X3549650Y11665051D01*
X3536543Y11669522D01*
X3522929Y11672214D01*
X3509111Y11673128D01*
X3495294Y11672214D01*
X3481730Y11669522D01*
X3468624Y11665051D01*
X3456178Y11658955D01*
X3444646Y11651234D01*
X3434232Y11642090D01*
X3425139Y11631676D01*
X3417417Y11620195D01*
X3411321Y11607749D01*
X3406851Y11594642D01*
X3404158Y11581028D01*
X3403244Y11567210D01*
X3404158Y11553393D01*
X3406851Y11539829D01*
X3411321Y11526723D01*
X3417417Y11514277D01*
X3425139Y11502796D01*
X3434232Y11492382D01*
X3444646Y11483238D01*
X3456178Y11475516D01*
X3468624Y11469420D01*
X3481730Y11464950D01*
X3495294Y11462258D01*
G37*
G36*
X4271111Y11461343D02*
G01*
X4284929Y11462258D01*
X4298543Y11464950D01*
X4311650Y11469420D01*
X4324045Y11475516D01*
X4335576Y11483238D01*
X4345990Y11492382D01*
X4355134Y11502796D01*
X4362805Y11514277D01*
X4368952Y11526723D01*
X4373422Y11539829D01*
X4376115Y11553393D01*
X4377029Y11567210D01*
X4376115Y11581028D01*
X4373422Y11594642D01*
X4368952Y11607749D01*
X4362805Y11620195D01*
X4355134Y11631676D01*
X4345990Y11642090D01*
X4335576Y11651234D01*
X4324045Y11658955D01*
X4311650Y11665051D01*
X4298543Y11669522D01*
X4284929Y11672214D01*
X4271111Y11673128D01*
X4257294Y11672214D01*
X4243730Y11669522D01*
X4230624Y11665051D01*
X4218178Y11658955D01*
X4206646Y11651234D01*
X4196232Y11642090D01*
X4187139Y11631676D01*
X4179417Y11620195D01*
X4173270Y11607749D01*
X4168851Y11594642D01*
X4166158Y11581028D01*
X4165244Y11567210D01*
X4166158Y11553393D01*
X4168851Y11539829D01*
X4173270Y11526723D01*
X4179417Y11514277D01*
X4187139Y11502796D01*
X4196232Y11492382D01*
X4206646Y11483238D01*
X4218178Y11475516D01*
X4230624Y11469420D01*
X4243730Y11464950D01*
X4257294Y11462258D01*
G37*

%LPD*%
G36*
X3959148Y7673035D02*
G01*
X3954983Y7673898D01*
X3951579Y7676388D01*
X3949446Y7680096D01*
X3949039Y7684312D01*
X3950411Y7688325D01*
X3956405Y7698486D01*
X3961688Y7710881D01*
X3965244Y7723886D01*
X3967022Y7737246D01*
X3967022Y7750708D01*
X3965956Y7758836D01*
X3966006Y7761935D01*
X3966972Y7764881D01*
X3968800Y7767370D01*
X5072481Y8871051D01*
X5075936Y8874810D01*
X5078882Y8878671D01*
X5081524Y8882786D01*
X5083759Y8887104D01*
X5085638Y8891625D01*
X5087112Y8896248D01*
X5088178Y8901023D01*
X5088788Y8905849D01*
X5089042Y8910929D01*
X5089042Y8932062D01*
X5089550Y8935364D01*
X5091125Y8938260D01*
X5093512Y8940546D01*
X5097576Y8943238D01*
X5107990Y8952382D01*
X5117134Y8962796D01*
X5124805Y8974277D01*
X5130952Y8986723D01*
X5135422Y8999829D01*
X5138115Y9013444D01*
X5139029Y9027261D01*
X5138115Y9041079D01*
X5135422Y9054642D01*
X5130952Y9067749D01*
X5124805Y9080195D01*
X5117134Y9091676D01*
X5107990Y9102090D01*
X5097576Y9111234D01*
X5086045Y9118955D01*
X5073650Y9125051D01*
X5060543Y9129522D01*
X5046929Y9132214D01*
X5033111Y9133128D01*
X5019294Y9132214D01*
X5005730Y9129522D01*
X4992624Y9125051D01*
X4980178Y9118955D01*
X4968646Y9111234D01*
X4958232Y9102090D01*
X4949139Y9091676D01*
X4941417Y9080195D01*
X4935270Y9067749D01*
X4930851Y9054642D01*
X4928158Y9041079D01*
X4927244Y9027261D01*
X4928158Y9013444D01*
X4930851Y8999829D01*
X4935270Y8986723D01*
X4941417Y8974277D01*
X4949139Y8962796D01*
X4958232Y8952382D01*
X4969103Y8942933D01*
X4972151Y8939733D01*
X4973574Y8935516D01*
X4973015Y8931097D01*
X4970627Y8927338D01*
X3889857Y7846517D01*
X3886098Y7844129D01*
X3881628Y7843621D01*
X3869740Y7844790D01*
X3856278Y7844332D01*
X3842969Y7842097D01*
X3830116Y7838135D01*
X3826662Y7836509D01*
X3822750Y7835595D01*
X3818788Y7836255D01*
X3815384Y7838389D01*
X3813098Y7841691D01*
X3812235Y7845602D01*
X3812997Y7849565D01*
X3815232Y7852918D01*
X4818481Y8856218D01*
X4821936Y8859977D01*
X4824882Y8863838D01*
X4827524Y8867952D01*
X4829759Y8872270D01*
X4831638Y8876792D01*
X4833112Y8881414D01*
X4834178Y8886190D01*
X4834788Y8891016D01*
X4835042Y8896096D01*
X4835042Y8932062D01*
X4835550Y8935364D01*
X4837125Y8938260D01*
X4839512Y8940546D01*
X4843576Y8943238D01*
X4853990Y8952382D01*
X4863134Y8962796D01*
X4870805Y8974277D01*
X4876952Y8986723D01*
X4881422Y8999829D01*
X4884115Y9013444D01*
X4885029Y9027261D01*
X4884115Y9041079D01*
X4881422Y9054642D01*
X4876952Y9067749D01*
X4870805Y9080195D01*
X4863134Y9091676D01*
X4853990Y9102090D01*
X4843576Y9111234D01*
X4832045Y9118955D01*
X4819650Y9125051D01*
X4806543Y9129522D01*
X4792929Y9132214D01*
X4779111Y9133128D01*
X4765294Y9132214D01*
X4751730Y9129522D01*
X4738624Y9125051D01*
X4726178Y9118955D01*
X4714087Y9110878D01*
X4709972Y9109303D01*
X4705604Y9109557D01*
X4701743Y9111691D01*
X4699152Y9115298D01*
X4698288Y9119616D01*
X4699406Y9123883D01*
X4702759Y9130538D01*
X4704638Y9135110D01*
X4706112Y9139783D01*
X4707178Y9144508D01*
X4707788Y9149384D01*
X4708042Y9154464D01*
X4708042Y11468658D01*
X4708956Y11472926D01*
X4711598Y11476380D01*
X4715408Y11478412D01*
X4719777Y11478666D01*
X4723841Y11477091D01*
X4726178Y11475516D01*
X4738624Y11469420D01*
X4751730Y11464950D01*
X4765294Y11462258D01*
X4779111Y11461343D01*
X4792929Y11462258D01*
X4806543Y11464950D01*
X4819650Y11469420D01*
X4832045Y11475516D01*
X4843576Y11483238D01*
X4853990Y11492382D01*
X4863134Y11502796D01*
X4870805Y11514277D01*
X4876952Y11526723D01*
X4881422Y11539829D01*
X4884115Y11553393D01*
X4885029Y11567210D01*
X4884115Y11581028D01*
X4881422Y11594642D01*
X4876952Y11607749D01*
X4870805Y11620195D01*
X4863134Y11631676D01*
X4853990Y11642090D01*
X4843576Y11651234D01*
X4832045Y11658955D01*
X4819650Y11665051D01*
X4806543Y11669522D01*
X4792929Y11672214D01*
X4779111Y11673128D01*
X4765294Y11672214D01*
X4751730Y11669522D01*
X4738624Y11665051D01*
X4726178Y11658955D01*
X4723841Y11657380D01*
X4719777Y11655755D01*
X4715408Y11656009D01*
X4711598Y11658092D01*
X4708956Y11661546D01*
X4708042Y11665813D01*
X4708042Y11715343D01*
X4708804Y11719255D01*
X4710988Y11722557D01*
X4803648Y11815216D01*
X4805426Y11816638D01*
X4812385Y11823598D01*
X4818024Y11831624D01*
X4822190Y11840514D01*
X4824730Y11850014D01*
X4825593Y11859818D01*
X4824730Y11869623D01*
X4822190Y11879122D01*
X4818024Y11888012D01*
X4812385Y11896039D01*
X4805426Y11902998D01*
X4802835Y11904827D01*
X4799888Y11908078D01*
X4798568Y11912244D01*
X4799126Y11916613D01*
X4801463Y11920321D01*
X5351983Y12470790D01*
X5354980Y12472873D01*
X5358536Y12473787D01*
X5362143Y12473330D01*
X5366969Y12471857D01*
X5380278Y12469622D01*
X5393740Y12469164D01*
X5407152Y12470485D01*
X5420258Y12473635D01*
X5432806Y12478461D01*
X5444642Y12484963D01*
X5449468Y12487300D01*
X5453938Y12487198D01*
X5457901Y12485166D01*
X5460644Y12481661D01*
X5461609Y12477343D01*
X5461609Y12363958D01*
X5461812Y12358878D01*
X5462473Y12354052D01*
X5463540Y12349276D01*
X5465013Y12344654D01*
X5466842Y12340132D01*
X5469128Y12335814D01*
X5471718Y12331700D01*
X5474716Y12327839D01*
X5478119Y12324080D01*
X5609285Y12192914D01*
X5611520Y12189612D01*
X5612282Y12185700D01*
X5612282Y12004598D01*
X5611520Y12000687D01*
X5609285Y11997385D01*
X5588711Y11976811D01*
X5588000Y11975084D01*
X5588000Y11677091D01*
X5587288Y11673332D01*
X5585206Y11670080D01*
X5582107Y11667845D01*
X5578348Y11666931D01*
X5574588Y11667439D01*
X5568543Y11669522D01*
X5554929Y11672214D01*
X5541111Y11673128D01*
X5527294Y11672214D01*
X5513730Y11669522D01*
X5500573Y11665051D01*
X5488178Y11658955D01*
X5485841Y11657380D01*
X5481777Y11655755D01*
X5477408Y11656009D01*
X5473598Y11658092D01*
X5470956Y11661546D01*
X5470042Y11665813D01*
X5470042Y11724335D01*
X5469788Y11729415D01*
X5469178Y11734241D01*
X5468112Y11739016D01*
X5466638Y11743639D01*
X5464759Y11748160D01*
X5462524Y11752478D01*
X5459882Y11756593D01*
X5456936Y11760454D01*
X5453481Y11764213D01*
X5399328Y11818366D01*
X5397906Y11820194D01*
X5390946Y11827154D01*
X5382869Y11832742D01*
X5373979Y11836908D01*
X5364480Y11839448D01*
X5354726Y11840311D01*
X5344922Y11839448D01*
X5335422Y11836908D01*
X5326532Y11832742D01*
X5318455Y11827154D01*
X5311495Y11820194D01*
X5305907Y11812117D01*
X5301742Y11803227D01*
X5299202Y11793728D01*
X5298338Y11783923D01*
X5299202Y11774170D01*
X5301742Y11764670D01*
X5305907Y11755780D01*
X5311495Y11747703D01*
X5318912Y11740438D01*
X5320284Y11739321D01*
X5355234Y11704370D01*
X5357418Y11701068D01*
X5358180Y11697157D01*
X5358180Y11665813D01*
X5357266Y11661546D01*
X5354624Y11658092D01*
X5350814Y11656060D01*
X5346446Y11655806D01*
X5342382Y11657380D01*
X5340045Y11658955D01*
X5327650Y11665051D01*
X5314543Y11669522D01*
X5300929Y11672214D01*
X5287111Y11673128D01*
X5273294Y11672214D01*
X5259730Y11669522D01*
X5246624Y11665051D01*
X5234178Y11658955D01*
X5222646Y11651234D01*
X5212232Y11642090D01*
X5203139Y11631676D01*
X5195417Y11620195D01*
X5189270Y11607749D01*
X5184851Y11594642D01*
X5182158Y11581028D01*
X5181244Y11567210D01*
X5182158Y11553393D01*
X5184851Y11539829D01*
X5189270Y11526723D01*
X5195417Y11514277D01*
X5203139Y11502796D01*
X5212232Y11492382D01*
X5222646Y11483238D01*
X5234178Y11475516D01*
X5246624Y11469420D01*
X5259730Y11464950D01*
X5273294Y11462258D01*
X5287111Y11461343D01*
X5300929Y11462258D01*
X5314543Y11464950D01*
X5327650Y11469420D01*
X5340045Y11475516D01*
X5342382Y11477091D01*
X5346446Y11478666D01*
X5350814Y11478412D01*
X5354624Y11476380D01*
X5357266Y11472875D01*
X5358180Y11468658D01*
X5358180Y9408464D01*
X5358434Y9403384D01*
X5359044Y9398508D01*
X5360111Y9393783D01*
X5361584Y9389110D01*
X5363464Y9384588D01*
X5365699Y9380270D01*
X5368340Y9376156D01*
X5371287Y9372295D01*
X5374741Y9368536D01*
X5585002Y9158274D01*
X5587238Y9154972D01*
X5588000Y9151061D01*
X5588000Y9137091D01*
X5587288Y9133332D01*
X5585206Y9130080D01*
X5582107Y9127845D01*
X5578348Y9126931D01*
X5574588Y9127490D01*
X5568543Y9129522D01*
X5554929Y9132214D01*
X5541111Y9133128D01*
X5527294Y9132214D01*
X5513730Y9129522D01*
X5500573Y9125051D01*
X5488178Y9118955D01*
X5476646Y9111234D01*
X5466232Y9102090D01*
X5457088Y9091676D01*
X5449417Y9080195D01*
X5443270Y9067749D01*
X5438851Y9054642D01*
X5436158Y9041079D01*
X5435244Y9027261D01*
X5436158Y9013444D01*
X5438851Y8999829D01*
X5443270Y8986723D01*
X5449417Y8974277D01*
X5457088Y8962796D01*
X5466232Y8952382D01*
X5477103Y8942933D01*
X5480151Y8939733D01*
X5481574Y8935516D01*
X5481015Y8931097D01*
X5478627Y8927338D01*
X4397857Y7846517D01*
X4394098Y7844129D01*
X4389628Y7843621D01*
X4377740Y7844790D01*
X4364278Y7844332D01*
X4350969Y7842097D01*
X4338116Y7838135D01*
X4325874Y7832445D01*
X4314494Y7825181D01*
X4304233Y7816494D01*
X4295190Y7806486D01*
X4287570Y7795412D01*
X4281474Y7783372D01*
X4277055Y7770622D01*
X4274362Y7757414D01*
X4273499Y7743952D01*
X4274362Y7730540D01*
X4277055Y7717332D01*
X4281474Y7704581D01*
X4287570Y7692542D01*
X4290060Y7688935D01*
X4291685Y7684871D01*
X4291482Y7680502D01*
X4289450Y7676591D01*
X4285945Y7673949D01*
X4281678Y7673035D01*
X4213148Y7673035D01*
X4208983Y7673898D01*
X4205579Y7676388D01*
X4203446Y7680096D01*
X4203039Y7684312D01*
X4204411Y7688325D01*
X4210405Y7698486D01*
X4215688Y7710881D01*
X4219244Y7723886D01*
X4221022Y7737246D01*
X4221022Y7750708D01*
X4219956Y7758836D01*
X4220006Y7761935D01*
X4220972Y7764881D01*
X4222800Y7767370D01*
X5326481Y8871051D01*
X5329936Y8874810D01*
X5332882Y8878671D01*
X5335524Y8882786D01*
X5337759Y8887104D01*
X5339638Y8891625D01*
X5341112Y8896248D01*
X5342178Y8901023D01*
X5342788Y8905849D01*
X5343042Y8910929D01*
X5343042Y8932062D01*
X5343550Y8935364D01*
X5345125Y8938260D01*
X5347512Y8940546D01*
X5351576Y8943238D01*
X5361990Y8952382D01*
X5371134Y8962796D01*
X5378805Y8974277D01*
X5384952Y8986723D01*
X5389422Y8999829D01*
X5392115Y9013444D01*
X5393029Y9027261D01*
X5392115Y9041079D01*
X5389422Y9054642D01*
X5384952Y9067749D01*
X5378805Y9080195D01*
X5371134Y9091676D01*
X5361990Y9102090D01*
X5351576Y9111234D01*
X5340045Y9118955D01*
X5327650Y9125051D01*
X5314543Y9129522D01*
X5300929Y9132214D01*
X5287111Y9133128D01*
X5273294Y9132214D01*
X5259730Y9129522D01*
X5246624Y9125051D01*
X5234178Y9118955D01*
X5222646Y9111234D01*
X5212232Y9102090D01*
X5203139Y9091676D01*
X5195417Y9080195D01*
X5189270Y9067749D01*
X5184851Y9054642D01*
X5182158Y9041079D01*
X5181244Y9027261D01*
X5182158Y9013444D01*
X5184851Y8999829D01*
X5189270Y8986723D01*
X5195417Y8974277D01*
X5203139Y8962796D01*
X5212232Y8952382D01*
X5223103Y8942933D01*
X5226151Y8939733D01*
X5227574Y8935516D01*
X5227015Y8931097D01*
X5224627Y8927338D01*
X4143857Y7846517D01*
X4140098Y7844129D01*
X4135628Y7843621D01*
X4123740Y7844790D01*
X4110278Y7844332D01*
X4096969Y7842097D01*
X4084116Y7838135D01*
X4071874Y7832445D01*
X4060494Y7825181D01*
X4050233Y7816494D01*
X4041190Y7806486D01*
X4033570Y7795412D01*
X4027474Y7783372D01*
X4023055Y7770622D01*
X4020362Y7757414D01*
X4019499Y7743952D01*
X4020362Y7730540D01*
X4023055Y7717332D01*
X4027474Y7704581D01*
X4033570Y7692542D01*
X4036060Y7688935D01*
X4037685Y7684871D01*
X4037482Y7680502D01*
X4035450Y7676591D01*
X4031945Y7673949D01*
X4027678Y7673035D01*
G37*

%LPC*%
G36*
X5033111Y11461343D02*
G01*
X5046929Y11462258D01*
X5060543Y11464950D01*
X5073650Y11469420D01*
X5086045Y11475516D01*
X5097576Y11483238D01*
X5107990Y11492382D01*
X5117134Y11502796D01*
X5124805Y11514277D01*
X5130952Y11526723D01*
X5135422Y11539829D01*
X5138115Y11553393D01*
X5139029Y11567210D01*
X5138115Y11581028D01*
X5135422Y11594642D01*
X5130952Y11607749D01*
X5124805Y11620195D01*
X5117134Y11631676D01*
X5107990Y11642090D01*
X5097576Y11651234D01*
X5086045Y11658955D01*
X5073650Y11665051D01*
X5060543Y11669522D01*
X5046929Y11672214D01*
X5033111Y11673128D01*
X5019294Y11672214D01*
X5005730Y11669522D01*
X4992624Y11665051D01*
X4980178Y11658955D01*
X4968646Y11651234D01*
X4958232Y11642090D01*
X4949139Y11631676D01*
X4941417Y11620195D01*
X4935270Y11607749D01*
X4930851Y11594642D01*
X4928158Y11581028D01*
X4927244Y11567210D01*
X4928158Y11553393D01*
X4930851Y11539829D01*
X4935270Y11526723D01*
X4941417Y11514277D01*
X4949139Y11502796D01*
X4958232Y11492382D01*
X4968646Y11483238D01*
X4980178Y11475516D01*
X4992624Y11469420D01*
X5005730Y11464950D01*
X5019294Y11462258D01*
G37*

%LPD*%
G36*
X3197148Y7673035D02*
G01*
X3192983Y7673898D01*
X3189579Y7676388D01*
X3187446Y7680096D01*
X3187039Y7684312D01*
X3188411Y7688325D01*
X3194405Y7698486D01*
X3199688Y7710881D01*
X3203244Y7723886D01*
X3205022Y7737246D01*
X3205022Y7750708D01*
X3203244Y7764068D01*
X3199688Y7777073D01*
X3194405Y7789468D01*
X3187547Y7801051D01*
X3179165Y7811668D01*
X3169513Y7821015D01*
X3158642Y7828991D01*
X3146806Y7835493D01*
X3134258Y7840319D01*
X3121152Y7843469D01*
X3107740Y7844790D01*
X3094278Y7844332D01*
X3080969Y7842097D01*
X3068116Y7838135D01*
X3055874Y7832445D01*
X3048914Y7827975D01*
X3044850Y7826502D01*
X3040532Y7826806D01*
X3036773Y7828889D01*
X3034182Y7832344D01*
X3033268Y7836560D01*
X3033268Y8542782D01*
X3033064Y8547862D01*
X3032404Y8552738D01*
X3031337Y8557463D01*
X3029915Y8562136D01*
X3028035Y8566658D01*
X3027222Y8570518D01*
X3028035Y8574430D01*
X3030220Y8577732D01*
X3033522Y8579916D01*
X3037382Y8580678D01*
X3041294Y8579916D01*
X3044596Y8577732D01*
X3299460Y8322818D01*
X3301695Y8319516D01*
X3302457Y8315655D01*
X3302457Y7833258D01*
X3301492Y7828940D01*
X3298850Y7825486D01*
X3288233Y7816494D01*
X3279190Y7806486D01*
X3271570Y7795412D01*
X3265474Y7783372D01*
X3261055Y7770622D01*
X3258362Y7757414D01*
X3257499Y7743952D01*
X3258362Y7730540D01*
X3261055Y7717332D01*
X3265474Y7704581D01*
X3271570Y7692542D01*
X3274060Y7688935D01*
X3275685Y7684871D01*
X3275482Y7680502D01*
X3273450Y7676591D01*
X3269945Y7673949D01*
X3265678Y7673035D01*
G37*

%LPD*%
D10*
X4882362Y12569977D02*
G01*
X4734382Y12717957D01*
X2767025Y12717957D01*
X1709597Y11660530D01*
X1709597Y9302775D01*
X1985136Y9027236D01*
X5390362Y12569977D02*
G01*
X5343779Y12569977D01*
X4561433Y11787631D01*
X2001088Y11787631D01*
X1828774Y11615318D01*
X1828774Y9437598D01*
X2239136Y9027236D01*
D11*
X4628362Y7743977D02*
G01*
X4501489Y7617104D01*
X3060725Y7617104D01*
X2977362Y7700467D01*
X2977362Y8543010D01*
X2493136Y9027236D01*
X3358362Y7743977D02*
G01*
X3358362Y8343011D01*
X2874136Y8827236D01*
X2874136Y11186236D01*
X2493136Y11567236D01*
X2747136Y11567236D02*
G01*
X2623845Y11690527D01*
X2434615Y11690527D01*
X2366136Y11622049D01*
X2366136Y8051088D01*
X2879115Y7538110D01*
X5082895Y7538110D01*
X5288762Y7743977D01*
X3958285Y8182381D02*
G01*
X3890111Y8250554D01*
X3890111Y10678236D01*
X3001111Y11567236D01*
D10*
X7318883Y11567236D02*
G01*
X7318883Y11045825D01*
X7328204Y11036503D01*
D11*
X3763111Y9027236D02*
G01*
X3763111Y10690555D01*
X3118307Y11335359D01*
X4769205Y11859818D02*
G01*
X4652111Y11742724D01*
X4652111Y9154236D01*
X4525111Y9027236D01*
X3612362Y7743977D02*
G01*
X3627196Y7743977D01*
X4779111Y8895892D01*
X4779111Y9027236D01*
X3866362Y7743977D02*
G01*
X5033111Y8910726D01*
X5033111Y9027236D01*
X4120362Y7743977D02*
G01*
X5287111Y8910726D01*
X5287111Y9027236D01*
X4374362Y7743977D02*
G01*
X5541111Y8910726D01*
X5541111Y9027236D01*
X5795111Y9027236D02*
G01*
X5414111Y9408236D01*
X5414111Y11724538D01*
X5354700Y11783949D01*
X6049111Y9027236D02*
G01*
X6183604Y8892743D01*
X6359906Y8892743D01*
X6430111Y8962948D01*
X6430111Y9113393D01*
X5922111Y9621393D01*
X5922111Y12092609D01*
X5611647Y12403074D01*
X6303111Y9027236D02*
G01*
X5668187Y9662160D01*
X5668187Y12213081D01*
X5517515Y12363754D01*
X5517515Y12614402D01*
X5441492Y12690424D01*
X5081447Y12690424D01*
X5009515Y12618491D01*
X5009515Y12512954D01*
X4938750Y12442189D01*
X3232150Y12442189D01*
X3104362Y12569977D01*
D10*
X5644362Y12569977D02*
G01*
X6193713Y12020626D01*
X7081062Y12020626D01*
X7470673Y11631015D01*
X7470673Y9432797D01*
X7065111Y9027236D01*
D12*
G01*
X10812779Y11136629D03*
G01*
X11061700Y11136629D03*
G01*
X11310620Y11136629D03*
G01*
X11310620Y12586970D03*
G01*
X10812779Y12586970D03*
D13*
G01*
X10436707Y11885929D03*
G01*
X11686692Y11885929D03*
D14*
G01*
X7319111Y9027236D03*
G01*
X7065111Y9027236D03*
G01*
X6811111Y9027236D03*
G01*
X6557111Y9027236D03*
G01*
X6303111Y9027236D03*
G01*
X6049111Y9027236D03*
G01*
X5795111Y9027236D03*
G01*
X5541111Y9027236D03*
G01*
X5287111Y9027236D03*
G01*
X5033111Y9027236D03*
G01*
X4779111Y9027236D03*
G01*
X4525111Y9027236D03*
G01*
X4271111Y9027236D03*
G01*
X4017111Y9027236D03*
G01*
X3763111Y9027236D03*
G01*
X3509111Y9027236D03*
G01*
X3255111Y9027236D03*
G01*
X3001111Y9027236D03*
G01*
X2747136Y9027236D03*
G01*
X7318883Y11567236D03*
G01*
X7065111Y11567236D03*
G01*
X6811111Y11567236D03*
G01*
X6557111Y11567236D03*
G01*
X6303111Y11567236D03*
G01*
X6049111Y11567236D03*
G01*
X5795111Y11567236D03*
G01*
X5541111Y11567236D03*
G01*
X5287111Y11567236D03*
G01*
X5033111Y11567236D03*
G01*
X4779111Y11567236D03*
G01*
X4525111Y11567236D03*
G01*
X4271111Y11567236D03*
G01*
X4017111Y11567236D03*
G01*
X3763111Y11567236D03*
G01*
X3509111Y11567236D03*
G01*
X3255111Y11567236D03*
G01*
X3001111Y11567236D03*
G01*
X2747136Y11567236D03*
D15*
G01*
X2493136Y11567236D03*
G01*
X2239136Y11567236D03*
G01*
X1985136Y11567236D03*
G01*
X2493136Y9027236D03*
G01*
X2239136Y9027236D03*
G01*
X1985136Y9027236D03*
D16*
G01*
X10602112Y9856810D03*
D17*
G01*
X10856112Y9856810D03*
G01*
X11110112Y9856810D03*
G01*
X11364112Y9856810D03*
D18*
G01*
X6812762Y7743977D03*
D19*
G01*
X6558762Y7743977D03*
G01*
X6304762Y7743977D03*
G01*
X6050762Y7743977D03*
G01*
X5796762Y7743977D03*
G01*
X5542762Y7743977D03*
G01*
X5288762Y7743977D03*
G01*
X5034762Y7743977D03*
D18*
G01*
X4628362Y7743977D03*
D19*
G01*
X4374362Y7743977D03*
G01*
X4120362Y7743977D03*
G01*
X3866362Y7743977D03*
G01*
X3612362Y7743977D03*
G01*
X3358362Y7743977D03*
G01*
X3104362Y7743977D03*
G01*
X2850362Y7743977D03*
G01*
X2850362Y12569977D03*
G01*
X3104362Y12569977D03*
G01*
X3358362Y12569977D03*
G01*
X3612362Y12569977D03*
G01*
X3866362Y12569977D03*
D18*
G01*
X4120362Y12569977D03*
D19*
G01*
X4628362Y12569977D03*
G01*
X4882362Y12569977D03*
G01*
X5136362Y12569977D03*
G01*
X5390362Y12569977D03*
G01*
X5644362Y12569977D03*
D18*
G01*
X5898362Y12569977D03*
D20*
G01*
X5611647Y12403074D03*
G01*
X5354700Y11783949D03*
G01*
X4769205Y11859818D03*
G01*
X3118307Y11335359D03*
D21*
G01*
X7328204Y11036503D03*
D20*
G01*
X3958285Y8182381D03*
D22*
G01*
X9563100Y9486900D03*
G01*
X2794000Y8216900D03*
G01*
X3162300Y8178800D03*
G01*
X3492500Y7962900D03*
G01*
X4127500Y9410700D03*
G01*
X5245100Y12128500D03*
G01*
X4940300Y10388600D03*
G01*
X2120900Y10337800D03*
G01*
X2603500Y10299700D03*
G01*
X3556000Y8712200D03*
G01*
X3352800Y8547100D03*
G01*
X4038600Y8636000D03*
G01*
X4051300Y8420100D03*
G01*
X4902200Y8064500D03*
G01*
X4292600Y10795000D03*
M02*
