G04 Layer: BottomLayer*
G04 EasyEDA v6.5.44, 2024-08-15 16:30:46*
G04 47a5133be28f4d398fb1845f12d33526,080bb0d1436b4706b040d70de8f1a738,10*
G04 Gerber Generator version 0.2*
G04 Scale: 100 percent, Rotated: No, Reflected: No *
G04 Dimensions in millimeters *
G04 leading zeros omitted , absolute positions ,4 integer and 5 decimal *
%FSLAX45Y45*%
%MOMM*%

%ADD10C,0.3000*%
%ADD11C,1.8009*%
%ADD12R,1.9990X3.5992*%
%ADD13C,1.6000*%
%ADD14C,1.5240*%
%ADD15R,1.5080X1.5080*%
%ADD16C,1.5080*%
%ADD17R,1.5000X1.5000*%
%ADD18C,1.5000*%
%ADD19C,0.6100*%
%ADD20C,0.0126*%

%LPD*%
G36*
X798068Y7137908D02*
G01*
X794156Y7138670D01*
X790905Y7140905D01*
X788670Y7144156D01*
X787908Y7148068D01*
X787908Y13171932D01*
X788670Y13175843D01*
X790905Y13179094D01*
X794156Y13181330D01*
X798068Y13182092D01*
X12663932Y13182092D01*
X12667843Y13181330D01*
X12671094Y13179094D01*
X12673330Y13175843D01*
X12674092Y13171932D01*
X12674092Y7148068D01*
X12673330Y7144156D01*
X12671094Y7140905D01*
X12667843Y7138670D01*
X12663932Y7137908D01*
G37*

%LPC*%
G36*
X12090400Y7494117D02*
G01*
X12105589Y7495031D01*
X12120524Y7497775D01*
X12135053Y7502296D01*
X12148921Y7508544D01*
X12161926Y7516418D01*
X12173864Y7525766D01*
X12184634Y7536535D01*
X12193981Y7548473D01*
X12201855Y7561478D01*
X12208103Y7575346D01*
X12212624Y7589875D01*
X12215368Y7604810D01*
X12216282Y7620000D01*
X12215368Y7635189D01*
X12212624Y7650124D01*
X12208103Y7664653D01*
X12201855Y7678521D01*
X12193981Y7691526D01*
X12184634Y7703464D01*
X12173864Y7714234D01*
X12161926Y7723581D01*
X12148921Y7731455D01*
X12135053Y7737703D01*
X12120524Y7742224D01*
X12105589Y7744968D01*
X12090400Y7745882D01*
X12075210Y7744968D01*
X12060275Y7742224D01*
X12045746Y7737703D01*
X12031878Y7731455D01*
X12018873Y7723581D01*
X12006935Y7714234D01*
X11996166Y7703464D01*
X11986818Y7691526D01*
X11978944Y7678521D01*
X11972696Y7664653D01*
X11968175Y7650124D01*
X11965432Y7635189D01*
X11964517Y7620000D01*
X11965432Y7604810D01*
X11968175Y7589875D01*
X11972696Y7575346D01*
X11978944Y7561478D01*
X11986818Y7548473D01*
X11996166Y7536535D01*
X12006935Y7525766D01*
X12018873Y7516418D01*
X12031878Y7508544D01*
X12045746Y7502296D01*
X12060275Y7497775D01*
X12075210Y7495031D01*
G37*
G36*
X10007600Y7494117D02*
G01*
X10022789Y7495031D01*
X10037724Y7497775D01*
X10052253Y7502296D01*
X10066121Y7508544D01*
X10079126Y7516418D01*
X10091064Y7525766D01*
X10101834Y7536535D01*
X10111181Y7548473D01*
X10119055Y7561478D01*
X10125303Y7575346D01*
X10129824Y7589875D01*
X10132568Y7604810D01*
X10133482Y7620000D01*
X10132568Y7635189D01*
X10129824Y7650124D01*
X10125303Y7664653D01*
X10119055Y7678521D01*
X10111181Y7691526D01*
X10101834Y7703464D01*
X10091064Y7714234D01*
X10079126Y7723581D01*
X10066121Y7731455D01*
X10052253Y7737703D01*
X10037724Y7742224D01*
X10022789Y7744968D01*
X10007600Y7745882D01*
X9992410Y7744968D01*
X9977475Y7742224D01*
X9962946Y7737703D01*
X9949078Y7731455D01*
X9936073Y7723581D01*
X9924135Y7714234D01*
X9913366Y7703464D01*
X9904018Y7691526D01*
X9896144Y7678521D01*
X9889896Y7664653D01*
X9885375Y7650124D01*
X9882632Y7635189D01*
X9881717Y7620000D01*
X9882632Y7604810D01*
X9885375Y7589875D01*
X9889896Y7575346D01*
X9896144Y7561478D01*
X9904018Y7548473D01*
X9913366Y7536535D01*
X9924135Y7525766D01*
X9936073Y7516418D01*
X9949078Y7508544D01*
X9962946Y7502296D01*
X9977475Y7497775D01*
X9992410Y7495031D01*
G37*
G36*
X3049219Y7508697D02*
G01*
X5901182Y7508697D01*
X5909665Y7509509D01*
X5917336Y7511846D01*
X5924397Y7515606D01*
X5930950Y7521041D01*
X6068060Y7658150D01*
X6071108Y7660182D01*
X6074664Y7661097D01*
X6078270Y7660640D01*
X6085332Y7658455D01*
X6098590Y7656220D01*
X6112052Y7655763D01*
X6125464Y7657134D01*
X6138570Y7660233D01*
X6151168Y7665110D01*
X6163005Y7671562D01*
X6173825Y7679537D01*
X6183528Y7688935D01*
X6191859Y7699502D01*
X6198717Y7711084D01*
X6204000Y7723530D01*
X6207556Y7736484D01*
X6209334Y7749844D01*
X6209334Y7763357D01*
X6207556Y7776718D01*
X6204000Y7789672D01*
X6198717Y7802118D01*
X6191859Y7813700D01*
X6183528Y7824266D01*
X6173825Y7833664D01*
X6163005Y7841640D01*
X6151168Y7848092D01*
X6138570Y7852968D01*
X6125464Y7856067D01*
X6112052Y7857439D01*
X6098590Y7856981D01*
X6085332Y7854746D01*
X6072428Y7850733D01*
X6060236Y7845094D01*
X6048857Y7837830D01*
X6038545Y7829143D01*
X6029502Y7819136D01*
X6021882Y7808010D01*
X6015837Y7795971D01*
X6011418Y7783271D01*
X6008725Y7770063D01*
X6007811Y7756601D01*
X6008725Y7743139D01*
X6011418Y7729931D01*
X6012586Y7726476D01*
X6013145Y7722717D01*
X6012332Y7719059D01*
X6010198Y7715961D01*
X5887720Y7593482D01*
X5884418Y7591247D01*
X5880557Y7590485D01*
X5285638Y7590485D01*
X5281777Y7591247D01*
X5278475Y7593482D01*
X5276291Y7596784D01*
X5275478Y7600645D01*
X5276291Y7604556D01*
X5278475Y7607858D01*
X5337556Y7666888D01*
X5340858Y7669123D01*
X5344820Y7669885D01*
X5348732Y7669072D01*
X5352034Y7666786D01*
X5357266Y7661351D01*
X5362092Y7658303D01*
X5367528Y7656423D01*
X5373878Y7655712D01*
X5522722Y7655712D01*
X5529072Y7656423D01*
X5534507Y7658303D01*
X5539435Y7661402D01*
X5543499Y7665466D01*
X5546598Y7670393D01*
X5548477Y7675829D01*
X5549188Y7682179D01*
X5549188Y7831023D01*
X5548477Y7837373D01*
X5546598Y7842808D01*
X5543499Y7847736D01*
X5539435Y7851800D01*
X5534507Y7854899D01*
X5529072Y7856778D01*
X5522722Y7857490D01*
X5373878Y7857490D01*
X5367528Y7856778D01*
X5362092Y7854899D01*
X5357164Y7851800D01*
X5353100Y7847736D01*
X5350002Y7842808D01*
X5348122Y7837373D01*
X5347411Y7831023D01*
X5347411Y7807096D01*
X5346700Y7803438D01*
X5344769Y7800289D01*
X5341823Y7798003D01*
X5338216Y7796987D01*
X5335117Y7796682D01*
X5327446Y7794345D01*
X5320385Y7790586D01*
X5314188Y7785506D01*
X5309057Y7779258D01*
X5305602Y7776565D01*
X5301335Y7775549D01*
X5297017Y7776464D01*
X5293461Y7779156D01*
X5291429Y7783017D01*
X5289600Y7789672D01*
X5284317Y7802118D01*
X5277459Y7813700D01*
X5269128Y7824266D01*
X5259425Y7833664D01*
X5248605Y7841640D01*
X5240477Y7846059D01*
X5237683Y7848346D01*
X5235854Y7851444D01*
X5235194Y7855000D01*
X5235194Y8143240D01*
X5236006Y8147151D01*
X5238191Y8150402D01*
X5241493Y8152638D01*
X5245354Y8153400D01*
X5396636Y8153400D01*
X5401005Y8152434D01*
X5404510Y8149691D01*
X5407863Y8145576D01*
X5756198Y7797241D01*
X5758332Y7794142D01*
X5759145Y7790484D01*
X5758586Y7786725D01*
X5757418Y7783271D01*
X5754725Y7770063D01*
X5753811Y7756601D01*
X5754725Y7743139D01*
X5757418Y7729931D01*
X5761837Y7717231D01*
X5767882Y7705191D01*
X5775502Y7694066D01*
X5784545Y7684058D01*
X5794857Y7675372D01*
X5806236Y7668107D01*
X5818428Y7662468D01*
X5831332Y7658455D01*
X5844590Y7656220D01*
X5858052Y7655763D01*
X5871464Y7657134D01*
X5884570Y7660233D01*
X5897168Y7665110D01*
X5909005Y7671562D01*
X5919825Y7679537D01*
X5929528Y7688935D01*
X5937859Y7699502D01*
X5944717Y7711084D01*
X5950000Y7723530D01*
X5953556Y7736484D01*
X5955334Y7749844D01*
X5955334Y7763357D01*
X5953556Y7776718D01*
X5950000Y7789672D01*
X5944717Y7802118D01*
X5937859Y7813700D01*
X5929528Y7824266D01*
X5919825Y7833664D01*
X5909005Y7841640D01*
X5897168Y7848092D01*
X5884570Y7852968D01*
X5871464Y7856067D01*
X5858052Y7857439D01*
X5844590Y7856981D01*
X5831332Y7854746D01*
X5824270Y7852562D01*
X5820664Y7852105D01*
X5817108Y7853019D01*
X5814060Y7855051D01*
X5533085Y8136077D01*
X5530900Y8139328D01*
X5530138Y8143240D01*
X5530900Y8147151D01*
X5533085Y8150402D01*
X5536387Y8152638D01*
X5540298Y8153400D01*
X8203184Y8153400D01*
X8204911Y8154111D01*
X8457488Y8406688D01*
X8458200Y8408416D01*
X8458200Y11505946D01*
X8458962Y11509806D01*
X8461197Y11513108D01*
X8464448Y11515293D01*
X8468360Y11516106D01*
X9029954Y11516106D01*
X9033814Y11515293D01*
X9037116Y11513108D01*
X10533126Y10017150D01*
X10539679Y10011714D01*
X10546740Y10007955D01*
X10554411Y10005618D01*
X10557510Y10005314D01*
X10561116Y10004298D01*
X10564063Y10002012D01*
X10565993Y9998862D01*
X10566704Y9995204D01*
X10566704Y9970871D01*
X10567416Y9964572D01*
X10569295Y9959086D01*
X10572394Y9954209D01*
X10576509Y9950094D01*
X10581386Y9946995D01*
X10586872Y9945116D01*
X10593171Y9944404D01*
X10742828Y9944404D01*
X10749127Y9945116D01*
X10754614Y9946995D01*
X10759490Y9950094D01*
X10763605Y9954209D01*
X10766704Y9959086D01*
X10768584Y9964572D01*
X10769295Y9970871D01*
X10769295Y10120528D01*
X10768584Y10126827D01*
X10766704Y10132314D01*
X10763605Y10137190D01*
X10759490Y10141305D01*
X10754614Y10144404D01*
X10749127Y10146284D01*
X10742828Y10146995D01*
X10593171Y10146995D01*
X10586872Y10146284D01*
X10581386Y10144404D01*
X10576509Y10141305D01*
X10572394Y10137190D01*
X10569295Y10132314D01*
X10567416Y10126827D01*
X10566908Y10122357D01*
X10565790Y10118750D01*
X10563453Y10115804D01*
X10560151Y10113924D01*
X10556443Y10113365D01*
X10552734Y10114178D01*
X10549636Y10116312D01*
X9080347Y11585549D01*
X9073794Y11590985D01*
X9066733Y11594744D01*
X9059062Y11597081D01*
X9050578Y11597894D01*
X8468360Y11597894D01*
X8464448Y11598656D01*
X8461197Y11600891D01*
X8458962Y11604193D01*
X8458200Y11608054D01*
X8458200Y11962384D01*
X8457488Y11964111D01*
X8204911Y12216688D01*
X8203184Y12217400D01*
X6489852Y12217400D01*
X6485991Y12218162D01*
X6482689Y12220397D01*
X6480505Y12223648D01*
X6479692Y12227560D01*
X6479692Y12474752D01*
X6480708Y12479172D01*
X6483502Y12482677D01*
X6487515Y12484658D01*
X6494170Y12486233D01*
X6506768Y12491110D01*
X6518605Y12497562D01*
X6529425Y12505537D01*
X6539128Y12514935D01*
X6547459Y12525502D01*
X6554317Y12537084D01*
X6559600Y12549530D01*
X6563156Y12562484D01*
X6564934Y12575844D01*
X6564934Y12589357D01*
X6563156Y12602718D01*
X6559600Y12615672D01*
X6554317Y12628118D01*
X6547459Y12639700D01*
X6539128Y12650266D01*
X6529425Y12659664D01*
X6518605Y12667640D01*
X6506768Y12674092D01*
X6494170Y12678968D01*
X6481064Y12682067D01*
X6467652Y12683439D01*
X6454190Y12682982D01*
X6440932Y12680746D01*
X6428028Y12676733D01*
X6415836Y12671094D01*
X6404457Y12663830D01*
X6394145Y12655143D01*
X6385102Y12645136D01*
X6377482Y12634010D01*
X6371437Y12621971D01*
X6367018Y12609271D01*
X6364325Y12596063D01*
X6363411Y12582601D01*
X6364325Y12569139D01*
X6367018Y12555931D01*
X6371437Y12543231D01*
X6377482Y12531191D01*
X6385102Y12520066D01*
X6394297Y12509957D01*
X6396939Y12506502D01*
X6397904Y12502235D01*
X6397904Y12227560D01*
X6397142Y12223648D01*
X6394907Y12220397D01*
X6391605Y12218162D01*
X6387744Y12217400D01*
X5866231Y12217400D01*
X5862320Y12218162D01*
X5859018Y12220397D01*
X5856833Y12223648D01*
X5856071Y12227560D01*
X5856071Y12518034D01*
X5856935Y12522200D01*
X5859475Y12525603D01*
X5863234Y12527737D01*
X5867450Y12528092D01*
X5871514Y12526670D01*
X5874613Y12523774D01*
X5877102Y12520066D01*
X5886145Y12510058D01*
X5896457Y12501372D01*
X5907836Y12494107D01*
X5912459Y12491974D01*
X5912459Y12538760D01*
X5866231Y12538760D01*
X5862320Y12539522D01*
X5859018Y12541707D01*
X5856833Y12545009D01*
X5856071Y12548920D01*
X5856071Y12616281D01*
X5856833Y12620193D01*
X5859018Y12623495D01*
X5862320Y12625679D01*
X5866231Y12626441D01*
X5912459Y12626441D01*
X5912459Y12673228D01*
X5907836Y12671094D01*
X5896457Y12663830D01*
X5886145Y12655143D01*
X5877102Y12645136D01*
X5871870Y12637465D01*
X5869178Y12634823D01*
X5865723Y12633299D01*
X5861964Y12633198D01*
X5858408Y12634468D01*
X5855512Y12636906D01*
X5853785Y12640259D01*
X5852922Y12643154D01*
X5849112Y12650216D01*
X5843727Y12656820D01*
X5627674Y12872821D01*
X5621121Y12878257D01*
X5614060Y12882016D01*
X5606389Y12884353D01*
X5597906Y12885166D01*
X4186478Y12885166D01*
X4177995Y12884353D01*
X4170324Y12882016D01*
X4163263Y12878257D01*
X4156710Y12872821D01*
X3965092Y12681254D01*
X3961841Y12679070D01*
X3958082Y12678257D01*
X3954170Y12678968D01*
X3941064Y12682067D01*
X3927652Y12683439D01*
X3914190Y12682982D01*
X3900932Y12680746D01*
X3888028Y12676733D01*
X3875836Y12671094D01*
X3864457Y12663830D01*
X3854145Y12655143D01*
X3845102Y12645136D01*
X3837482Y12634010D01*
X3831437Y12621971D01*
X3827018Y12609271D01*
X3824325Y12596063D01*
X3823411Y12582601D01*
X3824325Y12569139D01*
X3827018Y12555931D01*
X3831437Y12543231D01*
X3837482Y12531191D01*
X3845102Y12520066D01*
X3854145Y12510058D01*
X3864457Y12501372D01*
X3875836Y12494107D01*
X3888028Y12488468D01*
X3900932Y12484455D01*
X3914190Y12482220D01*
X3927652Y12481763D01*
X3941064Y12483134D01*
X3954170Y12486233D01*
X3966768Y12491110D01*
X3978605Y12497562D01*
X3989425Y12505537D01*
X3999128Y12514935D01*
X4007459Y12525502D01*
X4014317Y12537084D01*
X4019600Y12549530D01*
X4023156Y12562484D01*
X4024934Y12575844D01*
X4024934Y12589357D01*
X4023156Y12602718D01*
X4020210Y12613436D01*
X4019905Y12616942D01*
X4020820Y12620396D01*
X4022851Y12623292D01*
X4199940Y12800380D01*
X4203242Y12802565D01*
X4207103Y12803378D01*
X4316679Y12803378D01*
X4320590Y12802565D01*
X4323842Y12800380D01*
X4326077Y12797078D01*
X4326839Y12793218D01*
X4326077Y12789306D01*
X4323842Y12786004D01*
X4219092Y12681254D01*
X4215841Y12679070D01*
X4212082Y12678257D01*
X4208170Y12678968D01*
X4195064Y12682067D01*
X4181652Y12683439D01*
X4168190Y12682982D01*
X4154932Y12680746D01*
X4142028Y12676733D01*
X4129836Y12671094D01*
X4118457Y12663830D01*
X4108145Y12655143D01*
X4099102Y12645136D01*
X4091482Y12634010D01*
X4085437Y12621971D01*
X4081018Y12609271D01*
X4078325Y12596063D01*
X4077411Y12582601D01*
X4078325Y12569139D01*
X4081018Y12555931D01*
X4085437Y12543231D01*
X4091482Y12531191D01*
X4099102Y12520066D01*
X4108145Y12510058D01*
X4118457Y12501372D01*
X4129836Y12494107D01*
X4142028Y12488468D01*
X4154932Y12484455D01*
X4168190Y12482220D01*
X4181652Y12481763D01*
X4195064Y12483134D01*
X4208170Y12486233D01*
X4220768Y12491110D01*
X4232605Y12497562D01*
X4243425Y12505537D01*
X4253128Y12514935D01*
X4261459Y12525502D01*
X4268317Y12537084D01*
X4273600Y12549530D01*
X4277156Y12562484D01*
X4278934Y12575844D01*
X4278934Y12589357D01*
X4277156Y12602718D01*
X4274210Y12613436D01*
X4273905Y12616942D01*
X4274820Y12620396D01*
X4276852Y12623292D01*
X4403852Y12750342D01*
X4407154Y12752527D01*
X4411065Y12753289D01*
X4520641Y12753289D01*
X4524502Y12752527D01*
X4527804Y12750342D01*
X4529988Y12747040D01*
X4530801Y12743129D01*
X4529988Y12739268D01*
X4527804Y12735966D01*
X4473092Y12681254D01*
X4469841Y12679070D01*
X4466082Y12678257D01*
X4462170Y12678968D01*
X4449064Y12682067D01*
X4435652Y12683439D01*
X4422190Y12682982D01*
X4408932Y12680746D01*
X4396028Y12676733D01*
X4383836Y12671094D01*
X4372457Y12663830D01*
X4362145Y12655143D01*
X4353102Y12645136D01*
X4345482Y12634010D01*
X4339437Y12621971D01*
X4335018Y12609271D01*
X4332325Y12596063D01*
X4331411Y12582601D01*
X4332325Y12569139D01*
X4335018Y12555931D01*
X4339437Y12543231D01*
X4345482Y12531191D01*
X4353102Y12520066D01*
X4362145Y12510058D01*
X4372457Y12501372D01*
X4383836Y12494107D01*
X4396028Y12488468D01*
X4408932Y12484455D01*
X4422190Y12482220D01*
X4435652Y12481763D01*
X4449064Y12483134D01*
X4462170Y12486233D01*
X4474768Y12491110D01*
X4486605Y12497562D01*
X4497425Y12505537D01*
X4507128Y12514935D01*
X4515459Y12525502D01*
X4522317Y12537084D01*
X4527600Y12549530D01*
X4531156Y12562484D01*
X4532934Y12575844D01*
X4532934Y12589357D01*
X4531156Y12602718D01*
X4528210Y12613436D01*
X4527905Y12616942D01*
X4528820Y12620396D01*
X4530852Y12623292D01*
X4607407Y12699898D01*
X4610709Y12702082D01*
X4614621Y12702844D01*
X4672736Y12702844D01*
X4676902Y12701930D01*
X4680356Y12699390D01*
X4682439Y12695682D01*
X4682794Y12691414D01*
X4681372Y12687350D01*
X4678375Y12684252D01*
X4674412Y12682677D01*
X4662932Y12680746D01*
X4650028Y12676733D01*
X4637836Y12671094D01*
X4626457Y12663830D01*
X4616145Y12655143D01*
X4607102Y12645136D01*
X4599482Y12634010D01*
X4593437Y12621971D01*
X4589018Y12609271D01*
X4586325Y12596063D01*
X4585411Y12582601D01*
X4586325Y12569139D01*
X4589018Y12555931D01*
X4593437Y12543231D01*
X4599482Y12531191D01*
X4607102Y12520066D01*
X4616145Y12510058D01*
X4626457Y12501372D01*
X4637836Y12494107D01*
X4650028Y12488468D01*
X4662932Y12484455D01*
X4676190Y12482220D01*
X4689652Y12481763D01*
X4703064Y12483134D01*
X4716170Y12486233D01*
X4728768Y12491110D01*
X4740605Y12497562D01*
X4751425Y12505537D01*
X4761128Y12514935D01*
X4769459Y12525502D01*
X4776317Y12537084D01*
X4781600Y12549530D01*
X4785156Y12562484D01*
X4786934Y12575844D01*
X4786934Y12589357D01*
X4785156Y12602718D01*
X4782210Y12613436D01*
X4781905Y12616942D01*
X4782820Y12620396D01*
X4784852Y12623292D01*
X4805680Y12644120D01*
X4808982Y12646304D01*
X4812842Y12647117D01*
X4829251Y12647117D01*
X4833112Y12646304D01*
X4836414Y12644120D01*
X4838598Y12640818D01*
X4839411Y12636957D01*
X4839411Y12508179D01*
X4840122Y12501829D01*
X4842002Y12496393D01*
X4845100Y12491466D01*
X4849164Y12487402D01*
X4854092Y12484303D01*
X4859528Y12482423D01*
X4863693Y12481915D01*
X4867300Y12480848D01*
X4870246Y12478461D01*
X4872126Y12475210D01*
X4872685Y12471450D01*
X4871872Y12467793D01*
X4869738Y12464643D01*
X4378401Y11973306D01*
X4372965Y11966702D01*
X4369206Y11959640D01*
X4366869Y11951970D01*
X4366056Y11943537D01*
X4366056Y11644426D01*
X4365294Y11640616D01*
X4363212Y11637365D01*
X4360062Y11635181D01*
X4356303Y11634266D01*
X4352493Y11634825D01*
X4349191Y11636756D01*
X4344365Y11641023D01*
X4332833Y11648694D01*
X4320438Y11654840D01*
X4307332Y11659260D01*
X4293717Y11661952D01*
X4279900Y11662867D01*
X4266082Y11661952D01*
X4252518Y11659260D01*
X4239412Y11654840D01*
X4226966Y11648694D01*
X4215434Y11641023D01*
X4205020Y11631879D01*
X4195927Y11621465D01*
X4188206Y11609933D01*
X4182059Y11597538D01*
X4177639Y11584381D01*
X4174947Y11570817D01*
X4174032Y11557000D01*
X4174947Y11543182D01*
X4177639Y11529568D01*
X4182059Y11516461D01*
X4188206Y11504066D01*
X4195927Y11492534D01*
X4205020Y11482120D01*
X4215434Y11472976D01*
X4226966Y11465306D01*
X4239412Y11459159D01*
X4252518Y11454739D01*
X4266082Y11451996D01*
X4279900Y11451132D01*
X4293717Y11451996D01*
X4307332Y11454739D01*
X4320438Y11459159D01*
X4332833Y11465306D01*
X4344365Y11472976D01*
X4349191Y11477193D01*
X4352493Y11479174D01*
X4356303Y11479733D01*
X4360062Y11478818D01*
X4363212Y11476583D01*
X4365294Y11473383D01*
X4366056Y11469573D01*
X4366056Y10435183D01*
X4365294Y10431322D01*
X4363059Y10428020D01*
X3054502Y9119463D01*
X3051403Y9117330D01*
X3047746Y9116466D01*
X3044037Y9117025D01*
X3037332Y9119260D01*
X3023717Y9122003D01*
X3009900Y9122867D01*
X2996082Y9122003D01*
X2982518Y9119260D01*
X2969412Y9114840D01*
X2956966Y9108694D01*
X2945434Y9101023D01*
X2940659Y9096806D01*
X2937357Y9094876D01*
X2933547Y9094317D01*
X2929788Y9095181D01*
X2926638Y9097416D01*
X2924556Y9100667D01*
X2923794Y9104426D01*
X2923794Y10413542D01*
X2922981Y10421975D01*
X2920644Y10429646D01*
X2916885Y10436707D01*
X2911449Y10443311D01*
X1839366Y11515394D01*
X1837232Y11518544D01*
X1836369Y11522202D01*
X1836928Y11525910D01*
X1838350Y11530025D01*
X1841093Y11543385D01*
X1842007Y11557000D01*
X1841093Y11570614D01*
X1838350Y11583974D01*
X1833880Y11596878D01*
X1827733Y11609019D01*
X1826666Y11610594D01*
X1825040Y11614607D01*
X1825243Y11619026D01*
X1827275Y11622887D01*
X1830781Y11625529D01*
X1835048Y11626494D01*
X1862378Y11626494D01*
X1866290Y11625681D01*
X1869592Y11623497D01*
X1891487Y11601602D01*
X1893620Y11598503D01*
X1894433Y11594846D01*
X1893925Y11591137D01*
X1891639Y11584381D01*
X1888947Y11570817D01*
X1888032Y11557000D01*
X1888947Y11543182D01*
X1891639Y11529568D01*
X1896110Y11516461D01*
X1902206Y11504066D01*
X1909927Y11492534D01*
X1919071Y11482120D01*
X1929485Y11472976D01*
X1940966Y11465306D01*
X1953412Y11459159D01*
X1966518Y11454739D01*
X1980082Y11451996D01*
X1993900Y11451132D01*
X2007717Y11451996D01*
X2021332Y11454739D01*
X2034438Y11459159D01*
X2046884Y11465306D01*
X2058365Y11472976D01*
X2068779Y11482120D01*
X2077923Y11492534D01*
X2085644Y11504066D01*
X2091740Y11516461D01*
X2096211Y11529568D01*
X2098903Y11543182D01*
X2099818Y11557000D01*
X2098903Y11570817D01*
X2096211Y11584381D01*
X2091740Y11597538D01*
X2085644Y11609933D01*
X2077923Y11621465D01*
X2068779Y11631879D01*
X2058365Y11641023D01*
X2046884Y11648694D01*
X2034438Y11654840D01*
X2021332Y11659260D01*
X2007717Y11661952D01*
X1993900Y11662867D01*
X1980082Y11661952D01*
X1966518Y11659260D01*
X1959813Y11656974D01*
X1956104Y11656466D01*
X1952447Y11657330D01*
X1949348Y11659412D01*
X1912823Y11695938D01*
X1906219Y11701373D01*
X1899157Y11705132D01*
X1891487Y11707469D01*
X1883054Y11708282D01*
X1679905Y11708282D01*
X1671421Y11707469D01*
X1663750Y11705132D01*
X1656689Y11701373D01*
X1650136Y11695938D01*
X1601774Y11647576D01*
X1596339Y11641023D01*
X1592580Y11633962D01*
X1590243Y11626291D01*
X1589430Y11617858D01*
X1588211Y11613946D01*
X1585518Y11610848D01*
X1581861Y11609019D01*
X1577746Y11608816D01*
X1573885Y11610289D01*
X1570939Y11613134D01*
X1566011Y11620246D01*
X1556867Y11630406D01*
X1546453Y11639194D01*
X1534972Y11646509D01*
X1522577Y11652250D01*
X1509572Y11656314D01*
X1496110Y11658549D01*
X1482496Y11659006D01*
X1468932Y11657685D01*
X1455674Y11654485D01*
X1442923Y11649608D01*
X1430985Y11643055D01*
X1420012Y11634978D01*
X1410208Y11625478D01*
X1401724Y11614759D01*
X1394815Y11603024D01*
X1389481Y11590477D01*
X1385874Y11577320D01*
X1384046Y11563807D01*
X1384046Y11550192D01*
X1385874Y11536680D01*
X1389481Y11523522D01*
X1394815Y11510975D01*
X1401724Y11499240D01*
X1410208Y11488521D01*
X1420012Y11479022D01*
X1430985Y11470944D01*
X1442923Y11464391D01*
X1455674Y11459514D01*
X1468932Y11456314D01*
X1482496Y11454993D01*
X1496110Y11455450D01*
X1509572Y11457686D01*
X1522577Y11461750D01*
X1534972Y11467490D01*
X1546453Y11474805D01*
X1556867Y11483594D01*
X1566011Y11493754D01*
X1570888Y11500815D01*
X1573987Y11503761D01*
X1578000Y11505133D01*
X1582267Y11504777D01*
X1585976Y11502644D01*
X1588516Y11499240D01*
X1589430Y11495074D01*
X1589430Y9078976D01*
X1588516Y9074759D01*
X1585976Y9071356D01*
X1582267Y9069273D01*
X1578000Y9068866D01*
X1573987Y9070289D01*
X1570888Y9073184D01*
X1566011Y9080296D01*
X1556867Y9090406D01*
X1546453Y9099194D01*
X1534972Y9106509D01*
X1522577Y9112250D01*
X1509572Y9116314D01*
X1496110Y9118600D01*
X1482496Y9119057D01*
X1468932Y9117685D01*
X1455674Y9114485D01*
X1442923Y9109608D01*
X1430985Y9103055D01*
X1420012Y9094978D01*
X1410208Y9085478D01*
X1401724Y9074759D01*
X1394815Y9063024D01*
X1389481Y9050477D01*
X1385874Y9037320D01*
X1384046Y9023807D01*
X1384046Y9010192D01*
X1385874Y8996680D01*
X1389481Y8983522D01*
X1394815Y8970975D01*
X1401724Y8959240D01*
X1410208Y8948521D01*
X1420012Y8939022D01*
X1430985Y8930944D01*
X1442923Y8924391D01*
X1455674Y8919514D01*
X1468932Y8916365D01*
X1482496Y8914993D01*
X1496110Y8915450D01*
X1509572Y8917686D01*
X1522577Y8921750D01*
X1534972Y8927490D01*
X1546453Y8934805D01*
X1556867Y8943644D01*
X1566011Y8953754D01*
X1572158Y8962694D01*
X1574850Y8965387D01*
X1578356Y8966860D01*
X1582115Y8967012D01*
X1585671Y8965742D01*
X1588516Y8963253D01*
X1590294Y8959900D01*
X1592580Y8952331D01*
X1596339Y8945270D01*
X1601774Y8938717D01*
X3019450Y7521041D01*
X3026003Y7515606D01*
X3033064Y7511846D01*
X3040735Y7509509D01*
G37*
G36*
X7558278Y7655712D02*
G01*
X7707122Y7655712D01*
X7713472Y7656423D01*
X7718907Y7658303D01*
X7723835Y7661402D01*
X7727899Y7665466D01*
X7730998Y7670393D01*
X7732877Y7675829D01*
X7733588Y7682179D01*
X7733588Y7831023D01*
X7732877Y7837373D01*
X7730998Y7842808D01*
X7727899Y7847736D01*
X7723835Y7851800D01*
X7718907Y7854899D01*
X7713472Y7856778D01*
X7707122Y7857490D01*
X7558278Y7857490D01*
X7551928Y7856778D01*
X7546492Y7854899D01*
X7541564Y7851800D01*
X7537500Y7847736D01*
X7534402Y7842808D01*
X7532522Y7837373D01*
X7531811Y7831023D01*
X7531811Y7682179D01*
X7532522Y7675829D01*
X7534402Y7670393D01*
X7537500Y7665466D01*
X7541564Y7661402D01*
X7546492Y7658303D01*
X7551928Y7656423D01*
G37*
G36*
X7128052Y7655763D02*
G01*
X7141464Y7657134D01*
X7154570Y7660233D01*
X7167168Y7665110D01*
X7179005Y7671562D01*
X7189825Y7679537D01*
X7199528Y7688935D01*
X7207859Y7699502D01*
X7214717Y7711084D01*
X7220000Y7723530D01*
X7223556Y7736484D01*
X7225334Y7749844D01*
X7225334Y7763357D01*
X7223556Y7776718D01*
X7220000Y7789672D01*
X7214717Y7802118D01*
X7207859Y7813700D01*
X7199528Y7824266D01*
X7189825Y7833664D01*
X7179005Y7841640D01*
X7167168Y7848092D01*
X7154570Y7852968D01*
X7141464Y7856067D01*
X7128052Y7857439D01*
X7114590Y7856981D01*
X7101331Y7854746D01*
X7088428Y7850733D01*
X7076236Y7845094D01*
X7064857Y7837830D01*
X7054545Y7829143D01*
X7045502Y7819136D01*
X7037882Y7808010D01*
X7031837Y7795971D01*
X7027418Y7783271D01*
X7024725Y7770063D01*
X7023811Y7756601D01*
X7024725Y7743139D01*
X7027418Y7729931D01*
X7031837Y7717231D01*
X7037882Y7705191D01*
X7045502Y7694066D01*
X7054545Y7684058D01*
X7064857Y7675372D01*
X7076236Y7668107D01*
X7088428Y7662468D01*
X7101331Y7658455D01*
X7114590Y7656220D01*
G37*
G36*
X6874052Y7655763D02*
G01*
X6887464Y7657134D01*
X6900570Y7660233D01*
X6913168Y7665110D01*
X6925005Y7671562D01*
X6935825Y7679537D01*
X6945528Y7688935D01*
X6953859Y7699502D01*
X6960717Y7711084D01*
X6966000Y7723530D01*
X6969556Y7736484D01*
X6971334Y7749844D01*
X6971334Y7763357D01*
X6969556Y7776718D01*
X6966000Y7789672D01*
X6960717Y7802118D01*
X6953859Y7813700D01*
X6945528Y7824266D01*
X6935825Y7833664D01*
X6925005Y7841640D01*
X6913168Y7848092D01*
X6900570Y7852968D01*
X6887464Y7856067D01*
X6874052Y7857439D01*
X6860590Y7856981D01*
X6847331Y7854746D01*
X6834428Y7850733D01*
X6822236Y7845094D01*
X6810857Y7837830D01*
X6800545Y7829143D01*
X6791502Y7819136D01*
X6783882Y7808010D01*
X6777837Y7795971D01*
X6773418Y7783271D01*
X6770725Y7770063D01*
X6769811Y7756601D01*
X6770725Y7743139D01*
X6773418Y7729931D01*
X6777837Y7717231D01*
X6783882Y7705191D01*
X6791502Y7694066D01*
X6800545Y7684058D01*
X6810857Y7675372D01*
X6822236Y7668107D01*
X6834428Y7662468D01*
X6847331Y7658455D01*
X6860590Y7656220D01*
G37*
G36*
X6620052Y7655763D02*
G01*
X6633464Y7657134D01*
X6646570Y7660233D01*
X6659168Y7665110D01*
X6671005Y7671562D01*
X6681825Y7679537D01*
X6691528Y7688935D01*
X6699859Y7699502D01*
X6706717Y7711084D01*
X6712000Y7723530D01*
X6715556Y7736484D01*
X6717334Y7749844D01*
X6717334Y7763357D01*
X6715556Y7776718D01*
X6712000Y7789672D01*
X6706717Y7802118D01*
X6699859Y7813700D01*
X6691528Y7824266D01*
X6681825Y7833664D01*
X6671005Y7841640D01*
X6659168Y7848092D01*
X6646570Y7852968D01*
X6633464Y7856067D01*
X6620052Y7857439D01*
X6606590Y7856981D01*
X6593331Y7854746D01*
X6580428Y7850733D01*
X6568236Y7845094D01*
X6556857Y7837830D01*
X6546545Y7829143D01*
X6537502Y7819136D01*
X6529882Y7808010D01*
X6523837Y7795971D01*
X6519418Y7783271D01*
X6516725Y7770063D01*
X6515811Y7756601D01*
X6516725Y7743139D01*
X6519418Y7729931D01*
X6523837Y7717231D01*
X6529882Y7705191D01*
X6537502Y7694066D01*
X6546545Y7684058D01*
X6556857Y7675372D01*
X6568236Y7668107D01*
X6580428Y7662468D01*
X6593331Y7658455D01*
X6606590Y7656220D01*
G37*
G36*
X7382052Y7655763D02*
G01*
X7395464Y7657134D01*
X7408570Y7660233D01*
X7421168Y7665110D01*
X7433005Y7671562D01*
X7443825Y7679537D01*
X7453528Y7688935D01*
X7461859Y7699502D01*
X7468717Y7711084D01*
X7474000Y7723530D01*
X7477556Y7736484D01*
X7479334Y7749844D01*
X7479334Y7763357D01*
X7477556Y7776718D01*
X7474000Y7789672D01*
X7468717Y7802118D01*
X7461859Y7813700D01*
X7453528Y7824266D01*
X7443825Y7833664D01*
X7433005Y7841640D01*
X7421168Y7848092D01*
X7408570Y7852968D01*
X7395464Y7856067D01*
X7382052Y7857439D01*
X7368590Y7856981D01*
X7355331Y7854746D01*
X7342428Y7850733D01*
X7330236Y7845094D01*
X7318857Y7837830D01*
X7308545Y7829143D01*
X7299502Y7819136D01*
X7291882Y7808010D01*
X7285837Y7795971D01*
X7281418Y7783271D01*
X7278725Y7770063D01*
X7277811Y7756601D01*
X7278725Y7743139D01*
X7281418Y7729931D01*
X7285837Y7717231D01*
X7291882Y7705191D01*
X7299502Y7694066D01*
X7308545Y7684058D01*
X7318857Y7675372D01*
X7330236Y7668107D01*
X7342428Y7662468D01*
X7355331Y7658455D01*
X7368590Y7656220D01*
G37*
G36*
X6366052Y7655763D02*
G01*
X6379464Y7657134D01*
X6392570Y7660233D01*
X6405168Y7665110D01*
X6417005Y7671562D01*
X6427825Y7679537D01*
X6437528Y7688935D01*
X6445859Y7699502D01*
X6452717Y7711084D01*
X6458000Y7723530D01*
X6461556Y7736484D01*
X6463334Y7749844D01*
X6463334Y7763357D01*
X6461556Y7776718D01*
X6458000Y7789672D01*
X6452717Y7802118D01*
X6445859Y7813700D01*
X6437528Y7824266D01*
X6427825Y7833664D01*
X6417005Y7841640D01*
X6405168Y7848092D01*
X6392570Y7852968D01*
X6379464Y7856067D01*
X6366052Y7857439D01*
X6352590Y7856981D01*
X6339332Y7854746D01*
X6326428Y7850733D01*
X6314236Y7845094D01*
X6302857Y7837830D01*
X6292545Y7829143D01*
X6283502Y7819136D01*
X6275882Y7808010D01*
X6269837Y7795971D01*
X6265418Y7783271D01*
X6262725Y7770063D01*
X6261811Y7756601D01*
X6262725Y7743139D01*
X6265418Y7729931D01*
X6269837Y7717231D01*
X6275882Y7705191D01*
X6283502Y7694066D01*
X6292545Y7684058D01*
X6302857Y7675372D01*
X6314236Y7668107D01*
X6326428Y7662468D01*
X6339332Y7658455D01*
X6352590Y7656220D01*
G37*
G36*
X1187450Y8925204D02*
G01*
X1187450Y8972550D01*
X1140104Y8972550D01*
X1140815Y8970975D01*
X1147724Y8959240D01*
X1156208Y8948521D01*
X1166012Y8939022D01*
X1176985Y8930944D01*
G37*
G36*
X1276350Y8925356D02*
G01*
X1280972Y8927490D01*
X1292453Y8934805D01*
X1302867Y8943644D01*
X1312011Y8953754D01*
X1319733Y8964980D01*
X1323594Y8972550D01*
X1276350Y8972550D01*
G37*
G36*
X1276350Y9061450D02*
G01*
X1323594Y9061450D01*
X1319733Y9069019D01*
X1312011Y9080296D01*
X1302867Y9090406D01*
X1292453Y9099194D01*
X1280972Y9106509D01*
X1276350Y9108643D01*
G37*
G36*
X1140104Y9061450D02*
G01*
X1187450Y9061450D01*
X1187450Y9108795D01*
X1176985Y9103055D01*
X1166012Y9094978D01*
X1156208Y9085478D01*
X1147724Y9074759D01*
X1140815Y9063024D01*
G37*
G36*
X11172596Y9944455D02*
G01*
X11186160Y9944912D01*
X11199469Y9947198D01*
X11212423Y9951161D01*
X11224666Y9956901D01*
X11236096Y9964166D01*
X11246408Y9972903D01*
X11255502Y9982911D01*
X11263122Y9994087D01*
X11269268Y10006177D01*
X11273688Y10018928D01*
X11276380Y10032187D01*
X11277295Y10045700D01*
X11276380Y10059212D01*
X11273688Y10072471D01*
X11269268Y10085222D01*
X11263122Y10097312D01*
X11255502Y10108488D01*
X11246408Y10118496D01*
X11236096Y10127234D01*
X11224666Y10134498D01*
X11212423Y10140238D01*
X11199469Y10144201D01*
X11186160Y10146487D01*
X11172596Y10146944D01*
X11159134Y10145572D01*
X11145977Y10142423D01*
X11133378Y10137597D01*
X11121491Y10131094D01*
X11110620Y10123068D01*
X11100866Y10113619D01*
X11092484Y10103002D01*
X11085576Y10091369D01*
X11080343Y10078923D01*
X11076736Y10065867D01*
X11074958Y10052456D01*
X11074958Y10038943D01*
X11076736Y10025532D01*
X11080343Y10012476D01*
X11085576Y10000030D01*
X11092484Y9988397D01*
X11100866Y9977780D01*
X11110620Y9968331D01*
X11121491Y9960305D01*
X11133378Y9953802D01*
X11145977Y9948976D01*
X11159134Y9945827D01*
G37*
G36*
X11426596Y9944455D02*
G01*
X11440160Y9944912D01*
X11453469Y9947198D01*
X11466423Y9951161D01*
X11478666Y9956901D01*
X11490096Y9964166D01*
X11500408Y9972903D01*
X11509502Y9982911D01*
X11517122Y9994087D01*
X11523268Y10006177D01*
X11527688Y10018928D01*
X11530380Y10032187D01*
X11531295Y10045700D01*
X11530380Y10059212D01*
X11527688Y10072471D01*
X11523268Y10085222D01*
X11517122Y10097312D01*
X11509502Y10108488D01*
X11500408Y10118496D01*
X11490096Y10127234D01*
X11478666Y10134498D01*
X11466423Y10140238D01*
X11453469Y10144201D01*
X11440160Y10146487D01*
X11426596Y10146944D01*
X11413134Y10145572D01*
X11399977Y10142423D01*
X11387378Y10137597D01*
X11375491Y10131094D01*
X11364620Y10123068D01*
X11354866Y10113619D01*
X11346484Y10103002D01*
X11339576Y10091369D01*
X11334343Y10078923D01*
X11330736Y10065867D01*
X11328958Y10052456D01*
X11328958Y10038943D01*
X11330736Y10025532D01*
X11334343Y10012476D01*
X11339576Y10000030D01*
X11346484Y9988397D01*
X11354866Y9977780D01*
X11364620Y9968331D01*
X11375491Y9960305D01*
X11387378Y9953802D01*
X11399977Y9948976D01*
X11413134Y9945827D01*
G37*
G36*
X10918596Y9944455D02*
G01*
X10932160Y9944912D01*
X10945469Y9947198D01*
X10958423Y9951161D01*
X10970666Y9956901D01*
X10982096Y9964166D01*
X10992408Y9972903D01*
X11001502Y9982911D01*
X11009122Y9994087D01*
X11015268Y10006177D01*
X11019688Y10018928D01*
X11022380Y10032187D01*
X11023295Y10045700D01*
X11022380Y10059212D01*
X11019688Y10072471D01*
X11015268Y10085222D01*
X11009122Y10097312D01*
X11001502Y10108488D01*
X10992408Y10118496D01*
X10982096Y10127234D01*
X10970666Y10134498D01*
X10958423Y10140238D01*
X10945469Y10144201D01*
X10932160Y10146487D01*
X10918596Y10146944D01*
X10905134Y10145572D01*
X10891977Y10142423D01*
X10879378Y10137597D01*
X10867491Y10131094D01*
X10856620Y10123068D01*
X10846866Y10113619D01*
X10838484Y10103002D01*
X10831576Y10091369D01*
X10826343Y10078923D01*
X10822736Y10065867D01*
X10820958Y10052456D01*
X10820958Y10038943D01*
X10822736Y10025532D01*
X10826343Y10012476D01*
X10831576Y10000030D01*
X10838484Y9988397D01*
X10846866Y9977780D01*
X10856620Y9968331D01*
X10867491Y9960305D01*
X10879378Y9953802D01*
X10891977Y9948976D01*
X10905134Y9945827D01*
G37*
G36*
X10805515Y11020907D02*
G01*
X10820044Y11020907D01*
X10834522Y11022736D01*
X10848594Y11026394D01*
X10862157Y11031728D01*
X10874908Y11038738D01*
X10886694Y11047323D01*
X10897311Y11057280D01*
X10906556Y11068507D01*
X10914380Y11080800D01*
X10920577Y11093958D01*
X10925048Y11107775D01*
X10927283Y11119307D01*
X10928756Y11122964D01*
X10931550Y11125809D01*
X10935258Y11127333D01*
X10939221Y11127333D01*
X10942929Y11125809D01*
X10945723Y11122964D01*
X10947196Y11119307D01*
X10949432Y11107775D01*
X10953902Y11093958D01*
X10960100Y11080800D01*
X10967923Y11068507D01*
X10977168Y11057280D01*
X10987786Y11047323D01*
X10999571Y11038738D01*
X11012322Y11031728D01*
X11025886Y11026394D01*
X11039957Y11022736D01*
X11054435Y11020907D01*
X11068964Y11020907D01*
X11083442Y11022736D01*
X11097514Y11026394D01*
X11111077Y11031728D01*
X11123828Y11038738D01*
X11135614Y11047323D01*
X11146231Y11057280D01*
X11155476Y11068507D01*
X11163300Y11080800D01*
X11169497Y11093958D01*
X11173968Y11107775D01*
X11176203Y11119307D01*
X11177676Y11122964D01*
X11180470Y11125809D01*
X11184178Y11127333D01*
X11188141Y11127333D01*
X11191849Y11125809D01*
X11194643Y11122964D01*
X11196116Y11119307D01*
X11198352Y11107775D01*
X11202822Y11093958D01*
X11209020Y11080800D01*
X11216843Y11068507D01*
X11226088Y11057280D01*
X11236706Y11047323D01*
X11248491Y11038738D01*
X11261242Y11031728D01*
X11274806Y11026394D01*
X11288877Y11022736D01*
X11303355Y11020907D01*
X11317884Y11020907D01*
X11332362Y11022736D01*
X11346434Y11026394D01*
X11359997Y11031728D01*
X11372748Y11038738D01*
X11384534Y11047323D01*
X11395151Y11057280D01*
X11404396Y11068507D01*
X11412220Y11080800D01*
X11418417Y11093958D01*
X11422888Y11107775D01*
X11425631Y11122101D01*
X11426545Y11136630D01*
X11425631Y11151158D01*
X11422888Y11165484D01*
X11418417Y11179302D01*
X11412220Y11192459D01*
X11404396Y11204752D01*
X11395151Y11215979D01*
X11384534Y11225936D01*
X11372748Y11234521D01*
X11359997Y11241532D01*
X11346434Y11246866D01*
X11332362Y11250523D01*
X11317884Y11252352D01*
X11303355Y11252352D01*
X11288877Y11250523D01*
X11274806Y11246866D01*
X11261242Y11241532D01*
X11248491Y11234521D01*
X11236706Y11225936D01*
X11226088Y11215979D01*
X11216843Y11204752D01*
X11209020Y11192459D01*
X11202822Y11179302D01*
X11198352Y11165484D01*
X11196116Y11153952D01*
X11194643Y11150295D01*
X11191849Y11147450D01*
X11188141Y11145926D01*
X11184178Y11145926D01*
X11180470Y11147450D01*
X11177676Y11150295D01*
X11176203Y11153952D01*
X11173968Y11165484D01*
X11169497Y11179302D01*
X11163300Y11192459D01*
X11155476Y11204752D01*
X11146231Y11215979D01*
X11135614Y11225936D01*
X11123828Y11234521D01*
X11111077Y11241532D01*
X11097514Y11246866D01*
X11083442Y11250523D01*
X11068964Y11252352D01*
X11054435Y11252352D01*
X11039957Y11250523D01*
X11025886Y11246866D01*
X11012322Y11241532D01*
X10999571Y11234521D01*
X10987786Y11225936D01*
X10977168Y11215979D01*
X10967923Y11204752D01*
X10960100Y11192459D01*
X10953902Y11179302D01*
X10949432Y11165484D01*
X10947196Y11153952D01*
X10945723Y11150295D01*
X10942929Y11147450D01*
X10939221Y11145926D01*
X10935258Y11145926D01*
X10931550Y11147450D01*
X10928756Y11150295D01*
X10927283Y11153952D01*
X10925048Y11165484D01*
X10920577Y11179302D01*
X10914380Y11192459D01*
X10906556Y11204752D01*
X10897311Y11215979D01*
X10886694Y11225936D01*
X10874908Y11234521D01*
X10862157Y11241532D01*
X10848594Y11246866D01*
X10834522Y11250523D01*
X10820044Y11252352D01*
X10805515Y11252352D01*
X10791037Y11250523D01*
X10776966Y11246866D01*
X10763402Y11241532D01*
X10750651Y11234521D01*
X10738866Y11225936D01*
X10728248Y11215979D01*
X10719003Y11204752D01*
X10711180Y11192459D01*
X10704982Y11179302D01*
X10700512Y11165484D01*
X10697768Y11151158D01*
X10696854Y11136630D01*
X10697768Y11122101D01*
X10700512Y11107775D01*
X10704982Y11093958D01*
X10711180Y11080800D01*
X10719003Y11068507D01*
X10728248Y11057280D01*
X10738866Y11047323D01*
X10750651Y11038738D01*
X10763402Y11031728D01*
X10776966Y11026394D01*
X10791037Y11022736D01*
G37*
G36*
X2247900Y11451132D02*
G01*
X2261717Y11451996D01*
X2275332Y11454739D01*
X2288438Y11459159D01*
X2300833Y11465306D01*
X2312365Y11472976D01*
X2322779Y11482120D01*
X2331923Y11492534D01*
X2339594Y11504066D01*
X2345740Y11516461D01*
X2350211Y11529568D01*
X2352903Y11543182D01*
X2353818Y11557000D01*
X2352903Y11570817D01*
X2350211Y11584381D01*
X2345740Y11597538D01*
X2339594Y11609933D01*
X2331923Y11621465D01*
X2322779Y11631879D01*
X2312365Y11641023D01*
X2300833Y11648694D01*
X2288438Y11654840D01*
X2275332Y11659260D01*
X2261717Y11661952D01*
X2247900Y11662867D01*
X2234082Y11661952D01*
X2220518Y11659260D01*
X2207412Y11654840D01*
X2194966Y11648694D01*
X2183434Y11641023D01*
X2173020Y11631879D01*
X2163927Y11621465D01*
X2156206Y11609933D01*
X2150110Y11597538D01*
X2145639Y11584381D01*
X2142947Y11570817D01*
X2142032Y11557000D01*
X2142947Y11543182D01*
X2145639Y11529568D01*
X2150110Y11516461D01*
X2156206Y11504066D01*
X2163927Y11492534D01*
X2173020Y11482120D01*
X2183434Y11472976D01*
X2194966Y11465306D01*
X2207412Y11459159D01*
X2220518Y11454739D01*
X2234082Y11451996D01*
G37*
G36*
X4025900Y11451132D02*
G01*
X4039717Y11451996D01*
X4053332Y11454739D01*
X4066438Y11459159D01*
X4078833Y11465306D01*
X4090365Y11472976D01*
X4100779Y11482120D01*
X4109923Y11492534D01*
X4117594Y11504066D01*
X4123740Y11516461D01*
X4128211Y11529568D01*
X4130903Y11543182D01*
X4131818Y11557000D01*
X4130903Y11570817D01*
X4128211Y11584381D01*
X4123740Y11597538D01*
X4117594Y11609933D01*
X4109923Y11621465D01*
X4100779Y11631879D01*
X4090365Y11641023D01*
X4078833Y11648694D01*
X4066438Y11654840D01*
X4053332Y11659260D01*
X4039717Y11661952D01*
X4025900Y11662867D01*
X4012082Y11661952D01*
X3998518Y11659260D01*
X3985412Y11654840D01*
X3972966Y11648694D01*
X3961434Y11641023D01*
X3951020Y11631879D01*
X3941927Y11621465D01*
X3934206Y11609933D01*
X3928059Y11597538D01*
X3923639Y11584381D01*
X3920947Y11570817D01*
X3920032Y11557000D01*
X3920947Y11543182D01*
X3923639Y11529568D01*
X3928059Y11516461D01*
X3934206Y11504066D01*
X3941927Y11492534D01*
X3951020Y11482120D01*
X3961434Y11472976D01*
X3972966Y11465306D01*
X3985412Y11459159D01*
X3998518Y11454739D01*
X4012082Y11451996D01*
G37*
G36*
X2501900Y11451132D02*
G01*
X2515717Y11451996D01*
X2529332Y11454739D01*
X2542438Y11459159D01*
X2554833Y11465306D01*
X2566365Y11472976D01*
X2576779Y11482120D01*
X2585923Y11492534D01*
X2593594Y11504066D01*
X2599740Y11516461D01*
X2604211Y11529568D01*
X2606903Y11543182D01*
X2607818Y11557000D01*
X2606903Y11570817D01*
X2604211Y11584381D01*
X2599740Y11597538D01*
X2593594Y11609933D01*
X2585923Y11621465D01*
X2576779Y11631879D01*
X2566365Y11641023D01*
X2554833Y11648694D01*
X2542438Y11654840D01*
X2529332Y11659260D01*
X2515717Y11661952D01*
X2501900Y11662867D01*
X2488082Y11661952D01*
X2474518Y11659260D01*
X2461412Y11654840D01*
X2448966Y11648694D01*
X2437434Y11641023D01*
X2427020Y11631879D01*
X2417927Y11621465D01*
X2410206Y11609933D01*
X2404110Y11597538D01*
X2399639Y11584381D01*
X2396947Y11570817D01*
X2396032Y11557000D01*
X2396947Y11543182D01*
X2399639Y11529568D01*
X2404110Y11516461D01*
X2410206Y11504066D01*
X2417927Y11492534D01*
X2427020Y11482120D01*
X2437434Y11472976D01*
X2448966Y11465306D01*
X2461412Y11459159D01*
X2474518Y11454739D01*
X2488082Y11451996D01*
G37*
G36*
X3771900Y11451132D02*
G01*
X3785717Y11451996D01*
X3799332Y11454739D01*
X3812438Y11459159D01*
X3824833Y11465306D01*
X3836365Y11472976D01*
X3846779Y11482120D01*
X3855923Y11492534D01*
X3863594Y11504066D01*
X3869740Y11516461D01*
X3874211Y11529568D01*
X3876903Y11543182D01*
X3877818Y11557000D01*
X3876903Y11570817D01*
X3874211Y11584381D01*
X3869740Y11597538D01*
X3863594Y11609933D01*
X3855923Y11621465D01*
X3846779Y11631879D01*
X3836365Y11641023D01*
X3824833Y11648694D01*
X3812438Y11654840D01*
X3799332Y11659260D01*
X3785717Y11661952D01*
X3771900Y11662867D01*
X3758082Y11661952D01*
X3744518Y11659260D01*
X3731412Y11654840D01*
X3718966Y11648694D01*
X3707434Y11641023D01*
X3697020Y11631879D01*
X3687927Y11621465D01*
X3680206Y11609933D01*
X3674059Y11597538D01*
X3669639Y11584381D01*
X3666947Y11570817D01*
X3666032Y11557000D01*
X3666947Y11543182D01*
X3669639Y11529568D01*
X3674059Y11516461D01*
X3680206Y11504066D01*
X3687927Y11492534D01*
X3697020Y11482120D01*
X3707434Y11472976D01*
X3718966Y11465306D01*
X3731412Y11459159D01*
X3744518Y11454739D01*
X3758082Y11451996D01*
G37*
G36*
X3263900Y11451132D02*
G01*
X3277717Y11451996D01*
X3291332Y11454739D01*
X3304438Y11459159D01*
X3316833Y11465306D01*
X3328365Y11472976D01*
X3338779Y11482120D01*
X3347923Y11492534D01*
X3355594Y11504066D01*
X3361740Y11516461D01*
X3366211Y11529568D01*
X3368903Y11543182D01*
X3369818Y11557000D01*
X3368903Y11570817D01*
X3366211Y11584381D01*
X3361740Y11597538D01*
X3355594Y11609933D01*
X3347923Y11621465D01*
X3338779Y11631879D01*
X3328365Y11641023D01*
X3316833Y11648694D01*
X3304438Y11654840D01*
X3291332Y11659260D01*
X3277717Y11661952D01*
X3263900Y11662867D01*
X3250082Y11661952D01*
X3236518Y11659260D01*
X3223412Y11654840D01*
X3210966Y11648694D01*
X3199434Y11641023D01*
X3189020Y11631879D01*
X3179927Y11621465D01*
X3172206Y11609933D01*
X3166110Y11597538D01*
X3161639Y11584381D01*
X3158947Y11570817D01*
X3158032Y11557000D01*
X3158947Y11543182D01*
X3161639Y11529568D01*
X3166110Y11516461D01*
X3172206Y11504066D01*
X3179927Y11492534D01*
X3189020Y11482120D01*
X3199434Y11472976D01*
X3210966Y11465306D01*
X3223412Y11459159D01*
X3236518Y11454739D01*
X3250082Y11451996D01*
G37*
G36*
X3009900Y11451132D02*
G01*
X3023717Y11451996D01*
X3037332Y11454739D01*
X3050438Y11459159D01*
X3062833Y11465306D01*
X3074365Y11472976D01*
X3084779Y11482120D01*
X3093923Y11492534D01*
X3101594Y11504066D01*
X3107740Y11516461D01*
X3112211Y11529568D01*
X3114903Y11543182D01*
X3115818Y11557000D01*
X3114903Y11570817D01*
X3112211Y11584381D01*
X3107740Y11597538D01*
X3101594Y11609933D01*
X3093923Y11621465D01*
X3084779Y11631879D01*
X3074365Y11641023D01*
X3062833Y11648694D01*
X3050438Y11654840D01*
X3037332Y11659260D01*
X3023717Y11661952D01*
X3009900Y11662867D01*
X2996082Y11661952D01*
X2982518Y11659260D01*
X2969412Y11654840D01*
X2956966Y11648694D01*
X2945434Y11641023D01*
X2935020Y11631879D01*
X2925927Y11621465D01*
X2918206Y11609933D01*
X2912110Y11597538D01*
X2907639Y11584381D01*
X2904947Y11570817D01*
X2904032Y11557000D01*
X2904947Y11543182D01*
X2907639Y11529568D01*
X2912110Y11516461D01*
X2918206Y11504066D01*
X2925927Y11492534D01*
X2935020Y11482120D01*
X2945434Y11472976D01*
X2956966Y11465306D01*
X2969412Y11459159D01*
X2982518Y11454739D01*
X2996082Y11451996D01*
G37*
G36*
X2755900Y11451132D02*
G01*
X2769717Y11451996D01*
X2783332Y11454739D01*
X2796438Y11459159D01*
X2808833Y11465306D01*
X2820365Y11472976D01*
X2830779Y11482120D01*
X2839923Y11492534D01*
X2847594Y11504066D01*
X2853740Y11516461D01*
X2858211Y11529568D01*
X2860903Y11543182D01*
X2861818Y11557000D01*
X2860903Y11570817D01*
X2858211Y11584381D01*
X2853740Y11597538D01*
X2847594Y11609933D01*
X2839923Y11621465D01*
X2830779Y11631879D01*
X2820365Y11641023D01*
X2808833Y11648694D01*
X2796438Y11654840D01*
X2783332Y11659260D01*
X2769717Y11661952D01*
X2755900Y11662867D01*
X2742082Y11661952D01*
X2728518Y11659260D01*
X2715412Y11654840D01*
X2702966Y11648694D01*
X2691434Y11641023D01*
X2681020Y11631879D01*
X2671927Y11621465D01*
X2664206Y11609933D01*
X2658110Y11597538D01*
X2653639Y11584381D01*
X2650947Y11570817D01*
X2650032Y11557000D01*
X2650947Y11543182D01*
X2653639Y11529568D01*
X2658110Y11516461D01*
X2664206Y11504066D01*
X2671927Y11492534D01*
X2681020Y11482120D01*
X2691434Y11472976D01*
X2702966Y11465306D01*
X2715412Y11459159D01*
X2728518Y11454739D01*
X2742082Y11451996D01*
G37*
G36*
X3517900Y11451132D02*
G01*
X3531717Y11451996D01*
X3545332Y11454739D01*
X3558438Y11459159D01*
X3570833Y11465306D01*
X3582365Y11472976D01*
X3592779Y11482120D01*
X3601923Y11492534D01*
X3609594Y11504066D01*
X3615740Y11516461D01*
X3620211Y11529568D01*
X3622903Y11543182D01*
X3623818Y11557000D01*
X3622903Y11570817D01*
X3620211Y11584381D01*
X3615740Y11597538D01*
X3609594Y11609933D01*
X3601923Y11621465D01*
X3592779Y11631879D01*
X3582365Y11641023D01*
X3570833Y11648694D01*
X3558438Y11654840D01*
X3545332Y11659260D01*
X3531717Y11661952D01*
X3517900Y11662867D01*
X3504082Y11661952D01*
X3490518Y11659260D01*
X3477412Y11654840D01*
X3464966Y11648694D01*
X3453434Y11641023D01*
X3443020Y11631879D01*
X3433927Y11621465D01*
X3426206Y11609933D01*
X3420059Y11597538D01*
X3415639Y11584381D01*
X3412947Y11570817D01*
X3412032Y11557000D01*
X3412947Y11543182D01*
X3415639Y11529568D01*
X3420059Y11516461D01*
X3426206Y11504066D01*
X3433927Y11492534D01*
X3443020Y11482120D01*
X3453434Y11472976D01*
X3464966Y11465306D01*
X3477412Y11459159D01*
X3490518Y11454739D01*
X3504082Y11451996D01*
G37*
G36*
X1228496Y11454993D02*
G01*
X1242110Y11455450D01*
X1255572Y11457686D01*
X1268577Y11461750D01*
X1280972Y11467490D01*
X1292453Y11474805D01*
X1302867Y11483594D01*
X1312011Y11493754D01*
X1319733Y11504980D01*
X1325880Y11517122D01*
X1330350Y11530025D01*
X1333093Y11543385D01*
X1334008Y11557000D01*
X1333093Y11570614D01*
X1330350Y11583974D01*
X1325880Y11596878D01*
X1319733Y11609019D01*
X1312011Y11620246D01*
X1302867Y11630406D01*
X1292453Y11639194D01*
X1280972Y11646509D01*
X1268577Y11652250D01*
X1255572Y11656314D01*
X1242110Y11658549D01*
X1228496Y11659006D01*
X1214932Y11657685D01*
X1201674Y11654485D01*
X1188923Y11649608D01*
X1176985Y11643055D01*
X1166012Y11634978D01*
X1156208Y11625478D01*
X1147724Y11614759D01*
X1140815Y11603024D01*
X1135481Y11590477D01*
X1131874Y11577320D01*
X1130046Y11563807D01*
X1130046Y11550192D01*
X1131874Y11536680D01*
X1135481Y11523522D01*
X1140815Y11510975D01*
X1147724Y11499240D01*
X1156208Y11488521D01*
X1166012Y11479022D01*
X1176985Y11470944D01*
X1188923Y11464391D01*
X1201674Y11459514D01*
X1214932Y11456314D01*
G37*
G36*
X11587327Y11680037D02*
G01*
X11786057Y11680037D01*
X11792407Y11680799D01*
X11797842Y11682679D01*
X11802770Y11685778D01*
X11806834Y11689842D01*
X11809933Y11694769D01*
X11811863Y11700205D01*
X11812574Y11706555D01*
X11812574Y12065304D01*
X11811863Y12071654D01*
X11809933Y12077090D01*
X11806834Y12082018D01*
X11802770Y12086082D01*
X11797842Y12089180D01*
X11792407Y12091060D01*
X11786057Y12091771D01*
X11587327Y12091771D01*
X11580977Y12091060D01*
X11575542Y12089180D01*
X11570614Y12086082D01*
X11566550Y12082018D01*
X11563451Y12077090D01*
X11561572Y12071654D01*
X11560860Y12065304D01*
X11560860Y11706555D01*
X11561572Y11700205D01*
X11563451Y11694769D01*
X11566550Y11689842D01*
X11570614Y11685778D01*
X11575542Y11682679D01*
X11580977Y11680799D01*
G37*
G36*
X10337342Y11680037D02*
G01*
X10536072Y11680037D01*
X10542422Y11680799D01*
X10547858Y11682679D01*
X10552785Y11685778D01*
X10556849Y11689842D01*
X10559948Y11694769D01*
X10561828Y11700205D01*
X10562539Y11706555D01*
X10562539Y12065304D01*
X10561828Y12071654D01*
X10559948Y12077090D01*
X10556849Y12082018D01*
X10552785Y12086082D01*
X10547858Y12089180D01*
X10542422Y12091060D01*
X10536072Y12091771D01*
X10337342Y12091771D01*
X10330992Y12091060D01*
X10325557Y12089180D01*
X10320629Y12086082D01*
X10316565Y12082018D01*
X10313466Y12077090D01*
X10311536Y12071654D01*
X10310825Y12065304D01*
X10310825Y11706555D01*
X10311536Y11700205D01*
X10313466Y11694769D01*
X10316565Y11689842D01*
X10320629Y11685778D01*
X10325557Y11682679D01*
X10330992Y11680799D01*
G37*
G36*
X11303355Y12471247D02*
G01*
X11317884Y12471247D01*
X11332362Y12473076D01*
X11346434Y12476734D01*
X11359997Y12482068D01*
X11372748Y12489078D01*
X11384534Y12497663D01*
X11395151Y12507620D01*
X11404396Y12518847D01*
X11412220Y12531140D01*
X11418417Y12544298D01*
X11422888Y12558115D01*
X11425631Y12572441D01*
X11426545Y12586970D01*
X11425631Y12601498D01*
X11422888Y12615824D01*
X11418417Y12629642D01*
X11412220Y12642799D01*
X11404396Y12655092D01*
X11395151Y12666319D01*
X11384534Y12676276D01*
X11372748Y12684861D01*
X11359997Y12691872D01*
X11346434Y12697206D01*
X11332362Y12700863D01*
X11317884Y12702692D01*
X11303355Y12702692D01*
X11288877Y12700863D01*
X11274806Y12697206D01*
X11261242Y12691872D01*
X11248491Y12684861D01*
X11236706Y12676276D01*
X11226088Y12666319D01*
X11216843Y12655092D01*
X11209020Y12642799D01*
X11202822Y12629642D01*
X11198352Y12615824D01*
X11195608Y12601498D01*
X11194694Y12586970D01*
X11195608Y12572441D01*
X11198352Y12558115D01*
X11202822Y12544298D01*
X11209020Y12531140D01*
X11216843Y12518847D01*
X11226088Y12507620D01*
X11236706Y12497663D01*
X11248491Y12489078D01*
X11261242Y12482068D01*
X11274806Y12476734D01*
X11288877Y12473076D01*
G37*
G36*
X10805515Y12471247D02*
G01*
X10820044Y12471247D01*
X10834522Y12473076D01*
X10848594Y12476734D01*
X10862157Y12482068D01*
X10874908Y12489078D01*
X10886694Y12497663D01*
X10897311Y12507620D01*
X10906556Y12518847D01*
X10914380Y12531140D01*
X10920577Y12544298D01*
X10925048Y12558115D01*
X10927791Y12572441D01*
X10928705Y12586970D01*
X10927791Y12601498D01*
X10925048Y12615824D01*
X10920577Y12629642D01*
X10914380Y12642799D01*
X10906556Y12655092D01*
X10897311Y12666319D01*
X10886694Y12676276D01*
X10874908Y12684861D01*
X10862157Y12691872D01*
X10848594Y12697206D01*
X10834522Y12700863D01*
X10820044Y12702692D01*
X10805515Y12702692D01*
X10791037Y12700863D01*
X10776966Y12697206D01*
X10763402Y12691872D01*
X10750651Y12684861D01*
X10738866Y12676276D01*
X10728248Y12666319D01*
X10719003Y12655092D01*
X10711180Y12642799D01*
X10704982Y12629642D01*
X10700512Y12615824D01*
X10697768Y12601498D01*
X10696854Y12586970D01*
X10697768Y12572441D01*
X10700512Y12558115D01*
X10704982Y12544298D01*
X10711180Y12531140D01*
X10719003Y12518847D01*
X10728248Y12507620D01*
X10738866Y12497663D01*
X10750651Y12489078D01*
X10763402Y12482068D01*
X10776966Y12476734D01*
X10791037Y12473076D01*
G37*
G36*
X6643878Y12481712D02*
G01*
X6792722Y12481712D01*
X6799072Y12482423D01*
X6804507Y12484303D01*
X6809435Y12487402D01*
X6813499Y12491466D01*
X6816598Y12496393D01*
X6818477Y12501829D01*
X6819188Y12508179D01*
X6819188Y12657023D01*
X6818477Y12663373D01*
X6816598Y12668808D01*
X6813499Y12673736D01*
X6809435Y12677800D01*
X6804507Y12680899D01*
X6799072Y12682778D01*
X6792722Y12683490D01*
X6643878Y12683490D01*
X6637528Y12682778D01*
X6632092Y12680899D01*
X6627164Y12677800D01*
X6623100Y12673736D01*
X6620002Y12668808D01*
X6618122Y12663373D01*
X6617411Y12657023D01*
X6617411Y12508179D01*
X6618122Y12501829D01*
X6620002Y12496393D01*
X6623100Y12491466D01*
X6627164Y12487402D01*
X6632092Y12484303D01*
X6637528Y12482423D01*
G37*
G36*
X6213652Y12481763D02*
G01*
X6227064Y12483134D01*
X6240170Y12486233D01*
X6252768Y12491110D01*
X6264605Y12497562D01*
X6275425Y12505537D01*
X6285128Y12514935D01*
X6293459Y12525502D01*
X6300317Y12537084D01*
X6305600Y12549530D01*
X6309156Y12562484D01*
X6310934Y12575844D01*
X6310934Y12589357D01*
X6309156Y12602718D01*
X6305600Y12615672D01*
X6300317Y12628118D01*
X6293459Y12639700D01*
X6285128Y12650266D01*
X6275425Y12659664D01*
X6264605Y12667640D01*
X6252768Y12674092D01*
X6240170Y12678968D01*
X6227064Y12682067D01*
X6213652Y12683439D01*
X6200190Y12682982D01*
X6186932Y12680746D01*
X6174028Y12676733D01*
X6161836Y12671094D01*
X6150457Y12663830D01*
X6140145Y12655143D01*
X6131102Y12645136D01*
X6123482Y12634010D01*
X6117437Y12621971D01*
X6113018Y12609271D01*
X6110325Y12596063D01*
X6109411Y12582601D01*
X6110325Y12569139D01*
X6113018Y12555931D01*
X6117437Y12543231D01*
X6123482Y12531191D01*
X6131102Y12520066D01*
X6140145Y12510058D01*
X6150457Y12501372D01*
X6161836Y12494107D01*
X6174028Y12488468D01*
X6186932Y12484455D01*
X6200190Y12482220D01*
G37*
G36*
X3673652Y12481763D02*
G01*
X3687064Y12483134D01*
X3700170Y12486233D01*
X3712768Y12491110D01*
X3724605Y12497562D01*
X3735425Y12505537D01*
X3745128Y12514935D01*
X3753459Y12525502D01*
X3760317Y12537084D01*
X3765600Y12549530D01*
X3769156Y12562484D01*
X3770934Y12575844D01*
X3770934Y12589357D01*
X3769156Y12602718D01*
X3765600Y12615672D01*
X3760317Y12628118D01*
X3753459Y12639700D01*
X3745128Y12650266D01*
X3735425Y12659664D01*
X3724605Y12667640D01*
X3712768Y12674092D01*
X3700170Y12678968D01*
X3687064Y12682067D01*
X3673652Y12683439D01*
X3660190Y12682982D01*
X3646932Y12680746D01*
X3634028Y12676733D01*
X3621836Y12671094D01*
X3610457Y12663830D01*
X3600145Y12655143D01*
X3591102Y12645136D01*
X3583482Y12634010D01*
X3577437Y12621971D01*
X3573018Y12609271D01*
X3570325Y12596063D01*
X3569411Y12582601D01*
X3570325Y12569139D01*
X3573018Y12555931D01*
X3577437Y12543231D01*
X3583482Y12531191D01*
X3591102Y12520066D01*
X3600145Y12510058D01*
X3610457Y12501372D01*
X3621836Y12494107D01*
X3634028Y12488468D01*
X3646932Y12484455D01*
X3660190Y12482220D01*
G37*
G36*
X6000140Y12491872D02*
G01*
X6010605Y12497562D01*
X6021425Y12505537D01*
X6031128Y12514935D01*
X6039459Y12525502D01*
X6046317Y12537084D01*
X6047028Y12538760D01*
X6000140Y12538760D01*
G37*
G36*
X6000140Y12626441D02*
G01*
X6047028Y12626441D01*
X6046317Y12628118D01*
X6039459Y12639700D01*
X6031128Y12650266D01*
X6021425Y12659664D01*
X6010605Y12667640D01*
X6000140Y12673330D01*
G37*
G36*
X12090400Y12663017D02*
G01*
X12105589Y12663932D01*
X12120524Y12666675D01*
X12135053Y12671196D01*
X12148921Y12677444D01*
X12161926Y12685318D01*
X12173864Y12694666D01*
X12184634Y12705435D01*
X12193981Y12717373D01*
X12201855Y12730378D01*
X12208103Y12744246D01*
X12212624Y12758775D01*
X12215368Y12773710D01*
X12216282Y12788900D01*
X12215368Y12804089D01*
X12212624Y12819024D01*
X12208103Y12833553D01*
X12201855Y12847421D01*
X12193981Y12860426D01*
X12184634Y12872364D01*
X12173864Y12883134D01*
X12161926Y12892481D01*
X12148921Y12900355D01*
X12135053Y12906603D01*
X12120524Y12911124D01*
X12105589Y12913868D01*
X12090400Y12914782D01*
X12075210Y12913868D01*
X12060275Y12911124D01*
X12045746Y12906603D01*
X12031878Y12900355D01*
X12018873Y12892481D01*
X12006935Y12883134D01*
X11996166Y12872364D01*
X11986818Y12860426D01*
X11978944Y12847421D01*
X11972696Y12833553D01*
X11968175Y12819024D01*
X11965432Y12804089D01*
X11964517Y12788900D01*
X11965432Y12773710D01*
X11968175Y12758775D01*
X11972696Y12744246D01*
X11978944Y12730378D01*
X11986818Y12717373D01*
X11996166Y12705435D01*
X12006935Y12694666D01*
X12018873Y12685318D01*
X12031878Y12677444D01*
X12045746Y12671196D01*
X12060275Y12666675D01*
X12075210Y12663932D01*
G37*
G36*
X10007600Y12663017D02*
G01*
X10022789Y12663932D01*
X10037724Y12666675D01*
X10052253Y12671196D01*
X10066121Y12677444D01*
X10079126Y12685318D01*
X10091064Y12694666D01*
X10101834Y12705435D01*
X10111181Y12717373D01*
X10119055Y12730378D01*
X10125303Y12744246D01*
X10129824Y12758775D01*
X10132568Y12773710D01*
X10133482Y12788900D01*
X10132568Y12804089D01*
X10129824Y12819024D01*
X10125303Y12833553D01*
X10119055Y12847421D01*
X10111181Y12860426D01*
X10101834Y12872364D01*
X10091064Y12883134D01*
X10079126Y12892481D01*
X10066121Y12900355D01*
X10052253Y12906603D01*
X10037724Y12911124D01*
X10022789Y12913868D01*
X10007600Y12914782D01*
X9992410Y12913868D01*
X9977475Y12911124D01*
X9962946Y12906603D01*
X9949078Y12900355D01*
X9936073Y12892481D01*
X9924135Y12883134D01*
X9913366Y12872364D01*
X9904018Y12860426D01*
X9896144Y12847421D01*
X9889896Y12833553D01*
X9885375Y12819024D01*
X9882632Y12804089D01*
X9881717Y12788900D01*
X9882632Y12773710D01*
X9885375Y12758775D01*
X9889896Y12744246D01*
X9896144Y12730378D01*
X9904018Y12717373D01*
X9913366Y12705435D01*
X9924135Y12694666D01*
X9936073Y12685318D01*
X9949078Y12677444D01*
X9962946Y12671196D01*
X9977475Y12666675D01*
X9992410Y12663932D01*
G37*

%LPD*%
G36*
X5458104Y12217400D02*
G01*
X5454192Y12218162D01*
X5450890Y12220397D01*
X5448706Y12223648D01*
X5447944Y12227560D01*
X5447944Y12472212D01*
X5448604Y12475870D01*
X5450535Y12479020D01*
X5453532Y12481255D01*
X5457088Y12482322D01*
X5465064Y12483134D01*
X5478170Y12486233D01*
X5490768Y12491110D01*
X5502605Y12497562D01*
X5513425Y12505537D01*
X5523128Y12514935D01*
X5531459Y12525502D01*
X5538317Y12537084D01*
X5543600Y12549530D01*
X5547156Y12562484D01*
X5548934Y12575844D01*
X5548934Y12589357D01*
X5547156Y12602718D01*
X5543600Y12615672D01*
X5538317Y12628118D01*
X5531459Y12639700D01*
X5523128Y12650266D01*
X5513425Y12659664D01*
X5502605Y12667640D01*
X5490768Y12674092D01*
X5478170Y12678968D01*
X5465064Y12682067D01*
X5451652Y12683439D01*
X5438190Y12682982D01*
X5424932Y12680746D01*
X5412028Y12676733D01*
X5399836Y12671094D01*
X5388457Y12663830D01*
X5378145Y12655143D01*
X5369102Y12645136D01*
X5361482Y12634010D01*
X5355437Y12621971D01*
X5351018Y12609322D01*
X5348935Y12605816D01*
X5345633Y12603429D01*
X5341670Y12602514D01*
X5337657Y12603226D01*
X5334254Y12605461D01*
X5153710Y12786004D01*
X5151475Y12789306D01*
X5150713Y12793218D01*
X5151475Y12797078D01*
X5153710Y12800380D01*
X5156962Y12802565D01*
X5160873Y12803378D01*
X5577281Y12803378D01*
X5581142Y12802565D01*
X5584444Y12800380D01*
X5743194Y12641681D01*
X5745378Y12638379D01*
X5746140Y12634468D01*
X5746140Y12626441D01*
X5754166Y12626441D01*
X5758078Y12625679D01*
X5761380Y12623495D01*
X5771286Y12613589D01*
X5773470Y12610287D01*
X5774232Y12606375D01*
X5774232Y12548920D01*
X5773470Y12545009D01*
X5771286Y12541707D01*
X5767984Y12539522D01*
X5764072Y12538760D01*
X5746140Y12538760D01*
X5746140Y12491872D01*
X5756605Y12497562D01*
X5758078Y12498628D01*
X5762142Y12500457D01*
X5766562Y12500305D01*
X5770524Y12498324D01*
X5773267Y12494818D01*
X5774232Y12490450D01*
X5774232Y12227560D01*
X5773470Y12223648D01*
X5771286Y12220397D01*
X5767984Y12218162D01*
X5764072Y12217400D01*
G37*

%LPC*%
G36*
X5658459Y12491974D02*
G01*
X5658459Y12538760D01*
X5611672Y12538760D01*
X5615482Y12531191D01*
X5623102Y12520066D01*
X5632145Y12510058D01*
X5642457Y12501372D01*
X5653836Y12494107D01*
G37*
G36*
X5611672Y12626441D02*
G01*
X5658459Y12626441D01*
X5658459Y12673228D01*
X5653836Y12671094D01*
X5642457Y12663830D01*
X5632145Y12655143D01*
X5623102Y12645136D01*
X5615482Y12634010D01*
G37*

%LPD*%
D10*
X3924300Y12582601D02*
G01*
X4185970Y12844271D01*
X5598413Y12844271D01*
X5815152Y12627533D01*
X5815152Y11909882D01*
X5676900Y11771629D01*
X5676900Y9144000D01*
X5549900Y9017000D01*
X1231925Y9017000D02*
G01*
X1358925Y9144000D01*
X1358925Y11586362D01*
X2666695Y12894132D01*
X5644768Y12894132D01*
X5956300Y12582601D01*
X5343067Y7756601D02*
G01*
X5343067Y7730286D01*
X5211368Y7598587D01*
X3158337Y7598587D01*
X1739925Y9017000D01*
X5448300Y7756601D02*
G01*
X5343067Y7756601D01*
X4178300Y7756601D02*
G01*
X4069994Y7648295D01*
X3617137Y7648295D01*
X2882900Y8382533D01*
X2882900Y10414025D01*
X1739925Y11557000D01*
X6108700Y7756601D02*
G01*
X5901690Y7549591D01*
X3048711Y7549591D01*
X1630324Y8967978D01*
X1630324Y11618315D01*
X1679397Y11667388D01*
X1883537Y11667388D01*
X1993925Y11557000D01*
X5477078Y10372089D02*
G01*
X5477078Y9133967D01*
X5436438Y9093327D01*
X5436438Y8174862D01*
X5854700Y7756601D01*
X10562386Y10045700D02*
G01*
X9051086Y11557000D01*
X6565671Y11557000D01*
X10668000Y10045700D02*
G01*
X10562386Y10045700D01*
X4940300Y12477369D02*
G01*
X4406950Y11944019D01*
X4406950Y10414050D01*
X3009900Y9017000D01*
X4940300Y12582601D02*
G01*
X4940300Y12477369D01*
X4686300Y12582601D02*
G01*
X4791709Y12688011D01*
X5036947Y12688011D01*
X5060289Y12664668D01*
X5060289Y11750903D01*
X4914900Y11605513D01*
X4914900Y10160000D01*
X3771900Y9017000D01*
X4432300Y7756601D02*
G01*
X4432300Y8610600D01*
X4025900Y9017000D01*
X4686300Y7756601D02*
G01*
X4686300Y8610600D01*
X4279900Y9017000D01*
X4940300Y7756601D02*
G01*
X4940300Y8610600D01*
X4533900Y9017000D01*
X5194300Y7756601D02*
G01*
X5194300Y8610600D01*
X4787900Y9017000D01*
X4432300Y12582601D02*
G01*
X4593463Y12743764D01*
X5068214Y12743764D01*
X5156174Y12655804D01*
X5156174Y9131274D01*
X5041900Y9017000D01*
X4178300Y12582601D02*
G01*
X4389907Y12794208D01*
X5087645Y12794208D01*
X5407025Y12474829D01*
X5407025Y9128125D01*
X5295900Y9017000D01*
X6464300Y12582601D02*
G01*
X6438798Y12557099D01*
X6438798Y9143898D01*
X6311900Y9017000D01*
D11*
G01*
X10812779Y11136629D03*
G01*
X11061700Y11136629D03*
G01*
X11310620Y11136629D03*
G01*
X11310620Y12586970D03*
G01*
X10812779Y12586970D03*
D12*
G01*
X10436707Y11885929D03*
G01*
X11686692Y11885929D03*
D13*
G01*
X6565900Y9017000D03*
G01*
X6311900Y9017000D03*
G01*
X6057900Y9017000D03*
G01*
X5803900Y9017000D03*
G01*
X5549900Y9017000D03*
G01*
X5295900Y9017000D03*
G01*
X5041900Y9017000D03*
G01*
X4787900Y9017000D03*
G01*
X4533900Y9017000D03*
G01*
X4279900Y9017000D03*
G01*
X4025900Y9017000D03*
G01*
X3771900Y9017000D03*
G01*
X3517900Y9017000D03*
G01*
X3263900Y9017000D03*
G01*
X3009900Y9017000D03*
G01*
X2755900Y9017000D03*
G01*
X2501900Y9017000D03*
G01*
X2247900Y9017000D03*
G01*
X1993925Y9017000D03*
G01*
X6565671Y11557000D03*
G01*
X6311900Y11557000D03*
G01*
X6057900Y11557000D03*
G01*
X5803900Y11557000D03*
G01*
X5549900Y11557000D03*
G01*
X5295900Y11557000D03*
G01*
X5041900Y11557000D03*
G01*
X4787900Y11557000D03*
G01*
X4533900Y11557000D03*
G01*
X4279900Y11557000D03*
G01*
X4025900Y11557000D03*
G01*
X3771900Y11557000D03*
G01*
X3517900Y11557000D03*
G01*
X3263900Y11557000D03*
G01*
X3009900Y11557000D03*
G01*
X2755900Y11557000D03*
G01*
X2501900Y11557000D03*
G01*
X2247900Y11557000D03*
G01*
X1993925Y11557000D03*
D14*
G01*
X1739925Y11557000D03*
G01*
X1485925Y11557000D03*
G01*
X1231925Y11557000D03*
G01*
X1739925Y9017000D03*
G01*
X1485925Y9017000D03*
G01*
X1231925Y9017000D03*
D15*
G01*
X10668000Y10045700D03*
D16*
G01*
X10922000Y10045700D03*
G01*
X11176000Y10045700D03*
G01*
X11430000Y10045700D03*
D17*
G01*
X7632700Y7756601D03*
D18*
G01*
X7378700Y7756601D03*
G01*
X7124700Y7756601D03*
G01*
X6870700Y7756601D03*
G01*
X6616700Y7756601D03*
G01*
X6362700Y7756601D03*
G01*
X6108700Y7756601D03*
G01*
X5854700Y7756601D03*
D17*
G01*
X5448300Y7756601D03*
D18*
G01*
X5194300Y7756601D03*
G01*
X4940300Y7756601D03*
G01*
X4686300Y7756601D03*
G01*
X4432300Y7756601D03*
G01*
X4178300Y7756601D03*
G01*
X3924300Y7756601D03*
G01*
X3670300Y7756601D03*
G01*
X3670300Y12582601D03*
G01*
X3924300Y12582601D03*
G01*
X4178300Y12582601D03*
G01*
X4432300Y12582601D03*
G01*
X4686300Y12582601D03*
D17*
G01*
X4940300Y12582601D03*
D18*
G01*
X5448300Y12582601D03*
G01*
X5702300Y12582601D03*
G01*
X5956300Y12582601D03*
G01*
X6210300Y12582601D03*
G01*
X6464300Y12582601D03*
D17*
G01*
X6718300Y12582601D03*
D19*
G01*
X5477078Y10372089D03*
M02*
