G04 Layer: TopSolderMaskLayer*
G04 EasyEDA v6.5.44, 2024-08-14 14:30:52*
G04 080bb0d1436b4706b040d70de8f1a738,10*
G04 Gerber Generator version 0.2*
G04 Scale: 100 percent, Rotated: No, Reflected: No *
G04 Dimensions in millimeters *
G04 leading zeros omitted , absolute positions ,4 integer and 5 decimal *
%FSLAX45Y45*%
%MOMM*%

%AMMACRO1*4,1,8,-0.7751,-0.8048,-0.8048,-0.7748,-0.8048,0.7751,-0.7751,0.8048,0.7748,0.8048,0.8048,0.7751,0.8048,-0.7748,0.7748,-0.8048,-0.7751,-0.8048,0*%
%AMMACRO2*4,1,8,-0.7711,-0.8009,-0.8009,-0.7709,-0.8009,0.7711,-0.7711,0.8009,0.7709,0.8009,0.8009,0.7711,0.8009,-0.7709,0.7709,-0.8009,-0.7711,-0.8009,0*%
%AMMACRO3*4,1,8,-1.0417,-1.9012,-1.1011,-1.8415,-1.1011,1.8418,-1.0417,1.9012,1.0414,1.9012,1.1011,1.8418,1.1011,-1.8415,1.0414,-1.9012,-1.0417,-1.9012,0*%
%ADD10MACRO1*%
%ADD11C,1.6096*%
%ADD12MACRO2*%
%ADD13C,1.6016*%
%ADD14C,2.0041*%
%ADD15MACRO3*%
%ADD16C,1.7016*%
%ADD17C,1.6256*%

%LPD*%
D10*
G01*
X10668012Y10045687D03*
D11*
G01*
X10922000Y10045700D03*
G01*
X11176000Y10045700D03*
G01*
X11430000Y10045700D03*
D12*
G01*
X2654300Y12588798D03*
D13*
G01*
X2908300Y12588798D03*
G01*
X3162300Y12588798D03*
G01*
X3416300Y12588798D03*
G01*
X3670300Y12588798D03*
G01*
X3924300Y12588798D03*
G01*
X4178300Y12588798D03*
G01*
X4432300Y12588798D03*
D12*
G01*
X4838700Y12588798D03*
D13*
G01*
X5092700Y12588798D03*
G01*
X5346700Y12588798D03*
G01*
X5600700Y12588798D03*
G01*
X5854700Y12588798D03*
G01*
X6108700Y12588798D03*
G01*
X6362700Y12588798D03*
G01*
X6616700Y12588798D03*
G01*
X6616700Y7762798D03*
G01*
X6362700Y7762798D03*
G01*
X6108700Y7762798D03*
G01*
X5854700Y7762798D03*
G01*
X5600700Y7762798D03*
D12*
G01*
X5346700Y7762798D03*
D13*
G01*
X4838700Y7762798D03*
G01*
X4584700Y7762798D03*
G01*
X4330700Y7762798D03*
G01*
X4076700Y7762798D03*
G01*
X3822700Y7762798D03*
D12*
G01*
X3568700Y7762798D03*
D14*
G01*
X10812779Y11136629D03*
G01*
X11061700Y11136629D03*
G01*
X11310620Y11136629D03*
G01*
X11310620Y12586970D03*
G01*
X10812779Y12586970D03*
D15*
G01*
X10436707Y11885930D03*
G01*
X11686692Y11885930D03*
D16*
G01*
X6565894Y9017002D03*
G01*
X6311894Y9017002D03*
G01*
X6057894Y9017002D03*
G01*
X5803894Y9017002D03*
G01*
X5549894Y9017002D03*
G01*
X5295894Y9017002D03*
G01*
X5041894Y9017002D03*
G01*
X4787894Y9017002D03*
G01*
X4533894Y9017002D03*
G01*
X4279894Y9017002D03*
G01*
X4025894Y9017002D03*
G01*
X3771894Y9017002D03*
G01*
X3517894Y9017002D03*
G01*
X3263894Y9017002D03*
G01*
X3009894Y9017002D03*
G01*
X2755894Y9017002D03*
G01*
X2501894Y9017002D03*
G01*
X2247894Y9017002D03*
G01*
X1993920Y9017002D03*
G01*
X6565666Y11557002D03*
G01*
X6311894Y11557002D03*
G01*
X6057894Y11557002D03*
G01*
X5803894Y11557002D03*
G01*
X5549894Y11557002D03*
G01*
X5295894Y11557002D03*
G01*
X5041894Y11557002D03*
G01*
X4787894Y11557002D03*
G01*
X4533894Y11557002D03*
G01*
X4279894Y11557002D03*
G01*
X4025894Y11557002D03*
G01*
X3771894Y11557002D03*
G01*
X3517894Y11557002D03*
G01*
X3263894Y11557002D03*
G01*
X3009894Y11557002D03*
G01*
X2755894Y11557002D03*
G01*
X2501894Y11557002D03*
G01*
X2247894Y11557002D03*
G01*
X1993920Y11557002D03*
D17*
G01*
X1739920Y11557002D03*
G01*
X1485920Y11557002D03*
G01*
X1231920Y11557002D03*
G01*
X1739920Y9017002D03*
G01*
X1485920Y9017002D03*
G01*
X1231920Y9017002D03*
M02*
