G04 Layer: TopSilkscreenLayer*
G04 EasyEDA v6.5.44, 2024-08-21 21:21:16*
G04 a079ae6def3d47c492197c10d7659819,080bb0d1436b4706b040d70de8f1a738,10*
G04 Gerber Generator version 0.2*
G04 Scale: 100 percent, Rotated: No, Reflected: No *
G04 Dimensions in millimeters *
G04 leading zeros omitted , absolute positions ,4 integer and 5 decimal *
%FSLAX45Y45*%
%MOMM*%

%ADD10C,0.1500*%
%ADD11C,0.1524*%
%ADD12C,0.2540*%
%ADD13C,0.1270*%

%LPD*%
G36*
X8330946Y11875719D02*
G01*
X8299805Y11875312D01*
X8286038Y11874804D01*
X8271408Y11873839D01*
X8263788Y11873026D01*
X8257387Y11872061D01*
X8252104Y11870893D01*
X8247786Y11869470D01*
X8244281Y11867794D01*
X8241436Y11865762D01*
X8237474Y11861749D01*
X8235645Y11860428D01*
X8233816Y11859564D01*
X8225942Y11858396D01*
X8215833Y11856466D01*
X8202879Y11853672D01*
X8196325Y11847626D01*
X8193074Y11844985D01*
X8188959Y11842394D01*
X8184591Y11840108D01*
X8180425Y11838432D01*
X8171027Y11835333D01*
X8165693Y11823598D01*
X8149285Y11816384D01*
X8144306Y11805005D01*
X8132114Y11801906D01*
X8126984Y11787276D01*
X8114182Y11781434D01*
X8110981Y11774220D01*
X8109305Y11771122D01*
X8107070Y11767820D01*
X8104631Y11764873D01*
X8102193Y11762536D01*
X8096605Y11758015D01*
X8093557Y11744350D01*
X8091830Y11738102D01*
X8089442Y11731040D01*
X8086699Y11724132D01*
X8083905Y11718137D01*
X8077352Y11705590D01*
X8079384Y11673382D01*
X8084820Y11665712D01*
X8087055Y11662003D01*
X8089188Y11657634D01*
X8090966Y11653062D01*
X8094421Y11641023D01*
X8097621Y11634368D01*
X8101177Y11629847D01*
X8104682Y11628170D01*
X8108035Y11628170D01*
X8114588Y11610035D01*
X8126120Y11607139D01*
X8131149Y11595709D01*
X8146999Y11588750D01*
X8151875Y11578082D01*
X8162747Y11573916D01*
X8167420Y11571833D01*
X8172246Y11569242D01*
X8176564Y11566448D01*
X8183118Y11561267D01*
X8187283Y11558828D01*
X8191804Y11556644D01*
X8200745Y11553545D01*
X8205774Y11551208D01*
X8210702Y11548516D01*
X8214868Y11545722D01*
X8223554Y11539118D01*
X8279079Y11534038D01*
X8307070Y11519154D01*
X8319058Y11518950D01*
X8328710Y11518087D01*
X8343138Y11515801D01*
X8348776Y11503507D01*
X8364778Y11499189D01*
X8364118Y11492941D01*
X8363051Y11486489D01*
X8360918Y11482222D01*
X8356752Y11478920D01*
X8349589Y11475466D01*
X8337956Y11470284D01*
X8333689Y11463832D01*
X8331453Y11461089D01*
X8328456Y11458346D01*
X8325103Y11455958D01*
X8321802Y11454180D01*
X8314181Y11451031D01*
X8311083Y11440312D01*
X8309356Y11435537D01*
X8307070Y11430508D01*
X8304377Y11425732D01*
X8301736Y11421973D01*
X8295487Y11414302D01*
X8297265Y11372037D01*
X8304123Y11361877D01*
X8306866Y11357406D01*
X8309406Y11352733D01*
X8311337Y11348466D01*
X8313674Y11341862D01*
X8315909Y11337848D01*
X8318804Y11333581D01*
X8325510Y11325504D01*
X8331809Y11316919D01*
X8333892Y11313414D01*
X8337600Y11306302D01*
X8347303Y11301374D01*
X8351469Y11299037D01*
X8355584Y11296294D01*
X8359190Y11293551D01*
X8364423Y11288725D01*
X8367826Y11286439D01*
X8371687Y11284356D01*
X8375446Y11282781D01*
X8384235Y11279886D01*
X8384235Y11270538D01*
X8391652Y11263071D01*
X8394852Y11259515D01*
X8397595Y11255654D01*
X8399932Y11251438D01*
X8401862Y11246612D01*
X8403437Y11241176D01*
X8404758Y11234928D01*
X8405774Y11227714D01*
X8408212Y11201146D01*
X8415528Y11189411D01*
X8436559Y11200130D01*
X8439962Y11208410D01*
X8441436Y11212728D01*
X8442909Y11218265D01*
X8444230Y11224310D01*
X8447024Y11243767D01*
X8440267Y11250015D01*
X8437372Y11253216D01*
X8434578Y11257178D01*
X8432088Y11261496D01*
X8430310Y11265611D01*
X8427059Y11274958D01*
X8378596Y11326876D01*
X8360867Y11333276D01*
X8360867Y11336629D01*
X8360156Y11338763D01*
X8358174Y11342014D01*
X8355279Y11345976D01*
X8342528Y11360353D01*
X8338210Y11388039D01*
X8341410Y11427002D01*
X8354364Y11428577D01*
X8359597Y11434775D01*
X8362492Y11437670D01*
X8366607Y11440972D01*
X8371331Y11444173D01*
X8376158Y11447018D01*
X8387486Y11453012D01*
X8411514Y11498630D01*
X8397036Y11510416D01*
X8393074Y11525656D01*
X8376970Y11532819D01*
X8371840Y11544096D01*
X8360511Y11547703D01*
X8355939Y11549430D01*
X8351875Y11551361D01*
X8348725Y11553291D01*
X8346998Y11554968D01*
X8345119Y11557203D01*
X8342274Y11559235D01*
X8338515Y11561064D01*
X8333841Y11562689D01*
X8328304Y11564162D01*
X8321852Y11565382D01*
X8314537Y11566448D01*
X8284311Y11569141D01*
X8274964Y11573814D01*
X8269528Y11575999D01*
X8261654Y11578437D01*
X8252358Y11580774D01*
X8242706Y11582806D01*
X8219694Y11587124D01*
X8206231Y11601551D01*
X8185302Y11605107D01*
X8176259Y11620398D01*
X8169249Y11620500D01*
X8164474Y11621363D01*
X8158378Y11623548D01*
X8158378Y11636400D01*
X8144103Y11641785D01*
X8137855Y11656009D01*
X8135112Y11661648D01*
X8132368Y11666423D01*
X8129930Y11669877D01*
X8128101Y11671554D01*
X8124647Y11672874D01*
X8124647Y11715191D01*
X8135010Y11721693D01*
X8143646Y11752681D01*
X8153653Y11755882D01*
X8160816Y11772950D01*
X8173466Y11776100D01*
X8178901Y11791746D01*
X8192363Y11791746D01*
X8201101Y11806936D01*
X8232394Y11812371D01*
X8243468Y11826138D01*
X8273237Y11829034D01*
X8299958Y11830862D01*
X8313369Y11831523D01*
X8346592Y11832437D01*
X8364778Y11826240D01*
X8362950Y11811304D01*
X8354314Y11803227D01*
X8350351Y11799011D01*
X8345982Y11730888D01*
X8353552Y11708638D01*
X8365134Y11700459D01*
X8370570Y11695633D01*
X8372043Y11693855D01*
X8375954Y11689994D01*
X8382406Y11686489D01*
X8390839Y11683593D01*
X8406282Y11680444D01*
X8412581Y11678818D01*
X8418728Y11676837D01*
X8423960Y11674805D01*
X8434882Y11669826D01*
X8446566Y11669826D01*
X8452002Y11670030D01*
X8458250Y11670639D01*
X8464448Y11671503D01*
X8469934Y11672570D01*
X8481618Y11675262D01*
X8544306Y11675567D01*
X8549335Y11672874D01*
X8552230Y11671554D01*
X8555736Y11670385D01*
X8560104Y11669369D01*
X8572652Y11667490D01*
X8591854Y11665610D01*
X8636762Y11662156D01*
X8648547Y11651081D01*
X8692337Y11642852D01*
X8697061Y11632590D01*
X8716264Y11624716D01*
X8721648Y11621414D01*
X8725255Y11617248D01*
X8728557Y11611000D01*
X8732875Y11601856D01*
X8728202Y11567261D01*
X8721852Y11564112D01*
X8719210Y11562486D01*
X8716721Y11560302D01*
X8714740Y11557863D01*
X8713419Y11555526D01*
X8711438Y11550040D01*
X8695740Y11544604D01*
X8692642Y11532209D01*
X8665921Y11528704D01*
X8652764Y11514582D01*
X8611412Y11509044D01*
X8599982Y11495786D01*
X8595512Y11495786D01*
X8587384Y11494922D01*
X8557310Y11489893D01*
X8551875Y11484152D01*
X8549030Y11481663D01*
X8545220Y11479123D01*
X8541004Y11476888D01*
X8536787Y11475212D01*
X8527084Y11472062D01*
X8522106Y11465712D01*
X8519464Y11462918D01*
X8515858Y11460073D01*
X8511794Y11457482D01*
X8507730Y11455450D01*
X8498281Y11451488D01*
X8493353Y11438585D01*
X8480653Y11433759D01*
X8476183Y11423853D01*
X8473948Y11419484D01*
X8471154Y11414912D01*
X8468156Y11410594D01*
X8465413Y11407140D01*
X8459114Y11400332D01*
X8454186Y11362080D01*
X8457590Y11328958D01*
X8465210Y11322456D01*
X8479586Y11309096D01*
X8483447Y11305844D01*
X8487105Y11303152D01*
X8490051Y11301323D01*
X8495893Y11298275D01*
X8495893Y11290757D01*
X8496096Y11287709D01*
X8496655Y11284966D01*
X8497468Y11282832D01*
X8498484Y11281613D01*
X8501126Y11279987D01*
X8494014Y11272926D01*
X8490762Y11248999D01*
X8484260Y11242497D01*
X8481618Y11239398D01*
X8479180Y11235842D01*
X8477199Y11232184D01*
X8474862Y11225631D01*
X8473033Y11221821D01*
X8470747Y11217960D01*
X8468207Y11214557D01*
X8462162Y11207242D01*
X8464753Y11202365D01*
X8467394Y11198250D01*
X8470392Y11196218D01*
X8474760Y11195964D01*
X8481517Y11197234D01*
X8491575Y11199469D01*
X8501380Y11212068D01*
X8509355Y11220805D01*
X8521395Y11232286D01*
X8525002Y11246561D01*
X8528456Y11246561D01*
X8530132Y11247018D01*
X8532114Y11248237D01*
X8534146Y11250066D01*
X8535974Y11252352D01*
X8539988Y11258092D01*
X8539988Y11306048D01*
X8527135Y11319154D01*
X8521852Y11324234D01*
X8517026Y11328400D01*
X8513165Y11331194D01*
X8510828Y11332210D01*
X8507374Y11332210D01*
X8501380Y11348212D01*
X8491626Y11350752D01*
X8506968Y11396675D01*
X8520633Y11410950D01*
X8526424Y11416588D01*
X8532012Y11421516D01*
X8536787Y11425174D01*
X8543086Y11428425D01*
X8546846Y11430914D01*
X8550859Y11434114D01*
X8554770Y11437670D01*
X8563559Y11446459D01*
X8572347Y11446459D01*
X8580374Y11447170D01*
X8588095Y11449202D01*
X8595106Y11452402D01*
X8600998Y11456670D01*
X8606231Y11461394D01*
X8647379Y11467338D01*
X8664397Y11480292D01*
X8677554Y11482781D01*
X8687968Y11485219D01*
X8695283Y11487912D01*
X8699550Y11491010D01*
X8700973Y11494516D01*
X8700973Y11498275D01*
X8708085Y11499951D01*
X8714232Y11502186D01*
X8719413Y11505438D01*
X8722969Y11509248D01*
X8724341Y11513058D01*
X8724341Y11516563D01*
X8734806Y11516563D01*
X8746337Y11527180D01*
X8750960Y11531752D01*
X8754973Y11536324D01*
X8758021Y11540388D01*
X8760764Y11546027D01*
X8762796Y11548973D01*
X8765336Y11551970D01*
X8768130Y11554612D01*
X8774938Y11560200D01*
X8774938Y11625580D01*
X8759647Y11639804D01*
X8756142Y11643563D01*
X8753754Y11646611D01*
X8752484Y11649659D01*
X8751417Y11650827D01*
X8749893Y11651945D01*
X8745524Y11653875D01*
X8742476Y11655755D01*
X8739174Y11658142D01*
X8729014Y11666829D01*
X8722614Y11671096D01*
X8716314Y11673992D01*
X8709609Y11675770D01*
X8701430Y11677294D01*
X8688832Y11689892D01*
X8661806Y11694261D01*
X8654846Y11695734D01*
X8649462Y11697208D01*
X8646464Y11698427D01*
X8641029Y11701424D01*
X8624366Y11709298D01*
X8574176Y11712092D01*
X8549386Y11712803D01*
X8505494Y11713565D01*
X8415731Y11713870D01*
X8412276Y11724690D01*
X8394700Y11732056D01*
X8393277Y11737898D01*
X8392769Y11740896D01*
X8392464Y11744909D01*
X8392515Y11755424D01*
X8393226Y11768023D01*
X8394496Y11781383D01*
X8396274Y11794083D01*
X8398408Y11804700D01*
X8400034Y11811203D01*
X8395258Y11853519D01*
X8390382Y11860022D01*
X8387943Y11862917D01*
X8384844Y11865914D01*
X8381542Y11868708D01*
X8378342Y11870893D01*
X8371128Y11875160D01*
G37*
G36*
X7590942Y11869623D02*
G01*
X7571740Y11859818D01*
X7517739Y11857126D01*
X7506004Y11856313D01*
X7496606Y11855399D01*
X7489190Y11854332D01*
X7483398Y11852960D01*
X7478877Y11851284D01*
X7475169Y11849252D01*
X7471968Y11846712D01*
X7466533Y11841886D01*
X7437374Y11835638D01*
X7425334Y11822836D01*
X7405319Y11817451D01*
X7399629Y11804954D01*
X7385202Y11801805D01*
X7367066Y11785650D01*
X7353706Y11772950D01*
X7335012Y11754104D01*
X7324801Y11732006D01*
X7321143Y11732006D01*
X7318044Y11730888D01*
X7315352Y11727586D01*
X7313066Y11721998D01*
X7311136Y11714226D01*
X7309510Y11705539D01*
X7296861Y11695582D01*
X7291070Y11667693D01*
X7286091Y11663222D01*
X7283958Y11660886D01*
X7282027Y11658092D01*
X7280351Y11654688D01*
X7278878Y11650726D01*
X7277557Y11646001D01*
X7276439Y11640616D01*
X7274610Y11627358D01*
X7273036Y11612270D01*
X7262672Y11598249D01*
X7257592Y11567160D01*
X7257643Y11375085D01*
X7262926Y11338712D01*
X7273188Y11319002D01*
X7276439Y11255959D01*
X7277709Y11234978D01*
X7278979Y11219891D01*
X7280452Y11209172D01*
X7282332Y11201349D01*
X7283500Y11197996D01*
X7286396Y11191595D01*
X7291222Y11182096D01*
X7297420Y11023904D01*
X7292898Y10988243D01*
X7291425Y10979658D01*
X7290104Y10973511D01*
X7289038Y10970666D01*
X7286955Y10968583D01*
X7178395Y10963808D01*
X7169556Y10961166D01*
X7165848Y10959846D01*
X7162139Y10958220D01*
X7158939Y10956493D01*
X7156602Y10954867D01*
X7152436Y10951159D01*
X7098944Y10946130D01*
X7087313Y10935004D01*
X7270394Y10935004D01*
X7271461Y10934801D01*
X7272324Y10934242D01*
X7272934Y10933430D01*
X7273137Y10932414D01*
X7272781Y10930585D01*
X7272426Y10930026D01*
X7271969Y10929823D01*
X7270699Y10930585D01*
X7269225Y10932414D01*
X7267651Y10935004D01*
X7087313Y10935004D01*
X7084923Y10932718D01*
X7073239Y10930890D01*
X7063841Y10928858D01*
X7055662Y10925962D01*
X7049312Y10922457D01*
X7043826Y10917072D01*
X7040930Y10915142D01*
X7037171Y10913211D01*
X7033006Y10911433D01*
X7022592Y10907623D01*
X7017512Y10896092D01*
X7008215Y10896092D01*
X6985304Y10874959D01*
X6982256Y10861040D01*
X6966813Y10852200D01*
X6966813Y10841685D01*
X6951573Y10833862D01*
X6948373Y10823752D01*
X6947771Y10823397D01*
X7005116Y10823397D01*
X7007707Y10826648D01*
X7008875Y10828578D01*
X7011263Y10834878D01*
X7014006Y10847120D01*
X7020204Y10849914D01*
X7022744Y10851388D01*
X7025030Y10853267D01*
X7026808Y10855299D01*
X7027824Y10857280D01*
X7029297Y10861802D01*
X7037070Y10865002D01*
X7040422Y10866729D01*
X7043877Y10868964D01*
X7046975Y10871403D01*
X7049312Y10873892D01*
X7053783Y10879480D01*
X7078624Y10886440D01*
X7087920Y10898225D01*
X7107326Y10900968D01*
X7118756Y10903407D01*
X7123531Y10904880D01*
X7127798Y10906455D01*
X7131507Y10908233D01*
X7134707Y10910214D01*
X7137349Y10912297D01*
X7143089Y10917529D01*
X7244283Y10921593D01*
X7253528Y10926826D01*
X7258151Y10924336D01*
X7259929Y10923168D01*
X7261402Y10921796D01*
X7262368Y10920374D01*
X7262774Y10919104D01*
X7262368Y10917377D01*
X7259980Y10911586D01*
X7253528Y10899394D01*
X7250582Y10899902D01*
X7233920Y10904829D01*
X7219492Y10896295D01*
X7179462Y10894060D01*
X7159904Y10892586D01*
X7154418Y10891977D01*
X7146086Y10890707D01*
X7138212Y10884103D01*
X7134606Y10881360D01*
X7130592Y10878870D01*
X7126630Y10876838D01*
X7123226Y10875568D01*
X7116064Y10873689D01*
X7109155Y10859465D01*
X7103211Y10857230D01*
X7098690Y10854588D01*
X7095845Y10850372D01*
X7094423Y10843666D01*
X7094016Y10833557D01*
X7094016Y10823905D01*
X7241692Y10823905D01*
X7250988Y10830814D01*
X7258405Y10837316D01*
X7264603Y10844631D01*
X7268921Y10851692D01*
X7270546Y10857484D01*
X7270546Y10861751D01*
X7281011Y10864494D01*
X7284821Y10873638D01*
X7286802Y10877702D01*
X7289393Y10881969D01*
X7292187Y10885932D01*
X7294930Y10889081D01*
X7301179Y10895330D01*
X7307275Y10924794D01*
X7319518Y10938002D01*
X7323378Y10956239D01*
X7324852Y10965129D01*
X7325258Y10969091D01*
X7325817Y10970260D01*
X7326579Y10971072D01*
X7328865Y10971987D01*
X7330541Y10973612D01*
X7332370Y10976102D01*
X7334097Y10979048D01*
X7338059Y10986770D01*
X7340955Y11047933D01*
X7336485Y11114836D01*
X7335418Y11140236D01*
X7335621Y11156238D01*
X7325461Y11177778D01*
X7321753Y11247069D01*
X7320330Y11268964D01*
X7318857Y11285118D01*
X7318095Y11291366D01*
X7316216Y11301069D01*
X7315098Y11304828D01*
X7313828Y11307978D01*
X7312406Y11310772D01*
X7306767Y11319002D01*
X7300975Y11434572D01*
X7298537Y11494465D01*
X7307630Y11605666D01*
X7319213Y11622786D01*
X7325614Y11656466D01*
X7337399Y11664238D01*
X7344156Y11698224D01*
X7354011Y11701322D01*
X7363358Y11723217D01*
X7380731Y11740489D01*
X7387844Y11747296D01*
X7394397Y11753138D01*
X7399680Y11757304D01*
X7404963Y11760250D01*
X7406894Y11761825D01*
X7408418Y11763705D01*
X7409434Y11765737D01*
X7410958Y11770664D01*
X7420559Y11773712D01*
X7424826Y11775389D01*
X7429296Y11777624D01*
X7433411Y11780164D01*
X7436662Y11782704D01*
X7443165Y11788648D01*
X7466533Y11795099D01*
X7476947Y11806936D01*
X7533131Y11814759D01*
X7541107Y11819839D01*
X7543393Y11820855D01*
X7546136Y11821718D01*
X7553756Y11823039D01*
X7565491Y11823954D01*
X7582763Y11824512D01*
X7676946Y11825478D01*
X7688122Y11817654D01*
X7717688Y11812422D01*
X7737703Y11809577D01*
X7763306Y11806936D01*
X7767472Y11802364D01*
X7770266Y11800179D01*
X7774787Y11797639D01*
X7780426Y11795099D01*
X7792567Y11790629D01*
X7798053Y11788343D01*
X7802321Y11786260D01*
X7809484Y11781383D01*
X7816342Y11777878D01*
X7824063Y11774728D01*
X7831277Y11772595D01*
X7837779Y11771172D01*
X7840370Y11765280D01*
X7841843Y11762740D01*
X7843977Y11760200D01*
X7846466Y11758015D01*
X7851800Y11754561D01*
X7854797Y11751868D01*
X7857642Y11748668D01*
X7860030Y11745264D01*
X7864957Y11737187D01*
X7872933Y11737187D01*
X7877911Y11724182D01*
X7891322Y11718036D01*
X7898688Y11700408D01*
X7908137Y11697919D01*
X7911592Y11686184D01*
X7913420Y11681053D01*
X7915909Y11675719D01*
X7918653Y11670792D01*
X7921447Y11666931D01*
X7927797Y11659362D01*
X7932420Y11589359D01*
X7927390Y11576100D01*
X7911084Y11584533D01*
X7870190Y11580876D01*
X7865465Y11574881D01*
X7862874Y11572290D01*
X7859420Y11569547D01*
X7855458Y11567007D01*
X7851444Y11565026D01*
X7842148Y11561165D01*
X7838643Y11549989D01*
X7826298Y11545316D01*
X7818729Y11530736D01*
X7814868Y11525148D01*
X7810804Y11522456D01*
X7807756Y11517376D01*
X7804912Y11509857D01*
X7802676Y11500612D01*
X7800187Y11487454D01*
X7787335Y11477396D01*
X7783830Y11458143D01*
X7775194Y11448440D01*
X7771688Y11444173D01*
X7768539Y11439652D01*
X7766151Y11435435D01*
X7764830Y11432082D01*
X7763154Y11425377D01*
X7742936Y11417300D01*
X7732928Y11404549D01*
X7717434Y11402364D01*
X7711846Y11401399D01*
X7706156Y11400078D01*
X7700568Y11398504D01*
X7695336Y11396726D01*
X7690612Y11394846D01*
X7686700Y11392966D01*
X7683753Y11391138D01*
X7682100Y11389360D01*
X7771841Y11389360D01*
X7797546Y11415064D01*
X7797546Y11425326D01*
X7808214Y11428730D01*
X7814665Y11442496D01*
X7820050Y11451336D01*
X7822590Y11454841D01*
X7828330Y11461953D01*
X7834172Y11490198D01*
X7846263Y11498122D01*
X7850936Y11517833D01*
X7865008Y11524640D01*
X7865008Y11534597D01*
X7881924Y11538661D01*
X7885023Y11539220D01*
X7889748Y11539575D01*
X7895590Y11539728D01*
X7908645Y11539372D01*
X7920075Y11538305D01*
X7923834Y11537594D01*
X7932013Y11535257D01*
X7947456Y11519052D01*
X7951114Y11476939D01*
X7958175Y11470132D01*
X7961172Y11466931D01*
X7964068Y11463223D01*
X7966557Y11459464D01*
X7968335Y11456162D01*
X7971383Y11448948D01*
X7984439Y11443004D01*
X7984439Y11435892D01*
X7993329Y11430660D01*
X7997088Y11428171D01*
X8000746Y11425224D01*
X8003895Y11422176D01*
X8008264Y11416893D01*
X8011210Y11414302D01*
X8014563Y11411966D01*
X8021116Y11408714D01*
X8023656Y11407190D01*
X8025333Y11405717D01*
X8026908Y11403025D01*
X8029448Y11400688D01*
X8033207Y11397792D01*
X8042859Y11391290D01*
X8047990Y11387429D01*
X8052511Y11383721D01*
X8055864Y11380470D01*
X8062061Y11373764D01*
X8072983Y11373764D01*
X8078317Y11358473D01*
X8095843Y11352682D01*
X8099196Y11342116D01*
X8108645Y11338255D01*
X8112963Y11336172D01*
X8117636Y11333378D01*
X8122158Y11330228D01*
X8129524Y11324183D01*
X8133537Y11321542D01*
X8137499Y11319459D01*
X8140852Y11318240D01*
X8148015Y11316563D01*
X8148015Y11312906D01*
X8148574Y11311077D01*
X8150098Y11308740D01*
X8152384Y11306251D01*
X8164880Y11295989D01*
X8169909Y11291519D01*
X8175599Y11287404D01*
X8183676Y11283086D01*
X8190992Y11260785D01*
X8188502Y11251742D01*
X8186166Y11245037D01*
X8183118Y11241125D01*
X8178495Y11239296D01*
X8171332Y11238788D01*
X8162188Y11238788D01*
X8153146Y11243513D01*
X8148828Y11245494D01*
X8143646Y11247424D01*
X8137702Y11249202D01*
X8130844Y11250879D01*
X8114334Y11253978D01*
X8093709Y11256873D01*
X8071866Y11259515D01*
X8067751Y11263223D01*
X8065312Y11265154D01*
X8062366Y11266932D01*
X8058912Y11268557D01*
X8054898Y11270081D01*
X8044891Y11272774D01*
X8031784Y11275212D01*
X8014411Y11278006D01*
X8010448Y11281410D01*
X8004809Y11285524D01*
X7998104Y11288674D01*
X7989468Y11291112D01*
X7977886Y11293297D01*
X7960156Y11296142D01*
X7948574Y11308638D01*
X7922006Y11312144D01*
X7903260Y11327028D01*
X7889138Y11327028D01*
X7879029Y11333937D01*
X7874101Y11336832D01*
X7868208Y11339728D01*
X7862011Y11342268D01*
X7851089Y11345722D01*
X7846110Y11347704D01*
X7841996Y11349685D01*
X7839252Y11351514D01*
X7834782Y11355578D01*
X7816342Y11355578D01*
X7809636Y11347551D01*
X7796275Y11349126D01*
X7790027Y11362182D01*
X7766405Y11369141D01*
X7766253Y11377777D01*
X7765440Y11383162D01*
X7763256Y11389360D01*
X7682100Y11389360D01*
X7682738Y11385092D01*
X7686852Y11378387D01*
X7692898Y11371326D01*
X7699502Y11365941D01*
X7707985Y11360810D01*
X7715758Y11360810D01*
X7719618Y11360454D01*
X7724444Y11359438D01*
X7729575Y11358016D01*
X7734452Y11356238D01*
X7745425Y11351717D01*
X7746898Y11341303D01*
X7768691Y11334445D01*
X7763103Y11322202D01*
X7736535Y11313058D01*
X7658658Y11313007D01*
X7622286Y11327942D01*
X7561580Y11331600D01*
X7549591Y11345367D01*
X7518501Y11350345D01*
X7517638Y11352885D01*
X7514285Y11356594D01*
X7507478Y11360861D01*
X7499096Y11364671D01*
X7490917Y11367008D01*
X7481519Y11368684D01*
X7472121Y11379098D01*
X7457694Y11383264D01*
X7451547Y11385296D01*
X7445400Y11387785D01*
X7440015Y11390376D01*
X7436103Y11392763D01*
X7428890Y11398097D01*
X7398308Y11400282D01*
X7386523Y11388496D01*
X7408824Y11369598D01*
X7421575Y11358524D01*
X7437983Y11355019D01*
X7451852Y11340134D01*
X7473645Y11336680D01*
X7488275Y11322354D01*
X7514945Y11316614D01*
X7532776Y11303050D01*
X7550353Y11301374D01*
X7560157Y11300104D01*
X7569606Y11298224D01*
X7565898Y11255654D01*
X7553502Y11229187D01*
X7553502Y11151717D01*
X7558735Y11141964D01*
X7560970Y11137138D01*
X7563256Y11131245D01*
X7565237Y11125047D01*
X7566761Y11119256D01*
X7569504Y11106353D01*
X7580630Y11098580D01*
X7590942Y11108944D01*
X7591501Y11167414D01*
X7592466Y11205311D01*
X7593634Y11231829D01*
X7594244Y11241684D01*
X7596631Y11271859D01*
X7606385Y11281613D01*
X7656880Y11281257D01*
X7674152Y11280698D01*
X7678928Y11279987D01*
X7681569Y11278971D01*
X7682484Y11277447D01*
X7682128Y11275415D01*
X7680807Y11272723D01*
X7679486Y11268608D01*
X7678115Y11261445D01*
X7676794Y11252200D01*
X7675676Y11241938D01*
X7673492Y11216690D01*
X7661249Y11195913D01*
X7661249Y11089487D01*
X7672831Y11065916D01*
X7676235Y11034064D01*
X7677200Y11027257D01*
X7678318Y11021568D01*
X7679639Y11016691D01*
X7681214Y11012424D01*
X7683246Y11008461D01*
X7685684Y11004600D01*
X7693202Y10994644D01*
X7696809Y10968431D01*
X7711084Y10953800D01*
X7714177Y10934649D01*
X7760157Y10934649D01*
X7760512Y10935919D01*
X7761782Y10938103D01*
X7767066Y10932769D01*
X7763256Y10923371D01*
X7761224Y10928553D01*
X7760563Y10930737D01*
X7760208Y10932871D01*
X7760157Y10934649D01*
X7714177Y10934649D01*
X7714589Y10932058D01*
X7721600Y10925606D01*
X7724495Y10922406D01*
X7727340Y10918545D01*
X7729677Y10914532D01*
X7731252Y10910824D01*
X7733944Y10902594D01*
X7745222Y10897616D01*
X7748574Y10879734D01*
X7779003Y10847324D01*
X7782509Y10843209D01*
X7787995Y10835741D01*
X7792466Y10828578D01*
X7800238Y10828578D01*
X7805216Y10815574D01*
X7823352Y10806938D01*
X7821828Y10800232D01*
X7819847Y10794542D01*
X7818526Y10792104D01*
X7817256Y10790326D01*
X7814259Y10787126D01*
X7736992Y10782909D01*
X7710525Y10781893D01*
X7685582Y10781233D01*
X7661249Y10781080D01*
X7624876Y10781639D01*
X7613853Y10784687D01*
X7607198Y10786922D01*
X7603642Y10789056D01*
X7603083Y10791291D01*
X7607147Y10795406D01*
X7609636Y10799216D01*
X7615885Y10810544D01*
X7623606Y10825835D01*
X7623606Y10833303D01*
X7623809Y10837316D01*
X7625384Y10849102D01*
X7629499Y10870031D01*
X7623098Y10902391D01*
X7623809Y10936376D01*
X7623860Y10951870D01*
X7623251Y10962284D01*
X7621879Y10970463D01*
X7618222Y10984331D01*
X7598206Y10984331D01*
X7595870Y10968329D01*
X7603845Y10960354D01*
X7608366Y10932058D01*
X7610195Y10916208D01*
X7610500Y10910722D01*
X7610602Y10900714D01*
X7594346Y10866628D01*
X7591348Y10839907D01*
X7590180Y10821720D01*
X7589875Y10798454D01*
X7597241Y10788345D01*
X7582204Y10783163D01*
X7471714Y10785856D01*
X7456474Y10791291D01*
X7449007Y10793476D01*
X7440828Y10795406D01*
X7431582Y10797032D01*
X7420813Y10798505D01*
X7408265Y10799826D01*
X7376312Y10802162D01*
X7315962Y10805617D01*
X7307783Y10813034D01*
X7293711Y10813084D01*
X7287717Y10813389D01*
X7273442Y10815015D01*
X7259015Y10817606D01*
X7252868Y10819079D01*
X7247991Y10820552D01*
X7244842Y10821924D01*
X7241692Y10823905D01*
X7094016Y10823905D01*
X7094016Y10820806D01*
X7103821Y10810951D01*
X7114641Y10809173D01*
X7119721Y10807954D01*
X7125563Y10805972D01*
X7131507Y10803585D01*
X7136790Y10800943D01*
X7148220Y10794593D01*
X7199122Y10789107D01*
X7203033Y10785652D01*
X7207961Y10782401D01*
X7211110Y10780776D01*
X7221626Y10776661D01*
X7364780Y10771073D01*
X7377887Y10762488D01*
X7397648Y10760151D01*
X7425080Y10758271D01*
X7442301Y10757408D01*
X7492492Y10755426D01*
X7507325Y10750397D01*
X7515606Y10748416D01*
X7521346Y10747756D01*
X7530084Y10745673D01*
X7546035Y10740237D01*
X7697571Y10737037D01*
X7762494Y10743082D01*
X7781290Y10752886D01*
X7846618Y10756595D01*
X7857591Y10763453D01*
X7860131Y10765536D01*
X7861808Y10767314D01*
X7863078Y10769701D01*
X7864805Y10770870D01*
X7867345Y10771936D01*
X7874101Y10774019D01*
X7878165Y10775899D01*
X7882077Y10778236D01*
X7895336Y10789259D01*
X7904073Y10796168D01*
X7906410Y10810443D01*
X7907172Y10816539D01*
X7907629Y10822635D01*
X7907680Y10828020D01*
X7907324Y10831931D01*
X7905953Y10839094D01*
X7895590Y10847984D01*
X7890967Y10851591D01*
X7886090Y10854740D01*
X7881569Y10857128D01*
X7877911Y10858449D01*
X7870596Y10860074D01*
X7862570Y10872317D01*
X7832598Y10878566D01*
X7818475Y10890402D01*
X7777327Y10896447D01*
X7775498Y10906455D01*
X7773873Y10912398D01*
X7771282Y10918799D01*
X7774990Y10920222D01*
X7777937Y10920577D01*
X7783271Y10920526D01*
X7790129Y10920069D01*
X7817002Y10916818D01*
X7820914Y10911789D01*
X7825486Y10907572D01*
X7831836Y10904270D01*
X7839252Y10902086D01*
X7847177Y10901273D01*
X7854899Y10901273D01*
X7860588Y10895177D01*
X7866329Y10889894D01*
X7872222Y10886135D01*
X7878267Y10883849D01*
X7884363Y10883087D01*
X7891119Y10883087D01*
X7897215Y10869726D01*
X7911998Y10862106D01*
X7917027Y10848848D01*
X7927035Y10846257D01*
X7939379Y10806531D01*
X7936128Y10803280D01*
X7934706Y10801553D01*
X7932013Y10796778D01*
X7931048Y10794288D01*
X7929524Y10791190D01*
X7926628Y10787075D01*
X7922818Y10782452D01*
X7918551Y10777880D01*
X7907883Y10767161D01*
X7900924Y10765434D01*
X7897622Y10764215D01*
X7893659Y10762234D01*
X7889646Y10759694D01*
X7885988Y10756950D01*
X7878388Y10750600D01*
X7958480Y10750600D01*
X7958480Y10759541D01*
X7959140Y10770260D01*
X7961071Y10775238D01*
X7964017Y10774324D01*
X7967878Y10767314D01*
X7971790Y10757916D01*
X7981137Y10755477D01*
X7987436Y10727182D01*
X7997037Y10719003D01*
X8002625Y10713974D01*
X8002625Y10698530D01*
X8020253Y10680395D01*
X8023809Y10656620D01*
X8036102Y10644327D01*
X8040674Y10620349D01*
X8042656Y10614050D01*
X8045297Y10609173D01*
X8049412Y10604042D01*
X8051393Y10601198D01*
X8053527Y10597337D01*
X8055508Y10592917D01*
X8058810Y10583926D01*
X8061045Y10579354D01*
X8063484Y10575188D01*
X8068360Y10568838D01*
X8071002Y10564571D01*
X8073542Y10559846D01*
X8075574Y10555173D01*
X8079740Y10544302D01*
X8091119Y10539120D01*
X8092643Y10532618D01*
X8094776Y10526928D01*
X8097977Y10521950D01*
X8101685Y10518394D01*
X8105241Y10517073D01*
X8108391Y10517073D01*
X8111490Y10501680D01*
X8123834Y10487456D01*
X8130844Y10478414D01*
X8135264Y10472115D01*
X8137499Y10469829D01*
X8139582Y10468305D01*
X8141360Y10467746D01*
X8145018Y10467746D01*
X8150859Y10449966D01*
X8165439Y10444937D01*
X8168640Y10428732D01*
X8181035Y10424007D01*
X8183981Y10409174D01*
X8191296Y10401503D01*
X8194446Y10397896D01*
X8200440Y10389768D01*
X8204453Y10383062D01*
X8206790Y10380065D01*
X8209280Y10377525D01*
X8215934Y10373004D01*
X8218728Y10370058D01*
X8220202Y10366502D01*
X8220659Y10361879D01*
X8220709Y10355935D01*
X8229752Y10346893D01*
X8233359Y10342880D01*
X8236610Y10338562D01*
X8239099Y10334548D01*
X8240420Y10331297D01*
X8242046Y10324795D01*
X8257031Y10317022D01*
X8257031Y10306964D01*
X8272221Y10295737D01*
X8273694Y10289895D01*
X8274913Y10286898D01*
X8277148Y10283190D01*
X8280044Y10279126D01*
X8286699Y10271302D01*
X8289848Y10266984D01*
X8292388Y10262819D01*
X8294014Y10259314D01*
X8296554Y10252100D01*
X8311540Y10244328D01*
X8311540Y10231120D01*
X8319211Y10223449D01*
X8322411Y10219740D01*
X8325561Y10215321D01*
X8328304Y10210698D01*
X8330234Y10206431D01*
X8333638Y10197033D01*
X8345322Y10191699D01*
X8350808Y10171430D01*
X8366404Y10155072D01*
X8369350Y10140492D01*
X8381034Y10131298D01*
X8387740Y10101224D01*
X8402421Y10082834D01*
X8402675Y10069017D01*
X8403945Y10058704D01*
X8407196Y10044074D01*
X8418779Y10031730D01*
X8427974Y9932517D01*
X8436965Y9922611D01*
X8436508Y9906457D01*
X8429142Y9897922D01*
X8423198Y9866833D01*
X8420912Y9852050D01*
X8420404Y9845751D01*
X8419846Y9843617D01*
X8419033Y9841890D01*
X8418068Y9840874D01*
X8415578Y9839299D01*
X8405368Y9849510D01*
X8401253Y9853930D01*
X8397646Y9858349D01*
X8394903Y9862312D01*
X8393379Y9865207D01*
X8391652Y9870694D01*
X8376462Y9878568D01*
X8376462Y9893249D01*
X8366861Y9902952D01*
X8355888Y9913569D01*
X8335162Y9932974D01*
X8324443Y9932974D01*
X8318500Y9945928D01*
X8309457Y9948418D01*
X8305342Y9949942D01*
X8300974Y9952177D01*
X8296808Y9954818D01*
X8293404Y9957612D01*
X8286445Y9964267D01*
X8255711Y9970617D01*
X8244078Y9982301D01*
X8233765Y9982301D01*
X8232343Y9990074D01*
X8230971Y10009428D01*
X8228533Y10068509D01*
X8216696Y10089997D01*
X8191398Y10089997D01*
X8188502Y10084816D01*
X8183981Y10078364D01*
X8180324Y10076840D01*
X8177428Y10080345D01*
X8175244Y10088829D01*
X8173466Y10099294D01*
X8161629Y10113365D01*
X8155178Y10151872D01*
X8141868Y10165181D01*
X8137753Y10215422D01*
X8135772Y10217708D01*
X8124799Y10228072D01*
X8121040Y10260330D01*
X8119922Y10267797D01*
X8118703Y10274198D01*
X8117382Y10279583D01*
X8115909Y10284155D01*
X8114284Y10287965D01*
X8112404Y10291165D01*
X8110321Y10293858D01*
X8106765Y10297769D01*
X8102803Y10328960D01*
X8100415Y10342422D01*
X8099044Y10347655D01*
X8097570Y10352074D01*
X8095945Y10355783D01*
X8094065Y10358882D01*
X8088172Y10365790D01*
X8083143Y10411104D01*
X8082584Y10412374D01*
X8079079Y10417454D01*
X8069935Y10428478D01*
X8064957Y10474502D01*
X8064449Y10476382D01*
X8063026Y10479379D01*
X8058454Y10486948D01*
X8052003Y10496499D01*
X8046923Y10541000D01*
X8038896Y10550906D01*
X8034883Y10555274D01*
X8028178Y10608919D01*
X8022793Y10619028D01*
X8021066Y10621365D01*
X8019542Y10622940D01*
X8018322Y10623499D01*
X8015986Y10623499D01*
X8009534Y10663529D01*
X7996631Y10675467D01*
X7992364Y10702544D01*
X7976666Y10717225D01*
X7976666Y10723219D01*
X7976463Y10726115D01*
X7974990Y10733481D01*
X7971231Y10744809D01*
X7958480Y10750600D01*
X7878388Y10750600D01*
X7877962Y10750245D01*
X7860334Y10748010D01*
X7847075Y10745978D01*
X7837474Y10743590D01*
X7830820Y10740542D01*
X7826298Y10736681D01*
X7822844Y10732516D01*
X7812328Y10732516D01*
X7806385Y10732312D01*
X7788452Y10730738D01*
X7755534Y10726623D01*
X7740142Y10713669D01*
X7691069Y10711180D01*
X7662773Y10709249D01*
X7654290Y10708386D01*
X7650632Y10707776D01*
X7633004Y10706912D01*
X7582865Y10705744D01*
X7500264Y10704880D01*
X7487970Y10707522D01*
X7481519Y10708284D01*
X7460234Y10709808D01*
X7432040Y10711129D01*
X7369505Y10713262D01*
X7364831Y10717479D01*
X7361732Y10719460D01*
X7356805Y10721695D01*
X7350709Y10723880D01*
X7344156Y10725810D01*
X7328204Y10729925D01*
X7290003Y10730026D01*
X7281875Y10734802D01*
X7275626Y10738916D01*
X7266482Y10745368D01*
X7198868Y10750499D01*
X7175804Y10763402D01*
X7128459Y10768177D01*
X7100519Y10781741D01*
X7054748Y10786872D01*
X7039965Y10799318D01*
X7016546Y10805210D01*
X7013549Y10814304D01*
X7012178Y10817809D01*
X7010603Y10820704D01*
X7009130Y10822686D01*
X7007809Y10823397D01*
X6947771Y10823397D01*
X6930440Y10813186D01*
X6930440Y10804956D01*
X6914845Y10799521D01*
X6911797Y10787380D01*
X6904075Y10785652D01*
X6900367Y10784382D01*
X6896049Y10782249D01*
X6891680Y10779455D01*
X6883653Y10773156D01*
X6878878Y10769904D01*
X6874002Y10767060D01*
X6865823Y10763046D01*
X6862521Y10761014D01*
X6860031Y10758982D01*
X6857492Y10755376D01*
X6855104Y10753090D01*
X6852005Y10750651D01*
X6848449Y10748314D01*
X6839610Y10743082D01*
X6839610Y10732973D01*
X6823506Y10729417D01*
X6813956Y10719866D01*
X6809028Y10715498D01*
X6802780Y10710621D01*
X6795973Y10705896D01*
X6789369Y10701832D01*
X6774383Y10693400D01*
X6764070Y10675924D01*
X6752234Y10672978D01*
X6746189Y10659770D01*
X6733082Y10654741D01*
X6728053Y10641584D01*
X6714896Y10636554D01*
X6710070Y10623905D01*
X6695490Y10616946D01*
X6693814Y10605058D01*
X6681470Y10600385D01*
X6673494Y10584942D01*
X6662572Y10581487D01*
X6659067Y10573258D01*
X6657086Y10569498D01*
X6654241Y10565282D01*
X6650939Y10561167D01*
X6647484Y10557611D01*
X6639407Y10550144D01*
X6636461Y10535208D01*
X6623100Y10528757D01*
X6618935Y10512450D01*
X6606031Y10509199D01*
X6602780Y10496245D01*
X6587896Y10485628D01*
X6582003Y10465917D01*
X6566814Y10456926D01*
X6563969Y10442752D01*
X6552793Y10439755D01*
X6545376Y10437215D01*
X6539484Y10434015D01*
X6535216Y10430306D01*
X6532829Y10426192D01*
X6531914Y10423499D01*
X6503771Y10419029D01*
X6490411Y10402773D01*
X6485229Y10402824D01*
X6479235Y10401350D01*
X6471920Y10397794D01*
X6465773Y10393629D01*
X6462369Y10388955D01*
X6460185Y10387330D01*
X6456934Y10385501D01*
X6442811Y10379659D01*
X6439763Y10370007D01*
X6422948Y10362590D01*
X6417919Y10351211D01*
X6406134Y10348264D01*
X6398310Y10333126D01*
X6387947Y10329824D01*
X6383680Y10313263D01*
X6370370Y10306812D01*
X6366967Y10298633D01*
X6365189Y10294975D01*
X6362801Y10290962D01*
X6360160Y10287152D01*
X6354978Y10280599D01*
X6352387Y10276230D01*
X6350101Y10271455D01*
X6346748Y10261904D01*
X6344462Y10256418D01*
X6341872Y10250982D01*
X6339230Y10246309D01*
X6333134Y10236454D01*
X6327241Y10206837D01*
X6317945Y10200182D01*
X6314440Y10185603D01*
X6312204Y10172547D01*
X6310477Y10160101D01*
X6309410Y10155021D01*
X6308293Y10151364D01*
X6307226Y10149586D01*
X6305956Y10148366D01*
X6302451Y10143337D01*
X6296507Y10132110D01*
X6292240Y10069271D01*
X6283706Y10052456D01*
X6283756Y10043972D01*
X6283452Y10038537D01*
X6281267Y10019436D01*
X6275628Y9980726D01*
X6279540Y9955885D01*
X6281420Y9945522D01*
X6283502Y9935718D01*
X6285636Y9927590D01*
X6287956Y9921290D01*
X6324295Y9921290D01*
X6324295Y10051592D01*
X6328816Y10060940D01*
X6331762Y10070185D01*
X6334810Y10082276D01*
X6337757Y10096093D01*
X6340297Y10110419D01*
X6342176Y10124033D01*
X6344615Y10152227D01*
X6356096Y10161270D01*
X6361480Y10197642D01*
X6374993Y10209428D01*
X6380835Y10243007D01*
X6392722Y10252354D01*
X6399072Y10280853D01*
X6402171Y10280853D01*
X6405676Y10282174D01*
X6409334Y10285577D01*
X6412484Y10290200D01*
X6414262Y10295128D01*
X6415176Y10300309D01*
X6427266Y10302036D01*
X6434429Y10319156D01*
X6447790Y10322509D01*
X6452463Y10334904D01*
X6458458Y10336631D01*
X6461252Y10337850D01*
X6464401Y10339882D01*
X6467500Y10342372D01*
X6470142Y10345166D01*
X6475831Y10351922D01*
X6498234Y10360558D01*
X6500774Y10366044D01*
X6503416Y10370210D01*
X6506768Y10372699D01*
X6510781Y10373614D01*
X6515455Y10372852D01*
X6520230Y10371328D01*
X6516573Y10364317D01*
X6513474Y10356392D01*
X6512102Y10351770D01*
X6511086Y10347401D01*
X6509257Y10337546D01*
X6496710Y10325912D01*
X6491020Y10291622D01*
X6482130Y10289286D01*
X6479133Y10277449D01*
X6477965Y10271912D01*
X6476390Y10259466D01*
X6476136Y10254081D01*
X6476136Y10242651D01*
X6465316Y10231120D01*
X6462877Y10227919D01*
X6461201Y10225278D01*
X6460591Y10223550D01*
X6455054Y10144556D01*
X6445402Y10123779D01*
X6444996Y10061702D01*
X6444284Y10024414D01*
X6443319Y10000792D01*
X6442811Y9993122D01*
X6440881Y9971481D01*
X6443827Y9946335D01*
X6444894Y9929469D01*
X6444843Y9908286D01*
X6455765Y9887508D01*
X6456057Y9882327D01*
X6487820Y9882327D01*
X6487820Y10149738D01*
X6500215Y10166248D01*
X6506921Y10234218D01*
X6519570Y10249255D01*
X6525361Y10288270D01*
X6538315Y10302189D01*
X6544309Y10332567D01*
X6556400Y10340543D01*
X6562750Y10371277D01*
X6574180Y10376509D01*
X6580581Y10403078D01*
X6592722Y10411053D01*
X6595821Y10420553D01*
X6597294Y10424464D01*
X6599072Y10427970D01*
X6600952Y10430713D01*
X6604558Y10434116D01*
X6606997Y10437418D01*
X6609588Y10441736D01*
X6614820Y10451846D01*
X6618122Y10457180D01*
X6621627Y10462006D01*
X6627571Y10468711D01*
X6629806Y10471810D01*
X6631330Y10474553D01*
X6631889Y10476636D01*
X6631889Y10480598D01*
X6646925Y10488371D01*
X6649466Y10495584D01*
X6651193Y10499191D01*
X6654038Y10503662D01*
X6657543Y10508488D01*
X6665061Y10517276D01*
X6668058Y10521188D01*
X6670090Y10524439D01*
X6671462Y10528147D01*
X6673138Y10530382D01*
X6675628Y10532821D01*
X6678625Y10535259D01*
X6686397Y10540796D01*
X6689445Y10552938D01*
X6699453Y10555528D01*
X6706362Y10571988D01*
X6712559Y10575086D01*
X6715201Y10576712D01*
X6717741Y10578795D01*
X6719925Y10581081D01*
X6723380Y10586364D01*
X6726377Y10590174D01*
X6734606Y10599013D01*
X6743852Y10607649D01*
X6748221Y10611205D01*
X6751980Y10613898D01*
X6759092Y10618419D01*
X6759092Y10626394D01*
X6774738Y10631830D01*
X6777888Y10644479D01*
X6794957Y10651591D01*
X6798259Y10661904D01*
X6810705Y10665053D01*
X6818630Y10675874D01*
X6821119Y10678312D01*
X6823303Y10679988D01*
X6826859Y10681258D01*
X6829552Y10682986D01*
X6832650Y10685526D01*
X6839559Y10692130D01*
X6844080Y10695787D01*
X6848805Y10699089D01*
X6857085Y10703966D01*
X6860794Y10706709D01*
X6863791Y10709503D01*
X6865670Y10711992D01*
X6868566Y10717377D01*
X6884111Y10722813D01*
X6888683Y10734852D01*
X6907123Y10738307D01*
X6919925Y10753547D01*
X6935825Y10759084D01*
X6943242Y10773460D01*
X6956145Y10776712D01*
X6962952Y10790936D01*
X6968591Y10791748D01*
X6971030Y10792358D01*
X6973519Y10793476D01*
X6975754Y10794898D01*
X6977481Y10796524D01*
X6980783Y10800486D01*
X6992823Y10780014D01*
X7003846Y10775188D01*
X7008520Y10772902D01*
X7013194Y10770158D01*
X7017258Y10767364D01*
X7020204Y10764824D01*
X7025538Y10759287D01*
X7061555Y10752480D01*
X7074662Y10742828D01*
X7123836Y10734497D01*
X7130491Y10727740D01*
X7132726Y10726064D01*
X7135571Y10724743D01*
X7139279Y10723626D01*
X7144359Y10722660D01*
X7151217Y10721695D01*
X7201611Y10716717D01*
X7205929Y10712805D01*
X7208570Y10710824D01*
X7211923Y10709097D01*
X7216241Y10707522D01*
X7221677Y10706150D01*
X7228433Y10704931D01*
X7246772Y10702594D01*
X7289850Y10698632D01*
X7298080Y10691469D01*
X7301128Y10689488D01*
X7304633Y10687913D01*
X7308900Y10686643D01*
X7314336Y10685627D01*
X7330135Y10683900D01*
X7371689Y10680852D01*
X7387539Y10669117D01*
X7476947Y10664799D01*
X7710576Y10666323D01*
X7739532Y10680547D01*
X7790383Y10685830D01*
X7814411Y10698683D01*
X7862316Y10703306D01*
X7872323Y10710316D01*
X7878927Y10714634D01*
X7887106Y10719460D01*
X7908899Y10719562D01*
X7915808Y10728655D01*
X7921345Y10735106D01*
X7925816Y10737037D01*
X7930896Y10734294D01*
X7938211Y10726826D01*
X7948117Y10715853D01*
X7948117Y10693196D01*
X7963306Y10678007D01*
X7966405Y10663072D01*
X7968945Y10652201D01*
X7971688Y10644276D01*
X7975092Y10638231D01*
X7979613Y10633151D01*
X7984439Y10628477D01*
X7984490Y10618876D01*
X7985252Y10609122D01*
X7985963Y10603890D01*
X7989214Y10589260D01*
X8001203Y10576458D01*
X8004809Y10527284D01*
X8017662Y10505389D01*
X8021726Y10472267D01*
X8023555Y10460431D01*
X8024520Y10456519D01*
X8025739Y10453420D01*
X8027212Y10450779D01*
X8031734Y10445343D01*
X8036712Y10439806D01*
X8040166Y10403840D01*
X8042198Y10389311D01*
X8043367Y10384078D01*
X8044738Y10379913D01*
X8046313Y10376662D01*
X8048193Y10374071D01*
X8050377Y10371886D01*
X8054543Y10368432D01*
X8054543Y10362387D01*
X8055406Y10352328D01*
X8060385Y10316921D01*
X8072424Y10299192D01*
X8075015Y10275620D01*
X8077200Y10260838D01*
X8080705Y10243718D01*
X8093506Y10228529D01*
X8093659Y10205567D01*
X8094116Y10199268D01*
X8094878Y10193578D01*
X8095996Y10188448D01*
X8097418Y10183876D01*
X8099145Y10179812D01*
X8101228Y10176306D01*
X8103666Y10173309D01*
X8108746Y10167924D01*
X8114233Y10124186D01*
X8124190Y10109758D01*
X8127542Y10103459D01*
X8129270Y10097973D01*
X8130031Y10088575D01*
X8130641Y10084308D01*
X8131556Y10079990D01*
X8132622Y10076230D01*
X8135467Y10068153D01*
X8145221Y10065054D01*
X8146948Y10056012D01*
X8147456Y10051643D01*
X8147608Y10046462D01*
X8147456Y10041178D01*
X8146948Y10036352D01*
X8145221Y10025735D01*
X8139480Y10021163D01*
X8136940Y10018674D01*
X8134400Y10015220D01*
X8132064Y10011206D01*
X8128457Y10002977D01*
X8125968Y9998456D01*
X8123224Y9994239D01*
X8117890Y9987635D01*
X8115503Y9984028D01*
X8113674Y9980422D01*
X8111286Y9974072D01*
X8109000Y9970211D01*
X8106105Y9966198D01*
X8098942Y9958222D01*
X8094522Y9952634D01*
X8089950Y9946284D01*
X8081518Y9933178D01*
X8078266Y9927437D01*
X8076082Y9922814D01*
X8075269Y9919817D01*
X8075117Y9918090D01*
X8073948Y9914382D01*
X8071053Y9909505D01*
X8049361Y9930130D01*
X8049361Y9943642D01*
X8034223Y9957612D01*
X8028127Y9980980D01*
X8022183Y9987483D01*
X8019592Y9990785D01*
X8016900Y9995052D01*
X8014512Y9999624D01*
X8012684Y10004094D01*
X8009128Y10014204D01*
X7994853Y10024770D01*
X7994802Y10030155D01*
X7993329Y10036302D01*
X7989773Y10043668D01*
X7985506Y10049814D01*
X7980527Y10053167D01*
X7978597Y10055352D01*
X7976412Y10058552D01*
X7970113Y10069322D01*
X7965643Y10073335D01*
X7959547Y10075265D01*
X7950606Y10075722D01*
X7940548Y10075722D01*
X7933486Y10065867D01*
X7927136Y10058654D01*
X7920634Y10051796D01*
X7917180Y10046970D01*
X7913928Y10041534D01*
X7909001Y10031374D01*
X7906816Y10027462D01*
X7904886Y10024770D01*
X7902244Y10022941D01*
X7900517Y10020554D01*
X7898485Y10017048D01*
X7894269Y10008158D01*
X7891780Y10003840D01*
X7889392Y10000284D01*
X7882991Y9993274D01*
X7879181Y9987026D01*
X7876438Y9980472D01*
X7875422Y9974783D01*
X7875422Y9969652D01*
X7860334Y9958882D01*
X7853883Y9933889D01*
X7843316Y9929063D01*
X7836204Y9907524D01*
X7827924Y9905390D01*
X7822590Y9904577D01*
X7816189Y9904374D01*
X7809890Y9941610D01*
X7801305Y9950450D01*
X7799374Y9953091D01*
X7798003Y9955428D01*
X7797546Y9957206D01*
X7797241Y9959644D01*
X7795056Y9969652D01*
X7789468Y9991344D01*
X7777175Y10004348D01*
X7775346Y10014712D01*
X7773162Y10023500D01*
X7770164Y10031425D01*
X7766913Y10037165D01*
X7762900Y10040213D01*
X7761274Y10042398D01*
X7759344Y10045649D01*
X7755026Y10054132D01*
X7751927Y10058908D01*
X7748574Y10063378D01*
X7742377Y10070033D01*
X7740040Y10073132D01*
X7738414Y10075926D01*
X7737805Y10077958D01*
X7737500Y10079837D01*
X7736586Y10082072D01*
X7735214Y10084409D01*
X7733538Y10086543D01*
X7729220Y10091318D01*
X7723327Y10091318D01*
X7720482Y10091115D01*
X7717231Y10090607D01*
X7710881Y10088829D01*
X7704328Y10086340D01*
X7700518Y10079024D01*
X7698892Y10075418D01*
X7697317Y10070998D01*
X7694930Y10062006D01*
X7693101Y10052354D01*
X7678623Y10034117D01*
X7672374Y10008158D01*
X7662773Y10002977D01*
X7658201Y9988092D01*
X7656169Y9982149D01*
X7653985Y9976967D01*
X7651953Y9973106D01*
X7646670Y9967417D01*
X7643164Y9961270D01*
X7640167Y9953498D01*
X7638034Y9944862D01*
X7636205Y9934702D01*
X7623809Y9924948D01*
X7619898Y9903612D01*
X7617968Y9896297D01*
X7606131Y9891826D01*
X7599883Y9866934D01*
X7580020Y9848596D01*
X7572959Y9871964D01*
X7561630Y9876942D01*
X7556144Y9898837D01*
X7543393Y9908794D01*
X7541615Y9916363D01*
X7539431Y9922510D01*
X7536180Y9927844D01*
X7532522Y9931552D01*
X7528915Y9932974D01*
X7525918Y9932974D01*
X7519162Y9959289D01*
X7506766Y9964978D01*
X7501381Y9984892D01*
X7489393Y9992715D01*
X7483297Y10013188D01*
X7467853Y10024160D01*
X7467853Y10028123D01*
X7467244Y10030256D01*
X7465720Y10032949D01*
X7463434Y10035997D01*
X7457490Y10042499D01*
X7454138Y10047020D01*
X7451090Y10051897D01*
X7448702Y10056622D01*
X7443927Y10067340D01*
X7436408Y10072928D01*
X7433513Y10075367D01*
X7431125Y10077958D01*
X7429500Y10080294D01*
X7428484Y10083901D01*
X7427315Y10085832D01*
X7425639Y10087813D01*
X7423556Y10089540D01*
X7418222Y10093299D01*
X7409942Y10091318D01*
X7399680Y10087864D01*
X7392670Y10083190D01*
X7388656Y10076992D01*
X7387336Y10069017D01*
X7386624Y10066832D01*
X7384694Y10063784D01*
X7381748Y10060279D01*
X7378242Y10056723D01*
X7369098Y10048341D01*
X7365847Y10021265D01*
X7363002Y10019030D01*
X7361224Y10018014D01*
X7358532Y10016947D01*
X7355331Y10015982D01*
X7343698Y10013645D01*
X7335570Y10033965D01*
X7330440Y10036708D01*
X7328204Y10038334D01*
X7325817Y10040721D01*
X7323632Y10043566D01*
X7321905Y10046512D01*
X7318502Y10053624D01*
X7305040Y10060076D01*
X7301839Y10087406D01*
X7288530Y10098989D01*
X7283246Y10188651D01*
X7269886Y10216438D01*
X7265619Y10254640D01*
X7261301Y10261244D01*
X7257592Y10265918D01*
X7256018Y10267340D01*
X7254849Y10267848D01*
X7253782Y10269016D01*
X7252462Y10272115D01*
X7251039Y10276738D01*
X7246670Y10296956D01*
X7231583Y10312755D01*
X7231583Y10325354D01*
X7224115Y10332821D01*
X7220915Y10336479D01*
X7217714Y10341000D01*
X7214920Y10345724D01*
X7212838Y10350144D01*
X7208977Y10359999D01*
X7197852Y10365130D01*
X7192162Y10382402D01*
X7185914Y10385247D01*
X7183475Y10386618D01*
X7181494Y10388142D01*
X7180173Y10389768D01*
X7178344Y10394645D01*
X7174941Y10398353D01*
X7170369Y10401452D01*
X7165492Y10403230D01*
X7160412Y10404144D01*
X7157466Y10417098D01*
X7141260Y10424312D01*
X7135875Y10436098D01*
X7119569Y10439704D01*
X7103008Y10454233D01*
X7080961Y10460177D01*
X7083298Y10470845D01*
X7090105Y10496804D01*
X7098792Y10501477D01*
X7101331Y10509910D01*
X7102449Y10514685D01*
X7104684Y10529316D01*
X7107072Y10556392D01*
X7113981Y10570260D01*
X7111644Y10592308D01*
X7092340Y10613999D01*
X7089038Y10611967D01*
X7087463Y10610494D01*
X7085584Y10607954D01*
X7083755Y10604754D01*
X7082078Y10601248D01*
X7078472Y10592612D01*
X7073138Y10531500D01*
X7069023Y10529214D01*
X7065111Y10525150D01*
X7061453Y10518292D01*
X7058710Y10510266D01*
X7057644Y10502798D01*
X7057644Y10496194D01*
X7044639Y10491216D01*
X7036104Y10473334D01*
X7026554Y10470845D01*
X7021779Y10458145D01*
X7005929Y10451592D01*
X7004354Y10446766D01*
X7003237Y10444632D01*
X7001256Y10442346D01*
X6998716Y10440263D01*
X6993026Y10436860D01*
X6990181Y10434472D01*
X6987692Y10431830D01*
X6984187Y10426446D01*
X6981494Y10423448D01*
X6978243Y10420604D01*
X6974890Y10418216D01*
X6966813Y10413288D01*
X6966813Y10405922D01*
X6951167Y10400487D01*
X6946950Y10389108D01*
X6929170Y10380726D01*
X6927494Y10369092D01*
X6917690Y10369092D01*
X6875525Y10328046D01*
X6842099Y10295128D01*
X6836257Y10279075D01*
X6821678Y10273588D01*
X6818426Y10260736D01*
X6805980Y10255046D01*
X6802628Y10241686D01*
X6788403Y10234320D01*
X6781850Y10218521D01*
X6774535Y10218521D01*
X6769201Y10209530D01*
X6766814Y10205974D01*
X6764121Y10202773D01*
X6761480Y10200386D01*
X6759194Y10199065D01*
X6754469Y10197592D01*
X6751218Y10189667D01*
X6749338Y10186009D01*
X6746646Y10181894D01*
X6743547Y10177780D01*
X6740347Y10174173D01*
X6732727Y10166553D01*
X6727901Y10149027D01*
X6717487Y10146284D01*
X6713372Y10136327D01*
X6711238Y10132009D01*
X6708648Y10127538D01*
X6705853Y10123474D01*
X6703161Y10120325D01*
X6697167Y10114330D01*
X6691426Y10087508D01*
X6678675Y10074198D01*
X6672478Y10043312D01*
X6660997Y10034219D01*
X6654495Y10007041D01*
X6642811Y9997897D01*
X6636461Y9970617D01*
X6624523Y9957612D01*
X6618986Y9927132D01*
X6606286Y9914432D01*
X6600545Y9887610D01*
X6587693Y9874148D01*
X6581952Y9841687D01*
X6578295Y9840264D01*
X6574536Y9837267D01*
X6570980Y9831527D01*
X6567982Y9823805D01*
X6565900Y9814712D01*
X6564122Y9804196D01*
X6549440Y9798659D01*
X6545732Y9766808D01*
X6541109Y9766808D01*
X6537350Y9765995D01*
X6534200Y9763709D01*
X6531762Y9760051D01*
X6530187Y9755124D01*
X6529171Y9749942D01*
X6522770Y9750653D01*
X6520230Y9751161D01*
X6517995Y9751923D01*
X6516370Y9752888D01*
X6515506Y9753955D01*
X6513830Y9756800D01*
X6511035Y9760102D01*
X6507429Y9763709D01*
X6499301Y9866731D01*
X6487820Y9882327D01*
X6456057Y9882327D01*
X6458813Y9833711D01*
X6460134Y9813899D01*
X6461455Y9799269D01*
X6462928Y9788652D01*
X6464757Y9780930D01*
X6467043Y9774834D01*
X6473291Y9762896D01*
X6478117Y9730943D01*
X6479946Y9723831D01*
X6482130Y9720732D01*
X6485331Y9720072D01*
X6488988Y9720072D01*
X6492849Y9712604D01*
X6496456Y9707067D01*
X6501028Y9703816D01*
X6507988Y9702292D01*
X6518605Y9701885D01*
X6532118Y9701885D01*
X6537858Y9705949D01*
X6540093Y9707778D01*
X6541973Y9709810D01*
X6543192Y9711791D01*
X6543649Y9713468D01*
X6543649Y9716922D01*
X6556197Y9720072D01*
X6562090Y9737953D01*
X6573520Y9739528D01*
X6577075Y9750806D01*
X6578904Y9755682D01*
X6581394Y9760661D01*
X6584086Y9765182D01*
X6589369Y9771938D01*
X6591858Y9776002D01*
X6593941Y9780270D01*
X6595414Y9784232D01*
X6597853Y9793173D01*
X6610248Y9804704D01*
X6616446Y9836200D01*
X6626859Y9845598D01*
X6635089Y9874554D01*
X6646976Y9887508D01*
X6653123Y9917836D01*
X6665366Y9935819D01*
X6671360Y9965385D01*
X6683349Y9978390D01*
X6690156Y10001758D01*
X6701586Y10013238D01*
X6708038Y10043312D01*
X6712661Y10047173D01*
X6716674Y10051846D01*
X6719874Y10058247D01*
X6722008Y10065613D01*
X6722770Y10073182D01*
X6722770Y10080650D01*
X6738721Y10095585D01*
X6741617Y10117124D01*
X6747865Y10121188D01*
X6750659Y10123576D01*
X6753606Y10126878D01*
X6756349Y10130790D01*
X6760768Y10138968D01*
X6763512Y10143439D01*
X6766407Y10147554D01*
X6771741Y10153954D01*
X6774180Y10157460D01*
X6776262Y10160965D01*
X6777634Y10164013D01*
X6779971Y10170515D01*
X6795465Y10179354D01*
X6795465Y10189667D01*
X6809689Y10196525D01*
X6816344Y10210444D01*
X6826656Y10213695D01*
X6830415Y10220909D01*
X6832396Y10224058D01*
X6834987Y10227310D01*
X6837883Y10230205D01*
X6843318Y10234472D01*
X6845452Y10236657D01*
X6846874Y10238790D01*
X6847992Y10242499D01*
X6849668Y10244937D01*
X6852158Y10247579D01*
X6855155Y10250068D01*
X6862978Y10255859D01*
X6868464Y10267238D01*
X6870953Y10271810D01*
X6873544Y10275773D01*
X6876034Y10278668D01*
X6881368Y10282580D01*
X6887616Y10288016D01*
X6895896Y10295686D01*
X6920484Y10319359D01*
X6930390Y10328249D01*
X6938619Y10335260D01*
X6948017Y10342626D01*
X6955180Y10348620D01*
X6974078Y10366146D01*
X6978954Y10370362D01*
X6982714Y10373207D01*
X6986320Y10374934D01*
X6988251Y10376662D01*
X6990435Y10379202D01*
X6995058Y10385856D01*
X6998360Y10389463D01*
X7001967Y10392714D01*
X7005472Y10395254D01*
X7013549Y10400182D01*
X7013549Y10408158D01*
X7026554Y10413136D01*
X7032701Y10426547D01*
X7050328Y10433913D01*
X7053072Y10444327D01*
X7062876Y10431881D01*
X7089444Y10425074D01*
X7094829Y10413187D01*
X7114794Y10407853D01*
X7114794Y10404398D01*
X7116114Y10401960D01*
X7119721Y10397845D01*
X7125106Y10392664D01*
X7138314Y10381183D01*
X7143953Y10375798D01*
X7148017Y10371429D01*
X7151166Y10366451D01*
X7153554Y10363606D01*
X7156703Y10360507D01*
X7160310Y10357510D01*
X7169302Y10350652D01*
X7169302Y10343032D01*
X7182307Y10337088D01*
X7187336Y10318496D01*
X7202322Y10302087D01*
X7205624Y10281208D01*
X7219086Y10270642D01*
X7221778Y10248087D01*
X7223556Y10240416D01*
X7226300Y10234726D01*
X7230618Y10229037D01*
X7237374Y10220960D01*
X7243876Y10139324D01*
X7254646Y10113365D01*
X7259828Y10071862D01*
X7272375Y10061041D01*
X7274052Y10052100D01*
X7276287Y10044379D01*
X7279589Y10037876D01*
X7283450Y10033304D01*
X7287259Y10031628D01*
X7288733Y10031323D01*
X7290155Y10030460D01*
X7291374Y10029291D01*
X7292238Y10027767D01*
X7293660Y10023957D01*
X7287971Y10018471D01*
X7284720Y10016337D01*
X7283551Y10016032D01*
X7282383Y10015270D01*
X7280960Y10013188D01*
X7279386Y10010089D01*
X7274458Y9996576D01*
X7274712Y9926472D01*
X7278014Y9916769D01*
X7279640Y9912807D01*
X7281570Y9909200D01*
X7283653Y9906355D01*
X7287463Y9903053D01*
X7289393Y9900412D01*
X7291222Y9897160D01*
X7292695Y9893604D01*
X7295540Y9884918D01*
X7300772Y9882581D01*
X7303109Y9881108D01*
X7305649Y9878822D01*
X7308037Y9876078D01*
X7310018Y9873183D01*
X7314031Y9866122D01*
X7338059Y9862566D01*
X7337856Y9843414D01*
X7334250Y9838588D01*
X7332725Y9835946D01*
X7331202Y9832289D01*
X7329881Y9828022D01*
X7328916Y9823754D01*
X7327239Y9813645D01*
X7314692Y9801860D01*
X7309459Y9782962D01*
X7299248Y9780320D01*
X7293203Y9765538D01*
X7291476Y9762134D01*
X7290053Y9759848D01*
X7289038Y9759035D01*
X7287818Y9758476D01*
X7283145Y9754971D01*
X7273137Y9745827D01*
X7273137Y9733076D01*
X7269124Y9733076D01*
X7262825Y9731502D01*
X7254849Y9727641D01*
X7247432Y9722713D01*
X7242809Y9718090D01*
X7239812Y9713010D01*
X7223759Y9709810D01*
X7218273Y9697821D01*
X7192721Y9688728D01*
X7187387Y9678720D01*
X7165594Y9672828D01*
X7154925Y9660432D01*
X7129170Y9655606D01*
X7117892Y9642500D01*
X7102856Y9638588D01*
X7096455Y9636607D01*
X7090156Y9634270D01*
X7084669Y9631781D01*
X7080758Y9629444D01*
X7073747Y9624263D01*
X7025233Y9616440D01*
X7016496Y9605772D01*
X6957720Y9600082D01*
X6931101Y9588042D01*
X6894880Y9584588D01*
X6881164Y9582810D01*
X6868312Y9580676D01*
X6856679Y9578289D01*
X6846519Y9575596D01*
X6838289Y9572802D01*
X6829044Y9568535D01*
X6690309Y9568230D01*
X6665163Y9580575D01*
X6613144Y9587382D01*
X6608318Y9592513D01*
X6604253Y9596221D01*
X6599123Y9598761D01*
X6590944Y9600844D01*
X6561074Y9605670D01*
X6556248Y9610852D01*
X6551269Y9614408D01*
X6543954Y9617811D01*
X6535978Y9620402D01*
X6529120Y9621418D01*
X6527342Y9622028D01*
X6524701Y9623704D01*
X6521500Y9626142D01*
X6510070Y9636912D01*
X6486956Y9642703D01*
X6483959Y9654743D01*
X6468262Y9658197D01*
X6464350Y9665766D01*
X6462572Y9668713D01*
X6460642Y9671151D01*
X6458813Y9672777D01*
X6455156Y9674352D01*
X6451803Y9676993D01*
X6447688Y9680854D01*
X6443268Y9685426D01*
X6435090Y9695078D01*
X6432194Y9699193D01*
X6430619Y9702241D01*
X6429197Y9706660D01*
X6414770Y9711690D01*
X6409791Y9729165D01*
X6404051Y9731705D01*
X6401816Y9732924D01*
X6399936Y9734296D01*
X6398717Y9735667D01*
X6398260Y9736836D01*
X6397955Y9738715D01*
X6395669Y9745929D01*
X6389827Y9761474D01*
X6380276Y9764522D01*
X6375095Y9783216D01*
X6361836Y9797034D01*
X6355994Y9830054D01*
X6344005Y9842093D01*
X6341262Y9867239D01*
X6339890Y9876129D01*
X6338265Y9884664D01*
X6336487Y9892639D01*
X6334607Y9899904D01*
X6332626Y9906152D01*
X6330645Y9911181D01*
X6328714Y9914737D01*
X6324295Y9921290D01*
X6287956Y9921290D01*
X6291529Y9913467D01*
X6295237Y9875774D01*
X6296304Y9867747D01*
X6297422Y9861296D01*
X6298641Y9856216D01*
X6300063Y9852253D01*
X6301740Y9849256D01*
X6303670Y9847072D01*
X6306007Y9845446D01*
X6309715Y9843363D01*
X6314694Y9802977D01*
X6317843Y9799167D01*
X6319367Y9797694D01*
X6321094Y9796475D01*
X6322822Y9795662D01*
X6324396Y9795357D01*
X6327749Y9795357D01*
X6333744Y9764268D01*
X6348933Y9753498D01*
X6348933Y9748215D01*
X6350203Y9742525D01*
X6353251Y9735820D01*
X6356858Y9730232D01*
X6361176Y9726980D01*
X6363004Y9724491D01*
X6365240Y9720884D01*
X6373114Y9704984D01*
X6385306Y9699447D01*
X6385356Y9687610D01*
X6401054Y9669322D01*
X6408928Y9660534D01*
X6416192Y9653270D01*
X6424472Y9645802D01*
X6441084Y9631527D01*
X6455613Y9628530D01*
X6462928Y9614408D01*
X6487820Y9607651D01*
X6498234Y9596221D01*
X6509257Y9593173D01*
X6513525Y9591751D01*
X6517030Y9590278D01*
X6519418Y9588804D01*
X6522720Y9584334D01*
X6529070Y9580880D01*
X6538163Y9577882D01*
X6548678Y9575800D01*
X6562293Y9573971D01*
X6572402Y9565741D01*
X6575501Y9563709D01*
X6578650Y9562033D01*
X6582105Y9560661D01*
X6586169Y9559493D01*
X6591046Y9558477D01*
X6604203Y9556597D01*
X6622034Y9554362D01*
X6634022Y9543135D01*
X6643979Y9540798D01*
X6649313Y9539884D01*
X6656374Y9539122D01*
X6672173Y9538360D01*
X6690309Y9538258D01*
X6700944Y9535769D01*
X6824065Y9535820D01*
X6833108Y9536176D01*
X6864045Y9538360D01*
X6896811Y9541205D01*
X6920636Y9544100D01*
X6930491Y9554006D01*
X6967829Y9557867D01*
X6984796Y9560255D01*
X6991248Y9561576D01*
X6996430Y9562947D01*
X7000494Y9564471D01*
X7003440Y9566097D01*
X7005421Y9567875D01*
X7008368Y9571329D01*
X7062876Y9577832D01*
X7081875Y9590684D01*
X7113117Y9596170D01*
X7125106Y9608159D01*
X7154672Y9613646D01*
X7160666Y9619284D01*
X7163968Y9621774D01*
X7168540Y9624466D01*
X7173772Y9627006D01*
X7179005Y9629038D01*
X7191349Y9633102D01*
X7196124Y9643973D01*
X7218934Y9650069D01*
X7231481Y9663582D01*
X7248448Y9667036D01*
X7255256Y9681159D01*
X7258862Y9681159D01*
X7260081Y9681413D01*
X7261809Y9682276D01*
X7266686Y9685731D01*
X7273594Y9691471D01*
X7282484Y9699498D01*
X7293305Y9709759D01*
X7322718Y9738868D01*
X7325715Y9753854D01*
X7328408Y9753854D01*
X7332268Y9755225D01*
X7336231Y9758629D01*
X7339380Y9762998D01*
X7340650Y9767214D01*
X7340650Y9771938D01*
X7356297Y9785908D01*
X7359650Y9806736D01*
X7365593Y9812274D01*
X7368133Y9814966D01*
X7370572Y9818166D01*
X7372654Y9821418D01*
X7374077Y9824415D01*
X7376566Y9831019D01*
X7379868Y9916058D01*
X7375347Y9970617D01*
X7379208Y9988296D01*
X7392822Y9999167D01*
X7396683Y10027716D01*
X7405776Y10037318D01*
X7410602Y10043414D01*
X7414920Y10050678D01*
X7418019Y10048798D01*
X7419238Y10047630D01*
X7420203Y10045903D01*
X7420864Y10043769D01*
X7421118Y10041585D01*
X7421118Y10036302D01*
X7436205Y10022179D01*
X7442809Y10000183D01*
X7457440Y9989718D01*
X7457440Y9977272D01*
X7473391Y9959136D01*
X7478522Y9940493D01*
X7490358Y9935108D01*
X7496911Y9909352D01*
X7509306Y9901224D01*
X7514590Y9881717D01*
X7520838Y9875469D01*
X7523632Y9872167D01*
X7526578Y9867849D01*
X7529322Y9863023D01*
X7531506Y9858349D01*
X7535824Y9847478D01*
X7544663Y9844684D01*
X7551064Y9820757D01*
X7561783Y9811156D01*
X7564221Y9808464D01*
X7565898Y9806228D01*
X7566812Y9803384D01*
X7567726Y9801606D01*
X7570774Y9797491D01*
X7575092Y9792766D01*
X7589672Y9792766D01*
X7607706Y9808565D01*
X7615834Y9833051D01*
X7626045Y9839452D01*
X7634274Y9867798D01*
X7643926Y9870846D01*
X7646771Y9878923D01*
X7648752Y9886289D01*
X7649362Y9889845D01*
X7649565Y9892741D01*
X7649565Y9898430D01*
X7664551Y9914128D01*
X7668259Y9936835D01*
X7682890Y9950450D01*
X7686497Y9974529D01*
X7693812Y9983724D01*
X7696758Y9987889D01*
X7699400Y9992461D01*
X7701432Y9996881D01*
X7702600Y10000589D01*
X7707122Y10023856D01*
X7716672Y10028986D01*
X7725359Y10058755D01*
X7728661Y10054234D01*
X7730083Y10051389D01*
X7731506Y10047020D01*
X7732826Y10041737D01*
X7733792Y10036098D01*
X7735570Y10022535D01*
X7747558Y10009530D01*
X7753146Y9970617D01*
X7764170Y9961676D01*
X7766608Y9944252D01*
X7768539Y9933584D01*
X7770926Y9925862D01*
X7774127Y9920528D01*
X7778496Y9916718D01*
X7781493Y9914788D01*
X7787640Y9878263D01*
X7799679Y9863937D01*
X7803388Y9844227D01*
X7814818Y9830917D01*
X7821168Y9832543D01*
X7824368Y9833813D01*
X7828381Y9836150D01*
X7832750Y9839198D01*
X7836865Y9842652D01*
X7846161Y9851186D01*
X7849108Y9859975D01*
X7850733Y9863836D01*
X7852968Y9867950D01*
X7855610Y9871862D01*
X7858252Y9874961D01*
X7864449Y9881158D01*
X7870342Y9904628D01*
X7874304Y9906101D01*
X7878114Y9909251D01*
X7881874Y9914890D01*
X7884668Y9921595D01*
X7885785Y9927793D01*
X7885785Y9933228D01*
X7901025Y9947249D01*
X7907121Y9971684D01*
X7918907Y9979406D01*
X7920685Y9986518D01*
X7922006Y9989972D01*
X7924139Y9994036D01*
X7926831Y9998252D01*
X7929829Y10002062D01*
X7937195Y10010394D01*
X7939887Y10026192D01*
X7941513Y10033254D01*
X7942072Y10034879D01*
X7943291Y10036911D01*
X7953654Y10029596D01*
X7958836Y10026802D01*
X7960359Y10026396D01*
X7961528Y10025380D01*
X7963001Y10022586D01*
X7964525Y10018471D01*
X7966049Y10013442D01*
X7969351Y10000437D01*
X7982508Y9990074D01*
X7987030Y9965385D01*
X7999933Y9954056D01*
X8004911Y9932009D01*
X8020812Y9917125D01*
X8020812Y9910927D01*
X8021624Y9903917D01*
X8023961Y9896856D01*
X8027517Y9890404D01*
X8032191Y9884968D01*
X8038134Y9879431D01*
X8041487Y9858552D01*
X8046110Y9854387D01*
X8048802Y9852558D01*
X8052714Y9850678D01*
X8057286Y9848951D01*
X8062061Y9847630D01*
X8073339Y9845090D01*
X8085277Y9857028D01*
X8088731Y9879990D01*
X8099653Y9884918D01*
X8103260Y9895941D01*
X8104886Y9900259D01*
X8106562Y9903764D01*
X8108086Y9906101D01*
X8112861Y9909606D01*
X8117027Y9915855D01*
X8120532Y9923322D01*
X8122056Y9929571D01*
X8122056Y9935260D01*
X8136280Y9942068D01*
X8139938Y9949840D01*
X8141970Y9953548D01*
X8144713Y9957866D01*
X8147913Y9962286D01*
X8154111Y9970211D01*
X8156803Y9974529D01*
X8158886Y9978694D01*
X8160054Y9982200D01*
X8161528Y9989464D01*
X8173669Y9995001D01*
X8179816Y10015524D01*
X8194751Y10018522D01*
X8194903Y10023906D01*
X8195462Y10025430D01*
X8196275Y10026751D01*
X8197240Y10027666D01*
X8199678Y10029190D01*
X8199983Y9855708D01*
X8193786Y9840925D01*
X8192566Y9837470D01*
X8190585Y9829546D01*
X8188909Y9819436D01*
X8187436Y9805974D01*
X8186013Y9788194D01*
X8182254Y9728098D01*
X8177072Y9720834D01*
X8174888Y9717379D01*
X8172958Y9713468D01*
X8171180Y9708997D01*
X8169554Y9703968D01*
X8168131Y9698278D01*
X8166862Y9691979D01*
X8164728Y9677247D01*
X8162950Y9661652D01*
X8150301Y9651288D01*
X8146288Y9621367D01*
X8140953Y9615576D01*
X8136280Y9609734D01*
X8132775Y9603943D01*
X8130590Y9598406D01*
X8129828Y9593427D01*
X8129828Y9588449D01*
X8114588Y9572498D01*
X8108086Y9550806D01*
X8104581Y9549434D01*
X8100720Y9545675D01*
X8096199Y9538462D01*
X8092440Y9530435D01*
X8090865Y9524238D01*
X8090865Y9520326D01*
X8077962Y9511842D01*
X8072678Y9492234D01*
X8062518Y9489592D01*
X8049006Y9460992D01*
X8038592Y9458248D01*
X8035899Y9447936D01*
X8020710Y9441637D01*
X8012887Y9425127D01*
X7987233Y9415881D01*
X7984134Y9406128D01*
X7974990Y9403588D01*
X7970824Y9402114D01*
X7966151Y9399981D01*
X7961579Y9397441D01*
X7953248Y9392005D01*
X7947456Y9389110D01*
X7941005Y9386366D01*
X7934604Y9384233D01*
X7919770Y9379915D01*
X7913065Y9370314D01*
X7879334Y9363100D01*
X7874406Y9351975D01*
X7849260Y9348622D01*
X7842554Y9341815D01*
X7839506Y9337700D01*
X7838744Y9336176D01*
X7837728Y9333230D01*
X7803896Y9328048D01*
X7790434Y9325305D01*
X7785303Y9323832D01*
X7781188Y9322308D01*
X7777937Y9320733D01*
X7775549Y9319006D01*
X7773924Y9317177D01*
X7772400Y9314789D01*
X7694980Y9312198D01*
X7658455Y9304680D01*
X7641183Y9300464D01*
X7636611Y9299041D01*
X7630109Y9296450D01*
X7576921Y9293555D01*
X7559802Y9292336D01*
X7545374Y9291015D01*
X7535468Y9289796D01*
X7528661Y9288322D01*
X7516571Y9286392D01*
X7501381Y9284614D01*
X7485532Y9283141D01*
X7471460Y9282226D01*
X7461656Y9282125D01*
X7454849Y9282734D01*
X7447432Y9282582D01*
X7437881Y9281922D01*
X7427214Y9280906D01*
X7400848Y9277858D01*
X7384338Y9291726D01*
X7365644Y9291777D01*
X7342124Y9292894D01*
X7287412Y9297009D01*
X7264044Y9309404D01*
X7204354Y9315856D01*
X7189927Y9327896D01*
X7177176Y9329775D01*
X7145172Y9333534D01*
X7135672Y9345625D01*
X7099147Y9351010D01*
X7083501Y9364167D01*
X7052665Y9370263D01*
X7045045Y9381845D01*
X7014768Y9387789D01*
X7009638Y9399473D01*
X6977888Y9406280D01*
X6972553Y9417964D01*
X6943953Y9424822D01*
X6938467Y9436862D01*
X6918299Y9442297D01*
X6912457Y9455150D01*
X6888530Y9461195D01*
X6883908Y9473336D01*
X6870547Y9476638D01*
X6862876Y9491573D01*
X6849770Y9494824D01*
X6846214Y9501784D01*
X6844284Y9504730D01*
X6841693Y9507728D01*
X6838746Y9510369D01*
X6835851Y9512300D01*
X6829044Y9515957D01*
X6827570Y9522002D01*
X6826503Y9524695D01*
X6824878Y9527438D01*
X6822795Y9529978D01*
X6820560Y9531908D01*
X6815074Y9535769D01*
X6700944Y9535769D01*
X6723735Y9530384D01*
X6745122Y9533585D01*
X6748525Y9529470D01*
X6750151Y9527895D01*
X6751929Y9526574D01*
X6753758Y9525711D01*
X6760159Y9524034D01*
X6766610Y9520834D01*
X6772249Y9517176D01*
X6774688Y9514484D01*
X6776161Y9512096D01*
X6786168Y9499955D01*
X6812280Y9470644D01*
X6836714Y9461957D01*
X6839610Y9450476D01*
X6857492Y9444583D01*
X6860844Y9434017D01*
X6869531Y9430410D01*
X6873443Y9428480D01*
X6877558Y9425990D01*
X6881418Y9423196D01*
X6884568Y9420453D01*
X6890918Y9414103D01*
X6910984Y9408718D01*
X6916166Y9396984D01*
X6926783Y9393021D01*
X6931507Y9390938D01*
X6936587Y9388246D01*
X6941413Y9385249D01*
X6945375Y9382252D01*
X6953453Y9375444D01*
X6962698Y9373717D01*
X6966305Y9372854D01*
X6969252Y9371787D01*
X6971284Y9370618D01*
X6974128Y9366046D01*
X6979767Y9362236D01*
X6987641Y9358833D01*
X6996480Y9356394D01*
X7007809Y9354312D01*
X7021779Y9341307D01*
X7051192Y9335363D01*
X7061555Y9322765D01*
X7092645Y9318955D01*
X7095441Y9299498D01*
X7150760Y9299498D01*
X7152335Y9294571D01*
X7153249Y9292336D01*
X7154672Y9290507D01*
X7156703Y9288983D01*
X7159752Y9287713D01*
X7163917Y9286646D01*
X7176820Y9284716D01*
X7195159Y9282582D01*
X7202881Y9281363D01*
X7208316Y9280144D01*
X7210704Y9279077D01*
X7211872Y9277908D01*
X7216902Y9274556D01*
X7228128Y9268714D01*
X7280757Y9263938D01*
X7281220Y9263380D01*
X7685989Y9263380D01*
X7689189Y9264294D01*
X7699756Y9265716D01*
X7720685Y9268053D01*
X7748981Y9270898D01*
X7767675Y9280652D01*
X7805318Y9281363D01*
X7805318Y9243314D01*
X7818577Y9217761D01*
X7822488Y9179356D01*
X7829042Y9173870D01*
X7831836Y9171127D01*
X7834579Y9167723D01*
X7836966Y9164066D01*
X7840725Y9156750D01*
X7843926Y9152077D01*
X7847888Y9147200D01*
X7859420Y9135008D01*
X7861604Y9132163D01*
X7862417Y9130487D01*
X7865516Y9127388D01*
X7872628Y9123121D01*
X7880756Y9119412D01*
X7886700Y9117787D01*
X7890408Y9117787D01*
X7893151Y9107170D01*
X7914233Y9098889D01*
X7917180Y9089593D01*
X7941614Y9080398D01*
X7955381Y9065869D01*
X7965948Y9065869D01*
X7983169Y9050172D01*
X8003286Y9046921D01*
X8016443Y9032138D01*
X8023656Y9032138D01*
X8031225Y9031325D01*
X8038338Y9029141D01*
X8044383Y9025839D01*
X8048650Y9021673D01*
X8052155Y9016695D01*
X8073542Y9010954D01*
X8096046Y8988399D01*
X8092846Y8987231D01*
X8090153Y8986875D01*
X8078724Y8986926D01*
X8053222Y8988704D01*
X8034274Y8998204D01*
X8022081Y8988755D01*
X8010398Y8986977D01*
X8005419Y8985961D01*
X8000492Y8984589D01*
X7996123Y8982964D01*
X7992973Y8981389D01*
X7987233Y8977630D01*
X7981391Y8955887D01*
X7981747Y8953296D01*
X8014157Y8953296D01*
X8015274Y8955024D01*
X8017814Y8956090D01*
X8021777Y8956497D01*
X8037677Y8955532D01*
X8038541Y8949232D01*
X8038744Y8945626D01*
X8038642Y8940546D01*
X8037525Y8928455D01*
X8035645Y8914028D01*
X8033410Y8922156D01*
X8031937Y8925966D01*
X8029600Y8930284D01*
X8026755Y8934602D01*
X8019237Y8943390D01*
X8016138Y8947556D01*
X8014462Y8950807D01*
X8014157Y8953296D01*
X7981747Y8953296D01*
X7983016Y8944051D01*
X7984896Y8933992D01*
X7987334Y8925661D01*
X7990027Y8920022D01*
X7993989Y8916771D01*
X7996123Y8913723D01*
X7998714Y8909151D01*
X8004149Y8898077D01*
X8006740Y8893556D01*
X8008924Y8890457D01*
X8010347Y8889339D01*
X8012633Y8888222D01*
X8016544Y8885123D01*
X8026857Y8875471D01*
X8036915Y8864803D01*
X8040471Y8860434D01*
X8043367Y8855557D01*
X8044891Y8853728D01*
X8046720Y8852204D01*
X8052358Y8849309D01*
X8054797Y8846921D01*
X8055864Y8844178D01*
X8055457Y8841232D01*
X8054238Y8838031D01*
X8043367Y8840419D01*
X8038947Y8841587D01*
X8034934Y8843060D01*
X8031734Y8844534D01*
X8029905Y8845956D01*
X8025536Y8850376D01*
X8020507Y8853678D01*
X8014106Y8856116D01*
X8005825Y8858097D01*
X7992719Y8860586D01*
X7980121Y8873134D01*
X7952689Y8879027D01*
X7942783Y8891574D01*
X7913573Y8897670D01*
X7900466Y8909812D01*
X7874558Y8916009D01*
X7863738Y8928506D01*
X7838541Y8932011D01*
X7822742Y8933180D01*
X7815376Y8933281D01*
X7808518Y8933129D01*
X7802168Y8932621D01*
X7796530Y8931808D01*
X7791602Y8930741D01*
X7781798Y8927998D01*
X7774076Y8917381D01*
X7771079Y8912910D01*
X7768640Y8908643D01*
X7767015Y8905036D01*
X7765796Y8899855D01*
X7764119Y8895435D01*
X7761681Y8890000D01*
X7751013Y8869883D01*
X7750851Y8862466D01*
X7792161Y8862466D01*
X7795717Y8884716D01*
X7809230Y8899398D01*
X7822692Y8899702D01*
X7827416Y8894521D01*
X7829600Y8892489D01*
X7832394Y8890660D01*
X7835798Y8888984D01*
X7839862Y8887460D01*
X7844637Y8886088D01*
X7856372Y8883751D01*
X7876031Y8881160D01*
X7873796Y8878925D01*
X7871917Y8878062D01*
X7862976Y8875674D01*
X7850682Y8873185D01*
X7839608Y8871458D01*
X7835950Y8871204D01*
X7834833Y8870797D01*
X7831277Y8868003D01*
X7824419Y8860790D01*
X7798816Y8855964D01*
X7792161Y8862466D01*
X7750851Y8862466D01*
X7750505Y8852509D01*
X7749336Y8840419D01*
X7747558Y8829344D01*
X7746593Y8824976D01*
X7745628Y8821775D01*
X7744663Y8820048D01*
X7742936Y8818321D01*
X7739786Y8821420D01*
X7736535Y8826957D01*
X7733385Y8835898D01*
X7731048Y8846007D01*
X7730083Y8855100D01*
X7729880Y8858808D01*
X7729321Y8862568D01*
X7728508Y8865870D01*
X7726070Y8872118D01*
X7724648Y8877604D01*
X7723276Y8884564D01*
X7722057Y8892590D01*
X7720177Y8910878D01*
X7718501Y8949029D01*
X7717739Y8957259D01*
X7716774Y8964523D01*
X7715554Y8970772D01*
X7714183Y8975902D01*
X7712557Y8979865D01*
X7710830Y8982608D01*
X7707223Y8986672D01*
X7704937Y9026042D01*
X7701991Y9097721D01*
X7701025Y9114282D01*
X7699908Y9128150D01*
X7697063Y9151569D01*
X7696504Y9158478D01*
X7696301Y9164015D01*
X7696301Y9175191D01*
X7689240Y9189212D01*
X7685989Y9263380D01*
X7281220Y9263380D01*
X7291120Y9251492D01*
X7291324Y9199067D01*
X7283805Y9183979D01*
X7282891Y9131706D01*
X7286752Y9124137D01*
X7288479Y9119616D01*
X7290308Y9113012D01*
X7292035Y9105188D01*
X7296251Y9077553D01*
X7302601Y9072067D01*
X7305446Y9069273D01*
X7308392Y9065717D01*
X7311085Y9061958D01*
X7313269Y9058300D01*
X7317536Y9050070D01*
X7329779Y9045397D01*
X7333030Y9035288D01*
X7340803Y9032036D01*
X7344562Y9030208D01*
X7349032Y9027617D01*
X7353655Y9024569D01*
X7362240Y9018371D01*
X7367117Y9015476D01*
X7371943Y9013088D01*
X7376109Y9011564D01*
X7385050Y9009126D01*
X7395413Y8995918D01*
X7417206Y8989466D01*
X7426401Y8977985D01*
X7436053Y8974886D01*
X7440371Y8973210D01*
X7444841Y8970924D01*
X7448956Y8968384D01*
X7452258Y8965793D01*
X7458760Y8959799D01*
X7483856Y8953500D01*
X7476947Y8949131D01*
X7397038Y8949029D01*
X7384948Y8936431D01*
X7381646Y8933535D01*
X7378953Y8931605D01*
X7375804Y8930386D01*
X7374026Y8928963D01*
X7372045Y8926830D01*
X7370165Y8924290D01*
X7365847Y8917686D01*
X7367336Y8898128D01*
X7408214Y8898128D01*
X7416698Y8907526D01*
X7456830Y8907526D01*
X7459929Y8903716D01*
X7461808Y8900464D01*
X7461351Y8897569D01*
X7458303Y8894876D01*
X7452563Y8892032D01*
X7444943Y8888882D01*
X7441793Y8881364D01*
X7439761Y8877706D01*
X7436561Y8873286D01*
X7432548Y8868664D01*
X7428280Y8864447D01*
X7417866Y8855049D01*
X7415631Y8858554D01*
X7414768Y8860637D01*
X7414056Y8863736D01*
X7413548Y8867394D01*
X7413142Y8875420D01*
X7412583Y8880246D01*
X7411770Y8885021D01*
X7408214Y8898128D01*
X7367336Y8898128D01*
X7368895Y8877655D01*
X7382916Y8865616D01*
X7387437Y8841333D01*
X7402931Y8826754D01*
X7402931Y8817965D01*
X7403693Y8809685D01*
X7405776Y8802014D01*
X7408976Y8795461D01*
X7413142Y8790686D01*
X7417917Y8786774D01*
X7426706Y8759545D01*
X7436866Y8752433D01*
X7441793Y8735161D01*
X7435392Y8730996D01*
X7419797Y8734094D01*
X7415936Y8738920D01*
X7413650Y8741105D01*
X7410348Y8743492D01*
X7406487Y8745778D01*
X7398207Y8749792D01*
X7393635Y8752433D01*
X7389368Y8755329D01*
X7382509Y8760917D01*
X7378446Y8763660D01*
X7374229Y8765997D01*
X7370368Y8767724D01*
X7361834Y8770823D01*
X7356551Y8782405D01*
X7338059Y8788501D01*
X7338059Y8792006D01*
X7337450Y8793784D01*
X7335926Y8796070D01*
X7333691Y8798560D01*
X7313726Y8815070D01*
X7309866Y8817762D01*
X7305903Y8820150D01*
X7302296Y8821978D01*
X7294422Y8825484D01*
X7286040Y8839606D01*
X7271003Y8842908D01*
X7267803Y8855760D01*
X7251852Y8858961D01*
X7249210Y8866428D01*
X7246162Y8872372D01*
X7241540Y8876233D01*
X7234783Y8878316D01*
X7225182Y8878976D01*
X7213193Y8878976D01*
X7206792Y8872575D01*
X7204354Y8869883D01*
X7202322Y8867190D01*
X7200950Y8864854D01*
X7199934Y8861501D01*
X7198614Y8859266D01*
X7196581Y8856776D01*
X7194143Y8854236D01*
X7187895Y8848445D01*
X7184288Y8824671D01*
X7183276Y8824010D01*
X7212838Y8824010D01*
X7216495Y8829903D01*
X7238085Y8828328D01*
X7237679Y8825738D01*
X7236764Y8824569D01*
X7234580Y8823248D01*
X7231481Y8821978D01*
X7218172Y8818626D01*
X7212838Y8824010D01*
X7183276Y8824010D01*
X7178141Y8820658D01*
X7175449Y8818422D01*
X7172553Y8815425D01*
X7169912Y8811971D01*
X7167829Y8808516D01*
X7163612Y8800439D01*
X7156145Y8807907D01*
X7156754Y8862466D01*
X7158634Y8936380D01*
X7160666Y8994241D01*
X7162749Y9040063D01*
X7164222Y9060484D01*
X7167168Y9083548D01*
X7161936Y9093250D01*
X7159498Y9163862D01*
X7157974Y9192514D01*
X7156246Y9215780D01*
X7152944Y9248394D01*
X7143902Y9257385D01*
X7141972Y9299498D01*
X7095441Y9299498D01*
X7096709Y9290659D01*
X7110018Y9261856D01*
X7114844Y9147657D01*
X7127748Y9096806D01*
X7127748Y8974683D01*
X7123836Y8962542D01*
X7120381Y8948978D01*
X7118807Y8941003D01*
X7115200Y8916619D01*
X7124649Y8895842D01*
X7128103Y8861399D01*
X7114133Y8847429D01*
X7116419Y8787841D01*
X7123379Y8781389D01*
X7126173Y8778392D01*
X7128713Y8774938D01*
X7130745Y8771483D01*
X7131913Y8768486D01*
X7133539Y8761984D01*
X7138263Y8759494D01*
X7143191Y8757462D01*
X7148626Y8756446D01*
X7154164Y8756294D01*
X7159650Y8757056D01*
X7164831Y8758529D01*
X7169403Y8760815D01*
X7173163Y8763762D01*
X7175804Y8767318D01*
X7179513Y8774480D01*
X7190333Y8776665D01*
X7208266Y8778951D01*
X7256119Y8783472D01*
X7275169Y8777884D01*
X7288479Y8774887D01*
X7306056Y8772347D01*
X7317435Y8756954D01*
X7327493Y8756954D01*
X7335520Y8741460D01*
X7342225Y8739784D01*
X7345730Y8738311D01*
X7350353Y8735618D01*
X7355484Y8732062D01*
X7365288Y8724138D01*
X7369809Y8720937D01*
X7373569Y8718804D01*
X7377938Y8717483D01*
X7380376Y8716010D01*
X7383068Y8713876D01*
X7385608Y8711234D01*
X7391450Y8704478D01*
X7439710Y8699347D01*
X7448245Y8700922D01*
X7455458Y8703259D01*
X7460843Y8707475D01*
X7464755Y8714028D01*
X7467600Y8723376D01*
X7470241Y8735161D01*
X7466584Y8748928D01*
X7464653Y8755024D01*
X7462062Y8761476D01*
X7459167Y8767470D01*
X7456322Y8772296D01*
X7449667Y8781897D01*
X7449667Y8845042D01*
X7454849Y8847785D01*
X7457135Y8849461D01*
X7459675Y8852052D01*
X7462062Y8855100D01*
X7464044Y8858402D01*
X7468108Y8866225D01*
X7480909Y8871102D01*
X7483398Y8877706D01*
X7484770Y8880398D01*
X7486548Y8882837D01*
X7488529Y8884767D01*
X7492847Y8887104D01*
X7495794Y8889238D01*
X7498994Y8891930D01*
X7502093Y8894927D01*
X7509103Y8902344D01*
X7548016Y8902344D01*
X7562037Y8914384D01*
X7558328Y8939022D01*
X7553248Y8944152D01*
X7550658Y8946235D01*
X7547457Y8948166D01*
X7543952Y8949740D01*
X7540650Y8950706D01*
X7533182Y8952230D01*
X7522921Y8962644D01*
X7519924Y8965031D01*
X7517282Y8966657D01*
X7513523Y8967825D01*
X7510983Y8969502D01*
X7508036Y8971991D01*
X7505039Y8975039D01*
X7498080Y8982862D01*
X7488174Y8985504D01*
X7484313Y8986774D01*
X7481163Y8988145D01*
X7479030Y8989517D01*
X7475626Y8994343D01*
X7469378Y8998559D01*
X7461910Y9002064D01*
X7455509Y9003538D01*
X7449718Y9003588D01*
X7446467Y9008973D01*
X7441844Y9013748D01*
X7434478Y9018727D01*
X7426655Y9022740D01*
X7419035Y9024772D01*
X7417409Y9026042D01*
X7415834Y9027871D01*
X7414564Y9030157D01*
X7412024Y9035948D01*
X7401102Y9039961D01*
X7396276Y9042044D01*
X7391196Y9044838D01*
X7386472Y9047937D01*
X7382764Y9051036D01*
X7375398Y9058097D01*
X7361478Y9058097D01*
X7354062Y9075826D01*
X7341971Y9077553D01*
X7339736Y9090863D01*
X7337907Y9096654D01*
X7335215Y9101277D01*
X7331100Y9105849D01*
X7324090Y9112859D01*
X7326375Y9244990D01*
X7334859Y9246463D01*
X7358989Y9247174D01*
X7408062Y9248089D01*
X7542682Y9249714D01*
X7618475Y9250019D01*
X7625029Y9256623D01*
X7627874Y9259163D01*
X7630617Y9261246D01*
X7633055Y9262668D01*
X7634782Y9263176D01*
X7637983Y9263176D01*
X7646974Y9237827D01*
X7646974Y9205823D01*
X7654747Y9190736D01*
X7659827Y9049004D01*
X7663484Y9037421D01*
X7666939Y9028226D01*
X7672781Y9014409D01*
X7674660Y8978595D01*
X7676743Y8950858D01*
X7677912Y8938514D01*
X7681214Y8911386D01*
X7693609Y8884615D01*
X7697673Y8802268D01*
X7703007Y8794546D01*
X7705445Y8790584D01*
X7710678Y8780018D01*
X7714843Y8769705D01*
X7717078Y8765235D01*
X7719212Y8761679D01*
X7720990Y8759545D01*
X7724597Y8756497D01*
X7730083Y8758275D01*
X7733538Y8759799D01*
X7737398Y8762187D01*
X7741412Y8765235D01*
X7745425Y8768842D01*
X7749184Y8772702D01*
X7752537Y8776716D01*
X7755280Y8780678D01*
X7757159Y8784336D01*
X7760716Y8792768D01*
X7771638Y8796274D01*
X7779461Y8811412D01*
X7786573Y8813088D01*
X7790129Y8814358D01*
X7794599Y8816492D01*
X7799425Y8819134D01*
X7804048Y8822131D01*
X7814411Y8829395D01*
X7855966Y8832748D01*
X7907223Y8848547D01*
X7949387Y8845296D01*
X7951978Y8841740D01*
X7956448Y8837777D01*
X7963204Y8833866D01*
X7970469Y8830818D01*
X7976412Y8829649D01*
X7981594Y8829649D01*
X7996224Y8814003D01*
X8026806Y8809024D01*
X8037982Y8798509D01*
X8067141Y8792667D01*
X8075777Y8794343D01*
X8082483Y8796426D01*
X8088528Y8799880D01*
X8094116Y8804808D01*
X8099399Y8811412D01*
X8103870Y8817813D01*
X8103870Y8828735D01*
X8103666Y8833561D01*
X8103108Y8838488D01*
X8102244Y8843060D01*
X8101228Y8846616D01*
X8098637Y8853525D01*
X8088528Y8856167D01*
X8082686Y8873744D01*
X8071866Y8881364D01*
X8069478Y8935415D01*
X8076590Y8943289D01*
X8081670Y8949690D01*
X8088528Y8959443D01*
X8108391Y8956294D01*
X8114538Y8959596D01*
X8123021Y8964879D01*
X8130641Y8971026D01*
X8136737Y8977376D01*
X8140344Y8983167D01*
X8143240Y8990126D01*
X8137194Y9001404D01*
X8122564Y9006484D01*
X8119973Y9016441D01*
X8109102Y9021318D01*
X8105190Y9023604D01*
X8094268Y9031224D01*
X8089747Y9033764D01*
X8084870Y9036050D01*
X8080248Y9037726D01*
X8069834Y9040825D01*
X8059470Y9055354D01*
X8033613Y9058808D01*
X8028178Y9068917D01*
X8015731Y9074658D01*
X8010245Y9077452D01*
X8004505Y9080804D01*
X7999171Y9084259D01*
X7991398Y9090152D01*
X7987741Y9092387D01*
X7984490Y9093860D01*
X7979308Y9095130D01*
X7975295Y9097111D01*
X7970469Y9100007D01*
X7965490Y9103512D01*
X7953603Y9112605D01*
X7942783Y9112605D01*
X7937753Y9125813D01*
X7928914Y9129522D01*
X7924901Y9131554D01*
X7920380Y9134449D01*
X7915960Y9137751D01*
X7912201Y9141104D01*
X7904327Y9149029D01*
X7889341Y9152026D01*
X7883753Y9166910D01*
X7870240Y9170263D01*
X7870240Y9173464D01*
X7869478Y9175648D01*
X7867446Y9179255D01*
X7864449Y9183827D01*
X7851343Y9200896D01*
X7848092Y9235084D01*
X7845552Y9255201D01*
X7844383Y9262516D01*
X7841792Y9276384D01*
X7844942Y9299397D01*
X7858048Y9302648D01*
X7869834Y9305036D01*
X7882178Y9317329D01*
X7906461Y9323476D01*
X7920278Y9336328D01*
X7929676Y9337598D01*
X7939024Y9339427D01*
X7946745Y9341967D01*
X7952486Y9345117D01*
X7955788Y9348673D01*
X7958074Y9352940D01*
X7983880Y9359544D01*
X7997494Y9374784D01*
X8007654Y9374784D01*
X8016138Y9382048D01*
X8025231Y9389110D01*
X8035086Y9396018D01*
X8043062Y9401911D01*
X8052257Y9409938D01*
X8061807Y9419183D01*
X8071002Y9428835D01*
X8078876Y9438081D01*
X8082127Y9442297D01*
X8087156Y9449714D01*
X8093557Y9457944D01*
X8103870Y9469424D01*
X8103870Y9481362D01*
X8116570Y9487154D01*
X8122158Y9501428D01*
X8124342Y9508693D01*
X8124647Y9510877D01*
X8125155Y9512554D01*
X8126475Y9514535D01*
X8128457Y9516618D01*
X8130895Y9518497D01*
X8137144Y9522612D01*
X8140395Y9532416D01*
X8142020Y9536480D01*
X8144052Y9540341D01*
X8146237Y9543542D01*
X8148320Y9545574D01*
X8153044Y9548926D01*
X8160816Y9575038D01*
X8173516Y9590125D01*
X8179358Y9617456D01*
X8192211Y9630918D01*
X8197951Y9664242D01*
X8202625Y9669475D01*
X8204708Y9672320D01*
X8206587Y9676079D01*
X8208314Y9680752D01*
X8209788Y9686340D01*
X8211108Y9692843D01*
X8212277Y9700361D01*
X8213242Y9708794D01*
X8215426Y9738410D01*
X8226145Y9752838D01*
X8228736Y9771634D01*
X8229752Y9786620D01*
X8230768Y9809937D01*
X8231631Y9838486D01*
X8233359Y9936835D01*
X8253984Y9938410D01*
X8270138Y9922611D01*
X8290661Y9919360D01*
X8308340Y9902139D01*
X8326577Y9898735D01*
X8329625Y9883495D01*
X8338515Y9874351D01*
X8342172Y9870186D01*
X8345678Y9865664D01*
X8348573Y9861296D01*
X8350503Y9857638D01*
X8353653Y9850069D01*
X8363712Y9846868D01*
X8366709Y9831832D01*
X8384387Y9815525D01*
X8389010Y9811816D01*
X8392617Y9809276D01*
X8396579Y9807803D01*
X8399221Y9806381D01*
X8402370Y9804247D01*
X8413597Y9795002D01*
X8420354Y9796576D01*
X8423249Y9797542D01*
X8426246Y9799015D01*
X8428939Y9800793D01*
X8433003Y9804603D01*
X8435695Y9806635D01*
X8438743Y9808565D01*
X8441690Y9810089D01*
X8448497Y9813137D01*
X8450275Y9820452D01*
X8451545Y9823907D01*
X8453628Y9827818D01*
X8456218Y9831679D01*
X8459063Y9835134D01*
X8466023Y9842449D01*
X8467648Y9964318D01*
X8462568Y10006330D01*
X8451951Y10020706D01*
X8448344Y10049154D01*
X8446363Y10060940D01*
X8445246Y10065258D01*
X8444026Y10068763D01*
X8442553Y10071709D01*
X8440775Y10074402D01*
X8434070Y10082225D01*
X8428075Y10111740D01*
X8412937Y10130790D01*
X8409635Y10148265D01*
X8403132Y10155326D01*
X8400288Y10158933D01*
X8397392Y10163556D01*
X8394801Y10168585D01*
X8392820Y10173462D01*
X8389010Y10184536D01*
X8379612Y10187533D01*
X8377885Y10196779D01*
X8375700Y10205720D01*
X8372957Y10212628D01*
X8369706Y10217404D01*
X8366048Y10219842D01*
X8361680Y10221214D01*
X8355584Y10241584D01*
X8342985Y10251490D01*
X8339480Y10265460D01*
X8321954Y10278872D01*
X8321954Y10288930D01*
X8314436Y10295890D01*
X8311388Y10299090D01*
X8308644Y10302494D01*
X8306511Y10305846D01*
X8303971Y10311485D01*
X8301786Y10315041D01*
X8298942Y10318851D01*
X8292642Y10326217D01*
X8289493Y10330281D01*
X8286851Y10334244D01*
X8283194Y10340441D01*
X8280908Y10343184D01*
X8278317Y10345470D01*
X8275777Y10347045D01*
X8269884Y10349636D01*
X8264702Y10368838D01*
X8258403Y10373766D01*
X8255609Y10376408D01*
X8252663Y10380014D01*
X8249869Y10384078D01*
X8247634Y10388142D01*
X8243112Y10397591D01*
X8233968Y10400487D01*
X8227974Y10418673D01*
X8217763Y10424922D01*
X8206994Y10449763D01*
X8202168Y10452354D01*
X8199983Y10454081D01*
X8197646Y10456773D01*
X8195462Y10460075D01*
X8193684Y10463682D01*
X8190026Y10472420D01*
X8179053Y10475925D01*
X8171840Y10493197D01*
X8167065Y10494772D01*
X8164880Y10495991D01*
X8162544Y10498074D01*
X8160258Y10500766D01*
X8155279Y10509300D01*
X8146745Y10522712D01*
X8137702Y10535818D01*
X8133892Y10540898D01*
X8130997Y10544352D01*
X8128203Y10546435D01*
X8126425Y10548569D01*
X8124342Y10551769D01*
X8117078Y10565739D01*
X8107527Y10568228D01*
X8101075Y10589818D01*
X8086445Y10604754D01*
X8082838Y10631779D01*
X8070748Y10642955D01*
X8064652Y10672318D01*
X8052358Y10686643D01*
X8046770Y10708741D01*
X8040674Y10716107D01*
X8038033Y10719765D01*
X8035340Y10724337D01*
X8033003Y10729214D01*
X8029498Y10738358D01*
X8027212Y10743082D01*
X8024622Y10747349D01*
X8018475Y10755630D01*
X8015122Y10762183D01*
X8011922Y10770717D01*
X8008721Y10781487D01*
X8008010Y10782909D01*
X8006689Y10784281D01*
X8005013Y10785449D01*
X8003133Y10786160D01*
X7998459Y10787380D01*
X7991805Y10809935D01*
X7976666Y10823448D01*
X7976666Y10829239D01*
X7975193Y10835538D01*
X7971688Y10843006D01*
X7967573Y10849305D01*
X7962900Y10852759D01*
X7961172Y10854994D01*
X7959191Y10858296D01*
X7957210Y10862259D01*
X7952536Y10872622D01*
X7942478Y10875822D01*
X7937195Y10890910D01*
X7924546Y10894110D01*
X7916925Y10908893D01*
X7894878Y10915243D01*
X7878622Y10929162D01*
X7869478Y10930839D01*
X7865668Y10931855D01*
X7862062Y10933226D01*
X7859064Y10934852D01*
X7852562Y10940796D01*
X7846466Y10943793D01*
X7837525Y10946079D01*
X7824368Y10948060D01*
X7804353Y10950600D01*
X7792821Y10961420D01*
X7782864Y10963757D01*
X7777835Y10964672D01*
X7771587Y10965434D01*
X7764932Y10965942D01*
X7748574Y10966602D01*
X7742428Y10968075D01*
X7738973Y10971225D01*
X7735976Y10979607D01*
X7734350Y10982909D01*
X7732268Y10986160D01*
X7730083Y10988903D01*
X7724749Y10994644D01*
X7717688Y11031880D01*
X7706207Y11040567D01*
X7702753Y11097260D01*
X7701889Y11125911D01*
X7701737Y11153902D01*
X7702448Y11180876D01*
X7703058Y11193932D01*
X7703921Y11206581D01*
X7707325Y11247831D01*
X7712202Y11253266D01*
X7714386Y11256264D01*
X7716672Y11260429D01*
X7718806Y11265255D01*
X7720482Y11270132D01*
X7723835Y11281613D01*
X7755483Y11281918D01*
X7775295Y11283086D01*
X7782966Y11283899D01*
X7798206Y11285982D01*
X7811516Y11299240D01*
X7825740Y11298834D01*
X7835950Y11288623D01*
X7866329Y11279835D01*
X7871815Y11274806D01*
X7874711Y11272621D01*
X7878622Y11270386D01*
X7883042Y11268456D01*
X7892034Y11265458D01*
X7897317Y11263172D01*
X7902498Y11260582D01*
X7911846Y11255044D01*
X7918094Y11252149D01*
X7924901Y11249507D01*
X7931505Y11247475D01*
X7946593Y11243513D01*
X7960918Y11231473D01*
X7983169Y11227917D01*
X8001304Y11215624D01*
X8028482Y11209680D01*
X8035544Y11207648D01*
X8041800Y11205210D01*
X8210803Y11205210D01*
X8216493Y11220246D01*
X8219236Y11216944D01*
X8221218Y11215420D01*
X8224469Y11213693D01*
X8228634Y11211966D01*
X8244433Y11207292D01*
X8237880Y11199418D01*
X8224723Y11201806D01*
X8217509Y11203330D01*
X8210803Y11205210D01*
X8041800Y11205210D01*
X8044027Y11204041D01*
X8046161Y11202619D01*
X8049056Y11201247D01*
X8052663Y11199926D01*
X8062061Y11197539D01*
X8074101Y11195507D01*
X8088528Y11193780D01*
X8105190Y11192459D01*
X8123783Y11191494D01*
X8144154Y11190935D01*
X8189112Y11190732D01*
X8190962Y11189004D01*
X8248650Y11189004D01*
X8252155Y11194643D01*
X8277809Y11189360D01*
X8277809Y11181080D01*
X8260486Y11183721D01*
X8256117Y11184788D01*
X8252764Y11185855D01*
X8250885Y11186820D01*
X8248650Y11189004D01*
X8190962Y11189004D01*
X8195208Y11185042D01*
X8198307Y11182502D01*
X8202269Y11179810D01*
X8208454Y11176457D01*
X8287359Y11176406D01*
X8293608Y11175695D01*
X8302040Y11174018D01*
X8309305Y11172088D01*
X8313013Y11170259D01*
X8313572Y11167973D01*
X8311642Y11164874D01*
X8308390Y11160963D01*
X8305495Y11162690D01*
X8303666Y11163503D01*
X8300821Y11164417D01*
X8293506Y11165992D01*
X8284362Y11167465D01*
X8282635Y11176457D01*
X8208454Y11176457D01*
X8220303Y11171377D01*
X8223656Y11160861D01*
X8250674Y11152936D01*
X8317128Y11152936D01*
X8318042Y11155730D01*
X8319922Y11158677D01*
X8338312Y11156086D01*
X8348878Y11154105D01*
X8359597Y11151158D01*
X8345627Y11145570D01*
X8332419Y11147653D01*
X8323630Y11149279D01*
X8318753Y11150904D01*
X8317128Y11152936D01*
X8250674Y11152936D01*
X8254492Y11151819D01*
X8255812Y11147653D01*
X8258251Y11144148D01*
X8263026Y11140998D01*
X8269935Y11138255D01*
X8278723Y11136122D01*
X8287918Y11134394D01*
X8295741Y11122507D01*
X8321700Y11116310D01*
X8325053Y11112246D01*
X8327034Y11110366D01*
X8329879Y11108334D01*
X8333282Y11106353D01*
X8336788Y11104676D01*
X8345119Y11101171D01*
X8378799Y11101171D01*
X8391906Y11107166D01*
X8395055Y11117072D01*
X8407704Y11121847D01*
X8413242Y11136223D01*
X8410549Y11157000D01*
X8402015Y11163046D01*
X8393887Y11169599D01*
X8379917Y11181486D01*
X8343696Y11187430D01*
X8338820Y11198555D01*
X8304631Y11204905D01*
X8298891Y11217503D01*
X8271357Y11223396D01*
X8260740Y11236706D01*
X8236102Y11239449D01*
X8233562Y11244173D01*
X8232444Y11247272D01*
X8231276Y11252250D01*
X8230209Y11258346D01*
X8227669Y11280952D01*
X8215884Y11292992D01*
X8212836Y11296853D01*
X8210499Y11300358D01*
X8209178Y11303152D01*
X8207451Y11308588D01*
X8197291Y11311839D01*
X8189722Y11326418D01*
X8183778Y11327942D01*
X8180679Y11329212D01*
X8176717Y11331600D01*
X8172348Y11334699D01*
X8168131Y11338255D01*
X8158480Y11347145D01*
X8143798Y11350091D01*
X8137956Y11362944D01*
X8132114Y11364772D01*
X8129168Y11366144D01*
X8125510Y11368481D01*
X8121599Y11371427D01*
X8117890Y11374729D01*
X8104886Y11387175D01*
X8095488Y11395760D01*
X8089392Y11400739D01*
X8087512Y11401907D01*
X8084667Y11403025D01*
X8081772Y11404955D01*
X8078063Y11407800D01*
X8069630Y11414861D01*
X8065262Y11417858D01*
X8061452Y11420043D01*
X8058556Y11421008D01*
X8053273Y11421770D01*
X8046618Y11435740D01*
X8040827Y11437518D01*
X8037982Y11438839D01*
X8034375Y11441176D01*
X8030514Y11444122D01*
X8012226Y11461089D01*
X7995513Y11475821D01*
X7989620Y11517528D01*
X7979156Y11528704D01*
X7977124Y11606530D01*
X7976158Y11631523D01*
X7975295Y11646560D01*
X7973872Y11656568D01*
X7961274Y11671503D01*
X7958836Y11682374D01*
X7956245Y11691010D01*
X7952689Y11698579D01*
X7948930Y11704015D01*
X7944358Y11706910D01*
X7942986Y11709146D01*
X7941564Y11712498D01*
X7937449Y11727078D01*
X7925714Y11732412D01*
X7920075Y11747347D01*
X7907070Y11750649D01*
X7904480Y11760504D01*
X7888478Y11769648D01*
X7883601Y11783517D01*
X7871561Y11785244D01*
X7865008Y11799011D01*
X7856880Y11801856D01*
X7853273Y11803430D01*
X7849463Y11805716D01*
X7845856Y11808307D01*
X7842910Y11811000D01*
X7837068Y11817350D01*
X7814411Y11823344D01*
X7804048Y11836095D01*
X7766456Y11841683D01*
X7755534Y11851182D01*
X7738872Y11854281D01*
X7729931Y11855450D01*
X7706918Y11857532D01*
X7673390Y11859564D01*
X7653629Y11869623D01*
G37*
G36*
X8307679Y11807291D02*
G01*
X8306765Y11806936D01*
X8306358Y11806021D01*
X8306765Y11805107D01*
X8307679Y11804700D01*
X8308594Y11805107D01*
X8308949Y11806021D01*
X8308594Y11806936D01*
G37*
G36*
X7557109Y11660784D02*
G01*
X7552232Y11660632D01*
X7549032Y11660276D01*
X7543800Y11657634D01*
X7538516Y11652758D01*
X7534402Y11647119D01*
X7532725Y11642039D01*
X7532725Y11638432D01*
X7539177Y11635536D01*
X7543241Y11633200D01*
X7545831Y11629898D01*
X7547711Y11624157D01*
X7551166Y11604650D01*
X7566202Y11593931D01*
X7570317Y11591493D01*
X7573670Y11589867D01*
X7577328Y11588953D01*
X7578852Y11588140D01*
X7580223Y11586972D01*
X7582712Y11583771D01*
X7585049Y11581688D01*
X7587945Y11579606D01*
X7598918Y11573713D01*
X7643063Y11573764D01*
X7658252Y11577320D01*
X7664348Y11578945D01*
X7669784Y11580672D01*
X7674000Y11582400D01*
X7676337Y11583822D01*
X7679283Y11586768D01*
X7669733Y11613896D01*
X7649921Y11632844D01*
X7644790Y11637162D01*
X7640777Y11640058D01*
X7638491Y11641175D01*
X7636865Y11641683D01*
X7634731Y11643207D01*
X7632293Y11645442D01*
X7624318Y11655196D01*
X7597851Y11658244D01*
X7579106Y11659870D01*
X7563358Y11660682D01*
G37*
G36*
X7944205Y11440261D02*
G01*
X7915402Y11436858D01*
X7901127Y11427510D01*
X7902651Y11419586D01*
X7913827Y11413744D01*
X7918754Y11410797D01*
X7923987Y11407140D01*
X7928813Y11403228D01*
X7932724Y11399520D01*
X7940446Y11391239D01*
X7959039Y11393627D01*
X7964017Y11394795D01*
X7967980Y11396065D01*
X7970469Y11397335D01*
X7974075Y11400383D01*
X7974075Y11407698D01*
X7973669Y11412931D01*
X7972501Y11417808D01*
X7970570Y11422278D01*
X7967929Y11426342D01*
X7964525Y11430000D01*
X7960410Y11433200D01*
X7955584Y11435943D01*
X7950047Y11438229D01*
G37*
G36*
X6999224Y10753293D02*
G01*
X6998309Y10752937D01*
X6997953Y10752023D01*
X6998309Y10751108D01*
X6999224Y10750702D01*
X7000189Y10751108D01*
X7000544Y10752023D01*
X7000189Y10752937D01*
G37*
G36*
X7417206Y10584230D02*
G01*
X7410145Y10580471D01*
X7405116Y10577017D01*
X7401102Y10572445D01*
X7397851Y10566349D01*
X7395108Y10558475D01*
X7393025Y10551261D01*
X7396327Y10546486D01*
X7397953Y10543489D01*
X7401966Y10533278D01*
X7408011Y10512806D01*
X7417612Y10504119D01*
X7430211Y10517479D01*
X7430211Y10571480D01*
G37*
G36*
X7328153Y10547807D02*
G01*
X7325309Y10546994D01*
X7321803Y10543692D01*
X7320025Y10541101D01*
X7318044Y10537393D01*
X7316216Y10533075D01*
X7314692Y10528655D01*
X7311593Y10518140D01*
X7313371Y10439704D01*
X7318298Y10434269D01*
X7322820Y10430256D01*
X7326782Y10429138D01*
X7330795Y10430916D01*
X7335266Y10435640D01*
X7340650Y10442498D01*
X7340650Y10534548D01*
X7335266Y10541355D01*
X7331252Y10545978D01*
G37*
G36*
X7362393Y10523423D02*
G01*
X7358329Y10522051D01*
X7354316Y10519816D01*
X7347712Y10496143D01*
X7350404Y10453014D01*
X7355738Y10440924D01*
X7359802Y10432491D01*
X7362698Y10429646D01*
X7365593Y10432440D01*
X7369556Y10440720D01*
X7374839Y10452709D01*
X7374991Y10506710D01*
X7371842Y10514330D01*
X7369048Y10519613D01*
X7365949Y10522661D01*
G37*
G36*
X7526274Y10498886D02*
G01*
X7525308Y10498531D01*
X7524953Y10497616D01*
X7525308Y10496702D01*
X7526274Y10496296D01*
X7527188Y10496702D01*
X7527544Y10497616D01*
X7527188Y10498531D01*
G37*
G36*
X7473899Y10427766D02*
G01*
X7470698Y10427309D01*
X7467193Y10424312D01*
X7465364Y10421975D01*
X7463434Y10418927D01*
X7461656Y10415625D01*
X7460234Y10412425D01*
X7457490Y10405160D01*
X7458049Y10368991D01*
X7458506Y10360914D01*
X7459167Y10354259D01*
X7460081Y10348823D01*
X7461402Y10344353D01*
X7463078Y10340695D01*
X7465212Y10337596D01*
X7467853Y10334802D01*
X7472680Y10330281D01*
X7485380Y10345369D01*
X7486751Y10356596D01*
X7487259Y10362742D01*
X7487767Y10380726D01*
X7487158Y10413034D01*
X7481874Y10420096D01*
X7477455Y10425379D01*
G37*
G36*
X7414107Y10423601D02*
G01*
X7408418Y10416844D01*
X7405370Y10411256D01*
X7404353Y10408615D01*
X7402525Y10402671D01*
X7406284Y10349687D01*
X7434630Y10321137D01*
X7446670Y10335158D01*
X7448753Y10352582D01*
X7449261Y10361320D01*
X7449464Y10371785D01*
X7449413Y10382758D01*
X7448346Y10412679D01*
X7438491Y10423601D01*
G37*
G36*
X7375194Y10384688D02*
G01*
X7365898Y10374376D01*
X7368743Y10353090D01*
X7373264Y10348112D01*
X7377226Y10344607D01*
X7380833Y10343388D01*
X7384389Y10344505D01*
X7388250Y10347858D01*
X7392568Y10352633D01*
X7392568Y10363606D01*
X7392314Y10368280D01*
X7391755Y10372852D01*
X7390892Y10376814D01*
X7389875Y10379659D01*
X7387183Y10384688D01*
G37*
G36*
X7525969Y10330586D02*
G01*
X7523124Y10327132D01*
X7519974Y10321137D01*
X7517282Y10312196D01*
X7515301Y10301833D01*
X7514590Y10291775D01*
X7514590Y10280650D01*
X7519822Y10268458D01*
X7521600Y10265308D01*
X7523276Y10262920D01*
X7524648Y10261549D01*
X7527442Y10259822D01*
X7532471Y10262514D01*
X7537653Y10266934D01*
X7542682Y10274046D01*
X7546746Y10282529D01*
X7549184Y10291216D01*
X7550658Y10300309D01*
X7548524Y10311536D01*
X7546594Y10319613D01*
X7544104Y10324490D01*
X7540142Y10327284D01*
X7533792Y10329011D01*
G37*
G36*
X7433157Y10311587D02*
G01*
X7423302Y10310164D01*
X7417155Y10308082D01*
X7412177Y10304068D01*
X7408570Y10298277D01*
X7406487Y10290810D01*
X7405014Y10281920D01*
X7410602Y10261295D01*
X7437018Y10235387D01*
X7440777Y10240518D01*
X7442504Y10243312D01*
X7444282Y10247172D01*
X7446009Y10251643D01*
X7447432Y10256062D01*
X7450277Y10266527D01*
X7447280Y10302900D01*
X7439304Y10309148D01*
X7436866Y10310520D01*
X7434732Y10311384D01*
G37*
G36*
X7399020Y10254386D02*
G01*
X7394295Y10254081D01*
X7387437Y10252964D01*
X7384745Y10252151D01*
X7382002Y10250881D01*
X7379563Y10249255D01*
X7377785Y10247477D01*
X7374534Y10243210D01*
X7374381Y10215778D01*
X7381544Y10198658D01*
X7398512Y10191597D01*
X7411212Y10206431D01*
X7409434Y10249865D01*
X7405522Y10252303D01*
X7402525Y10253776D01*
G37*
G36*
X7471816Y10246715D02*
G01*
X7467600Y10244988D01*
X7463028Y10239857D01*
X7460894Y10236301D01*
X7458862Y10231882D01*
X7457186Y10227259D01*
X7455204Y10219080D01*
X7454138Y10215676D01*
X7453020Y10213187D01*
X7451953Y10211866D01*
X7450378Y10209276D01*
X7450226Y10204805D01*
X7451242Y10198963D01*
X7453325Y10192258D01*
X7456170Y10185298D01*
X7459725Y10178542D01*
X7463637Y10172547D01*
X7467853Y10167874D01*
X7472984Y10163251D01*
X7484465Y10188651D01*
X7484719Y10232999D01*
X7480096Y10240060D01*
X7475880Y10245090D01*
G37*
G36*
X7157618Y10151008D02*
G01*
X7139940Y10144556D01*
X7129068Y10129875D01*
X7129157Y10117277D01*
X7182256Y10117277D01*
X7182256Y10107269D01*
X7170572Y10110774D01*
X7164781Y10113416D01*
X7163104Y10114635D01*
X7160463Y10117277D01*
X7129157Y10117277D01*
X7129525Y10071862D01*
X7135723Y10049865D01*
X7142784Y10045852D01*
X7144410Y10044379D01*
X7145219Y10043312D01*
X7179665Y10043312D01*
X7180072Y10044226D01*
X7180986Y10044582D01*
X7181900Y10044226D01*
X7182256Y10043312D01*
X7181900Y10042347D01*
X7180986Y10041991D01*
X7180072Y10042347D01*
X7179665Y10043312D01*
X7145219Y10043312D01*
X7145934Y10041636D01*
X7146239Y10039858D01*
X7148525Y10033609D01*
X7154418Y10020960D01*
X7175398Y10010241D01*
X7201662Y10012781D01*
X7209485Y10023500D01*
X7215987Y10030917D01*
X7226096Y10040670D01*
X7231888Y10066528D01*
X7230109Y10083495D01*
X7228586Y10094671D01*
X7226452Y10103053D01*
X7223607Y10109098D01*
X7219848Y10113365D01*
X7218375Y10115346D01*
X7216698Y10118801D01*
X7215022Y10123220D01*
X7213498Y10128199D01*
X7210247Y10140391D01*
X7199884Y10149738D01*
G37*
G36*
X6931914Y10039400D02*
G01*
X6895388Y10039197D01*
X6882434Y10032034D01*
X6877354Y10022078D01*
X6874865Y10017709D01*
X6871766Y10013086D01*
X6868464Y10008819D01*
X6865366Y10005466D01*
X6858457Y9998811D01*
X6857290Y9987889D01*
X6902196Y9987889D01*
X6907530Y9999573D01*
X6921652Y9992410D01*
X6924852Y9990328D01*
X6927037Y9988499D01*
X6927850Y9987178D01*
X6927850Y9984892D01*
X6915251Y9984994D01*
X6911543Y9985298D01*
X6908393Y9985806D01*
X6906158Y9986416D01*
X6902196Y9987889D01*
X6857290Y9987889D01*
X6854799Y9964572D01*
X6849770Y9960051D01*
X6846265Y9956088D01*
X6845046Y9952380D01*
X6846163Y9948214D01*
X6849618Y9943033D01*
X6854444Y9936835D01*
X6854765Y9934244D01*
X6888937Y9934244D01*
X6889292Y9935159D01*
X6890207Y9935565D01*
X6891121Y9935159D01*
X6891528Y9934244D01*
X6891121Y9933330D01*
X6890207Y9932974D01*
X6889292Y9933330D01*
X6888937Y9934244D01*
X6854765Y9934244D01*
X6856948Y9916668D01*
X6895947Y9916668D01*
X6904837Y9921646D01*
X6907530Y9922256D01*
X6909663Y9921392D01*
X6912000Y9919004D01*
X6914946Y9915448D01*
X6908393Y9910013D01*
X6895947Y9916668D01*
X6856948Y9916668D01*
X6858203Y9906558D01*
X6877050Y9885680D01*
X6901027Y9875316D01*
X6907428Y9873589D01*
X6911492Y9874148D01*
X6916369Y9878364D01*
X6918959Y9879787D01*
X6922058Y9881057D01*
X6925259Y9881920D01*
X6932879Y9883444D01*
X6947306Y9898989D01*
X6956907Y9908794D01*
X6967118Y9952431D01*
X6963308Y9973462D01*
X6960971Y9989362D01*
X6958533Y10007955D01*
X6956348Y10015524D01*
X6953148Y10020046D01*
X6948627Y10022535D01*
X6943445Y10024160D01*
X6943445Y10027716D01*
X6942988Y10029444D01*
X6941718Y10031425D01*
X6939889Y10033508D01*
X6937654Y10035336D01*
G37*
G36*
X7201153Y9979660D02*
G01*
X7188758Y9970160D01*
X7152436Y9964318D01*
X7142022Y9951516D01*
X7121245Y9947706D01*
X7105700Y9931298D01*
X7084212Y9925151D01*
X7079894Y9918547D01*
X7077659Y9915804D01*
X7074865Y9913162D01*
X7071868Y9910927D01*
X7068972Y9909454D01*
X7062368Y9906914D01*
X7059574Y9896398D01*
X7052157Y9892538D01*
X7048906Y9890506D01*
X7045604Y9887762D01*
X7042556Y9884664D01*
X7035749Y9875672D01*
X7033361Y9873132D01*
X7031329Y9871303D01*
X7029246Y9869017D01*
X7026960Y9865207D01*
X7024624Y9860381D01*
X7022592Y9855047D01*
X7019002Y9844278D01*
X7049414Y9844278D01*
X7067956Y9862566D01*
X7072630Y9866782D01*
X7076186Y9869627D01*
X7079132Y9871151D01*
X7080453Y9872573D01*
X7083196Y9877196D01*
X7086142Y9883749D01*
X7099300Y9888728D01*
X7104024Y9901123D01*
X7111034Y9902901D01*
X7114438Y9904120D01*
X7118451Y9906000D01*
X7122617Y9908438D01*
X7129983Y9913518D01*
X7133488Y9915499D01*
X7136638Y9916871D01*
X7138924Y9917379D01*
X7145832Y9918242D01*
X7156602Y9920274D01*
X7170115Y9923170D01*
X7182154Y9935210D01*
X7192975Y9936734D01*
X7202525Y9937546D01*
X7217968Y9938156D01*
X7220559Y9934905D01*
X7221677Y9932974D01*
X7222744Y9930180D01*
X7223658Y9926878D01*
X7224318Y9923424D01*
X7225436Y9915194D01*
X7205218Y9907270D01*
X7202627Y9897313D01*
X7181900Y9891115D01*
X7166609Y9876485D01*
X7141514Y9873183D01*
X7128306Y9858349D01*
X7098538Y9854641D01*
X7087006Y9842195D01*
X7067296Y9837928D01*
X7058152Y9834981D01*
X7055815Y9833762D01*
X7052665Y9831273D01*
X7049414Y9844278D01*
X7019002Y9844278D01*
X7018274Y9842093D01*
X7002576Y9826345D01*
X7004100Y9820605D01*
X7004710Y9817506D01*
X7005639Y9806482D01*
X7064146Y9806482D01*
X7107936Y9816084D01*
X7121245Y9828530D01*
X7145528Y9831984D01*
X7163968Y9846614D01*
X7185202Y9850018D01*
X7191146Y9855962D01*
X7197699Y9860788D01*
X7206284Y9865360D01*
X7214311Y9868408D01*
X7219289Y9868814D01*
X7220000Y9868001D01*
X7220661Y9866579D01*
X7221067Y9864699D01*
X7221220Y9857536D01*
X7208113Y9852558D01*
X7203135Y9839401D01*
X7195972Y9836708D01*
X7192822Y9835286D01*
X7189724Y9833305D01*
X7186879Y9831070D01*
X7184745Y9828885D01*
X7180783Y9823704D01*
X7137704Y9816185D01*
X7122515Y9805365D01*
X7108545Y9803942D01*
X7101941Y9803536D01*
X7094220Y9803485D01*
X7086346Y9803841D01*
X7079335Y9804450D01*
X7064146Y9806482D01*
X7005639Y9806482D01*
X7005726Y9792716D01*
X7023760Y9773462D01*
X7034072Y9761880D01*
X7043267Y9760153D01*
X7048347Y9759594D01*
X7055408Y9759238D01*
X7063536Y9759188D01*
X7091070Y9760407D01*
X7106818Y9772040D01*
X7160209Y9777476D01*
X7168337Y9782962D01*
X7170166Y9784689D01*
X7171436Y9786264D01*
X7171893Y9787483D01*
X7171893Y9789922D01*
X7202728Y9795967D01*
X7216038Y9810953D01*
X7226249Y9810953D01*
X7231989Y9818725D01*
X7234529Y9821773D01*
X7237120Y9824212D01*
X7239508Y9825888D01*
X7241387Y9826498D01*
X7244994Y9826498D01*
X7253122Y9847173D01*
X7257948Y9848697D01*
X7260031Y9849713D01*
X7262215Y9851390D01*
X7264196Y9853472D01*
X7265720Y9855758D01*
X7268667Y9861245D01*
X7268057Y9915398D01*
X7267346Y9934854D01*
X7266635Y9940798D01*
X7265670Y9944811D01*
X7264247Y9947351D01*
X7262418Y9948926D01*
X7259980Y9949891D01*
X7257846Y9951008D01*
X7255560Y9952990D01*
X7253478Y9955530D01*
X7251801Y9958324D01*
X7248448Y9965232D01*
X7235291Y9969296D01*
X7231024Y9971125D01*
X7227062Y9973157D01*
X7223861Y9975138D01*
X7217460Y9979660D01*
G37*
G36*
X6842201Y9857689D02*
G01*
X6757822Y9857486D01*
X6749643Y9853930D01*
X6746290Y9852253D01*
X6743242Y9850374D01*
X6740753Y9848494D01*
X6736588Y9844125D01*
X6732066Y9841230D01*
X6726224Y9838385D01*
X6719468Y9835896D01*
X6717538Y9834981D01*
X6715709Y9833508D01*
X6714185Y9831730D01*
X6711899Y9827514D01*
X6709867Y9824618D01*
X6707276Y9821570D01*
X6704431Y9818624D01*
X6697421Y9812020D01*
X6690715Y9782098D01*
X6686296Y9779711D01*
X6684111Y9778288D01*
X6682333Y9776460D01*
X6680860Y9773970D01*
X6679641Y9770567D01*
X6678625Y9765944D01*
X6676796Y9752228D01*
X6673646Y9716973D01*
X6680911Y9685680D01*
X6690055Y9675317D01*
X6714439Y9649561D01*
X6725716Y9647021D01*
X6730390Y9645751D01*
X6734809Y9644227D01*
X6738467Y9642602D01*
X6745020Y9638385D01*
X6750456Y9636150D01*
X6756857Y9634372D01*
X6764070Y9633102D01*
X6771690Y9632340D01*
X6779615Y9632035D01*
X6787438Y9632238D01*
X6795008Y9632950D01*
X6801967Y9634118D01*
X6808114Y9635744D01*
X6813143Y9637928D01*
X6819188Y9642094D01*
X6822948Y9643567D01*
X6827723Y9644938D01*
X6832853Y9645904D01*
X6845401Y9647783D01*
X6851650Y9654540D01*
X6854850Y9657486D01*
X6859016Y9660636D01*
X6863588Y9663480D01*
X6868058Y9665817D01*
X6878167Y9670338D01*
X6883552Y9681159D01*
X6886448Y9689388D01*
X6889191Y9701174D01*
X6901230Y9706660D01*
X6907682Y9740747D01*
X6904024Y9794087D01*
X6900316Y9799929D01*
X6898589Y9802164D01*
X6896658Y9804044D01*
X6894728Y9805263D01*
X6893102Y9805771D01*
X6889546Y9805771D01*
X6886549Y9820960D01*
X6867753Y9839706D01*
X6857238Y9841992D01*
X6854799Y9842957D01*
X6853174Y9844024D01*
X6852564Y9845040D01*
X6852158Y9846310D01*
X6849414Y9850272D01*
G37*
G36*
X6690309Y9844684D02*
G01*
X6689394Y9844328D01*
X6689039Y9843414D01*
X6689394Y9842500D01*
X6690309Y9842093D01*
X6691223Y9842500D01*
X6691630Y9843414D01*
X6691223Y9844328D01*
G37*
G36*
X7303973Y9335871D02*
G01*
X7306309Y9332264D01*
X7307783Y9330893D01*
X7308342Y9330690D01*
X7308799Y9330893D01*
X7309408Y9332264D01*
X7309256Y9334296D01*
X7308646Y9335109D01*
X7307783Y9335668D01*
X7306716Y9335871D01*
G37*
D10*
X3846601Y12046178D02*
G01*
X3913403Y12046178D01*
X3913403Y12046178D02*
G01*
X3913403Y12084278D01*
X3862349Y12153112D02*
G01*
X3855999Y12149810D01*
X3849649Y12143460D01*
X3846601Y12137110D01*
X3846601Y12124410D01*
X3849649Y12118060D01*
X3855999Y12111710D01*
X3862349Y12108662D01*
X3872001Y12105360D01*
X3888003Y12105360D01*
X3897401Y12108662D01*
X3903751Y12111710D01*
X3910101Y12118060D01*
X3913403Y12124410D01*
X3913403Y12137110D01*
X3910101Y12143460D01*
X3903751Y12149810D01*
X3897401Y12153112D01*
X3846601Y12174194D02*
G01*
X3913403Y12174194D01*
X3846601Y12174194D02*
G01*
X3846601Y12196292D01*
X3849649Y12205944D01*
X3855999Y12212294D01*
X3862349Y12215342D01*
X3872001Y12218644D01*
X3888003Y12218644D01*
X3897401Y12215342D01*
X3903751Y12212294D01*
X3910101Y12205944D01*
X3913403Y12196292D01*
X3913403Y12174194D01*
X3935501Y12239726D02*
G01*
X3935501Y12296876D01*
X3846601Y12317958D02*
G01*
X3913403Y12333706D01*
X3846601Y12349708D02*
G01*
X3913403Y12333706D01*
X3846601Y12349708D02*
G01*
X3913403Y12365710D01*
X3846601Y12381458D02*
G01*
X3913403Y12365710D01*
X3846601Y12402540D02*
G01*
X3913403Y12402540D01*
X3846601Y12402540D02*
G01*
X3846601Y12431242D01*
X3849649Y12440640D01*
X3852951Y12443942D01*
X3859301Y12446990D01*
X3865651Y12446990D01*
X3872001Y12443942D01*
X3875049Y12440640D01*
X3878351Y12431242D01*
X3878351Y12402540D01*
X3878351Y12424892D02*
G01*
X3913403Y12446990D01*
X3592601Y12058878D02*
G01*
X3659403Y12058878D01*
X3659403Y12058878D02*
G01*
X3659403Y12096978D01*
X3608349Y12165812D02*
G01*
X3601999Y12162510D01*
X3595649Y12156160D01*
X3592601Y12149810D01*
X3592601Y12137110D01*
X3595649Y12130760D01*
X3601999Y12124410D01*
X3608349Y12121362D01*
X3618001Y12118060D01*
X3634003Y12118060D01*
X3643401Y12121362D01*
X3649751Y12124410D01*
X3656101Y12130760D01*
X3659403Y12137110D01*
X3659403Y12149810D01*
X3656101Y12156160D01*
X3649751Y12162510D01*
X3643401Y12165812D01*
X3592601Y12186894D02*
G01*
X3659403Y12186894D01*
X3592601Y12186894D02*
G01*
X3592601Y12208992D01*
X3595649Y12218644D01*
X3601999Y12224994D01*
X3608349Y12228042D01*
X3618001Y12231344D01*
X3634003Y12231344D01*
X3643401Y12228042D01*
X3649751Y12224994D01*
X3656101Y12218644D01*
X3659403Y12208992D01*
X3659403Y12186894D01*
X3681501Y12252426D02*
G01*
X3681501Y12309576D01*
X3592601Y12330658D02*
G01*
X3659403Y12330658D01*
X3592601Y12330658D02*
G01*
X3592601Y12359360D01*
X3595649Y12368758D01*
X3598951Y12372060D01*
X3605301Y12375108D01*
X3611651Y12375108D01*
X3618001Y12372060D01*
X3621049Y12368758D01*
X3624351Y12359360D01*
X3624351Y12330658D01*
X3624351Y12352756D02*
G01*
X3659403Y12375108D01*
X3601999Y12440640D02*
G01*
X3595649Y12434290D01*
X3592601Y12424892D01*
X3592601Y12411938D01*
X3595649Y12402540D01*
X3601999Y12396190D01*
X3608349Y12396190D01*
X3614699Y12399238D01*
X3618001Y12402540D01*
X3621049Y12408890D01*
X3627399Y12427940D01*
X3630701Y12434290D01*
X3634003Y12437592D01*
X3640353Y12440640D01*
X3649751Y12440640D01*
X3656101Y12434290D01*
X3659403Y12424892D01*
X3659403Y12411938D01*
X3656101Y12402540D01*
X3649751Y12396190D01*
X4100601Y12058878D02*
G01*
X4167403Y12058878D01*
X4167403Y12058878D02*
G01*
X4167403Y12096978D01*
X4116349Y12165812D02*
G01*
X4109999Y12162510D01*
X4103649Y12156160D01*
X4100601Y12149810D01*
X4100601Y12137110D01*
X4103649Y12130760D01*
X4109999Y12124410D01*
X4116349Y12121362D01*
X4126001Y12118060D01*
X4142003Y12118060D01*
X4151401Y12121362D01*
X4157751Y12124410D01*
X4164101Y12130760D01*
X4167403Y12137110D01*
X4167403Y12149810D01*
X4164101Y12156160D01*
X4157751Y12162510D01*
X4151401Y12165812D01*
X4100601Y12186894D02*
G01*
X4167403Y12186894D01*
X4100601Y12186894D02*
G01*
X4100601Y12208992D01*
X4103649Y12218644D01*
X4109999Y12224994D01*
X4116349Y12228042D01*
X4126001Y12231344D01*
X4142003Y12231344D01*
X4151401Y12228042D01*
X4157751Y12224994D01*
X4164101Y12218644D01*
X4167403Y12208992D01*
X4167403Y12186894D01*
X4189501Y12252426D02*
G01*
X4189501Y12309576D01*
X4100601Y12330658D02*
G01*
X4167403Y12330658D01*
X4100601Y12330658D02*
G01*
X4100601Y12359360D01*
X4103649Y12368758D01*
X4106951Y12372060D01*
X4113301Y12375108D01*
X4119651Y12375108D01*
X4126001Y12372060D01*
X4129049Y12368758D01*
X4132351Y12359360D01*
X4132351Y12330658D01*
X4132351Y12352756D02*
G01*
X4167403Y12375108D01*
X4100601Y12396190D02*
G01*
X4167403Y12396190D01*
X4100601Y12396190D02*
G01*
X4100601Y12418542D01*
X4103649Y12427940D01*
X4109999Y12434290D01*
X4116349Y12437592D01*
X4126001Y12440640D01*
X4142003Y12440640D01*
X4151401Y12437592D01*
X4157751Y12434290D01*
X4164101Y12427940D01*
X4167403Y12418542D01*
X4167403Y12396190D01*
X4865649Y12271730D02*
G01*
X4859299Y12268428D01*
X4852949Y12262078D01*
X4849901Y12255728D01*
X4849901Y12243028D01*
X4852949Y12236678D01*
X4859299Y12230328D01*
X4865649Y12227280D01*
X4875301Y12223978D01*
X4891303Y12223978D01*
X4900701Y12227280D01*
X4907051Y12230328D01*
X4913401Y12236678D01*
X4916703Y12243028D01*
X4916703Y12255728D01*
X4913401Y12262078D01*
X4907051Y12268428D01*
X4900701Y12271730D01*
X4891303Y12271730D01*
X4891303Y12255728D02*
G01*
X4891303Y12271730D01*
X4849901Y12292812D02*
G01*
X4916703Y12292812D01*
X4849901Y12292812D02*
G01*
X4916703Y12337262D01*
X4849901Y12337262D02*
G01*
X4916703Y12337262D01*
X4849901Y12358344D02*
G01*
X4916703Y12358344D01*
X4849901Y12358344D02*
G01*
X4849901Y12380442D01*
X4852949Y12390094D01*
X4859299Y12396444D01*
X4865649Y12399492D01*
X4875301Y12402794D01*
X4891303Y12402794D01*
X4900701Y12399492D01*
X4907051Y12396444D01*
X4913401Y12390094D01*
X4916703Y12380442D01*
X4916703Y12358344D01*
X5106949Y12284430D02*
G01*
X5100599Y12281128D01*
X5094249Y12274778D01*
X5091201Y12268428D01*
X5091201Y12255728D01*
X5094249Y12249378D01*
X5100599Y12243028D01*
X5106949Y12239980D01*
X5116601Y12236678D01*
X5132603Y12236678D01*
X5142001Y12239980D01*
X5148351Y12243028D01*
X5154701Y12249378D01*
X5158003Y12255728D01*
X5158003Y12268428D01*
X5154701Y12274778D01*
X5148351Y12281128D01*
X5142001Y12284430D01*
X5132603Y12284430D01*
X5132603Y12268428D02*
G01*
X5132603Y12284430D01*
X5091201Y12305512D02*
G01*
X5158003Y12305512D01*
X5091201Y12305512D02*
G01*
X5158003Y12349962D01*
X5091201Y12349962D02*
G01*
X5158003Y12349962D01*
X5091201Y12371044D02*
G01*
X5158003Y12371044D01*
X5091201Y12371044D02*
G01*
X5091201Y12393142D01*
X5094249Y12402794D01*
X5100599Y12409144D01*
X5106949Y12412192D01*
X5116601Y12415494D01*
X5132603Y12415494D01*
X5142001Y12412192D01*
X5148351Y12409144D01*
X5154701Y12402794D01*
X5158003Y12393142D01*
X5158003Y12371044D01*
X5357901Y12300178D02*
G01*
X5357901Y12268428D01*
X5386349Y12265380D01*
X5383301Y12268428D01*
X5379999Y12278080D01*
X5379999Y12287478D01*
X5383301Y12297130D01*
X5389651Y12303480D01*
X5399303Y12306528D01*
X5405653Y12306528D01*
X5415051Y12303480D01*
X5421401Y12297130D01*
X5424703Y12287478D01*
X5424703Y12278080D01*
X5421401Y12268428D01*
X5418353Y12265380D01*
X5412003Y12262078D01*
X5357901Y12327610D02*
G01*
X5424703Y12353010D01*
X5357901Y12378410D02*
G01*
X5424703Y12353010D01*
X5611901Y12230328D02*
G01*
X5611901Y12265380D01*
X5637301Y12246330D01*
X5637301Y12255728D01*
X5640349Y12262078D01*
X5643651Y12265380D01*
X5653303Y12268428D01*
X5659653Y12268428D01*
X5669051Y12265380D01*
X5675401Y12259030D01*
X5678703Y12249378D01*
X5678703Y12239980D01*
X5675401Y12230328D01*
X5672353Y12227280D01*
X5666003Y12223978D01*
X5662701Y12292812D02*
G01*
X5666003Y12289510D01*
X5669051Y12292812D01*
X5666003Y12295860D01*
X5662701Y12292812D01*
X5611901Y12323292D02*
G01*
X5611901Y12358344D01*
X5637301Y12339040D01*
X5637301Y12348692D01*
X5640349Y12355042D01*
X5643651Y12358344D01*
X5653303Y12361392D01*
X5659653Y12361392D01*
X5669051Y12358344D01*
X5675401Y12351994D01*
X5678703Y12342342D01*
X5678703Y12332690D01*
X5675401Y12323292D01*
X5672353Y12319990D01*
X5666003Y12316942D01*
X5611901Y12382474D02*
G01*
X5678703Y12407874D01*
X5611901Y12433274D02*
G01*
X5678703Y12407874D01*
X5878601Y12147778D02*
G01*
X5945403Y12147778D01*
X5878601Y12147778D02*
G01*
X5878601Y12176480D01*
X5881649Y12185878D01*
X5884951Y12189180D01*
X5891301Y12192228D01*
X5897651Y12192228D01*
X5904001Y12189180D01*
X5907049Y12185878D01*
X5910351Y12176480D01*
X5910351Y12147778D01*
X5910351Y12170130D02*
G01*
X5945403Y12192228D01*
X5878601Y12213310D02*
G01*
X5945403Y12213310D01*
X5878601Y12213310D02*
G01*
X5878601Y12254712D01*
X5910351Y12213310D02*
G01*
X5910351Y12238710D01*
X5945403Y12213310D02*
G01*
X5945403Y12254712D01*
X5887999Y12320244D02*
G01*
X5881649Y12313894D01*
X5878601Y12304242D01*
X5878601Y12291542D01*
X5881649Y12282144D01*
X5887999Y12275794D01*
X5894349Y12275794D01*
X5900699Y12278842D01*
X5904001Y12282144D01*
X5907049Y12288494D01*
X5913399Y12307544D01*
X5916701Y12313894D01*
X5920003Y12316942D01*
X5926353Y12320244D01*
X5935751Y12320244D01*
X5942101Y12313894D01*
X5945403Y12304242D01*
X5945403Y12291542D01*
X5942101Y12282144D01*
X5935751Y12275794D01*
X5878601Y12341326D02*
G01*
X5945403Y12341326D01*
X5878601Y12341326D02*
G01*
X5878601Y12382474D01*
X5910351Y12341326D02*
G01*
X5910351Y12366726D01*
X5945403Y12341326D02*
G01*
X5945403Y12382474D01*
X5878601Y12425908D02*
G01*
X5945403Y12425908D01*
X5878601Y12403556D02*
G01*
X5878601Y12448260D01*
X3579901Y7883677D02*
G01*
X3646703Y7883677D01*
X3646703Y7883677D02*
G01*
X3646703Y7921777D01*
X3595649Y7990611D02*
G01*
X3589299Y7987309D01*
X3582949Y7980959D01*
X3579901Y7974609D01*
X3579901Y7961909D01*
X3582949Y7955559D01*
X3589299Y7949209D01*
X3595649Y7946161D01*
X3605301Y7942859D01*
X3621303Y7942859D01*
X3630701Y7946161D01*
X3637051Y7949209D01*
X3643401Y7955559D01*
X3646703Y7961909D01*
X3646703Y7974609D01*
X3643401Y7980959D01*
X3637051Y7987309D01*
X3630701Y7990611D01*
X3579901Y8011693D02*
G01*
X3646703Y8011693D01*
X3579901Y8011693D02*
G01*
X3579901Y8033791D01*
X3582949Y8043443D01*
X3589299Y8049793D01*
X3595649Y8052841D01*
X3605301Y8056143D01*
X3621303Y8056143D01*
X3630701Y8052841D01*
X3637051Y8049793D01*
X3643401Y8043443D01*
X3646703Y8033791D01*
X3646703Y8011693D01*
X3668801Y8077225D02*
G01*
X3668801Y8134375D01*
X3579901Y8155457D02*
G01*
X3646703Y8155457D01*
X3579901Y8155457D02*
G01*
X3579901Y8177555D01*
X3582949Y8187207D01*
X3589299Y8193557D01*
X3595649Y8196859D01*
X3605301Y8199907D01*
X3621303Y8199907D01*
X3630701Y8196859D01*
X3637051Y8193557D01*
X3643401Y8187207D01*
X3646703Y8177555D01*
X3646703Y8155457D01*
X3579901Y8227339D02*
G01*
X3579901Y8262391D01*
X3605301Y8243341D01*
X3605301Y8252739D01*
X3608349Y8259089D01*
X3611651Y8262391D01*
X3621303Y8265439D01*
X3627653Y8265439D01*
X3637051Y8262391D01*
X3643401Y8256041D01*
X3646703Y8246389D01*
X3646703Y8236737D01*
X3643401Y8227339D01*
X3640353Y8224037D01*
X3634003Y8220989D01*
X3325901Y7883677D02*
G01*
X3392703Y7883677D01*
X3392703Y7883677D02*
G01*
X3392703Y7921777D01*
X3341649Y7990611D02*
G01*
X3335299Y7987309D01*
X3328949Y7980959D01*
X3325901Y7974609D01*
X3325901Y7961909D01*
X3328949Y7955559D01*
X3335299Y7949209D01*
X3341649Y7946161D01*
X3351301Y7942859D01*
X3367303Y7942859D01*
X3376701Y7946161D01*
X3383051Y7949209D01*
X3389401Y7955559D01*
X3392703Y7961909D01*
X3392703Y7974609D01*
X3389401Y7980959D01*
X3383051Y7987309D01*
X3376701Y7990611D01*
X3325901Y8011693D02*
G01*
X3392703Y8011693D01*
X3325901Y8011693D02*
G01*
X3325901Y8033791D01*
X3328949Y8043443D01*
X3335299Y8049793D01*
X3341649Y8052841D01*
X3351301Y8056143D01*
X3367303Y8056143D01*
X3376701Y8052841D01*
X3383051Y8049793D01*
X3389401Y8043443D01*
X3392703Y8033791D01*
X3392703Y8011693D01*
X3414801Y8077225D02*
G01*
X3414801Y8134375D01*
X3325901Y8155457D02*
G01*
X3392703Y8155457D01*
X3325901Y8155457D02*
G01*
X3325901Y8177555D01*
X3328949Y8187207D01*
X3335299Y8193557D01*
X3341649Y8196859D01*
X3351301Y8199907D01*
X3367303Y8199907D01*
X3376701Y8196859D01*
X3383051Y8193557D01*
X3389401Y8187207D01*
X3392703Y8177555D01*
X3392703Y8155457D01*
X3341649Y8224037D02*
G01*
X3338601Y8224037D01*
X3332251Y8227339D01*
X3328949Y8230387D01*
X3325901Y8236737D01*
X3325901Y8249691D01*
X3328949Y8256041D01*
X3332251Y8259089D01*
X3338601Y8262391D01*
X3344951Y8262391D01*
X3351301Y8259089D01*
X3360699Y8252739D01*
X3392703Y8220989D01*
X3392703Y8265439D01*
X3833901Y7883677D02*
G01*
X3900703Y7883677D01*
X3900703Y7883677D02*
G01*
X3900703Y7921777D01*
X3849649Y7990611D02*
G01*
X3843299Y7987309D01*
X3836949Y7980959D01*
X3833901Y7974609D01*
X3833901Y7961909D01*
X3836949Y7955559D01*
X3843299Y7949209D01*
X3849649Y7946161D01*
X3859301Y7942859D01*
X3875303Y7942859D01*
X3884701Y7946161D01*
X3891051Y7949209D01*
X3897401Y7955559D01*
X3900703Y7961909D01*
X3900703Y7974609D01*
X3897401Y7980959D01*
X3891051Y7987309D01*
X3884701Y7990611D01*
X3833901Y8011693D02*
G01*
X3900703Y8011693D01*
X3833901Y8011693D02*
G01*
X3833901Y8033791D01*
X3836949Y8043443D01*
X3843299Y8049793D01*
X3849649Y8052841D01*
X3859301Y8056143D01*
X3875303Y8056143D01*
X3884701Y8052841D01*
X3891051Y8049793D01*
X3897401Y8043443D01*
X3900703Y8033791D01*
X3900703Y8011693D01*
X3922801Y8077225D02*
G01*
X3922801Y8134375D01*
X3833901Y8155457D02*
G01*
X3900703Y8155457D01*
X3833901Y8155457D02*
G01*
X3833901Y8177555D01*
X3836949Y8187207D01*
X3843299Y8193557D01*
X3849649Y8196859D01*
X3859301Y8199907D01*
X3875303Y8199907D01*
X3884701Y8196859D01*
X3891051Y8193557D01*
X3897401Y8187207D01*
X3900703Y8177555D01*
X3900703Y8155457D01*
X3833901Y8252739D02*
G01*
X3878351Y8220989D01*
X3878351Y8268741D01*
X3833901Y8252739D02*
G01*
X3900703Y8252739D01*
X4087901Y7883677D02*
G01*
X4154703Y7883677D01*
X4154703Y7883677D02*
G01*
X4154703Y7921777D01*
X4103649Y7990611D02*
G01*
X4097299Y7987309D01*
X4090949Y7980959D01*
X4087901Y7974609D01*
X4087901Y7961909D01*
X4090949Y7955559D01*
X4097299Y7949209D01*
X4103649Y7946161D01*
X4113301Y7942859D01*
X4129303Y7942859D01*
X4138701Y7946161D01*
X4145051Y7949209D01*
X4151401Y7955559D01*
X4154703Y7961909D01*
X4154703Y7974609D01*
X4151401Y7980959D01*
X4145051Y7987309D01*
X4138701Y7990611D01*
X4087901Y8011693D02*
G01*
X4154703Y8011693D01*
X4087901Y8011693D02*
G01*
X4087901Y8033791D01*
X4090949Y8043443D01*
X4097299Y8049793D01*
X4103649Y8052841D01*
X4113301Y8056143D01*
X4129303Y8056143D01*
X4138701Y8052841D01*
X4145051Y8049793D01*
X4151401Y8043443D01*
X4154703Y8033791D01*
X4154703Y8011693D01*
X4176801Y8077225D02*
G01*
X4176801Y8134375D01*
X4087901Y8155457D02*
G01*
X4154703Y8155457D01*
X4087901Y8155457D02*
G01*
X4087901Y8177555D01*
X4090949Y8187207D01*
X4097299Y8193557D01*
X4103649Y8196859D01*
X4113301Y8199907D01*
X4129303Y8199907D01*
X4138701Y8196859D01*
X4145051Y8193557D01*
X4151401Y8187207D01*
X4154703Y8177555D01*
X4154703Y8155457D01*
X4087901Y8259089D02*
G01*
X4087901Y8227339D01*
X4116349Y8224037D01*
X4113301Y8227339D01*
X4109999Y8236737D01*
X4109999Y8246389D01*
X4113301Y8256041D01*
X4119651Y8262391D01*
X4129303Y8265439D01*
X4135653Y8265439D01*
X4145051Y8262391D01*
X4151401Y8256041D01*
X4154703Y8246389D01*
X4154703Y8236737D01*
X4151401Y8227339D01*
X4148353Y8224037D01*
X4142003Y8220989D01*
X4341901Y7883677D02*
G01*
X4408703Y7883677D01*
X4408703Y7883677D02*
G01*
X4408703Y7921777D01*
X4357649Y7990611D02*
G01*
X4351299Y7987309D01*
X4344949Y7980959D01*
X4341901Y7974609D01*
X4341901Y7961909D01*
X4344949Y7955559D01*
X4351299Y7949209D01*
X4357649Y7946161D01*
X4367301Y7942859D01*
X4383303Y7942859D01*
X4392701Y7946161D01*
X4399051Y7949209D01*
X4405401Y7955559D01*
X4408703Y7961909D01*
X4408703Y7974609D01*
X4405401Y7980959D01*
X4399051Y7987309D01*
X4392701Y7990611D01*
X4341901Y8011693D02*
G01*
X4408703Y8011693D01*
X4341901Y8011693D02*
G01*
X4341901Y8033791D01*
X4344949Y8043443D01*
X4351299Y8049793D01*
X4357649Y8052841D01*
X4367301Y8056143D01*
X4383303Y8056143D01*
X4392701Y8052841D01*
X4399051Y8049793D01*
X4405401Y8043443D01*
X4408703Y8033791D01*
X4408703Y8011693D01*
X4430801Y8077225D02*
G01*
X4430801Y8134375D01*
X4341901Y8155457D02*
G01*
X4408703Y8155457D01*
X4341901Y8155457D02*
G01*
X4341901Y8177555D01*
X4344949Y8187207D01*
X4351299Y8193557D01*
X4357649Y8196859D01*
X4367301Y8199907D01*
X4383303Y8199907D01*
X4392701Y8196859D01*
X4399051Y8193557D01*
X4405401Y8187207D01*
X4408703Y8177555D01*
X4408703Y8155457D01*
X4351299Y8259089D02*
G01*
X4344949Y8256041D01*
X4341901Y8246389D01*
X4341901Y8240039D01*
X4344949Y8230387D01*
X4354601Y8224037D01*
X4370349Y8220989D01*
X4386351Y8220989D01*
X4399051Y8224037D01*
X4405401Y8230387D01*
X4408703Y8240039D01*
X4408703Y8243341D01*
X4405401Y8252739D01*
X4399051Y8259089D01*
X4389653Y8262391D01*
X4386351Y8262391D01*
X4376699Y8259089D01*
X4370349Y8252739D01*
X4367301Y8243341D01*
X4367301Y8240039D01*
X4370349Y8230387D01*
X4376699Y8224037D01*
X4386351Y8220989D01*
X4583201Y7883677D02*
G01*
X4650003Y7883677D01*
X4650003Y7883677D02*
G01*
X4650003Y7921777D01*
X4598949Y7990611D02*
G01*
X4592599Y7987309D01*
X4586249Y7980959D01*
X4583201Y7974609D01*
X4583201Y7961909D01*
X4586249Y7955559D01*
X4592599Y7949209D01*
X4598949Y7946161D01*
X4608601Y7942859D01*
X4624603Y7942859D01*
X4634001Y7946161D01*
X4640351Y7949209D01*
X4646701Y7955559D01*
X4650003Y7961909D01*
X4650003Y7974609D01*
X4646701Y7980959D01*
X4640351Y7987309D01*
X4634001Y7990611D01*
X4583201Y8011693D02*
G01*
X4650003Y8011693D01*
X4583201Y8011693D02*
G01*
X4583201Y8033791D01*
X4586249Y8043443D01*
X4592599Y8049793D01*
X4598949Y8052841D01*
X4608601Y8056143D01*
X4624603Y8056143D01*
X4634001Y8052841D01*
X4640351Y8049793D01*
X4646701Y8043443D01*
X4650003Y8033791D01*
X4650003Y8011693D01*
X4672101Y8077225D02*
G01*
X4672101Y8134375D01*
X4583201Y8155457D02*
G01*
X4650003Y8155457D01*
X4583201Y8155457D02*
G01*
X4583201Y8177555D01*
X4586249Y8187207D01*
X4592599Y8193557D01*
X4598949Y8196859D01*
X4608601Y8199907D01*
X4624603Y8199907D01*
X4634001Y8196859D01*
X4640351Y8193557D01*
X4646701Y8187207D01*
X4650003Y8177555D01*
X4650003Y8155457D01*
X4583201Y8265439D02*
G01*
X4650003Y8233689D01*
X4583201Y8220989D02*
G01*
X4583201Y8265439D01*
X4989601Y7883677D02*
G01*
X5056403Y7883677D01*
X5056403Y7883677D02*
G01*
X5056403Y7921777D01*
X5005349Y7990611D02*
G01*
X4998999Y7987309D01*
X4992649Y7980959D01*
X4989601Y7974609D01*
X4989601Y7961909D01*
X4992649Y7955559D01*
X4998999Y7949209D01*
X5005349Y7946161D01*
X5015001Y7942859D01*
X5031003Y7942859D01*
X5040401Y7946161D01*
X5046751Y7949209D01*
X5053101Y7955559D01*
X5056403Y7961909D01*
X5056403Y7974609D01*
X5053101Y7980959D01*
X5046751Y7987309D01*
X5040401Y7990611D01*
X4989601Y8011693D02*
G01*
X5056403Y8011693D01*
X4989601Y8011693D02*
G01*
X4989601Y8033791D01*
X4992649Y8043443D01*
X4998999Y8049793D01*
X5005349Y8052841D01*
X5015001Y8056143D01*
X5031003Y8056143D01*
X5040401Y8052841D01*
X5046751Y8049793D01*
X5053101Y8043443D01*
X5056403Y8033791D01*
X5056403Y8011693D01*
X5078501Y8077225D02*
G01*
X5078501Y8134375D01*
X4989601Y8155457D02*
G01*
X5056403Y8155457D01*
X4989601Y8155457D02*
G01*
X4989601Y8177555D01*
X4992649Y8187207D01*
X4998999Y8193557D01*
X5005349Y8196859D01*
X5015001Y8199907D01*
X5031003Y8199907D01*
X5040401Y8196859D01*
X5046751Y8193557D01*
X5053101Y8187207D01*
X5056403Y8177555D01*
X5056403Y8155457D01*
X4989601Y8240039D02*
G01*
X4992649Y8230387D01*
X5002301Y8224037D01*
X5018049Y8220989D01*
X5027701Y8220989D01*
X5043703Y8224037D01*
X5053101Y8230387D01*
X5056403Y8240039D01*
X5056403Y8246389D01*
X5053101Y8256041D01*
X5043703Y8262391D01*
X5027701Y8265439D01*
X5018049Y8265439D01*
X5002301Y8262391D01*
X4992649Y8256041D01*
X4989601Y8246389D01*
X4989601Y8240039D01*
X5243601Y7896377D02*
G01*
X5310403Y7896377D01*
X5310403Y7896377D02*
G01*
X5310403Y7934477D01*
X5259349Y8003311D02*
G01*
X5252999Y8000009D01*
X5246649Y7993659D01*
X5243601Y7987309D01*
X5243601Y7974609D01*
X5246649Y7968259D01*
X5252999Y7961909D01*
X5259349Y7958861D01*
X5269001Y7955559D01*
X5285003Y7955559D01*
X5294401Y7958861D01*
X5300751Y7961909D01*
X5307101Y7968259D01*
X5310403Y7974609D01*
X5310403Y7987309D01*
X5307101Y7993659D01*
X5300751Y8000009D01*
X5294401Y8003311D01*
X5243601Y8024393D02*
G01*
X5310403Y8024393D01*
X5243601Y8024393D02*
G01*
X5243601Y8046491D01*
X5246649Y8056143D01*
X5252999Y8062493D01*
X5259349Y8065541D01*
X5269001Y8068843D01*
X5285003Y8068843D01*
X5294401Y8065541D01*
X5300751Y8062493D01*
X5307101Y8056143D01*
X5310403Y8046491D01*
X5310403Y8024393D01*
X5332501Y8089925D02*
G01*
X5332501Y8147075D01*
X5243601Y8168157D02*
G01*
X5310403Y8168157D01*
X5243601Y8168157D02*
G01*
X5243601Y8190255D01*
X5246649Y8199907D01*
X5252999Y8206257D01*
X5259349Y8209559D01*
X5269001Y8212607D01*
X5285003Y8212607D01*
X5294401Y8209559D01*
X5300751Y8206257D01*
X5307101Y8199907D01*
X5310403Y8190255D01*
X5310403Y8168157D01*
X5256301Y8233689D02*
G01*
X5252999Y8240039D01*
X5243601Y8249437D01*
X5310403Y8249437D01*
X5506999Y7953527D02*
G01*
X5500649Y7947177D01*
X5497601Y7937779D01*
X5497601Y7925079D01*
X5500649Y7915427D01*
X5506999Y7909077D01*
X5513349Y7909077D01*
X5519699Y7912379D01*
X5523001Y7915427D01*
X5526049Y7921777D01*
X5532399Y7940827D01*
X5535701Y7947177D01*
X5539003Y7950479D01*
X5545353Y7953527D01*
X5554751Y7953527D01*
X5561101Y7947177D01*
X5564403Y7937779D01*
X5564403Y7925079D01*
X5561101Y7915427D01*
X5554751Y7909077D01*
X5497601Y7974609D02*
G01*
X5564403Y7974609D01*
X5497601Y7974609D02*
G01*
X5497601Y7996961D01*
X5500649Y8006359D01*
X5506999Y8012709D01*
X5513349Y8016011D01*
X5523001Y8019059D01*
X5539003Y8019059D01*
X5548401Y8016011D01*
X5554751Y8012709D01*
X5561101Y8006359D01*
X5564403Y7996961D01*
X5564403Y7974609D01*
X5586501Y8040141D02*
G01*
X5586501Y8097545D01*
X5506999Y8163077D02*
G01*
X5500649Y8156727D01*
X5497601Y8147075D01*
X5497601Y8134375D01*
X5500649Y8124723D01*
X5506999Y8118373D01*
X5513349Y8118373D01*
X5519699Y8121675D01*
X5523001Y8124723D01*
X5526049Y8131073D01*
X5532399Y8150377D01*
X5535701Y8156727D01*
X5539003Y8159775D01*
X5545353Y8163077D01*
X5554751Y8163077D01*
X5561101Y8156727D01*
X5564403Y8147075D01*
X5564403Y8134375D01*
X5561101Y8124723D01*
X5554751Y8118373D01*
X5506999Y8228609D02*
G01*
X5500649Y8222259D01*
X5497601Y8212607D01*
X5497601Y8199907D01*
X5500649Y8190255D01*
X5506999Y8183905D01*
X5513349Y8183905D01*
X5519699Y8187207D01*
X5523001Y8190255D01*
X5526049Y8196605D01*
X5532399Y8215909D01*
X5535701Y8222259D01*
X5539003Y8225307D01*
X5545353Y8228609D01*
X5554751Y8228609D01*
X5561101Y8222259D01*
X5564403Y8212607D01*
X5564403Y8199907D01*
X5561101Y8190255D01*
X5554751Y8183905D01*
X5760999Y7966227D02*
G01*
X5754649Y7959877D01*
X5751601Y7950479D01*
X5751601Y7937779D01*
X5754649Y7928127D01*
X5760999Y7921777D01*
X5767349Y7921777D01*
X5773699Y7925079D01*
X5777001Y7928127D01*
X5780049Y7934477D01*
X5786399Y7953527D01*
X5789701Y7959877D01*
X5793003Y7963179D01*
X5799353Y7966227D01*
X5808751Y7966227D01*
X5815101Y7959877D01*
X5818403Y7950479D01*
X5818403Y7937779D01*
X5815101Y7928127D01*
X5808751Y7921777D01*
X5751601Y7987309D02*
G01*
X5818403Y7987309D01*
X5751601Y7987309D02*
G01*
X5751601Y8009661D01*
X5754649Y8019059D01*
X5760999Y8025409D01*
X5767349Y8028711D01*
X5777001Y8031759D01*
X5793003Y8031759D01*
X5802401Y8028711D01*
X5808751Y8025409D01*
X5815101Y8019059D01*
X5818403Y8009661D01*
X5818403Y7987309D01*
X5840501Y8052841D02*
G01*
X5840501Y8110245D01*
X5751601Y8131073D02*
G01*
X5818403Y8131073D01*
X5751601Y8131073D02*
G01*
X5751601Y8153425D01*
X5754649Y8163077D01*
X5760999Y8169427D01*
X5767349Y8172475D01*
X5777001Y8175777D01*
X5793003Y8175777D01*
X5802401Y8172475D01*
X5808751Y8169427D01*
X5815101Y8163077D01*
X5818403Y8153425D01*
X5818403Y8131073D01*
X5751601Y8196605D02*
G01*
X5818403Y8196605D01*
X6014999Y7953527D02*
G01*
X6008649Y7947177D01*
X6005601Y7937779D01*
X6005601Y7925079D01*
X6008649Y7915427D01*
X6014999Y7909077D01*
X6021349Y7909077D01*
X6027699Y7912379D01*
X6031001Y7915427D01*
X6034049Y7921777D01*
X6040399Y7940827D01*
X6043701Y7947177D01*
X6047003Y7950479D01*
X6053353Y7953527D01*
X6062751Y7953527D01*
X6069101Y7947177D01*
X6072403Y7937779D01*
X6072403Y7925079D01*
X6069101Y7915427D01*
X6062751Y7909077D01*
X6005601Y7974609D02*
G01*
X6072403Y7974609D01*
X6005601Y7974609D02*
G01*
X6005601Y7996961D01*
X6008649Y8006359D01*
X6014999Y8012709D01*
X6021349Y8016011D01*
X6031001Y8019059D01*
X6047003Y8019059D01*
X6056401Y8016011D01*
X6062751Y8012709D01*
X6069101Y8006359D01*
X6072403Y7996961D01*
X6072403Y7974609D01*
X6094501Y8040141D02*
G01*
X6094501Y8097545D01*
X6005601Y8118373D02*
G01*
X6072403Y8118373D01*
X6005601Y8118373D02*
G01*
X6005601Y8140725D01*
X6008649Y8150377D01*
X6014999Y8156727D01*
X6021349Y8159775D01*
X6031001Y8163077D01*
X6047003Y8163077D01*
X6056401Y8159775D01*
X6062751Y8156727D01*
X6069101Y8150377D01*
X6072403Y8140725D01*
X6072403Y8118373D01*
X6005601Y8202955D02*
G01*
X6008649Y8196605D01*
X6014999Y8190255D01*
X6021349Y8187207D01*
X6031001Y8183905D01*
X6047003Y8183905D01*
X6056401Y8187207D01*
X6062751Y8190255D01*
X6069101Y8196605D01*
X6072403Y8202955D01*
X6072403Y8215909D01*
X6069101Y8222259D01*
X6062751Y8228609D01*
X6056401Y8231657D01*
X6047003Y8234959D01*
X6031001Y8234959D01*
X6021349Y8231657D01*
X6014999Y8228609D01*
X6008649Y8222259D01*
X6005601Y8215909D01*
X6005601Y8202955D01*
X6281699Y7940827D02*
G01*
X6275349Y7934477D01*
X6272301Y7925079D01*
X6272301Y7912379D01*
X6275349Y7902727D01*
X6281699Y7896377D01*
X6288049Y7896377D01*
X6294399Y7899679D01*
X6297701Y7902727D01*
X6300749Y7909077D01*
X6307099Y7928127D01*
X6310401Y7934477D01*
X6313703Y7937779D01*
X6320053Y7940827D01*
X6329451Y7940827D01*
X6335801Y7934477D01*
X6339103Y7925079D01*
X6339103Y7912379D01*
X6335801Y7902727D01*
X6329451Y7896377D01*
X6272301Y7961909D02*
G01*
X6339103Y7961909D01*
X6272301Y7961909D02*
G01*
X6272301Y7984261D01*
X6275349Y7993659D01*
X6281699Y8000009D01*
X6288049Y8003311D01*
X6297701Y8006359D01*
X6313703Y8006359D01*
X6323101Y8003311D01*
X6329451Y8000009D01*
X6335801Y7993659D01*
X6339103Y7984261D01*
X6339103Y7961909D01*
X6361201Y8027441D02*
G01*
X6361201Y8084845D01*
X6281699Y8150377D02*
G01*
X6275349Y8144027D01*
X6272301Y8134375D01*
X6272301Y8121675D01*
X6275349Y8112023D01*
X6281699Y8105673D01*
X6288049Y8105673D01*
X6294399Y8108975D01*
X6297701Y8112023D01*
X6300749Y8118373D01*
X6307099Y8137677D01*
X6310401Y8144027D01*
X6313703Y8147075D01*
X6320053Y8150377D01*
X6329451Y8150377D01*
X6335801Y8144027D01*
X6339103Y8134375D01*
X6339103Y8121675D01*
X6335801Y8112023D01*
X6329451Y8105673D01*
X6288049Y8218957D02*
G01*
X6281699Y8215909D01*
X6275349Y8209559D01*
X6272301Y8203209D01*
X6272301Y8190255D01*
X6275349Y8183905D01*
X6281699Y8177555D01*
X6288049Y8174507D01*
X6297701Y8171205D01*
X6313703Y8171205D01*
X6323101Y8174507D01*
X6329451Y8177555D01*
X6335801Y8183905D01*
X6339103Y8190255D01*
X6339103Y8203209D01*
X6335801Y8209559D01*
X6329451Y8215909D01*
X6323101Y8218957D01*
X6272301Y8240039D02*
G01*
X6339103Y8240039D01*
X6272301Y8284489D02*
G01*
X6316751Y8240039D01*
X6300749Y8256041D02*
G01*
X6339103Y8284489D01*
X3325901Y12046178D02*
G01*
X3392703Y12046178D01*
X3392703Y12046178D02*
G01*
X3392703Y12084278D01*
X3341649Y12153112D02*
G01*
X3335299Y12149810D01*
X3328949Y12143460D01*
X3325901Y12137110D01*
X3325901Y12124410D01*
X3328949Y12118060D01*
X3335299Y12111710D01*
X3341649Y12108662D01*
X3351301Y12105360D01*
X3367303Y12105360D01*
X3376701Y12108662D01*
X3383051Y12111710D01*
X3389401Y12118060D01*
X3392703Y12124410D01*
X3392703Y12137110D01*
X3389401Y12143460D01*
X3383051Y12149810D01*
X3376701Y12153112D01*
X3325901Y12174194D02*
G01*
X3392703Y12174194D01*
X3325901Y12174194D02*
G01*
X3325901Y12196292D01*
X3328949Y12205944D01*
X3335299Y12212294D01*
X3341649Y12215342D01*
X3351301Y12218644D01*
X3367303Y12218644D01*
X3376701Y12215342D01*
X3383051Y12212294D01*
X3389401Y12205944D01*
X3392703Y12196292D01*
X3392703Y12174194D01*
X3414801Y12239726D02*
G01*
X3414801Y12296876D01*
X3341649Y12365710D02*
G01*
X3335299Y12362408D01*
X3328949Y12356058D01*
X3325901Y12349708D01*
X3325901Y12337008D01*
X3328949Y12330658D01*
X3335299Y12324308D01*
X3341649Y12321006D01*
X3351301Y12317958D01*
X3367303Y12317958D01*
X3376701Y12321006D01*
X3383051Y12324308D01*
X3389401Y12330658D01*
X3392703Y12337008D01*
X3392703Y12349708D01*
X3389401Y12356058D01*
X3383051Y12362408D01*
X3376701Y12365710D01*
X3335299Y12431242D02*
G01*
X3328949Y12424892D01*
X3325901Y12415240D01*
X3325901Y12402540D01*
X3328949Y12392888D01*
X3335299Y12386538D01*
X3341649Y12386538D01*
X3347999Y12389840D01*
X3351301Y12392888D01*
X3354349Y12399238D01*
X3360699Y12418542D01*
X3364001Y12424892D01*
X3367303Y12427940D01*
X3373653Y12431242D01*
X3383051Y12431242D01*
X3389401Y12424892D01*
X3392703Y12415240D01*
X3392703Y12402540D01*
X3389401Y12392888D01*
X3383051Y12386538D01*
X3071901Y11995378D02*
G01*
X3138703Y11995378D01*
X3138703Y11995378D02*
G01*
X3138703Y12033478D01*
X3087649Y12102312D02*
G01*
X3081299Y12099010D01*
X3074949Y12092660D01*
X3071901Y12086310D01*
X3071901Y12073610D01*
X3074949Y12067260D01*
X3081299Y12060910D01*
X3087649Y12057862D01*
X3097301Y12054560D01*
X3113303Y12054560D01*
X3122701Y12057862D01*
X3129051Y12060910D01*
X3135401Y12067260D01*
X3138703Y12073610D01*
X3138703Y12086310D01*
X3135401Y12092660D01*
X3129051Y12099010D01*
X3122701Y12102312D01*
X3071901Y12123394D02*
G01*
X3138703Y12123394D01*
X3071901Y12123394D02*
G01*
X3071901Y12145492D01*
X3074949Y12155144D01*
X3081299Y12161494D01*
X3087649Y12164542D01*
X3097301Y12167844D01*
X3113303Y12167844D01*
X3122701Y12164542D01*
X3129051Y12161494D01*
X3135401Y12155144D01*
X3138703Y12145492D01*
X3138703Y12123394D01*
X3160801Y12188926D02*
G01*
X3160801Y12246076D01*
X3071901Y12267158D02*
G01*
X3138703Y12267158D01*
X3071901Y12267158D02*
G01*
X3071901Y12295860D01*
X3074949Y12305258D01*
X3078251Y12308560D01*
X3084601Y12311608D01*
X3090951Y12311608D01*
X3097301Y12308560D01*
X3100349Y12305258D01*
X3103651Y12295860D01*
X3103651Y12267158D01*
X3103651Y12289256D02*
G01*
X3138703Y12311608D01*
X3081299Y12377140D02*
G01*
X3074949Y12370790D01*
X3071901Y12361392D01*
X3071901Y12348438D01*
X3074949Y12339040D01*
X3081299Y12332690D01*
X3087649Y12332690D01*
X3093999Y12335738D01*
X3097301Y12339040D01*
X3100349Y12345390D01*
X3106699Y12364440D01*
X3110001Y12370790D01*
X3113303Y12374092D01*
X3119653Y12377140D01*
X3129051Y12377140D01*
X3135401Y12370790D01*
X3138703Y12361392D01*
X3138703Y12348438D01*
X3135401Y12339040D01*
X3129051Y12332690D01*
X3071901Y12420574D02*
G01*
X3138703Y12420574D01*
X3071901Y12398222D02*
G01*
X3071901Y12442672D01*
X2817901Y12147778D02*
G01*
X2884703Y12147778D01*
X2817901Y12147778D02*
G01*
X2817901Y12189180D01*
X2849651Y12147778D02*
G01*
X2849651Y12173178D01*
X2906801Y12210262D02*
G01*
X2906801Y12267412D01*
X2833649Y12336246D02*
G01*
X2827299Y12332944D01*
X2820949Y12326594D01*
X2817901Y12320244D01*
X2817901Y12307544D01*
X2820949Y12301194D01*
X2827299Y12294844D01*
X2833649Y12291542D01*
X2843301Y12288494D01*
X2859303Y12288494D01*
X2868701Y12291542D01*
X2875051Y12294844D01*
X2881401Y12301194D01*
X2884703Y12307544D01*
X2884703Y12320244D01*
X2881401Y12326594D01*
X2875051Y12332944D01*
X2868701Y12336246D01*
X2827299Y12401778D02*
G01*
X2820949Y12395428D01*
X2817901Y12385776D01*
X2817901Y12373076D01*
X2820949Y12363424D01*
X2827299Y12357074D01*
X2833649Y12357074D01*
X2839999Y12360376D01*
X2843301Y12363424D01*
X2846349Y12369774D01*
X2852699Y12389078D01*
X2856001Y12395428D01*
X2859303Y12398476D01*
X2865653Y12401778D01*
X2875051Y12401778D01*
X2881401Y12395428D01*
X2884703Y12385776D01*
X2884703Y12373076D01*
X2881401Y12363424D01*
X2875051Y12357074D01*
X10626852Y9897110D02*
G01*
X10623550Y9903713D01*
X10617200Y9910063D01*
X10610850Y9913112D01*
X10598150Y9913112D01*
X10591800Y9910063D01*
X10585450Y9903713D01*
X10582402Y9897110D01*
X10579100Y9887712D01*
X10579100Y9871710D01*
X10582402Y9862312D01*
X10585450Y9855962D01*
X10591800Y9849612D01*
X10598150Y9846310D01*
X10610850Y9846310D01*
X10617200Y9849612D01*
X10623550Y9855962D01*
X10626852Y9862312D01*
X10626852Y9871710D01*
X10610850Y9871710D02*
G01*
X10626852Y9871710D01*
X10647934Y9913112D02*
G01*
X10647934Y9846310D01*
X10647934Y9913112D02*
G01*
X10692384Y9846310D01*
X10692384Y9913112D02*
G01*
X10692384Y9846310D01*
X10713465Y9913112D02*
G01*
X10713465Y9846310D01*
X10713465Y9913112D02*
G01*
X10735563Y9913112D01*
X10745215Y9910063D01*
X10751565Y9903713D01*
X10754613Y9897110D01*
X10757915Y9887712D01*
X10757915Y9871710D01*
X10754613Y9862312D01*
X10751565Y9855962D01*
X10745215Y9849612D01*
X10735563Y9846310D01*
X10713465Y9846310D01*
X10820400Y9925812D02*
G01*
X10845800Y9859010D01*
X10871200Y9925812D02*
G01*
X10845800Y9859010D01*
X10940034Y9909810D02*
G01*
X10936731Y9916413D01*
X10930381Y9922763D01*
X10924031Y9925812D01*
X10911331Y9925812D01*
X10904981Y9922763D01*
X10898631Y9916413D01*
X10895584Y9909810D01*
X10892281Y9900412D01*
X10892281Y9884410D01*
X10895584Y9875012D01*
X10898631Y9868662D01*
X10904981Y9862312D01*
X10911331Y9859010D01*
X10924031Y9859010D01*
X10930381Y9862312D01*
X10936731Y9868662D01*
X10940034Y9875012D01*
X11008868Y9909810D02*
G01*
X11005565Y9916413D01*
X10999215Y9922763D01*
X10992865Y9925812D01*
X10980165Y9925812D01*
X10973815Y9922763D01*
X10967465Y9916413D01*
X10964163Y9909810D01*
X10961115Y9900412D01*
X10961115Y9884410D01*
X10964163Y9875012D01*
X10967465Y9868662D01*
X10973815Y9862312D01*
X10980165Y9859010D01*
X10992865Y9859010D01*
X10999215Y9862312D01*
X11005565Y9868662D01*
X11008868Y9875012D01*
X11144250Y9916413D02*
G01*
X11137900Y9922763D01*
X11128502Y9925812D01*
X11115802Y9925812D01*
X11106150Y9922763D01*
X11099800Y9916413D01*
X11099800Y9909810D01*
X11103102Y9903460D01*
X11106150Y9900412D01*
X11112500Y9897110D01*
X11131550Y9890760D01*
X11137900Y9887712D01*
X11141202Y9884410D01*
X11144250Y9878060D01*
X11144250Y9868662D01*
X11137900Y9862312D01*
X11128502Y9859010D01*
X11115802Y9859010D01*
X11106150Y9862312D01*
X11099800Y9868662D01*
X11213084Y9909810D02*
G01*
X11209781Y9916413D01*
X11203431Y9922763D01*
X11197081Y9925812D01*
X11184381Y9925812D01*
X11178031Y9922763D01*
X11171681Y9916413D01*
X11168634Y9909810D01*
X11165331Y9900412D01*
X11165331Y9884410D01*
X11168634Y9875012D01*
X11171681Y9868662D01*
X11178031Y9862312D01*
X11184381Y9859010D01*
X11197081Y9859010D01*
X11203431Y9862312D01*
X11209781Y9868662D01*
X11213084Y9875012D01*
X11234165Y9925812D02*
G01*
X11234165Y9859010D01*
X11234165Y9859010D02*
G01*
X11272265Y9859010D01*
X11398250Y9916413D02*
G01*
X11391900Y9922763D01*
X11382502Y9925812D01*
X11369802Y9925812D01*
X11360150Y9922763D01*
X11353800Y9916413D01*
X11353800Y9909810D01*
X11357102Y9903460D01*
X11360150Y9900412D01*
X11366500Y9897110D01*
X11385550Y9890760D01*
X11391900Y9887712D01*
X11395202Y9884410D01*
X11398250Y9878060D01*
X11398250Y9868662D01*
X11391900Y9862312D01*
X11382502Y9859010D01*
X11369802Y9859010D01*
X11360150Y9862312D01*
X11353800Y9868662D01*
X11419331Y9925812D02*
G01*
X11419331Y9859010D01*
X11419331Y9925812D02*
G01*
X11441684Y9925812D01*
X11451081Y9922763D01*
X11457431Y9916413D01*
X11460734Y9909810D01*
X11463781Y9900412D01*
X11463781Y9884410D01*
X11460734Y9875012D01*
X11457431Y9868662D01*
X11451081Y9862312D01*
X11441684Y9859010D01*
X11419331Y9859010D01*
X11510263Y9925812D02*
G01*
X11484863Y9859010D01*
X11510263Y9925812D02*
G01*
X11535918Y9859010D01*
X11494515Y9881362D02*
G01*
X11526265Y9881362D01*
D11*
X11121643Y12812521D02*
G01*
X11111229Y12822936D01*
X11095736Y12828015D01*
X11074908Y12828015D01*
X11059413Y12822936D01*
X11049000Y12812521D01*
X11049000Y12802108D01*
X11054079Y12791694D01*
X11059413Y12786360D01*
X11069827Y12781279D01*
X11101070Y12770865D01*
X11111229Y12765786D01*
X11116563Y12760452D01*
X11121643Y12750037D01*
X11121643Y12734544D01*
X11111229Y12724129D01*
X11095736Y12719050D01*
X11074908Y12719050D01*
X11059413Y12724129D01*
X11049000Y12734544D01*
X11155934Y12828015D02*
G01*
X11182095Y12719050D01*
X11208004Y12828015D02*
G01*
X11182095Y12719050D01*
X11208004Y12828015D02*
G01*
X11233911Y12719050D01*
X11259820Y12828015D02*
G01*
X11233911Y12719050D01*
X11294109Y12807187D02*
G01*
X11304524Y12812521D01*
X11320272Y12828015D01*
X11320272Y12719050D01*
D12*
X9715500Y12954000D02*
G01*
X1115517Y12954000D01*
X1115517Y7390996D01*
X9715500Y7390996D01*
X9715500Y12954000D01*
D13*
X9827412Y9412310D02*
G01*
X12113412Y9412310D01*
X12113412Y8040710D01*
X9827412Y8040710D01*
X9827412Y9412310D01*
X9763912Y9983810D02*
G01*
X12207087Y9983810D01*
X12207087Y7389792D01*
X11897512Y7389792D01*
X10373512Y7389794D01*
X9763912Y7389792D01*
X9763912Y9983810D01*
D12*
X1828800Y12601501D02*
G01*
X1828800Y7705496D01*
X1828800Y7705496D02*
G01*
X9172798Y7705496D01*
X9172798Y12601501D01*
X1828800Y12601501D01*
X10477500Y12609829D02*
G01*
X11645900Y12609829D01*
X11645900Y11235689D01*
X10477500Y11235689D01*
X10477500Y12609829D01*
G75*
G01
X11361420Y11885930D02*
G03X11361420Y11885930I-299720J0D01*
G75*
G01
X11562080Y11885930D02*
G03X11562080Y11885930I-500380J0D01*
G75*
G01
X11412220Y11885930D02*
G03X11412220Y11885930I-350520J0D01*
M02*
