G04 Layer: TopLayer*
G04 EasyEDA v6.5.44, 2024-08-15 15:42:15*
G04 b91efb4008e245508f022da7a51206cd,080bb0d1436b4706b040d70de8f1a738,10*
G04 Gerber Generator version 0.2*
G04 Scale: 100 percent, Rotated: No, Reflected: No *
G04 Dimensions in millimeters *
G04 leading zeros omitted , absolute positions ,4 integer and 5 decimal *
%FSLAX45Y45*%
%MOMM*%

%ADD10C,0.3000*%
%ADD11R,1.5080X1.5080*%
%ADD12C,1.5080*%
%ADD13R,1.5000X1.5000*%
%ADD14C,1.5000*%
%ADD15C,1.8009*%
%ADD16R,1.9990X3.5992*%
%ADD17C,1.6000*%
%ADD18C,1.5240*%
%ADD19C,0.6100*%
%ADD20C,0.0111*%

%LPD*%
G36*
X798068Y7137908D02*
G01*
X794156Y7138670D01*
X790905Y7140905D01*
X788670Y7144156D01*
X787908Y7148068D01*
X787908Y13171932D01*
X788670Y13175843D01*
X790905Y13179094D01*
X794156Y13181330D01*
X798068Y13182092D01*
X12663932Y13182092D01*
X12667843Y13181330D01*
X12671094Y13179094D01*
X12673330Y13175843D01*
X12674092Y13171932D01*
X12674092Y7148068D01*
X12673330Y7144156D01*
X12671094Y7140905D01*
X12667843Y7138670D01*
X12663932Y7137908D01*
G37*

%LPC*%
G36*
X12090400Y7494117D02*
G01*
X12105589Y7495031D01*
X12120524Y7497775D01*
X12135053Y7502296D01*
X12148921Y7508544D01*
X12161926Y7516418D01*
X12173864Y7525766D01*
X12184634Y7536535D01*
X12193981Y7548473D01*
X12201855Y7561478D01*
X12208103Y7575346D01*
X12212624Y7589875D01*
X12215368Y7604810D01*
X12216282Y7620000D01*
X12215368Y7635189D01*
X12212624Y7650124D01*
X12208103Y7664653D01*
X12201855Y7678521D01*
X12193981Y7691526D01*
X12184634Y7703464D01*
X12173864Y7714234D01*
X12161926Y7723581D01*
X12148921Y7731455D01*
X12135053Y7737703D01*
X12120524Y7742224D01*
X12105589Y7744968D01*
X12090400Y7745882D01*
X12075210Y7744968D01*
X12060275Y7742224D01*
X12045746Y7737703D01*
X12031878Y7731455D01*
X12018873Y7723581D01*
X12006935Y7714234D01*
X11996166Y7703464D01*
X11986818Y7691526D01*
X11978944Y7678521D01*
X11972696Y7664653D01*
X11968175Y7650124D01*
X11965432Y7635189D01*
X11964517Y7620000D01*
X11965432Y7604810D01*
X11968175Y7589875D01*
X11972696Y7575346D01*
X11978944Y7561478D01*
X11986818Y7548473D01*
X11996166Y7536535D01*
X12006935Y7525766D01*
X12018873Y7516418D01*
X12031878Y7508544D01*
X12045746Y7502296D01*
X12060275Y7497775D01*
X12075210Y7495031D01*
G37*
G36*
X10007600Y7494117D02*
G01*
X10022789Y7495031D01*
X10037724Y7497775D01*
X10052253Y7502296D01*
X10066121Y7508544D01*
X10079126Y7516418D01*
X10091064Y7525766D01*
X10101834Y7536535D01*
X10111181Y7548473D01*
X10119055Y7561478D01*
X10125303Y7575346D01*
X10129824Y7589875D01*
X10132568Y7604810D01*
X10133482Y7620000D01*
X10132568Y7635189D01*
X10129824Y7650124D01*
X10125303Y7664653D01*
X10119055Y7678521D01*
X10111181Y7691526D01*
X10101834Y7703464D01*
X10091064Y7714234D01*
X10079126Y7723581D01*
X10066121Y7731455D01*
X10052253Y7737703D01*
X10037724Y7742224D01*
X10022789Y7744968D01*
X10007600Y7745882D01*
X9992410Y7744968D01*
X9977475Y7742224D01*
X9962946Y7737703D01*
X9949078Y7731455D01*
X9936073Y7723581D01*
X9924135Y7714234D01*
X9913366Y7703464D01*
X9904018Y7691526D01*
X9896144Y7678521D01*
X9889896Y7664653D01*
X9885375Y7650124D01*
X9882632Y7635189D01*
X9881717Y7620000D01*
X9882632Y7604810D01*
X9885375Y7589875D01*
X9889896Y7575346D01*
X9896144Y7561478D01*
X9904018Y7548473D01*
X9913366Y7536535D01*
X9924135Y7525766D01*
X9936073Y7516418D01*
X9949078Y7508544D01*
X9962946Y7502296D01*
X9977475Y7497775D01*
X9992410Y7495031D01*
G37*
G36*
X5272278Y7661909D02*
G01*
X5421122Y7661909D01*
X5427472Y7662621D01*
X5432907Y7664500D01*
X5437835Y7667599D01*
X5441899Y7671663D01*
X5444998Y7676591D01*
X5446877Y7682026D01*
X5447588Y7688376D01*
X5447588Y7837220D01*
X5446877Y7843570D01*
X5444998Y7849006D01*
X5441899Y7853934D01*
X5437835Y7857998D01*
X5432907Y7861096D01*
X5427472Y7862976D01*
X5421122Y7863687D01*
X5272278Y7863687D01*
X5265928Y7862976D01*
X5260492Y7861096D01*
X5255564Y7857998D01*
X5251500Y7853934D01*
X5248402Y7849006D01*
X5246522Y7843570D01*
X5245811Y7837220D01*
X5245811Y7688376D01*
X5246522Y7682026D01*
X5248402Y7676591D01*
X5251500Y7671663D01*
X5255564Y7667599D01*
X5260492Y7664500D01*
X5265928Y7662621D01*
G37*
G36*
X3494278Y7661909D02*
G01*
X3643122Y7661909D01*
X3649472Y7662621D01*
X3654907Y7664500D01*
X3659835Y7667599D01*
X3663899Y7671663D01*
X3666998Y7676591D01*
X3668877Y7682026D01*
X3669588Y7688376D01*
X3669588Y7837220D01*
X3668877Y7843570D01*
X3666998Y7849006D01*
X3663899Y7853934D01*
X3659835Y7857998D01*
X3654907Y7861096D01*
X3649472Y7862976D01*
X3643122Y7863687D01*
X3494278Y7863687D01*
X3487928Y7862976D01*
X3482492Y7861096D01*
X3477564Y7857998D01*
X3473500Y7853934D01*
X3470401Y7849006D01*
X3468522Y7843570D01*
X3467811Y7837220D01*
X3467811Y7688376D01*
X3468522Y7682026D01*
X3470401Y7676591D01*
X3473500Y7671663D01*
X3477564Y7667599D01*
X3482492Y7664500D01*
X3487928Y7662621D01*
G37*
G36*
X5851347Y7661960D02*
G01*
X5864809Y7662418D01*
X5878068Y7664653D01*
X5890971Y7668666D01*
X5903163Y7674305D01*
X5914542Y7681569D01*
X5924854Y7690256D01*
X5933897Y7700264D01*
X5941517Y7711389D01*
X5947562Y7723428D01*
X5951982Y7736128D01*
X5954674Y7749336D01*
X5955588Y7762798D01*
X5954674Y7776260D01*
X5951982Y7789468D01*
X5947562Y7802168D01*
X5941517Y7814208D01*
X5933897Y7825333D01*
X5924854Y7835341D01*
X5914542Y7844028D01*
X5903163Y7851292D01*
X5890971Y7856931D01*
X5878068Y7860944D01*
X5864809Y7863179D01*
X5851347Y7863636D01*
X5837936Y7862265D01*
X5824829Y7859166D01*
X5812231Y7854289D01*
X5800394Y7847838D01*
X5789574Y7839862D01*
X5779871Y7830464D01*
X5771540Y7819898D01*
X5764682Y7808315D01*
X5759399Y7795869D01*
X5755843Y7782915D01*
X5754065Y7769555D01*
X5754065Y7756042D01*
X5755843Y7742681D01*
X5759399Y7729728D01*
X5764682Y7717281D01*
X5771540Y7705699D01*
X5779871Y7695133D01*
X5789574Y7685735D01*
X5800394Y7677759D01*
X5812231Y7671308D01*
X5824829Y7666431D01*
X5837936Y7663332D01*
G37*
G36*
X6105347Y7661960D02*
G01*
X6118809Y7662418D01*
X6132068Y7664653D01*
X6144971Y7668666D01*
X6157163Y7674305D01*
X6168542Y7681569D01*
X6178854Y7690256D01*
X6187897Y7700264D01*
X6195517Y7711389D01*
X6201562Y7723428D01*
X6205982Y7736128D01*
X6208674Y7749336D01*
X6209588Y7762798D01*
X6208674Y7776260D01*
X6205982Y7789468D01*
X6201562Y7802168D01*
X6195517Y7814208D01*
X6187897Y7825333D01*
X6178854Y7835341D01*
X6168542Y7844028D01*
X6157163Y7851292D01*
X6144971Y7856931D01*
X6132068Y7860944D01*
X6118809Y7863179D01*
X6105347Y7863636D01*
X6091936Y7862265D01*
X6078829Y7859166D01*
X6066231Y7854289D01*
X6054394Y7847838D01*
X6043574Y7839862D01*
X6033871Y7830464D01*
X6025540Y7819898D01*
X6018682Y7808315D01*
X6013399Y7795869D01*
X6009843Y7782915D01*
X6008065Y7769555D01*
X6008065Y7756042D01*
X6009843Y7742681D01*
X6013399Y7729728D01*
X6018682Y7717281D01*
X6025540Y7705699D01*
X6033871Y7695133D01*
X6043574Y7685735D01*
X6054394Y7677759D01*
X6066231Y7671308D01*
X6078829Y7666431D01*
X6091936Y7663332D01*
G37*
G36*
X6613347Y7661960D02*
G01*
X6626809Y7662418D01*
X6640068Y7664653D01*
X6652971Y7668666D01*
X6665163Y7674305D01*
X6676542Y7681569D01*
X6686854Y7690256D01*
X6695897Y7700264D01*
X6703517Y7711389D01*
X6709562Y7723428D01*
X6713981Y7736128D01*
X6716674Y7749336D01*
X6717588Y7762798D01*
X6716674Y7776260D01*
X6713981Y7789468D01*
X6709562Y7802168D01*
X6703517Y7814208D01*
X6695897Y7825333D01*
X6686854Y7835341D01*
X6676542Y7844028D01*
X6665163Y7851292D01*
X6652971Y7856931D01*
X6640068Y7860944D01*
X6626809Y7863179D01*
X6613347Y7863636D01*
X6599936Y7862265D01*
X6586829Y7859166D01*
X6574231Y7854289D01*
X6562394Y7847838D01*
X6551574Y7839862D01*
X6541871Y7830464D01*
X6533540Y7819898D01*
X6526682Y7808315D01*
X6521399Y7795869D01*
X6517843Y7782915D01*
X6516065Y7769555D01*
X6516065Y7756042D01*
X6517843Y7742681D01*
X6521399Y7729728D01*
X6526682Y7717281D01*
X6533540Y7705699D01*
X6541871Y7695133D01*
X6551574Y7685735D01*
X6562394Y7677759D01*
X6574231Y7671308D01*
X6586829Y7666431D01*
X6599936Y7663332D01*
G37*
G36*
X6359347Y7661960D02*
G01*
X6372809Y7662418D01*
X6386068Y7664653D01*
X6398971Y7668666D01*
X6411163Y7674305D01*
X6422542Y7681569D01*
X6432854Y7690256D01*
X6441897Y7700264D01*
X6449517Y7711389D01*
X6455562Y7723428D01*
X6459982Y7736128D01*
X6462674Y7749336D01*
X6463588Y7762798D01*
X6462674Y7776260D01*
X6459982Y7789468D01*
X6455562Y7802168D01*
X6449517Y7814208D01*
X6441897Y7825333D01*
X6432854Y7835341D01*
X6422542Y7844028D01*
X6411163Y7851292D01*
X6398971Y7856931D01*
X6386068Y7860944D01*
X6372809Y7863179D01*
X6359347Y7863636D01*
X6345936Y7862265D01*
X6332829Y7859166D01*
X6320231Y7854289D01*
X6308394Y7847838D01*
X6297574Y7839862D01*
X6287871Y7830464D01*
X6279540Y7819898D01*
X6272682Y7808315D01*
X6267399Y7795869D01*
X6263843Y7782915D01*
X6262065Y7769555D01*
X6262065Y7756042D01*
X6263843Y7742681D01*
X6267399Y7729728D01*
X6272682Y7717281D01*
X6279540Y7705699D01*
X6287871Y7695133D01*
X6297574Y7685735D01*
X6308394Y7677759D01*
X6320231Y7671308D01*
X6332829Y7666431D01*
X6345936Y7663332D01*
G37*
G36*
X5597347Y7661960D02*
G01*
X5610809Y7662418D01*
X5624068Y7664653D01*
X5636971Y7668666D01*
X5649163Y7674305D01*
X5660542Y7681569D01*
X5670854Y7690256D01*
X5679897Y7700264D01*
X5687517Y7711389D01*
X5693562Y7723428D01*
X5697982Y7736128D01*
X5700674Y7749336D01*
X5701588Y7762798D01*
X5700674Y7776260D01*
X5697982Y7789468D01*
X5693562Y7802168D01*
X5687517Y7814208D01*
X5679897Y7825333D01*
X5670854Y7835341D01*
X5660542Y7844028D01*
X5649163Y7851292D01*
X5636971Y7856931D01*
X5624068Y7860944D01*
X5610809Y7863179D01*
X5597347Y7863636D01*
X5583936Y7862265D01*
X5570829Y7859166D01*
X5558231Y7854289D01*
X5546394Y7847838D01*
X5535574Y7839862D01*
X5525871Y7830464D01*
X5517540Y7819898D01*
X5510682Y7808315D01*
X5505399Y7795869D01*
X5501843Y7782915D01*
X5500065Y7769555D01*
X5500065Y7756042D01*
X5501843Y7742681D01*
X5505399Y7729728D01*
X5510682Y7717281D01*
X5517540Y7705699D01*
X5525871Y7695133D01*
X5535574Y7685735D01*
X5546394Y7677759D01*
X5558231Y7671308D01*
X5570829Y7666431D01*
X5583936Y7663332D01*
G37*
G36*
X4835347Y7661960D02*
G01*
X4848809Y7662418D01*
X4862068Y7664653D01*
X4874971Y7668666D01*
X4887163Y7674305D01*
X4898542Y7681569D01*
X4908854Y7690256D01*
X4917897Y7700264D01*
X4925517Y7711389D01*
X4931562Y7723428D01*
X4935982Y7736128D01*
X4938674Y7749336D01*
X4939588Y7762798D01*
X4938674Y7776260D01*
X4935982Y7789468D01*
X4931562Y7802168D01*
X4925517Y7814208D01*
X4917897Y7825333D01*
X4908854Y7835341D01*
X4898542Y7844028D01*
X4887163Y7851292D01*
X4874971Y7856931D01*
X4862068Y7860944D01*
X4848809Y7863179D01*
X4835347Y7863636D01*
X4821936Y7862265D01*
X4808829Y7859166D01*
X4796231Y7854289D01*
X4784394Y7847838D01*
X4773574Y7839862D01*
X4763871Y7830464D01*
X4755540Y7819898D01*
X4748682Y7808315D01*
X4743399Y7795869D01*
X4739843Y7782915D01*
X4738065Y7769555D01*
X4738065Y7756042D01*
X4739843Y7742681D01*
X4743399Y7729728D01*
X4748682Y7717281D01*
X4755540Y7705699D01*
X4763871Y7695133D01*
X4773574Y7685735D01*
X4784394Y7677759D01*
X4796231Y7671308D01*
X4808829Y7666431D01*
X4821936Y7663332D01*
G37*
G36*
X3819347Y7661960D02*
G01*
X3832809Y7662418D01*
X3846068Y7664653D01*
X3858971Y7668666D01*
X3871163Y7674305D01*
X3882542Y7681569D01*
X3892854Y7690256D01*
X3901897Y7700264D01*
X3909517Y7711389D01*
X3915562Y7723428D01*
X3919982Y7736128D01*
X3922674Y7749336D01*
X3923588Y7762798D01*
X3922674Y7776260D01*
X3919982Y7789468D01*
X3915562Y7802168D01*
X3909517Y7814208D01*
X3901897Y7825333D01*
X3892854Y7835341D01*
X3882542Y7844028D01*
X3871163Y7851292D01*
X3858971Y7856931D01*
X3846068Y7860944D01*
X3832809Y7863179D01*
X3819347Y7863636D01*
X3805936Y7862265D01*
X3792829Y7859166D01*
X3780231Y7854289D01*
X3768394Y7847838D01*
X3757574Y7839862D01*
X3747871Y7830464D01*
X3739540Y7819898D01*
X3732682Y7808315D01*
X3727399Y7795869D01*
X3723843Y7782915D01*
X3722065Y7769555D01*
X3722065Y7756042D01*
X3723843Y7742681D01*
X3727399Y7729728D01*
X3732682Y7717281D01*
X3739540Y7705699D01*
X3747871Y7695133D01*
X3757574Y7685735D01*
X3768394Y7677759D01*
X3780231Y7671308D01*
X3792829Y7666431D01*
X3805936Y7663332D01*
G37*
G36*
X4073347Y7661960D02*
G01*
X4086809Y7662418D01*
X4100068Y7664653D01*
X4112971Y7668666D01*
X4125163Y7674305D01*
X4136542Y7681569D01*
X4146854Y7690256D01*
X4155897Y7700264D01*
X4163517Y7711389D01*
X4169562Y7723428D01*
X4173982Y7736128D01*
X4176674Y7749336D01*
X4177588Y7762798D01*
X4176674Y7776260D01*
X4173982Y7789468D01*
X4169562Y7802168D01*
X4163517Y7814208D01*
X4155897Y7825333D01*
X4146854Y7835341D01*
X4136542Y7844028D01*
X4125163Y7851292D01*
X4112971Y7856931D01*
X4100068Y7860944D01*
X4086809Y7863179D01*
X4073347Y7863636D01*
X4059936Y7862265D01*
X4046778Y7859115D01*
X4042918Y7858455D01*
X4039158Y7859268D01*
X4035907Y7861452D01*
X3605580Y8291728D01*
X3599027Y8297164D01*
X3591966Y8300923D01*
X3584295Y8303259D01*
X3575812Y8304072D01*
X2260904Y8304072D01*
X2256993Y8304834D01*
X2253691Y8307070D01*
X1585366Y8975394D01*
X1583232Y8978544D01*
X1582369Y8982202D01*
X1582928Y8985961D01*
X1584350Y8990025D01*
X1587093Y9003385D01*
X1588008Y9017000D01*
X1587093Y9030614D01*
X1584350Y9043974D01*
X1579880Y9056878D01*
X1573733Y9069019D01*
X1566011Y9080296D01*
X1556867Y9090406D01*
X1546453Y9099194D01*
X1534972Y9106509D01*
X1522577Y9112250D01*
X1509572Y9116314D01*
X1496110Y9118600D01*
X1482496Y9119057D01*
X1468932Y9117685D01*
X1455674Y9114485D01*
X1442923Y9109608D01*
X1430985Y9103055D01*
X1420012Y9094978D01*
X1410208Y9085478D01*
X1401724Y9074759D01*
X1394815Y9063024D01*
X1389481Y9050477D01*
X1385874Y9037320D01*
X1384046Y9023807D01*
X1384046Y9010192D01*
X1385874Y8996680D01*
X1389481Y8983522D01*
X1394815Y8970975D01*
X1401724Y8959240D01*
X1410208Y8948521D01*
X1420012Y8939022D01*
X1430985Y8930944D01*
X1442923Y8924391D01*
X1455674Y8919514D01*
X1468932Y8916365D01*
X1482496Y8914993D01*
X1496110Y8915450D01*
X1509572Y8917686D01*
X1517294Y8920073D01*
X1520952Y8920530D01*
X1524508Y8919667D01*
X1527505Y8917584D01*
X2210460Y8234629D01*
X2217064Y8229193D01*
X2224125Y8225434D01*
X2231796Y8223097D01*
X2240229Y8222284D01*
X3555187Y8222284D01*
X3559048Y8221472D01*
X3562350Y8219287D01*
X3978148Y7803489D01*
X3980179Y7800594D01*
X3981094Y7797139D01*
X3980789Y7793634D01*
X3977843Y7782915D01*
X3976065Y7769555D01*
X3976065Y7756042D01*
X3977843Y7742681D01*
X3981399Y7729728D01*
X3986682Y7717281D01*
X3993540Y7705699D01*
X4001871Y7695133D01*
X4011574Y7685735D01*
X4022394Y7677759D01*
X4034231Y7671308D01*
X4046829Y7666431D01*
X4059936Y7663332D01*
G37*
G36*
X4540859Y7672070D02*
G01*
X4540859Y7718958D01*
X4493971Y7718958D01*
X4494682Y7717281D01*
X4501540Y7705699D01*
X4509871Y7695133D01*
X4519574Y7685735D01*
X4530394Y7677759D01*
G37*
G36*
X4286859Y7672070D02*
G01*
X4286859Y7718958D01*
X4239971Y7718958D01*
X4240682Y7717281D01*
X4247540Y7705699D01*
X4255871Y7695133D01*
X4265574Y7685735D01*
X4276394Y7677759D01*
G37*
G36*
X4628540Y7672171D02*
G01*
X4633163Y7674305D01*
X4644542Y7681569D01*
X4654854Y7690256D01*
X4663897Y7700264D01*
X4671517Y7711389D01*
X4675327Y7718958D01*
X4628540Y7718958D01*
G37*
G36*
X4374540Y7672171D02*
G01*
X4379163Y7674305D01*
X4390542Y7681569D01*
X4400854Y7690256D01*
X4409897Y7700264D01*
X4417517Y7711389D01*
X4421327Y7718958D01*
X4374540Y7718958D01*
G37*
G36*
X4374540Y7806639D02*
G01*
X4421327Y7806639D01*
X4417517Y7814208D01*
X4409897Y7825333D01*
X4400854Y7835341D01*
X4390542Y7844028D01*
X4379163Y7851292D01*
X4374540Y7853425D01*
G37*
G36*
X4628540Y7806639D02*
G01*
X4675327Y7806639D01*
X4671517Y7814208D01*
X4663897Y7825333D01*
X4654854Y7835341D01*
X4644542Y7844028D01*
X4633163Y7851292D01*
X4628540Y7853425D01*
G37*
G36*
X4239971Y7806639D02*
G01*
X4286859Y7806639D01*
X4286859Y7853527D01*
X4276394Y7847838D01*
X4265574Y7839862D01*
X4255871Y7830464D01*
X4247540Y7819898D01*
X4240682Y7808315D01*
G37*
G36*
X4493971Y7806639D02*
G01*
X4540859Y7806639D01*
X4540859Y7853527D01*
X4530394Y7847838D01*
X4519574Y7839862D01*
X4509871Y7830464D01*
X4501540Y7819898D01*
X4494682Y7808315D01*
G37*
G36*
X5068316Y8216900D02*
G01*
X8368284Y8216900D01*
X8370011Y8217611D01*
X8622588Y8470188D01*
X8623300Y8471916D01*
X8623300Y8965946D01*
X8624062Y8969806D01*
X8626297Y8973108D01*
X8629548Y8975293D01*
X8633460Y8976106D01*
X9892792Y8976106D01*
X9901275Y8976918D01*
X9908946Y8979255D01*
X9916007Y8983014D01*
X9922560Y8988450D01*
X10880902Y9946741D01*
X10884154Y9948926D01*
X10887913Y9949738D01*
X10891977Y9948976D01*
X10905134Y9945827D01*
X10918596Y9944455D01*
X10932160Y9944912D01*
X10945469Y9947198D01*
X10958423Y9951161D01*
X10970666Y9956901D01*
X10982096Y9964166D01*
X10992408Y9972903D01*
X11001502Y9982911D01*
X11009122Y9994087D01*
X11015268Y10006177D01*
X11019688Y10018928D01*
X11022380Y10032187D01*
X11023295Y10045700D01*
X11022380Y10059212D01*
X11019688Y10072471D01*
X11015268Y10085222D01*
X11009122Y10097312D01*
X11001502Y10108488D01*
X10992408Y10118496D01*
X10982096Y10127234D01*
X10970666Y10134498D01*
X10958423Y10140238D01*
X10945469Y10144201D01*
X10932160Y10146487D01*
X10918596Y10146944D01*
X10905134Y10145572D01*
X10891977Y10142423D01*
X10879378Y10137597D01*
X10867491Y10131094D01*
X10856620Y10123068D01*
X10846866Y10113619D01*
X10838484Y10103002D01*
X10831576Y10091369D01*
X10826343Y10078923D01*
X10822736Y10065867D01*
X10820958Y10052456D01*
X10820958Y10038943D01*
X10822736Y10025532D01*
X10825734Y10014559D01*
X10826089Y10011003D01*
X10825175Y10007600D01*
X10823143Y10004704D01*
X10786668Y9968179D01*
X10783366Y9965994D01*
X10779455Y9965232D01*
X10775594Y9965994D01*
X10772292Y9968179D01*
X10770057Y9971481D01*
X10769295Y9975392D01*
X10769295Y10120528D01*
X10768584Y10126827D01*
X10766704Y10132314D01*
X10763605Y10137190D01*
X10759490Y10141305D01*
X10754614Y10144404D01*
X10749127Y10146284D01*
X10742828Y10146995D01*
X10593171Y10146995D01*
X10586872Y10146284D01*
X10581386Y10144404D01*
X10576509Y10141305D01*
X10572394Y10137190D01*
X10569295Y10132314D01*
X10567416Y10126827D01*
X10566704Y10120528D01*
X10566704Y9970871D01*
X10567416Y9964572D01*
X10569295Y9959086D01*
X10572394Y9954209D01*
X10576509Y9950094D01*
X10581386Y9946995D01*
X10586872Y9945116D01*
X10593171Y9944404D01*
X10738307Y9944404D01*
X10742218Y9943642D01*
X10745520Y9941407D01*
X10747705Y9938105D01*
X10748467Y9934244D01*
X10747705Y9930333D01*
X10745520Y9927031D01*
X9879330Y9060891D01*
X9876028Y9058656D01*
X9872167Y9057894D01*
X8633460Y9057894D01*
X8629548Y9058656D01*
X8626297Y9060891D01*
X8624062Y9064193D01*
X8623300Y9068054D01*
X8623300Y10183977D01*
X8624062Y10187838D01*
X8626297Y10191140D01*
X8629548Y10193324D01*
X8633460Y10194137D01*
X10965535Y10194137D01*
X10969396Y10193324D01*
X10972698Y10191140D01*
X11077143Y10086695D01*
X11079175Y10083800D01*
X11080089Y10080396D01*
X11079734Y10076840D01*
X11076736Y10065867D01*
X11074958Y10052456D01*
X11074958Y10038943D01*
X11076736Y10025532D01*
X11080343Y10012476D01*
X11085576Y10000030D01*
X11092484Y9988397D01*
X11100866Y9977780D01*
X11110620Y9968331D01*
X11121491Y9960305D01*
X11133378Y9953802D01*
X11145977Y9948976D01*
X11159134Y9945827D01*
X11172596Y9944455D01*
X11186160Y9944912D01*
X11199469Y9947198D01*
X11212423Y9951161D01*
X11224666Y9956901D01*
X11236096Y9964166D01*
X11246408Y9972903D01*
X11255502Y9982911D01*
X11263122Y9994087D01*
X11269268Y10006177D01*
X11273688Y10018928D01*
X11276380Y10032187D01*
X11277295Y10045700D01*
X11276380Y10059212D01*
X11273688Y10072471D01*
X11269268Y10085222D01*
X11263122Y10097312D01*
X11255502Y10108488D01*
X11246408Y10118496D01*
X11236096Y10127234D01*
X11224666Y10134498D01*
X11212423Y10140238D01*
X11199469Y10144201D01*
X11186160Y10146487D01*
X11172596Y10146944D01*
X11159134Y10145572D01*
X11145723Y10142321D01*
X11141913Y10141661D01*
X11138154Y10142474D01*
X11134902Y10144658D01*
X11015929Y10263581D01*
X11009376Y10269016D01*
X11002314Y10272776D01*
X10994644Y10275112D01*
X10986160Y10275925D01*
X8633460Y10275925D01*
X8629548Y10276687D01*
X8626297Y10278922D01*
X8624062Y10282224D01*
X8623300Y10286085D01*
X8623300Y11617909D01*
X8624062Y11621820D01*
X8626297Y11625122D01*
X8629548Y11627307D01*
X8633460Y11628069D01*
X9785553Y11628069D01*
X9789464Y11627307D01*
X9792766Y11625122D01*
X11331143Y10086695D01*
X11333175Y10083800D01*
X11334089Y10080396D01*
X11333734Y10076840D01*
X11330736Y10065867D01*
X11328958Y10052456D01*
X11328958Y10038943D01*
X11330736Y10025532D01*
X11334343Y10012476D01*
X11339576Y10000030D01*
X11346484Y9988397D01*
X11354866Y9977780D01*
X11364620Y9968331D01*
X11375491Y9960305D01*
X11387378Y9953802D01*
X11399977Y9948976D01*
X11413134Y9945827D01*
X11426596Y9944455D01*
X11440160Y9944912D01*
X11453469Y9947198D01*
X11466423Y9951161D01*
X11478666Y9956901D01*
X11490096Y9964166D01*
X11500408Y9972903D01*
X11509502Y9982911D01*
X11517122Y9994087D01*
X11523268Y10006177D01*
X11527688Y10018928D01*
X11530380Y10032187D01*
X11531295Y10045700D01*
X11530380Y10059212D01*
X11527688Y10072471D01*
X11523268Y10085222D01*
X11517122Y10097312D01*
X11509502Y10108488D01*
X11500408Y10118496D01*
X11490096Y10127234D01*
X11478666Y10134498D01*
X11466423Y10140238D01*
X11453469Y10144201D01*
X11440160Y10146487D01*
X11426596Y10146944D01*
X11413134Y10145572D01*
X11399723Y10142321D01*
X11395913Y10141661D01*
X11392154Y10142474D01*
X11388902Y10144658D01*
X9835997Y11697563D01*
X9829393Y11702948D01*
X9822332Y11706758D01*
X9814661Y11709044D01*
X9806228Y11709908D01*
X8633460Y11709908D01*
X8629548Y11710670D01*
X8626297Y11712854D01*
X8624062Y11716156D01*
X8623300Y11720068D01*
X8623300Y12025884D01*
X8622588Y12027611D01*
X8370011Y12280188D01*
X8368284Y12280900D01*
X5883198Y12280900D01*
X5879287Y12281662D01*
X5875985Y12283897D01*
X5873800Y12287148D01*
X5873038Y12291060D01*
X5873800Y12294971D01*
X5875985Y12298222D01*
X6067907Y12490145D01*
X6071158Y12492329D01*
X6074918Y12493142D01*
X6078829Y12492431D01*
X6091936Y12489332D01*
X6105347Y12487960D01*
X6118809Y12488418D01*
X6132068Y12490653D01*
X6144971Y12494666D01*
X6157163Y12500305D01*
X6168542Y12507569D01*
X6178854Y12516256D01*
X6187897Y12526264D01*
X6195517Y12537389D01*
X6201562Y12549428D01*
X6205982Y12562128D01*
X6208674Y12575336D01*
X6209588Y12588798D01*
X6208674Y12602260D01*
X6205982Y12615468D01*
X6201562Y12628168D01*
X6195517Y12640208D01*
X6187897Y12651333D01*
X6178854Y12661341D01*
X6168542Y12670028D01*
X6157163Y12677292D01*
X6144971Y12682931D01*
X6132068Y12686944D01*
X6118809Y12689179D01*
X6105347Y12689636D01*
X6091936Y12688265D01*
X6078829Y12685166D01*
X6066231Y12680289D01*
X6054394Y12673838D01*
X6043574Y12665862D01*
X6033871Y12656464D01*
X6025540Y12645898D01*
X6018682Y12634315D01*
X6013399Y12621869D01*
X6009843Y12608915D01*
X6008065Y12595555D01*
X6008065Y12582042D01*
X6009843Y12568682D01*
X6012789Y12557963D01*
X6013094Y12554458D01*
X6012180Y12551003D01*
X6010148Y12548108D01*
X5745937Y12283897D01*
X5742635Y12281662D01*
X5738723Y12280900D01*
X5068316Y12280900D01*
X5066588Y12280188D01*
X5029911Y12243511D01*
X5026609Y12241276D01*
X5022697Y12240514D01*
X4457903Y12240514D01*
X4454245Y12241225D01*
X4451096Y12243155D01*
X4448860Y12246051D01*
X4447794Y12249607D01*
X4448098Y12253315D01*
X4450638Y12262815D01*
X4451502Y12272619D01*
X4450638Y12282424D01*
X4448098Y12291923D01*
X4443933Y12300813D01*
X4438294Y12308840D01*
X4431334Y12315799D01*
X4423308Y12321438D01*
X4414418Y12325604D01*
X4404918Y12328144D01*
X4395114Y12329007D01*
X4385310Y12328144D01*
X4375810Y12325604D01*
X4366920Y12321438D01*
X4358233Y12315342D01*
X4355490Y12314021D01*
X4352442Y12313513D01*
X4007612Y12313513D01*
X4003751Y12314275D01*
X4000449Y12316510D01*
X3768801Y12548158D01*
X3766667Y12551257D01*
X3765854Y12554915D01*
X3766413Y12558674D01*
X3767582Y12562128D01*
X3770274Y12575336D01*
X3771188Y12588798D01*
X3770274Y12602260D01*
X3767582Y12615468D01*
X3763162Y12628168D01*
X3757117Y12640208D01*
X3749497Y12651333D01*
X3740454Y12661341D01*
X3730142Y12670028D01*
X3718763Y12677292D01*
X3706571Y12682931D01*
X3693668Y12686944D01*
X3680409Y12689179D01*
X3666947Y12689636D01*
X3653536Y12688265D01*
X3640429Y12685166D01*
X3627831Y12680289D01*
X3615994Y12673838D01*
X3605174Y12665862D01*
X3595471Y12656464D01*
X3587140Y12645898D01*
X3580282Y12634315D01*
X3574999Y12621869D01*
X3571443Y12608915D01*
X3569665Y12595555D01*
X3569665Y12582042D01*
X3571443Y12568682D01*
X3574999Y12555728D01*
X3580282Y12543282D01*
X3587140Y12531699D01*
X3595471Y12521133D01*
X3605174Y12511735D01*
X3615994Y12503759D01*
X3627831Y12497308D01*
X3640429Y12492431D01*
X3653536Y12489332D01*
X3666947Y12487960D01*
X3680409Y12488418D01*
X3693668Y12490653D01*
X3700729Y12492837D01*
X3704336Y12493294D01*
X3707892Y12492380D01*
X3710940Y12490348D01*
X3943350Y12257887D01*
X3945585Y12254585D01*
X3946347Y12250674D01*
X3945585Y12246813D01*
X3943350Y12243511D01*
X3940098Y12241276D01*
X3936187Y12240514D01*
X2383028Y12240514D01*
X2374595Y12239701D01*
X2366924Y12237364D01*
X2359863Y12233605D01*
X2353259Y12228169D01*
X1781505Y11656415D01*
X1778507Y11654332D01*
X1774952Y11653469D01*
X1771294Y11653926D01*
X1763572Y11656314D01*
X1750110Y11658549D01*
X1736496Y11659006D01*
X1722932Y11657685D01*
X1709674Y11654485D01*
X1696923Y11649608D01*
X1684985Y11643055D01*
X1674012Y11634978D01*
X1664207Y11625478D01*
X1655724Y11614759D01*
X1648815Y11603024D01*
X1643481Y11590477D01*
X1639874Y11577320D01*
X1638046Y11563807D01*
X1638046Y11550192D01*
X1639874Y11536680D01*
X1643481Y11523522D01*
X1648815Y11510975D01*
X1655724Y11499240D01*
X1664207Y11488521D01*
X1674012Y11479022D01*
X1684985Y11470944D01*
X1696923Y11464391D01*
X1709674Y11459514D01*
X1722932Y11456314D01*
X1736496Y11454993D01*
X1750110Y11455450D01*
X1763572Y11457686D01*
X1776577Y11461750D01*
X1788972Y11467490D01*
X1800453Y11474805D01*
X1810867Y11483594D01*
X1820011Y11493754D01*
X1827733Y11504980D01*
X1833880Y11517122D01*
X1838350Y11530025D01*
X1841093Y11543385D01*
X1842007Y11557000D01*
X1841093Y11570614D01*
X1838350Y11583974D01*
X1836928Y11588089D01*
X1836369Y11591798D01*
X1837232Y11595455D01*
X1839366Y11598605D01*
X2396490Y12155728D01*
X2399792Y12157913D01*
X2403703Y12158726D01*
X4920589Y12158726D01*
X4924450Y12157913D01*
X4927752Y12155728D01*
X4929987Y12152426D01*
X4930749Y12148566D01*
X4929987Y12144654D01*
X4927752Y12141352D01*
X4814011Y12027611D01*
X4813300Y12025884D01*
X4813300Y11720068D01*
X4812538Y11716156D01*
X4810302Y11712854D01*
X4807051Y11710670D01*
X4803140Y11709908D01*
X4646371Y11709908D01*
X4637938Y11709044D01*
X4630267Y11706758D01*
X4623206Y11702948D01*
X4616602Y11697563D01*
X4578502Y11659412D01*
X4575403Y11657330D01*
X4571746Y11656466D01*
X4568037Y11656974D01*
X4561332Y11659260D01*
X4547717Y11661952D01*
X4533900Y11662867D01*
X4520082Y11661952D01*
X4506518Y11659260D01*
X4493412Y11654840D01*
X4480966Y11648694D01*
X4469434Y11641023D01*
X4459020Y11631879D01*
X4449927Y11621465D01*
X4442206Y11609933D01*
X4436059Y11597538D01*
X4431639Y11584381D01*
X4428947Y11570817D01*
X4428032Y11557000D01*
X4428947Y11543182D01*
X4431639Y11529568D01*
X4436059Y11516461D01*
X4442206Y11504066D01*
X4449927Y11492534D01*
X4459020Y11482120D01*
X4469434Y11472976D01*
X4480966Y11465306D01*
X4493412Y11459159D01*
X4506518Y11454739D01*
X4520082Y11451996D01*
X4533900Y11451132D01*
X4547717Y11451996D01*
X4561332Y11454739D01*
X4574438Y11459159D01*
X4586833Y11465306D01*
X4598365Y11472976D01*
X4608779Y11482120D01*
X4617923Y11492534D01*
X4625594Y11504066D01*
X4631740Y11516461D01*
X4636211Y11529568D01*
X4638903Y11543182D01*
X4639818Y11557000D01*
X4638903Y11570817D01*
X4636211Y11584381D01*
X4633925Y11591137D01*
X4633366Y11594846D01*
X4634230Y11598503D01*
X4636363Y11601602D01*
X4659833Y11625122D01*
X4663135Y11627307D01*
X4667046Y11628069D01*
X4689297Y11628069D01*
X4693564Y11627154D01*
X4697069Y11624513D01*
X4699101Y11620703D01*
X4699355Y11616334D01*
X4697780Y11612270D01*
X4696206Y11609933D01*
X4690059Y11597538D01*
X4685639Y11584381D01*
X4682947Y11570817D01*
X4682032Y11557000D01*
X4682947Y11543182D01*
X4685639Y11529568D01*
X4690059Y11516461D01*
X4696206Y11504066D01*
X4703876Y11492534D01*
X4713020Y11482120D01*
X4723434Y11472976D01*
X4734966Y11465306D01*
X4747361Y11459159D01*
X4760518Y11454739D01*
X4774082Y11451996D01*
X4787900Y11451132D01*
X4802479Y11452098D01*
X4806543Y11451488D01*
X4810099Y11449354D01*
X4812436Y11446002D01*
X4813300Y11441938D01*
X4813300Y9132062D01*
X4812436Y9127998D01*
X4810099Y9124645D01*
X4806543Y9122511D01*
X4802479Y9121902D01*
X4787900Y9122867D01*
X4774082Y9122003D01*
X4760518Y9119260D01*
X4753762Y9116974D01*
X4750054Y9116466D01*
X4746396Y9117330D01*
X4743297Y9119412D01*
X4453331Y9409430D01*
X4450943Y9413138D01*
X4450384Y9417507D01*
X4451299Y9427921D01*
X4450435Y9437725D01*
X4447895Y9447225D01*
X4443730Y9456115D01*
X4438142Y9464192D01*
X4431182Y9471152D01*
X4423105Y9476740D01*
X4414215Y9480905D01*
X4404715Y9483445D01*
X4394962Y9484309D01*
X4385157Y9483445D01*
X4375658Y9480905D01*
X4366768Y9476740D01*
X4358690Y9471152D01*
X4351731Y9464192D01*
X4346143Y9456115D01*
X4341977Y9447225D01*
X4339437Y9437725D01*
X4338574Y9427921D01*
X4339437Y9418167D01*
X4341977Y9408668D01*
X4346143Y9399778D01*
X4351731Y9391700D01*
X4358690Y9384741D01*
X4370222Y9376867D01*
X4685487Y9061551D01*
X4687570Y9058503D01*
X4688433Y9054846D01*
X4687925Y9051137D01*
X4685639Y9044432D01*
X4682947Y9030817D01*
X4682032Y9017000D01*
X4682947Y9003182D01*
X4685639Y8989618D01*
X4690059Y8976461D01*
X4696206Y8964066D01*
X4703876Y8952534D01*
X4713020Y8942120D01*
X4723434Y8932976D01*
X4734966Y8925306D01*
X4747361Y8919159D01*
X4760518Y8914739D01*
X4774082Y8912047D01*
X4787900Y8911132D01*
X4802479Y8912098D01*
X4806543Y8911539D01*
X4810099Y8909354D01*
X4812436Y8906002D01*
X4813300Y8901938D01*
X4813300Y8471916D01*
X4814011Y8470188D01*
X5066588Y8217611D01*
X5067401Y8217103D01*
G37*
G36*
X1993900Y8911132D02*
G01*
X2007717Y8912047D01*
X2021332Y8914739D01*
X2034438Y8919159D01*
X2046884Y8925306D01*
X2058365Y8932976D01*
X2068779Y8942120D01*
X2077923Y8952534D01*
X2085644Y8964066D01*
X2091740Y8976461D01*
X2096211Y8989618D01*
X2098903Y9003182D01*
X2099818Y9017000D01*
X2098903Y9030817D01*
X2096211Y9044432D01*
X2091740Y9057538D01*
X2085644Y9069933D01*
X2077923Y9081465D01*
X2068779Y9091879D01*
X2058365Y9101023D01*
X2046884Y9108694D01*
X2034438Y9114840D01*
X2021332Y9119260D01*
X2007717Y9122003D01*
X1993900Y9122867D01*
X1980082Y9122003D01*
X1966518Y9119260D01*
X1953412Y9114840D01*
X1940966Y9108694D01*
X1929485Y9101023D01*
X1919071Y9091879D01*
X1909927Y9081465D01*
X1902206Y9069933D01*
X1896110Y9057538D01*
X1891639Y9044432D01*
X1888947Y9030817D01*
X1888032Y9017000D01*
X1888947Y9003182D01*
X1891639Y8989618D01*
X1896110Y8976461D01*
X1902206Y8964066D01*
X1909927Y8952534D01*
X1919071Y8942120D01*
X1929485Y8932976D01*
X1940966Y8925306D01*
X1953412Y8919159D01*
X1966518Y8914739D01*
X1980082Y8912047D01*
G37*
G36*
X4279900Y8911132D02*
G01*
X4293717Y8912047D01*
X4307332Y8914739D01*
X4320438Y8919159D01*
X4332833Y8925306D01*
X4344365Y8932976D01*
X4354779Y8942120D01*
X4363923Y8952534D01*
X4371594Y8964066D01*
X4377740Y8976461D01*
X4382211Y8989618D01*
X4384903Y9003182D01*
X4385818Y9017000D01*
X4384903Y9030817D01*
X4382211Y9044432D01*
X4377740Y9057538D01*
X4371594Y9069933D01*
X4363923Y9081465D01*
X4354779Y9091879D01*
X4344365Y9101023D01*
X4332833Y9108694D01*
X4320438Y9114840D01*
X4307332Y9119260D01*
X4293717Y9122003D01*
X4279900Y9122867D01*
X4266082Y9122003D01*
X4252518Y9119260D01*
X4239412Y9114840D01*
X4226966Y9108694D01*
X4215434Y9101023D01*
X4205020Y9091879D01*
X4195927Y9081465D01*
X4188206Y9069933D01*
X4182059Y9057538D01*
X4177639Y9044432D01*
X4174947Y9030817D01*
X4174032Y9017000D01*
X4174947Y9003182D01*
X4177639Y8989618D01*
X4182059Y8976461D01*
X4188206Y8964066D01*
X4195927Y8952534D01*
X4205020Y8942120D01*
X4215434Y8932976D01*
X4226966Y8925306D01*
X4239412Y8919159D01*
X4252518Y8914739D01*
X4266082Y8912047D01*
G37*
G36*
X2501900Y8911132D02*
G01*
X2515717Y8912047D01*
X2529332Y8914739D01*
X2542438Y8919159D01*
X2554833Y8925306D01*
X2566365Y8932976D01*
X2576779Y8942120D01*
X2585923Y8952534D01*
X2593594Y8964066D01*
X2599740Y8976461D01*
X2604211Y8989618D01*
X2606903Y9003182D01*
X2607818Y9017000D01*
X2606903Y9030817D01*
X2604211Y9044432D01*
X2599740Y9057538D01*
X2593594Y9069933D01*
X2585923Y9081465D01*
X2576779Y9091879D01*
X2566365Y9101023D01*
X2554833Y9108694D01*
X2542438Y9114840D01*
X2529332Y9119260D01*
X2515717Y9122003D01*
X2501900Y9122867D01*
X2488082Y9122003D01*
X2474518Y9119260D01*
X2461412Y9114840D01*
X2448966Y9108694D01*
X2437434Y9101023D01*
X2427020Y9091879D01*
X2417927Y9081465D01*
X2410206Y9069933D01*
X2404110Y9057538D01*
X2399639Y9044432D01*
X2396947Y9030817D01*
X2396032Y9017000D01*
X2396947Y9003182D01*
X2399639Y8989618D01*
X2404110Y8976461D01*
X2410206Y8964066D01*
X2417927Y8952534D01*
X2427020Y8942120D01*
X2437434Y8932976D01*
X2448966Y8925306D01*
X2461412Y8919159D01*
X2474518Y8914739D01*
X2488082Y8912047D01*
G37*
G36*
X3771900Y8911132D02*
G01*
X3785717Y8912047D01*
X3799332Y8914739D01*
X3812438Y8919159D01*
X3824833Y8925306D01*
X3836365Y8932976D01*
X3846779Y8942120D01*
X3855923Y8952534D01*
X3863594Y8964066D01*
X3869740Y8976461D01*
X3874211Y8989618D01*
X3876903Y9003182D01*
X3877818Y9017000D01*
X3876903Y9030817D01*
X3874211Y9044432D01*
X3869740Y9057538D01*
X3863594Y9069933D01*
X3855923Y9081465D01*
X3846779Y9091879D01*
X3836365Y9101023D01*
X3824833Y9108694D01*
X3812438Y9114840D01*
X3799332Y9119260D01*
X3785717Y9122003D01*
X3771900Y9122867D01*
X3758082Y9122003D01*
X3744518Y9119260D01*
X3731412Y9114840D01*
X3718966Y9108694D01*
X3707434Y9101023D01*
X3697020Y9091879D01*
X3687927Y9081465D01*
X3680206Y9069933D01*
X3674059Y9057538D01*
X3669639Y9044432D01*
X3666947Y9030817D01*
X3666032Y9017000D01*
X3666947Y9003182D01*
X3669639Y8989618D01*
X3674059Y8976461D01*
X3680206Y8964066D01*
X3687927Y8952534D01*
X3697020Y8942120D01*
X3707434Y8932976D01*
X3718966Y8925306D01*
X3731412Y8919159D01*
X3744518Y8914739D01*
X3758082Y8912047D01*
G37*
G36*
X3009900Y8911132D02*
G01*
X3023717Y8912047D01*
X3037332Y8914739D01*
X3050438Y8919159D01*
X3062833Y8925306D01*
X3074365Y8932976D01*
X3084779Y8942120D01*
X3093923Y8952534D01*
X3101594Y8964066D01*
X3107740Y8976461D01*
X3112211Y8989618D01*
X3114903Y9003182D01*
X3115818Y9017000D01*
X3114903Y9030817D01*
X3112211Y9044432D01*
X3107740Y9057538D01*
X3101594Y9069933D01*
X3093923Y9081465D01*
X3084779Y9091879D01*
X3074365Y9101023D01*
X3062833Y9108694D01*
X3050438Y9114840D01*
X3037332Y9119260D01*
X3023717Y9122003D01*
X3009900Y9122867D01*
X2996082Y9122003D01*
X2982518Y9119260D01*
X2969412Y9114840D01*
X2956966Y9108694D01*
X2945434Y9101023D01*
X2935020Y9091879D01*
X2925927Y9081465D01*
X2918206Y9069933D01*
X2912110Y9057538D01*
X2907639Y9044432D01*
X2904947Y9030817D01*
X2904032Y9017000D01*
X2904947Y9003182D01*
X2907639Y8989618D01*
X2912110Y8976461D01*
X2918206Y8964066D01*
X2925927Y8952534D01*
X2935020Y8942120D01*
X2945434Y8932976D01*
X2956966Y8925306D01*
X2969412Y8919159D01*
X2982518Y8914739D01*
X2996082Y8912047D01*
G37*
G36*
X3517900Y8911132D02*
G01*
X3531717Y8912047D01*
X3545332Y8914739D01*
X3558438Y8919159D01*
X3570833Y8925306D01*
X3582365Y8932976D01*
X3592779Y8942120D01*
X3601923Y8952534D01*
X3609594Y8964066D01*
X3615740Y8976461D01*
X3620211Y8989618D01*
X3622903Y9003182D01*
X3623818Y9017000D01*
X3622903Y9030817D01*
X3620211Y9044432D01*
X3615740Y9057538D01*
X3609594Y9069933D01*
X3601923Y9081465D01*
X3592779Y9091879D01*
X3582365Y9101023D01*
X3570833Y9108694D01*
X3558438Y9114840D01*
X3545332Y9119260D01*
X3531717Y9122003D01*
X3517900Y9122867D01*
X3504082Y9122003D01*
X3490518Y9119260D01*
X3477412Y9114840D01*
X3464966Y9108694D01*
X3453434Y9101023D01*
X3443020Y9091879D01*
X3433927Y9081465D01*
X3426206Y9069933D01*
X3420059Y9057538D01*
X3415639Y9044432D01*
X3412947Y9030817D01*
X3412032Y9017000D01*
X3412947Y9003182D01*
X3415639Y8989618D01*
X3420059Y8976461D01*
X3426206Y8964066D01*
X3433927Y8952534D01*
X3443020Y8942120D01*
X3453434Y8932976D01*
X3464966Y8925306D01*
X3477412Y8919159D01*
X3490518Y8914739D01*
X3504082Y8912047D01*
G37*
G36*
X4025900Y8911132D02*
G01*
X4039717Y8912047D01*
X4053332Y8914739D01*
X4066438Y8919159D01*
X4078833Y8925306D01*
X4090365Y8932976D01*
X4100779Y8942120D01*
X4109923Y8952534D01*
X4117594Y8964066D01*
X4123740Y8976461D01*
X4128211Y8989618D01*
X4130903Y9003182D01*
X4131818Y9017000D01*
X4130903Y9030817D01*
X4128211Y9044432D01*
X4123740Y9057538D01*
X4117594Y9069933D01*
X4109923Y9081465D01*
X4100779Y9091879D01*
X4090365Y9101023D01*
X4078833Y9108694D01*
X4066438Y9114840D01*
X4053332Y9119260D01*
X4039717Y9122003D01*
X4025900Y9122867D01*
X4012082Y9122003D01*
X3998518Y9119260D01*
X3985412Y9114840D01*
X3972966Y9108694D01*
X3961434Y9101023D01*
X3951020Y9091879D01*
X3941927Y9081465D01*
X3934206Y9069933D01*
X3928059Y9057538D01*
X3923639Y9044432D01*
X3920947Y9030817D01*
X3920032Y9017000D01*
X3920947Y9003182D01*
X3923639Y8989618D01*
X3928059Y8976461D01*
X3934206Y8964066D01*
X3941927Y8952534D01*
X3951020Y8942120D01*
X3961434Y8932976D01*
X3972966Y8925306D01*
X3985412Y8919159D01*
X3998518Y8914739D01*
X4012082Y8912047D01*
G37*
G36*
X2247900Y8911132D02*
G01*
X2261717Y8912047D01*
X2275332Y8914739D01*
X2288438Y8919159D01*
X2300833Y8925306D01*
X2312365Y8932976D01*
X2322779Y8942120D01*
X2331923Y8952534D01*
X2339594Y8964066D01*
X2345740Y8976461D01*
X2350211Y8989618D01*
X2352903Y9003182D01*
X2353818Y9017000D01*
X2352903Y9030817D01*
X2350211Y9044432D01*
X2345740Y9057538D01*
X2339594Y9069933D01*
X2331923Y9081465D01*
X2322779Y9091879D01*
X2312365Y9101023D01*
X2300833Y9108694D01*
X2288438Y9114840D01*
X2275332Y9119260D01*
X2261717Y9122003D01*
X2247900Y9122867D01*
X2234082Y9122003D01*
X2220518Y9119260D01*
X2207412Y9114840D01*
X2194966Y9108694D01*
X2183434Y9101023D01*
X2173020Y9091879D01*
X2163927Y9081465D01*
X2156206Y9069933D01*
X2150110Y9057538D01*
X2145639Y9044432D01*
X2142947Y9030817D01*
X2142032Y9017000D01*
X2142947Y9003182D01*
X2145639Y8989618D01*
X2150110Y8976461D01*
X2156206Y8964066D01*
X2163927Y8952534D01*
X2173020Y8942120D01*
X2183434Y8932976D01*
X2194966Y8925306D01*
X2207412Y8919159D01*
X2220518Y8914739D01*
X2234082Y8912047D01*
G37*
G36*
X2755900Y8911132D02*
G01*
X2769717Y8912047D01*
X2783332Y8914739D01*
X2796438Y8919159D01*
X2808833Y8925306D01*
X2820365Y8932976D01*
X2830779Y8942120D01*
X2839923Y8952534D01*
X2847594Y8964066D01*
X2853740Y8976461D01*
X2858211Y8989618D01*
X2860903Y9003182D01*
X2861818Y9017000D01*
X2860903Y9030817D01*
X2858211Y9044432D01*
X2853740Y9057538D01*
X2847594Y9069933D01*
X2839923Y9081465D01*
X2830779Y9091879D01*
X2820365Y9101023D01*
X2808833Y9108694D01*
X2796438Y9114840D01*
X2783332Y9119260D01*
X2769717Y9122003D01*
X2755900Y9122867D01*
X2742082Y9122003D01*
X2728518Y9119260D01*
X2715412Y9114840D01*
X2702966Y9108694D01*
X2691434Y9101023D01*
X2681020Y9091879D01*
X2671927Y9081465D01*
X2664206Y9069933D01*
X2658110Y9057538D01*
X2653639Y9044432D01*
X2650947Y9030817D01*
X2650032Y9017000D01*
X2650947Y9003182D01*
X2653639Y8989618D01*
X2658110Y8976461D01*
X2664206Y8964066D01*
X2671927Y8952534D01*
X2681020Y8942120D01*
X2691434Y8932976D01*
X2702966Y8925306D01*
X2715412Y8919159D01*
X2728518Y8914739D01*
X2742082Y8912047D01*
G37*
G36*
X3263900Y8911132D02*
G01*
X3277717Y8912047D01*
X3291332Y8914739D01*
X3304438Y8919159D01*
X3316833Y8925306D01*
X3328365Y8932976D01*
X3338779Y8942120D01*
X3347923Y8952534D01*
X3355594Y8964066D01*
X3361740Y8976461D01*
X3366211Y8989618D01*
X3368903Y9003182D01*
X3369818Y9017000D01*
X3368903Y9030817D01*
X3366211Y9044432D01*
X3361740Y9057538D01*
X3355594Y9069933D01*
X3347923Y9081465D01*
X3338779Y9091879D01*
X3328365Y9101023D01*
X3316833Y9108694D01*
X3304438Y9114840D01*
X3291332Y9119260D01*
X3277717Y9122003D01*
X3263900Y9122867D01*
X3250082Y9122003D01*
X3236518Y9119260D01*
X3223412Y9114840D01*
X3210966Y9108694D01*
X3199434Y9101023D01*
X3189020Y9091879D01*
X3179927Y9081465D01*
X3172206Y9069933D01*
X3166110Y9057538D01*
X3161639Y9044432D01*
X3158947Y9030817D01*
X3158032Y9017000D01*
X3158947Y9003182D01*
X3161639Y8989618D01*
X3166110Y8976461D01*
X3172206Y8964066D01*
X3179927Y8952534D01*
X3189020Y8942120D01*
X3199434Y8932976D01*
X3210966Y8925306D01*
X3223412Y8919159D01*
X3236518Y8914739D01*
X3250082Y8912047D01*
G37*
G36*
X4533900Y8911132D02*
G01*
X4547717Y8912047D01*
X4561332Y8914739D01*
X4574438Y8919159D01*
X4586833Y8925306D01*
X4598365Y8932976D01*
X4608779Y8942120D01*
X4617923Y8952534D01*
X4625594Y8964066D01*
X4631740Y8976461D01*
X4636211Y8989618D01*
X4638903Y9003182D01*
X4639818Y9017000D01*
X4638903Y9030817D01*
X4636211Y9044432D01*
X4631740Y9057538D01*
X4625594Y9069933D01*
X4617923Y9081465D01*
X4608779Y9091879D01*
X4598365Y9101023D01*
X4586833Y9108694D01*
X4574438Y9114840D01*
X4561332Y9119260D01*
X4547717Y9122003D01*
X4533900Y9122867D01*
X4520082Y9122003D01*
X4506518Y9119260D01*
X4493412Y9114840D01*
X4480966Y9108694D01*
X4469434Y9101023D01*
X4459020Y9091879D01*
X4449927Y9081465D01*
X4442206Y9069933D01*
X4436059Y9057538D01*
X4431639Y9044432D01*
X4428947Y9030817D01*
X4428032Y9017000D01*
X4428947Y9003182D01*
X4431639Y8989618D01*
X4436059Y8976461D01*
X4442206Y8964066D01*
X4449927Y8952534D01*
X4459020Y8942120D01*
X4469434Y8932976D01*
X4480966Y8925306D01*
X4493412Y8919159D01*
X4506518Y8914739D01*
X4520082Y8912047D01*
G37*
G36*
X1736496Y8914993D02*
G01*
X1750110Y8915450D01*
X1763572Y8917686D01*
X1776577Y8921750D01*
X1788972Y8927490D01*
X1800453Y8934805D01*
X1810867Y8943644D01*
X1820011Y8953754D01*
X1827733Y8964980D01*
X1833880Y8977172D01*
X1838350Y8990025D01*
X1841093Y9003385D01*
X1842007Y9017000D01*
X1841093Y9030614D01*
X1838350Y9043974D01*
X1833880Y9056878D01*
X1827733Y9069019D01*
X1820011Y9080296D01*
X1810867Y9090406D01*
X1800453Y9099194D01*
X1788972Y9106509D01*
X1776577Y9112250D01*
X1763572Y9116314D01*
X1750110Y9118600D01*
X1736496Y9119057D01*
X1722932Y9117685D01*
X1709674Y9114485D01*
X1696923Y9109608D01*
X1684985Y9103055D01*
X1674012Y9094978D01*
X1664207Y9085478D01*
X1655724Y9074759D01*
X1648815Y9063024D01*
X1643481Y9050477D01*
X1639874Y9037320D01*
X1638046Y9023807D01*
X1638046Y9010192D01*
X1639874Y8996680D01*
X1643481Y8983522D01*
X1648815Y8970975D01*
X1655724Y8959240D01*
X1664207Y8948521D01*
X1674012Y8939022D01*
X1684985Y8930944D01*
X1696923Y8924391D01*
X1709674Y8919514D01*
X1722932Y8916365D01*
G37*
G36*
X1187450Y8925204D02*
G01*
X1187450Y8972550D01*
X1140104Y8972550D01*
X1140815Y8970975D01*
X1147724Y8959240D01*
X1156208Y8948521D01*
X1166012Y8939022D01*
X1176985Y8930944D01*
G37*
G36*
X1276350Y8925356D02*
G01*
X1280972Y8927490D01*
X1292453Y8934805D01*
X1302867Y8943644D01*
X1312011Y8953754D01*
X1319733Y8964980D01*
X1323594Y8972550D01*
X1276350Y8972550D01*
G37*
G36*
X1276350Y9061450D02*
G01*
X1323594Y9061450D01*
X1319733Y9069019D01*
X1312011Y9080296D01*
X1302867Y9090406D01*
X1292453Y9099194D01*
X1280972Y9106509D01*
X1276350Y9108643D01*
G37*
G36*
X1140104Y9061450D02*
G01*
X1187450Y9061450D01*
X1187450Y9108795D01*
X1176985Y9103055D01*
X1166012Y9094978D01*
X1156208Y9085478D01*
X1147724Y9074759D01*
X1140815Y9063024D01*
G37*
G36*
X10007600Y9805517D02*
G01*
X10022789Y9806432D01*
X10037724Y9809175D01*
X10052253Y9813696D01*
X10066121Y9819944D01*
X10079126Y9827818D01*
X10091064Y9837166D01*
X10101834Y9847935D01*
X10111181Y9859873D01*
X10119055Y9872878D01*
X10125303Y9886746D01*
X10129824Y9901275D01*
X10132568Y9916210D01*
X10133482Y9931400D01*
X10132568Y9946589D01*
X10129824Y9961524D01*
X10125303Y9976053D01*
X10119055Y9989921D01*
X10111181Y10002926D01*
X10101834Y10014864D01*
X10091064Y10025634D01*
X10079126Y10034981D01*
X10066121Y10042855D01*
X10052253Y10049103D01*
X10037724Y10053624D01*
X10022789Y10056368D01*
X10007600Y10057282D01*
X9992410Y10056368D01*
X9977475Y10053624D01*
X9962946Y10049103D01*
X9949078Y10042855D01*
X9936073Y10034981D01*
X9924135Y10025634D01*
X9913366Y10014864D01*
X9904018Y10002926D01*
X9896144Y9989921D01*
X9889896Y9976053D01*
X9885375Y9961524D01*
X9882632Y9946589D01*
X9881717Y9931400D01*
X9882632Y9916210D01*
X9885375Y9901275D01*
X9889896Y9886746D01*
X9896144Y9872878D01*
X9904018Y9859873D01*
X9913366Y9847935D01*
X9924135Y9837166D01*
X9936073Y9827818D01*
X9949078Y9819944D01*
X9962946Y9813696D01*
X9977475Y9809175D01*
X9992410Y9806432D01*
G37*
G36*
X12090400Y9805517D02*
G01*
X12105589Y9806432D01*
X12120524Y9809175D01*
X12135053Y9813696D01*
X12148921Y9819944D01*
X12161926Y9827818D01*
X12173864Y9837166D01*
X12184634Y9847935D01*
X12193981Y9859873D01*
X12201855Y9872878D01*
X12208103Y9886746D01*
X12212624Y9901275D01*
X12215368Y9916210D01*
X12216282Y9931400D01*
X12215368Y9946589D01*
X12212624Y9961524D01*
X12208103Y9976053D01*
X12201855Y9989921D01*
X12193981Y10002926D01*
X12184634Y10014864D01*
X12173864Y10025634D01*
X12161926Y10034981D01*
X12148921Y10042855D01*
X12135053Y10049103D01*
X12120524Y10053624D01*
X12105589Y10056368D01*
X12090400Y10057282D01*
X12075210Y10056368D01*
X12060275Y10053624D01*
X12045746Y10049103D01*
X12031878Y10042855D01*
X12018873Y10034981D01*
X12006935Y10025634D01*
X11996166Y10014864D01*
X11986818Y10002926D01*
X11978944Y9989921D01*
X11972696Y9976053D01*
X11968175Y9961524D01*
X11965432Y9946589D01*
X11964517Y9931400D01*
X11965432Y9916210D01*
X11968175Y9901275D01*
X11972696Y9886746D01*
X11978944Y9872878D01*
X11986818Y9859873D01*
X11996166Y9847935D01*
X12006935Y9837166D01*
X12018873Y9827818D01*
X12031878Y9819944D01*
X12045746Y9813696D01*
X12060275Y9809175D01*
X12075210Y9806432D01*
G37*
G36*
X10805515Y11020907D02*
G01*
X10820044Y11020907D01*
X10834522Y11022736D01*
X10848594Y11026394D01*
X10862157Y11031728D01*
X10874908Y11038738D01*
X10886694Y11047323D01*
X10897311Y11057280D01*
X10906556Y11068507D01*
X10914380Y11080800D01*
X10920577Y11093958D01*
X10925048Y11107775D01*
X10927283Y11119307D01*
X10928756Y11122964D01*
X10931550Y11125809D01*
X10935258Y11127333D01*
X10939221Y11127333D01*
X10942929Y11125809D01*
X10945723Y11122964D01*
X10947196Y11119307D01*
X10949432Y11107775D01*
X10953902Y11093958D01*
X10960100Y11080800D01*
X10967923Y11068507D01*
X10977168Y11057280D01*
X10987786Y11047323D01*
X10999571Y11038738D01*
X11012322Y11031728D01*
X11025886Y11026394D01*
X11039957Y11022736D01*
X11054435Y11020907D01*
X11068964Y11020907D01*
X11083442Y11022736D01*
X11097514Y11026394D01*
X11111077Y11031728D01*
X11123828Y11038738D01*
X11135614Y11047323D01*
X11146231Y11057280D01*
X11155476Y11068507D01*
X11163300Y11080800D01*
X11169497Y11093958D01*
X11173968Y11107775D01*
X11176203Y11119307D01*
X11177676Y11122964D01*
X11180470Y11125809D01*
X11184178Y11127333D01*
X11188141Y11127333D01*
X11191849Y11125809D01*
X11194643Y11122964D01*
X11196116Y11119307D01*
X11198352Y11107775D01*
X11202822Y11093958D01*
X11209020Y11080800D01*
X11216843Y11068507D01*
X11226088Y11057280D01*
X11236706Y11047323D01*
X11248491Y11038738D01*
X11261242Y11031728D01*
X11274806Y11026394D01*
X11288877Y11022736D01*
X11303355Y11020907D01*
X11317884Y11020907D01*
X11332362Y11022736D01*
X11346434Y11026394D01*
X11359997Y11031728D01*
X11372748Y11038738D01*
X11384534Y11047323D01*
X11395151Y11057280D01*
X11404396Y11068507D01*
X11412220Y11080800D01*
X11418417Y11093958D01*
X11422888Y11107775D01*
X11425631Y11122101D01*
X11426545Y11136630D01*
X11425631Y11151158D01*
X11422888Y11165484D01*
X11418417Y11179302D01*
X11412220Y11192459D01*
X11404396Y11204752D01*
X11395151Y11215979D01*
X11384534Y11225936D01*
X11372748Y11234521D01*
X11359997Y11241532D01*
X11346434Y11246866D01*
X11332362Y11250523D01*
X11317884Y11252352D01*
X11303355Y11252352D01*
X11288877Y11250523D01*
X11274806Y11246866D01*
X11261242Y11241532D01*
X11248491Y11234521D01*
X11236706Y11225936D01*
X11226088Y11215979D01*
X11216843Y11204752D01*
X11209020Y11192459D01*
X11202822Y11179302D01*
X11198352Y11165484D01*
X11196116Y11153952D01*
X11194643Y11150295D01*
X11191849Y11147450D01*
X11188141Y11145926D01*
X11184178Y11145926D01*
X11180470Y11147450D01*
X11177676Y11150295D01*
X11176203Y11153952D01*
X11173968Y11165484D01*
X11169497Y11179302D01*
X11163300Y11192459D01*
X11155476Y11204752D01*
X11146231Y11215979D01*
X11135614Y11225936D01*
X11123828Y11234521D01*
X11111077Y11241532D01*
X11097514Y11246866D01*
X11083442Y11250523D01*
X11068964Y11252352D01*
X11054435Y11252352D01*
X11039957Y11250523D01*
X11025886Y11246866D01*
X11012322Y11241532D01*
X10999571Y11234521D01*
X10987786Y11225936D01*
X10977168Y11215979D01*
X10967923Y11204752D01*
X10960100Y11192459D01*
X10953902Y11179302D01*
X10949432Y11165484D01*
X10947196Y11153952D01*
X10945723Y11150295D01*
X10942929Y11147450D01*
X10939221Y11145926D01*
X10935258Y11145926D01*
X10931550Y11147450D01*
X10928756Y11150295D01*
X10927283Y11153952D01*
X10925048Y11165484D01*
X10920577Y11179302D01*
X10914380Y11192459D01*
X10906556Y11204752D01*
X10897311Y11215979D01*
X10886694Y11225936D01*
X10874908Y11234521D01*
X10862157Y11241532D01*
X10848594Y11246866D01*
X10834522Y11250523D01*
X10820044Y11252352D01*
X10805515Y11252352D01*
X10791037Y11250523D01*
X10776966Y11246866D01*
X10763402Y11241532D01*
X10750651Y11234521D01*
X10738866Y11225936D01*
X10728248Y11215979D01*
X10719003Y11204752D01*
X10711180Y11192459D01*
X10704982Y11179302D01*
X10700512Y11165484D01*
X10697768Y11151158D01*
X10696854Y11136630D01*
X10697768Y11122101D01*
X10700512Y11107775D01*
X10704982Y11093958D01*
X10711180Y11080800D01*
X10719003Y11068507D01*
X10728248Y11057280D01*
X10738866Y11047323D01*
X10750651Y11038738D01*
X10763402Y11031728D01*
X10776966Y11026394D01*
X10791037Y11022736D01*
G37*
G36*
X1993900Y11451132D02*
G01*
X2007717Y11451996D01*
X2021332Y11454739D01*
X2034438Y11459159D01*
X2046884Y11465306D01*
X2058365Y11472976D01*
X2068779Y11482120D01*
X2077923Y11492534D01*
X2085644Y11504066D01*
X2091740Y11516461D01*
X2096211Y11529568D01*
X2098903Y11543182D01*
X2099818Y11557000D01*
X2098903Y11570817D01*
X2096211Y11584381D01*
X2091740Y11597538D01*
X2085644Y11609933D01*
X2077923Y11621465D01*
X2068779Y11631879D01*
X2058365Y11641023D01*
X2046884Y11648694D01*
X2034438Y11654840D01*
X2021332Y11659260D01*
X2007717Y11661952D01*
X1993900Y11662867D01*
X1980082Y11661952D01*
X1966518Y11659260D01*
X1953412Y11654840D01*
X1940966Y11648694D01*
X1929485Y11641023D01*
X1919071Y11631879D01*
X1909927Y11621465D01*
X1902206Y11609933D01*
X1896110Y11597538D01*
X1891639Y11584381D01*
X1888947Y11570817D01*
X1888032Y11557000D01*
X1888947Y11543182D01*
X1891639Y11529568D01*
X1896110Y11516461D01*
X1902206Y11504066D01*
X1909927Y11492534D01*
X1919071Y11482120D01*
X1929485Y11472976D01*
X1940966Y11465306D01*
X1953412Y11459159D01*
X1966518Y11454739D01*
X1980082Y11451996D01*
G37*
G36*
X4025900Y11451132D02*
G01*
X4039717Y11451996D01*
X4053332Y11454739D01*
X4066438Y11459159D01*
X4078833Y11465306D01*
X4090365Y11472976D01*
X4100779Y11482120D01*
X4109923Y11492534D01*
X4117594Y11504066D01*
X4123740Y11516461D01*
X4128211Y11529568D01*
X4130903Y11543182D01*
X4131818Y11557000D01*
X4130903Y11570817D01*
X4128211Y11584381D01*
X4123740Y11597538D01*
X4117594Y11609933D01*
X4109923Y11621465D01*
X4100779Y11631879D01*
X4090365Y11641023D01*
X4078833Y11648694D01*
X4066438Y11654840D01*
X4053332Y11659260D01*
X4039717Y11661952D01*
X4025900Y11662867D01*
X4012082Y11661952D01*
X3998518Y11659260D01*
X3985412Y11654840D01*
X3972966Y11648694D01*
X3961434Y11641023D01*
X3951020Y11631879D01*
X3941927Y11621465D01*
X3934206Y11609933D01*
X3928059Y11597538D01*
X3923639Y11584381D01*
X3920947Y11570817D01*
X3920032Y11557000D01*
X3920947Y11543182D01*
X3923639Y11529568D01*
X3928059Y11516461D01*
X3934206Y11504066D01*
X3941927Y11492534D01*
X3951020Y11482120D01*
X3961434Y11472976D01*
X3972966Y11465306D01*
X3985412Y11459159D01*
X3998518Y11454739D01*
X4012082Y11451996D01*
G37*
G36*
X3517900Y11451132D02*
G01*
X3531717Y11451996D01*
X3545332Y11454739D01*
X3558438Y11459159D01*
X3570833Y11465306D01*
X3582365Y11472976D01*
X3592779Y11482120D01*
X3601923Y11492534D01*
X3609594Y11504066D01*
X3615740Y11516461D01*
X3620211Y11529568D01*
X3622903Y11543182D01*
X3623818Y11557000D01*
X3622903Y11570817D01*
X3620211Y11584381D01*
X3615740Y11597538D01*
X3609594Y11609933D01*
X3601923Y11621465D01*
X3592779Y11631879D01*
X3582365Y11641023D01*
X3570833Y11648694D01*
X3558438Y11654840D01*
X3545332Y11659260D01*
X3531717Y11661952D01*
X3517900Y11662867D01*
X3504082Y11661952D01*
X3490518Y11659260D01*
X3477412Y11654840D01*
X3464966Y11648694D01*
X3453434Y11641023D01*
X3443020Y11631879D01*
X3433927Y11621465D01*
X3426206Y11609933D01*
X3420059Y11597538D01*
X3415639Y11584381D01*
X3412947Y11570817D01*
X3412032Y11557000D01*
X3412947Y11543182D01*
X3415639Y11529568D01*
X3420059Y11516461D01*
X3426206Y11504066D01*
X3433927Y11492534D01*
X3443020Y11482120D01*
X3453434Y11472976D01*
X3464966Y11465306D01*
X3477412Y11459159D01*
X3490518Y11454739D01*
X3504082Y11451996D01*
G37*
G36*
X3009900Y11451132D02*
G01*
X3023717Y11451996D01*
X3037332Y11454739D01*
X3050438Y11459159D01*
X3062833Y11465306D01*
X3074365Y11472976D01*
X3084779Y11482120D01*
X3093923Y11492534D01*
X3101594Y11504066D01*
X3107740Y11516461D01*
X3112211Y11529568D01*
X3114903Y11543182D01*
X3115818Y11557000D01*
X3114903Y11570817D01*
X3112211Y11584381D01*
X3107740Y11597538D01*
X3101594Y11609933D01*
X3093923Y11621465D01*
X3084779Y11631879D01*
X3074365Y11641023D01*
X3062833Y11648694D01*
X3050438Y11654840D01*
X3037332Y11659260D01*
X3023717Y11661952D01*
X3009900Y11662867D01*
X2996082Y11661952D01*
X2982518Y11659260D01*
X2969412Y11654840D01*
X2956966Y11648694D01*
X2945434Y11641023D01*
X2935020Y11631879D01*
X2925927Y11621465D01*
X2918206Y11609933D01*
X2912110Y11597538D01*
X2907639Y11584381D01*
X2904947Y11570817D01*
X2904032Y11557000D01*
X2904947Y11543182D01*
X2907639Y11529568D01*
X2912110Y11516461D01*
X2918206Y11504066D01*
X2925927Y11492534D01*
X2935020Y11482120D01*
X2945434Y11472976D01*
X2956966Y11465306D01*
X2969412Y11459159D01*
X2982518Y11454739D01*
X2996082Y11451996D01*
G37*
G36*
X3263900Y11451132D02*
G01*
X3277717Y11451996D01*
X3291332Y11454739D01*
X3304438Y11459159D01*
X3316833Y11465306D01*
X3328365Y11472976D01*
X3338779Y11482120D01*
X3347923Y11492534D01*
X3355594Y11504066D01*
X3361740Y11516461D01*
X3366211Y11529568D01*
X3368903Y11543182D01*
X3369818Y11557000D01*
X3368903Y11570817D01*
X3366211Y11584381D01*
X3361740Y11597538D01*
X3355594Y11609933D01*
X3347923Y11621465D01*
X3338779Y11631879D01*
X3328365Y11641023D01*
X3316833Y11648694D01*
X3304438Y11654840D01*
X3291332Y11659260D01*
X3277717Y11661952D01*
X3263900Y11662867D01*
X3250082Y11661952D01*
X3236518Y11659260D01*
X3223412Y11654840D01*
X3210966Y11648694D01*
X3199434Y11641023D01*
X3189020Y11631879D01*
X3179927Y11621465D01*
X3172206Y11609933D01*
X3166110Y11597538D01*
X3161639Y11584381D01*
X3158947Y11570817D01*
X3158032Y11557000D01*
X3158947Y11543182D01*
X3161639Y11529568D01*
X3166110Y11516461D01*
X3172206Y11504066D01*
X3179927Y11492534D01*
X3189020Y11482120D01*
X3199434Y11472976D01*
X3210966Y11465306D01*
X3223412Y11459159D01*
X3236518Y11454739D01*
X3250082Y11451996D01*
G37*
G36*
X2501900Y11451132D02*
G01*
X2515717Y11451996D01*
X2529332Y11454739D01*
X2542438Y11459159D01*
X2554833Y11465306D01*
X2566365Y11472976D01*
X2576779Y11482120D01*
X2585923Y11492534D01*
X2593594Y11504066D01*
X2599740Y11516461D01*
X2604211Y11529568D01*
X2606903Y11543182D01*
X2607818Y11557000D01*
X2606903Y11570817D01*
X2604211Y11584381D01*
X2599740Y11597538D01*
X2593594Y11609933D01*
X2585923Y11621465D01*
X2576779Y11631879D01*
X2566365Y11641023D01*
X2554833Y11648694D01*
X2542438Y11654840D01*
X2529332Y11659260D01*
X2515717Y11661952D01*
X2501900Y11662867D01*
X2488082Y11661952D01*
X2474518Y11659260D01*
X2461412Y11654840D01*
X2448966Y11648694D01*
X2437434Y11641023D01*
X2427020Y11631879D01*
X2417927Y11621465D01*
X2410206Y11609933D01*
X2404110Y11597538D01*
X2399639Y11584381D01*
X2396947Y11570817D01*
X2396032Y11557000D01*
X2396947Y11543182D01*
X2399639Y11529568D01*
X2404110Y11516461D01*
X2410206Y11504066D01*
X2417927Y11492534D01*
X2427020Y11482120D01*
X2437434Y11472976D01*
X2448966Y11465306D01*
X2461412Y11459159D01*
X2474518Y11454739D01*
X2488082Y11451996D01*
G37*
G36*
X3771900Y11451132D02*
G01*
X3785717Y11451996D01*
X3799332Y11454739D01*
X3812438Y11459159D01*
X3824833Y11465306D01*
X3836365Y11472976D01*
X3846779Y11482120D01*
X3855923Y11492534D01*
X3863594Y11504066D01*
X3869740Y11516461D01*
X3874211Y11529568D01*
X3876903Y11543182D01*
X3877818Y11557000D01*
X3876903Y11570817D01*
X3874211Y11584381D01*
X3869740Y11597538D01*
X3863594Y11609933D01*
X3855923Y11621465D01*
X3846779Y11631879D01*
X3836365Y11641023D01*
X3824833Y11648694D01*
X3812438Y11654840D01*
X3799332Y11659260D01*
X3785717Y11661952D01*
X3771900Y11662867D01*
X3758082Y11661952D01*
X3744518Y11659260D01*
X3731412Y11654840D01*
X3718966Y11648694D01*
X3707434Y11641023D01*
X3697020Y11631879D01*
X3687927Y11621465D01*
X3680206Y11609933D01*
X3674059Y11597538D01*
X3669639Y11584381D01*
X3666947Y11570817D01*
X3666032Y11557000D01*
X3666947Y11543182D01*
X3669639Y11529568D01*
X3674059Y11516461D01*
X3680206Y11504066D01*
X3687927Y11492534D01*
X3697020Y11482120D01*
X3707434Y11472976D01*
X3718966Y11465306D01*
X3731412Y11459159D01*
X3744518Y11454739D01*
X3758082Y11451996D01*
G37*
G36*
X2247900Y11451132D02*
G01*
X2261717Y11451996D01*
X2275332Y11454739D01*
X2288438Y11459159D01*
X2300833Y11465306D01*
X2312365Y11472976D01*
X2322779Y11482120D01*
X2331923Y11492534D01*
X2339594Y11504066D01*
X2345740Y11516461D01*
X2350211Y11529568D01*
X2352903Y11543182D01*
X2353818Y11557000D01*
X2352903Y11570817D01*
X2350211Y11584381D01*
X2345740Y11597538D01*
X2339594Y11609933D01*
X2331923Y11621465D01*
X2322779Y11631879D01*
X2312365Y11641023D01*
X2300833Y11648694D01*
X2288438Y11654840D01*
X2275332Y11659260D01*
X2261717Y11661952D01*
X2247900Y11662867D01*
X2234082Y11661952D01*
X2220518Y11659260D01*
X2207412Y11654840D01*
X2194966Y11648694D01*
X2183434Y11641023D01*
X2173020Y11631879D01*
X2163927Y11621465D01*
X2156206Y11609933D01*
X2150110Y11597538D01*
X2145639Y11584381D01*
X2142947Y11570817D01*
X2142032Y11557000D01*
X2142947Y11543182D01*
X2145639Y11529568D01*
X2150110Y11516461D01*
X2156206Y11504066D01*
X2163927Y11492534D01*
X2173020Y11482120D01*
X2183434Y11472976D01*
X2194966Y11465306D01*
X2207412Y11459159D01*
X2220518Y11454739D01*
X2234082Y11451996D01*
G37*
G36*
X2755900Y11451132D02*
G01*
X2769717Y11451996D01*
X2783332Y11454739D01*
X2796438Y11459159D01*
X2808833Y11465306D01*
X2820365Y11472976D01*
X2830779Y11482120D01*
X2839923Y11492534D01*
X2847594Y11504066D01*
X2853740Y11516461D01*
X2858211Y11529568D01*
X2860903Y11543182D01*
X2861818Y11557000D01*
X2860903Y11570817D01*
X2858211Y11584381D01*
X2853740Y11597538D01*
X2847594Y11609933D01*
X2839923Y11621465D01*
X2830779Y11631879D01*
X2820365Y11641023D01*
X2808833Y11648694D01*
X2796438Y11654840D01*
X2783332Y11659260D01*
X2769717Y11661952D01*
X2755900Y11662867D01*
X2742082Y11661952D01*
X2728518Y11659260D01*
X2715412Y11654840D01*
X2702966Y11648694D01*
X2691434Y11641023D01*
X2681020Y11631879D01*
X2671927Y11621465D01*
X2664206Y11609933D01*
X2658110Y11597538D01*
X2653639Y11584381D01*
X2650947Y11570817D01*
X2650032Y11557000D01*
X2650947Y11543182D01*
X2653639Y11529568D01*
X2658110Y11516461D01*
X2664206Y11504066D01*
X2671927Y11492534D01*
X2681020Y11482120D01*
X2691434Y11472976D01*
X2702966Y11465306D01*
X2715412Y11459159D01*
X2728518Y11454739D01*
X2742082Y11451996D01*
G37*
G36*
X4279900Y11451132D02*
G01*
X4293717Y11451996D01*
X4307332Y11454739D01*
X4320438Y11459159D01*
X4332833Y11465306D01*
X4344365Y11472976D01*
X4354779Y11482120D01*
X4363923Y11492534D01*
X4371594Y11504066D01*
X4377740Y11516461D01*
X4382211Y11529568D01*
X4384903Y11543182D01*
X4385818Y11557000D01*
X4384903Y11570817D01*
X4382211Y11584381D01*
X4377740Y11597538D01*
X4371594Y11609933D01*
X4363923Y11621465D01*
X4354779Y11631879D01*
X4344365Y11641023D01*
X4332833Y11648694D01*
X4320438Y11654840D01*
X4307332Y11659260D01*
X4293717Y11661952D01*
X4279900Y11662867D01*
X4266082Y11661952D01*
X4252518Y11659260D01*
X4239412Y11654840D01*
X4226966Y11648694D01*
X4215434Y11641023D01*
X4205020Y11631879D01*
X4195927Y11621465D01*
X4188206Y11609933D01*
X4182059Y11597538D01*
X4177639Y11584381D01*
X4174947Y11570817D01*
X4174032Y11557000D01*
X4174947Y11543182D01*
X4177639Y11529568D01*
X4182059Y11516461D01*
X4188206Y11504066D01*
X4195927Y11492534D01*
X4205020Y11482120D01*
X4215434Y11472976D01*
X4226966Y11465306D01*
X4239412Y11459159D01*
X4252518Y11454739D01*
X4266082Y11451996D01*
G37*
G36*
X1228496Y11454993D02*
G01*
X1242110Y11455450D01*
X1255572Y11457686D01*
X1268577Y11461750D01*
X1280972Y11467490D01*
X1292453Y11474805D01*
X1302867Y11483594D01*
X1312011Y11493754D01*
X1319733Y11504980D01*
X1325880Y11517122D01*
X1330350Y11530025D01*
X1333093Y11543385D01*
X1334008Y11557000D01*
X1333093Y11570614D01*
X1330350Y11583974D01*
X1325880Y11596878D01*
X1319733Y11609019D01*
X1312011Y11620246D01*
X1302867Y11630406D01*
X1292453Y11639194D01*
X1280972Y11646509D01*
X1268577Y11652250D01*
X1255572Y11656314D01*
X1242110Y11658549D01*
X1228496Y11659006D01*
X1214932Y11657685D01*
X1201674Y11654485D01*
X1188923Y11649608D01*
X1176985Y11643055D01*
X1166012Y11634978D01*
X1156208Y11625478D01*
X1147724Y11614759D01*
X1140815Y11603024D01*
X1135481Y11590477D01*
X1131874Y11577320D01*
X1130046Y11563807D01*
X1130046Y11550192D01*
X1131874Y11536680D01*
X1135481Y11523522D01*
X1140815Y11510975D01*
X1147724Y11499240D01*
X1156208Y11488521D01*
X1166012Y11479022D01*
X1176985Y11470944D01*
X1188923Y11464391D01*
X1201674Y11459514D01*
X1214932Y11456314D01*
G37*
G36*
X1482496Y11454993D02*
G01*
X1496110Y11455450D01*
X1509572Y11457686D01*
X1522577Y11461750D01*
X1534972Y11467490D01*
X1546453Y11474805D01*
X1556867Y11483594D01*
X1566011Y11493754D01*
X1573733Y11504980D01*
X1579880Y11517122D01*
X1584350Y11530025D01*
X1587093Y11543385D01*
X1588008Y11557000D01*
X1587093Y11570614D01*
X1584350Y11583974D01*
X1579880Y11596878D01*
X1573733Y11609019D01*
X1566011Y11620246D01*
X1556867Y11630406D01*
X1546453Y11639194D01*
X1534972Y11646509D01*
X1522577Y11652250D01*
X1509572Y11656314D01*
X1496110Y11658549D01*
X1482496Y11659006D01*
X1468932Y11657685D01*
X1455674Y11654485D01*
X1442923Y11649608D01*
X1430985Y11643055D01*
X1420012Y11634978D01*
X1410208Y11625478D01*
X1401724Y11614759D01*
X1394815Y11603024D01*
X1389481Y11590477D01*
X1385874Y11577320D01*
X1384046Y11563807D01*
X1384046Y11550192D01*
X1385874Y11536680D01*
X1389481Y11523522D01*
X1394815Y11510975D01*
X1401724Y11499240D01*
X1410208Y11488521D01*
X1420012Y11479022D01*
X1430985Y11470944D01*
X1442923Y11464391D01*
X1455674Y11459514D01*
X1468932Y11456314D01*
G37*
G36*
X10337342Y11680037D02*
G01*
X10536072Y11680037D01*
X10542422Y11680799D01*
X10547858Y11682679D01*
X10552785Y11685778D01*
X10556849Y11689842D01*
X10559948Y11694769D01*
X10561828Y11700205D01*
X10562539Y11706555D01*
X10562539Y12065304D01*
X10561828Y12071654D01*
X10559948Y12077090D01*
X10556849Y12082018D01*
X10552785Y12086082D01*
X10547858Y12089180D01*
X10542422Y12091060D01*
X10536072Y12091771D01*
X10337342Y12091771D01*
X10330992Y12091060D01*
X10325557Y12089180D01*
X10320629Y12086082D01*
X10316565Y12082018D01*
X10313466Y12077090D01*
X10311536Y12071654D01*
X10310825Y12065304D01*
X10310825Y11706555D01*
X10311536Y11700205D01*
X10313466Y11694769D01*
X10316565Y11689842D01*
X10320629Y11685778D01*
X10325557Y11682679D01*
X10330992Y11680799D01*
G37*
G36*
X11587327Y11680037D02*
G01*
X11786057Y11680037D01*
X11792407Y11680799D01*
X11797842Y11682679D01*
X11802770Y11685778D01*
X11806834Y11689842D01*
X11809933Y11694769D01*
X11811863Y11700205D01*
X11812574Y11706555D01*
X11812574Y12065304D01*
X11811863Y12071654D01*
X11809933Y12077090D01*
X11806834Y12082018D01*
X11802770Y12086082D01*
X11797842Y12089180D01*
X11792407Y12091060D01*
X11786057Y12091771D01*
X11587327Y12091771D01*
X11580977Y12091060D01*
X11575542Y12089180D01*
X11570614Y12086082D01*
X11566550Y12082018D01*
X11563451Y12077090D01*
X11561572Y12071654D01*
X11560860Y12065304D01*
X11560860Y11706555D01*
X11561572Y11700205D01*
X11563451Y11694769D01*
X11566550Y11689842D01*
X11570614Y11685778D01*
X11575542Y11682679D01*
X11580977Y11680799D01*
G37*
G36*
X10805515Y12471247D02*
G01*
X10820044Y12471247D01*
X10834522Y12473076D01*
X10848594Y12476734D01*
X10862157Y12482068D01*
X10874908Y12489078D01*
X10886694Y12497663D01*
X10897311Y12507620D01*
X10906556Y12518847D01*
X10914380Y12531140D01*
X10920577Y12544298D01*
X10925048Y12558115D01*
X10927791Y12572441D01*
X10928705Y12586970D01*
X10927791Y12601498D01*
X10925048Y12615824D01*
X10920577Y12629642D01*
X10914380Y12642799D01*
X10906556Y12655092D01*
X10897311Y12666319D01*
X10886694Y12676276D01*
X10874908Y12684861D01*
X10862157Y12691872D01*
X10848594Y12697206D01*
X10834522Y12700863D01*
X10820044Y12702692D01*
X10805515Y12702692D01*
X10791037Y12700863D01*
X10776966Y12697206D01*
X10763402Y12691872D01*
X10750651Y12684861D01*
X10738866Y12676276D01*
X10728248Y12666319D01*
X10719003Y12655092D01*
X10711180Y12642799D01*
X10704982Y12629642D01*
X10700512Y12615824D01*
X10697768Y12601498D01*
X10696854Y12586970D01*
X10697768Y12572441D01*
X10700512Y12558115D01*
X10704982Y12544298D01*
X10711180Y12531140D01*
X10719003Y12518847D01*
X10728248Y12507620D01*
X10738866Y12497663D01*
X10750651Y12489078D01*
X10763402Y12482068D01*
X10776966Y12476734D01*
X10791037Y12473076D01*
G37*
G36*
X11303355Y12471247D02*
G01*
X11317884Y12471247D01*
X11332362Y12473076D01*
X11346434Y12476734D01*
X11359997Y12482068D01*
X11372748Y12489078D01*
X11384534Y12497663D01*
X11395151Y12507620D01*
X11404396Y12518847D01*
X11412220Y12531140D01*
X11418417Y12544298D01*
X11422888Y12558115D01*
X11425631Y12572441D01*
X11426545Y12586970D01*
X11425631Y12601498D01*
X11422888Y12615824D01*
X11418417Y12629642D01*
X11412220Y12642799D01*
X11404396Y12655092D01*
X11395151Y12666319D01*
X11384534Y12676276D01*
X11372748Y12684861D01*
X11359997Y12691872D01*
X11346434Y12697206D01*
X11332362Y12700863D01*
X11317884Y12702692D01*
X11303355Y12702692D01*
X11288877Y12700863D01*
X11274806Y12697206D01*
X11261242Y12691872D01*
X11248491Y12684861D01*
X11236706Y12676276D01*
X11226088Y12666319D01*
X11216843Y12655092D01*
X11209020Y12642799D01*
X11202822Y12629642D01*
X11198352Y12615824D01*
X11195608Y12601498D01*
X11194694Y12586970D01*
X11195608Y12572441D01*
X11198352Y12558115D01*
X11202822Y12544298D01*
X11209020Y12531140D01*
X11216843Y12518847D01*
X11226088Y12507620D01*
X11236706Y12497663D01*
X11248491Y12489078D01*
X11261242Y12482068D01*
X11274806Y12476734D01*
X11288877Y12473076D01*
G37*
G36*
X4764278Y12487910D02*
G01*
X4913122Y12487910D01*
X4919472Y12488621D01*
X4924907Y12490500D01*
X4929835Y12493599D01*
X4933899Y12497663D01*
X4936998Y12502591D01*
X4938877Y12508026D01*
X4939588Y12514376D01*
X4939588Y12663220D01*
X4938877Y12669570D01*
X4936998Y12675006D01*
X4933899Y12679934D01*
X4929835Y12683998D01*
X4924907Y12687096D01*
X4919472Y12688976D01*
X4913122Y12689687D01*
X4764278Y12689687D01*
X4757928Y12688976D01*
X4752492Y12687096D01*
X4747564Y12683998D01*
X4743500Y12679934D01*
X4740402Y12675006D01*
X4738522Y12669570D01*
X4737811Y12663220D01*
X4737811Y12514376D01*
X4738522Y12508026D01*
X4740402Y12502591D01*
X4743500Y12497663D01*
X4747564Y12493599D01*
X4752492Y12490500D01*
X4757928Y12488621D01*
G37*
G36*
X2579878Y12487910D02*
G01*
X2728722Y12487910D01*
X2735072Y12488621D01*
X2740507Y12490500D01*
X2745435Y12493599D01*
X2749499Y12497663D01*
X2752598Y12502591D01*
X2754477Y12508026D01*
X2755188Y12514376D01*
X2755188Y12663220D01*
X2754477Y12669570D01*
X2752598Y12675006D01*
X2749499Y12679934D01*
X2745435Y12683998D01*
X2740507Y12687096D01*
X2735072Y12688976D01*
X2728722Y12689687D01*
X2579878Y12689687D01*
X2573528Y12688976D01*
X2568092Y12687096D01*
X2563164Y12683998D01*
X2559100Y12679934D01*
X2556002Y12675006D01*
X2554122Y12669570D01*
X2553411Y12663220D01*
X2553411Y12514376D01*
X2554122Y12508026D01*
X2556002Y12502591D01*
X2559100Y12497663D01*
X2563164Y12493599D01*
X2568092Y12490500D01*
X2573528Y12488621D01*
G37*
G36*
X3920947Y12487960D02*
G01*
X3934409Y12488418D01*
X3947668Y12490653D01*
X3960571Y12494666D01*
X3972763Y12500305D01*
X3984142Y12507569D01*
X3994454Y12516256D01*
X4003497Y12526264D01*
X4011117Y12537389D01*
X4017162Y12549428D01*
X4021582Y12562128D01*
X4024274Y12575336D01*
X4025188Y12588798D01*
X4024274Y12602260D01*
X4021582Y12615468D01*
X4017162Y12628168D01*
X4011117Y12640208D01*
X4003497Y12651333D01*
X3994454Y12661341D01*
X3984142Y12670028D01*
X3972763Y12677292D01*
X3960571Y12682931D01*
X3947668Y12686944D01*
X3934409Y12689179D01*
X3920947Y12689636D01*
X3907536Y12688265D01*
X3894429Y12685166D01*
X3881831Y12680289D01*
X3869994Y12673838D01*
X3859174Y12665862D01*
X3849471Y12656464D01*
X3841140Y12645898D01*
X3834282Y12634315D01*
X3828999Y12621869D01*
X3825443Y12608915D01*
X3823665Y12595555D01*
X3823665Y12582042D01*
X3825443Y12568682D01*
X3828999Y12555728D01*
X3834282Y12543282D01*
X3841140Y12531699D01*
X3849471Y12521133D01*
X3859174Y12511735D01*
X3869994Y12503759D01*
X3881831Y12497308D01*
X3894429Y12492431D01*
X3907536Y12489332D01*
G37*
G36*
X6359347Y12487960D02*
G01*
X6372809Y12488418D01*
X6386068Y12490653D01*
X6398971Y12494666D01*
X6411163Y12500305D01*
X6422542Y12507569D01*
X6432854Y12516256D01*
X6441897Y12526264D01*
X6449517Y12537389D01*
X6455562Y12549428D01*
X6459982Y12562128D01*
X6462674Y12575336D01*
X6463588Y12588798D01*
X6462674Y12602260D01*
X6459982Y12615468D01*
X6455562Y12628168D01*
X6449517Y12640208D01*
X6441897Y12651333D01*
X6432854Y12661341D01*
X6422542Y12670028D01*
X6411163Y12677292D01*
X6398971Y12682931D01*
X6386068Y12686944D01*
X6372809Y12689179D01*
X6359347Y12689636D01*
X6345936Y12688265D01*
X6332829Y12685166D01*
X6320231Y12680289D01*
X6308394Y12673838D01*
X6297574Y12665862D01*
X6287871Y12656464D01*
X6279540Y12645898D01*
X6272682Y12634315D01*
X6267399Y12621869D01*
X6263843Y12608915D01*
X6262065Y12595555D01*
X6262065Y12582042D01*
X6263843Y12568682D01*
X6267399Y12555728D01*
X6272682Y12543282D01*
X6279540Y12531699D01*
X6287871Y12521133D01*
X6297574Y12511735D01*
X6308394Y12503759D01*
X6320231Y12497308D01*
X6332829Y12492431D01*
X6345936Y12489332D01*
G37*
G36*
X3412947Y12487960D02*
G01*
X3426409Y12488418D01*
X3439668Y12490653D01*
X3452571Y12494666D01*
X3464763Y12500305D01*
X3476142Y12507569D01*
X3486454Y12516256D01*
X3495497Y12526264D01*
X3503117Y12537389D01*
X3509162Y12549428D01*
X3513582Y12562128D01*
X3516274Y12575336D01*
X3517188Y12588798D01*
X3516274Y12602260D01*
X3513582Y12615468D01*
X3509162Y12628168D01*
X3503117Y12640208D01*
X3495497Y12651333D01*
X3486454Y12661341D01*
X3476142Y12670028D01*
X3464763Y12677292D01*
X3452571Y12682931D01*
X3439668Y12686944D01*
X3426409Y12689179D01*
X3412947Y12689636D01*
X3399536Y12688265D01*
X3386429Y12685166D01*
X3373831Y12680289D01*
X3361994Y12673838D01*
X3351174Y12665862D01*
X3341471Y12656464D01*
X3333140Y12645898D01*
X3326282Y12634315D01*
X3320999Y12621869D01*
X3317443Y12608915D01*
X3315665Y12595555D01*
X3315665Y12582042D01*
X3317443Y12568682D01*
X3320999Y12555728D01*
X3326282Y12543282D01*
X3333140Y12531699D01*
X3341471Y12521133D01*
X3351174Y12511735D01*
X3361994Y12503759D01*
X3373831Y12497308D01*
X3386429Y12492431D01*
X3399536Y12489332D01*
G37*
G36*
X5343347Y12487960D02*
G01*
X5356809Y12488418D01*
X5370068Y12490653D01*
X5382971Y12494666D01*
X5395163Y12500305D01*
X5406542Y12507569D01*
X5416854Y12516256D01*
X5425897Y12526264D01*
X5433517Y12537389D01*
X5439562Y12549428D01*
X5443982Y12562128D01*
X5446674Y12575336D01*
X5447588Y12588798D01*
X5446674Y12602260D01*
X5443982Y12615468D01*
X5439562Y12628168D01*
X5433517Y12640208D01*
X5425897Y12651333D01*
X5416854Y12661341D01*
X5406542Y12670028D01*
X5395163Y12677292D01*
X5382971Y12682931D01*
X5370068Y12686944D01*
X5356809Y12689179D01*
X5343347Y12689636D01*
X5329936Y12688265D01*
X5316829Y12685166D01*
X5304231Y12680289D01*
X5292394Y12673838D01*
X5281574Y12665862D01*
X5271871Y12656464D01*
X5263540Y12645898D01*
X5256682Y12634315D01*
X5251399Y12621869D01*
X5247843Y12608915D01*
X5246065Y12595555D01*
X5246065Y12582042D01*
X5247843Y12568682D01*
X5251399Y12555728D01*
X5256682Y12543282D01*
X5263540Y12531699D01*
X5271871Y12521133D01*
X5281574Y12511735D01*
X5292394Y12503759D01*
X5304231Y12497308D01*
X5316829Y12492431D01*
X5329936Y12489332D01*
G37*
G36*
X6613347Y12487960D02*
G01*
X6626809Y12488418D01*
X6640068Y12490653D01*
X6652971Y12494666D01*
X6665163Y12500305D01*
X6676542Y12507569D01*
X6686854Y12516256D01*
X6695897Y12526264D01*
X6703517Y12537389D01*
X6709562Y12549428D01*
X6713981Y12562128D01*
X6716674Y12575336D01*
X6717588Y12588798D01*
X6716674Y12602260D01*
X6713981Y12615468D01*
X6709562Y12628168D01*
X6703517Y12640208D01*
X6695897Y12651333D01*
X6686854Y12661341D01*
X6676542Y12670028D01*
X6665163Y12677292D01*
X6652971Y12682931D01*
X6640068Y12686944D01*
X6626809Y12689179D01*
X6613347Y12689636D01*
X6599936Y12688265D01*
X6586829Y12685166D01*
X6574231Y12680289D01*
X6562394Y12673838D01*
X6551574Y12665862D01*
X6541871Y12656464D01*
X6533540Y12645898D01*
X6526682Y12634315D01*
X6521399Y12621869D01*
X6517843Y12608915D01*
X6516065Y12595555D01*
X6516065Y12582042D01*
X6517843Y12568682D01*
X6521399Y12555728D01*
X6526682Y12543282D01*
X6533540Y12531699D01*
X6541871Y12521133D01*
X6551574Y12511735D01*
X6562394Y12503759D01*
X6574231Y12497308D01*
X6586829Y12492431D01*
X6599936Y12489332D01*
G37*
G36*
X2904947Y12487960D02*
G01*
X2918409Y12488418D01*
X2931668Y12490653D01*
X2944571Y12494666D01*
X2956763Y12500305D01*
X2968142Y12507569D01*
X2978454Y12516256D01*
X2987497Y12526264D01*
X2995117Y12537389D01*
X3001162Y12549428D01*
X3005582Y12562128D01*
X3008274Y12575336D01*
X3009188Y12588798D01*
X3008274Y12602260D01*
X3005582Y12615468D01*
X3001162Y12628168D01*
X2995117Y12640208D01*
X2987497Y12651333D01*
X2978454Y12661341D01*
X2968142Y12670028D01*
X2956763Y12677292D01*
X2944571Y12682931D01*
X2931668Y12686944D01*
X2918409Y12689179D01*
X2904947Y12689636D01*
X2891536Y12688265D01*
X2878429Y12685166D01*
X2865831Y12680289D01*
X2853994Y12673838D01*
X2843174Y12665862D01*
X2833471Y12656464D01*
X2825140Y12645898D01*
X2818282Y12634315D01*
X2812999Y12621869D01*
X2809443Y12608915D01*
X2807665Y12595555D01*
X2807665Y12582042D01*
X2809443Y12568682D01*
X2812999Y12555728D01*
X2818282Y12543282D01*
X2825140Y12531699D01*
X2833471Y12521133D01*
X2843174Y12511735D01*
X2853994Y12503759D01*
X2865831Y12497308D01*
X2878429Y12492431D01*
X2891536Y12489332D01*
G37*
G36*
X3158947Y12487960D02*
G01*
X3172409Y12488418D01*
X3185668Y12490653D01*
X3198571Y12494666D01*
X3210763Y12500305D01*
X3222142Y12507569D01*
X3232454Y12516256D01*
X3241497Y12526264D01*
X3249117Y12537389D01*
X3255162Y12549428D01*
X3259582Y12562128D01*
X3262274Y12575336D01*
X3263188Y12588798D01*
X3262274Y12602260D01*
X3259582Y12615468D01*
X3255162Y12628168D01*
X3249117Y12640208D01*
X3241497Y12651333D01*
X3232454Y12661341D01*
X3222142Y12670028D01*
X3210763Y12677292D01*
X3198571Y12682931D01*
X3185668Y12686944D01*
X3172409Y12689179D01*
X3158947Y12689636D01*
X3145536Y12688265D01*
X3132429Y12685166D01*
X3119831Y12680289D01*
X3107994Y12673838D01*
X3097174Y12665862D01*
X3087471Y12656464D01*
X3079140Y12645898D01*
X3072282Y12634315D01*
X3066999Y12621869D01*
X3063443Y12608915D01*
X3061665Y12595555D01*
X3061665Y12582042D01*
X3063443Y12568682D01*
X3066999Y12555728D01*
X3072282Y12543282D01*
X3079140Y12531699D01*
X3087471Y12521133D01*
X3097174Y12511735D01*
X3107994Y12503759D01*
X3119831Y12497308D01*
X3132429Y12492431D01*
X3145536Y12489332D01*
G37*
G36*
X4174947Y12487960D02*
G01*
X4188409Y12488418D01*
X4201668Y12490653D01*
X4214571Y12494666D01*
X4226763Y12500305D01*
X4238142Y12507569D01*
X4248454Y12516256D01*
X4257497Y12526264D01*
X4265117Y12537389D01*
X4271162Y12549428D01*
X4275582Y12562128D01*
X4278274Y12575336D01*
X4279188Y12588798D01*
X4278274Y12602260D01*
X4275582Y12615468D01*
X4271162Y12628168D01*
X4265117Y12640208D01*
X4257497Y12651333D01*
X4248454Y12661341D01*
X4238142Y12670028D01*
X4226763Y12677292D01*
X4214571Y12682931D01*
X4201668Y12686944D01*
X4188409Y12689179D01*
X4174947Y12689636D01*
X4161536Y12688265D01*
X4148429Y12685166D01*
X4135831Y12680289D01*
X4123994Y12673838D01*
X4113174Y12665862D01*
X4103471Y12656464D01*
X4095140Y12645898D01*
X4088282Y12634315D01*
X4082999Y12621869D01*
X4079443Y12608915D01*
X4077665Y12595555D01*
X4077665Y12582042D01*
X4079443Y12568682D01*
X4082999Y12555728D01*
X4088282Y12543282D01*
X4095140Y12531699D01*
X4103471Y12521133D01*
X4113174Y12511735D01*
X4123994Y12503759D01*
X4135831Y12497308D01*
X4148429Y12492431D01*
X4161536Y12489332D01*
G37*
G36*
X5597347Y12487960D02*
G01*
X5610809Y12488418D01*
X5624068Y12490653D01*
X5636971Y12494666D01*
X5649163Y12500305D01*
X5660542Y12507569D01*
X5670854Y12516256D01*
X5679897Y12526264D01*
X5687517Y12537389D01*
X5693562Y12549428D01*
X5697982Y12562128D01*
X5700674Y12575336D01*
X5701588Y12588798D01*
X5700674Y12602260D01*
X5697982Y12615468D01*
X5693562Y12628168D01*
X5687517Y12640208D01*
X5679897Y12651333D01*
X5670854Y12661341D01*
X5660542Y12670028D01*
X5649163Y12677292D01*
X5636971Y12682931D01*
X5624068Y12686944D01*
X5610809Y12689179D01*
X5597347Y12689636D01*
X5583936Y12688265D01*
X5570829Y12685166D01*
X5558231Y12680289D01*
X5546394Y12673838D01*
X5535574Y12665862D01*
X5525871Y12656464D01*
X5517540Y12645898D01*
X5510682Y12634315D01*
X5505399Y12621869D01*
X5501843Y12608915D01*
X5500065Y12595555D01*
X5500065Y12582042D01*
X5501843Y12568682D01*
X5505399Y12555728D01*
X5510682Y12543282D01*
X5517540Y12531699D01*
X5525871Y12521133D01*
X5535574Y12511735D01*
X5546394Y12503759D01*
X5558231Y12497308D01*
X5570829Y12492431D01*
X5583936Y12489332D01*
G37*
G36*
X5851347Y12487960D02*
G01*
X5864809Y12488418D01*
X5878068Y12490653D01*
X5890971Y12494666D01*
X5903163Y12500305D01*
X5914542Y12507569D01*
X5924854Y12516256D01*
X5933897Y12526264D01*
X5941517Y12537389D01*
X5947562Y12549428D01*
X5951982Y12562128D01*
X5954674Y12575336D01*
X5955588Y12588798D01*
X5954674Y12602260D01*
X5951982Y12615468D01*
X5947562Y12628168D01*
X5941517Y12640208D01*
X5933897Y12651333D01*
X5924854Y12661341D01*
X5914542Y12670028D01*
X5903163Y12677292D01*
X5890971Y12682931D01*
X5878068Y12686944D01*
X5864809Y12689179D01*
X5851347Y12689636D01*
X5837936Y12688265D01*
X5824829Y12685166D01*
X5812231Y12680289D01*
X5800394Y12673838D01*
X5789574Y12665862D01*
X5779871Y12656464D01*
X5771540Y12645898D01*
X5764682Y12634315D01*
X5759399Y12621869D01*
X5755843Y12608915D01*
X5754065Y12595555D01*
X5754065Y12582042D01*
X5755843Y12568682D01*
X5759399Y12555728D01*
X5764682Y12543282D01*
X5771540Y12531699D01*
X5779871Y12521133D01*
X5789574Y12511735D01*
X5800394Y12503759D01*
X5812231Y12497308D01*
X5824829Y12492431D01*
X5837936Y12489332D01*
G37*
G36*
X4428947Y12487960D02*
G01*
X4442409Y12488418D01*
X4455668Y12490653D01*
X4468571Y12494666D01*
X4480763Y12500305D01*
X4492142Y12507569D01*
X4502454Y12516256D01*
X4511497Y12526264D01*
X4519117Y12537389D01*
X4525162Y12549428D01*
X4529582Y12562128D01*
X4532274Y12575336D01*
X4533188Y12588798D01*
X4532274Y12602260D01*
X4529582Y12615468D01*
X4525162Y12628168D01*
X4519117Y12640208D01*
X4511497Y12651333D01*
X4502454Y12661341D01*
X4492142Y12670028D01*
X4480763Y12677292D01*
X4468571Y12682931D01*
X4455668Y12686944D01*
X4442409Y12689179D01*
X4428947Y12689636D01*
X4415536Y12688265D01*
X4402429Y12685166D01*
X4389831Y12680289D01*
X4377994Y12673838D01*
X4367174Y12665862D01*
X4357471Y12656464D01*
X4349140Y12645898D01*
X4342282Y12634315D01*
X4336999Y12621869D01*
X4333443Y12608915D01*
X4331665Y12595555D01*
X4331665Y12582042D01*
X4333443Y12568682D01*
X4336999Y12555728D01*
X4342282Y12543282D01*
X4349140Y12531699D01*
X4357471Y12521133D01*
X4367174Y12511735D01*
X4377994Y12503759D01*
X4389831Y12497308D01*
X4402429Y12492431D01*
X4415536Y12489332D01*
G37*
G36*
X5089347Y12487960D02*
G01*
X5102809Y12488418D01*
X5116068Y12490653D01*
X5128971Y12494666D01*
X5141163Y12500305D01*
X5152542Y12507569D01*
X5162854Y12516256D01*
X5171897Y12526264D01*
X5179517Y12537389D01*
X5185562Y12549428D01*
X5189982Y12562128D01*
X5192674Y12575336D01*
X5193588Y12588798D01*
X5192674Y12602260D01*
X5189982Y12615468D01*
X5185562Y12628168D01*
X5179517Y12640208D01*
X5171897Y12651333D01*
X5162854Y12661341D01*
X5152542Y12670028D01*
X5141163Y12677292D01*
X5128971Y12682931D01*
X5116068Y12686944D01*
X5102809Y12689179D01*
X5089347Y12689636D01*
X5075936Y12688265D01*
X5062829Y12685166D01*
X5050231Y12680289D01*
X5038394Y12673838D01*
X5027574Y12665862D01*
X5017871Y12656464D01*
X5009540Y12645898D01*
X5002682Y12634315D01*
X4997399Y12621869D01*
X4993843Y12608915D01*
X4992065Y12595555D01*
X4992065Y12582042D01*
X4993843Y12568682D01*
X4997399Y12555728D01*
X5002682Y12543282D01*
X5009540Y12531699D01*
X5017871Y12521133D01*
X5027574Y12511735D01*
X5038394Y12503759D01*
X5050231Y12497308D01*
X5062829Y12492431D01*
X5075936Y12489332D01*
G37*

%LPD*%
D10*
X1485925Y9017000D02*
G01*
X2239746Y8263178D01*
X3576320Y8263178D01*
X4076700Y7762798D01*
X1739925Y11557000D02*
G01*
X2382545Y12199620D01*
X5719521Y12199620D01*
X6108700Y12588798D01*
X11430000Y10045700D02*
G01*
X9806711Y11668988D01*
X4645888Y11668988D01*
X4533900Y11557000D01*
X5041900Y11557000D02*
G01*
X6363868Y10235031D01*
X10986668Y10235031D01*
X11176000Y10045700D01*
X6565900Y9017000D02*
G01*
X9893300Y9017000D01*
X10922000Y10045700D01*
X4330700Y7762798D02*
G01*
X4584700Y7762798D01*
X4787900Y9017000D02*
G01*
X4394936Y9409963D01*
X4394936Y9427946D01*
X3670300Y12588798D02*
G01*
X3986479Y12272619D01*
X4395114Y12272619D01*
D11*
G01*
X10668000Y10045700D03*
D12*
G01*
X10922000Y10045700D03*
G01*
X11176000Y10045700D03*
G01*
X11430000Y10045700D03*
D13*
G01*
X2654300Y12588798D03*
D14*
G01*
X2908300Y12588798D03*
G01*
X3162300Y12588798D03*
G01*
X3416300Y12588798D03*
G01*
X3670300Y12588798D03*
G01*
X3924300Y12588798D03*
G01*
X4178300Y12588798D03*
G01*
X4432300Y12588798D03*
D13*
G01*
X4838700Y12588798D03*
D14*
G01*
X5092700Y12588798D03*
G01*
X5346700Y12588798D03*
G01*
X5600700Y12588798D03*
G01*
X5854700Y12588798D03*
G01*
X6108700Y12588798D03*
G01*
X6362700Y12588798D03*
G01*
X6616700Y12588798D03*
G01*
X6616700Y7762798D03*
G01*
X6362700Y7762798D03*
G01*
X6108700Y7762798D03*
G01*
X5854700Y7762798D03*
G01*
X5600700Y7762798D03*
D13*
G01*
X5346700Y7762798D03*
D14*
G01*
X4838700Y7762798D03*
G01*
X4584700Y7762798D03*
G01*
X4330700Y7762798D03*
G01*
X4076700Y7762798D03*
G01*
X3822700Y7762798D03*
D13*
G01*
X3568700Y7762798D03*
D15*
G01*
X10812779Y11136629D03*
G01*
X11061700Y11136629D03*
G01*
X11310620Y11136629D03*
G01*
X11310620Y12586970D03*
G01*
X10812779Y12586970D03*
D16*
G01*
X10436707Y11885929D03*
G01*
X11686692Y11885929D03*
D17*
G01*
X6565900Y9017000D03*
G01*
X6311900Y9017000D03*
G01*
X6057900Y9017000D03*
G01*
X5803900Y9017000D03*
G01*
X5549900Y9017000D03*
G01*
X5295900Y9017000D03*
G01*
X5041900Y9017000D03*
G01*
X4787900Y9017000D03*
G01*
X4533900Y9017000D03*
G01*
X4279900Y9017000D03*
G01*
X4025900Y9017000D03*
G01*
X3771900Y9017000D03*
G01*
X3517900Y9017000D03*
G01*
X3263900Y9017000D03*
G01*
X3009900Y9017000D03*
G01*
X2755900Y9017000D03*
G01*
X2501900Y9017000D03*
G01*
X2247900Y9017000D03*
G01*
X1993925Y9017000D03*
G01*
X6565671Y11557000D03*
G01*
X6311900Y11557000D03*
G01*
X6057900Y11557000D03*
G01*
X5803900Y11557000D03*
G01*
X5549900Y11557000D03*
G01*
X5295900Y11557000D03*
G01*
X5041900Y11557000D03*
G01*
X4787900Y11557000D03*
G01*
X4533900Y11557000D03*
G01*
X4279900Y11557000D03*
G01*
X4025900Y11557000D03*
G01*
X3771900Y11557000D03*
G01*
X3517900Y11557000D03*
G01*
X3263900Y11557000D03*
G01*
X3009900Y11557000D03*
G01*
X2755900Y11557000D03*
G01*
X2501900Y11557000D03*
G01*
X2247900Y11557000D03*
G01*
X1993925Y11557000D03*
D18*
G01*
X1739925Y11557000D03*
G01*
X1485925Y11557000D03*
G01*
X1231925Y11557000D03*
G01*
X1739925Y9017000D03*
G01*
X1485925Y9017000D03*
G01*
X1231925Y9017000D03*
D19*
G01*
X4395114Y12272619D03*
G01*
X4394936Y9427946D03*
M02*
