G04 Layer: TopLayer*
G04 EasyEDA v6.5.44, 2024-08-15 16:42:12*
G04 206e0cd2ca1848caba6ec3024fd8e249,080bb0d1436b4706b040d70de8f1a738,10*
G04 Gerber Generator version 0.2*
G04 Scale: 100 percent, Rotated: No, Reflected: No *
G04 Dimensions in millimeters *
G04 leading zeros omitted , absolute positions ,4 integer and 5 decimal *
%FSLAX45Y45*%
%MOMM*%

%ADD10C,0.3000*%
%ADD11C,1.8009*%
%ADD12R,1.9990X3.5992*%
%ADD13C,1.6000*%
%ADD14C,1.5240*%
%ADD15R,1.5080X1.5080*%
%ADD16C,1.5080*%
%ADD17R,1.5000X1.5000*%
%ADD18C,1.5000*%
%ADD19C,0.6100*%
%ADD20C,0.0191*%

%LPD*%
G36*
X798068Y7137908D02*
G01*
X794156Y7138670D01*
X790905Y7140905D01*
X788670Y7144156D01*
X787908Y7148068D01*
X787908Y13171932D01*
X788670Y13175843D01*
X790905Y13179094D01*
X794156Y13181330D01*
X798068Y13182092D01*
X12663932Y13182092D01*
X12667843Y13181330D01*
X12671094Y13179094D01*
X12673330Y13175843D01*
X12674092Y13171932D01*
X12674092Y7148068D01*
X12673330Y7144156D01*
X12671094Y7140905D01*
X12667843Y7138670D01*
X12663932Y7137908D01*
G37*

%LPC*%
G36*
X1016000Y7238492D02*
G01*
X1031392Y7239457D01*
X1046530Y7242200D01*
X1061212Y7246772D01*
X1075232Y7253122D01*
X1088440Y7261098D01*
X1100531Y7270597D01*
X1111402Y7281468D01*
X1120902Y7293559D01*
X1128877Y7306767D01*
X1135227Y7320788D01*
X1139799Y7335469D01*
X1142542Y7350607D01*
X1143508Y7366000D01*
X1142542Y7381392D01*
X1139799Y7396530D01*
X1135227Y7411212D01*
X1128877Y7425232D01*
X1120902Y7438440D01*
X1111402Y7450531D01*
X1100531Y7461402D01*
X1088440Y7470902D01*
X1075232Y7478877D01*
X1061212Y7485227D01*
X1046530Y7489799D01*
X1031392Y7492542D01*
X1016000Y7493508D01*
X1000607Y7492542D01*
X985469Y7489799D01*
X970787Y7485227D01*
X956767Y7478877D01*
X943559Y7470902D01*
X931468Y7461402D01*
X920597Y7450531D01*
X911098Y7438440D01*
X903122Y7425232D01*
X896772Y7411212D01*
X892200Y7396530D01*
X889457Y7381392D01*
X888492Y7366000D01*
X889457Y7350607D01*
X892200Y7335469D01*
X896772Y7320788D01*
X903122Y7306767D01*
X911098Y7293559D01*
X920597Y7281468D01*
X931468Y7270597D01*
X943559Y7261098D01*
X956767Y7253122D01*
X970787Y7246772D01*
X985469Y7242200D01*
X1000607Y7239457D01*
G37*
G36*
X12090400Y7494117D02*
G01*
X12105589Y7495031D01*
X12120524Y7497775D01*
X12135053Y7502296D01*
X12148921Y7508544D01*
X12161926Y7516418D01*
X12173864Y7525766D01*
X12184634Y7536535D01*
X12193981Y7548473D01*
X12201855Y7561478D01*
X12208103Y7575346D01*
X12212624Y7589875D01*
X12215368Y7604810D01*
X12216282Y7620000D01*
X12215368Y7635189D01*
X12212624Y7650124D01*
X12208103Y7664653D01*
X12201855Y7678521D01*
X12193981Y7691526D01*
X12184634Y7703464D01*
X12173864Y7714234D01*
X12161926Y7723581D01*
X12148921Y7731455D01*
X12135053Y7737703D01*
X12120524Y7742224D01*
X12105589Y7744968D01*
X12090400Y7745882D01*
X12075210Y7744968D01*
X12060275Y7742224D01*
X12045746Y7737703D01*
X12031878Y7731455D01*
X12018873Y7723581D01*
X12006935Y7714234D01*
X11996166Y7703464D01*
X11986818Y7691526D01*
X11978944Y7678521D01*
X11972696Y7664653D01*
X11968175Y7650124D01*
X11965432Y7635189D01*
X11964517Y7620000D01*
X11965432Y7604810D01*
X11968175Y7589875D01*
X11972696Y7575346D01*
X11978944Y7561478D01*
X11986818Y7548473D01*
X11996166Y7536535D01*
X12006935Y7525766D01*
X12018873Y7516418D01*
X12031878Y7508544D01*
X12045746Y7502296D01*
X12060275Y7497775D01*
X12075210Y7495031D01*
G37*
G36*
X10007600Y7494117D02*
G01*
X10022789Y7495031D01*
X10037724Y7497775D01*
X10052253Y7502296D01*
X10066121Y7508544D01*
X10079126Y7516418D01*
X10091064Y7525766D01*
X10101834Y7536535D01*
X10111181Y7548473D01*
X10119055Y7561478D01*
X10125303Y7575346D01*
X10129824Y7589875D01*
X10132568Y7604810D01*
X10133482Y7620000D01*
X10132568Y7635189D01*
X10129824Y7650124D01*
X10125303Y7664653D01*
X10119055Y7678521D01*
X10111181Y7691526D01*
X10101834Y7703464D01*
X10091064Y7714234D01*
X10079126Y7723581D01*
X10066121Y7731455D01*
X10052253Y7737703D01*
X10037724Y7742224D01*
X10022789Y7744968D01*
X10007600Y7745882D01*
X9992410Y7744968D01*
X9977475Y7742224D01*
X9962946Y7737703D01*
X9949078Y7731455D01*
X9936073Y7723581D01*
X9924135Y7714234D01*
X9913366Y7703464D01*
X9904018Y7691526D01*
X9896144Y7678521D01*
X9889896Y7664653D01*
X9885375Y7650124D01*
X9882632Y7635189D01*
X9881717Y7620000D01*
X9882632Y7604810D01*
X9885375Y7589875D01*
X9889896Y7575346D01*
X9896144Y7561478D01*
X9904018Y7548473D01*
X9913366Y7536535D01*
X9924135Y7525766D01*
X9936073Y7516418D01*
X9949078Y7508544D01*
X9962946Y7502296D01*
X9977475Y7497775D01*
X9992410Y7495031D01*
G37*
G36*
X3673754Y7550759D02*
G01*
X7095845Y7550759D01*
X7104329Y7551572D01*
X7112000Y7553909D01*
X7119061Y7557668D01*
X7125614Y7563103D01*
X7211059Y7648549D01*
X7214108Y7650581D01*
X7217664Y7651496D01*
X7221270Y7651038D01*
X7228331Y7648854D01*
X7241590Y7646619D01*
X7255052Y7646162D01*
X7268464Y7647533D01*
X7281570Y7650632D01*
X7294168Y7655509D01*
X7306005Y7661960D01*
X7316825Y7669936D01*
X7326528Y7679334D01*
X7334859Y7689900D01*
X7341717Y7701483D01*
X7347000Y7713929D01*
X7350556Y7726883D01*
X7352334Y7740243D01*
X7352334Y7753756D01*
X7350556Y7767116D01*
X7347000Y7780070D01*
X7341717Y7792516D01*
X7334859Y7804099D01*
X7326528Y7814665D01*
X7316825Y7824063D01*
X7306005Y7832039D01*
X7294168Y7838490D01*
X7281570Y7843367D01*
X7268464Y7846466D01*
X7255052Y7847838D01*
X7241590Y7847380D01*
X7228331Y7845145D01*
X7215428Y7841132D01*
X7203236Y7835493D01*
X7191857Y7828229D01*
X7181545Y7819542D01*
X7172502Y7809534D01*
X7164882Y7798409D01*
X7158837Y7786370D01*
X7154418Y7773670D01*
X7151725Y7760462D01*
X7150811Y7747000D01*
X7151725Y7733538D01*
X7154418Y7720330D01*
X7155586Y7716875D01*
X7156145Y7713116D01*
X7155332Y7709458D01*
X7153198Y7706359D01*
X7082383Y7635544D01*
X7079081Y7633309D01*
X7075220Y7632547D01*
X7035292Y7632547D01*
X7031380Y7633360D01*
X7028027Y7635595D01*
X7025843Y7638948D01*
X7025131Y7642859D01*
X7025995Y7646771D01*
X7028281Y7650073D01*
X7031634Y7652207D01*
X7040168Y7655509D01*
X7052005Y7661960D01*
X7062825Y7669936D01*
X7072528Y7679334D01*
X7080859Y7689900D01*
X7087717Y7701483D01*
X7093000Y7713929D01*
X7096556Y7726883D01*
X7098334Y7740243D01*
X7098334Y7753756D01*
X7096556Y7767116D01*
X7093000Y7780070D01*
X7087717Y7792516D01*
X7080859Y7804099D01*
X7072528Y7814665D01*
X7062825Y7824063D01*
X7052005Y7832039D01*
X7040168Y7838490D01*
X7027570Y7843367D01*
X7014464Y7846466D01*
X7001052Y7847838D01*
X6987590Y7847380D01*
X6974331Y7845145D01*
X6961428Y7841132D01*
X6949236Y7835493D01*
X6937857Y7828229D01*
X6927545Y7819542D01*
X6918502Y7809534D01*
X6910882Y7798409D01*
X6904837Y7786370D01*
X6900418Y7773670D01*
X6897725Y7760462D01*
X6896811Y7747000D01*
X6897725Y7733538D01*
X6900418Y7720330D01*
X6901586Y7716875D01*
X6902145Y7713116D01*
X6901332Y7709458D01*
X6899198Y7706359D01*
X6878320Y7685481D01*
X6875018Y7683246D01*
X6871157Y7682484D01*
X6840321Y7682484D01*
X6836156Y7683398D01*
X6832752Y7685887D01*
X6830618Y7689596D01*
X6830212Y7693812D01*
X6831584Y7697825D01*
X6833717Y7701483D01*
X6839000Y7713929D01*
X6842556Y7726883D01*
X6844334Y7740243D01*
X6844334Y7753756D01*
X6842556Y7767116D01*
X6839000Y7780070D01*
X6833717Y7792516D01*
X6826859Y7804099D01*
X6818528Y7814665D01*
X6808825Y7824063D01*
X6798005Y7832039D01*
X6786168Y7838490D01*
X6773570Y7843367D01*
X6760464Y7846466D01*
X6747052Y7847838D01*
X6733590Y7847380D01*
X6720331Y7845145D01*
X6713270Y7842961D01*
X6709664Y7842503D01*
X6706108Y7843418D01*
X6703059Y7845450D01*
X6399784Y8148777D01*
X6397599Y8152028D01*
X6396837Y8155940D01*
X6397599Y8159851D01*
X6399784Y8163102D01*
X6403086Y8165338D01*
X6406997Y8166100D01*
X8888984Y8166100D01*
X8890711Y8166811D01*
X9143288Y8419388D01*
X9144000Y8421116D01*
X9144000Y8965946D01*
X9144762Y8969806D01*
X9146997Y8973108D01*
X9150248Y8975293D01*
X9154160Y8976106D01*
X9892792Y8976106D01*
X9901275Y8976918D01*
X9908946Y8979255D01*
X9916007Y8983014D01*
X9922560Y8988450D01*
X10880902Y9946741D01*
X10884154Y9948926D01*
X10887913Y9949738D01*
X10891977Y9948976D01*
X10905134Y9945827D01*
X10918596Y9944455D01*
X10932160Y9944912D01*
X10945469Y9947198D01*
X10958423Y9951161D01*
X10970666Y9956901D01*
X10982096Y9964166D01*
X10992408Y9972903D01*
X11001502Y9982911D01*
X11009122Y9994087D01*
X11015268Y10006177D01*
X11019688Y10018928D01*
X11022380Y10032187D01*
X11023295Y10045700D01*
X11022380Y10059212D01*
X11019688Y10072471D01*
X11015268Y10085222D01*
X11009122Y10097312D01*
X11001502Y10108488D01*
X10992408Y10118496D01*
X10982096Y10127234D01*
X10970666Y10134498D01*
X10958423Y10140238D01*
X10945469Y10144201D01*
X10932160Y10146487D01*
X10918596Y10146944D01*
X10905134Y10145572D01*
X10891977Y10142423D01*
X10879378Y10137597D01*
X10867491Y10131094D01*
X10856620Y10123068D01*
X10846866Y10113619D01*
X10838484Y10103002D01*
X10831576Y10091369D01*
X10826343Y10078923D01*
X10822736Y10065867D01*
X10820958Y10052456D01*
X10820958Y10038943D01*
X10822736Y10025532D01*
X10825734Y10014559D01*
X10826089Y10011003D01*
X10825175Y10007600D01*
X10823143Y10004704D01*
X10786668Y9968179D01*
X10783366Y9965994D01*
X10779455Y9965232D01*
X10775594Y9965994D01*
X10772292Y9968179D01*
X10770057Y9971481D01*
X10769295Y9975392D01*
X10769295Y10120528D01*
X10768584Y10126827D01*
X10766704Y10132314D01*
X10763605Y10137190D01*
X10759490Y10141305D01*
X10754614Y10144404D01*
X10749127Y10146284D01*
X10742828Y10146995D01*
X10612882Y10146995D01*
X10609224Y10147706D01*
X10606074Y10149636D01*
X10603788Y10152583D01*
X10602772Y10156190D01*
X10602468Y10159288D01*
X10600131Y10166959D01*
X10596372Y10174020D01*
X10590936Y10180574D01*
X9185960Y11585549D01*
X9179407Y11590985D01*
X9172346Y11594744D01*
X9164675Y11597081D01*
X9156192Y11597894D01*
X9154160Y11597894D01*
X9150248Y11598656D01*
X9146997Y11600891D01*
X9144762Y11604193D01*
X9144000Y11608054D01*
X9144000Y11975084D01*
X9143288Y11976811D01*
X8890711Y12229388D01*
X8888984Y12230100D01*
X5589016Y12230100D01*
X5587288Y12229388D01*
X5334711Y11976811D01*
X5334000Y11975084D01*
X5334000Y11669522D01*
X5333034Y11665204D01*
X5330291Y11661648D01*
X5326329Y11659666D01*
X5321858Y11659565D01*
X5309717Y11661952D01*
X5295900Y11662867D01*
X5282082Y11661952D01*
X5268518Y11659260D01*
X5255361Y11654840D01*
X5242966Y11648694D01*
X5231434Y11641023D01*
X5221020Y11631879D01*
X5211876Y11621465D01*
X5204206Y11609933D01*
X5198059Y11597538D01*
X5193639Y11584381D01*
X5190947Y11570817D01*
X5190032Y11557000D01*
X5190947Y11543182D01*
X5193639Y11529568D01*
X5198059Y11516461D01*
X5204206Y11504066D01*
X5211876Y11492534D01*
X5221020Y11482120D01*
X5231434Y11472976D01*
X5242966Y11465306D01*
X5255361Y11459159D01*
X5268518Y11454739D01*
X5282082Y11451996D01*
X5295900Y11451132D01*
X5309717Y11451996D01*
X5321858Y11454434D01*
X5326329Y11454333D01*
X5330291Y11452301D01*
X5333034Y11448796D01*
X5334000Y11444478D01*
X5334000Y11400078D01*
X5333238Y11396218D01*
X5331002Y11392916D01*
X5327751Y11390680D01*
X5323840Y11389918D01*
X5271008Y11389918D01*
X5267147Y11390680D01*
X5263845Y11392916D01*
X5144312Y11512397D01*
X5142230Y11515496D01*
X5141366Y11519154D01*
X5141925Y11522862D01*
X5144160Y11529568D01*
X5146903Y11543182D01*
X5147767Y11557000D01*
X5146903Y11570817D01*
X5144160Y11584381D01*
X5139740Y11597538D01*
X5133594Y11609933D01*
X5125923Y11621465D01*
X5116779Y11631879D01*
X5106365Y11641023D01*
X5094833Y11648694D01*
X5082438Y11654840D01*
X5069332Y11659260D01*
X5055717Y11661952D01*
X5041900Y11662867D01*
X5028082Y11661952D01*
X5014518Y11659260D01*
X5001361Y11654840D01*
X4988966Y11648694D01*
X4977434Y11641023D01*
X4967020Y11631879D01*
X4957876Y11621465D01*
X4950206Y11609933D01*
X4944059Y11597538D01*
X4939639Y11584381D01*
X4936947Y11570817D01*
X4936032Y11557000D01*
X4936947Y11543182D01*
X4939639Y11529568D01*
X4944059Y11516461D01*
X4950206Y11504066D01*
X4957876Y11492534D01*
X4967020Y11482120D01*
X4977434Y11472976D01*
X4988966Y11465306D01*
X5001361Y11459159D01*
X5014518Y11454739D01*
X5028082Y11451996D01*
X5041900Y11451132D01*
X5055717Y11451996D01*
X5069332Y11454739D01*
X5076037Y11456974D01*
X5079746Y11457533D01*
X5083403Y11456670D01*
X5086502Y11454587D01*
X5220614Y11320475D01*
X5227167Y11315039D01*
X5234228Y11311280D01*
X5241899Y11308943D01*
X5250383Y11308130D01*
X5323840Y11308130D01*
X5327751Y11307318D01*
X5331002Y11305133D01*
X5333238Y11301831D01*
X5334000Y11297970D01*
X5334000Y11256822D01*
X5333238Y11252962D01*
X5331002Y11249660D01*
X5327751Y11247424D01*
X5323840Y11246662D01*
X4906264Y11246662D01*
X4902403Y11247424D01*
X4899101Y11249660D01*
X4636363Y11512397D01*
X4634230Y11515496D01*
X4633366Y11519154D01*
X4633925Y11522862D01*
X4636211Y11529568D01*
X4638903Y11543182D01*
X4639818Y11557000D01*
X4638903Y11570817D01*
X4636211Y11584381D01*
X4631740Y11597538D01*
X4625594Y11609933D01*
X4617923Y11621465D01*
X4608779Y11631879D01*
X4598365Y11641023D01*
X4586833Y11648694D01*
X4574438Y11654840D01*
X4561332Y11659260D01*
X4547717Y11661952D01*
X4533900Y11662867D01*
X4520082Y11661952D01*
X4506518Y11659260D01*
X4493412Y11654840D01*
X4480966Y11648694D01*
X4469434Y11641023D01*
X4459020Y11631879D01*
X4449927Y11621465D01*
X4442206Y11609933D01*
X4436059Y11597538D01*
X4431639Y11584381D01*
X4428947Y11570817D01*
X4428032Y11557000D01*
X4428947Y11543182D01*
X4431639Y11529568D01*
X4436059Y11516461D01*
X4442206Y11504066D01*
X4449927Y11492534D01*
X4459020Y11482120D01*
X4469434Y11472976D01*
X4480966Y11465306D01*
X4493412Y11459159D01*
X4506518Y11454739D01*
X4520082Y11451996D01*
X4533900Y11451132D01*
X4547717Y11451996D01*
X4561332Y11454739D01*
X4568037Y11456974D01*
X4571746Y11457533D01*
X4575403Y11456670D01*
X4578502Y11454536D01*
X4855870Y11177219D01*
X4862423Y11171783D01*
X4869484Y11168024D01*
X4877155Y11165687D01*
X4885639Y11164874D01*
X5323840Y11164874D01*
X5327751Y11164062D01*
X5331002Y11161877D01*
X5333238Y11158575D01*
X5334000Y11154714D01*
X5334000Y9129522D01*
X5333034Y9125204D01*
X5330291Y9121698D01*
X5326329Y9119666D01*
X5321858Y9119565D01*
X5309717Y9122003D01*
X5295900Y9122867D01*
X5282082Y9122003D01*
X5268518Y9119260D01*
X5255361Y9114840D01*
X5242966Y9108694D01*
X5231434Y9101023D01*
X5221020Y9091879D01*
X5211876Y9081465D01*
X5204206Y9069933D01*
X5198059Y9057538D01*
X5193639Y9044432D01*
X5190947Y9030817D01*
X5190032Y9017000D01*
X5190947Y9003182D01*
X5193639Y8989618D01*
X5198059Y8976461D01*
X5204206Y8964066D01*
X5209032Y8956802D01*
X5210606Y8952788D01*
X5210352Y8948420D01*
X5208320Y8944559D01*
X5204866Y8941968D01*
X5200599Y8941003D01*
X5137200Y8941003D01*
X5132984Y8941968D01*
X5129479Y8944559D01*
X5127447Y8948420D01*
X5127193Y8952788D01*
X5128768Y8956802D01*
X5133594Y8964066D01*
X5139740Y8976461D01*
X5144160Y8989618D01*
X5146903Y9003182D01*
X5147767Y9017000D01*
X5146903Y9030817D01*
X5144160Y9044432D01*
X5139740Y9057538D01*
X5133594Y9069933D01*
X5125923Y9081465D01*
X5116779Y9091879D01*
X5106365Y9101023D01*
X5094833Y9108694D01*
X5082438Y9114840D01*
X5069332Y9119260D01*
X5055717Y9122003D01*
X5041900Y9122867D01*
X5028082Y9122003D01*
X5014518Y9119260D01*
X5001361Y9114840D01*
X4988966Y9108694D01*
X4977434Y9101023D01*
X4967020Y9091879D01*
X4957876Y9081465D01*
X4950206Y9069933D01*
X4944059Y9057538D01*
X4939639Y9044432D01*
X4936947Y9030817D01*
X4936032Y9017000D01*
X4936947Y9003182D01*
X4939639Y8989618D01*
X4944059Y8976461D01*
X4950206Y8964066D01*
X4955032Y8956802D01*
X4956606Y8952788D01*
X4956352Y8948420D01*
X4954320Y8944559D01*
X4950866Y8941968D01*
X4946599Y8941003D01*
X4883200Y8941003D01*
X4878984Y8941968D01*
X4875479Y8944559D01*
X4873447Y8948420D01*
X4873193Y8952788D01*
X4874768Y8956802D01*
X4879594Y8964066D01*
X4885740Y8976461D01*
X4890160Y8989618D01*
X4892903Y9003182D01*
X4893767Y9017000D01*
X4892903Y9030817D01*
X4890160Y9044432D01*
X4885740Y9057538D01*
X4879594Y9069933D01*
X4871923Y9081465D01*
X4862779Y9091879D01*
X4852365Y9101023D01*
X4840833Y9108694D01*
X4828438Y9114840D01*
X4815332Y9119260D01*
X4801717Y9122003D01*
X4787900Y9122867D01*
X4774082Y9122003D01*
X4760518Y9119260D01*
X4747361Y9114840D01*
X4734966Y9108694D01*
X4723434Y9101023D01*
X4713020Y9091879D01*
X4703876Y9081465D01*
X4696206Y9069933D01*
X4690059Y9057538D01*
X4685639Y9044432D01*
X4682947Y9030817D01*
X4682032Y9017000D01*
X4682947Y9003182D01*
X4685639Y8989618D01*
X4690059Y8976461D01*
X4696206Y8964066D01*
X4701032Y8956802D01*
X4702606Y8952788D01*
X4702352Y8948420D01*
X4700320Y8944559D01*
X4696866Y8941968D01*
X4692599Y8941003D01*
X4629200Y8941003D01*
X4624984Y8941968D01*
X4621479Y8944559D01*
X4619447Y8948420D01*
X4619193Y8952788D01*
X4620768Y8956802D01*
X4625594Y8964066D01*
X4631740Y8976461D01*
X4636211Y8989618D01*
X4638903Y9003182D01*
X4639818Y9017000D01*
X4638903Y9030817D01*
X4636211Y9044432D01*
X4631740Y9057538D01*
X4625594Y9069933D01*
X4617923Y9081465D01*
X4608779Y9091879D01*
X4598365Y9101023D01*
X4586833Y9108694D01*
X4574438Y9114840D01*
X4561332Y9119260D01*
X4547717Y9122003D01*
X4533900Y9122867D01*
X4520082Y9122003D01*
X4506518Y9119260D01*
X4493412Y9114840D01*
X4480966Y9108694D01*
X4469434Y9101023D01*
X4459020Y9091879D01*
X4449927Y9081465D01*
X4442206Y9069933D01*
X4436059Y9057538D01*
X4431639Y9044432D01*
X4428947Y9030817D01*
X4428032Y9017000D01*
X4428947Y9003182D01*
X4431639Y8989618D01*
X4436059Y8976461D01*
X4442206Y8964066D01*
X4447032Y8956802D01*
X4448657Y8952788D01*
X4448403Y8948420D01*
X4446320Y8944559D01*
X4442866Y8941968D01*
X4438599Y8941003D01*
X4375200Y8941003D01*
X4370984Y8941968D01*
X4367479Y8944559D01*
X4365447Y8948420D01*
X4365193Y8952788D01*
X4366768Y8956802D01*
X4371594Y8964066D01*
X4377740Y8976461D01*
X4382211Y8989618D01*
X4384903Y9003182D01*
X4385818Y9017000D01*
X4384903Y9030817D01*
X4382211Y9044432D01*
X4377740Y9057538D01*
X4371594Y9069933D01*
X4363923Y9081465D01*
X4354779Y9091879D01*
X4344365Y9101023D01*
X4332833Y9108694D01*
X4320438Y9114840D01*
X4307332Y9119260D01*
X4293717Y9122003D01*
X4279900Y9122867D01*
X4266082Y9122003D01*
X4252518Y9119260D01*
X4239412Y9114840D01*
X4226966Y9108694D01*
X4215434Y9101023D01*
X4205020Y9091879D01*
X4195927Y9081465D01*
X4188206Y9069933D01*
X4182059Y9057538D01*
X4177639Y9044432D01*
X4174947Y9030817D01*
X4174032Y9017000D01*
X4174947Y9003182D01*
X4177639Y8989618D01*
X4182059Y8976461D01*
X4188206Y8964066D01*
X4193032Y8956802D01*
X4194657Y8952788D01*
X4194403Y8948420D01*
X4192320Y8944559D01*
X4188866Y8941968D01*
X4184599Y8941003D01*
X4121200Y8941003D01*
X4116984Y8941968D01*
X4113479Y8944559D01*
X4111447Y8948420D01*
X4111193Y8952788D01*
X4112768Y8956802D01*
X4117594Y8964066D01*
X4123740Y8976461D01*
X4128211Y8989618D01*
X4130903Y9003182D01*
X4131818Y9017000D01*
X4130903Y9030817D01*
X4128211Y9044432D01*
X4123740Y9057538D01*
X4117594Y9069933D01*
X4109923Y9081465D01*
X4100779Y9091879D01*
X4090365Y9101023D01*
X4078833Y9108694D01*
X4066438Y9114840D01*
X4053332Y9119260D01*
X4039717Y9122003D01*
X4025900Y9122867D01*
X4012082Y9122003D01*
X3998518Y9119260D01*
X3985412Y9114840D01*
X3972966Y9108694D01*
X3961434Y9101023D01*
X3951020Y9091879D01*
X3941927Y9081465D01*
X3934206Y9069933D01*
X3928059Y9057538D01*
X3923639Y9044432D01*
X3920947Y9030817D01*
X3920032Y9017000D01*
X3920947Y9003182D01*
X3923639Y8989618D01*
X3928059Y8976461D01*
X3934206Y8964066D01*
X3939032Y8956802D01*
X3940657Y8952788D01*
X3940403Y8948420D01*
X3938320Y8944559D01*
X3934866Y8941968D01*
X3930599Y8941003D01*
X3867200Y8941003D01*
X3862984Y8941968D01*
X3859479Y8944559D01*
X3857447Y8948420D01*
X3857193Y8952788D01*
X3858768Y8956802D01*
X3863594Y8964066D01*
X3869740Y8976461D01*
X3874211Y8989618D01*
X3876903Y9003182D01*
X3877818Y9017000D01*
X3876903Y9030817D01*
X3874211Y9044432D01*
X3869740Y9057538D01*
X3863594Y9069933D01*
X3855923Y9081465D01*
X3846779Y9091879D01*
X3836365Y9101023D01*
X3824833Y9108694D01*
X3812438Y9114840D01*
X3799332Y9119260D01*
X3785717Y9122003D01*
X3771900Y9122867D01*
X3758082Y9122003D01*
X3744518Y9119260D01*
X3731412Y9114840D01*
X3718966Y9108694D01*
X3707434Y9101023D01*
X3697020Y9091879D01*
X3687927Y9081465D01*
X3680206Y9069933D01*
X3674059Y9057538D01*
X3669639Y9044432D01*
X3666947Y9030817D01*
X3666032Y9017000D01*
X3666947Y9003182D01*
X3669639Y8989618D01*
X3674059Y8976461D01*
X3680206Y8964066D01*
X3685032Y8956802D01*
X3686657Y8952788D01*
X3686403Y8948420D01*
X3684320Y8944559D01*
X3680866Y8941968D01*
X3676599Y8941003D01*
X3613200Y8941003D01*
X3608984Y8941968D01*
X3605479Y8944559D01*
X3603447Y8948420D01*
X3603193Y8952788D01*
X3604768Y8956802D01*
X3609594Y8964066D01*
X3615740Y8976461D01*
X3620211Y8989618D01*
X3622903Y9003182D01*
X3623818Y9017000D01*
X3622903Y9030817D01*
X3620211Y9044432D01*
X3615740Y9057538D01*
X3609594Y9069933D01*
X3601923Y9081465D01*
X3592779Y9091879D01*
X3582365Y9101023D01*
X3570833Y9108694D01*
X3558438Y9114840D01*
X3545332Y9119260D01*
X3531717Y9122003D01*
X3517900Y9122867D01*
X3504082Y9122003D01*
X3490518Y9119260D01*
X3477412Y9114840D01*
X3464966Y9108694D01*
X3453434Y9101023D01*
X3443020Y9091879D01*
X3433927Y9081465D01*
X3426206Y9069933D01*
X3420059Y9057538D01*
X3415639Y9044432D01*
X3412947Y9030817D01*
X3412032Y9017000D01*
X3412947Y9003182D01*
X3415639Y8989618D01*
X3420059Y8976461D01*
X3426206Y8964066D01*
X3431032Y8956802D01*
X3432657Y8952788D01*
X3432403Y8948420D01*
X3430320Y8944559D01*
X3426866Y8941968D01*
X3422599Y8941003D01*
X3359200Y8941003D01*
X3354984Y8941968D01*
X3351479Y8944559D01*
X3349447Y8948420D01*
X3349193Y8952788D01*
X3350768Y8956802D01*
X3355594Y8964066D01*
X3361740Y8976461D01*
X3366211Y8989618D01*
X3368903Y9003182D01*
X3369818Y9017000D01*
X3368903Y9030817D01*
X3366211Y9044432D01*
X3361740Y9057538D01*
X3355594Y9069933D01*
X3347923Y9081465D01*
X3338779Y9091879D01*
X3328365Y9101023D01*
X3316833Y9108694D01*
X3304438Y9114840D01*
X3291332Y9119260D01*
X3277717Y9122003D01*
X3263900Y9122867D01*
X3250082Y9122003D01*
X3236518Y9119260D01*
X3223412Y9114840D01*
X3210966Y9108694D01*
X3199434Y9101023D01*
X3189020Y9091879D01*
X3179927Y9081465D01*
X3172206Y9069933D01*
X3166110Y9057538D01*
X3161639Y9044432D01*
X3158947Y9030817D01*
X3158032Y9017000D01*
X3158947Y9003182D01*
X3161639Y8989618D01*
X3166110Y8976461D01*
X3172206Y8964066D01*
X3177032Y8956802D01*
X3178657Y8952788D01*
X3178403Y8948420D01*
X3176320Y8944559D01*
X3172866Y8941968D01*
X3168599Y8941003D01*
X3105200Y8941003D01*
X3100984Y8941968D01*
X3097479Y8944559D01*
X3095447Y8948420D01*
X3095193Y8952788D01*
X3096768Y8956802D01*
X3101594Y8964066D01*
X3107740Y8976461D01*
X3112211Y8989618D01*
X3114903Y9003182D01*
X3115818Y9017000D01*
X3114903Y9030817D01*
X3112211Y9044432D01*
X3107740Y9057538D01*
X3101594Y9069933D01*
X3093923Y9081465D01*
X3084779Y9091879D01*
X3074365Y9101023D01*
X3062833Y9108694D01*
X3050438Y9114840D01*
X3037332Y9119260D01*
X3023717Y9122003D01*
X3009900Y9122867D01*
X2996082Y9122003D01*
X2982518Y9119260D01*
X2969412Y9114840D01*
X2956966Y9108694D01*
X2945434Y9101023D01*
X2935020Y9091879D01*
X2925927Y9081465D01*
X2918206Y9069933D01*
X2912110Y9057538D01*
X2907639Y9044432D01*
X2904947Y9030817D01*
X2904032Y9017000D01*
X2904947Y9003182D01*
X2907639Y8989618D01*
X2912110Y8976461D01*
X2918206Y8964066D01*
X2923032Y8956802D01*
X2924657Y8952788D01*
X2924403Y8948420D01*
X2922320Y8944559D01*
X2918866Y8941968D01*
X2914599Y8941003D01*
X2893923Y8941003D01*
X2890062Y8941765D01*
X2886760Y8944000D01*
X2858363Y8972397D01*
X2856230Y8975496D01*
X2855366Y8979154D01*
X2855925Y8982862D01*
X2858211Y8989618D01*
X2860903Y9003182D01*
X2861818Y9017000D01*
X2860903Y9030817D01*
X2858211Y9044432D01*
X2853740Y9057538D01*
X2847594Y9069933D01*
X2839923Y9081465D01*
X2830779Y9091879D01*
X2820365Y9101023D01*
X2808833Y9108694D01*
X2796438Y9114840D01*
X2783332Y9119260D01*
X2769717Y9122003D01*
X2755900Y9122867D01*
X2742082Y9122003D01*
X2728518Y9119260D01*
X2715412Y9114840D01*
X2702966Y9108694D01*
X2691434Y9101023D01*
X2681020Y9091879D01*
X2671927Y9081465D01*
X2664206Y9069933D01*
X2658110Y9057538D01*
X2653639Y9044432D01*
X2650947Y9030817D01*
X2650032Y9017000D01*
X2650947Y9003182D01*
X2653639Y8989618D01*
X2658110Y8976461D01*
X2664206Y8964066D01*
X2671927Y8952534D01*
X2681020Y8942120D01*
X2691434Y8932976D01*
X2702966Y8925306D01*
X2715412Y8919159D01*
X2728518Y8914739D01*
X2742082Y8912047D01*
X2755900Y8911132D01*
X2769717Y8912047D01*
X2783332Y8914739D01*
X2790037Y8917025D01*
X2793746Y8917533D01*
X2797403Y8916670D01*
X2800502Y8914587D01*
X2843530Y8871559D01*
X2850083Y8866124D01*
X2857144Y8862364D01*
X2864815Y8860028D01*
X2873298Y8859215D01*
X5323840Y8859215D01*
X5327751Y8858402D01*
X5331002Y8856218D01*
X5333238Y8852916D01*
X5334000Y8849055D01*
X5334000Y8807653D01*
X5333238Y8803741D01*
X5331002Y8800439D01*
X5327751Y8798255D01*
X5323840Y8797493D01*
X2783484Y8797493D01*
X2779572Y8798255D01*
X2776270Y8800439D01*
X2604363Y8972397D01*
X2602230Y8975496D01*
X2601366Y8979154D01*
X2601925Y8982862D01*
X2604211Y8989618D01*
X2606903Y9003182D01*
X2607818Y9017000D01*
X2606903Y9030817D01*
X2604211Y9044432D01*
X2599740Y9057538D01*
X2593594Y9069933D01*
X2585923Y9081465D01*
X2576779Y9091879D01*
X2566365Y9101023D01*
X2554833Y9108694D01*
X2542438Y9114840D01*
X2529332Y9119260D01*
X2515717Y9122003D01*
X2501900Y9122867D01*
X2488082Y9122003D01*
X2474518Y9119260D01*
X2461412Y9114840D01*
X2448966Y9108694D01*
X2437434Y9101023D01*
X2427020Y9091879D01*
X2422855Y9087104D01*
X2419350Y9084513D01*
X2415032Y9083649D01*
X2410764Y9084665D01*
X2407361Y9087358D01*
X2403449Y9092082D01*
X2336393Y9159138D01*
X2329840Y9164523D01*
X2322779Y9168333D01*
X2315108Y9170619D01*
X2306624Y9171482D01*
X1853996Y9171482D01*
X1845513Y9170619D01*
X1837842Y9168333D01*
X1830781Y9164523D01*
X1824228Y9159138D01*
X1781505Y9116415D01*
X1778507Y9114332D01*
X1774952Y9113469D01*
X1771294Y9113926D01*
X1763572Y9116314D01*
X1750110Y9118600D01*
X1736496Y9119057D01*
X1722932Y9117685D01*
X1709674Y9114485D01*
X1696923Y9109608D01*
X1684985Y9103055D01*
X1674012Y9094978D01*
X1664207Y9085478D01*
X1655724Y9074759D01*
X1648815Y9063024D01*
X1643481Y9050477D01*
X1639874Y9037320D01*
X1638046Y9023807D01*
X1638046Y9010192D01*
X1639874Y8996680D01*
X1643481Y8983522D01*
X1648815Y8970975D01*
X1655724Y8959240D01*
X1664207Y8948521D01*
X1674012Y8939022D01*
X1684985Y8930944D01*
X1696923Y8924391D01*
X1709674Y8919514D01*
X1722932Y8916365D01*
X1736496Y8914993D01*
X1750110Y8915450D01*
X1763572Y8917686D01*
X1776577Y8921750D01*
X1788972Y8927490D01*
X1800453Y8934805D01*
X1810867Y8943644D01*
X1820011Y8953754D01*
X1827733Y8964980D01*
X1833880Y8977172D01*
X1838350Y8990025D01*
X1841093Y9003385D01*
X1842007Y9017000D01*
X1841093Y9030614D01*
X1838350Y9043974D01*
X1836928Y9048089D01*
X1836369Y9051798D01*
X1837232Y9055455D01*
X1839366Y9058605D01*
X1867458Y9086697D01*
X1870760Y9088882D01*
X1874621Y9089644D01*
X1896364Y9089644D01*
X1900631Y9088729D01*
X1904085Y9086088D01*
X1906168Y9082278D01*
X1906422Y9077909D01*
X1904847Y9073845D01*
X1902206Y9069933D01*
X1896110Y9057538D01*
X1891639Y9044432D01*
X1888947Y9030817D01*
X1888032Y9017000D01*
X1888947Y9003182D01*
X1891639Y8989618D01*
X1896110Y8976461D01*
X1902206Y8964066D01*
X1909927Y8952534D01*
X1919071Y8942120D01*
X1929485Y8932976D01*
X1940966Y8925306D01*
X1953412Y8919159D01*
X1966518Y8914739D01*
X1980082Y8912047D01*
X1993900Y8911132D01*
X2007717Y8912047D01*
X2021332Y8914739D01*
X2034438Y8919159D01*
X2046884Y8925306D01*
X2058365Y8932976D01*
X2068779Y8942120D01*
X2077923Y8952534D01*
X2085644Y8964066D01*
X2091740Y8976461D01*
X2096211Y8989618D01*
X2098903Y9003182D01*
X2099818Y9017000D01*
X2098903Y9030817D01*
X2096211Y9044432D01*
X2091740Y9057538D01*
X2085644Y9069933D01*
X2083003Y9073845D01*
X2081428Y9077909D01*
X2081682Y9082278D01*
X2083714Y9086088D01*
X2087219Y9088729D01*
X2091436Y9089644D01*
X2150364Y9089644D01*
X2154631Y9088729D01*
X2158085Y9086088D01*
X2160168Y9082278D01*
X2160422Y9077909D01*
X2158847Y9073845D01*
X2156206Y9069933D01*
X2150110Y9057538D01*
X2145639Y9044432D01*
X2142947Y9030817D01*
X2142032Y9017000D01*
X2142947Y9003182D01*
X2145639Y8989618D01*
X2150110Y8976461D01*
X2156206Y8964066D01*
X2163927Y8952534D01*
X2173020Y8942120D01*
X2183434Y8932976D01*
X2194966Y8925306D01*
X2207412Y8919159D01*
X2220518Y8914739D01*
X2234082Y8912047D01*
X2247900Y8911132D01*
X2261717Y8912047D01*
X2275332Y8914739D01*
X2282037Y8917025D01*
X2285746Y8917533D01*
X2289403Y8916670D01*
X2292502Y8914587D01*
X3643985Y7563103D01*
X3650538Y7557668D01*
X3657600Y7553909D01*
X3665270Y7551572D01*
G37*
G36*
X7939278Y7646111D02*
G01*
X8088122Y7646111D01*
X8094472Y7646822D01*
X8099907Y7648702D01*
X8104835Y7651800D01*
X8108899Y7655864D01*
X8111998Y7660792D01*
X8113877Y7666228D01*
X8114588Y7672578D01*
X8114588Y7821422D01*
X8113877Y7827772D01*
X8111998Y7833207D01*
X8108899Y7838135D01*
X8104835Y7842199D01*
X8099907Y7845298D01*
X8094472Y7847177D01*
X8088122Y7847888D01*
X7939278Y7847888D01*
X7932928Y7847177D01*
X7927492Y7845298D01*
X7922564Y7842199D01*
X7918500Y7838135D01*
X7915402Y7833207D01*
X7913522Y7827772D01*
X7912811Y7821422D01*
X7912811Y7672578D01*
X7913522Y7666228D01*
X7915402Y7660792D01*
X7918500Y7655864D01*
X7922564Y7651800D01*
X7927492Y7648702D01*
X7932928Y7646822D01*
G37*
G36*
X7763052Y7646162D02*
G01*
X7776464Y7647533D01*
X7789570Y7650632D01*
X7802168Y7655509D01*
X7814005Y7661960D01*
X7824825Y7669936D01*
X7834528Y7679334D01*
X7842859Y7689900D01*
X7849717Y7701483D01*
X7855000Y7713929D01*
X7858556Y7726883D01*
X7860334Y7740243D01*
X7860334Y7753756D01*
X7858556Y7767116D01*
X7855000Y7780070D01*
X7849717Y7792516D01*
X7842859Y7804099D01*
X7834528Y7814665D01*
X7824825Y7824063D01*
X7814005Y7832039D01*
X7802168Y7838490D01*
X7789570Y7843367D01*
X7776464Y7846466D01*
X7763052Y7847838D01*
X7749590Y7847380D01*
X7736331Y7845145D01*
X7723428Y7841132D01*
X7711236Y7835493D01*
X7699857Y7828229D01*
X7689545Y7819542D01*
X7680502Y7809534D01*
X7672882Y7798409D01*
X7666837Y7786370D01*
X7662418Y7773670D01*
X7659725Y7760462D01*
X7658811Y7747000D01*
X7659725Y7733538D01*
X7662418Y7720330D01*
X7666837Y7707630D01*
X7672882Y7695590D01*
X7680502Y7684465D01*
X7689545Y7674457D01*
X7699857Y7665770D01*
X7711236Y7658506D01*
X7723428Y7652867D01*
X7736331Y7648854D01*
X7749590Y7646619D01*
G37*
G36*
X7509052Y7646162D02*
G01*
X7522464Y7647533D01*
X7535570Y7650632D01*
X7548168Y7655509D01*
X7560005Y7661960D01*
X7570825Y7669936D01*
X7580528Y7679334D01*
X7588859Y7689900D01*
X7595717Y7701483D01*
X7601000Y7713929D01*
X7604556Y7726883D01*
X7606334Y7740243D01*
X7606334Y7753756D01*
X7604556Y7767116D01*
X7601000Y7780070D01*
X7595717Y7792516D01*
X7588859Y7804099D01*
X7580528Y7814665D01*
X7570825Y7824063D01*
X7560005Y7832039D01*
X7548168Y7838490D01*
X7535570Y7843367D01*
X7522464Y7846466D01*
X7509052Y7847838D01*
X7495590Y7847380D01*
X7482331Y7845145D01*
X7469428Y7841132D01*
X7457236Y7835493D01*
X7445857Y7828229D01*
X7435545Y7819542D01*
X7426502Y7809534D01*
X7418882Y7798409D01*
X7412837Y7786370D01*
X7408418Y7773670D01*
X7405725Y7760462D01*
X7404811Y7747000D01*
X7405725Y7733538D01*
X7408418Y7720330D01*
X7412837Y7707630D01*
X7418882Y7695590D01*
X7426502Y7684465D01*
X7435545Y7674457D01*
X7445857Y7665770D01*
X7457236Y7658506D01*
X7469428Y7652867D01*
X7482331Y7648854D01*
X7495590Y7646619D01*
G37*
G36*
X1482496Y8914993D02*
G01*
X1496110Y8915450D01*
X1509572Y8917686D01*
X1522577Y8921750D01*
X1534972Y8927490D01*
X1546453Y8934805D01*
X1556867Y8943644D01*
X1566011Y8953754D01*
X1573733Y8964980D01*
X1579880Y8977172D01*
X1584350Y8990025D01*
X1587093Y9003385D01*
X1588008Y9017000D01*
X1587093Y9030614D01*
X1584350Y9043974D01*
X1579880Y9056878D01*
X1573733Y9069019D01*
X1566011Y9080296D01*
X1556867Y9090406D01*
X1546453Y9099194D01*
X1534972Y9106509D01*
X1522577Y9112250D01*
X1509572Y9116314D01*
X1496110Y9118600D01*
X1482496Y9119057D01*
X1468932Y9117685D01*
X1455674Y9114485D01*
X1442923Y9109608D01*
X1430985Y9103055D01*
X1420012Y9094978D01*
X1410208Y9085478D01*
X1401724Y9074759D01*
X1394815Y9063024D01*
X1389481Y9050477D01*
X1385874Y9037320D01*
X1384046Y9023807D01*
X1384046Y9010192D01*
X1385874Y8996680D01*
X1389481Y8983522D01*
X1394815Y8970975D01*
X1401724Y8959240D01*
X1410208Y8948521D01*
X1420012Y8939022D01*
X1430985Y8930944D01*
X1442923Y8924391D01*
X1455674Y8919514D01*
X1468932Y8916365D01*
G37*
G36*
X1187450Y8925204D02*
G01*
X1187450Y8972550D01*
X1140104Y8972550D01*
X1140815Y8970975D01*
X1147724Y8959240D01*
X1156208Y8948521D01*
X1166012Y8939022D01*
X1176985Y8930944D01*
G37*
G36*
X1276350Y8925356D02*
G01*
X1280972Y8927490D01*
X1292453Y8934805D01*
X1302867Y8943644D01*
X1312011Y8953754D01*
X1319733Y8964980D01*
X1323594Y8972550D01*
X1276350Y8972550D01*
G37*
G36*
X1276350Y9061450D02*
G01*
X1323594Y9061450D01*
X1319733Y9069019D01*
X1312011Y9080296D01*
X1302867Y9090406D01*
X1292453Y9099194D01*
X1280972Y9106509D01*
X1276350Y9108643D01*
G37*
G36*
X1140104Y9061450D02*
G01*
X1187450Y9061450D01*
X1187450Y9108795D01*
X1176985Y9103055D01*
X1166012Y9094978D01*
X1156208Y9085478D01*
X1147724Y9074759D01*
X1140815Y9063024D01*
G37*
G36*
X11172596Y9944455D02*
G01*
X11186160Y9944912D01*
X11199469Y9947198D01*
X11212423Y9951161D01*
X11224666Y9956901D01*
X11236096Y9964166D01*
X11246408Y9972903D01*
X11255502Y9982911D01*
X11263122Y9994087D01*
X11269268Y10006177D01*
X11273688Y10018928D01*
X11276380Y10032187D01*
X11277295Y10045700D01*
X11276380Y10059212D01*
X11273688Y10072471D01*
X11269268Y10085222D01*
X11263122Y10097312D01*
X11255502Y10108488D01*
X11246408Y10118496D01*
X11236096Y10127234D01*
X11224666Y10134498D01*
X11212423Y10140238D01*
X11199469Y10144201D01*
X11186160Y10146487D01*
X11172596Y10146944D01*
X11159134Y10145572D01*
X11145977Y10142423D01*
X11133378Y10137597D01*
X11121491Y10131094D01*
X11110620Y10123068D01*
X11100866Y10113619D01*
X11092484Y10103002D01*
X11085576Y10091369D01*
X11080343Y10078923D01*
X11076736Y10065867D01*
X11074958Y10052456D01*
X11074958Y10038943D01*
X11076736Y10025532D01*
X11080343Y10012476D01*
X11085576Y10000030D01*
X11092484Y9988397D01*
X11100866Y9977780D01*
X11110620Y9968331D01*
X11121491Y9960305D01*
X11133378Y9953802D01*
X11145977Y9948976D01*
X11159134Y9945827D01*
G37*
G36*
X11426596Y9944455D02*
G01*
X11440160Y9944912D01*
X11453469Y9947198D01*
X11466423Y9951161D01*
X11478666Y9956901D01*
X11490096Y9964166D01*
X11500408Y9972903D01*
X11509502Y9982911D01*
X11517122Y9994087D01*
X11523268Y10006177D01*
X11527688Y10018928D01*
X11530380Y10032187D01*
X11531295Y10045700D01*
X11530380Y10059212D01*
X11527688Y10072471D01*
X11523268Y10085222D01*
X11517122Y10097312D01*
X11509502Y10108488D01*
X11500408Y10118496D01*
X11490096Y10127234D01*
X11478666Y10134498D01*
X11466423Y10140238D01*
X11453469Y10144201D01*
X11440160Y10146487D01*
X11426596Y10146944D01*
X11413134Y10145572D01*
X11399977Y10142423D01*
X11387378Y10137597D01*
X11375491Y10131094D01*
X11364620Y10123068D01*
X11354866Y10113619D01*
X11346484Y10103002D01*
X11339576Y10091369D01*
X11334343Y10078923D01*
X11330736Y10065867D01*
X11328958Y10052456D01*
X11328958Y10038943D01*
X11330736Y10025532D01*
X11334343Y10012476D01*
X11339576Y10000030D01*
X11346484Y9988397D01*
X11354866Y9977780D01*
X11364620Y9968331D01*
X11375491Y9960305D01*
X11387378Y9953802D01*
X11399977Y9948976D01*
X11413134Y9945827D01*
G37*
G36*
X10805515Y11020907D02*
G01*
X10820044Y11020907D01*
X10834522Y11022736D01*
X10848594Y11026394D01*
X10862157Y11031728D01*
X10874908Y11038738D01*
X10886694Y11047323D01*
X10897311Y11057280D01*
X10906556Y11068507D01*
X10914380Y11080800D01*
X10920577Y11093958D01*
X10925048Y11107775D01*
X10927283Y11119307D01*
X10928756Y11122964D01*
X10931550Y11125809D01*
X10935258Y11127333D01*
X10939221Y11127333D01*
X10942929Y11125809D01*
X10945723Y11122964D01*
X10947196Y11119307D01*
X10949432Y11107775D01*
X10953902Y11093958D01*
X10960100Y11080800D01*
X10967923Y11068507D01*
X10977168Y11057280D01*
X10987786Y11047323D01*
X10999571Y11038738D01*
X11012322Y11031728D01*
X11025886Y11026394D01*
X11039957Y11022736D01*
X11054435Y11020907D01*
X11068964Y11020907D01*
X11083442Y11022736D01*
X11097514Y11026394D01*
X11111077Y11031728D01*
X11123828Y11038738D01*
X11135614Y11047323D01*
X11146231Y11057280D01*
X11155476Y11068507D01*
X11163300Y11080800D01*
X11169497Y11093958D01*
X11173968Y11107775D01*
X11176203Y11119307D01*
X11177676Y11122964D01*
X11180470Y11125809D01*
X11184178Y11127333D01*
X11188141Y11127333D01*
X11191849Y11125809D01*
X11194643Y11122964D01*
X11196116Y11119307D01*
X11198352Y11107775D01*
X11202822Y11093958D01*
X11209020Y11080800D01*
X11216843Y11068507D01*
X11226088Y11057280D01*
X11236706Y11047323D01*
X11248491Y11038738D01*
X11261242Y11031728D01*
X11274806Y11026394D01*
X11288877Y11022736D01*
X11303355Y11020907D01*
X11317884Y11020907D01*
X11332362Y11022736D01*
X11346434Y11026394D01*
X11359997Y11031728D01*
X11372748Y11038738D01*
X11384534Y11047323D01*
X11395151Y11057280D01*
X11404396Y11068507D01*
X11412220Y11080800D01*
X11418417Y11093958D01*
X11422888Y11107775D01*
X11425631Y11122101D01*
X11426545Y11136630D01*
X11425631Y11151158D01*
X11422888Y11165484D01*
X11418417Y11179302D01*
X11412220Y11192459D01*
X11404396Y11204752D01*
X11395151Y11215979D01*
X11384534Y11225936D01*
X11372748Y11234521D01*
X11359997Y11241532D01*
X11346434Y11246866D01*
X11332362Y11250523D01*
X11317884Y11252352D01*
X11303355Y11252352D01*
X11288877Y11250523D01*
X11274806Y11246866D01*
X11261242Y11241532D01*
X11248491Y11234521D01*
X11236706Y11225936D01*
X11226088Y11215979D01*
X11216843Y11204752D01*
X11209020Y11192459D01*
X11202822Y11179302D01*
X11198352Y11165484D01*
X11196116Y11153952D01*
X11194643Y11150295D01*
X11191849Y11147450D01*
X11188141Y11145926D01*
X11184178Y11145926D01*
X11180470Y11147450D01*
X11177676Y11150295D01*
X11176203Y11153952D01*
X11173968Y11165484D01*
X11169497Y11179302D01*
X11163300Y11192459D01*
X11155476Y11204752D01*
X11146231Y11215979D01*
X11135614Y11225936D01*
X11123828Y11234521D01*
X11111077Y11241532D01*
X11097514Y11246866D01*
X11083442Y11250523D01*
X11068964Y11252352D01*
X11054435Y11252352D01*
X11039957Y11250523D01*
X11025886Y11246866D01*
X11012322Y11241532D01*
X10999571Y11234521D01*
X10987786Y11225936D01*
X10977168Y11215979D01*
X10967923Y11204752D01*
X10960100Y11192459D01*
X10953902Y11179302D01*
X10949432Y11165484D01*
X10947196Y11153952D01*
X10945723Y11150295D01*
X10942929Y11147450D01*
X10939221Y11145926D01*
X10935258Y11145926D01*
X10931550Y11147450D01*
X10928756Y11150295D01*
X10927283Y11153952D01*
X10925048Y11165484D01*
X10920577Y11179302D01*
X10914380Y11192459D01*
X10906556Y11204752D01*
X10897311Y11215979D01*
X10886694Y11225936D01*
X10874908Y11234521D01*
X10862157Y11241532D01*
X10848594Y11246866D01*
X10834522Y11250523D01*
X10820044Y11252352D01*
X10805515Y11252352D01*
X10791037Y11250523D01*
X10776966Y11246866D01*
X10763402Y11241532D01*
X10750651Y11234521D01*
X10738866Y11225936D01*
X10728248Y11215979D01*
X10719003Y11204752D01*
X10711180Y11192459D01*
X10704982Y11179302D01*
X10700512Y11165484D01*
X10697768Y11151158D01*
X10696854Y11136630D01*
X10697768Y11122101D01*
X10700512Y11107775D01*
X10704982Y11093958D01*
X10711180Y11080800D01*
X10719003Y11068507D01*
X10728248Y11057280D01*
X10738866Y11047323D01*
X10750651Y11038738D01*
X10763402Y11031728D01*
X10776966Y11026394D01*
X10791037Y11022736D01*
G37*
G36*
X1993900Y11451132D02*
G01*
X2007717Y11451996D01*
X2021332Y11454739D01*
X2034438Y11459159D01*
X2046884Y11465306D01*
X2058365Y11472976D01*
X2068779Y11482120D01*
X2077923Y11492534D01*
X2085644Y11504066D01*
X2091740Y11516461D01*
X2096211Y11529568D01*
X2098903Y11543182D01*
X2099818Y11557000D01*
X2098903Y11570817D01*
X2096211Y11584381D01*
X2091740Y11597538D01*
X2085644Y11609933D01*
X2077923Y11621465D01*
X2068779Y11631879D01*
X2058365Y11641023D01*
X2046884Y11648694D01*
X2034438Y11654840D01*
X2021332Y11659260D01*
X2007717Y11661952D01*
X1993900Y11662867D01*
X1980082Y11661952D01*
X1966518Y11659260D01*
X1953412Y11654840D01*
X1940966Y11648694D01*
X1929485Y11641023D01*
X1919071Y11631879D01*
X1909927Y11621465D01*
X1902206Y11609933D01*
X1896110Y11597538D01*
X1891639Y11584381D01*
X1888947Y11570817D01*
X1888032Y11557000D01*
X1888947Y11543182D01*
X1891639Y11529568D01*
X1896110Y11516461D01*
X1902206Y11504066D01*
X1909927Y11492534D01*
X1919071Y11482120D01*
X1929485Y11472976D01*
X1940966Y11465306D01*
X1953412Y11459159D01*
X1966518Y11454739D01*
X1980082Y11451996D01*
G37*
G36*
X4025900Y11451132D02*
G01*
X4039717Y11451996D01*
X4053332Y11454739D01*
X4066438Y11459159D01*
X4078833Y11465306D01*
X4090365Y11472976D01*
X4100779Y11482120D01*
X4109923Y11492534D01*
X4117594Y11504066D01*
X4123740Y11516461D01*
X4128211Y11529568D01*
X4130903Y11543182D01*
X4131818Y11557000D01*
X4130903Y11570817D01*
X4128211Y11584381D01*
X4123740Y11597538D01*
X4117594Y11609933D01*
X4109923Y11621465D01*
X4100779Y11631879D01*
X4090365Y11641023D01*
X4078833Y11648694D01*
X4066438Y11654840D01*
X4053332Y11659260D01*
X4039717Y11661952D01*
X4025900Y11662867D01*
X4012082Y11661952D01*
X3998518Y11659260D01*
X3985412Y11654840D01*
X3972966Y11648694D01*
X3961434Y11641023D01*
X3951020Y11631879D01*
X3941927Y11621465D01*
X3934206Y11609933D01*
X3928059Y11597538D01*
X3923639Y11584381D01*
X3920947Y11570817D01*
X3920032Y11557000D01*
X3920947Y11543182D01*
X3923639Y11529568D01*
X3928059Y11516461D01*
X3934206Y11504066D01*
X3941927Y11492534D01*
X3951020Y11482120D01*
X3961434Y11472976D01*
X3972966Y11465306D01*
X3985412Y11459159D01*
X3998518Y11454739D01*
X4012082Y11451996D01*
G37*
G36*
X2501900Y11451132D02*
G01*
X2515717Y11451996D01*
X2529332Y11454739D01*
X2542438Y11459159D01*
X2554833Y11465306D01*
X2566365Y11472976D01*
X2576779Y11482120D01*
X2585923Y11492534D01*
X2593594Y11504066D01*
X2599740Y11516461D01*
X2604211Y11529568D01*
X2606903Y11543182D01*
X2607818Y11557000D01*
X2606903Y11570817D01*
X2604211Y11584381D01*
X2599740Y11597538D01*
X2593594Y11609933D01*
X2585923Y11621465D01*
X2576779Y11631879D01*
X2566365Y11641023D01*
X2554833Y11648694D01*
X2542438Y11654840D01*
X2529332Y11659260D01*
X2515717Y11661952D01*
X2501900Y11662867D01*
X2488082Y11661952D01*
X2474518Y11659260D01*
X2461412Y11654840D01*
X2448966Y11648694D01*
X2437434Y11641023D01*
X2427020Y11631879D01*
X2417927Y11621465D01*
X2410206Y11609933D01*
X2404110Y11597538D01*
X2399639Y11584381D01*
X2396947Y11570817D01*
X2396032Y11557000D01*
X2396947Y11543182D01*
X2399639Y11529568D01*
X2404110Y11516461D01*
X2410206Y11504066D01*
X2417927Y11492534D01*
X2427020Y11482120D01*
X2437434Y11472976D01*
X2448966Y11465306D01*
X2461412Y11459159D01*
X2474518Y11454739D01*
X2488082Y11451996D01*
G37*
G36*
X3009900Y11451132D02*
G01*
X3023717Y11451996D01*
X3037332Y11454739D01*
X3050438Y11459159D01*
X3062833Y11465306D01*
X3074365Y11472976D01*
X3084779Y11482120D01*
X3093923Y11492534D01*
X3101594Y11504066D01*
X3107740Y11516461D01*
X3112211Y11529568D01*
X3114903Y11543182D01*
X3115818Y11557000D01*
X3114903Y11570817D01*
X3112211Y11584381D01*
X3107740Y11597538D01*
X3101594Y11609933D01*
X3093923Y11621465D01*
X3084779Y11631879D01*
X3074365Y11641023D01*
X3062833Y11648694D01*
X3050438Y11654840D01*
X3037332Y11659260D01*
X3023717Y11661952D01*
X3009900Y11662867D01*
X2996082Y11661952D01*
X2982518Y11659260D01*
X2969412Y11654840D01*
X2956966Y11648694D01*
X2945434Y11641023D01*
X2935020Y11631879D01*
X2925927Y11621465D01*
X2918206Y11609933D01*
X2912110Y11597538D01*
X2907639Y11584381D01*
X2904947Y11570817D01*
X2904032Y11557000D01*
X2904947Y11543182D01*
X2907639Y11529568D01*
X2912110Y11516461D01*
X2918206Y11504066D01*
X2925927Y11492534D01*
X2935020Y11482120D01*
X2945434Y11472976D01*
X2956966Y11465306D01*
X2969412Y11459159D01*
X2982518Y11454739D01*
X2996082Y11451996D01*
G37*
G36*
X3517900Y11451132D02*
G01*
X3531717Y11451996D01*
X3545332Y11454739D01*
X3558438Y11459159D01*
X3570833Y11465306D01*
X3582365Y11472976D01*
X3592779Y11482120D01*
X3601923Y11492534D01*
X3609594Y11504066D01*
X3615740Y11516461D01*
X3620211Y11529568D01*
X3622903Y11543182D01*
X3623818Y11557000D01*
X3622903Y11570817D01*
X3620211Y11584381D01*
X3615740Y11597538D01*
X3609594Y11609933D01*
X3601923Y11621465D01*
X3592779Y11631879D01*
X3582365Y11641023D01*
X3570833Y11648694D01*
X3558438Y11654840D01*
X3545332Y11659260D01*
X3531717Y11661952D01*
X3517900Y11662867D01*
X3504082Y11661952D01*
X3490518Y11659260D01*
X3477412Y11654840D01*
X3464966Y11648694D01*
X3453434Y11641023D01*
X3443020Y11631879D01*
X3433927Y11621465D01*
X3426206Y11609933D01*
X3420059Y11597538D01*
X3415639Y11584381D01*
X3412947Y11570817D01*
X3412032Y11557000D01*
X3412947Y11543182D01*
X3415639Y11529568D01*
X3420059Y11516461D01*
X3426206Y11504066D01*
X3433927Y11492534D01*
X3443020Y11482120D01*
X3453434Y11472976D01*
X3464966Y11465306D01*
X3477412Y11459159D01*
X3490518Y11454739D01*
X3504082Y11451996D01*
G37*
G36*
X2755900Y11451132D02*
G01*
X2769717Y11451996D01*
X2783332Y11454739D01*
X2796438Y11459159D01*
X2808833Y11465306D01*
X2820365Y11472976D01*
X2830779Y11482120D01*
X2839923Y11492534D01*
X2847594Y11504066D01*
X2853740Y11516461D01*
X2858211Y11529568D01*
X2860903Y11543182D01*
X2861818Y11557000D01*
X2860903Y11570817D01*
X2858211Y11584381D01*
X2853740Y11597538D01*
X2847594Y11609933D01*
X2839923Y11621465D01*
X2830779Y11631879D01*
X2820365Y11641023D01*
X2808833Y11648694D01*
X2796438Y11654840D01*
X2783332Y11659260D01*
X2769717Y11661952D01*
X2755900Y11662867D01*
X2742082Y11661952D01*
X2728518Y11659260D01*
X2715412Y11654840D01*
X2702966Y11648694D01*
X2691434Y11641023D01*
X2681020Y11631879D01*
X2671927Y11621465D01*
X2664206Y11609933D01*
X2658110Y11597538D01*
X2653639Y11584381D01*
X2650947Y11570817D01*
X2650032Y11557000D01*
X2650947Y11543182D01*
X2653639Y11529568D01*
X2658110Y11516461D01*
X2664206Y11504066D01*
X2671927Y11492534D01*
X2681020Y11482120D01*
X2691434Y11472976D01*
X2702966Y11465306D01*
X2715412Y11459159D01*
X2728518Y11454739D01*
X2742082Y11451996D01*
G37*
G36*
X3771900Y11451132D02*
G01*
X3785717Y11451996D01*
X3799332Y11454739D01*
X3812438Y11459159D01*
X3824833Y11465306D01*
X3836365Y11472976D01*
X3846779Y11482120D01*
X3855923Y11492534D01*
X3863594Y11504066D01*
X3869740Y11516461D01*
X3874211Y11529568D01*
X3876903Y11543182D01*
X3877818Y11557000D01*
X3876903Y11570817D01*
X3874211Y11584381D01*
X3869740Y11597538D01*
X3863594Y11609933D01*
X3855923Y11621465D01*
X3846779Y11631879D01*
X3836365Y11641023D01*
X3824833Y11648694D01*
X3812438Y11654840D01*
X3799332Y11659260D01*
X3785717Y11661952D01*
X3771900Y11662867D01*
X3758082Y11661952D01*
X3744518Y11659260D01*
X3731412Y11654840D01*
X3718966Y11648694D01*
X3707434Y11641023D01*
X3697020Y11631879D01*
X3687927Y11621465D01*
X3680206Y11609933D01*
X3674059Y11597538D01*
X3669639Y11584381D01*
X3666947Y11570817D01*
X3666032Y11557000D01*
X3666947Y11543182D01*
X3669639Y11529568D01*
X3674059Y11516461D01*
X3680206Y11504066D01*
X3687927Y11492534D01*
X3697020Y11482120D01*
X3707434Y11472976D01*
X3718966Y11465306D01*
X3731412Y11459159D01*
X3744518Y11454739D01*
X3758082Y11451996D01*
G37*
G36*
X3263900Y11451132D02*
G01*
X3277717Y11451996D01*
X3291332Y11454739D01*
X3304438Y11459159D01*
X3316833Y11465306D01*
X3328365Y11472976D01*
X3338779Y11482120D01*
X3347923Y11492534D01*
X3355594Y11504066D01*
X3361740Y11516461D01*
X3366211Y11529568D01*
X3368903Y11543182D01*
X3369818Y11557000D01*
X3368903Y11570817D01*
X3366211Y11584381D01*
X3361740Y11597538D01*
X3355594Y11609933D01*
X3347923Y11621465D01*
X3338779Y11631879D01*
X3328365Y11641023D01*
X3316833Y11648694D01*
X3304438Y11654840D01*
X3291332Y11659260D01*
X3277717Y11661952D01*
X3263900Y11662867D01*
X3250082Y11661952D01*
X3236518Y11659260D01*
X3223412Y11654840D01*
X3210966Y11648694D01*
X3199434Y11641023D01*
X3189020Y11631879D01*
X3179927Y11621465D01*
X3172206Y11609933D01*
X3166110Y11597538D01*
X3161639Y11584381D01*
X3158947Y11570817D01*
X3158032Y11557000D01*
X3158947Y11543182D01*
X3161639Y11529568D01*
X3166110Y11516461D01*
X3172206Y11504066D01*
X3179927Y11492534D01*
X3189020Y11482120D01*
X3199434Y11472976D01*
X3210966Y11465306D01*
X3223412Y11459159D01*
X3236518Y11454739D01*
X3250082Y11451996D01*
G37*
G36*
X4279900Y11451132D02*
G01*
X4293717Y11451996D01*
X4307332Y11454739D01*
X4320438Y11459159D01*
X4332833Y11465306D01*
X4344365Y11472976D01*
X4354779Y11482120D01*
X4363923Y11492534D01*
X4371594Y11504066D01*
X4377740Y11516461D01*
X4382211Y11529568D01*
X4384903Y11543182D01*
X4385818Y11557000D01*
X4384903Y11570817D01*
X4382211Y11584381D01*
X4377740Y11597538D01*
X4371594Y11609933D01*
X4363923Y11621465D01*
X4354779Y11631879D01*
X4344365Y11641023D01*
X4332833Y11648694D01*
X4320438Y11654840D01*
X4307332Y11659260D01*
X4293717Y11661952D01*
X4279900Y11662867D01*
X4266082Y11661952D01*
X4252518Y11659260D01*
X4239412Y11654840D01*
X4226966Y11648694D01*
X4215434Y11641023D01*
X4205020Y11631879D01*
X4195927Y11621465D01*
X4188206Y11609933D01*
X4182059Y11597538D01*
X4177639Y11584381D01*
X4174947Y11570817D01*
X4174032Y11557000D01*
X4174947Y11543182D01*
X4177639Y11529568D01*
X4182059Y11516461D01*
X4188206Y11504066D01*
X4195927Y11492534D01*
X4205020Y11482120D01*
X4215434Y11472976D01*
X4226966Y11465306D01*
X4239412Y11459159D01*
X4252518Y11454739D01*
X4266082Y11451996D01*
G37*
G36*
X2247900Y11451132D02*
G01*
X2261717Y11451996D01*
X2275332Y11454739D01*
X2288438Y11459159D01*
X2300833Y11465306D01*
X2312365Y11472976D01*
X2322779Y11482120D01*
X2331923Y11492534D01*
X2339594Y11504066D01*
X2345740Y11516461D01*
X2350211Y11529568D01*
X2352903Y11543182D01*
X2353818Y11557000D01*
X2352903Y11570817D01*
X2350211Y11584381D01*
X2345740Y11597538D01*
X2339594Y11609933D01*
X2331923Y11621465D01*
X2322779Y11631879D01*
X2312365Y11641023D01*
X2300833Y11648694D01*
X2288438Y11654840D01*
X2275332Y11659260D01*
X2261717Y11661952D01*
X2247900Y11662867D01*
X2234082Y11661952D01*
X2220518Y11659260D01*
X2207412Y11654840D01*
X2194966Y11648694D01*
X2183434Y11641023D01*
X2173020Y11631879D01*
X2163927Y11621465D01*
X2156206Y11609933D01*
X2150110Y11597538D01*
X2145639Y11584381D01*
X2142947Y11570817D01*
X2142032Y11557000D01*
X2142947Y11543182D01*
X2145639Y11529568D01*
X2150110Y11516461D01*
X2156206Y11504066D01*
X2163927Y11492534D01*
X2173020Y11482120D01*
X2183434Y11472976D01*
X2194966Y11465306D01*
X2207412Y11459159D01*
X2220518Y11454739D01*
X2234082Y11451996D01*
G37*
G36*
X4787900Y11451132D02*
G01*
X4801717Y11451996D01*
X4815332Y11454739D01*
X4828438Y11459159D01*
X4840833Y11465306D01*
X4852365Y11472976D01*
X4862779Y11482120D01*
X4871923Y11492534D01*
X4879594Y11504066D01*
X4885740Y11516461D01*
X4890160Y11529568D01*
X4892903Y11543182D01*
X4893767Y11557000D01*
X4892903Y11570817D01*
X4890160Y11584381D01*
X4885740Y11597538D01*
X4879594Y11609933D01*
X4871923Y11621465D01*
X4862779Y11631879D01*
X4852365Y11641023D01*
X4840833Y11648694D01*
X4828438Y11654840D01*
X4815332Y11659260D01*
X4801717Y11661952D01*
X4787900Y11662867D01*
X4774082Y11661952D01*
X4760518Y11659260D01*
X4747361Y11654840D01*
X4734966Y11648694D01*
X4723434Y11641023D01*
X4713020Y11631879D01*
X4703876Y11621465D01*
X4696206Y11609933D01*
X4690059Y11597538D01*
X4685639Y11584381D01*
X4682947Y11570817D01*
X4682032Y11557000D01*
X4682947Y11543182D01*
X4685639Y11529568D01*
X4690059Y11516461D01*
X4696206Y11504066D01*
X4703876Y11492534D01*
X4713020Y11482120D01*
X4723434Y11472976D01*
X4734966Y11465306D01*
X4747361Y11459159D01*
X4760518Y11454739D01*
X4774082Y11451996D01*
G37*
G36*
X1482496Y11454993D02*
G01*
X1496110Y11455450D01*
X1509572Y11457686D01*
X1522577Y11461750D01*
X1534972Y11467490D01*
X1546453Y11474805D01*
X1556867Y11483594D01*
X1566011Y11493754D01*
X1573733Y11504980D01*
X1579880Y11517122D01*
X1584350Y11530025D01*
X1587093Y11543385D01*
X1588008Y11557000D01*
X1587093Y11570614D01*
X1584350Y11583974D01*
X1579880Y11596878D01*
X1573733Y11609019D01*
X1566011Y11620246D01*
X1556867Y11630406D01*
X1546453Y11639194D01*
X1534972Y11646509D01*
X1522577Y11652250D01*
X1509572Y11656314D01*
X1496110Y11658549D01*
X1482496Y11659006D01*
X1468932Y11657685D01*
X1455674Y11654485D01*
X1442923Y11649608D01*
X1430985Y11643055D01*
X1420012Y11634978D01*
X1410208Y11625478D01*
X1401724Y11614759D01*
X1394815Y11603024D01*
X1389481Y11590477D01*
X1385874Y11577320D01*
X1384046Y11563807D01*
X1384046Y11550192D01*
X1385874Y11536680D01*
X1389481Y11523522D01*
X1394815Y11510975D01*
X1401724Y11499240D01*
X1410208Y11488521D01*
X1420012Y11479022D01*
X1430985Y11470944D01*
X1442923Y11464391D01*
X1455674Y11459514D01*
X1468932Y11456314D01*
G37*
G36*
X1736496Y11454993D02*
G01*
X1750110Y11455450D01*
X1763572Y11457686D01*
X1776577Y11461750D01*
X1788972Y11467490D01*
X1800453Y11474805D01*
X1810867Y11483594D01*
X1820011Y11493754D01*
X1827733Y11504980D01*
X1833880Y11517122D01*
X1838350Y11530025D01*
X1841093Y11543385D01*
X1842007Y11557000D01*
X1841093Y11570614D01*
X1838350Y11583974D01*
X1833880Y11596878D01*
X1827733Y11609019D01*
X1820011Y11620246D01*
X1810867Y11630406D01*
X1800453Y11639194D01*
X1788972Y11646509D01*
X1776577Y11652250D01*
X1763572Y11656314D01*
X1750110Y11658549D01*
X1736496Y11659006D01*
X1722932Y11657685D01*
X1709674Y11654485D01*
X1696923Y11649608D01*
X1684985Y11643055D01*
X1674012Y11634978D01*
X1664207Y11625478D01*
X1655724Y11614759D01*
X1648815Y11603024D01*
X1643481Y11590477D01*
X1639874Y11577320D01*
X1638046Y11563807D01*
X1638046Y11550192D01*
X1639874Y11536680D01*
X1643481Y11523522D01*
X1648815Y11510975D01*
X1655724Y11499240D01*
X1664207Y11488521D01*
X1674012Y11479022D01*
X1684985Y11470944D01*
X1696923Y11464391D01*
X1709674Y11459514D01*
X1722932Y11456314D01*
G37*
G36*
X1228496Y11454993D02*
G01*
X1242110Y11455450D01*
X1255572Y11457686D01*
X1268577Y11461750D01*
X1280972Y11467490D01*
X1292453Y11474805D01*
X1302867Y11483594D01*
X1312011Y11493754D01*
X1319733Y11504980D01*
X1325880Y11517122D01*
X1330350Y11530025D01*
X1333093Y11543385D01*
X1334008Y11557000D01*
X1333093Y11570614D01*
X1330350Y11583974D01*
X1325880Y11596878D01*
X1319733Y11609019D01*
X1312011Y11620246D01*
X1302867Y11630406D01*
X1292453Y11639194D01*
X1280972Y11646509D01*
X1268577Y11652250D01*
X1255572Y11656314D01*
X1242110Y11658549D01*
X1228496Y11659006D01*
X1214932Y11657685D01*
X1201674Y11654485D01*
X1188923Y11649608D01*
X1176985Y11643055D01*
X1166012Y11634978D01*
X1156208Y11625478D01*
X1147724Y11614759D01*
X1140815Y11603024D01*
X1135481Y11590477D01*
X1131874Y11577320D01*
X1130046Y11563807D01*
X1130046Y11550192D01*
X1131874Y11536680D01*
X1135481Y11523522D01*
X1140815Y11510975D01*
X1147724Y11499240D01*
X1156208Y11488521D01*
X1166012Y11479022D01*
X1176985Y11470944D01*
X1188923Y11464391D01*
X1201674Y11459514D01*
X1214932Y11456314D01*
G37*
G36*
X10337342Y11680037D02*
G01*
X10536072Y11680037D01*
X10542422Y11680799D01*
X10547858Y11682679D01*
X10552785Y11685778D01*
X10556849Y11689842D01*
X10559948Y11694769D01*
X10561828Y11700205D01*
X10562539Y11706555D01*
X10562539Y12065304D01*
X10561828Y12071654D01*
X10559948Y12077090D01*
X10556849Y12082018D01*
X10552785Y12086082D01*
X10547858Y12089180D01*
X10542422Y12091060D01*
X10536072Y12091771D01*
X10337342Y12091771D01*
X10330992Y12091060D01*
X10325557Y12089180D01*
X10320629Y12086082D01*
X10316565Y12082018D01*
X10313466Y12077090D01*
X10311536Y12071654D01*
X10310825Y12065304D01*
X10310825Y11706555D01*
X10311536Y11700205D01*
X10313466Y11694769D01*
X10316565Y11689842D01*
X10320629Y11685778D01*
X10325557Y11682679D01*
X10330992Y11680799D01*
G37*
G36*
X11587327Y11680037D02*
G01*
X11786057Y11680037D01*
X11792407Y11680799D01*
X11797842Y11682679D01*
X11802770Y11685778D01*
X11806834Y11689842D01*
X11809933Y11694769D01*
X11811863Y11700205D01*
X11812574Y11706555D01*
X11812574Y12065304D01*
X11811863Y12071654D01*
X11809933Y12077090D01*
X11806834Y12082018D01*
X11802770Y12086082D01*
X11797842Y12089180D01*
X11792407Y12091060D01*
X11786057Y12091771D01*
X11587327Y12091771D01*
X11580977Y12091060D01*
X11575542Y12089180D01*
X11570614Y12086082D01*
X11566550Y12082018D01*
X11563451Y12077090D01*
X11561572Y12071654D01*
X11560860Y12065304D01*
X11560860Y11706555D01*
X11561572Y11700205D01*
X11563451Y11694769D01*
X11566550Y11689842D01*
X11570614Y11685778D01*
X11575542Y11682679D01*
X11580977Y11680799D01*
G37*
G36*
X11303355Y12471247D02*
G01*
X11317884Y12471247D01*
X11332362Y12473076D01*
X11346434Y12476734D01*
X11359997Y12482068D01*
X11372748Y12489078D01*
X11384534Y12497663D01*
X11395151Y12507620D01*
X11404396Y12518847D01*
X11412220Y12531140D01*
X11418417Y12544298D01*
X11422888Y12558115D01*
X11425631Y12572441D01*
X11426545Y12586970D01*
X11425631Y12601498D01*
X11422888Y12615824D01*
X11418417Y12629642D01*
X11412220Y12642799D01*
X11404396Y12655092D01*
X11395151Y12666319D01*
X11384534Y12676276D01*
X11372748Y12684861D01*
X11359997Y12691872D01*
X11346434Y12697206D01*
X11332362Y12700863D01*
X11317884Y12702692D01*
X11303355Y12702692D01*
X11288877Y12700863D01*
X11274806Y12697206D01*
X11261242Y12691872D01*
X11248491Y12684861D01*
X11236706Y12676276D01*
X11226088Y12666319D01*
X11216843Y12655092D01*
X11209020Y12642799D01*
X11202822Y12629642D01*
X11198352Y12615824D01*
X11195608Y12601498D01*
X11194694Y12586970D01*
X11195608Y12572441D01*
X11198352Y12558115D01*
X11202822Y12544298D01*
X11209020Y12531140D01*
X11216843Y12518847D01*
X11226088Y12507620D01*
X11236706Y12497663D01*
X11248491Y12489078D01*
X11261242Y12482068D01*
X11274806Y12476734D01*
X11288877Y12473076D01*
G37*
G36*
X10805515Y12471247D02*
G01*
X10820044Y12471247D01*
X10834522Y12473076D01*
X10848594Y12476734D01*
X10862157Y12482068D01*
X10874908Y12489078D01*
X10886694Y12497663D01*
X10897311Y12507620D01*
X10906556Y12518847D01*
X10914380Y12531140D01*
X10920577Y12544298D01*
X10925048Y12558115D01*
X10927791Y12572441D01*
X10928705Y12586970D01*
X10927791Y12601498D01*
X10925048Y12615824D01*
X10920577Y12629642D01*
X10914380Y12642799D01*
X10906556Y12655092D01*
X10897311Y12666319D01*
X10886694Y12676276D01*
X10874908Y12684861D01*
X10862157Y12691872D01*
X10848594Y12697206D01*
X10834522Y12700863D01*
X10820044Y12702692D01*
X10805515Y12702692D01*
X10791037Y12700863D01*
X10776966Y12697206D01*
X10763402Y12691872D01*
X10750651Y12684861D01*
X10738866Y12676276D01*
X10728248Y12666319D01*
X10719003Y12655092D01*
X10711180Y12642799D01*
X10704982Y12629642D01*
X10700512Y12615824D01*
X10697768Y12601498D01*
X10696854Y12586970D01*
X10697768Y12572441D01*
X10700512Y12558115D01*
X10704982Y12544298D01*
X10711180Y12531140D01*
X10719003Y12518847D01*
X10728248Y12507620D01*
X10738866Y12497663D01*
X10750651Y12489078D01*
X10763402Y12482068D01*
X10776966Y12476734D01*
X10791037Y12473076D01*
G37*
G36*
X5246878Y12472111D02*
G01*
X5395722Y12472111D01*
X5402072Y12472822D01*
X5407507Y12474702D01*
X5412435Y12477800D01*
X5416499Y12481864D01*
X5419598Y12486792D01*
X5421477Y12492228D01*
X5422188Y12498578D01*
X5422188Y12647422D01*
X5421477Y12653772D01*
X5419598Y12659207D01*
X5416499Y12664135D01*
X5412435Y12668199D01*
X5407507Y12671298D01*
X5402072Y12673177D01*
X5395722Y12673888D01*
X5246878Y12673888D01*
X5240528Y12673177D01*
X5235092Y12671298D01*
X5230164Y12668199D01*
X5226100Y12664135D01*
X5223002Y12659207D01*
X5221122Y12653772D01*
X5220411Y12647422D01*
X5220411Y12498578D01*
X5221122Y12492228D01*
X5223002Y12486792D01*
X5226100Y12481864D01*
X5230164Y12477800D01*
X5235092Y12474702D01*
X5240528Y12472822D01*
G37*
G36*
X7024878Y12472111D02*
G01*
X7173722Y12472111D01*
X7180072Y12472822D01*
X7185507Y12474702D01*
X7190435Y12477800D01*
X7194499Y12481864D01*
X7197598Y12486792D01*
X7199477Y12492228D01*
X7200188Y12498578D01*
X7200188Y12647422D01*
X7199477Y12653772D01*
X7197598Y12659207D01*
X7194499Y12664135D01*
X7190435Y12668199D01*
X7185507Y12671298D01*
X7180072Y12673177D01*
X7173722Y12673888D01*
X7024878Y12673888D01*
X7018528Y12673177D01*
X7013092Y12671298D01*
X7008164Y12668199D01*
X7004100Y12664135D01*
X7001002Y12659207D01*
X6999122Y12653772D01*
X6998411Y12647422D01*
X6998411Y12498578D01*
X6999122Y12492228D01*
X7001002Y12486792D01*
X7004100Y12481864D01*
X7008164Y12477800D01*
X7013092Y12474702D01*
X7018528Y12472822D01*
G37*
G36*
X4562652Y12472162D02*
G01*
X4576064Y12473533D01*
X4589170Y12476632D01*
X4601768Y12481509D01*
X4613605Y12487960D01*
X4624425Y12495936D01*
X4634128Y12505334D01*
X4642459Y12515900D01*
X4649317Y12527483D01*
X4654600Y12539929D01*
X4658156Y12552883D01*
X4659934Y12566243D01*
X4659934Y12579756D01*
X4658156Y12593116D01*
X4654600Y12606070D01*
X4649317Y12618516D01*
X4642459Y12630099D01*
X4634128Y12640665D01*
X4624425Y12650063D01*
X4613605Y12658039D01*
X4601768Y12664490D01*
X4589170Y12669367D01*
X4576064Y12672466D01*
X4562652Y12673838D01*
X4549190Y12673380D01*
X4535932Y12671145D01*
X4523028Y12667132D01*
X4510836Y12661493D01*
X4499457Y12654229D01*
X4489145Y12645542D01*
X4480102Y12635534D01*
X4472482Y12624409D01*
X4466437Y12612370D01*
X4462018Y12599670D01*
X4459325Y12586462D01*
X4458411Y12573000D01*
X4459325Y12559538D01*
X4462018Y12546330D01*
X4466437Y12533630D01*
X4472482Y12521590D01*
X4480102Y12510465D01*
X4489145Y12500457D01*
X4499457Y12491770D01*
X4510836Y12484506D01*
X4523028Y12478867D01*
X4535932Y12474854D01*
X4549190Y12472619D01*
G37*
G36*
X4816652Y12472162D02*
G01*
X4830064Y12473533D01*
X4843170Y12476632D01*
X4855768Y12481509D01*
X4867605Y12487960D01*
X4878425Y12495936D01*
X4888128Y12505334D01*
X4896459Y12515900D01*
X4903317Y12527483D01*
X4908600Y12539929D01*
X4912156Y12552883D01*
X4913934Y12566243D01*
X4913934Y12579756D01*
X4912156Y12593116D01*
X4908600Y12606070D01*
X4903317Y12618516D01*
X4896459Y12630099D01*
X4888128Y12640665D01*
X4878425Y12650063D01*
X4867605Y12658039D01*
X4855768Y12664490D01*
X4843170Y12669367D01*
X4830064Y12672466D01*
X4816652Y12673838D01*
X4803190Y12673380D01*
X4789932Y12671145D01*
X4777028Y12667132D01*
X4764836Y12661493D01*
X4753457Y12654229D01*
X4743145Y12645542D01*
X4734102Y12635534D01*
X4726482Y12624409D01*
X4720437Y12612370D01*
X4716018Y12599670D01*
X4713325Y12586462D01*
X4712411Y12573000D01*
X4713325Y12559538D01*
X4716018Y12546330D01*
X4720437Y12533630D01*
X4726482Y12521590D01*
X4734102Y12510465D01*
X4743145Y12500457D01*
X4753457Y12491770D01*
X4764836Y12484506D01*
X4777028Y12478867D01*
X4789932Y12474854D01*
X4803190Y12472619D01*
G37*
G36*
X6848652Y12472162D02*
G01*
X6862064Y12473533D01*
X6875170Y12476632D01*
X6887768Y12481509D01*
X6899605Y12487960D01*
X6910425Y12495936D01*
X6920128Y12505334D01*
X6928459Y12515900D01*
X6935317Y12527483D01*
X6940600Y12539929D01*
X6944156Y12552883D01*
X6945934Y12566243D01*
X6945934Y12579756D01*
X6944156Y12593116D01*
X6940600Y12606070D01*
X6935317Y12618516D01*
X6928459Y12630099D01*
X6920128Y12640665D01*
X6910425Y12650063D01*
X6899605Y12658039D01*
X6887768Y12664490D01*
X6875170Y12669367D01*
X6862064Y12672466D01*
X6848652Y12673838D01*
X6835190Y12673380D01*
X6821931Y12671145D01*
X6809028Y12667132D01*
X6796836Y12661493D01*
X6785457Y12654229D01*
X6775145Y12645542D01*
X6766102Y12635534D01*
X6758482Y12624409D01*
X6752437Y12612370D01*
X6748018Y12599670D01*
X6745325Y12586462D01*
X6744411Y12573000D01*
X6745325Y12559538D01*
X6748018Y12546330D01*
X6752437Y12533630D01*
X6758482Y12521590D01*
X6766102Y12510465D01*
X6775145Y12500457D01*
X6785457Y12491770D01*
X6796836Y12484506D01*
X6809028Y12478867D01*
X6821931Y12474854D01*
X6835190Y12472619D01*
G37*
G36*
X5832652Y12472162D02*
G01*
X5846064Y12473533D01*
X5859170Y12476632D01*
X5871768Y12481509D01*
X5883605Y12487960D01*
X5894425Y12495936D01*
X5904128Y12505334D01*
X5912459Y12515900D01*
X5919317Y12527483D01*
X5924600Y12539929D01*
X5928156Y12552883D01*
X5929934Y12566243D01*
X5929934Y12579756D01*
X5928156Y12593116D01*
X5924600Y12606070D01*
X5919317Y12618516D01*
X5912459Y12630099D01*
X5904128Y12640665D01*
X5894425Y12650063D01*
X5883605Y12658039D01*
X5871768Y12664490D01*
X5859170Y12669367D01*
X5846064Y12672466D01*
X5832652Y12673838D01*
X5819190Y12673380D01*
X5805932Y12671145D01*
X5793028Y12667132D01*
X5780836Y12661493D01*
X5769457Y12654229D01*
X5759145Y12645542D01*
X5750102Y12635534D01*
X5742482Y12624409D01*
X5736437Y12612370D01*
X5732018Y12599670D01*
X5729325Y12586462D01*
X5728411Y12573000D01*
X5729325Y12559538D01*
X5732018Y12546330D01*
X5736437Y12533630D01*
X5742482Y12521590D01*
X5750102Y12510465D01*
X5759145Y12500457D01*
X5769457Y12491770D01*
X5780836Y12484506D01*
X5793028Y12478867D01*
X5805932Y12474854D01*
X5819190Y12472619D01*
G37*
G36*
X5070652Y12472162D02*
G01*
X5084064Y12473533D01*
X5097170Y12476632D01*
X5109768Y12481509D01*
X5121605Y12487960D01*
X5132425Y12495936D01*
X5142128Y12505334D01*
X5150459Y12515900D01*
X5157317Y12527483D01*
X5162600Y12539929D01*
X5166156Y12552883D01*
X5167934Y12566243D01*
X5167934Y12579756D01*
X5166156Y12593116D01*
X5162600Y12606070D01*
X5157317Y12618516D01*
X5150459Y12630099D01*
X5142128Y12640665D01*
X5132425Y12650063D01*
X5121605Y12658039D01*
X5109768Y12664490D01*
X5097170Y12669367D01*
X5084064Y12672466D01*
X5070652Y12673838D01*
X5057190Y12673380D01*
X5043932Y12671145D01*
X5031028Y12667132D01*
X5018836Y12661493D01*
X5007457Y12654229D01*
X4997145Y12645542D01*
X4988102Y12635534D01*
X4980482Y12624409D01*
X4974437Y12612370D01*
X4970018Y12599670D01*
X4967325Y12586462D01*
X4966411Y12573000D01*
X4967325Y12559538D01*
X4970018Y12546330D01*
X4974437Y12533630D01*
X4980482Y12521590D01*
X4988102Y12510465D01*
X4997145Y12500457D01*
X5007457Y12491770D01*
X5018836Y12484506D01*
X5031028Y12478867D01*
X5043932Y12474854D01*
X5057190Y12472619D01*
G37*
G36*
X4308652Y12472162D02*
G01*
X4322064Y12473533D01*
X4335170Y12476632D01*
X4347768Y12481509D01*
X4359605Y12487960D01*
X4370425Y12495936D01*
X4380128Y12505334D01*
X4388459Y12515900D01*
X4395317Y12527483D01*
X4400600Y12539929D01*
X4404156Y12552883D01*
X4405934Y12566243D01*
X4405934Y12579756D01*
X4404156Y12593116D01*
X4400600Y12606070D01*
X4395317Y12618516D01*
X4388459Y12630099D01*
X4380128Y12640665D01*
X4370425Y12650063D01*
X4359605Y12658039D01*
X4347768Y12664490D01*
X4335170Y12669367D01*
X4322064Y12672466D01*
X4308652Y12673838D01*
X4295190Y12673380D01*
X4281932Y12671145D01*
X4269028Y12667132D01*
X4256836Y12661493D01*
X4245457Y12654229D01*
X4235145Y12645542D01*
X4226102Y12635534D01*
X4218482Y12624409D01*
X4212437Y12612370D01*
X4208018Y12599670D01*
X4205325Y12586462D01*
X4204411Y12573000D01*
X4205325Y12559538D01*
X4208018Y12546330D01*
X4212437Y12533630D01*
X4218482Y12521590D01*
X4226102Y12510465D01*
X4235145Y12500457D01*
X4245457Y12491770D01*
X4256836Y12484506D01*
X4269028Y12478867D01*
X4281932Y12474854D01*
X4295190Y12472619D01*
G37*
G36*
X4054652Y12472162D02*
G01*
X4068064Y12473533D01*
X4081170Y12476632D01*
X4093768Y12481509D01*
X4105605Y12487960D01*
X4116425Y12495936D01*
X4126128Y12505334D01*
X4134459Y12515900D01*
X4141317Y12527483D01*
X4146600Y12539929D01*
X4150156Y12552883D01*
X4151934Y12566243D01*
X4151934Y12579756D01*
X4150156Y12593116D01*
X4146600Y12606070D01*
X4141317Y12618516D01*
X4134459Y12630099D01*
X4126128Y12640665D01*
X4116425Y12650063D01*
X4105605Y12658039D01*
X4093768Y12664490D01*
X4081170Y12669367D01*
X4068064Y12672466D01*
X4054652Y12673838D01*
X4041190Y12673380D01*
X4027932Y12671145D01*
X4015028Y12667132D01*
X4002836Y12661493D01*
X3991457Y12654229D01*
X3981145Y12645542D01*
X3972102Y12635534D01*
X3964482Y12624409D01*
X3958437Y12612370D01*
X3954018Y12599670D01*
X3951325Y12586462D01*
X3950411Y12573000D01*
X3951325Y12559538D01*
X3954018Y12546330D01*
X3958437Y12533630D01*
X3964482Y12521590D01*
X3972102Y12510465D01*
X3981145Y12500457D01*
X3991457Y12491770D01*
X4002836Y12484506D01*
X4015028Y12478867D01*
X4027932Y12474854D01*
X4041190Y12472619D01*
G37*
G36*
X6594652Y12472162D02*
G01*
X6608064Y12473533D01*
X6621170Y12476632D01*
X6633768Y12481509D01*
X6645605Y12487960D01*
X6656425Y12495936D01*
X6666128Y12505334D01*
X6674459Y12515900D01*
X6681317Y12527483D01*
X6686600Y12539929D01*
X6690156Y12552883D01*
X6691934Y12566243D01*
X6691934Y12579756D01*
X6690156Y12593116D01*
X6686600Y12606070D01*
X6681317Y12618516D01*
X6674459Y12630099D01*
X6666128Y12640665D01*
X6656425Y12650063D01*
X6645605Y12658039D01*
X6633768Y12664490D01*
X6621170Y12669367D01*
X6608064Y12672466D01*
X6594652Y12673838D01*
X6581190Y12673380D01*
X6567931Y12671145D01*
X6555028Y12667132D01*
X6542836Y12661493D01*
X6531457Y12654229D01*
X6521145Y12645542D01*
X6512102Y12635534D01*
X6504482Y12624409D01*
X6498437Y12612370D01*
X6494018Y12599670D01*
X6491325Y12586462D01*
X6490411Y12573000D01*
X6491325Y12559538D01*
X6494018Y12546330D01*
X6498437Y12533630D01*
X6504482Y12521590D01*
X6512102Y12510465D01*
X6521145Y12500457D01*
X6531457Y12491770D01*
X6542836Y12484506D01*
X6555028Y12478867D01*
X6567931Y12474854D01*
X6581190Y12472619D01*
G37*
G36*
X6127140Y12482271D02*
G01*
X6137605Y12487960D01*
X6148425Y12495936D01*
X6158128Y12505334D01*
X6166459Y12515900D01*
X6173317Y12527483D01*
X6174028Y12529159D01*
X6127140Y12529159D01*
G37*
G36*
X6381140Y12482271D02*
G01*
X6391605Y12487960D01*
X6402425Y12495936D01*
X6412128Y12505334D01*
X6420459Y12515900D01*
X6427317Y12527483D01*
X6428028Y12529159D01*
X6381140Y12529159D01*
G37*
G36*
X6293459Y12482372D02*
G01*
X6293459Y12529159D01*
X6246672Y12529159D01*
X6250482Y12521590D01*
X6258102Y12510465D01*
X6267145Y12500457D01*
X6277457Y12491770D01*
X6288836Y12484506D01*
G37*
G36*
X6039459Y12482372D02*
G01*
X6039459Y12529159D01*
X5992672Y12529159D01*
X5996482Y12521590D01*
X6004102Y12510465D01*
X6013145Y12500457D01*
X6023457Y12491770D01*
X6034836Y12484506D01*
G37*
G36*
X5992672Y12616840D02*
G01*
X6039459Y12616840D01*
X6039459Y12663627D01*
X6034836Y12661493D01*
X6023457Y12654229D01*
X6013145Y12645542D01*
X6004102Y12635534D01*
X5996482Y12624409D01*
G37*
G36*
X6246672Y12616840D02*
G01*
X6293459Y12616840D01*
X6293459Y12663627D01*
X6288836Y12661493D01*
X6277457Y12654229D01*
X6267145Y12645542D01*
X6258102Y12635534D01*
X6250482Y12624409D01*
G37*
G36*
X6381140Y12616840D02*
G01*
X6428028Y12616840D01*
X6427317Y12618516D01*
X6420459Y12630099D01*
X6412128Y12640665D01*
X6402425Y12650063D01*
X6391605Y12658039D01*
X6381140Y12663728D01*
G37*
G36*
X6127140Y12616840D02*
G01*
X6174028Y12616840D01*
X6173317Y12618516D01*
X6166459Y12630099D01*
X6158128Y12640665D01*
X6148425Y12650063D01*
X6137605Y12658039D01*
X6127140Y12663728D01*
G37*
G36*
X1016000Y12826492D02*
G01*
X1031392Y12827457D01*
X1046530Y12830200D01*
X1061212Y12834772D01*
X1075232Y12841122D01*
X1088440Y12849098D01*
X1100531Y12858597D01*
X1111402Y12869468D01*
X1120902Y12881559D01*
X1128877Y12894767D01*
X1135227Y12908788D01*
X1139799Y12923469D01*
X1142542Y12938607D01*
X1143508Y12954000D01*
X1142542Y12969392D01*
X1139799Y12984530D01*
X1135227Y12999212D01*
X1128877Y13013232D01*
X1120902Y13026440D01*
X1111402Y13038531D01*
X1100531Y13049402D01*
X1088440Y13058902D01*
X1075232Y13066877D01*
X1061212Y13073227D01*
X1046530Y13077799D01*
X1031392Y13080542D01*
X1016000Y13081508D01*
X1000607Y13080542D01*
X985469Y13077799D01*
X970787Y13073227D01*
X956767Y13066877D01*
X943559Y13058902D01*
X931468Y13049402D01*
X920597Y13038531D01*
X911098Y13026440D01*
X903122Y13013232D01*
X896772Y12999212D01*
X892200Y12984530D01*
X889457Y12969392D01*
X888492Y12954000D01*
X889457Y12938607D01*
X892200Y12923469D01*
X896772Y12908788D01*
X903122Y12894767D01*
X911098Y12881559D01*
X920597Y12869468D01*
X931468Y12858597D01*
X943559Y12849098D01*
X956767Y12841122D01*
X970787Y12834772D01*
X985469Y12830200D01*
X1000607Y12827457D01*
G37*
G36*
X12446000Y12828117D02*
G01*
X12461189Y12829032D01*
X12476124Y12831775D01*
X12490653Y12836296D01*
X12504521Y12842544D01*
X12517526Y12850418D01*
X12529464Y12859766D01*
X12540234Y12870535D01*
X12549581Y12882473D01*
X12557455Y12895478D01*
X12563703Y12909346D01*
X12568224Y12923875D01*
X12570968Y12938810D01*
X12571882Y12954000D01*
X12570968Y12969189D01*
X12568224Y12984124D01*
X12563703Y12998653D01*
X12557455Y13012521D01*
X12549581Y13025526D01*
X12540234Y13037464D01*
X12529464Y13048234D01*
X12517526Y13057581D01*
X12504521Y13065455D01*
X12490653Y13071703D01*
X12476124Y13076224D01*
X12461189Y13078968D01*
X12446000Y13079882D01*
X12430810Y13078968D01*
X12415875Y13076224D01*
X12401346Y13071703D01*
X12387478Y13065455D01*
X12374473Y13057581D01*
X12362535Y13048234D01*
X12351766Y13037464D01*
X12342418Y13025526D01*
X12334544Y13012521D01*
X12328296Y12998653D01*
X12323775Y12984124D01*
X12321032Y12969189D01*
X12320117Y12954000D01*
X12321032Y12938810D01*
X12323775Y12923875D01*
X12328296Y12909346D01*
X12334544Y12895478D01*
X12342418Y12882473D01*
X12351766Y12870535D01*
X12362535Y12859766D01*
X12374473Y12850418D01*
X12387478Y12842544D01*
X12401346Y12836296D01*
X12415875Y12831775D01*
X12430810Y12829032D01*
G37*
G36*
X9906000Y12828117D02*
G01*
X9921189Y12829032D01*
X9936124Y12831775D01*
X9950653Y12836296D01*
X9964521Y12842544D01*
X9977526Y12850418D01*
X9989464Y12859766D01*
X10000234Y12870535D01*
X10009581Y12882473D01*
X10017455Y12895478D01*
X10023703Y12909346D01*
X10028224Y12923875D01*
X10030968Y12938810D01*
X10031882Y12954000D01*
X10030968Y12969189D01*
X10028224Y12984124D01*
X10023703Y12998653D01*
X10017455Y13012521D01*
X10009581Y13025526D01*
X10000234Y13037464D01*
X9989464Y13048234D01*
X9977526Y13057581D01*
X9964521Y13065455D01*
X9950653Y13071703D01*
X9936124Y13076224D01*
X9921189Y13078968D01*
X9906000Y13079882D01*
X9890810Y13078968D01*
X9875875Y13076224D01*
X9861346Y13071703D01*
X9847478Y13065455D01*
X9834473Y13057581D01*
X9822535Y13048234D01*
X9811766Y13037464D01*
X9802418Y13025526D01*
X9794544Y13012521D01*
X9788296Y12998653D01*
X9783775Y12984124D01*
X9781032Y12969189D01*
X9780117Y12954000D01*
X9781032Y12938810D01*
X9783775Y12923875D01*
X9788296Y12909346D01*
X9794544Y12895478D01*
X9802418Y12882473D01*
X9811766Y12870535D01*
X9822535Y12859766D01*
X9834473Y12850418D01*
X9847478Y12842544D01*
X9861346Y12836296D01*
X9875875Y12831775D01*
X9890810Y12829032D01*
G37*

%LPD*%
D10*
X6337300Y12573000D02*
G01*
X6083300Y12573000D01*
X6083300Y12573000D02*
G01*
X5181752Y11671452D01*
X3715359Y11671452D01*
X3644900Y11600992D01*
X3644900Y11429974D01*
X1231925Y9017000D01*
X1739925Y9017000D02*
G01*
X1853488Y9130563D01*
X2307132Y9130563D01*
X2374900Y9062796D01*
X2374900Y8985605D01*
X3379698Y7980806D01*
X5516575Y7980806D01*
X5724067Y7773314D01*
X5724067Y7747000D01*
X5829300Y7747000D02*
G01*
X5724067Y7747000D01*
X4533900Y11557000D02*
G01*
X4885131Y11205768D01*
X9420986Y11205768D01*
X8379459Y11349024D02*
G01*
X5249875Y11349024D01*
X5041900Y11557000D01*
X10562386Y10045700D02*
G01*
X10562386Y10151313D01*
X9156700Y11557000D01*
X6565671Y11557000D01*
X10668000Y10045700D02*
G01*
X10562386Y10045700D01*
X7251700Y7747000D02*
G01*
X7096353Y7591653D01*
X3673246Y7591653D01*
X2247900Y9017000D01*
X6997700Y7747000D02*
G01*
X6892290Y7641589D01*
X6683603Y7641589D01*
X6616700Y7708493D01*
X6616700Y7784464D01*
X5644591Y8756573D01*
X2762326Y8756573D01*
X2501900Y9017000D01*
X6743700Y7747000D02*
G01*
X5590590Y8900109D01*
X2872790Y8900109D01*
X2755900Y9017000D01*
X10922000Y10045700D02*
G01*
X9893300Y9017000D01*
X6565900Y9017000D01*
D11*
G01*
X10812779Y11136629D03*
G01*
X11061700Y11136629D03*
G01*
X11310620Y11136629D03*
G01*
X11310620Y12586970D03*
G01*
X10812779Y12586970D03*
D12*
G01*
X10436707Y11885929D03*
G01*
X11686692Y11885929D03*
D13*
G01*
X6565900Y9017000D03*
G01*
X6311900Y9017000D03*
G01*
X6057900Y9017000D03*
G01*
X5803900Y9017000D03*
G01*
X5549900Y9017000D03*
G01*
X5295900Y9017000D03*
G01*
X5041900Y9017000D03*
G01*
X4787900Y9017000D03*
G01*
X4533900Y9017000D03*
G01*
X4279900Y9017000D03*
G01*
X4025900Y9017000D03*
G01*
X3771900Y9017000D03*
G01*
X3517900Y9017000D03*
G01*
X3263900Y9017000D03*
G01*
X3009900Y9017000D03*
G01*
X2755900Y9017000D03*
G01*
X2501900Y9017000D03*
G01*
X2247900Y9017000D03*
G01*
X1993925Y9017000D03*
G01*
X6565671Y11557000D03*
G01*
X6311900Y11557000D03*
G01*
X6057900Y11557000D03*
G01*
X5803900Y11557000D03*
G01*
X5549900Y11557000D03*
G01*
X5295900Y11557000D03*
G01*
X5041900Y11557000D03*
G01*
X4787900Y11557000D03*
G01*
X4533900Y11557000D03*
G01*
X4279900Y11557000D03*
G01*
X4025900Y11557000D03*
G01*
X3771900Y11557000D03*
G01*
X3517900Y11557000D03*
G01*
X3263900Y11557000D03*
G01*
X3009900Y11557000D03*
G01*
X2755900Y11557000D03*
G01*
X2501900Y11557000D03*
G01*
X2247900Y11557000D03*
G01*
X1993925Y11557000D03*
D14*
G01*
X1739925Y11557000D03*
G01*
X1485925Y11557000D03*
G01*
X1231925Y11557000D03*
G01*
X1739925Y9017000D03*
G01*
X1485925Y9017000D03*
G01*
X1231925Y9017000D03*
D15*
G01*
X10668000Y10045700D03*
D16*
G01*
X10922000Y10045700D03*
G01*
X11176000Y10045700D03*
G01*
X11430000Y10045700D03*
D17*
G01*
X8013700Y7747000D03*
D18*
G01*
X7759700Y7747000D03*
G01*
X7505700Y7747000D03*
G01*
X7251700Y7747000D03*
G01*
X6997700Y7747000D03*
G01*
X6743700Y7747000D03*
G01*
X6489700Y7747000D03*
G01*
X6235700Y7747000D03*
D17*
G01*
X5829300Y7747000D03*
D18*
G01*
X5575300Y7747000D03*
G01*
X5321300Y7747000D03*
G01*
X5067300Y7747000D03*
G01*
X4813300Y7747000D03*
G01*
X4559300Y7747000D03*
G01*
X4305300Y7747000D03*
G01*
X4051300Y7747000D03*
G01*
X4051300Y12573000D03*
G01*
X4305300Y12573000D03*
G01*
X4559300Y12573000D03*
G01*
X4813300Y12573000D03*
G01*
X5067300Y12573000D03*
D17*
G01*
X5321300Y12573000D03*
D18*
G01*
X5829300Y12573000D03*
G01*
X6083300Y12573000D03*
G01*
X6337300Y12573000D03*
G01*
X6591300Y12573000D03*
G01*
X6845300Y12573000D03*
D17*
G01*
X7099300Y12573000D03*
D19*
G01*
X8379459Y11349024D03*
G01*
X9420986Y11205768D03*
M02*
