G04 Layer: BottomSilkscreenLayer*
G04 EasyEDA v6.5.44, 2024-08-21 21:21:16*
G04 a079ae6def3d47c492197c10d7659819,080bb0d1436b4706b040d70de8f1a738,10*
G04 Gerber Generator version 0.2*
G04 Scale: 100 percent, Rotated: No, Reflected: No *
G04 Dimensions in millimeters *
G04 leading zeros omitted , absolute positions ,4 integer and 5 decimal *
%FSLAX45Y45*%
%MOMM*%

%ADD10C,0.2032*%
%ADD11C,0.5000*%
%ADD12C,0.2540*%

%LPD*%
G36*
X7212126Y11475110D02*
G01*
X7212126Y11471198D01*
X7217206Y11468049D01*
X7348270Y11468658D01*
X7352334Y11471198D01*
X7352334Y11475110D01*
G37*
G36*
X7019594Y11475110D02*
G01*
X7019594Y11471402D01*
X7026249Y11468862D01*
X7042302Y11468862D01*
X7048906Y11471402D01*
X7048906Y11475110D01*
G37*
G36*
X6766052Y11475110D02*
G01*
X6767779Y11469878D01*
X6796379Y11469878D01*
X6798157Y11475110D01*
G37*
G36*
X6517030Y11475110D02*
G01*
X6518757Y11469878D01*
X6545275Y11469878D01*
X6547002Y11475110D01*
G37*
G36*
X6265875Y11475110D02*
G01*
X6267602Y11469878D01*
X6282334Y11466169D01*
X6297625Y11469014D01*
X6297625Y11475110D01*
G37*
G36*
X6018987Y11475110D02*
G01*
X6020663Y11469979D01*
X6034328Y11467185D01*
X6045200Y11470132D01*
X6046876Y11475110D01*
G37*
G36*
X5767832Y11475110D02*
G01*
X5769610Y11469878D01*
X5793994Y11469878D01*
X5795721Y11475110D01*
G37*
G36*
X5518810Y11475110D02*
G01*
X5520486Y11470132D01*
X5531358Y11467185D01*
X5545023Y11469979D01*
X5546699Y11475110D01*
G37*
G36*
X5265928Y11475110D02*
G01*
X5265928Y11470843D01*
X5277459Y11466322D01*
X5296001Y11469878D01*
X5297678Y11475110D01*
G37*
G36*
X5018684Y11475110D02*
G01*
X5020411Y11469878D01*
X5040630Y11469878D01*
X5042408Y11475110D01*
G37*
G36*
X4765802Y11475110D02*
G01*
X4765802Y11470995D01*
X4775555Y11468557D01*
X4793742Y11469878D01*
X4795469Y11475110D01*
G37*
G36*
X4514697Y11475110D02*
G01*
X4514697Y11470995D01*
X4524400Y11468557D01*
X4544720Y11469878D01*
X4546396Y11475110D01*
G37*
G36*
X4263186Y11475110D02*
G01*
X4264964Y11469878D01*
X4277156Y11467693D01*
X4293565Y11469878D01*
X4295292Y11475110D01*
G37*
G36*
X4014165Y11475110D02*
G01*
X4015943Y11469878D01*
X4040327Y11469878D01*
X4042105Y11475110D01*
G37*
G36*
X3765143Y11475110D02*
G01*
X3766870Y11469979D01*
X3780536Y11467185D01*
X3794810Y11471148D01*
X3794810Y11475110D01*
G37*
G36*
X3518204Y11475110D02*
G01*
X3519932Y11469878D01*
X3535984Y11468557D01*
X3545789Y11470995D01*
X3545789Y11475110D01*
G37*
G36*
X3267100Y11475110D02*
G01*
X3268827Y11469878D01*
X3291179Y11469878D01*
X3292906Y11475110D01*
G37*
G36*
X3013913Y11475110D02*
G01*
X3015589Y11469979D01*
X3030474Y11466423D01*
X3047695Y11471097D01*
X3047695Y11475110D01*
G37*
G36*
X2762758Y11475110D02*
G01*
X2764434Y11470081D01*
X2778099Y11466525D01*
X2792425Y11471249D01*
X2792425Y11475110D01*
G37*
G36*
X2520035Y11475110D02*
G01*
X2521762Y11469878D01*
X2535732Y11469878D01*
X2537460Y11475110D01*
G37*
G36*
X2262987Y11475110D02*
G01*
X2262987Y11470792D01*
X2268220Y11469065D01*
X2286457Y11464391D01*
X2278380Y11455247D01*
X2271420Y11438483D01*
X2266899Y11426088D01*
X2263038Y11432235D01*
X2262886Y11455247D01*
X2259634Y11460429D01*
X2247290Y11462816D01*
X2238908Y11456619D01*
X2238908Y11352682D01*
X2248154Y11343284D01*
X2252268Y11343284D01*
X2262682Y11352682D01*
X2276195Y11388293D01*
X2279192Y11375694D01*
X2279700Y11352987D01*
X2288794Y11343284D01*
X2293315Y11343386D01*
X2306980Y11354765D01*
X2302713Y11369395D01*
X2302713Y11455654D01*
X2294585Y11463020D01*
X2291943Y11475110D01*
G37*
G36*
X2011832Y11475110D02*
G01*
X2011832Y11465712D01*
X2005939Y11454384D01*
X1999284Y11431574D01*
X1990902Y11433759D01*
X1990902Y11462308D01*
X1982114Y11468455D01*
X1970430Y11464391D01*
X1967941Y11455247D01*
X1967890Y11356136D01*
X1974494Y11349532D01*
X1986432Y11349532D01*
X1994611Y11359997D01*
X1997252Y11374069D01*
X2005279Y11381333D01*
X2010105Y11378387D01*
X2007209Y11357660D01*
X2014575Y11349532D01*
X2021281Y11349482D01*
X2027377Y11345621D01*
X2014626Y11329670D01*
X2006955Y11306657D01*
X2005177Y11311991D01*
X1984756Y11322354D01*
X1869389Y11322354D01*
X1854403Y11328654D01*
X1852828Y11328654D01*
X1852777Y11289893D01*
X1987804Y11291112D01*
X2007920Y11303508D01*
X2009444Y11303508D01*
X2016048Y11280800D01*
X2027021Y11267744D01*
X2048459Y11256416D01*
X2132177Y11256416D01*
X2153107Y11269268D01*
X2165604Y11287048D01*
X2167178Y11318138D01*
X2160066Y11335969D01*
X2153107Y11343843D01*
X2123897Y11357914D01*
X2110536Y11357914D01*
X2104644Y11360200D01*
X2106422Y11438483D01*
X2100783Y11454841D01*
X2084730Y11467795D01*
X2046579Y11467795D01*
X2043633Y11457330D01*
X2043558Y11439144D01*
X2064054Y11439144D01*
X2070760Y11445798D01*
X2076196Y11445798D01*
X2081225Y11433708D01*
X2079853Y11374831D01*
X2072436Y11367414D01*
X2065223Y11371986D01*
X2064054Y11439144D01*
X2043558Y11439144D01*
X2043226Y11358219D01*
X2036673Y11351666D01*
X2031746Y11351666D01*
X2031746Y11462207D01*
X2041143Y11472265D01*
X2041143Y11475110D01*
G37*
G36*
X1915871Y11468862D02*
G01*
X1905355Y11464848D01*
X1898700Y11454739D01*
X1898618Y11417554D01*
X1922881Y11417554D01*
X1922881Y11444274D01*
X1932228Y11447729D01*
X1938578Y11438585D01*
X1938578Y11427460D01*
X1931263Y11418874D01*
X1922881Y11417554D01*
X1898618Y11417554D01*
X1898446Y11362436D01*
X1904085Y11350752D01*
X1914550Y11347856D01*
X1949500Y11347450D01*
X1961997Y11360912D01*
X1959356Y11377828D01*
X1951228Y11385956D01*
X1939696Y11381892D01*
X1937512Y11369446D01*
X1922881Y11369446D01*
X1922881Y11402923D01*
X1929180Y11401145D01*
X1944928Y11399316D01*
X1954631Y11401755D01*
X1959508Y11412524D01*
X1959508Y11451844D01*
X1955139Y11463629D01*
X1948281Y11468862D01*
G37*
G36*
X2322017Y11464645D02*
G01*
X2312162Y11456670D01*
X2311181Y11379098D01*
X2336190Y11379098D01*
X2336190Y11435638D01*
X2340559Y11443716D01*
X2343912Y11443716D01*
X2350871Y11436096D01*
X2350871Y11376507D01*
X2346502Y11368379D01*
X2340305Y11368379D01*
X2336190Y11379098D01*
X2311181Y11379098D01*
X2310841Y11352174D01*
X2322118Y11343284D01*
X2348433Y11343284D01*
X2367330Y11351361D01*
X2374950Y11362994D01*
X2374950Y11447068D01*
X2367280Y11458702D01*
X2354021Y11464493D01*
G37*
G36*
X2183231Y11464645D02*
G01*
X2171395Y11458549D01*
X2168855Y11448948D01*
X2168825Y11421211D01*
X2191816Y11421211D01*
X2191816Y11438026D01*
X2199132Y11443614D01*
X2201468Y11443716D01*
X2208022Y11438483D01*
X2210358Y11428628D01*
X2206701Y11418976D01*
X2197912Y11416182D01*
X2191816Y11421211D01*
X2168825Y11421211D01*
X2168804Y11354206D01*
X2176780Y11344300D01*
X2216759Y11342878D01*
X2229459Y11351920D01*
X2229459Y11380724D01*
X2226360Y11382451D01*
X2214930Y11385194D01*
X2204313Y11368379D01*
X2196846Y11368379D01*
X2191816Y11373408D01*
X2191816Y11393220D01*
X2198014Y11399418D01*
X2214778Y11397132D01*
X2227427Y11402415D01*
X2229408Y11411305D01*
X2230120Y11421770D01*
X2229459Y11454384D01*
X2219198Y11464645D01*
G37*
G36*
X2570734Y11460530D02*
G01*
X2467660Y11459413D01*
X2459685Y11449558D01*
X2459685Y11410035D01*
X2469946Y11399774D01*
X2492857Y11399774D01*
X2499461Y11406378D01*
X2499461Y11416334D01*
X2494229Y11420957D01*
X2480716Y11428933D01*
X2484221Y11438483D01*
X2503119Y11439753D01*
X2509875Y11432946D01*
X2509875Y11430863D01*
X2530500Y11430863D01*
X2535174Y11439550D01*
X2555240Y11439550D01*
X2558034Y11436756D01*
X2558034Y11427510D01*
X2552039Y11422481D01*
X2532583Y11425428D01*
X2530500Y11430863D01*
X2509875Y11430863D01*
X2509875Y11414201D01*
X2516022Y11402364D01*
X2522778Y11399774D01*
X2569311Y11399774D01*
X2581046Y11411051D01*
X2581046Y11450218D01*
G37*
G36*
X7038441Y11448389D02*
G01*
X7027976Y11441531D01*
X7027976Y11433962D01*
X7044842Y11386718D01*
X7042353Y11377828D01*
X7029297Y11343284D01*
X7023150Y11343284D01*
X7009130Y11353952D01*
X7009130Y11438178D01*
X7002221Y11445798D01*
X6994956Y11445798D01*
X6985863Y11438432D01*
X6984542Y11352682D01*
X6972503Y11346942D01*
X6963105Y11338356D01*
X6963105Y11335715D01*
X6971588Y11326571D01*
X7041591Y11327231D01*
X7048855Y11330838D01*
X7055002Y11342725D01*
X7062927Y11344808D01*
X7067854Y11331092D01*
X7080453Y11326723D01*
X7088682Y11334902D01*
X7088682Y11339423D01*
X7077913Y11367363D01*
X7071563Y11382400D01*
X7080097Y11409222D01*
X7090664Y11434318D01*
X7090765Y11439550D01*
X7082383Y11447932D01*
X7080910Y11447932D01*
X7067956Y11443411D01*
X7063231Y11429034D01*
X7055103Y11424716D01*
X7052767Y11432235D01*
X7049109Y11441430D01*
G37*
G36*
X6296609Y11448135D02*
G01*
X6253784Y11446865D01*
X6244742Y11437772D01*
X6258458Y11411305D01*
X6275324Y11379911D01*
X6280607Y11369446D01*
X6283299Y11354511D01*
X6277254Y11349482D01*
X6270447Y11352072D01*
X6270447Y11361826D01*
X6259931Y11370056D01*
X6250533Y11367871D01*
X6245301Y11361318D01*
X6245301Y11340896D01*
X6249619Y11332870D01*
X6261862Y11326520D01*
X6295237Y11326520D01*
X6308496Y11337696D01*
X6307074Y11371630D01*
X6280556Y11418925D01*
X6282639Y11424310D01*
X6300571Y11427155D01*
X6306007Y11431676D01*
X6306007Y11441379D01*
G37*
G36*
X4034434Y11447983D02*
G01*
X3996537Y11446865D01*
X3985260Y11439448D01*
X3985260Y11353901D01*
X4008272Y11353901D01*
X4008272Y11420551D01*
X4016349Y11424869D01*
X4018483Y11424869D01*
X4021531Y11419992D01*
X4021480Y11353546D01*
X4017060Y11349177D01*
X4008272Y11353901D01*
X3985260Y11353901D01*
X3985260Y11337798D01*
X3990441Y11331244D01*
X4004716Y11326520D01*
X4031487Y11326520D01*
X4043730Y11332870D01*
X4047998Y11340896D01*
X4047744Y11434318D01*
X4044645Y11442090D01*
G37*
G36*
X7339584Y11447932D02*
G01*
X7327747Y11441785D01*
X7325156Y11435029D01*
X7325156Y11353393D01*
X7349490Y11353393D01*
X7349540Y11421059D01*
X7355484Y11424818D01*
X7360412Y11424869D01*
X7367016Y11418316D01*
X7367016Y11357914D01*
X7358634Y11349532D01*
X7355484Y11349634D01*
X7349490Y11353393D01*
X7325156Y11353393D01*
X7325156Y11337442D01*
X7332929Y11327790D01*
X7360920Y11326063D01*
X7379360Y11333073D01*
X7388961Y11348516D01*
X7388961Y11425936D01*
X7383373Y11439245D01*
X7370114Y11445290D01*
X7363866Y11447576D01*
G37*
G36*
X7307630Y11447932D02*
G01*
X7298994Y11445341D01*
X7292086Y11439296D01*
X7282738Y11410137D01*
X7279081Y11407902D01*
X7274915Y11418874D01*
X7274915Y11441531D01*
X7263282Y11447526D01*
X7255052Y11443055D01*
X7251953Y11438483D01*
X7251903Y11335207D01*
X7264603Y11326164D01*
X7275118Y11333073D01*
X7277506Y11340134D01*
X7290003Y11367363D01*
X7293457Y11358981D01*
X7293813Y11335969D01*
X7296912Y11331346D01*
X7306818Y11326114D01*
X7317638Y11336883D01*
X7316673Y11438280D01*
G37*
G36*
X7233259Y11447932D02*
G01*
X7196429Y11447881D01*
X7182815Y11439601D01*
X7182815Y11421364D01*
X7205624Y11421364D01*
X7211110Y11424818D01*
X7217359Y11424564D01*
X7222591Y11422430D01*
X7222591Y11409070D01*
X7215936Y11399520D01*
X7206894Y11400840D01*
X7205624Y11421364D01*
X7182815Y11421364D01*
X7182815Y11339423D01*
X7185456Y11332667D01*
X7197293Y11326520D01*
X7231786Y11326520D01*
X7243521Y11337798D01*
X7243521Y11362232D01*
X7232345Y11366449D01*
X7226604Y11364264D01*
X7219442Y11351615D01*
X7211923Y11349228D01*
X7205878Y11354257D01*
X7205878Y11378641D01*
X7212685Y11382451D01*
X7230262Y11380470D01*
X7243521Y11387328D01*
X7243521Y11437620D01*
G37*
G36*
X6534657Y11447932D02*
G01*
X6523634Y11439245D01*
X6523481Y11371529D01*
X6520281Y11354765D01*
X6523837Y11337188D01*
X6536486Y11326571D01*
X6545630Y11331346D01*
X6548678Y11335969D01*
X6548678Y11438483D01*
X6545630Y11443055D01*
X6537248Y11447780D01*
G37*
G36*
X6030010Y11447932D02*
G01*
X6018784Y11438280D01*
X6021679Y11425174D01*
X6027674Y11420195D01*
X6027674Y11415014D01*
X6035548Y11405006D01*
X6049416Y11379911D01*
X6058966Y11361064D01*
X6059068Y11353901D01*
X6049924Y11348974D01*
X6042355Y11358372D01*
X6042355Y11364061D01*
X6034227Y11368379D01*
X6023660Y11368379D01*
X6019292Y11360302D01*
X6019292Y11340896D01*
X6023610Y11332870D01*
X6035852Y11326520D01*
X6063488Y11326520D01*
X6075984Y11333022D01*
X6079998Y11343538D01*
X6079998Y11367871D01*
X6069431Y11390376D01*
X6059271Y11407089D01*
X6051854Y11421110D01*
X6059881Y11427002D01*
X6070244Y11427002D01*
X6077915Y11433911D01*
X6077915Y11441379D01*
X6068618Y11447932D01*
G37*
G36*
X5797600Y11447932D02*
G01*
X5790692Y11437366D01*
X5789523Y11371529D01*
X5784240Y11359997D01*
X5789828Y11336832D01*
X5799378Y11326520D01*
X5807303Y11326520D01*
X5813958Y11333886D01*
X5815279Y11439906D01*
X5805373Y11447932D01*
G37*
G36*
X5537860Y11447932D02*
G01*
X5523484Y11441887D01*
X5521045Y11430101D01*
X5519163Y11422786D01*
X5558942Y11422786D01*
X5558942Y11351666D01*
X5546344Y11351666D01*
X5546344Y11422786D01*
X5519163Y11422786D01*
X5516626Y11412677D01*
X5520080Y11407089D01*
X5520283Y11339118D01*
X5531764Y11327587D01*
X5565343Y11326063D01*
X5578094Y11331397D01*
X5581954Y11341455D01*
X5581954Y11435029D01*
X5579211Y11442090D01*
X5566257Y11447729D01*
G37*
G36*
X5219700Y11447932D02*
G01*
X5207863Y11441785D01*
X5205272Y11435029D01*
X5205272Y11413693D01*
X5212181Y11406073D01*
X5220208Y11406073D01*
X5227726Y11410086D01*
X5230215Y11422481D01*
X5238953Y11425224D01*
X5245049Y11420195D01*
X5245049Y11407495D01*
X5223256Y11387480D01*
X5228437Y11377828D01*
X5241235Y11369446D01*
X5295747Y11369446D01*
X5299964Y11374678D01*
X5306771Y11374577D01*
X5311800Y11371427D01*
X5314594Y11353901D01*
X5303316Y11348720D01*
X5296306Y11353139D01*
X5295747Y11369446D01*
X5241235Y11369446D01*
X5242864Y11368379D01*
X5245658Y11357254D01*
X5241442Y11350599D01*
X5233619Y11350599D01*
X5225135Y11364163D01*
X5216042Y11366652D01*
X5207609Y11364010D01*
X5202682Y11349024D01*
X5207406Y11333276D01*
X5218887Y11325504D01*
X5250281Y11325860D01*
X5260035Y11331041D01*
X5271668Y11344097D01*
X5278374Y11331194D01*
X5291683Y11326520D01*
X5321401Y11326571D01*
X5334457Y11334496D01*
X5336997Y11348516D01*
X5336946Y11435791D01*
X5324856Y11447932D01*
X5287467Y11447932D01*
X5276392Y11439245D01*
X5276392Y11412220D01*
X5287213Y11407343D01*
X5294223Y11411712D01*
X5295595Y11420957D01*
X5305602Y11425529D01*
X5312003Y11420195D01*
X5312003Y11402009D01*
X5303875Y11397691D01*
X5285841Y11397691D01*
X5272227Y11389360D01*
X5272227Y11379149D01*
X5265623Y11372545D01*
X5261711Y11374932D01*
X5255514Y11386972D01*
X5259730Y11389614D01*
X5268569Y11406936D01*
X5266232Y11435130D01*
X5261508Y11443919D01*
X5251043Y11447932D01*
G37*
G36*
X4997450Y11447932D02*
G01*
X4963566Y11447881D01*
X4950561Y11440007D01*
X4948021Y11421414D01*
X4951272Y11409222D01*
X4966817Y11407902D01*
X4972913Y11422532D01*
X4977384Y11425275D01*
X4987137Y11422837D01*
X4989525Y11413744D01*
X4987445Y11409680D01*
X5041747Y11409680D01*
X5043068Y11423853D01*
X5054600Y11425174D01*
X5056936Y11419078D01*
X5055616Y11400840D01*
X5044287Y11399520D01*
X5041747Y11409680D01*
X4987445Y11409680D01*
X4985054Y11405006D01*
X4968392Y11387683D01*
X4968746Y11387023D01*
X5000142Y11387023D01*
X5010658Y11397488D01*
X5010658Y11401856D01*
X5014468Y11401856D01*
X5025491Y11388750D01*
X5022951Y11381994D01*
X5013807Y11368532D01*
X5004968Y11378031D01*
X5000142Y11387023D01*
X4968746Y11387023D01*
X4973574Y11377980D01*
X4987645Y11364772D01*
X4987645Y11353139D01*
X4984109Y11350599D01*
X5043068Y11350599D01*
X5043068Y11371529D01*
X5054600Y11372850D01*
X5059121Y11361064D01*
X5055514Y11350599D01*
X4984109Y11350599D01*
X4980482Y11347958D01*
X4971084Y11352225D01*
X4966919Y11364214D01*
X4954270Y11364214D01*
X4949952Y11356086D01*
X4949952Y11337290D01*
X4956860Y11330381D01*
X4966970Y11326520D01*
X4993284Y11326520D01*
X5006594Y11331194D01*
X5012994Y11343589D01*
X5024272Y11332260D01*
X5033619Y11326063D01*
X5063998Y11325758D01*
X5077764Y11333022D01*
X5081778Y11343538D01*
X5081778Y11370259D01*
X5072837Y11385448D01*
X5081778Y11401399D01*
X5081727Y11432235D01*
X5076494Y11442598D01*
X5066080Y11447830D01*
X5030114Y11447932D01*
X5013756Y11436096D01*
G37*
G36*
X4719574Y11447932D02*
G01*
X4707382Y11441582D01*
X4702606Y11424005D01*
X4707432Y11407952D01*
X4713986Y11405412D01*
X4724704Y11409222D01*
X4728210Y11422532D01*
X4736338Y11425123D01*
X4744872Y11420551D01*
X4744872Y11407495D01*
X4723130Y11387531D01*
X4727956Y11376964D01*
X4739894Y11370818D01*
X4745024Y11359540D01*
X4742637Y11352022D01*
X4735931Y11349482D01*
X4728870Y11351717D01*
X4722876Y11365230D01*
X4713122Y11366652D01*
X4705096Y11359388D01*
X4705096Y11337391D01*
X4717999Y11326520D01*
X4727092Y11326012D01*
X4750104Y11326876D01*
X4767884Y11337188D01*
X4768189Y11346434D01*
X4773269Y11332362D01*
X4783582Y11326672D01*
X4823815Y11326520D01*
X4835245Y11335512D01*
X4833315Y11346434D01*
X4818126Y11404955D01*
X4818126Y11411813D01*
X4809642Y11438280D01*
X4802835Y11445798D01*
X4791405Y11445798D01*
X4786274Y11439601D01*
X4788408Y11425936D01*
X4796688Y11394541D01*
X4806340Y11353698D01*
X4802073Y11349431D01*
X4795316Y11352022D01*
X4786884Y11366296D01*
X4779162Y11366296D01*
X4772609Y11361064D01*
X4768037Y11352682D01*
X4767834Y11363147D01*
X4757572Y11384076D01*
X4757420Y11387632D01*
X4765802Y11398250D01*
X4765802Y11436654D01*
X4760569Y11443208D01*
X4752187Y11447780D01*
G37*
G36*
X4542180Y11447932D02*
G01*
X4531360Y11443817D01*
X4526280Y11432235D01*
X4522266Y11429390D01*
X4525908Y11421364D01*
X4547920Y11421364D01*
X4553407Y11424818D01*
X4559655Y11424818D01*
X4565142Y11421364D01*
X4563872Y11400840D01*
X4549190Y11400840D01*
X4547920Y11421364D01*
X4525908Y11421364D01*
X4527245Y11418417D01*
X4527245Y11408613D01*
X4520387Y11405971D01*
X4526940Y11398707D01*
X4526178Y11339982D01*
X4533493Y11328806D01*
X4548174Y11326063D01*
X4577130Y11327688D01*
X4585665Y11335410D01*
X4590440Y11349786D01*
X4587849Y11359946D01*
X4578045Y11366398D01*
X4567529Y11362385D01*
X4562957Y11349278D01*
X4549190Y11350599D01*
X4547920Y11371072D01*
X4551578Y11374729D01*
X4580229Y11378184D01*
X4587443Y11387124D01*
X4590186Y11428018D01*
X4586681Y11440566D01*
X4572254Y11447881D01*
G37*
G36*
X4323181Y11447932D02*
G01*
X4288993Y11446865D01*
X4278223Y11436705D01*
X4278223Y11412829D01*
X4283456Y11408460D01*
X4294073Y11405819D01*
X4300778Y11413388D01*
X4302252Y11421313D01*
X4309262Y11425682D01*
X4315866Y11420195D01*
X4315764Y11394541D01*
X4310176Y11387226D01*
X4293108Y11387226D01*
X4281424Y11382756D01*
X4278274Y11377828D01*
X4278223Y11336832D01*
X4288485Y11326520D01*
X4329785Y11326520D01*
X4339742Y11337086D01*
X4329430Y11347399D01*
X4308551Y11350142D01*
X4303318Y11354257D01*
X4303318Y11363960D01*
X4308449Y11367109D01*
X4331004Y11370208D01*
X4341012Y11379555D01*
X4340910Y11436400D01*
X4337710Y11441430D01*
G37*
G36*
X4224070Y11447932D02*
G01*
X4213606Y11443919D01*
X4208932Y11435181D01*
X4208424Y11414201D01*
X4217263Y11405362D01*
X4230878Y11409273D01*
X4234332Y11422532D01*
X4242612Y11425174D01*
X4246829Y11422532D01*
X4246829Y11404295D01*
X4227525Y11387785D01*
X4230268Y11379047D01*
X4244238Y11370411D01*
X4246778Y11361064D01*
X4246829Y11351920D01*
X4242612Y11349278D01*
X4235043Y11351666D01*
X4228033Y11366296D01*
X4215739Y11366296D01*
X4209135Y11359743D01*
X4209135Y11340896D01*
X4213453Y11332870D01*
X4225696Y11326520D01*
X4258919Y11326520D01*
X4271924Y11341354D01*
X4271924Y11371935D01*
X4263644Y11379403D01*
X4261053Y11387582D01*
X4270756Y11397894D01*
X4272381Y11438890D01*
X4254144Y11447881D01*
G37*
G36*
X3790391Y11447932D02*
G01*
X3778554Y11441785D01*
X3775964Y11435029D01*
X3775964Y11410340D01*
X3786022Y11407800D01*
X3795826Y11409222D01*
X3801770Y11422583D01*
X3808069Y11425021D01*
X3811015Y11421770D01*
X3813454Y11393982D01*
X3806291Y11387734D01*
X3782517Y11384889D01*
X3778605Y11379911D01*
X3776116Y11361064D01*
X3779367Y11332260D01*
X3787241Y11326520D01*
X3827576Y11326520D01*
X3836771Y11336324D01*
X3834079Y11343436D01*
X3822192Y11349532D01*
X3807104Y11349532D01*
X3798976Y11353901D01*
X3798976Y11361877D01*
X3808272Y11368379D01*
X3826408Y11368379D01*
X3836670Y11378641D01*
X3836670Y11437467D01*
X3828237Y11444782D01*
X3814673Y11447373D01*
G37*
G36*
X3535527Y11447932D02*
G01*
X3525316Y11443258D01*
X3521201Y11434318D01*
X3516426Y11422481D01*
X3511245Y11424158D01*
X3506825Y11437569D01*
X3497732Y11446662D01*
X3486302Y11442649D01*
X3482695Y11427409D01*
X3473602Y11424970D01*
X3456838Y11424818D01*
X3452317Y11421770D01*
X3451729Y11420703D01*
X3544519Y11420703D01*
X3548684Y11424869D01*
X3557879Y11424869D01*
X3560419Y11418265D01*
X3560419Y11404498D01*
X3554323Y11399418D01*
X3546805Y11400891D01*
X3544519Y11420703D01*
X3451729Y11420703D01*
X3447948Y11413794D01*
X3453424Y11394287D01*
X3476701Y11394287D01*
X3476701Y11403736D01*
X3480308Y11405920D01*
X3483000Y11403279D01*
X3482848Y11386159D01*
X3476701Y11394287D01*
X3453424Y11394287D01*
X3457803Y11381994D01*
X3471164Y11342776D01*
X3479850Y11330076D01*
X3489350Y11326622D01*
X3497681Y11334953D01*
X3494887Y11346434D01*
X3486861Y11361877D01*
X3488232Y11373459D01*
X3502660Y11376406D01*
X3508095Y11383822D01*
X3508095Y11404244D01*
X3514090Y11410238D01*
X3516528Y11410238D01*
X3527196Y11386159D01*
X3520643Y11372443D01*
X3520643Y11354765D01*
X3543909Y11354765D01*
X3546348Y11372596D01*
X3553307Y11372596D01*
X3558336Y11367566D01*
X3558336Y11352123D01*
X3548938Y11349685D01*
X3543909Y11354765D01*
X3520643Y11354765D01*
X3520643Y11339322D01*
X3530549Y11327790D01*
X3558235Y11326063D01*
X3573018Y11328806D01*
X3581349Y11337798D01*
X3581349Y11369954D01*
X3574796Y11385600D01*
X3581349Y11399367D01*
X3581349Y11436654D01*
X3576116Y11443208D01*
X3567734Y11447780D01*
G37*
G36*
X3294634Y11447932D02*
G01*
X3286048Y11439347D01*
X3288131Y11432235D01*
X3292856Y11413388D01*
X3298494Y11394541D01*
X3301136Y11375898D01*
X3304743Y11371529D01*
X3307689Y11351717D01*
X3301237Y11349228D01*
X3293059Y11353647D01*
X3290519Y11363706D01*
X3278936Y11365992D01*
X3272688Y11359845D01*
X3272840Y11334902D01*
X3280156Y11327587D01*
X3324301Y11326164D01*
X3334410Y11335613D01*
X3334410Y11347246D01*
X3330600Y11356898D01*
X3323590Y11388293D01*
X3311347Y11438483D01*
X3300679Y11447932D01*
G37*
G36*
X2972562Y11447932D02*
G01*
X2962148Y11443157D01*
X2959709Y11436756D01*
X2974441Y11407089D01*
X2999384Y11363147D01*
X2999587Y11351920D01*
X2995168Y11349177D01*
X2984957Y11351717D01*
X2984957Y11359083D01*
X2978404Y11368379D01*
X2968701Y11368379D01*
X2963824Y11362486D01*
X2961538Y11348466D01*
X2965246Y11334191D01*
X2976016Y11326164D01*
X3008122Y11326469D01*
X3016300Y11330838D01*
X3022447Y11342776D01*
X3028746Y11345164D01*
X3034131Y11334242D01*
X3045561Y11325758D01*
X3055823Y11335359D01*
X3056128Y11438077D01*
X3049168Y11445798D01*
X3037789Y11445798D01*
X3032048Y11438890D01*
X3032048Y11370716D01*
X3027222Y11365890D01*
X3020110Y11373612D01*
X2993288Y11419433D01*
X2993288Y11424361D01*
X3012338Y11426494D01*
X3020517Y11433911D01*
X3020517Y11441379D01*
X3011220Y11447932D01*
G37*
G36*
X2791663Y11447932D02*
G01*
X2774238Y11439499D01*
X2771805Y11350599D01*
X2799740Y11350599D01*
X2799740Y11423853D01*
X2810865Y11425123D01*
X2813659Y11420551D01*
X2813659Y11353241D01*
X2809646Y11349177D01*
X2799740Y11350599D01*
X2771805Y11350599D01*
X2771546Y11341303D01*
X2773781Y11335562D01*
X2789834Y11326520D01*
X2821940Y11326520D01*
X2833776Y11332667D01*
X2836367Y11339423D01*
X2836062Y11434318D01*
X2833014Y11442090D01*
X2822752Y11447780D01*
G37*
G36*
X2715158Y11447932D02*
G01*
X2706573Y11438737D01*
X2709214Y11430101D01*
X2739796Y11373612D01*
X2745079Y11355324D01*
X2737408Y11349685D01*
X2733751Y11351920D01*
X2727909Y11365890D01*
X2718866Y11368786D01*
X2709113Y11366296D01*
X2704896Y11354104D01*
X2708402Y11338458D01*
X2719273Y11327587D01*
X2753715Y11326317D01*
X2767279Y11334851D01*
X2767279Y11371224D01*
X2750058Y11405006D01*
X2742285Y11413540D01*
X2741117Y11423599D01*
X2759964Y11427358D01*
X2767279Y11433911D01*
X2767279Y11439550D01*
X2758948Y11447932D01*
G37*
G36*
X4473854Y11447881D02*
G01*
X4459325Y11440566D01*
X4455464Y11427002D01*
X4459224Y11409273D01*
X4470552Y11405311D01*
X4481220Y11410137D01*
X4481220Y11420195D01*
X4486452Y11424412D01*
X4495850Y11420856D01*
X4495850Y11407952D01*
X4477004Y11387836D01*
X4477004Y11382908D01*
X4495850Y11364569D01*
X4495850Y11352123D01*
X4486656Y11349736D01*
X4481626Y11353901D01*
X4479086Y11363858D01*
X4466793Y11366601D01*
X4458360Y11362080D01*
X4455566Y11347145D01*
X4459325Y11334038D01*
X4472279Y11326469D01*
X4504791Y11326164D01*
X4515612Y11334242D01*
X4518863Y11348516D01*
X4516424Y11371529D01*
X4508906Y11385956D01*
X4517796Y11398046D01*
X4517796Y11437823D01*
X4505248Y11447881D01*
G37*
G36*
X6795668Y11446306D02*
G01*
X6779361Y11442192D01*
X6773722Y11445748D01*
X6760413Y11445798D01*
X6752031Y11435130D01*
X6745122Y11414404D01*
X6742328Y11414506D01*
X6736486Y11418163D01*
X6739280Y11439245D01*
X6729882Y11445798D01*
X6718401Y11445798D01*
X6714083Y11437721D01*
X6714083Y11380927D01*
X6748830Y11380927D01*
X6753859Y11375948D01*
X6753859Y11351920D01*
X6745274Y11349228D01*
X6739178Y11354257D01*
X6739178Y11380927D01*
X6714083Y11380927D01*
X6714083Y11335207D01*
X6725107Y11326520D01*
X6760260Y11326520D01*
X6776872Y11335004D01*
X6776974Y11344300D01*
X6778244Y11377828D01*
X6774535Y11388293D01*
X6765696Y11395100D01*
X6765696Y11407140D01*
X6777431Y11433251D01*
X6780682Y11433251D01*
X6789420Y11419179D01*
X6789420Y11412169D01*
X6797802Y11395760D01*
X6797802Y11374475D01*
X6781038Y11340338D01*
X6781038Y11336223D01*
X6790131Y11326520D01*
X6798056Y11326520D01*
X6806031Y11330787D01*
X6811009Y11347450D01*
X6814362Y11347450D01*
X6819239Y11338052D01*
X6829958Y11326520D01*
X6839153Y11326520D01*
X6844131Y11338560D01*
X6837172Y11354765D01*
X6831177Y11374475D01*
X6827062Y11377015D01*
X6827062Y11389563D01*
X6835140Y11409222D01*
X6846214Y11437823D01*
X6839000Y11445798D01*
X6824980Y11445798D01*
X6813499Y11424970D01*
X6810654Y11424869D01*
X6805777Y11439702D01*
G37*
G36*
X5756148Y11445798D02*
G01*
X5751779Y11440566D01*
X5748883Y11428984D01*
X5741263Y11424869D01*
X5721096Y11424818D01*
X5716524Y11421770D01*
X5711647Y11412524D01*
X5715502Y11403939D01*
X5751474Y11403939D01*
X5751474Y11393170D01*
X5746242Y11394897D01*
X5744870Y11403939D01*
X5715502Y11403939D01*
X5717794Y11398707D01*
X5727852Y11371529D01*
X5742025Y11331956D01*
X5758281Y11325758D01*
X5766054Y11335359D01*
X5763412Y11346434D01*
X5755640Y11361928D01*
X5755640Y11372138D01*
X5762244Y11374678D01*
X5769762Y11374678D01*
X5774740Y11380673D01*
X5774791Y11394541D01*
X5781192Y11416182D01*
X5772099Y11443462D01*
X5767120Y11445494D01*
G37*
G36*
X5491937Y11445798D02*
G01*
X5483606Y11437467D01*
X5483606Y11428984D01*
X5472836Y11424869D01*
X5457444Y11424818D01*
X5452821Y11421770D01*
X5448198Y11412982D01*
X5451036Y11402923D01*
X5475935Y11402923D01*
X5480456Y11405971D01*
X5483606Y11406073D01*
X5483606Y11389309D01*
X5479542Y11389309D01*
X5475935Y11402923D01*
X5451036Y11402923D01*
X5453938Y11392458D01*
X5467045Y11354765D01*
X5471515Y11340134D01*
X5479694Y11328654D01*
X5489905Y11326063D01*
X5496153Y11331244D01*
X5496153Y11341100D01*
X5485536Y11369243D01*
X5487619Y11374678D01*
X5501894Y11374678D01*
X5507634Y11381587D01*
X5507990Y11403736D01*
X5513730Y11410645D01*
X5512765Y11423548D01*
X5509209Y11428018D01*
X5506110Y11438483D01*
X5499658Y11445798D01*
G37*
G36*
X3748024Y11445798D02*
G01*
X3740404Y11438890D01*
X3740404Y11433251D01*
X3732022Y11424869D01*
X3711092Y11424869D01*
X3702304Y11416131D01*
X3704437Y11407089D01*
X3713479Y11381994D01*
X3732631Y11332616D01*
X3741318Y11326520D01*
X3747363Y11326520D01*
X3755034Y11333480D01*
X3755034Y11340642D01*
X3747008Y11358981D01*
X3745636Y11371122D01*
X3760266Y11376050D01*
X3765448Y11386159D01*
X3765499Y11405565D01*
X3771798Y11410746D01*
X3771798Y11422278D01*
X3766007Y11427104D01*
X3763365Y11440210D01*
X3758692Y11445798D01*
G37*
G36*
X3246831Y11445798D02*
G01*
X3240227Y11439245D01*
X3240227Y11428984D01*
X3229508Y11424869D01*
X3211880Y11424869D01*
X3202584Y11418366D01*
X3202584Y11410746D01*
X3205049Y11403330D01*
X3227781Y11403330D01*
X3230473Y11406073D01*
X3240227Y11403634D01*
X3240227Y11389563D01*
X3236722Y11387378D01*
X3227781Y11403330D01*
X3205049Y11403330D01*
X3226104Y11340134D01*
X3236264Y11326520D01*
X3246424Y11326520D01*
X3252724Y11336121D01*
X3243935Y11358981D01*
X3240684Y11370056D01*
X3245256Y11374678D01*
X3254603Y11374678D01*
X3261156Y11381232D01*
X3261156Y11405362D01*
X3271875Y11411102D01*
X3269234Y11421770D01*
X3261156Y11430406D01*
X3261156Y11439042D01*
X3255924Y11443258D01*
X3247542Y11445341D01*
G37*
G36*
X6000546Y11445443D02*
G01*
X5989269Y11442446D01*
X5984494Y11428374D01*
X5976416Y11425174D01*
X5956757Y11424869D01*
X5950254Y11415572D01*
X5950254Y11405920D01*
X5951725Y11401501D01*
X5974892Y11401501D01*
X5977686Y11406073D01*
X5985814Y11406073D01*
X5985814Y11385143D01*
X5982665Y11385194D01*
X5974892Y11401501D01*
X5951725Y11401501D01*
X5971387Y11342370D01*
X5979617Y11329060D01*
X5986170Y11326520D01*
X5994298Y11326520D01*
X5998159Y11336629D01*
X5986983Y11367871D01*
X5992622Y11374678D01*
X6002426Y11374678D01*
X6006744Y11382756D01*
X6006744Y11403634D01*
X6017869Y11411712D01*
X6013196Y11425021D01*
X6006744Y11431473D01*
X6006744Y11439245D01*
G37*
G36*
X2468067Y11391392D02*
G01*
X2459431Y11382806D01*
X2460752Y11375694D01*
X2475382Y11368227D01*
X2527706Y11369954D01*
X2546299Y11363756D01*
X2562047Y11365890D01*
X2577642Y11373612D01*
X2581808Y11380520D01*
X2574696Y11391392D01*
G37*
G36*
X2553157Y11359184D02*
G01*
X2477465Y11357864D01*
X2437688Y11356644D01*
X2416759Y11345519D01*
X2408072Y11338052D01*
X2396896Y11318443D01*
X2396896Y11295989D01*
X2407361Y11274907D01*
X2416759Y11266322D01*
X2438349Y11255146D01*
X2567432Y11256416D01*
X2586888Y11266373D01*
X2602738Y11285372D01*
X2602026Y11324488D01*
X2594051Y11340134D01*
X2586278Y11347145D01*
G37*
G36*
X2628950Y11322354D02*
G01*
X2616758Y11316004D01*
X2612440Y11307978D01*
X2612440Y11301577D01*
X2624988Y11287252D01*
X2624988Y11253165D01*
X2630881Y11239042D01*
X2640685Y11235791D01*
X2630220Y11232794D01*
X2526995Y11232388D01*
X2520188Y11229746D01*
X2514600Y11218773D01*
X2515616Y11174831D01*
X2518664Y11167668D01*
X2531872Y11163503D01*
X2658872Y11164366D01*
X2666847Y11174222D01*
X2666847Y11221313D01*
X2658414Y11232032D01*
X2645918Y11234775D01*
X2645918Y11236909D01*
X2655366Y11244529D01*
X2656687Y11311280D01*
X2643530Y11322354D01*
G37*
G36*
X2372817Y11322304D02*
G01*
X2192883Y11322151D01*
X2178202Y11314988D01*
X2176983Y11300358D01*
X2183079Y11292027D01*
X2376474Y11290858D01*
X2390851Y11301831D01*
X2389581Y11312804D01*
G37*
G36*
X6266180Y11251438D02*
G01*
X6187338Y11250168D01*
X6180429Y11244427D01*
X6180429Y11075517D01*
X6191758Y11068100D01*
X6268720Y11068100D01*
X6276695Y11077956D01*
X6276695Y11240922D01*
G37*
G36*
X5891580Y11251438D02*
G01*
X5812282Y11250168D01*
X5804814Y11242700D01*
X5803849Y11079734D01*
X5813856Y11068100D01*
X5894120Y11068100D01*
X5902147Y11077956D01*
X5902147Y11240922D01*
G37*
G36*
X7391044Y11251285D02*
G01*
X7314793Y11250168D01*
X7307325Y11242700D01*
X7307325Y11075568D01*
X7314793Y11068100D01*
X7377988Y11066627D01*
X7395718Y11069320D01*
X7402931Y11074603D01*
X7403947Y11182096D01*
X7407046Y11185245D01*
X7411364Y11177574D01*
X7425436Y11171682D01*
X7441539Y11171682D01*
X7449667Y11165535D01*
X7452817Y11165382D01*
X7452817Y11200993D01*
X7422032Y11200993D01*
X7408824Y11196370D01*
X7408824Y11190528D01*
X7404658Y11190528D01*
X7404100Y11195761D01*
X7401509Y11245850D01*
G37*
G36*
X6568033Y11251184D02*
G01*
X6558178Y11243208D01*
X6556959Y11078210D01*
X6565138Y11068100D01*
X6642811Y11068100D01*
X6651447Y11076736D01*
X6651853Y11242344D01*
X6648754Y11247323D01*
X6639763Y11250930D01*
G37*
G36*
X6316268Y11251184D02*
G01*
X6306007Y11240922D01*
X6306007Y11075517D01*
X6317335Y11068100D01*
X6393738Y11068100D01*
X6401206Y11075568D01*
X6402374Y11229238D01*
X6399885Y11247272D01*
X6390741Y11250930D01*
G37*
G36*
X6067145Y11251184D02*
G01*
X6058052Y11246408D01*
X6054953Y11241786D01*
X6054902Y11075720D01*
X6065926Y11067034D01*
X6136640Y11067034D01*
X6151016Y11073028D01*
X6153454Y11082934D01*
X6152184Y11243208D01*
X6142329Y11251184D01*
G37*
G36*
X5940247Y11251184D02*
G01*
X5930392Y11243208D01*
X5929172Y11079988D01*
X5939434Y11068100D01*
X6014618Y11066780D01*
X6025489Y11076482D01*
X6026658Y11243208D01*
X6016752Y11251184D01*
G37*
G36*
X5695594Y11251184D02*
G01*
X5682386Y11246612D01*
X5679694Y11236045D01*
X5681980Y11194897D01*
X5676138Y11190020D01*
X5668111Y11199926D01*
X5568442Y11201196D01*
X5559196Y11198860D01*
X5552643Y11192306D01*
X5552643Y11043259D01*
X5560822Y11034522D01*
X5556961Y11028324D01*
X5487771Y11028019D01*
X5477306Y11018164D01*
X5477306Y10941405D01*
X5490921Y10933125D01*
X5652617Y10933125D01*
X5662117Y10940796D01*
X5663234Y11009477D01*
X5659323Y11024717D01*
X5647842Y11029289D01*
X5582615Y11028324D01*
X5575706Y11034014D01*
X5584037Y11044580D01*
X5584037Y11166957D01*
X5589270Y11171326D01*
X5666079Y11172748D01*
X5675630Y11184788D01*
X5680303Y11181892D01*
X5680303Y11079327D01*
X5684418Y11071656D01*
X5697677Y11067034D01*
X5762955Y11067034D01*
X5776569Y11075365D01*
X5776569Y11238941D01*
X5772099Y11247272D01*
X5762955Y11250930D01*
G37*
G36*
X7263384Y11251082D02*
G01*
X7189266Y11250168D01*
X7182662Y11243564D01*
X7182764Y11074400D01*
X7189927Y11069116D01*
X7268667Y11068507D01*
X7276998Y11076076D01*
X7276998Y11238941D01*
X7272528Y11247272D01*
G37*
G36*
X7139940Y11251082D02*
G01*
X7063231Y11250168D01*
X7057288Y11242040D01*
X7057288Y11076076D01*
X7066076Y11068100D01*
X7144715Y11068100D01*
X7153554Y11076076D01*
X7153554Y11236299D01*
X7149388Y11247120D01*
G37*
G36*
X6888835Y11250980D02*
G01*
X6814667Y11250168D01*
X6807200Y11242700D01*
X6805980Y11082731D01*
X6808419Y11073028D01*
X6822389Y11067186D01*
X6893610Y11068100D01*
X6902399Y11076076D01*
X6902348Y11237620D01*
X6899909Y11246815D01*
G37*
G36*
X7012279Y11250930D02*
G01*
X6938619Y11250168D01*
X6931710Y11244427D01*
X6931710Y11075517D01*
X6941159Y11069472D01*
X6996277Y11066526D01*
X7019950Y11069472D01*
X7027976Y11077498D01*
X7027925Y11237620D01*
X7022693Y11247882D01*
G37*
G36*
X6763258Y11250828D02*
G01*
X6686550Y11250168D01*
X6680606Y11242040D01*
X6680606Y11077956D01*
X6688581Y11068100D01*
X6769557Y11069370D01*
X6776872Y11077956D01*
X6776872Y11242040D01*
X6771640Y11248745D01*
G37*
G36*
X6512153Y11250777D02*
G01*
X6437985Y11250168D01*
X6431026Y11243157D01*
X6429857Y11078565D01*
X6433718Y11071352D01*
X6449720Y11066576D01*
X6517233Y11068100D01*
X6526072Y11076940D01*
X6526784Y11242192D01*
X6521246Y11248847D01*
G37*
G36*
X2456535Y11217910D02*
G01*
X2435606Y11216335D01*
X2413914Y11202873D01*
X2405278Y11184991D01*
X2405278Y11163147D01*
X2413762Y11146536D01*
X2433269Y11132362D01*
X2452370Y11129924D01*
X2468168Y11133582D01*
X2486558Y11148669D01*
X2493772Y11167567D01*
X2489149Y11195304D01*
X2477465Y11207800D01*
G37*
G36*
X5088026Y11207699D02*
G01*
X5054650Y11206175D01*
X5043068Y11194440D01*
X5062677Y11176914D01*
X5060848Y11096955D01*
X5069535Y11085880D01*
X5077155Y11085880D01*
X5086146Y11093196D01*
X5086197Y11177981D01*
X5096205Y11184534D01*
X5105857Y11183162D01*
X5107940Y11168583D01*
X5119674Y11162995D01*
X5129936Y11169700D01*
X5129936Y11177422D01*
X5136134Y11182604D01*
X5142484Y11180165D01*
X5142484Y11165535D01*
X5111089Y11134242D01*
X5106924Y11123269D01*
X5106924Y11096802D01*
X5114239Y11087760D01*
X5144414Y11083594D01*
X5160924Y11088014D01*
X5170170Y11095532D01*
X5166563Y11122456D01*
X5154828Y11128044D01*
X5144566Y11121339D01*
X5144566Y11113871D01*
X5139029Y11106251D01*
X5129936Y11111128D01*
X5129936Y11117427D01*
X5136692Y11127740D01*
X5169306Y11160150D01*
X5168544Y11194491D01*
X5158689Y11204956D01*
X5149799Y11206683D01*
X5130393Y11207242D01*
X5108702Y11200231D01*
G37*
G36*
X5216753Y11206632D02*
G01*
X5189575Y11204600D01*
X5176113Y11196523D01*
X5173370Y11181892D01*
X5174412Y11161572D01*
X5198973Y11161572D01*
X5202224Y11181080D01*
X5208422Y11182096D01*
X5216144Y11177524D01*
X5213197Y11153902D01*
X5208422Y11150803D01*
X5203088Y11150752D01*
X5198973Y11161572D01*
X5174412Y11161572D01*
X5175250Y11145977D01*
X5189270Y11134547D01*
X5181701Y11109960D01*
X5176469Y11103660D01*
X5173827Y11095075D01*
X5179110Y11088217D01*
X5189728Y11085626D01*
X5200751Y11094313D01*
X5203444Y11106607D01*
X5212130Y11117630D01*
X5215686Y11112042D01*
X5215737Y11092688D01*
X5220970Y11088573D01*
X5230114Y11086338D01*
X5238750Y11092383D01*
X5238750Y11195964D01*
X5233162Y11203635D01*
G37*
G36*
X3671773Y11198860D02*
G01*
X3659022Y11186972D01*
X3658963Y11163249D01*
X3685794Y11163249D01*
X3690315Y11171682D01*
X3768648Y11171428D01*
X3763440Y11169345D01*
X3791051Y11169345D01*
X3793388Y11171682D01*
X3952798Y11171631D01*
X3959098Y11167668D01*
X3960063Y11078718D01*
X3953764Y11069116D01*
X3910939Y11069878D01*
X3941165Y11072266D01*
X3951732Y11086693D01*
X3951732Y11152987D01*
X3945940Y11166856D01*
X3927551Y11169396D01*
X3850284Y11167008D01*
X3841902Y11159947D01*
X3823563Y11148263D01*
X3810914Y11150752D01*
X3791051Y11169345D01*
X3763440Y11169345D01*
X3758437Y11167364D01*
X3704183Y11168227D01*
X3694379Y11156797D01*
X3694379Y11084814D01*
X3707167Y11070894D01*
X3787495Y11070894D01*
X3783040Y11069116D01*
X3792829Y11069116D01*
X3795420Y11076482D01*
X3806291Y11088370D01*
X3817620Y11094262D01*
X3825138Y11094059D01*
X3847642Y11077600D01*
X3852367Y11071352D01*
X3892092Y11070031D01*
X3783040Y11069116D01*
X3782263Y11068812D01*
X3777030Y11070894D01*
X3770731Y11070894D01*
X3765499Y11068812D01*
X3760266Y11070894D01*
X3707167Y11070894D01*
X3709314Y11068558D01*
X3691382Y11070945D01*
X3686403Y11077702D01*
X3685794Y11163249D01*
X3658963Y11163249D01*
X3658768Y11063528D01*
X3661410Y11050117D01*
X3673195Y11044021D01*
X3974541Y11044021D01*
X3985209Y11053419D01*
X3986123Y11188242D01*
X3976115Y11198860D01*
G37*
G36*
X4581093Y11195202D02*
G01*
X4549190Y11192205D01*
X4534560Y11192408D01*
X4499406Y11195151D01*
X4483709Y11190478D01*
X4481220Y11183924D01*
X4492752Y11172342D01*
X4497984Y11170615D01*
X4499000Y11087608D01*
X4507128Y11081715D01*
X4513884Y11081715D01*
X4522012Y11087608D01*
X4524095Y11170462D01*
X4535474Y11176863D01*
X4539996Y11172291D01*
X4540128Y11162284D01*
X4563364Y11162284D01*
X4565294Y11171377D01*
X4570120Y11173206D01*
X4578096Y11170361D01*
X4578192Y11166703D01*
X4631131Y11166703D01*
X4634230Y11171682D01*
X4641646Y11171682D01*
X4644440Y11168888D01*
X4644440Y11120424D01*
X4667504Y11120424D01*
X4668062Y11167211D01*
X4671568Y11172748D01*
X4671608Y11163503D01*
X4694631Y11163503D01*
X4694631Y11169446D01*
X4701997Y11173206D01*
X4707229Y11171326D01*
X4707229Y11159490D01*
X4704689Y11152835D01*
X4699508Y11152835D01*
X4694631Y11163503D01*
X4671608Y11163503D01*
X4671618Y11149685D01*
X4680000Y11144453D01*
X4680000Y11138154D01*
X4671618Y11122558D01*
X4671568Y11114125D01*
X4667504Y11120424D01*
X4644440Y11120424D01*
X4644440Y11107115D01*
X4637836Y11100511D01*
X4634433Y11100511D01*
X4632147Y11106454D01*
X4631131Y11166703D01*
X4578192Y11166703D01*
X4579670Y11108842D01*
X4575200Y11100511D01*
X4567224Y11100511D01*
X4563973Y11105743D01*
X4563364Y11162284D01*
X4540128Y11162284D01*
X4540961Y11095278D01*
X4548682Y11083747D01*
X4559655Y11080851D01*
X4589983Y11081004D01*
X4598873Y11089030D01*
X4603038Y11099495D01*
X4605731Y11092688D01*
X4619599Y11081054D01*
X4657852Y11081766D01*
X4667453Y11090808D01*
X4667504Y11103660D01*
X4671568Y11109960D01*
X4671602Y11107470D01*
X4694631Y11107470D01*
X4694631Y11120526D01*
X4701184Y11129822D01*
X4704689Y11129822D01*
X4707229Y11123218D01*
X4707229Y11105540D01*
X4702251Y11100562D01*
X4694631Y11107470D01*
X4671602Y11107470D01*
X4671771Y11095278D01*
X4681931Y11082883D01*
X4718710Y11079988D01*
X4732324Y11085677D01*
X4732731Y11095278D01*
X4732020Y11187226D01*
X4729784Y11190782D01*
X4720793Y11194440D01*
X4695647Y11194694D01*
X4681372Y11190579D01*
X4669891Y11179606D01*
X4657344Y11193627D01*
X4616907Y11193627D01*
X4602632Y11178082D01*
X4596384Y11190173D01*
G37*
G36*
X3306470Y11194694D02*
G01*
X3298850Y11187785D01*
X3298850Y11123523D01*
X3307232Y11115192D01*
X3319322Y11115192D01*
X3329178Y11123168D01*
X3330244Y11154562D01*
X3345942Y11147145D01*
X3366871Y11144453D01*
X3372104Y11137392D01*
X3372104Y11119510D01*
X3385058Y11104727D01*
X3390137Y11104727D01*
X3402431Y11117529D01*
X3403803Y11164519D01*
X3395573Y11174679D01*
X3351225Y11176355D01*
X3330244Y11165382D01*
X3329787Y11170615D01*
X3330448Y11179251D01*
X3326079Y11190630D01*
X3316630Y11194440D01*
G37*
G36*
X3211525Y11194694D02*
G01*
X3200501Y11186007D01*
X3200501Y11124285D01*
X3210509Y11114887D01*
X3224123Y11116208D01*
X3232912Y11128044D01*
X3231896Y11183010D01*
X3229711Y11189919D01*
X3220364Y11194389D01*
G37*
G36*
X3161182Y11194694D02*
G01*
X3152800Y11187379D01*
X3148330Y11162284D01*
X3151784Y11122812D01*
X3161182Y11115192D01*
X3172917Y11115192D01*
X3184042Y11128400D01*
X3182670Y11186718D01*
X3172815Y11194694D01*
G37*
G36*
X3266389Y11194592D02*
G01*
X3254248Y11192560D01*
X3248609Y11187887D01*
X3248609Y11123828D01*
X3259632Y11115192D01*
X3271316Y11115192D01*
X3280003Y11126216D01*
X3280003Y11179759D01*
X3275888Y11190630D01*
G37*
G36*
X4165854Y11175847D02*
G01*
X4152646Y11171275D01*
X4150106Y11161166D01*
X4154881Y11155375D01*
X4173982Y11150600D01*
X4290364Y11151616D01*
X4297019Y11146028D01*
X4297019Y11115903D01*
X4307128Y11106404D01*
X4315968Y11109198D01*
X4322267Y11118850D01*
X4321098Y11170513D01*
X4310634Y11175796D01*
G37*
G36*
X4078986Y11175847D02*
G01*
X4040682Y11175796D01*
X4031284Y11173307D01*
X4026763Y11158067D01*
X4028135Y11088116D01*
X4035602Y11080648D01*
X4111345Y11079327D01*
X4122826Y11084052D01*
X4127296Y11093907D01*
X4127347Y11165789D01*
X4117238Y11175847D01*
G37*
G36*
X3096869Y11175847D02*
G01*
X3082848Y11171834D01*
X3077159Y11164366D01*
X3077057Y11120424D01*
X3085338Y11107877D01*
X3085388Y11103152D01*
X3063697Y11101070D01*
X3056077Y11091672D01*
X3056077Y11081512D01*
X3066338Y11071250D01*
X3128518Y11071250D01*
X3135884Y11076584D01*
X3138170Y11093602D01*
X3126689Y11102594D01*
X3100019Y11102594D01*
X3100019Y11108029D01*
X3108401Y11124438D01*
X3108401Y11137392D01*
X3113633Y11144453D01*
X3134563Y11147044D01*
X3144215Y11153089D01*
X3142945Y11170513D01*
X3132480Y11175796D01*
G37*
G36*
X2532786Y11157051D02*
G01*
X2518257Y11150955D01*
X2514193Y11140287D01*
X2516835Y11093907D01*
X2526182Y11087811D01*
X2660904Y11089030D01*
X2666847Y11097158D01*
X2666847Y11148009D01*
X2659532Y11154410D01*
X2653233Y11156696D01*
G37*
G36*
X3357321Y11102644D02*
G01*
X3342792Y11096548D01*
X3342792Y11077752D01*
X3352088Y11071250D01*
X3414979Y11071352D01*
X3423259Y11077600D01*
X3423259Y11094720D01*
X3413810Y11102340D01*
G37*
G36*
X3161030Y11098428D02*
G01*
X3152343Y11087404D01*
X3152343Y10935868D01*
X3161131Y10927892D01*
X3319119Y10926673D01*
X3329178Y10934852D01*
X3329178Y11090452D01*
X3319322Y11098428D01*
G37*
G36*
X4344111Y11083391D02*
G01*
X4268165Y11082731D01*
X4259376Y11074755D01*
X4259376Y10998454D01*
X4267352Y10988548D01*
X4351324Y10988548D01*
X4358792Y10996015D01*
X4360113Y11071555D01*
X4353661Y11081410D01*
G37*
G36*
X5214975Y11073485D02*
G01*
X5056886Y11072266D01*
X5051450Y11066830D01*
X5050332Y11011611D01*
X5048199Y11002111D01*
X5035397Y11011611D01*
X4987188Y11012982D01*
X4975047Y11001400D01*
X4975047Y10624769D01*
X5008372Y10624769D01*
X5008626Y10977981D01*
X5012029Y10981334D01*
X5034686Y10983925D01*
X5046319Y10989767D01*
X5050383Y10987278D01*
X5050383Y10966297D01*
X5062778Y10953902D01*
X5217363Y10955070D01*
X5226202Y10963046D01*
X5226253Y10980216D01*
X5228793Y10989614D01*
X5231434Y10989259D01*
X5243982Y10983518D01*
X5263083Y10983315D01*
X5271160Y10977422D01*
X5272227Y10626852D01*
X5265318Y10619232D01*
X5248148Y10619130D01*
X5229961Y10610850D01*
X5226202Y10613186D01*
X5226202Y10634065D01*
X5215382Y10644073D01*
X5074462Y10645394D01*
X5060442Y10642600D01*
X5050028Y10632795D01*
X5052161Y10616742D01*
X5046827Y10604144D01*
X5044338Y10610596D01*
X5033924Y10617454D01*
X5014366Y10618774D01*
X5008372Y10624769D01*
X4975047Y10624769D01*
X4975047Y10599064D01*
X4986832Y10587837D01*
X5032756Y10587837D01*
X5043068Y10594898D01*
X5046065Y10599318D01*
X5050078Y10595152D01*
X5051552Y10533532D01*
X5059832Y10527385D01*
X5080762Y10524947D01*
X5218176Y10526115D01*
X5226202Y10535970D01*
X5226202Y10593832D01*
X5230114Y10596270D01*
X5243982Y10587837D01*
X5286603Y10587837D01*
X5297068Y10591800D01*
X5301894Y10600842D01*
X5302300Y11002721D01*
X5290820Y11012627D01*
X5246928Y11012627D01*
X5229809Y11004346D01*
X5226202Y11006582D01*
X5226202Y11064646D01*
G37*
G36*
X4543806Y11073333D02*
G01*
X4533239Y11062817D01*
X4534154Y11008614D01*
X4528870Y11002213D01*
X4516475Y11012627D01*
X4468469Y11012627D01*
X4458157Y11002365D01*
X4458157Y10977168D01*
X4488840Y10977168D01*
X4493158Y10981486D01*
X4517694Y10983518D01*
X4527448Y10992612D01*
X4534509Y10988141D01*
X4534560Y10964164D01*
X4546295Y10954054D01*
X4692294Y10954054D01*
X4703978Y10958474D01*
X4707128Y10963452D01*
X4707280Y10982299D01*
X4709769Y10991697D01*
X4712462Y10991494D01*
X4722317Y10984585D01*
X4747056Y10981690D01*
X4753508Y10976305D01*
X4752390Y10626547D01*
X4746650Y10619536D01*
X4725009Y10616641D01*
X4713884Y10610951D01*
X4711954Y10605617D01*
X4708398Y10608970D01*
X4706721Y10638129D01*
X4697882Y10644327D01*
X4543806Y10644327D01*
X4532985Y10633506D01*
X4535424Y10613034D01*
X4528820Y10606430D01*
X4523028Y10614710D01*
X4509465Y10618825D01*
X4495647Y10618520D01*
X4489602Y10624566D01*
X4488840Y10977168D01*
X4458157Y10977168D01*
X4458157Y10598099D01*
X4468469Y10587837D01*
X4516475Y10587837D01*
X4528515Y10597997D01*
X4533950Y10594644D01*
X4533341Y10537647D01*
X4537760Y10529417D01*
X4553407Y10525048D01*
X4694885Y10525048D01*
X4707229Y10531449D01*
X4707280Y10593070D01*
X4710938Y10598861D01*
X4725365Y10587837D01*
X4771847Y10587837D01*
X4783582Y10597946D01*
X4783582Y11002518D01*
X4771847Y11012627D01*
X4726635Y11012627D01*
X4710887Y11001959D01*
X4708245Y11004600D01*
X4707737Y11062258D01*
X4704080Y11068456D01*
X4695698Y11073180D01*
G37*
G36*
X2524709Y11073333D02*
G01*
X2516174Y11064189D01*
X2516174Y11042040D01*
X2528874Y11035487D01*
X2660904Y11036706D01*
X2666847Y11044834D01*
X2666847Y11064646D01*
X2655824Y11073333D01*
G37*
G36*
X3353460Y11054486D02*
G01*
X3343198Y11045088D01*
X3340658Y11033810D01*
X3350818Y11022076D01*
X3413607Y11022076D01*
X3424377Y11032185D01*
X3424377Y11044224D01*
X3413302Y11054486D01*
G37*
G36*
X3070504Y11054486D02*
G01*
X3058261Y11048136D01*
X3055620Y11037671D01*
X3060750Y11025225D01*
X3076295Y11020552D01*
X3129178Y11022076D01*
X3135731Y11028629D01*
X3138220Y11043716D01*
X3127451Y11054486D01*
G37*
G36*
X2527198Y11023092D02*
G01*
X2515971Y11014252D01*
X2517241Y10990681D01*
X2529484Y10984839D01*
X2654808Y10985601D01*
X2666847Y10991799D01*
X2666847Y11010798D01*
X2662377Y11019129D01*
X2653233Y11022838D01*
G37*
G36*
X3890010Y11021364D02*
G01*
X3841902Y11018977D01*
X3831437Y11018824D01*
X3758895Y11019942D01*
X3750360Y11009477D01*
X3753256Y10969752D01*
X3759809Y10962487D01*
X3854450Y10961827D01*
X3892092Y10962640D01*
X3899306Y10969752D01*
X3900119Y11010595D01*
G37*
G36*
X2937865Y11018367D02*
G01*
X2902254Y11016640D01*
X2894685Y11007648D01*
X2896565Y10965535D01*
X2899511Y10952734D01*
X2892856Y10947247D01*
X2892856Y10940745D01*
X2899816Y10933074D01*
X2894533Y10917072D01*
X2893923Y10883747D01*
X2901137Y10872673D01*
X2920593Y10869777D01*
X2948330Y10872317D01*
X2955645Y10881258D01*
X2955645Y10919764D01*
X2949498Y10927892D01*
X2949346Y10933887D01*
X2958439Y10943590D01*
X2949346Y10953242D01*
X2949346Y10961878D01*
X2955645Y10967110D01*
X2955645Y11010036D01*
X2949651Y11015014D01*
G37*
G36*
X3383584Y11003838D02*
G01*
X3352495Y11002162D01*
X3342792Y10995812D01*
X3342792Y10979810D01*
X3351580Y10971834D01*
X3414318Y10971834D01*
X3424377Y10983569D01*
X3424377Y10993018D01*
X3418484Y11001146D01*
G37*
G36*
X3068929Y11002162D02*
G01*
X3058769Y10998301D01*
X3056026Y10991138D01*
X3058668Y10976914D01*
X3071266Y10970412D01*
X3129178Y10971834D01*
X3135934Y10978591D01*
X3138170Y10995304D01*
X3128416Y11002162D01*
G37*
G36*
X4037990Y10989614D02*
G01*
X4028135Y10981639D01*
X4026814Y10905998D01*
X4037380Y10895431D01*
X4118101Y10895584D01*
X4126484Y10901883D01*
X4127855Y10978997D01*
X4117238Y10989614D01*
G37*
G36*
X2524353Y10972850D02*
G01*
X2513584Y10962081D01*
X2516124Y10942523D01*
X2526690Y10933277D01*
X2655620Y10934242D01*
X2666847Y10941558D01*
X2666847Y10960608D01*
X2662021Y10969752D01*
X2657449Y10972800D01*
G37*
G36*
X4301388Y10962386D02*
G01*
X4297019Y10954308D01*
X4296968Y10925810D01*
X4293006Y10919510D01*
X4156964Y10917428D01*
X4150309Y10910722D01*
X4152950Y10900156D01*
X4163314Y10895431D01*
X4307230Y10895431D01*
X4318914Y10899902D01*
X4322114Y10904880D01*
X4322165Y10952734D01*
X4313072Y10962386D01*
G37*
G36*
X3389884Y10955578D02*
G01*
X3353765Y10954867D01*
X3342792Y10947654D01*
X3342792Y10929569D01*
X3350361Y10922711D01*
X3408730Y10921593D01*
X3419500Y10924641D01*
X3424377Y10935411D01*
X3424377Y10943031D01*
X3415893Y10953851D01*
G37*
G36*
X3105251Y10955274D02*
G01*
X3067608Y10953648D01*
X3057144Y10946282D01*
X3055874Y10933938D01*
X3065729Y10923270D01*
X3087471Y10920425D01*
X3087471Y10918088D01*
X3078175Y10910570D01*
X3075990Y10867644D01*
X3080766Y10856214D01*
X3090519Y10849406D01*
X3130397Y10849406D01*
X3143961Y10857738D01*
X3143961Y10869676D01*
X3135528Y10877346D01*
X3109468Y10882071D01*
X3106978Y10904982D01*
X3101797Y10914634D01*
X3088741Y10920120D01*
X3129889Y10923168D01*
X3137712Y10931042D01*
X3137712Y10944961D01*
X3128264Y10953800D01*
G37*
G36*
X3942334Y10938357D02*
G01*
X3670909Y10937798D01*
X3659835Y10929518D01*
X3659835Y10816742D01*
X3685997Y10816742D01*
X3685997Y10907674D01*
X3688537Y10914278D01*
X3701694Y10913872D01*
X3707450Y10912195D01*
X3732022Y10912195D01*
X3732022Y10911840D01*
X3777030Y10911636D01*
X3771245Y10910519D01*
X3785362Y10910519D01*
X3795826Y10913872D01*
X3846068Y10913872D01*
X3853832Y10911484D01*
X3900474Y10911433D01*
X3882593Y10909858D01*
X3866997Y10911484D01*
X3853832Y10911484D01*
X3856532Y10910671D01*
X3848201Y10907166D01*
X3825494Y10891266D01*
X3811676Y10891266D01*
X3790492Y10910112D01*
X3785362Y10910519D01*
X3771245Y10910519D01*
X3767531Y10909808D01*
X3760266Y10911687D01*
X3754018Y10911687D01*
X3746601Y10909757D01*
X3741420Y10911840D01*
X3732022Y10911840D01*
X3732022Y10910112D01*
X3729939Y10910112D01*
X3729939Y10912195D01*
X3707450Y10912195D01*
X3712159Y10910824D01*
X3701694Y10907522D01*
X3694379Y10901070D01*
X3694379Y10826343D01*
X3707942Y10817910D01*
X3791661Y10819079D01*
X3814673Y10836808D01*
X3824528Y10836859D01*
X3841140Y10823702D01*
X3856532Y10818215D01*
X3934764Y10818012D01*
X3945483Y10822076D01*
X3952951Y10834420D01*
X3949801Y10873689D01*
X3953154Y10886033D01*
X3949547Y10902746D01*
X3940810Y10910112D01*
X3910939Y10910570D01*
X3917238Y10911941D01*
X3951122Y10913567D01*
X3960114Y10910214D01*
X3960114Y10816742D01*
X3954170Y10808614D01*
X3691940Y10808614D01*
X3685997Y10816742D01*
X3659835Y10816742D01*
X3659835Y10795152D01*
X3667302Y10787684D01*
X3971594Y10786567D01*
X3983024Y10791240D01*
X3986022Y10800232D01*
X3984955Y10929975D01*
X3978808Y10936274D01*
G37*
G36*
X2531110Y10924743D02*
G01*
X2519426Y10920272D01*
X2516225Y10915345D01*
X2516174Y10893602D01*
X2525471Y10887100D01*
X2659176Y10887100D01*
X2666847Y10894009D01*
X2666847Y10915548D01*
X2661615Y10922152D01*
X2655366Y10924387D01*
G37*
G36*
X3389884Y10918190D02*
G01*
X3384296Y10916361D01*
X3380384Y10916361D01*
X3372104Y10902746D01*
X3372104Y10885474D01*
X3366871Y10881360D01*
X3348024Y10878870D01*
X3331514Y10870387D01*
X3328365Y10875467D01*
X3330651Y10892434D01*
X3324402Y10907420D01*
X3314547Y10909300D01*
X3301390Y10905896D01*
X3298647Y10898784D01*
X3298647Y10834471D01*
X3286302Y10817402D01*
X3286302Y10804398D01*
X3294481Y10791037D01*
X3306165Y10784941D01*
X3362096Y10785602D01*
X3374339Y10800232D01*
X3376929Y10810443D01*
X3371037Y10827308D01*
X3356406Y10837164D01*
X3335121Y10834522D01*
X3330600Y10840008D01*
X3327704Y10859516D01*
X3332175Y10867186D01*
X3332327Y10860024D01*
X3350463Y10849406D01*
X3392424Y10849406D01*
X3403447Y10858093D01*
X3403447Y10903559D01*
X3399332Y10914380D01*
G37*
G36*
X4609744Y10914278D02*
G01*
X4584801Y10907877D01*
X4555490Y10894009D01*
X4530699Y10871403D01*
X4517542Y10850473D01*
X4507788Y10823244D01*
X4507587Y10801553D01*
X4537964Y10801553D01*
X4541977Y10826546D01*
X4551680Y10848340D01*
X4575200Y10869879D01*
X4593132Y10878362D01*
X4609896Y10882884D01*
X4634992Y10882477D01*
X4650689Y10878769D01*
X4677511Y10861852D01*
X4694631Y10839145D01*
X4703521Y10815421D01*
X4701743Y10779302D01*
X4688332Y10752074D01*
X4675733Y10738662D01*
X4656124Y10725150D01*
X4628845Y10717580D01*
X4612589Y10717580D01*
X4587392Y10724083D01*
X4576419Y10730941D01*
X4555185Y10748619D01*
X4541977Y10773460D01*
X4537964Y10801553D01*
X4507587Y10801553D01*
X4507382Y10779302D01*
X4515256Y10756290D01*
X4524756Y10737291D01*
X4553407Y10707674D01*
X4574336Y10697210D01*
X4601514Y10687507D01*
X4643374Y10687659D01*
X4675479Y10701070D01*
X4693767Y10713212D01*
X4713224Y10732363D01*
X4724247Y10752074D01*
X4734204Y10777220D01*
X4732578Y10827918D01*
X4722571Y10852556D01*
X4710887Y10871047D01*
X4689398Y10891672D01*
X4671009Y10902492D01*
X4647590Y10910722D01*
X4622444Y10913618D01*
G37*
G36*
X5114239Y10912094D02*
G01*
X5089144Y10902645D01*
X5070856Y10893044D01*
X5045151Y10867186D01*
X5029352Y10835284D01*
X5023256Y10800384D01*
X5057749Y10800283D01*
X5057749Y10821212D01*
X5071211Y10848340D01*
X5087569Y10867186D01*
X5115255Y10881309D01*
X5151882Y10882731D01*
X5170525Y10878312D01*
X5191658Y10864596D01*
X5204561Y10850473D01*
X5212892Y10835792D01*
X5219903Y10815167D01*
X5219852Y10785602D01*
X5213553Y10764723D01*
X5203494Y10749991D01*
X5189575Y10735310D01*
X5176367Y10725962D01*
X5149799Y10717631D01*
X5128717Y10717580D01*
X5104485Y10723880D01*
X5087010Y10736021D01*
X5069433Y10754207D01*
X5057800Y10779302D01*
X5057749Y10800283D01*
X5023272Y10800283D01*
X5027726Y10773003D01*
X5034635Y10754207D01*
X5046319Y10732617D01*
X5072837Y10707776D01*
X5091226Y10697514D01*
X5118354Y10687405D01*
X5160264Y10687710D01*
X5187492Y10698378D01*
X5208422Y10710011D01*
X5232400Y10734344D01*
X5240731Y10750702D01*
X5251297Y10778744D01*
X5251297Y10823803D01*
X5240832Y10851540D01*
X5229707Y10869269D01*
X5205222Y10893298D01*
X5187492Y10902746D01*
X5164429Y10911992D01*
G37*
G36*
X3257905Y10907979D02*
G01*
X3248609Y10901476D01*
X3248609Y10837164D01*
X3255213Y10830560D01*
X3273653Y10830560D01*
X3280308Y10840770D01*
X3278936Y10902086D01*
X3270859Y10907979D01*
G37*
G36*
X3208832Y10907979D02*
G01*
X3200501Y10899648D01*
X3200501Y10839856D01*
X3207004Y10830560D01*
X3222752Y10830560D01*
X3231743Y10840110D01*
X3232302Y10894415D01*
X3227984Y10905490D01*
X3222447Y10907674D01*
G37*
G36*
X3159404Y10907979D02*
G01*
X3151733Y10902391D01*
X3149092Y10858804D01*
X3152089Y10836300D01*
X3156000Y10832338D01*
X3170326Y10829137D01*
X3179318Y10832439D01*
X3183585Y10848340D01*
X3182569Y10900105D01*
X3172815Y10907979D01*
G37*
G36*
X5497169Y10901680D02*
G01*
X5481320Y10897311D01*
X5477306Y10886795D01*
X5477306Y10817809D01*
X5487568Y10807547D01*
X5652617Y10807547D01*
X5661050Y10814862D01*
X5662980Y10886033D01*
X5660237Y10896447D01*
X5649976Y10901680D01*
G37*
G36*
X2530703Y10874502D02*
G01*
X2516784Y10868710D01*
X2514193Y10855706D01*
X2516682Y10843209D01*
X2523083Y10837875D01*
X2658872Y10837875D01*
X2666847Y10847781D01*
X2666847Y10865358D01*
X2661615Y10871962D01*
X2655366Y10874197D01*
G37*
G36*
X4193438Y10857433D02*
G01*
X4185107Y10854842D01*
X4128363Y10856010D01*
X4118406Y10847933D01*
X4119422Y10806582D01*
X4125925Y10799368D01*
X4143248Y10796879D01*
X4176725Y10800740D01*
X4193133Y10795254D01*
X4201820Y10800181D01*
X4257497Y10798708D01*
X4265676Y10806125D01*
X4265676Y10847324D01*
X4256735Y10856264D01*
X4201820Y10854182D01*
G37*
G36*
X2653233Y10824159D02*
G01*
X2525572Y10823143D01*
X2518359Y10819688D01*
X2514295Y10804956D01*
X2516733Y10792764D01*
X2525471Y10786618D01*
X2657551Y10786618D01*
X2666847Y10793120D01*
X2666847Y10812018D01*
X2662377Y10820349D01*
G37*
G36*
X5488381Y10778236D02*
G01*
X5477306Y10767974D01*
X5477306Y10699343D01*
X5481726Y10686745D01*
X5492140Y10681970D01*
X5649112Y10681970D01*
X5661456Y10688370D01*
X5661812Y10733278D01*
X5663387Y10768177D01*
X5653278Y10778236D01*
G37*
G36*
X2533954Y10774070D02*
G01*
X2518308Y10769701D01*
X2514092Y10761776D01*
X2514092Y10747654D01*
X2522575Y10738561D01*
X2531872Y10736224D01*
X2656738Y10737443D01*
X2664764Y10747349D01*
X2664764Y10761776D01*
X2660294Y10770108D01*
X2651150Y10773816D01*
G37*
G36*
X3890670Y10763046D02*
G01*
X3761028Y10762996D01*
X3751884Y10755579D01*
X3752697Y10710621D01*
X3759352Y10703966D01*
X3841902Y10705134D01*
X3874414Y10702442D01*
X3893108Y10705287D01*
X3899458Y10711586D01*
X3899458Y10751312D01*
X3894632Y10760456D01*
G37*
G36*
X4116324Y10749178D02*
G01*
X4035602Y10747908D01*
X4028135Y10740440D01*
X4026814Y10670590D01*
X4029252Y10657535D01*
X4039819Y10652709D01*
X4117238Y10652709D01*
X4128058Y10663478D01*
X4126280Y10741101D01*
G37*
G36*
X4304385Y10748721D02*
G01*
X4159554Y10747908D01*
X4153103Y10742523D01*
X4150969Y10734344D01*
X4159250Y10723829D01*
X4286300Y10723829D01*
X4296613Y10719917D01*
X4298137Y10685983D01*
X4304385Y10682071D01*
X4314494Y10681970D01*
X4322165Y10688929D01*
X4322165Y10737697D01*
X4316933Y10744860D01*
G37*
G36*
X2643479Y10726978D02*
G01*
X2526182Y10726115D01*
X2516174Y10719562D01*
X2516174Y10698530D01*
X2526690Y10688066D01*
X2658059Y10689336D01*
X2666847Y10697311D01*
X2666847Y10719155D01*
X2661005Y10723981D01*
G37*
G36*
X3299561Y10716056D02*
G01*
X3284626Y10711129D01*
X3282137Y10701883D01*
X3282086Y10665714D01*
X3290112Y10655858D01*
X3358489Y10657230D01*
X3375202Y10657382D01*
X3411118Y10654233D01*
X3426460Y10659313D01*
X3432454Y10667847D01*
X3430117Y10706049D01*
X3425596Y10711738D01*
X3417062Y10715294D01*
X3343808Y10713212D01*
G37*
G36*
X3158642Y10714786D02*
G01*
X3030626Y10714431D01*
X3022600Y10704525D01*
X3022600Y10665256D01*
X3030626Y10657230D01*
X3058515Y10654284D01*
X3078073Y10657484D01*
X3088538Y10657128D01*
X3160572Y10655858D01*
X3168040Y10663275D01*
X3170123Y10700715D01*
X3167888Y10710214D01*
G37*
G36*
X3967429Y10681411D02*
G01*
X3667302Y10680954D01*
X3659835Y10673486D01*
X3658644Y10558780D01*
X3685997Y10558780D01*
X3685997Y10652455D01*
X3695192Y10658906D01*
X3950715Y10658703D01*
X3960114Y10652201D01*
X3960114Y10558780D01*
X3955491Y10555884D01*
X3690975Y10555681D01*
X3685997Y10558780D01*
X3658644Y10558780D01*
X3658463Y10540542D01*
X3666794Y10530281D01*
X3969562Y10529062D01*
X3978910Y10531398D01*
X3985514Y10541457D01*
X3985666Y10671810D01*
X3978503Y10679684D01*
G37*
G36*
X2532430Y10673486D02*
G01*
X2518511Y10667644D01*
X2513584Y10649559D01*
X2516124Y10616234D01*
X2524302Y10608106D01*
X2546502Y10605465D01*
X2654046Y10605668D01*
X2665831Y10614456D01*
X2665831Y10665053D01*
X2660396Y10670489D01*
X2626055Y10672572D01*
G37*
G36*
X4268520Y10656874D02*
G01*
X4260443Y10650931D01*
X4259173Y10570057D01*
X4265320Y10561675D01*
X4348581Y10560354D01*
X4358792Y10568635D01*
X4360062Y10646359D01*
X4349546Y10656874D01*
G37*
G36*
X3772814Y10650270D02*
G01*
X3745636Y10648543D01*
X3704640Y10648492D01*
X3694379Y10638231D01*
X3694379Y10567009D01*
X3705656Y10559592D01*
X3774135Y10558068D01*
X3793388Y10560964D01*
X3809593Y10577372D01*
X3827526Y10577372D01*
X3849624Y10560862D01*
X3871315Y10558170D01*
X3942943Y10559592D01*
X3951630Y10567466D01*
X3951528Y10641126D01*
X3944823Y10648492D01*
X3851554Y10648492D01*
X3840378Y10644276D01*
X3825240Y10631779D01*
X3815181Y10631779D01*
X3793744Y10647324D01*
G37*
G36*
X5647842Y10650118D02*
G01*
X5485333Y10649559D01*
X5477154Y10639450D01*
X5477814Y10566603D01*
X5486400Y10558576D01*
X5499303Y10556544D01*
X5655564Y10557459D01*
X5663031Y10566704D01*
X5663285Y10639094D01*
X5657392Y10648188D01*
G37*
G36*
X2443988Y10631728D02*
G01*
X2423058Y10621822D01*
X2411780Y10609783D01*
X2405278Y10594238D01*
X2405278Y10573816D01*
X2417114Y10557459D01*
X2433269Y10545114D01*
X2457145Y10543387D01*
X2471978Y10548315D01*
X2488742Y10565028D01*
X2493568Y10588244D01*
X2490774Y10603534D01*
X2480106Y10619079D01*
X2462834Y10629188D01*
X2454452Y10631271D01*
G37*
G36*
X3147110Y10613999D02*
G01*
X3122015Y10613440D01*
X3111195Y10609122D01*
X3106521Y10612018D01*
X3034436Y10612983D01*
X3024682Y10603839D01*
X3024682Y10562691D01*
X3032658Y10554766D01*
X3165144Y10554766D01*
X3173272Y10563504D01*
X3173272Y10600182D01*
X3168396Y10610951D01*
X3159658Y10612831D01*
G37*
G36*
X2525268Y10596168D02*
G01*
X2516073Y10586364D01*
X2513533Y10565231D01*
X2516530Y10537240D01*
X2524556Y10529214D01*
X2655824Y10529214D01*
X2666847Y10537901D01*
X2666847Y10587532D01*
X2655824Y10596168D01*
G37*
G36*
X4040682Y10560608D02*
G01*
X4027068Y10552328D01*
X4027068Y10477398D01*
X4035094Y10467492D01*
X4119524Y10468000D01*
X4125874Y10474350D01*
X4127093Y10549280D01*
X4122318Y10555681D01*
X4113936Y10560507D01*
G37*
G36*
X4308094Y10535513D02*
G01*
X4297019Y10526826D01*
X4296968Y10496804D01*
X4293006Y10490504D01*
X4158081Y10489336D01*
X4150563Y10482529D01*
X4150563Y10476890D01*
X4158945Y10468559D01*
X4312869Y10468559D01*
X4322165Y10475061D01*
X4322165Y10526826D01*
X4311142Y10535513D01*
G37*
G36*
X5493867Y10529214D02*
G01*
X5481624Y10522915D01*
X5477306Y10514838D01*
X5477306Y10439349D01*
X5489651Y10432948D01*
X5652617Y10432948D01*
X5661609Y10440263D01*
X5663539Y10514330D01*
X5659424Y10525150D01*
X5649976Y10528960D01*
G37*
G36*
X2634030Y10522966D02*
G01*
X2626156Y10514228D01*
X2623972Y10473588D01*
X2611374Y10455960D01*
X2617673Y10444886D01*
X2634437Y10439044D01*
X2647289Y10441381D01*
X2656382Y10449864D01*
X2656382Y10514584D01*
X2648000Y10522966D01*
G37*
G36*
X3094532Y10512501D02*
G01*
X3086811Y10506811D01*
X3071774Y10510316D01*
X3046679Y10510316D01*
X3030372Y10506506D01*
X3024073Y10500207D01*
X3024378Y10464444D01*
X3026968Y10456265D01*
X3041142Y10451592D01*
X3109468Y10454284D01*
X3115716Y10454081D01*
X3155899Y10451287D01*
X3170682Y10456164D01*
X3173272Y10469067D01*
X3173272Y10501376D01*
X3164433Y10509351D01*
X3104591Y10509351D01*
X3101441Y10512501D01*
G37*
G36*
X2559100Y10506456D02*
G01*
X2434945Y10505186D01*
X2410663Y10488422D01*
X2398064Y10469676D01*
X2396439Y10444175D01*
X2407310Y10422737D01*
X2421077Y10412272D01*
X2439822Y10403738D01*
X2563266Y10403687D01*
X2586278Y10414406D01*
X2596083Y10423550D01*
X2603601Y10438180D01*
X2603042Y10474452D01*
X2590292Y10490504D01*
G37*
G36*
X3891127Y10505795D02*
G01*
X3759250Y10505643D01*
X3751884Y10500258D01*
X3751630Y10459110D01*
X3753459Y10453725D01*
X3766565Y10446969D01*
X3800043Y10447934D01*
X3848150Y10447680D01*
X3885844Y10446918D01*
X3895140Y10451896D01*
X3899204Y10459466D01*
X3900220Y10498429D01*
G37*
G36*
X2088235Y10505744D02*
G01*
X2050542Y10503966D01*
X2024684Y10491927D01*
X2014372Y10475874D01*
X2009292Y10459821D01*
X1998268Y10462564D01*
X1989785Y10470438D01*
X1860143Y10471658D01*
X1852828Y10475264D01*
X1852828Y10435082D01*
X1855165Y10435082D01*
X1864309Y10440111D01*
X1988362Y10441330D01*
X2006600Y10449509D01*
X2011172Y10444480D01*
X2018131Y10425480D01*
X2035962Y10410545D01*
X2049322Y10403687D01*
X2126691Y10403687D01*
X2138426Y10408158D01*
X2160219Y10424922D01*
X2167178Y10443159D01*
X2165604Y10474147D01*
X2151024Y10493298D01*
X2132177Y10502849D01*
G37*
G36*
X2190038Y10470642D02*
G01*
X2177186Y10459821D01*
X2177186Y10447731D01*
X2187956Y10440619D01*
X2376474Y10441482D01*
X2388260Y10447578D01*
X2391003Y10452049D01*
X2388565Y10461193D01*
X2375001Y10470642D01*
G37*
G36*
X5076545Y10431068D02*
G01*
X5066080Y10425531D01*
X5063286Y10385856D01*
X5067452Y10374934D01*
X5077815Y10370210D01*
X5114239Y10370210D01*
X5127091Y10373868D01*
X5191658Y10368178D01*
X5204968Y10370616D01*
X5211876Y10378186D01*
X5213705Y10413085D01*
X5210200Y10425633D01*
X5200040Y10431018D01*
X5133086Y10428376D01*
X5122621Y10428681D01*
G37*
G36*
X4559655Y10430560D02*
G01*
X4548581Y10426344D01*
X4546092Y10413034D01*
X4546549Y10381894D01*
X4550968Y10372191D01*
X4559655Y10370159D01*
X4568037Y10369245D01*
X4634992Y10372547D01*
X4657445Y10368127D01*
X4686960Y10370870D01*
X4694631Y10378541D01*
X4694631Y10421721D01*
X4689398Y10428274D01*
X4683150Y10430256D01*
G37*
G36*
X4252061Y10428528D02*
G01*
X4212285Y10425836D01*
X4197654Y10426547D01*
X4180890Y10426395D01*
X4170426Y10426598D01*
X4128820Y10426649D01*
X4119168Y10420299D01*
X4119168Y10376763D01*
X4130395Y10367924D01*
X4199737Y10370413D01*
X4212285Y10370058D01*
X4257040Y10367822D01*
X4265676Y10376458D01*
X4265676Y10416489D01*
X4261205Y10424820D01*
G37*
G36*
X5643676Y10401452D02*
G01*
X5490159Y10400538D01*
X5478373Y10391698D01*
X5477205Y10313822D01*
X5489651Y10307421D01*
X5652617Y10307421D01*
X5662523Y10315397D01*
X5663946Y10385196D01*
X5658866Y10397439D01*
X5647842Y10399826D01*
G37*
G36*
X6792569Y10398912D02*
G01*
X6696303Y10397388D01*
X6352844Y10397388D01*
X6345631Y10392105D01*
X6344716Y9905796D01*
X6353098Y9899446D01*
X6836918Y9899345D01*
X6844893Y9908133D01*
X6844893Y10388600D01*
X6837019Y10397236D01*
G37*
G36*
X3824630Y10382758D02*
G01*
X3810965Y10380014D01*
X3800043Y10361930D01*
X3786428Y10361828D01*
X3786428Y10357866D01*
X3797960Y10352379D01*
X3798105Y10350296D01*
X3824528Y10350296D01*
X3828135Y10359745D01*
X3851401Y10359745D01*
X3856054Y10349534D01*
X3877462Y10349534D01*
X3887368Y10357612D01*
X3901236Y10357612D01*
X3904030Y10348823D01*
X3899306Y10344099D01*
X3882390Y10344556D01*
X3877462Y10349534D01*
X3856054Y10349534D01*
X3856380Y10348823D01*
X3848150Y10342727D01*
X3829354Y10345420D01*
X3824528Y10350296D01*
X3798105Y10350296D01*
X3800043Y10323118D01*
X3812590Y10321594D01*
X3913276Y10319766D01*
X3924554Y10328656D01*
X3924554Y10372293D01*
X3916172Y10380624D01*
X3882136Y10380624D01*
X3866997Y10376204D01*
X3850284Y10382453D01*
G37*
G36*
X3035300Y10381081D02*
G01*
X3022193Y10367975D01*
X3024682Y10361472D01*
X3024682Y10328351D01*
X3033471Y10319562D01*
X3090621Y10320070D01*
X3164535Y10319613D01*
X3173272Y10328351D01*
X3173272Y10370362D01*
X3162554Y10381081D01*
X3115716Y10378440D01*
X3082239Y10378643D01*
G37*
G36*
X3691229Y10367060D02*
G01*
X3641344Y10365994D01*
X3643477Y10363860D01*
X3687013Y10361980D01*
X3754018Y10364876D01*
G37*
G36*
X3557270Y10367060D02*
G01*
X3507079Y10365384D01*
X3497681Y10358678D01*
X3498748Y10352379D01*
X3507638Y10351109D01*
X3513328Y10364063D01*
X3559352Y10362844D01*
X3634689Y10364825D01*
G37*
G36*
X3603345Y10339882D02*
G01*
X3530092Y10338257D01*
X3522776Y10331856D01*
X3522776Y10295178D01*
X3625291Y10295178D01*
X3625342Y10300055D01*
X3639870Y10309504D01*
X3642055Y10309504D01*
X3642055Y10301427D01*
X3630523Y10293350D01*
X3625291Y10295178D01*
X3522776Y10295178D01*
X3522776Y10274706D01*
X3627374Y10274706D01*
X3627374Y10279938D01*
X3630523Y10281920D01*
X3642055Y10272725D01*
X3642055Y10263479D01*
X3639108Y10263479D01*
X3627374Y10274706D01*
X3522776Y10274706D01*
X3522776Y10243921D01*
X3529685Y10236250D01*
X3649370Y10236301D01*
X3655568Y10240213D01*
X3654247Y10255097D01*
X3656736Y10255097D01*
X3665626Y10249865D01*
X3680764Y10236250D01*
X3769664Y10236250D01*
X3778046Y10244632D01*
X3778046Y10332262D01*
X3768750Y10338816D01*
X3686251Y10338816D01*
X3676548Y10335056D01*
X3664915Y10324236D01*
X3656939Y10319969D01*
X3654348Y10324185D01*
X3656584Y10331450D01*
X3652672Y10337749D01*
G37*
G36*
X4190288Y10326928D02*
G01*
X4179976Y10322204D01*
X4135475Y10326116D01*
X4121759Y10320375D01*
X4119321Y10316413D01*
X4118711Y10275824D01*
X4126331Y10267391D01*
X4182973Y10268356D01*
X4192422Y10263327D01*
X4201820Y10268508D01*
X4255363Y10267289D01*
X4265676Y10273995D01*
X4265676Y10317226D01*
X4258310Y10323779D01*
X4247845Y10325709D01*
X4231132Y10325811D01*
X4206087Y10321696D01*
G37*
G36*
X3824020Y10313670D02*
G01*
X3800500Y10305440D01*
X3799128Y10304018D01*
X3796893Y10258348D01*
X3799027Y10251744D01*
X3910939Y10250576D01*
X3922115Y10254843D01*
X3924503Y10262463D01*
X3925265Y10300055D01*
X3919524Y10309250D01*
X3910939Y10313416D01*
X3897629Y10313670D01*
X3887114Y10309707D01*
X3882339Y10300766D01*
X3889298Y10293146D01*
X3900424Y10290352D01*
X3903573Y10285425D01*
X3903624Y10274350D01*
X3897020Y10271810D01*
X3831234Y10271810D01*
X3826205Y10276840D01*
X3826205Y10285628D01*
X3831234Y10290657D01*
X3844086Y10290657D01*
X3859682Y10277805D01*
X3866794Y10279176D01*
X3874719Y10292791D01*
X3871061Y10308386D01*
X3860698Y10313619D01*
G37*
G36*
X5491683Y10278110D02*
G01*
X5482539Y10273233D01*
X5477459Y10266578D01*
X5477306Y10194645D01*
X5487416Y10182910D01*
X5655056Y10182910D01*
X5662523Y10190378D01*
X5663488Y10263378D01*
X5659526Y10273741D01*
X5645759Y10277754D01*
G37*
G36*
X3162503Y10274452D02*
G01*
X3115716Y10271658D01*
X3103168Y10272420D01*
X3084322Y10271861D01*
X3034131Y10274401D01*
X3024632Y10266578D01*
X3023666Y10225481D01*
X3033979Y10217099D01*
X3088995Y10218420D01*
X3095802Y10212781D01*
X3111550Y10218826D01*
X3154324Y10216388D01*
X3167837Y10219182D01*
X3173272Y10226598D01*
X3173272Y10263632D01*
G37*
G36*
X4812893Y10252202D02*
G01*
X4494072Y10251948D01*
X4482236Y10243108D01*
X4481118Y10102850D01*
X4489196Y10092893D01*
X4820564Y10092893D01*
X4828590Y10102799D01*
X4828489Y10241483D01*
X4821275Y10250525D01*
G37*
G36*
X3800246Y10246461D02*
G01*
X3796690Y10244277D01*
X3799382Y10226192D01*
X3779824Y10217505D01*
X3522878Y10217404D01*
X3503523Y10224008D01*
X3497630Y10221722D01*
X3497630Y10215981D01*
X3505200Y10209174D01*
X3792778Y10208463D01*
X3801059Y10215981D01*
X3801059Y10223449D01*
X3805123Y10225938D01*
X3820972Y10218115D01*
X3848150Y10208361D01*
X3850132Y10206736D01*
X3847930Y10205364D01*
X3872229Y10205364D01*
X3872229Y10213238D01*
X3880612Y10221620D01*
X3898595Y10221620D01*
X3903624Y10216591D01*
X3903624Y10205313D01*
X3897020Y10202773D01*
X3881628Y10202824D01*
X3872229Y10205364D01*
X3847930Y10205364D01*
X3843985Y10202824D01*
X3814927Y10202773D01*
X3805275Y10193680D01*
X3805275Y10188854D01*
X3815587Y10179151D01*
X3915156Y10179964D01*
X3923893Y10185704D01*
X3926484Y10216083D01*
X3923944Y10234523D01*
X3907891Y10244632D01*
X3877462Y10244378D01*
X3849166Y10229291D01*
X3829354Y10238181D01*
X3806291Y10242651D01*
G37*
G36*
X4193438Y10223804D02*
G01*
X4180890Y10221061D01*
X4128414Y10221925D01*
X4118660Y10214051D01*
X4119321Y10172700D01*
X4123690Y10167416D01*
X4138676Y10162438D01*
X4172508Y10165537D01*
X4256836Y10164064D01*
X4265676Y10172039D01*
X4265676Y10215219D01*
X4254957Y10222230D01*
X4199636Y10219740D01*
G37*
G36*
X2056536Y10179761D02*
G01*
X2034489Y10173208D01*
X2016048Y10156190D01*
X2011121Y10138968D01*
X2007362Y10133939D01*
X2000351Y10136581D01*
X1989886Y10143998D01*
X1852777Y10145217D01*
X1852828Y10108590D01*
X1855165Y10108590D01*
X1862785Y10112705D01*
X1984603Y10113060D01*
X2007819Y10125456D01*
X2013915Y10110825D01*
X2013915Y10107269D01*
X2029206Y10089438D01*
X2052675Y10078770D01*
X2121814Y10076688D01*
X2148941Y10089388D01*
X2160219Y10101275D01*
X2166721Y10116820D01*
X2166670Y10138968D01*
X2162098Y10155682D01*
X2142185Y10174986D01*
X2125878Y10179304D01*
G37*
G36*
X2563266Y10179507D02*
G01*
X2433523Y10178694D01*
X2408428Y10161981D01*
X2396490Y10139680D01*
X2395931Y10120122D01*
X2406294Y10099598D01*
X2416759Y10089896D01*
X2437688Y10078669D01*
X2563266Y10078262D01*
X2584196Y10087914D01*
X2596083Y10099192D01*
X2603754Y10114026D01*
X2601366Y10148671D01*
X2590241Y10165181D01*
X2574239Y10176052D01*
G37*
G36*
X3245459Y10164876D02*
G01*
X2945333Y10164064D01*
X2939186Y10157764D01*
X2936494Y10146842D01*
X2946908Y10134752D01*
X3247390Y10134142D01*
X3261207Y10147960D01*
X3258413Y10155682D01*
X3253994Y10161371D01*
G37*
G36*
X5509768Y10152176D02*
G01*
X5485079Y10149128D01*
X5477306Y10139527D01*
X5477357Y10071963D01*
X5479948Y10062413D01*
X5491734Y10056266D01*
X5646928Y10056266D01*
X5660898Y10062108D01*
X5663387Y10076180D01*
X5663387Y10141559D01*
X5654751Y10149433D01*
X5528564Y10151618D01*
G37*
G36*
X2367432Y10145217D02*
G01*
X2185162Y10143134D01*
X2177186Y10133228D01*
X2177237Y10124287D01*
X2180285Y10119715D01*
X2190750Y10113924D01*
X2370734Y10112451D01*
X2389581Y10122509D01*
X2390800Y10132822D01*
X2380437Y10142575D01*
G37*
G36*
X2626868Y10144150D02*
G01*
X2615031Y10138054D01*
X2612339Y10131044D01*
X2615031Y10122204D01*
X2626055Y10110419D01*
X2624886Y10075214D01*
X2633472Y10058400D01*
X2640685Y10058095D01*
X2632303Y10054488D01*
X2523083Y10054183D01*
X2516479Y10046868D01*
X2515514Y9995306D01*
X2525572Y9985451D01*
X2594660Y9984587D01*
X2658465Y9985146D01*
X2666847Y9993528D01*
X2666847Y10047681D01*
X2657551Y10054183D01*
X2648712Y10054183D01*
X2646172Y10056723D01*
X2656382Y10072928D01*
X2656382Y10133888D01*
X2646121Y10144150D01*
G37*
G36*
X3290773Y10128605D02*
G01*
X3177387Y10127437D01*
X3170123Y10115499D01*
X3172206Y9977831D01*
X3185210Y9973614D01*
X3298698Y9973614D01*
X3305403Y9980371D01*
X3304997Y10116972D01*
X3302406Y10123728D01*
G37*
G36*
X3012389Y10128504D02*
G01*
X2899918Y10127437D01*
X2890774Y10118902D01*
X2890774Y9981590D01*
X2899562Y9973614D01*
X3017977Y9973614D01*
X3026816Y9981590D01*
X3026460Y10115905D01*
X3020263Y10125557D01*
G37*
G36*
X5042052Y10119055D02*
G01*
X5033670Y10110673D01*
X5033670Y9627311D01*
X5065064Y9627311D01*
X5065064Y10082631D01*
X5070094Y10087660D01*
X5081270Y10087660D01*
X5086248Y10081666D01*
X5081778Y10073284D01*
X5081778Y9913772D01*
X5092090Y9903510D01*
X5246065Y9903053D01*
X5256530Y9903866D01*
X5264912Y9911994D01*
X5264251Y10074097D01*
X5262829Y10086644D01*
X5278272Y10087914D01*
X5284063Y10078262D01*
X5283758Y9624872D01*
X5275630Y9618929D01*
X5073446Y9618929D01*
X5065064Y9627311D01*
X5033670Y9627311D01*
X5033670Y9567316D01*
X5044440Y9557156D01*
X5300472Y9556140D01*
X5310581Y9561372D01*
X5315864Y9576003D01*
X5316118Y10104729D01*
X5309971Y10116616D01*
X5304688Y10118750D01*
G37*
G36*
X4012234Y10119055D02*
G01*
X4002328Y10109098D01*
X4002328Y9628073D01*
X4033367Y9628073D01*
X4034434Y10084460D01*
X4046118Y10088575D01*
X4053230Y10083952D01*
X4051401Y10076180D01*
X4049979Y9919208D01*
X4052265Y9909860D01*
X4064558Y9903510D01*
X4224070Y9903510D01*
X4231843Y9907676D01*
X4236313Y9921290D01*
X4234586Y10074097D01*
X4233214Y10086644D01*
X4245762Y10087660D01*
X4253077Y10083292D01*
X4253077Y9627311D01*
X4244746Y9618929D01*
X4041901Y9618929D01*
X4033367Y9628073D01*
X4002328Y9628073D01*
X4002328Y9568535D01*
X4012082Y9557156D01*
X4264609Y9555937D01*
X4280509Y9560560D01*
X4284472Y9571075D01*
X4284370Y10107574D01*
X4277156Y10116464D01*
X4270908Y10118750D01*
G37*
G36*
X3140862Y10114686D02*
G01*
X3130397Y10112502D01*
X3124250Y10106507D01*
X3122015Y10072014D01*
X3115462Y10070795D01*
X3087776Y10089337D01*
X3068066Y10104424D01*
X3054350Y10104424D01*
X3047542Y10101834D01*
X3042107Y10090810D01*
X3041510Y10045801D01*
X3074619Y10045801D01*
X3075990Y10054894D01*
X3080410Y10056368D01*
X3083306Y10053472D01*
X3083306Y10045801D01*
X3041510Y10045801D01*
X3041345Y10032238D01*
X3043986Y10003840D01*
X3056788Y9997236D01*
X3072282Y10001859D01*
X3099968Y10020452D01*
X3114040Y10031171D01*
X3123031Y10031171D01*
X3123031Y9998456D01*
X3135122Y9986924D01*
X3146704Y9988296D01*
X3154730Y9999014D01*
X3154324Y10102799D01*
X3150006Y10110927D01*
G37*
G36*
X3835603Y10106456D02*
G01*
X3755136Y10105440D01*
X3747008Y10097109D01*
X3744010Y10038486D01*
X3746804Y9963302D01*
X3755745Y9953752D01*
X3839768Y9953853D01*
X3849624Y9961372D01*
X3849166Y10028021D01*
X3852367Y10023195D01*
X3875379Y10015372D01*
X3880612Y10012070D01*
X3880612Y9573717D01*
X3875582Y9568688D01*
X3856126Y9568688D01*
X3848912Y9576663D01*
X3849522Y9603232D01*
X3849217Y9608667D01*
X3826205Y9618878D01*
X3825595Y9628327D01*
X3826560Y9657638D01*
X3817518Y9669119D01*
X3788511Y9669119D01*
X3780129Y9660788D01*
X3780129Y9619081D01*
X3772052Y9614712D01*
X3755847Y9614712D01*
X3746652Y9606178D01*
X3746652Y9577984D01*
X3740150Y9568688D01*
X3690162Y9568688D01*
X3675532Y9551974D01*
X3571697Y9551974D01*
X3557524Y9541510D01*
X3554272Y9541510D01*
X3554272Y9603638D01*
X3551478Y9610852D01*
X3541318Y9614712D01*
X3462324Y9614712D01*
X3451250Y9605213D01*
X3451250Y9469374D01*
X3459632Y9462617D01*
X3513328Y9459925D01*
X3547770Y9462566D01*
X3554882Y9470440D01*
X3553917Y9528962D01*
X3556304Y9532823D01*
X3574034Y9522561D01*
X3741928Y9523272D01*
X3746957Y9520123D01*
X3745636Y9469932D01*
X3755491Y9461957D01*
X3773220Y9461957D01*
X3779774Y9454642D01*
X3782872Y9429546D01*
X3782517Y9427514D01*
X3762705Y9422485D01*
X3752494Y9412224D01*
X3758234Y9400235D01*
X3780942Y9392920D01*
X3784295Y9387687D01*
X3784346Y9374378D01*
X3795369Y9365691D01*
X3803345Y9365691D01*
X3813657Y9375952D01*
X3813657Y9388398D01*
X3824681Y9397085D01*
X3834282Y9397085D01*
X3840835Y9403689D01*
X3840835Y9415119D01*
X3835552Y9422333D01*
X3816756Y9427870D01*
X3815537Y9435947D01*
X3826205Y9445955D01*
X3826205Y9454337D01*
X3833114Y9461957D01*
X3839921Y9461957D01*
X3849217Y9468459D01*
X3849217Y9522155D01*
X3857904Y9524441D01*
X3891330Y9521037D01*
X3906316Y9524441D01*
X3912666Y9530791D01*
X3911752Y10034320D01*
X3905758Y10043515D01*
X3892092Y10047274D01*
X3866692Y10044277D01*
X3857599Y10039400D01*
X3857599Y10035844D01*
X3849217Y10033660D01*
X3849166Y10097109D01*
X3845966Y10102138D01*
G37*
G36*
X3463137Y10106456D02*
G01*
X3452672Y10101173D01*
X3451504Y10042956D01*
X3446983Y10037572D01*
X3429609Y10046665D01*
X3401415Y10045954D01*
X3392830Y10041382D01*
X3388817Y10030917D01*
X3388817Y9537090D01*
X3394913Y9525254D01*
X3404514Y9522714D01*
X3431743Y9522663D01*
X3445306Y9530943D01*
X3445306Y9543389D01*
X3421278Y9557461D01*
X3421278Y9866884D01*
X3440734Y9869119D01*
X3461004Y9887661D01*
X3487775Y9913467D01*
X3487420Y9925507D01*
X3484676Y9940645D01*
X3500475Y9952685D01*
X3547668Y9954768D01*
X3552647Y9959746D01*
X3556254Y9981996D01*
X3553764Y10005009D01*
X3562705Y10016388D01*
X3731869Y10017556D01*
X3738981Y10024668D01*
X3738981Y10037673D01*
X3731869Y10044785D01*
X3572459Y10045954D01*
X3562654Y10039553D01*
X3554272Y10039553D01*
X3553104Y10101173D01*
X3542639Y10106456D01*
G37*
G36*
X2441905Y10041483D02*
G01*
X2419045Y10030104D01*
X2406650Y10014458D01*
X2404719Y9991293D01*
X2411831Y9972751D01*
X2426919Y9959492D01*
X2441651Y9953345D01*
X2458618Y9953091D01*
X2475992Y9961981D01*
X2488590Y9977272D01*
X2493365Y9996119D01*
X2488539Y10019233D01*
X2479040Y10028021D01*
X2467152Y10036403D01*
X2454452Y10041331D01*
G37*
G36*
X4980279Y10034320D02*
G01*
X4325315Y10033355D01*
X4316018Y10031120D01*
X4311294Y10022332D01*
X4310476Y9677857D01*
X4338523Y9677857D01*
X4339082Y10005009D01*
X4343298Y10009225D01*
X4948885Y10009225D01*
X4961483Y10008057D01*
X4970881Y10005974D01*
X4970729Y9678568D01*
X4965242Y9671304D01*
X4342282Y9671050D01*
X4338523Y9677857D01*
X4310476Y9677857D01*
X4310430Y9659721D01*
X4314088Y9648545D01*
X4327398Y9642551D01*
X4977638Y9641789D01*
X4991862Y9646462D01*
X4995976Y9654235D01*
X4995976Y10023957D01*
X4989677Y10033000D01*
G37*
G36*
X5489549Y10027005D02*
G01*
X5477306Y10014762D01*
X5477357Y9946436D01*
X5479745Y9937546D01*
X5489600Y9932263D01*
X5649976Y9932212D01*
X5659628Y9935260D01*
X5663539Y9945624D01*
X5663539Y10012121D01*
X5658764Y10022636D01*
X5647842Y10026650D01*
G37*
G36*
X2528925Y9978847D02*
G01*
X2518359Y9974021D01*
X2515971Y9966553D01*
X2515717Y9919970D01*
X2525268Y9909810D01*
X2656586Y9909810D01*
X2666847Y9920071D01*
X2666847Y9969703D01*
X2661615Y9976256D01*
X2655366Y9978542D01*
G37*
G36*
X3246577Y9969449D02*
G01*
X2951175Y9969246D01*
X2948330Y9965182D01*
X2936544Y9957663D01*
X2937865Y9944303D01*
X2952496Y9936988D01*
X3245459Y9937038D01*
X3258515Y9944963D01*
X3260699Y9956495D01*
G37*
G36*
X3622141Y9945319D02*
G01*
X3588664Y9934702D01*
X3569817Y9925659D01*
X3553104Y9913823D01*
X3535679Y9900361D01*
X3516274Y9876332D01*
X3501339Y9850170D01*
X3489706Y9814560D01*
X3486912Y9779000D01*
X3489642Y9762286D01*
X3519830Y9762286D01*
X3520236Y9809073D01*
X3527602Y9831324D01*
X3540607Y9856419D01*
X3554171Y9874859D01*
X3578910Y9896297D01*
X3603345Y9907371D01*
X3630828Y9916058D01*
X3674465Y9915906D01*
X3687419Y9910267D01*
X3701440Y9907219D01*
X3730345Y9889896D01*
X3758184Y9862362D01*
X3768242Y9845243D01*
X3774236Y9829241D01*
X3780383Y9808311D01*
X3784295Y9785299D01*
X3777996Y9748977D01*
X3767582Y9721392D01*
X3756101Y9703714D01*
X3745636Y9691725D01*
X3720490Y9671913D01*
X3699611Y9660839D01*
X3670300Y9651796D01*
X3631285Y9652000D01*
X3596284Y9663125D01*
X3570935Y9678568D01*
X3545840Y9702850D01*
X3529482Y9730892D01*
X3519830Y9762286D01*
X3489642Y9762286D01*
X3493617Y9737953D01*
X3501542Y9718294D01*
X3510787Y9699498D01*
X3533495Y9670186D01*
X3560622Y9648037D01*
X3588664Y9633712D01*
X3623767Y9622739D01*
X3687013Y9624364D01*
X3714242Y9634169D01*
X3741318Y9648647D01*
X3765600Y9667748D01*
X3788105Y9695586D01*
X3802583Y9724593D01*
X3812286Y9755987D01*
X3812590Y9808311D01*
X3803243Y9842449D01*
X3783634Y9879431D01*
X3766616Y9899751D01*
X3740861Y9919970D01*
X3714242Y9933584D01*
X3680764Y9945014D01*
G37*
G36*
X2951226Y9907727D02*
G01*
X2938983Y9901326D01*
X2936341Y9890963D01*
X2938678Y9884867D01*
X2955493Y9876332D01*
X3245002Y9876332D01*
X3258870Y9884867D01*
X3261410Y9892893D01*
X3256940Y9901224D01*
X3247694Y9907727D01*
G37*
G36*
X5509768Y9902748D02*
G01*
X5486704Y9901123D01*
X5478373Y9892944D01*
X5478119Y9814814D01*
X5485688Y9807244D01*
X5654395Y9807244D01*
X5662523Y9813188D01*
X5663590Y9887813D01*
X5658866Y9899345D01*
X5658307Y9900259D01*
G37*
G36*
X2529027Y9895128D02*
G01*
X2518206Y9891064D01*
X2513838Y9879634D01*
X2516632Y9863378D01*
X2530703Y9857486D01*
X2655366Y9857536D01*
X2665831Y9862820D01*
X2667152Y9881209D01*
X2664612Y9891166D01*
X2655366Y9894874D01*
G37*
G36*
X3296564Y9870236D02*
G01*
X3177590Y9868966D01*
X3171444Y9862718D01*
X3170529Y9725304D01*
X3176981Y9717786D01*
X3289401Y9715804D01*
X3304082Y9720427D01*
X3305149Y9861600D01*
G37*
G36*
X3013202Y9869881D02*
G01*
X2897682Y9868966D01*
X2890774Y9863226D01*
X2890774Y9726422D01*
X2896108Y9719157D01*
X2910636Y9715906D01*
X3018942Y9717836D01*
X3026765Y9725660D01*
X3026765Y9857740D01*
X3022346Y9866071D01*
G37*
G36*
X3145790Y9857486D02*
G01*
X3134563Y9857384D01*
X3124098Y9849358D01*
X3122625Y9813544D01*
X3114344Y9813544D01*
X3092704Y9828326D01*
X3066084Y9847021D01*
X3052622Y9847021D01*
X3042462Y9836200D01*
X3042462Y9797237D01*
X3074517Y9797237D01*
X3078073Y9800793D01*
X3083712Y9797338D01*
X3082188Y9789464D01*
X3076041Y9789464D01*
X3074517Y9797237D01*
X3042462Y9797237D01*
X3042462Y9748266D01*
X3052368Y9740290D01*
X3067761Y9740290D01*
X3112922Y9773767D01*
X3123031Y9773767D01*
X3123031Y9740290D01*
X3131413Y9731908D01*
X3144266Y9731908D01*
X3151987Y9736074D01*
X3154781Y9752634D01*
X3154680Y9825024D01*
X3154426Y9846462D01*
G37*
G36*
X2533954Y9844887D02*
G01*
X2518308Y9840569D01*
X2515819Y9829241D01*
X2514244Y9824110D01*
X2518460Y9812020D01*
X2528925Y9807244D01*
X2657551Y9807244D01*
X2666847Y9813798D01*
X2666847Y9835743D01*
X2661615Y9842500D01*
X2653233Y9844430D01*
G37*
G36*
X5254853Y9811562D02*
G01*
X5088280Y9810394D01*
X5082844Y9804958D01*
X5082844Y9634677D01*
X5095392Y9628327D01*
X5239816Y9627057D01*
X5256530Y9629597D01*
X5264150Y9635286D01*
X5264505Y9803790D01*
G37*
G36*
X4060393Y9811461D02*
G01*
X4050131Y9801148D01*
X4050131Y9639554D01*
X4054246Y9631781D01*
X4067911Y9627514D01*
X4206036Y9626701D01*
X4224070Y9626752D01*
X4236516Y9638690D01*
X4234230Y9804095D01*
X4225442Y9811461D01*
G37*
G36*
X2646984Y9796526D02*
G01*
X2524658Y9795764D01*
X2515209Y9786264D01*
X2515666Y9769652D01*
X2522423Y9759340D01*
X2536037Y9756800D01*
X2658872Y9758070D01*
X2666847Y9767976D01*
X2666847Y9785553D01*
X2661412Y9792970D01*
G37*
G36*
X5489549Y9775850D02*
G01*
X5477306Y9763658D01*
X5477306Y9692741D01*
X5485993Y9681718D01*
X5654395Y9681718D01*
X5662523Y9687610D01*
X5663996Y9754006D01*
X5659272Y9771380D01*
X5647842Y9775545D01*
G37*
G36*
X2644902Y9748164D02*
G01*
X2527503Y9747605D01*
X2516174Y9740188D01*
X2516174Y9717227D01*
X2529789Y9708896D01*
X2655824Y9708896D01*
X2666847Y9717582D01*
X2666847Y9739782D01*
X2661310Y9744405D01*
G37*
G36*
X3240278Y9709962D02*
G01*
X2952496Y9708845D01*
X2943148Y9706762D01*
X2936341Y9696399D01*
X2939034Y9685629D01*
X2953410Y9679584D01*
X3246729Y9679584D01*
X3258565Y9685731D01*
X3261360Y9696805D01*
X3254857Y9706762D01*
G37*
G36*
X2586278Y9697415D02*
G01*
X2548636Y9697059D01*
X2525014Y9696348D01*
X2516632Y9689033D01*
X2513990Y9670999D01*
X2526334Y9658654D01*
X2655824Y9658654D01*
X2666847Y9667341D01*
X2666847Y9687306D01*
X2658059Y9695281D01*
G37*
G36*
X5491734Y9652406D02*
G01*
X5479897Y9646259D01*
X5477764Y9636709D01*
X5477052Y9567367D01*
X5485282Y9557156D01*
X5574639Y9555886D01*
X5578602Y9551974D01*
X5572150Y9551974D01*
X5566765Y9540443D01*
X5565038Y9409938D01*
X5571185Y9395256D01*
X5585104Y9392615D01*
X5663234Y9393936D01*
X5676544Y9403791D01*
X5680913Y9399371D01*
X5680049Y9343644D01*
X5690006Y9334296D01*
X5764428Y9333788D01*
X5775502Y9342069D01*
X5776518Y9506966D01*
X5768441Y9517430D01*
X5690412Y9517430D01*
X5680303Y9505696D01*
X5680303Y9415780D01*
X5673242Y9413087D01*
X5671566Y9418116D01*
X5659577Y9424314D01*
X5607304Y9424314D01*
X5596585Y9428378D01*
X5596585Y9541052D01*
X5584240Y9554260D01*
X5589270Y9555988D01*
X5655056Y9557156D01*
X5662523Y9564674D01*
X5663184Y9638487D01*
X5659424Y9648342D01*
X5649976Y9652152D01*
G37*
G36*
X3245764Y9650374D02*
G01*
X2947619Y9649256D01*
X2936595Y9638944D01*
X2937865Y9626244D01*
X2953388Y9621012D01*
X3227679Y9621012D01*
X3227679Y9616592D01*
X3223514Y9619132D01*
X3211423Y9612020D01*
X3204667Y9614611D01*
X3204667Y9621012D01*
X2953388Y9621012D01*
X2954578Y9620605D01*
X3191510Y9619945D01*
X3186938Y9612630D01*
X3180130Y9612630D01*
X3170123Y9604806D01*
X3170123Y9467443D01*
X3183483Y9459620D01*
X3297783Y9459976D01*
X3305759Y9467951D01*
X3304895Y9605314D01*
X3296665Y9613646D01*
X3229762Y9612579D01*
X3229762Y9621012D01*
X3245459Y9621012D01*
X3260140Y9628327D01*
X3260140Y9640722D01*
G37*
G36*
X2636520Y9647174D02*
G01*
X2528163Y9645904D01*
X2516174Y9639757D01*
X2516225Y9619945D01*
X2519324Y9615373D01*
X2528468Y9610547D01*
X2655824Y9610547D01*
X2666847Y9619234D01*
X2666847Y9637471D01*
X2660294Y9644024D01*
X2651150Y9646056D01*
G37*
G36*
X2967177Y9617100D02*
G01*
X2952496Y9614306D01*
X2906471Y9612579D01*
X2897327Y9610547D01*
X2890774Y9603943D01*
X2890774Y9468256D01*
X2899156Y9459874D01*
X2925318Y9459518D01*
X3014878Y9459518D01*
X3025749Y9467646D01*
X3025749Y9604095D01*
X3018282Y9611614D01*
X2971342Y9612985D01*
G37*
G36*
X3137916Y9600082D02*
G01*
X3127451Y9595307D01*
X3123031Y9582708D01*
X3123031Y9556851D01*
X3120440Y9554210D01*
X3105302Y9560509D01*
X3096920Y9568230D01*
X3065627Y9589617D01*
X3051911Y9589617D01*
X3043783Y9581489D01*
X3040837Y9565944D01*
X3041757Y9536074D01*
X3072790Y9536074D01*
X3074212Y9540443D01*
X3080562Y9541662D01*
X3085033Y9536226D01*
X3078835Y9527895D01*
X3072790Y9536074D01*
X3041757Y9536074D01*
X3043021Y9493402D01*
X3049930Y9482886D01*
X3067812Y9482886D01*
X3114852Y9516668D01*
X3122015Y9515297D01*
X3124200Y9481820D01*
X3127654Y9476333D01*
X3138017Y9472422D01*
X3147923Y9474911D01*
X3154781Y9485325D01*
X3154375Y9582962D01*
X3150057Y9595358D01*
X3140862Y9599777D01*
G37*
G36*
X2528519Y9597999D02*
G01*
X2516682Y9591852D01*
X2514092Y9585096D01*
X2514142Y9571837D01*
X2517241Y9567214D01*
X2526385Y9562388D01*
X2653233Y9562490D01*
X2663698Y9567773D01*
X2664968Y9591497D01*
X2653233Y9597847D01*
G37*
G36*
X4833213Y9585452D02*
G01*
X4823358Y9577425D01*
X4822139Y9437878D01*
X4827879Y9430004D01*
X4846370Y9427311D01*
X4928666Y9427413D01*
X4939639Y9437725D01*
X4938420Y9577425D01*
X4928565Y9585452D01*
G37*
G36*
X4609084Y9585452D02*
G01*
X4597704Y9575647D01*
X4597400Y9436912D01*
X4606442Y9427870D01*
X4704943Y9427413D01*
X4712462Y9434931D01*
X4713681Y9578086D01*
X4704638Y9585452D01*
G37*
G36*
X4382566Y9585452D02*
G01*
X4373422Y9580626D01*
X4370374Y9576003D01*
X4370273Y9435541D01*
X4378960Y9426244D01*
X4477359Y9428073D01*
X4487164Y9437268D01*
X4487570Y9544608D01*
X4484776Y9577628D01*
X4477004Y9585452D01*
G37*
G36*
X2526334Y9549841D02*
G01*
X2513584Y9537141D01*
X2516378Y9519513D01*
X2522575Y9513214D01*
X2655620Y9512046D01*
X2666847Y9520885D01*
X2666847Y9540849D01*
X2659532Y9547199D01*
X2653233Y9549536D01*
G37*
G36*
X7332218Y9547758D02*
G01*
X7314488Y9539224D01*
X7298690Y9523425D01*
X7293203Y9503867D01*
X7295134Y9481820D01*
X7305243Y9460941D01*
X7307325Y9342069D01*
X7319213Y9333280D01*
X7394143Y9333331D01*
X7403592Y9342780D01*
X7403998Y9401454D01*
X7408824Y9406280D01*
X7408824Y9401352D01*
X7425436Y9392920D01*
X7452817Y9392920D01*
X7452817Y9426143D01*
X7422438Y9423755D01*
X7406538Y9415018D01*
X7403236Y9420352D01*
X7403947Y9502749D01*
X7401509Y9512046D01*
X7374534Y9539986D01*
X7357567Y9547656D01*
G37*
G36*
X5827826Y9518446D02*
G01*
X5811723Y9515754D01*
X5804204Y9503460D01*
X5803544Y9344812D01*
X5813602Y9334754D01*
X5857697Y9331756D01*
X5891326Y9333280D01*
X5902147Y9343390D01*
X5902147Y9503613D01*
X5897219Y9514382D01*
X5886450Y9516719D01*
X5882233Y9518142D01*
G37*
G36*
X7263384Y9518396D02*
G01*
X7191298Y9517430D01*
X7182815Y9508896D01*
X7182815Y9340697D01*
X7192264Y9334500D01*
X7257694Y9331756D01*
X7272832Y9336735D01*
X7276998Y9344507D01*
X7276998Y9506204D01*
X7272528Y9514535D01*
G37*
G36*
X7079234Y9518345D02*
G01*
X7062622Y9514535D01*
X7057288Y9507220D01*
X7057288Y9345117D01*
X7059879Y9338360D01*
X7071715Y9332214D01*
X7134859Y9332214D01*
X7149033Y9338157D01*
X7153452Y9346438D01*
X7152487Y9509912D01*
X7147661Y9514738D01*
X7133640Y9518040D01*
G37*
G36*
X6635597Y9518345D02*
G01*
X6568541Y9516618D01*
X6561683Y9513976D01*
X6557060Y9502749D01*
X6558178Y9342069D01*
X6569811Y9333433D01*
X6643522Y9333992D01*
X6651548Y9342018D01*
X6651955Y9504883D01*
X6648958Y9514230D01*
G37*
G36*
X6133338Y9518294D02*
G01*
X6062776Y9517329D01*
X6054902Y9507524D01*
X6054902Y9343390D01*
X6065672Y9333280D01*
X6142431Y9333280D01*
X6153404Y9343542D01*
X6152184Y9509912D01*
X6147358Y9514738D01*
G37*
G36*
X6959955Y9518091D02*
G01*
X6935571Y9515094D01*
X6931761Y9509048D01*
X6931710Y9341256D01*
X6940499Y9333280D01*
X7005828Y9331909D01*
X7019848Y9334550D01*
X7027976Y9342678D01*
X7027976Y9507067D01*
X7021677Y9516110D01*
X7012279Y9517888D01*
G37*
G36*
X6510020Y9518091D02*
G01*
X6440982Y9516110D01*
X6433413Y9513925D01*
X6429451Y9503562D01*
X6429451Y9343390D01*
X6440271Y9333280D01*
X6503517Y9331909D01*
X6517081Y9334449D01*
X6525615Y9341612D01*
X6526326Y9509963D01*
X6521246Y9516110D01*
G37*
G36*
X6258915Y9518091D02*
G01*
X6188456Y9517430D01*
X6180429Y9507524D01*
X6180429Y9342678D01*
X6188354Y9334754D01*
X6253022Y9331756D01*
X6267297Y9334754D01*
X6276695Y9343390D01*
X6276644Y9504883D01*
X6271361Y9515297D01*
G37*
G36*
X6384493Y9518040D02*
G01*
X6317538Y9517075D01*
X6309868Y9513722D01*
X6306007Y9503562D01*
X6306007Y9344456D01*
X6318504Y9331960D01*
X6391503Y9333280D01*
X6401816Y9342983D01*
X6402425Y9503765D01*
X6396024Y9516110D01*
G37*
G36*
X6826046Y9517938D02*
G01*
X6810857Y9514281D01*
X6806082Y9502749D01*
X6807200Y9342069D01*
X6819036Y9333280D01*
X6893610Y9333280D01*
X6902399Y9341256D01*
X6902399Y9507067D01*
X6896100Y9516110D01*
X6880453Y9517634D01*
G37*
G36*
X6756958Y9517837D02*
G01*
X6689242Y9517278D01*
X6680606Y9509455D01*
X6680606Y9341256D01*
X6688683Y9333941D01*
X6754317Y9332874D01*
X6771386Y9335973D01*
X6776872Y9343491D01*
X6776872Y9507067D01*
X6770522Y9516110D01*
G37*
G36*
X6007811Y9517481D02*
G01*
X5939434Y9517430D01*
X5929172Y9505492D01*
X5929680Y9344202D01*
X5939332Y9334601D01*
X5954064Y9331807D01*
X6017056Y9333280D01*
X6024524Y9340748D01*
X6026708Y9504883D01*
X6019901Y9515348D01*
G37*
G36*
X5117795Y9501835D02*
G01*
X5099710Y9497771D01*
X5094325Y9490456D01*
X5094325Y9452102D01*
X5104942Y9440672D01*
X5160264Y9443618D01*
X5174945Y9442958D01*
X5183276Y9443212D01*
X5231434Y9440570D01*
X5242915Y9449714D01*
X5242915Y9489440D01*
X5238445Y9497771D01*
X5229352Y9501733D01*
X5185359Y9499396D01*
X5158181Y9498380D01*
G37*
G36*
X2529027Y9493351D02*
G01*
X2518410Y9489338D01*
X2515108Y9477654D01*
X2515108Y9439046D01*
X2524658Y9429546D01*
X2626055Y9429191D01*
X2659126Y9431223D01*
X2666847Y9438944D01*
X2666847Y9480550D01*
X2662885Y9490913D01*
X2655366Y9492894D01*
G37*
G36*
X2448153Y9453422D02*
G01*
X2430983Y9450070D01*
X2414270Y9436658D01*
X2405278Y9418624D01*
X2405278Y9404400D01*
X2409698Y9388602D01*
X2421636Y9374987D01*
X2440279Y9365691D01*
X2457704Y9365691D01*
X2477770Y9375851D01*
X2488539Y9389973D01*
X2493619Y9406839D01*
X2488539Y9431121D01*
X2470200Y9449003D01*
X2454452Y9453168D01*
G37*
G36*
X3247542Y9451492D02*
G01*
X2944825Y9450476D01*
X2936798Y9440570D01*
X2936798Y9433153D01*
X2944825Y9423247D01*
X3241294Y9421977D01*
X3257194Y9426600D01*
X3260547Y9435693D01*
X3257753Y9446260D01*
G37*
G36*
X2634437Y9419132D02*
G01*
X2523490Y9417507D01*
X2516784Y9414002D01*
X2514092Y9384995D01*
X2516835Y9359087D01*
X2527503Y9352076D01*
X2630728Y9351670D01*
X2640584Y9344761D01*
X2634030Y9344761D01*
X2626309Y9336278D01*
X2624531Y9295638D01*
X2612440Y9281871D01*
X2612440Y9276080D01*
X2615031Y9269272D01*
X2626868Y9263176D01*
X2645460Y9263176D01*
X2655366Y9271152D01*
X2656738Y9335363D01*
X2643581Y9346336D01*
X2650388Y9353143D01*
X2657551Y9353143D01*
X2666847Y9359646D01*
X2666847Y9413595D01*
X2661615Y9416948D01*
G37*
G36*
X3158388Y9411766D02*
G01*
X3128264Y9407093D01*
X3122168Y9403740D01*
X3140862Y9401505D01*
X3197352Y9401505D01*
X3228136Y9403791D01*
X3223310Y9408617D01*
X3182670Y9411004D01*
G37*
G36*
X3059226Y9410954D02*
G01*
X2954578Y9409176D01*
X2944876Y9403080D01*
X2951073Y9393631D01*
X2953004Y9383471D01*
X2953562Y9394901D01*
X2964484Y9402064D01*
X3099003Y9401352D01*
X3119932Y9403943D01*
X3109468Y9408109D01*
X3082239Y9407652D01*
G37*
G36*
X3232302Y9409633D02*
G01*
X3229864Y9403283D01*
X3243376Y9396831D01*
X3242818Y9291421D01*
X3242360Y9271609D01*
X3231388Y9264446D01*
X2969006Y9262973D01*
X2953105Y9273794D01*
X2947263Y9268917D01*
X2947263Y9259417D01*
X2953867Y9256877D01*
X2973425Y9256826D01*
X2978912Y9253321D01*
X2978641Y9252864D01*
X3022447Y9252864D01*
X3024936Y9256877D01*
X3041192Y9256877D01*
X3043631Y9252966D01*
X3035858Y9239097D01*
X3028848Y9237726D01*
X3026511Y9245396D01*
X3022447Y9252864D01*
X2978641Y9252864D01*
X2970072Y9238335D01*
X2969869Y9217406D01*
X2972917Y9203537D01*
X2991205Y9171228D01*
X2991205Y9167418D01*
X2997708Y9162034D01*
X2996438Y9151213D01*
X2974797Y9149943D01*
X2969818Y9143949D01*
X2972358Y9133738D01*
X2986938Y9128912D01*
X3021584Y9131858D01*
X3028899Y9135668D01*
X3028899Y9147505D01*
X3005378Y9193072D01*
X2993288Y9217202D01*
X2993288Y9224670D01*
X2998317Y9229699D01*
X3004007Y9229699D01*
X3004893Y9227566D01*
X3037281Y9227566D01*
X3037281Y9225483D01*
X3035147Y9225483D01*
X3035147Y9227566D01*
X3004893Y9227566D01*
X3010001Y9215323D01*
X3018383Y9212681D01*
X3032963Y9217914D01*
X3036214Y9214662D01*
X3037078Y9137192D01*
X3041954Y9131300D01*
X3053689Y9131300D01*
X3060293Y9137904D01*
X3060293Y9200743D01*
X3067304Y9227159D01*
X3055874Y9252712D01*
X3058515Y9257030D01*
X3246374Y9256572D01*
X3250996Y9259417D01*
X3249828Y9278823D01*
X3265576Y9287662D01*
X3270402Y9292488D01*
X3273145Y9312351D01*
X3273704Y9295282D01*
X3283153Y9286798D01*
X3288029Y9284055D01*
X3300628Y9294672D01*
X3303422Y9307322D01*
X3307638Y9305899D01*
X3313328Y9289389D01*
X3320796Y9283903D01*
X3331210Y9286494D01*
X3334359Y9291421D01*
X3334410Y9337649D01*
X3338677Y9341916D01*
X3359302Y9337700D01*
X3369970Y9342577D01*
X3369970Y9354972D01*
X3361537Y9357614D01*
X3338271Y9356547D01*
X3334461Y9362541D01*
X3334410Y9381591D01*
X3329381Y9386620D01*
X3318306Y9386620D01*
X3310331Y9377832D01*
X3306114Y9358376D01*
X3299866Y9358376D01*
X3297631Y9380778D01*
X3289655Y9386620D01*
X3286048Y9386620D01*
X3273704Y9380220D01*
X3273704Y9321038D01*
X3271774Y9323019D01*
X3270859Y9380423D01*
X3264306Y9385808D01*
X3248609Y9393885D01*
X3248609Y9395256D01*
X3253079Y9403638D01*
X3248101Y9409633D01*
G37*
G36*
X5110937Y9401708D02*
G01*
X5100929Y9399168D01*
X5094325Y9392615D01*
X5094325Y9350857D01*
X5104892Y9340342D01*
X5151882Y9342374D01*
X5183276Y9342374D01*
X5232755Y9340138D01*
X5242915Y9349689D01*
X5242915Y9394748D01*
X5233517Y9401505D01*
X5158181Y9399016D01*
G37*
G36*
X3414979Y9390684D02*
G01*
X3389934Y9389008D01*
X3380435Y9378035D01*
X3380435Y9363252D01*
X3401364Y9363252D01*
X3403904Y9369907D01*
X3411575Y9369907D01*
X3414268Y9365538D01*
X3413912Y9311436D01*
X3405022Y9306661D01*
X3401466Y9312351D01*
X3401364Y9363252D01*
X3380435Y9363252D01*
X3380435Y9296857D01*
X3389884Y9285986D01*
X3406343Y9282277D01*
X3423361Y9285630D01*
X3435908Y9292437D01*
X3440633Y9292437D01*
X3445814Y9286189D01*
X3457752Y9286189D01*
X3462070Y9294266D01*
X3462070Y9363252D01*
X3464610Y9369907D01*
X3474161Y9369907D01*
X3476650Y9360458D01*
X3476701Y9290862D01*
X3482492Y9286087D01*
X3500780Y9286240D01*
X3543960Y9283700D01*
X3552037Y9291015D01*
X3552037Y9298025D01*
X3535324Y9311487D01*
X3535324Y9382302D01*
X3527196Y9386620D01*
X3519932Y9386620D01*
X3512312Y9379712D01*
X3512312Y9313113D01*
X3507943Y9305036D01*
X3498138Y9305036D01*
X3495598Y9314434D01*
X3495497Y9379305D01*
X3492398Y9383928D01*
X3483254Y9388703D01*
X3451910Y9388703D01*
X3439109Y9377934D01*
X3426307Y9387027D01*
G37*
G36*
X3151327Y9387890D02*
G01*
X3136646Y9386062D01*
X3128264Y9381794D01*
X3111550Y9368434D01*
X3104032Y9365792D01*
X3105251Y9381185D01*
X3094786Y9386570D01*
X2989630Y9386620D01*
X2976422Y9383979D01*
X2971800Y9375394D01*
X2972086Y9344304D01*
X3075228Y9344304D01*
X3086658Y9355226D01*
X3093770Y9355226D01*
X3093770Y9351365D01*
X3080867Y9338513D01*
X3077464Y9338513D01*
X3075228Y9344304D01*
X2972086Y9344304D01*
X2972317Y9319209D01*
X3077006Y9319209D01*
X3077006Y9323578D01*
X3080867Y9325965D01*
X3093770Y9313062D01*
X3093770Y9309201D01*
X3086455Y9309252D01*
X3077006Y9319209D01*
X2972317Y9319209D01*
X2972612Y9287205D01*
X2978810Y9280956D01*
X3088538Y9279636D01*
X3105251Y9285173D01*
X3103930Y9296654D01*
X3113887Y9296654D01*
X3126587Y9284258D01*
X3137966Y9279890D01*
X3211068Y9279890D01*
X3225596Y9285986D01*
X3226054Y9368840D01*
X3225241Y9379305D01*
X3219196Y9385604D01*
G37*
G36*
X2123795Y9327946D02*
G01*
X2048459Y9326626D01*
X2036368Y9321647D01*
X2020874Y9309354D01*
X2007412Y9281972D01*
X2004720Y9281972D01*
X1989886Y9292285D01*
X1852777Y9293504D01*
X1852828Y9258503D01*
X1862226Y9261906D01*
X1991969Y9264192D01*
X2007006Y9275724D01*
X2009343Y9275724D01*
X2014423Y9253728D01*
X2031390Y9236100D01*
X2025802Y9219234D01*
X2022754Y9219234D01*
X2020265Y9229140D01*
X2007107Y9234627D01*
X1996897Y9228632D01*
X1987499Y9201404D01*
X1985334Y9197441D01*
X2020062Y9197441D01*
X2023821Y9207652D01*
X2026767Y9198356D01*
X2040077Y9194749D01*
X2044954Y9196476D01*
X2050084Y9208922D01*
X2057603Y9212935D01*
X2059990Y9212935D01*
X2067864Y9205061D01*
X2068017Y9140901D01*
X2064004Y9133433D01*
X2051761Y9133433D01*
X2047443Y9141510D01*
X2047443Y9154007D01*
X2058263Y9166910D01*
X2064156Y9166910D01*
X2064156Y9169806D01*
X2052929Y9181541D01*
X2037994Y9181490D01*
X2028952Y9179052D01*
X2023922Y9166961D01*
X2026361Y9160611D01*
X2022957Y9151416D01*
X2020062Y9197441D01*
X1985334Y9197441D01*
X1982165Y9191548D01*
X1977339Y9196425D01*
X1978304Y9226245D01*
X1971446Y9233865D01*
X1960575Y9233712D01*
X1952548Y9227667D01*
X1953361Y9125051D01*
X1958086Y9114586D01*
X1974189Y9114586D01*
X1974189Y9120327D01*
X1979675Y9124899D01*
X1989582Y9156547D01*
X1994052Y9155074D01*
X1994390Y9150146D01*
X2024024Y9150146D01*
X2026920Y9133027D01*
X2022297Y9128404D01*
X2022297Y9150146D01*
X1994390Y9150146D01*
X1996186Y9123984D01*
X2002383Y9114586D01*
X2082088Y9114586D01*
X2089251Y9126728D01*
X2089251Y9218574D01*
X2097024Y9225584D01*
X2125878Y9227972D01*
X2144725Y9234017D01*
X2155698Y9243263D01*
X2167636Y9262110D01*
X2166975Y9294215D01*
X2160524Y9306712D01*
X2142744Y9321901D01*
G37*
G36*
X2561183Y9327794D02*
G01*
X2433523Y9326981D01*
X2413965Y9315500D01*
X2400960Y9299803D01*
X2394508Y9277807D01*
X2401214Y9254794D01*
X2414320Y9239859D01*
X2439822Y9226651D01*
X2492248Y9227667D01*
X2500325Y9221774D01*
X2494280Y9214459D01*
X2476906Y9206992D01*
X2473960Y9202267D01*
X2480462Y9192361D01*
X2495245Y9187484D01*
X2495245Y9182608D01*
X2517241Y9182608D01*
X2517241Y9188856D01*
X2536748Y9190126D01*
X2539441Y9185706D01*
X2532532Y9183014D01*
X2517241Y9182608D01*
X2495245Y9182608D01*
X2495245Y9158681D01*
X2503322Y9154363D01*
X2519324Y9154414D01*
X2537155Y9162542D01*
X2552801Y9165285D01*
X2561183Y9170263D01*
X2577896Y9175191D01*
X2591663Y9183674D01*
X2595219Y9193072D01*
X2588768Y9200388D01*
X2575763Y9200388D01*
X2560116Y9192006D01*
X2547569Y9192006D01*
X2548636Y9205366D01*
X2538171Y9210802D01*
X2520848Y9210852D01*
X2510942Y9218930D01*
X2515463Y9226346D01*
X2566873Y9227718D01*
X2583027Y9235998D01*
X2597962Y9249105D01*
X2602839Y9257944D01*
X2601671Y9299803D01*
X2595422Y9309506D01*
X2576525Y9322816D01*
G37*
G36*
X2953207Y9316516D02*
G01*
X2951124Y9311284D01*
X2953207Y9306052D01*
G37*
G36*
X2189988Y9292437D02*
G01*
X2179624Y9288526D01*
X2176881Y9279788D01*
X2179472Y9267901D01*
X2189937Y9263176D01*
X2377744Y9263176D01*
X2390597Y9273997D01*
X2390597Y9281617D01*
X2377744Y9292437D01*
G37*
G36*
X7237374Y9251035D02*
G01*
X7197140Y9249562D01*
X7187031Y9237827D01*
X7187031Y9212529D01*
X7198258Y9192514D01*
X7186625Y9178696D01*
X7188047Y9142120D01*
X7198207Y9131300D01*
X7240727Y9131300D01*
X7250226Y9141460D01*
X7250023Y9163100D01*
X7243419Y9173159D01*
X7233361Y9173159D01*
X7227265Y9167114D01*
X7224471Y9151975D01*
X7213193Y9153296D01*
X7211923Y9173108D01*
X7228890Y9190736D01*
X7228890Y9197492D01*
X7215936Y9209786D01*
X7210552Y9220250D01*
X7214108Y9229699D01*
X7224268Y9229699D01*
X7228535Y9217456D01*
X7237374Y9212732D01*
X7251700Y9217914D01*
X7252919Y9230715D01*
X7257135Y9228632D01*
X7257338Y9219793D01*
X7264806Y9186773D01*
X7270750Y9165488D01*
X7270750Y9150045D01*
X7276795Y9135516D01*
X7287615Y9130588D01*
X7298944Y9134551D01*
X7305700Y9165844D01*
X7312609Y9201404D01*
X7314844Y9217101D01*
X7322718Y9217101D01*
X7325359Y9205010D01*
X7333488Y9197644D01*
X7333488Y9190583D01*
X7325106Y9182963D01*
X7321245Y9167926D01*
X7324344Y9139631D01*
X7330897Y9133027D01*
X7356602Y9129979D01*
X7378141Y9132773D01*
X7385812Y9142272D01*
X7385812Y9166606D01*
X7379258Y9173159D01*
X7369403Y9173159D01*
X7362952Y9166758D01*
X7360259Y9152229D01*
X7355484Y9151772D01*
X7349185Y9152686D01*
X7346137Y9157462D01*
X7346086Y9171279D01*
X7367016Y9192209D01*
X7367016Y9195562D01*
X7346086Y9214866D01*
X7346086Y9224670D01*
X7351064Y9229699D01*
X7358735Y9229699D01*
X7361326Y9222333D01*
X7369809Y9212935D01*
X7378750Y9212935D01*
X7386421Y9218523D01*
X7384389Y9242907D01*
X7374890Y9250629D01*
X7337552Y9250629D01*
X7322718Y9244380D01*
X7310018Y9250934D01*
X7300112Y9248444D01*
X7294321Y9237014D01*
X7291730Y9208008D01*
X7287209Y9203537D01*
X7281214Y9211665D01*
X7281214Y9225737D01*
X7276490Y9244482D01*
X7264603Y9250629D01*
X7248042Y9244025D01*
G37*
G36*
X6795363Y9251035D02*
G01*
X6748627Y9248546D01*
X6689293Y9250934D01*
X6680606Y9246260D01*
X6680606Y9236456D01*
X6685838Y9232290D01*
X6696303Y9229140D01*
X6699351Y9224467D01*
X6699453Y9137904D01*
X6706006Y9131300D01*
X6717233Y9131401D01*
X6723481Y9135364D01*
X6724751Y9227616D01*
X6736842Y9233814D01*
X6743242Y9231376D01*
X6746036Y9216085D01*
X6749796Y9208770D01*
X6761683Y9208770D01*
X6766001Y9214002D01*
X6769760Y9228632D01*
X6780530Y9229902D01*
X6782460Y9219590D01*
X6778193Y9211970D01*
X6774586Y9208312D01*
X6835190Y9208312D01*
X6836511Y9228632D01*
X6849567Y9229902D01*
X6852208Y9223044D01*
X6852208Y9208465D01*
X6847840Y9200388D01*
X6842404Y9200388D01*
X6835190Y9208312D01*
X6774586Y9208312D01*
X6749237Y9182608D01*
X6744004Y9170060D01*
X6744716Y9141612D01*
X6754875Y9131655D01*
X6771640Y9130741D01*
X6797700Y9131300D01*
X6810400Y9142831D01*
X6806234Y9167926D01*
X6799072Y9173159D01*
X6791248Y9173159D01*
X6783527Y9169044D01*
X6780682Y9152229D01*
X6771030Y9152229D01*
X6768490Y9158884D01*
X6768490Y9170060D01*
X6805371Y9206636D01*
X6811975Y9206636D01*
X6814616Y9192514D01*
X6824980Y9181338D01*
X6824980Y9175445D01*
X6814515Y9150502D01*
X6811924Y9137599D01*
X6817106Y9131300D01*
X6828891Y9131300D01*
X6837273Y9142018D01*
X6844284Y9161678D01*
X6845960Y9167368D01*
X6852208Y9162186D01*
X6852208Y9140647D01*
X6858711Y9131300D01*
X6870801Y9131300D01*
X6877303Y9140647D01*
X6877303Y9242247D01*
X6868922Y9250629D01*
X6824421Y9250629D01*
X6810552Y9235897D01*
G37*
G36*
X4985715Y9250934D02*
G01*
X4975047Y9240316D01*
X4975047Y9227667D01*
X4981143Y9211868D01*
X4985156Y9190990D01*
X4998516Y9138666D01*
X5005019Y9131300D01*
X5012994Y9131300D01*
X5021122Y9135668D01*
X5021122Y9144152D01*
X5008270Y9199321D01*
X5002276Y9218168D01*
X5002276Y9227362D01*
X5006492Y9229953D01*
X5013909Y9227616D01*
X5018786Y9214713D01*
X5036972Y9215831D01*
X5042255Y9212580D01*
X5041392Y9139682D01*
X5048961Y9131300D01*
X5057952Y9131300D01*
X5066080Y9137294D01*
X5066436Y9201404D01*
X5071922Y9222689D01*
X5068925Y9238691D01*
X5056784Y9250832D01*
X5040985Y9247835D01*
X5036820Y9248800D01*
G37*
G36*
X3258261Y9250832D02*
G01*
X3245662Y9249562D01*
X3242767Y9239097D01*
X3242360Y9137904D01*
X3248914Y9131300D01*
X3258769Y9131300D01*
X3267049Y9141815D01*
X3266846Y9201404D01*
X3269792Y9222384D01*
X3265119Y9243212D01*
G37*
G36*
X7065111Y9250730D02*
G01*
X7057237Y9248241D01*
X7051598Y9237014D01*
X7048804Y9208820D01*
X7046163Y9201912D01*
X7038695Y9216085D01*
X7035850Y9239097D01*
X7031888Y9246616D01*
X7021372Y9250629D01*
X7009130Y9243415D01*
X7009130Y9238030D01*
X7005472Y9238030D01*
X7003288Y9246362D01*
X6992112Y9250629D01*
X6956552Y9250629D01*
X6948119Y9246057D01*
X6942175Y9231884D01*
X6942175Y9213545D01*
X6954723Y9196222D01*
X6954723Y9191752D01*
X6943547Y9177070D01*
X6941667Y9154210D01*
X6948830Y9135465D01*
X6957872Y9130538D01*
X6996938Y9130284D01*
X7004405Y9139428D01*
X7007148Y9160205D01*
X7002322Y9170873D01*
X6996531Y9173057D01*
X6986930Y9168688D01*
X6980885Y9151213D01*
X6970420Y9152636D01*
X6969455Y9153601D01*
X6968693Y9173210D01*
X6986117Y9189262D01*
X6986117Y9197492D01*
X6971131Y9211868D01*
X6967270Y9218930D01*
X6971385Y9229699D01*
X6981901Y9229699D01*
X6987946Y9215170D01*
X6999376Y9212326D01*
X7006945Y9221622D01*
X7009587Y9235948D01*
X7012889Y9235948D01*
X7015225Y9226550D01*
X7019747Y9189872D01*
X7023201Y9180525D01*
X7026148Y9159595D01*
X7032955Y9136532D01*
X7036866Y9131300D01*
X7050328Y9131300D01*
X7057288Y9139021D01*
X7063790Y9174226D01*
X7069836Y9198203D01*
X7069836Y9214764D01*
X7073646Y9217152D01*
X7080300Y9214561D01*
X7080300Y9210192D01*
X7090765Y9196476D01*
X7090765Y9190431D01*
X7084212Y9184995D01*
X7078218Y9173362D01*
X7078218Y9149740D01*
X7084872Y9135719D01*
X7090460Y9131046D01*
X7129983Y9130639D01*
X7142835Y9139834D01*
X7145629Y9158274D01*
X7141667Y9170060D01*
X7130288Y9174073D01*
X7123175Y9169603D01*
X7116825Y9152534D01*
X7114286Y9149943D01*
X7103313Y9152686D01*
X7103313Y9172803D01*
X7124446Y9190482D01*
X7123175Y9199016D01*
X7104380Y9212224D01*
X7104380Y9228632D01*
X7115860Y9229953D01*
X7124547Y9215221D01*
X7132066Y9212834D01*
X7142683Y9216847D01*
X7145375Y9233001D01*
X7141260Y9243923D01*
X7131659Y9250629D01*
X7093813Y9250629D01*
X7078370Y9242348D01*
X7075678Y9246666D01*
G37*
G36*
X6521856Y9250629D02*
G01*
X6515557Y9244330D01*
X6519773Y9230715D01*
X6525666Y9209786D01*
X6521754Y9208465D01*
X6507937Y9199168D01*
X6505991Y9177020D01*
X6533743Y9177020D01*
X6535572Y9184690D01*
X6538823Y9177172D01*
X6536181Y9174581D01*
X6533743Y9177020D01*
X6505991Y9177020D01*
X6505752Y9174226D01*
X6498234Y9160256D01*
X6504431Y9153296D01*
X6509207Y9135313D01*
X6519468Y9130639D01*
X6529831Y9135364D01*
X6532270Y9146997D01*
X6535572Y9153296D01*
X6562344Y9155379D01*
X6567576Y9158782D01*
X6567576Y9169146D01*
X6560870Y9184690D01*
X6557416Y9197238D01*
X6540246Y9243263D01*
X6531559Y9250629D01*
G37*
G36*
X6247130Y9250629D02*
G01*
X6239052Y9246260D01*
X6239052Y9239961D01*
X6249670Y9229344D01*
X6265367Y9231985D01*
X6276695Y9227667D01*
X6276695Y9217761D01*
X6268466Y9210294D01*
X6244691Y9207703D01*
X6236970Y9197238D01*
X6239713Y9140901D01*
X6249314Y9131300D01*
X6289598Y9131300D01*
X6301282Y9143034D01*
X6300470Y9166656D01*
X6295034Y9173159D01*
X6283299Y9173159D01*
X6276695Y9166606D01*
X6276695Y9156750D01*
X6269939Y9149994D01*
X6265214Y9151518D01*
X6260033Y9161678D01*
X6259982Y9183319D01*
X6266535Y9189923D01*
X6284823Y9189923D01*
X6296507Y9194342D01*
X6299657Y9199321D01*
X6299708Y9236151D01*
X6293561Y9248140D01*
X6288227Y9250273D01*
G37*
G36*
X5999022Y9250629D02*
G01*
X5991301Y9242094D01*
X5989574Y9217812D01*
X6002172Y9212580D01*
X6011265Y9217456D01*
X6015634Y9229902D01*
X6026658Y9228632D01*
X6027928Y9211005D01*
X6023508Y9202724D01*
X6003594Y9200083D01*
X5992368Y9195816D01*
X5987897Y9183014D01*
X5987897Y9167266D01*
X6013043Y9167266D01*
X6013043Y9172854D01*
X6015583Y9179458D01*
X6024880Y9179458D01*
X6027674Y9176664D01*
X6027674Y9158884D01*
X6025134Y9152229D01*
X6015634Y9152229D01*
X6013094Y9161678D01*
X6013043Y9167266D01*
X5987897Y9167266D01*
X5987897Y9146590D01*
X5997498Y9132366D01*
X6042406Y9131198D01*
X6052769Y9142374D01*
X6052362Y9234932D01*
X6049467Y9245346D01*
X6039205Y9250527D01*
G37*
G36*
X5748172Y9250629D02*
G01*
X5738876Y9244076D01*
X5738876Y9233611D01*
X5744667Y9214002D01*
X5749544Y9195155D01*
X5757265Y9163761D01*
X5764377Y9136532D01*
X5771083Y9131300D01*
X5782005Y9131300D01*
X5787034Y9136329D01*
X5787034Y9149892D01*
X5782310Y9161678D01*
X5774893Y9190990D01*
X5766104Y9221266D01*
X5766104Y9227108D01*
X5774537Y9229293D01*
X5780938Y9216948D01*
X5791250Y9213037D01*
X5801410Y9217660D01*
X5804103Y9233763D01*
X5801461Y9245854D01*
X5792266Y9250324D01*
G37*
G36*
X5486146Y9250629D02*
G01*
X5477357Y9243263D01*
X5482640Y9232849D01*
X5495086Y9230156D01*
X5510885Y9229699D01*
X5515660Y9219234D01*
X5508548Y9211360D01*
X5483758Y9208566D01*
X5474919Y9197340D01*
X5476240Y9141866D01*
X5485079Y9133128D01*
X5503468Y9128963D01*
X5528005Y9131808D01*
X5535371Y9139123D01*
X5538266Y9162491D01*
X5533948Y9170619D01*
X5522925Y9173362D01*
X5517083Y9168485D01*
X5512816Y9152686D01*
X5507278Y9150553D01*
X5501792Y9153956D01*
X5498490Y9178340D01*
X5503519Y9188856D01*
X5527954Y9191498D01*
X5536285Y9199829D01*
X5536946Y9242602D01*
X5527090Y9250629D01*
G37*
G36*
X5243220Y9250629D02*
G01*
X5232654Y9246616D01*
X5226202Y9234068D01*
X5226202Y9221317D01*
X5234584Y9212935D01*
X5240629Y9212935D01*
X5250484Y9217406D01*
X5255260Y9230004D01*
X5264912Y9228632D01*
X5265591Y9221317D01*
X5297322Y9221317D01*
X5297322Y9210903D01*
X5288991Y9218066D01*
X5288991Y9221317D01*
X5265591Y9221317D01*
X5266232Y9214459D01*
X5263946Y9205264D01*
X5253177Y9200388D01*
X5238953Y9200388D01*
X5229695Y9196171D01*
X5293156Y9196171D01*
X5293156Y9190177D01*
X5288991Y9187586D01*
X5288991Y9196171D01*
X5229695Y9196171D01*
X5228691Y9195714D01*
X5226202Y9183116D01*
X5226202Y9158884D01*
X5251297Y9158884D01*
X5251297Y9172854D01*
X5253837Y9179458D01*
X5297322Y9179458D01*
X5297068Y9167926D01*
X5293461Y9176308D01*
X5293156Y9179458D01*
X5263184Y9179458D01*
X5265928Y9176664D01*
X5265928Y9152229D01*
X5253837Y9152229D01*
X5251297Y9158884D01*
X5226202Y9158884D01*
X5226202Y9142374D01*
X5236616Y9131909D01*
X5256631Y9129522D01*
X5282895Y9131909D01*
X5288991Y9140647D01*
X5288991Y9153956D01*
X5297322Y9151772D01*
X5297322Y9137904D01*
X5303926Y9131300D01*
X5315661Y9131300D01*
X5320995Y9137751D01*
X5322265Y9203537D01*
X5327142Y9221165D01*
X5324551Y9234932D01*
X5316220Y9248495D01*
X5301640Y9248495D01*
X5294782Y9238030D01*
X5288991Y9238030D01*
X5288991Y9242247D01*
X5280609Y9250629D01*
G37*
G36*
X4736795Y9250629D02*
G01*
X4726228Y9246616D01*
X4719777Y9234068D01*
X4719777Y9213240D01*
X4744872Y9213240D01*
X4744872Y9224670D01*
X4749901Y9229699D01*
X4757267Y9229699D01*
X4761992Y9220911D01*
X4759198Y9209836D01*
X4754270Y9206738D01*
X4751425Y9206636D01*
X4744872Y9213240D01*
X4719777Y9213240D01*
X4719777Y9209328D01*
X4730089Y9194088D01*
X4777333Y9194088D01*
X4783277Y9203537D01*
X4788103Y9226550D01*
X4791303Y9196527D01*
X4788052Y9163761D01*
X4783226Y9184690D01*
X4777333Y9194088D01*
X4730089Y9194088D01*
X4719675Y9178747D01*
X4719965Y9166656D01*
X4744466Y9166656D01*
X4748326Y9178391D01*
X4756454Y9179610D01*
X4761636Y9174429D01*
X4761636Y9158986D01*
X4754270Y9149892D01*
X4747107Y9152636D01*
X4744466Y9166656D01*
X4719965Y9166656D01*
X4720285Y9153296D01*
X4724095Y9137599D01*
X4733493Y9131452D01*
X4762652Y9128760D01*
X4779975Y9133433D01*
X4784953Y9139428D01*
X4788306Y9159595D01*
X4788814Y9139986D01*
X4795367Y9133433D01*
X4805578Y9130842D01*
X4816043Y9137700D01*
X4816043Y9204502D01*
X4822393Y9220403D01*
X4814824Y9245346D01*
X4804511Y9250527D01*
X4801057Y9250629D01*
X4788814Y9238386D01*
X4788509Y9228632D01*
X4782108Y9246666D01*
X4771796Y9250629D01*
G37*
G36*
X4510278Y9250629D02*
G01*
X4498492Y9244482D01*
X4495901Y9234932D01*
X4495850Y9218930D01*
X4520946Y9218930D01*
X4525060Y9229699D01*
X4530394Y9229598D01*
X4536287Y9225838D01*
X4536287Y9212732D01*
X4529632Y9206077D01*
X4523587Y9208414D01*
X4520946Y9218930D01*
X4495850Y9218930D01*
X4495850Y9208211D01*
X4504791Y9193733D01*
X4495850Y9175851D01*
X4495850Y9165031D01*
X4520539Y9165031D01*
X4523232Y9179458D01*
X4533595Y9179458D01*
X4537760Y9168587D01*
X4533290Y9151975D01*
X4524451Y9153296D01*
X4520539Y9165031D01*
X4495850Y9165031D01*
X4495850Y9144203D01*
X4506671Y9131300D01*
X4552238Y9131300D01*
X4558995Y9141612D01*
X4560011Y9177426D01*
X4552442Y9194393D01*
X4559655Y9205417D01*
X4559401Y9234932D01*
X4556607Y9245752D01*
X4547108Y9250324D01*
G37*
G36*
X4279849Y9250629D02*
G01*
X4239514Y9250527D01*
X4229201Y9242602D01*
X4227474Y9212122D01*
X4237380Y9193936D01*
X4227982Y9177578D01*
X4227982Y9142374D01*
X4238244Y9131300D01*
X4280509Y9131300D01*
X4290771Y9141612D01*
X4290771Y9166606D01*
X4284167Y9173159D01*
X4272229Y9173159D01*
X4265980Y9166961D01*
X4263186Y9154058D01*
X4257243Y9151772D01*
X4250994Y9156954D01*
X4250994Y9168790D01*
X4255871Y9179458D01*
X4259580Y9179458D01*
X4269841Y9190532D01*
X4269841Y9197848D01*
X4255617Y9210344D01*
X4250994Y9218930D01*
X4250994Y9227312D01*
X4260291Y9230258D01*
X4264609Y9222943D01*
X4272229Y9212935D01*
X4283862Y9212935D01*
X4291330Y9221216D01*
X4289196Y9243009D01*
G37*
G36*
X3968953Y9250629D02*
G01*
X3959606Y9243009D01*
X3957574Y9222333D01*
X3965397Y9212681D01*
X3976674Y9216948D01*
X3983380Y9229953D01*
X3994658Y9228632D01*
X3995724Y9207703D01*
X3992270Y9202420D01*
X3964127Y9199016D01*
X3957116Y9192006D01*
X3955957Y9170924D01*
X3978706Y9170924D01*
X3983278Y9179458D01*
X3992930Y9179458D01*
X3995674Y9176664D01*
X3995674Y9157258D01*
X3990441Y9150197D01*
X3981450Y9152636D01*
X3978706Y9170924D01*
X3955957Y9170924D01*
X3954881Y9151366D01*
X3959860Y9136989D01*
X3965600Y9131198D01*
X4009237Y9130893D01*
X4020972Y9144914D01*
X4023360Y9154363D01*
X4027017Y9154363D01*
X4031843Y9135160D01*
X4042054Y9131300D01*
X4052163Y9133840D01*
X4057243Y9151213D01*
X4061612Y9154261D01*
X4084320Y9154363D01*
X4091940Y9161272D01*
X4091940Y9171025D01*
X4064304Y9243263D01*
X4055922Y9250629D01*
X4049826Y9250629D01*
X4041749Y9246260D01*
X4041749Y9236100D01*
X4050131Y9214866D01*
X4050131Y9208668D01*
X4038600Y9204299D01*
X4029201Y9195460D01*
X4029150Y9185757D01*
X4060545Y9185757D01*
X4060545Y9175292D01*
X4056379Y9175292D01*
X4056379Y9185757D01*
X4029150Y9185757D01*
X4029100Y9176308D01*
X4025239Y9170162D01*
X4021836Y9173565D01*
X4022750Y9228632D01*
X4018432Y9242145D01*
X4007713Y9250629D01*
G37*
G36*
X3495344Y9250629D02*
G01*
X3485083Y9240316D01*
X3485083Y9219234D01*
X3508248Y9219234D01*
X3512210Y9229699D01*
X3522878Y9229699D01*
X3524961Y9224314D01*
X3524634Y9203537D01*
X3546805Y9203537D01*
X3548887Y9226550D01*
X3551936Y9221876D01*
X3552240Y9207703D01*
X3551732Y9195155D01*
X3550818Y9159595D01*
X3549192Y9155379D01*
X3546805Y9203537D01*
X3524634Y9203537D01*
X3523792Y9153296D01*
X3512820Y9152026D01*
X3509416Y9159595D01*
X3508248Y9219234D01*
X3485083Y9219234D01*
X3485083Y9141612D01*
X3495344Y9131300D01*
X3534968Y9131300D01*
X3542080Y9134043D01*
X3549548Y9150705D01*
X3555085Y9140748D01*
X3559454Y9132366D01*
X3573272Y9131046D01*
X3579266Y9136024D01*
X3579266Y9204706D01*
X3585514Y9219742D01*
X3585514Y9227718D01*
X3575151Y9248190D01*
X3563213Y9250629D01*
X3552037Y9238030D01*
X3548634Y9238030D01*
X3539388Y9250629D01*
G37*
G36*
X3286302Y9250629D02*
G01*
X3277920Y9242247D01*
X3277666Y9224467D01*
X3277311Y9139631D01*
X3284829Y9131300D01*
X3293872Y9131300D01*
X3302000Y9137243D01*
X3303219Y9237929D01*
X3298545Y9246666D01*
X3289401Y9250324D01*
G37*
G36*
X2792933Y9250629D02*
G01*
X2787497Y9244076D01*
X2787192Y9138208D01*
X2792933Y9131300D01*
X2803906Y9131401D01*
X2810103Y9135313D01*
X2810256Y9205620D01*
X2815437Y9214764D01*
X2815437Y9227058D01*
X2809036Y9245396D01*
X2802077Y9250629D01*
G37*
G36*
X2729839Y9250629D02*
G01*
X2719374Y9245854D01*
X2715006Y9233255D01*
X2715006Y9213138D01*
X2727960Y9193885D01*
X2721762Y9186773D01*
X2715006Y9173362D01*
X2715006Y9150045D01*
X2720898Y9135872D01*
X2730652Y9130639D01*
X2762046Y9130334D01*
X2773273Y9133433D01*
X2777642Y9146997D01*
X2778607Y9162186D01*
X2771140Y9173565D01*
X2760014Y9170771D01*
X2756916Y9165844D01*
X2754376Y9152636D01*
X2745638Y9150350D01*
X2742336Y9152382D01*
X2739694Y9166555D01*
X2742285Y9174734D01*
X2758948Y9191701D01*
X2758948Y9196374D01*
X2742234Y9211868D01*
X2741523Y9220250D01*
X2742184Y9229699D01*
X2752852Y9229699D01*
X2758948Y9215120D01*
X2769565Y9212427D01*
X2778201Y9220250D01*
X2776372Y9242145D01*
X2768752Y9250629D01*
G37*
G36*
X3745636Y9250527D02*
G01*
X3735171Y9245244D01*
X3729990Y9229547D01*
X3730245Y9207500D01*
X3755034Y9207500D01*
X3755034Y9224670D01*
X3760063Y9229699D01*
X3766921Y9229699D01*
X3769664Y9226905D01*
X3769664Y9209074D01*
X3767175Y9202470D01*
X3760063Y9202470D01*
X3755034Y9207500D01*
X3730245Y9207500D01*
X3730955Y9141866D01*
X3741420Y9131452D01*
X3782923Y9130639D01*
X3792728Y9142018D01*
X3792728Y9161322D01*
X3785768Y9168993D01*
X3777335Y9168993D01*
X3769664Y9162084D01*
X3769664Y9155176D01*
X3765143Y9150654D01*
X3757066Y9152737D01*
X3754729Y9162084D01*
X3756101Y9178391D01*
X3784244Y9182608D01*
X3791356Y9189720D01*
X3792321Y9236710D01*
X3788257Y9247378D01*
X3783279Y9250527D01*
G37*
G36*
X5551373Y9248495D02*
G01*
X5546344Y9243466D01*
X5546344Y9140647D01*
X5552897Y9131300D01*
X5566460Y9131300D01*
X5571490Y9136329D01*
X5571490Y9206026D01*
X5576011Y9219031D01*
X5569000Y9243263D01*
X5564682Y9248495D01*
G37*
G36*
X2337257Y9244279D02*
G01*
X2326843Y9238996D01*
X2325471Y9232036D01*
X2334107Y9223400D01*
X2354681Y9223400D01*
X2361336Y9220860D01*
X2361336Y9208922D01*
X2353208Y9204553D01*
X2338933Y9204553D01*
X2324709Y9195003D01*
X2323541Y9139732D01*
X2330145Y9126982D01*
X2340660Y9122968D01*
X2367737Y9122968D01*
X2381656Y9128760D01*
X2386431Y9142425D01*
X2386431Y9160459D01*
X2378354Y9164828D01*
X2365400Y9164828D01*
X2363774Y9159595D01*
X2361184Y9147860D01*
X2351887Y9144203D01*
X2344623Y9152636D01*
X2345994Y9177528D01*
X2349804Y9181236D01*
X2378659Y9184690D01*
X2386685Y9195409D01*
X2382469Y9236303D01*
X2377694Y9242044D01*
X2354021Y9243517D01*
G37*
G36*
X2265222Y9242806D02*
G01*
X2254961Y9236100D01*
X2252116Y9223095D01*
X2259025Y9215475D01*
X2264714Y9178391D01*
X2271776Y9136532D01*
X2280767Y9122968D01*
X2290216Y9122968D01*
X2296922Y9130792D01*
X2304694Y9153296D01*
X2304999Y9170060D01*
X2311044Y9186773D01*
X2311146Y9199321D01*
X2317394Y9219895D01*
X2317394Y9235643D01*
X2310790Y9242247D01*
X2303678Y9242247D01*
X2294940Y9236151D01*
X2292096Y9208465D01*
X2287066Y9200388D01*
X2282088Y9200388D01*
X2279396Y9224467D01*
X2275128Y9238335D01*
G37*
G36*
X1933397Y9235897D02*
G01*
X1899920Y9233916D01*
X1889404Y9226143D01*
X1883156Y9214002D01*
X1884188Y9144914D01*
X1906930Y9144914D01*
X1907489Y9205620D01*
X1914143Y9212935D01*
X1919630Y9212935D01*
X1923948Y9204858D01*
X1923948Y9139986D01*
X1917395Y9133433D01*
X1913788Y9133433D01*
X1907235Y9139986D01*
X1906930Y9144914D01*
X1884188Y9144914D01*
X1884425Y9128201D01*
X1893620Y9114586D01*
X1941931Y9114586D01*
X1946960Y9128506D01*
X1946960Y9226956D01*
X1939645Y9233306D01*
G37*
G36*
X2231745Y9229699D02*
G01*
X2226919Y9220708D01*
X2232253Y9204553D01*
X2227376Y9193885D01*
X2227376Y9129725D01*
X2232609Y9125458D01*
X2240991Y9124543D01*
X2246071Y9125051D01*
X2250998Y9134246D01*
X2250135Y9192869D01*
X2243277Y9204502D01*
X2248306Y9218472D01*
X2248306Y9226905D01*
X2245512Y9229699D01*
G37*
G36*
X2174900Y9204553D02*
G01*
X2164588Y9194292D01*
X2164588Y9135719D01*
X2169414Y9125102D01*
X2177186Y9122664D01*
X2185771Y9125407D01*
X2190038Y9136532D01*
X2187295Y9162846D01*
X2190089Y9179458D01*
X2195982Y9179458D01*
X2196541Y9155379D01*
X2195626Y9133586D01*
X2206294Y9122968D01*
X2210308Y9122968D01*
X2223058Y9133687D01*
X2222144Y9194139D01*
X2209596Y9204401D01*
G37*
G36*
X2544419Y9146997D02*
G01*
X2482088Y9146286D01*
X2473756Y9137954D01*
X2476296Y9131249D01*
X2487777Y9126931D01*
X2544419Y9128048D01*
X2565146Y9120632D01*
X2581198Y9123324D01*
X2593594Y9133789D01*
X2593594Y9139021D01*
X2586126Y9145828D01*
G37*
D10*
X2407970Y10750450D02*
G01*
X2426512Y10741306D01*
X2444800Y10722764D01*
X2454198Y10704476D01*
X2454198Y10667392D01*
X2444800Y10648850D01*
X2426512Y10630562D01*
X2407970Y10621164D01*
X2380284Y10612020D01*
X2334056Y10612020D01*
X2306370Y10621164D01*
X2287828Y10630562D01*
X2269540Y10648850D01*
X2260142Y10667392D01*
X2260142Y10704476D01*
X2269540Y10722764D01*
X2287828Y10741306D01*
X2306370Y10750450D01*
X2454198Y10867036D02*
G01*
X2444800Y10848494D01*
X2426512Y10829952D01*
X2407970Y10820808D01*
X2380284Y10811410D01*
X2334056Y10811410D01*
X2306370Y10820808D01*
X2287828Y10829952D01*
X2269540Y10848494D01*
X2260142Y10867036D01*
X2260142Y10903866D01*
X2269540Y10922408D01*
X2287828Y10940696D01*
X2306370Y10950094D01*
X2334056Y10959238D01*
X2380284Y10959238D01*
X2407970Y10950094D01*
X2426512Y10940696D01*
X2444800Y10922408D01*
X2454198Y10903866D01*
X2454198Y10867036D01*
X2454198Y11020198D02*
G01*
X2260142Y11020198D01*
X2454198Y11020198D02*
G01*
X2260142Y11094112D01*
X2454198Y11168026D02*
G01*
X2260142Y11094112D01*
X2454198Y11168026D02*
G01*
X2260142Y11168026D01*
X2439172Y9456651D02*
G01*
X2300488Y9456651D01*
X2272802Y9466049D01*
X2254514Y9484337D01*
X2245116Y9512023D01*
X2245116Y9530565D01*
X2254514Y9558251D01*
X2272802Y9576793D01*
X2300488Y9585937D01*
X2439172Y9585937D01*
X2411486Y9776183D02*
G01*
X2430028Y9757895D01*
X2439172Y9730209D01*
X2439172Y9693125D01*
X2430028Y9665439D01*
X2411486Y9646897D01*
X2392944Y9646897D01*
X2374402Y9656295D01*
X2365258Y9665439D01*
X2356114Y9683981D01*
X2337572Y9739353D01*
X2328428Y9757895D01*
X2319030Y9767039D01*
X2300488Y9776183D01*
X2272802Y9776183D01*
X2254514Y9757895D01*
X2245116Y9730209D01*
X2245116Y9693125D01*
X2254514Y9665439D01*
X2272802Y9646897D01*
X2439172Y9837143D02*
G01*
X2245116Y9837143D01*
X2439172Y9837143D02*
G01*
X2439172Y9920455D01*
X2430028Y9948141D01*
X2420630Y9957285D01*
X2402088Y9966429D01*
X2383800Y9966429D01*
X2365258Y9957285D01*
X2356114Y9948141D01*
X2346716Y9920455D01*
X2346716Y9837143D02*
G01*
X2346716Y9920455D01*
X2337572Y9948141D01*
X2328428Y9957285D01*
X2309886Y9966429D01*
X2282200Y9966429D01*
X2263658Y9957285D01*
X2254514Y9948141D01*
X2245116Y9920455D01*
X2245116Y9837143D01*
D11*
X7969280Y10834090D02*
G01*
X7564170Y10832048D01*
X7639192Y9561733D02*
G01*
X7999318Y9561652D01*
X7999318Y9791778D01*
X7719151Y9791778D01*
X7719151Y10041971D01*
X7999318Y10041971D01*
X7999318Y10326956D01*
X7719151Y10326956D01*
X7719151Y10531932D01*
X7969343Y10531932D01*
X7969343Y11062032D01*
X7559136Y11062032D01*
D12*
X2562900Y10136860D02*
G01*
X1807715Y10136860D01*
X1807715Y9271635D01*
X2562900Y9271635D01*
X2562900Y10136860D01*
X2552893Y11307165D02*
G01*
X1797707Y11307165D01*
X1797707Y10441939D01*
X2552893Y10441939D01*
X2552893Y11307165D01*
X1794624Y11694236D02*
G01*
X7509601Y11694236D01*
X1794624Y11694236D02*
G01*
X1794624Y8900241D01*
X7509601Y8900241D02*
G01*
X7509601Y11694236D01*
X1794624Y8900241D02*
G01*
X7509601Y8900241D01*
X7474143Y11187135D02*
G01*
X5563933Y11186881D01*
X7479151Y9406691D02*
G01*
X5563933Y9406338D01*
X5563671Y9406691D02*
G01*
X5563671Y11162045D01*
X7474143Y9406691D02*
G01*
X8094146Y9406691D01*
X8094296Y11186421D02*
G01*
X8094296Y9417413D01*
X7474143Y11187140D02*
G01*
X8094159Y11187140D01*
M02*
