G04 Layer: BottomSolderMaskLayer*
G04 EasyEDA v6.5.44, 2024-08-15 21:03:17*
G04 2693c8bcb35a4eaa91412144a2bdb0cb,080bb0d1436b4706b040d70de8f1a738,10*
G04 Gerber Generator version 0.2*
G04 Scale: 100 percent, Rotated: No, Reflected: No *
G04 Dimensions in millimeters *
G04 leading zeros omitted , absolute positions ,4 integer and 5 decimal *
%FSLAX45Y45*%
%MOMM*%

%AMMACRO1*4,1,8,-1.0416,-1.9012,-1.1011,-1.8417,-1.1011,1.8417,-1.0416,1.9012,1.0416,1.9012,1.1011,1.8417,1.1011,-1.8417,1.0416,-1.9012,-1.0416,-1.9012,0*%
%AMMACRO2*4,1,8,-0.7751,-0.8048,-0.8048,-0.775,-0.8048,0.7751,-0.7751,0.8048,0.775,0.8048,0.8048,0.7751,0.8048,-0.775,0.775,-0.8048,-0.7751,-0.8048,0*%
%AMMACRO3*4,1,8,-0.7711,-0.8008,-0.8008,-0.771,-0.8008,0.771,-0.7711,0.8008,0.771,0.8008,0.8008,0.771,0.8008,-0.771,0.771,-0.8008,-0.7711,-0.8008,0*%
%AMMACRO4*4,1,8,-0.7711,-0.8008,-0.8008,-0.771,-0.8008,0.7711,-0.7711,0.8008,0.771,0.8008,0.8008,0.7711,0.8008,-0.771,0.771,-0.8008,-0.7711,-0.8008,0*%
%ADD10C,2.0041*%
%ADD11MACRO1*%
%ADD12C,1.7016*%
%ADD13C,1.6256*%
%ADD14MACRO2*%
%ADD15C,1.6096*%
%ADD16MACRO3*%
%ADD17C,1.6016*%
%ADD18MACRO4*%

%LPD*%
D10*
G01*
X10812779Y11136629D03*
G01*
X11061700Y11136629D03*
G01*
X11310620Y11136629D03*
G01*
X11310620Y12586970D03*
G01*
X10812779Y12586970D03*
D11*
G01*
X10436699Y11885930D03*
G01*
X11686700Y11885930D03*
D12*
G01*
X6083274Y9017000D03*
G01*
X5829274Y9017000D03*
G01*
X5575274Y9017000D03*
G01*
X5321274Y9017000D03*
G01*
X5067274Y9017000D03*
G01*
X4813274Y9017000D03*
G01*
X4559274Y9017000D03*
G01*
X4305274Y9017000D03*
G01*
X4051274Y9017000D03*
G01*
X3797274Y9017000D03*
G01*
X3543274Y9017000D03*
G01*
X3289274Y9017000D03*
G01*
X3035274Y9017000D03*
G01*
X2781274Y9017000D03*
G01*
X2527274Y9017000D03*
G01*
X2273274Y9017000D03*
G01*
X2019274Y9017000D03*
G01*
X1765274Y9017000D03*
G01*
X1511300Y9017000D03*
G01*
X6083045Y11557000D03*
G01*
X5829274Y11557000D03*
G01*
X5575274Y11557000D03*
G01*
X5321274Y11557000D03*
G01*
X5067274Y11557000D03*
G01*
X4813274Y11557000D03*
G01*
X4559274Y11557000D03*
G01*
X4305274Y11557000D03*
G01*
X4051274Y11557000D03*
G01*
X3797274Y11557000D03*
G01*
X3543274Y11557000D03*
G01*
X3289274Y11557000D03*
G01*
X3035274Y11557000D03*
G01*
X2781274Y11557000D03*
G01*
X2527274Y11557000D03*
G01*
X2273274Y11557000D03*
G01*
X2019274Y11557000D03*
G01*
X1765274Y11557000D03*
G01*
X1511300Y11557000D03*
D13*
G01*
X1257300Y11557000D03*
G01*
X1003300Y11557000D03*
G01*
X749300Y11557000D03*
G01*
X1257300Y9017000D03*
G01*
X1003300Y9017000D03*
G01*
X749300Y9017000D03*
D14*
G01*
X10668000Y10045700D03*
D15*
G01*
X10922000Y10045700D03*
G01*
X11176000Y10045700D03*
G01*
X11430000Y10045700D03*
D16*
G01*
X8013698Y7747000D03*
D17*
G01*
X7759700Y7747000D03*
G01*
X7505700Y7747000D03*
G01*
X7251700Y7747000D03*
G01*
X6997700Y7747000D03*
G01*
X6743700Y7747000D03*
G01*
X6489700Y7747000D03*
G01*
X6235700Y7747000D03*
D16*
G01*
X5829298Y7747000D03*
D17*
G01*
X5575300Y7747000D03*
G01*
X5321300Y7747000D03*
G01*
X5067300Y7747000D03*
G01*
X4813300Y7747000D03*
G01*
X4559300Y7747000D03*
G01*
X4305300Y7747000D03*
G01*
X4051300Y7747000D03*
G01*
X4051300Y12573000D03*
G01*
X4305300Y12573000D03*
G01*
X4559300Y12573000D03*
G01*
X4813300Y12573000D03*
G01*
X5067300Y12573000D03*
D18*
G01*
X5321298Y12573001D03*
D17*
G01*
X5829300Y12573000D03*
G01*
X6083300Y12573000D03*
G01*
X6337300Y12573000D03*
G01*
X6591300Y12573000D03*
G01*
X6845300Y12573000D03*
D18*
G01*
X7099298Y12573001D03*
M02*
