G04 Layer: TopLayer*
G04 EasyEDA v6.5.44, 2024-08-15 21:03:17*
G04 2693c8bcb35a4eaa91412144a2bdb0cb,080bb0d1436b4706b040d70de8f1a738,10*
G04 Gerber Generator version 0.2*
G04 Scale: 100 percent, Rotated: No, Reflected: No *
G04 Dimensions in millimeters *
G04 leading zeros omitted , absolute positions ,4 integer and 5 decimal *
%FSLAX45Y45*%
%MOMM*%

%ADD10C,1.0000*%
%ADD11C,0.6000*%
%ADD12C,1.8009*%
%ADD13R,1.9990X3.5992*%
%ADD14C,1.6000*%
%ADD15C,1.5240*%
%ADD16R,1.5080X1.5080*%
%ADD17C,1.5080*%
%ADD18R,1.5000X1.5000*%
%ADD19C,1.5000*%
%ADD20C,0.6100*%
%ADD21C,1.0100*%
%ADD22C,0.0122*%

%LPD*%
G36*
X544068Y7137908D02*
G01*
X540156Y7138670D01*
X536905Y7140905D01*
X534670Y7144156D01*
X533908Y7148068D01*
X533908Y13171932D01*
X534670Y13175843D01*
X536905Y13179094D01*
X540156Y13181330D01*
X544068Y13182092D01*
X12663932Y13182092D01*
X12667843Y13181330D01*
X12671094Y13179094D01*
X12673330Y13175843D01*
X12674092Y13171932D01*
X12674092Y7148068D01*
X12673330Y7144156D01*
X12671094Y7140905D01*
X12667843Y7138670D01*
X12663932Y7137908D01*
G37*

%LPC*%
G36*
X762000Y7238492D02*
G01*
X777392Y7239457D01*
X792530Y7242200D01*
X807212Y7246772D01*
X821232Y7253122D01*
X834440Y7261098D01*
X846531Y7270597D01*
X857402Y7281468D01*
X866902Y7293559D01*
X874877Y7306767D01*
X881227Y7320788D01*
X885799Y7335469D01*
X888542Y7350607D01*
X889508Y7366000D01*
X888542Y7381392D01*
X885799Y7396530D01*
X881227Y7411212D01*
X874877Y7425232D01*
X866902Y7438440D01*
X857402Y7450531D01*
X846531Y7461402D01*
X834440Y7470902D01*
X821232Y7478877D01*
X807212Y7485227D01*
X792530Y7489799D01*
X777392Y7492542D01*
X762000Y7493508D01*
X746607Y7492542D01*
X731469Y7489799D01*
X716788Y7485227D01*
X702767Y7478877D01*
X689559Y7470902D01*
X677468Y7461402D01*
X666597Y7450531D01*
X657098Y7438440D01*
X649122Y7425232D01*
X642772Y7411212D01*
X638200Y7396530D01*
X635457Y7381392D01*
X634492Y7366000D01*
X635457Y7350607D01*
X638200Y7335469D01*
X642772Y7320788D01*
X649122Y7306767D01*
X657098Y7293559D01*
X666597Y7281468D01*
X677468Y7270597D01*
X689559Y7261098D01*
X702767Y7253122D01*
X716788Y7246772D01*
X731469Y7242200D01*
X746607Y7239457D01*
G37*
G36*
X12090400Y7494117D02*
G01*
X12105589Y7495031D01*
X12120524Y7497775D01*
X12135053Y7502296D01*
X12148921Y7508544D01*
X12161926Y7516418D01*
X12173864Y7525766D01*
X12184634Y7536535D01*
X12193981Y7548473D01*
X12201855Y7561478D01*
X12208103Y7575346D01*
X12212624Y7589875D01*
X12215368Y7604810D01*
X12216282Y7620000D01*
X12215368Y7635189D01*
X12212624Y7650124D01*
X12208103Y7664653D01*
X12201855Y7678521D01*
X12193981Y7691526D01*
X12184634Y7703464D01*
X12173864Y7714234D01*
X12161926Y7723581D01*
X12148921Y7731455D01*
X12135053Y7737703D01*
X12120524Y7742224D01*
X12105589Y7744968D01*
X12090400Y7745882D01*
X12075210Y7744968D01*
X12060275Y7742224D01*
X12045746Y7737703D01*
X12031878Y7731455D01*
X12018873Y7723581D01*
X12006935Y7714234D01*
X11996166Y7703464D01*
X11986818Y7691526D01*
X11978944Y7678521D01*
X11972696Y7664653D01*
X11968175Y7650124D01*
X11965432Y7635189D01*
X11964517Y7620000D01*
X11965432Y7604810D01*
X11968175Y7589875D01*
X11972696Y7575346D01*
X11978944Y7561478D01*
X11986818Y7548473D01*
X11996166Y7536535D01*
X12006935Y7525766D01*
X12018873Y7516418D01*
X12031878Y7508544D01*
X12045746Y7502296D01*
X12060275Y7497775D01*
X12075210Y7495031D01*
G37*
G36*
X10007600Y7494117D02*
G01*
X10022789Y7495031D01*
X10037724Y7497775D01*
X10052253Y7502296D01*
X10066121Y7508544D01*
X10079126Y7516418D01*
X10091064Y7525766D01*
X10101834Y7536535D01*
X10111181Y7548473D01*
X10119055Y7561478D01*
X10125303Y7575346D01*
X10129824Y7589875D01*
X10132568Y7604810D01*
X10133482Y7620000D01*
X10132568Y7635189D01*
X10129824Y7650124D01*
X10125303Y7664653D01*
X10119055Y7678521D01*
X10111181Y7691526D01*
X10101834Y7703464D01*
X10091064Y7714234D01*
X10079126Y7723581D01*
X10066121Y7731455D01*
X10052253Y7737703D01*
X10037724Y7742224D01*
X10022789Y7744968D01*
X10007600Y7745882D01*
X9992410Y7744968D01*
X9977475Y7742224D01*
X9962946Y7737703D01*
X9949078Y7731455D01*
X9936073Y7723581D01*
X9924135Y7714234D01*
X9913366Y7703464D01*
X9904018Y7691526D01*
X9896144Y7678521D01*
X9889896Y7664653D01*
X9885375Y7650124D01*
X9882632Y7635189D01*
X9881717Y7620000D01*
X9882632Y7604810D01*
X9885375Y7589875D01*
X9889896Y7575346D01*
X9896144Y7561478D01*
X9904018Y7548473D01*
X9913366Y7536535D01*
X9924135Y7525766D01*
X9936073Y7516418D01*
X9949078Y7508544D01*
X9962946Y7502296D01*
X9977475Y7497775D01*
X9992410Y7495031D01*
G37*
G36*
X5523585Y7570673D02*
G01*
X7131100Y7570673D01*
X7136180Y7570927D01*
X7141006Y7571536D01*
X7145781Y7572603D01*
X7150404Y7574076D01*
X7154925Y7575956D01*
X7159244Y7578191D01*
X7163358Y7580833D01*
X7167219Y7583779D01*
X7170978Y7587234D01*
X7228281Y7644536D01*
X7230922Y7646416D01*
X7233970Y7647381D01*
X7237171Y7647381D01*
X7241590Y7646619D01*
X7255052Y7646162D01*
X7268464Y7647533D01*
X7281570Y7650632D01*
X7294168Y7655509D01*
X7306005Y7661960D01*
X7316825Y7669936D01*
X7326528Y7679334D01*
X7334859Y7689900D01*
X7341717Y7701483D01*
X7347000Y7713929D01*
X7350556Y7726883D01*
X7352334Y7740243D01*
X7352334Y7753756D01*
X7350556Y7767116D01*
X7347000Y7780070D01*
X7341717Y7792516D01*
X7334859Y7804099D01*
X7326528Y7814665D01*
X7316825Y7824063D01*
X7306005Y7832039D01*
X7294168Y7838490D01*
X7281570Y7843367D01*
X7268464Y7846466D01*
X7255052Y7847838D01*
X7241590Y7847380D01*
X7228331Y7845145D01*
X7215428Y7841132D01*
X7203236Y7835493D01*
X7191857Y7828229D01*
X7181545Y7819542D01*
X7172502Y7809534D01*
X7164882Y7798409D01*
X7158837Y7786370D01*
X7154418Y7773670D01*
X7151725Y7760462D01*
X7150811Y7747000D01*
X7152030Y7729372D01*
X7151065Y7726172D01*
X7149134Y7723479D01*
X7111136Y7685481D01*
X7107834Y7683296D01*
X7103922Y7682534D01*
X7094321Y7682534D01*
X7090156Y7683398D01*
X7086752Y7685887D01*
X7084618Y7689596D01*
X7084212Y7693812D01*
X7085584Y7697825D01*
X7087717Y7701483D01*
X7093000Y7713929D01*
X7096556Y7726883D01*
X7098334Y7740243D01*
X7098334Y7753756D01*
X7096556Y7767116D01*
X7093000Y7780070D01*
X7087717Y7792516D01*
X7080859Y7804099D01*
X7072528Y7814665D01*
X7062825Y7824063D01*
X7052005Y7832039D01*
X7040168Y7838490D01*
X7027570Y7843367D01*
X7014464Y7846466D01*
X7001052Y7847838D01*
X6987590Y7847380D01*
X6974331Y7845145D01*
X6961428Y7841132D01*
X6949236Y7835493D01*
X6937857Y7828229D01*
X6927545Y7819542D01*
X6918502Y7809534D01*
X6910882Y7798409D01*
X6904837Y7786370D01*
X6900418Y7773670D01*
X6897725Y7760462D01*
X6896811Y7747000D01*
X6897725Y7733538D01*
X6900418Y7720330D01*
X6904837Y7707630D01*
X6910070Y7697266D01*
X6911136Y7693304D01*
X6910527Y7689189D01*
X6908393Y7685684D01*
X6905040Y7683347D01*
X6900976Y7682534D01*
X6840321Y7682534D01*
X6836156Y7683398D01*
X6832752Y7685887D01*
X6830618Y7689596D01*
X6830212Y7693812D01*
X6831584Y7697825D01*
X6833717Y7701483D01*
X6839000Y7713929D01*
X6842556Y7726883D01*
X6844334Y7740243D01*
X6844334Y7753756D01*
X6842556Y7767116D01*
X6839000Y7780070D01*
X6833717Y7792516D01*
X6826859Y7804099D01*
X6818528Y7814665D01*
X6808825Y7824063D01*
X6798005Y7832039D01*
X6786168Y7838490D01*
X6773570Y7843367D01*
X6760464Y7846466D01*
X6747052Y7847838D01*
X6733590Y7847380D01*
X6729171Y7846618D01*
X6725970Y7846618D01*
X6722922Y7847584D01*
X6720281Y7849463D01*
X6421018Y8148777D01*
X6418783Y8152028D01*
X6418021Y8155940D01*
X6418783Y8159851D01*
X6421018Y8163102D01*
X6424320Y8165338D01*
X6428181Y8166100D01*
X7784084Y8166100D01*
X7785811Y8166811D01*
X8038388Y8419388D01*
X8039100Y8421116D01*
X8039100Y8930944D01*
X8039862Y8934805D01*
X8042097Y8938107D01*
X8045348Y8940342D01*
X8049259Y8941104D01*
X9895941Y8941155D01*
X9904780Y8941968D01*
X9907219Y8942374D01*
X9915855Y8944508D01*
X9918192Y8945270D01*
X9926421Y8948674D01*
X9928606Y8949791D01*
X9936226Y8954414D01*
X9945065Y8961475D01*
X10925606Y9941966D01*
X10928146Y9943795D01*
X10931144Y9944811D01*
X10945520Y9947198D01*
X10958423Y9951161D01*
X10970666Y9956901D01*
X10982096Y9964166D01*
X10992408Y9972903D01*
X11001502Y9982911D01*
X11009122Y9994087D01*
X11015268Y10006177D01*
X11019688Y10018928D01*
X11022380Y10032187D01*
X11023295Y10045700D01*
X11022380Y10059212D01*
X11019688Y10072471D01*
X11015268Y10085222D01*
X11009122Y10097312D01*
X11001502Y10108488D01*
X10992408Y10118496D01*
X10982096Y10127234D01*
X10970666Y10134498D01*
X10958423Y10140238D01*
X10945469Y10144201D01*
X10932160Y10146487D01*
X10918596Y10146944D01*
X10905134Y10145572D01*
X10891977Y10142423D01*
X10879378Y10137597D01*
X10867491Y10131094D01*
X10856620Y10123068D01*
X10846866Y10113619D01*
X10838484Y10103002D01*
X10831576Y10091369D01*
X10826343Y10078923D01*
X10822736Y10065867D01*
X10821314Y10055301D01*
X10820349Y10052151D01*
X10818418Y10049510D01*
X10786668Y10017709D01*
X10783366Y10015524D01*
X10779455Y10014712D01*
X10775594Y10015524D01*
X10772292Y10017709D01*
X10770057Y10021011D01*
X10769295Y10024872D01*
X10769295Y10120528D01*
X10768584Y10126827D01*
X10766704Y10132314D01*
X10763605Y10137190D01*
X10759490Y10141305D01*
X10754614Y10144404D01*
X10749127Y10146284D01*
X10742828Y10146995D01*
X10593171Y10146995D01*
X10586872Y10146284D01*
X10581386Y10144404D01*
X10576509Y10141305D01*
X10572394Y10137190D01*
X10569295Y10132314D01*
X10567416Y10126827D01*
X10566704Y10120528D01*
X10566704Y9970871D01*
X10567416Y9964572D01*
X10569295Y9959086D01*
X10572394Y9954209D01*
X10576509Y9950094D01*
X10581386Y9946995D01*
X10586872Y9945116D01*
X10593171Y9944404D01*
X10688828Y9944404D01*
X10692688Y9943642D01*
X10695990Y9941407D01*
X10698175Y9938105D01*
X10698988Y9934244D01*
X10698175Y9930333D01*
X10695990Y9927031D01*
X9864852Y9095892D01*
X9861550Y9093657D01*
X9857638Y9092895D01*
X8049259Y9092895D01*
X8045348Y9093657D01*
X8042097Y9095892D01*
X8039862Y9099194D01*
X8039100Y9103055D01*
X8039100Y11093805D01*
X8039862Y11097666D01*
X8042097Y11100968D01*
X8045348Y11103203D01*
X8049259Y11103965D01*
X10288473Y11103965D01*
X10292334Y11103203D01*
X10295636Y11100968D01*
X11327180Y10069423D01*
X11329009Y10066934D01*
X11330025Y10063988D01*
X11330076Y10060889D01*
X11328958Y10052456D01*
X11328958Y10038943D01*
X11330736Y10025532D01*
X11334343Y10012476D01*
X11339576Y10000030D01*
X11346484Y9988397D01*
X11354866Y9977780D01*
X11364620Y9968331D01*
X11375491Y9960305D01*
X11387378Y9953802D01*
X11399977Y9948976D01*
X11413134Y9945827D01*
X11426596Y9944455D01*
X11440160Y9944912D01*
X11453469Y9947198D01*
X11466423Y9951161D01*
X11478666Y9956901D01*
X11490096Y9964166D01*
X11500408Y9972903D01*
X11509502Y9982911D01*
X11517122Y9994087D01*
X11523268Y10006177D01*
X11527688Y10018928D01*
X11530380Y10032187D01*
X11531295Y10045700D01*
X11530380Y10059212D01*
X11527688Y10072471D01*
X11523268Y10085222D01*
X11517122Y10097312D01*
X11509502Y10108488D01*
X11500408Y10118496D01*
X11490096Y10127234D01*
X11478666Y10134498D01*
X11466423Y10140238D01*
X11453469Y10144201D01*
X11440160Y10146487D01*
X11426596Y10146944D01*
X11414353Y10145674D01*
X11409934Y10146233D01*
X11406124Y10148620D01*
X10355529Y11199266D01*
X10351770Y11202670D01*
X10347909Y11205667D01*
X10343794Y11208258D01*
X10339476Y11210544D01*
X10334955Y11212372D01*
X10330281Y11213846D01*
X10325557Y11214912D01*
X10320680Y11215573D01*
X10315600Y11215776D01*
X8049259Y11215776D01*
X8045348Y11216538D01*
X8042097Y11218773D01*
X8039862Y11222075D01*
X8039100Y11225936D01*
X8039100Y11267490D01*
X8039862Y11271351D01*
X8042097Y11274653D01*
X8045348Y11276888D01*
X8049259Y11277650D01*
X9882428Y11277650D01*
X9888169Y11277193D01*
X9897922Y11278057D01*
X9907422Y11280597D01*
X9916312Y11284762D01*
X9924389Y11290350D01*
X9931349Y11297310D01*
X9936937Y11305387D01*
X9941102Y11314277D01*
X9943642Y11323777D01*
X9944506Y11333530D01*
X9943642Y11343335D01*
X9941102Y11352834D01*
X9936937Y11361724D01*
X9931349Y11369802D01*
X9924389Y11376761D01*
X9916312Y11382349D01*
X9907422Y11386515D01*
X9897922Y11389055D01*
X9888169Y11389918D01*
X9882428Y11389461D01*
X8049259Y11389461D01*
X8045348Y11390223D01*
X8042097Y11392458D01*
X8039862Y11395760D01*
X8039100Y11399621D01*
X8039100Y11975084D01*
X8038388Y11976811D01*
X7785811Y12229388D01*
X7784084Y12230100D01*
X5081981Y12230100D01*
X5078120Y12230862D01*
X5074818Y12233097D01*
X5072583Y12236348D01*
X5071821Y12240260D01*
X5072583Y12244171D01*
X5074818Y12247422D01*
X5296458Y12469114D01*
X5299760Y12471298D01*
X5303672Y12472111D01*
X5395722Y12472111D01*
X5402072Y12472822D01*
X5407507Y12474702D01*
X5412435Y12477800D01*
X5416499Y12481864D01*
X5419598Y12486792D01*
X5421477Y12492228D01*
X5422188Y12498578D01*
X5422188Y12568275D01*
X5423001Y12572187D01*
X5425186Y12575438D01*
X5428488Y12577673D01*
X5432348Y12578435D01*
X5436260Y12577673D01*
X5439562Y12575438D01*
X5441543Y12573457D01*
X5449620Y12567818D01*
X5458510Y12563652D01*
X5468010Y12561112D01*
X5477814Y12560249D01*
X5487568Y12561112D01*
X5497068Y12563652D01*
X5505958Y12567818D01*
X5514035Y12573457D01*
X5520994Y12580416D01*
X5526582Y12588443D01*
X5530748Y12597333D01*
X5533288Y12606832D01*
X5534152Y12616637D01*
X5533694Y12622377D01*
X5533694Y12645694D01*
X5533491Y12650774D01*
X5532831Y12655651D01*
X5531764Y12660376D01*
X5530342Y12665049D01*
X5528462Y12669570D01*
X5526176Y12673888D01*
X5523585Y12678003D01*
X5520588Y12681864D01*
X5517184Y12685623D01*
X5468823Y12733985D01*
X5465064Y12737388D01*
X5461203Y12740386D01*
X5457088Y12742976D01*
X5452770Y12745262D01*
X5448249Y12747091D01*
X5443575Y12748564D01*
X5438851Y12749631D01*
X5433974Y12750292D01*
X5428894Y12750495D01*
X4427118Y12750495D01*
X4422038Y12750292D01*
X4417161Y12749631D01*
X4412437Y12748564D01*
X4407763Y12747091D01*
X4403242Y12745262D01*
X4398924Y12742976D01*
X4394809Y12740386D01*
X4390948Y12737388D01*
X4387189Y12733985D01*
X4328769Y12675565D01*
X4325010Y12673177D01*
X4320590Y12672618D01*
X4308652Y12673838D01*
X4295190Y12673380D01*
X4281932Y12671145D01*
X4269028Y12667132D01*
X4256836Y12661493D01*
X4245457Y12654229D01*
X4235145Y12645542D01*
X4226102Y12635534D01*
X4218482Y12624409D01*
X4212437Y12612370D01*
X4208018Y12599670D01*
X4205325Y12586462D01*
X4204411Y12573000D01*
X4205325Y12559538D01*
X4208018Y12546330D01*
X4212437Y12533630D01*
X4218482Y12521590D01*
X4226102Y12510465D01*
X4235145Y12500457D01*
X4245457Y12491770D01*
X4256836Y12484506D01*
X4269028Y12478867D01*
X4281932Y12474854D01*
X4295190Y12472619D01*
X4308652Y12472162D01*
X4322064Y12473533D01*
X4335170Y12476632D01*
X4347768Y12481509D01*
X4359605Y12487960D01*
X4370425Y12495936D01*
X4380128Y12505334D01*
X4388459Y12515900D01*
X4395317Y12527483D01*
X4400600Y12539929D01*
X4404156Y12552883D01*
X4405934Y12566243D01*
X4405934Y12579756D01*
X4404868Y12587833D01*
X4404918Y12590932D01*
X4405934Y12593878D01*
X4407763Y12596368D01*
X4447082Y12635687D01*
X4450384Y12637922D01*
X4454245Y12638684D01*
X4463186Y12638684D01*
X4467199Y12637871D01*
X4470603Y12635484D01*
X4472736Y12631978D01*
X4473346Y12627914D01*
X4472279Y12623952D01*
X4466437Y12612370D01*
X4462018Y12599670D01*
X4459325Y12586462D01*
X4458411Y12573000D01*
X4459325Y12559538D01*
X4462018Y12546330D01*
X4466437Y12533630D01*
X4472482Y12521590D01*
X4480102Y12510465D01*
X4489145Y12500457D01*
X4499457Y12491770D01*
X4510836Y12484506D01*
X4523028Y12478867D01*
X4535932Y12474854D01*
X4538065Y12474498D01*
X4542129Y12472822D01*
X4545126Y12469622D01*
X4546447Y12465405D01*
X4545888Y12461036D01*
X4543552Y12457277D01*
X4541062Y12454839D01*
X4535474Y12446812D01*
X4531309Y12437922D01*
X4528769Y12428423D01*
X4527905Y12418618D01*
X4528769Y12408814D01*
X4531309Y12399314D01*
X4535474Y12390424D01*
X4541062Y12382398D01*
X4548022Y12375438D01*
X4556099Y12369800D01*
X4564989Y12365634D01*
X4574489Y12363094D01*
X4584293Y12362230D01*
X4589983Y12362688D01*
X4912715Y12362688D01*
X4917795Y12362942D01*
X4922621Y12363551D01*
X4927396Y12364618D01*
X4932019Y12366091D01*
X4936540Y12367971D01*
X4940858Y12370206D01*
X4944973Y12372848D01*
X4948834Y12375794D01*
X4952593Y12379248D01*
X5043881Y12470536D01*
X5046522Y12472416D01*
X5049570Y12473381D01*
X5052771Y12473381D01*
X5057190Y12472619D01*
X5070652Y12472162D01*
X5084064Y12473533D01*
X5097170Y12476632D01*
X5109768Y12481509D01*
X5121605Y12487960D01*
X5132425Y12495936D01*
X5142128Y12505334D01*
X5150459Y12515900D01*
X5157317Y12527483D01*
X5162600Y12539929D01*
X5166156Y12552883D01*
X5167934Y12566243D01*
X5167934Y12579756D01*
X5166156Y12593116D01*
X5162600Y12606070D01*
X5157317Y12618516D01*
X5154472Y12623342D01*
X5153101Y12627356D01*
X5153507Y12631572D01*
X5155641Y12635280D01*
X5159044Y12637770D01*
X5163210Y12638684D01*
X5210251Y12638684D01*
X5214112Y12637922D01*
X5217414Y12635687D01*
X5219598Y12632385D01*
X5220411Y12628524D01*
X5220411Y12555372D01*
X5219598Y12551460D01*
X5217414Y12548158D01*
X4902301Y12233097D01*
X4898999Y12230862D01*
X4895138Y12230100D01*
X4484116Y12230100D01*
X4482388Y12229388D01*
X4227474Y11974322D01*
X4224578Y11972747D01*
X4221327Y11972239D01*
X3933088Y11972239D01*
X3927348Y11972696D01*
X3917543Y11971832D01*
X3908044Y11969292D01*
X3899154Y11965127D01*
X3891127Y11959488D01*
X3884168Y11952528D01*
X3878529Y11944502D01*
X3874363Y11935612D01*
X3871823Y11926112D01*
X3870960Y11916308D01*
X3871823Y11906504D01*
X3874363Y11897004D01*
X3878529Y11888114D01*
X3884168Y11880088D01*
X3891127Y11873128D01*
X3899154Y11867489D01*
X3908044Y11863324D01*
X3917543Y11860784D01*
X3927348Y11859920D01*
X3933088Y11860377D01*
X4218940Y11860377D01*
X4222851Y11859615D01*
X4226102Y11857431D01*
X4228338Y11854129D01*
X4229100Y11850217D01*
X4229100Y11634216D01*
X4228439Y11630609D01*
X4226560Y11627510D01*
X4221276Y11621465D01*
X4213555Y11609933D01*
X4207459Y11597538D01*
X4202988Y11584381D01*
X4200296Y11570817D01*
X4199382Y11557000D01*
X4200296Y11543182D01*
X4202988Y11529568D01*
X4207459Y11516461D01*
X4213555Y11504066D01*
X4217263Y11498529D01*
X4218838Y11494617D01*
X4218635Y11490350D01*
X4216755Y11486540D01*
X4213504Y11483848D01*
X4209389Y11482730D01*
X4205173Y11483390D01*
X4201617Y11485727D01*
X4158081Y11529263D01*
X4156151Y11531955D01*
X4155186Y11535105D01*
X4155338Y11538407D01*
X4156252Y11543182D01*
X4157167Y11557000D01*
X4156252Y11570817D01*
X4153560Y11584381D01*
X4149090Y11597538D01*
X4142994Y11609933D01*
X4135272Y11621465D01*
X4126179Y11631879D01*
X4115765Y11641023D01*
X4104233Y11648694D01*
X4091787Y11654840D01*
X4078681Y11659260D01*
X4065117Y11661952D01*
X4051300Y11662867D01*
X4037482Y11661952D01*
X4023868Y11659260D01*
X4010761Y11654840D01*
X3998366Y11648694D01*
X3986834Y11641023D01*
X3976420Y11631879D01*
X3967276Y11621465D01*
X3959606Y11609933D01*
X3953459Y11597538D01*
X3948988Y11584381D01*
X3946296Y11570817D01*
X3945382Y11557000D01*
X3946296Y11543182D01*
X3948988Y11529568D01*
X3953459Y11516461D01*
X3959606Y11504066D01*
X3967276Y11492534D01*
X3976420Y11482120D01*
X3986834Y11472976D01*
X3998366Y11465306D01*
X4010761Y11459159D01*
X4023868Y11454739D01*
X4037482Y11451996D01*
X4051300Y11451132D01*
X4065117Y11451996D01*
X4069842Y11452961D01*
X4073194Y11453063D01*
X4076344Y11452098D01*
X4079036Y11450167D01*
X4226102Y11303101D01*
X4228338Y11299799D01*
X4229100Y11295888D01*
X4229100Y10839856D01*
X4228338Y10835995D01*
X4226102Y10832693D01*
X4222851Y10830458D01*
X4218940Y10829696D01*
X2575864Y10829696D01*
X2571953Y10830458D01*
X2568651Y10832693D01*
X1947976Y11453368D01*
X1945639Y11456924D01*
X1945030Y11461140D01*
X1946148Y11465204D01*
X1948840Y11468506D01*
X1952599Y11470386D01*
X1956866Y11470589D01*
X1960778Y11469014D01*
X1966366Y11465306D01*
X1978761Y11459159D01*
X1991868Y11454739D01*
X2005482Y11451996D01*
X2019300Y11451132D01*
X2033117Y11451996D01*
X2046681Y11454739D01*
X2059787Y11459159D01*
X2072233Y11465306D01*
X2083765Y11472976D01*
X2094179Y11482120D01*
X2103272Y11492534D01*
X2110994Y11504066D01*
X2117140Y11516461D01*
X2121560Y11529568D01*
X2124252Y11543182D01*
X2125167Y11557000D01*
X2124252Y11570817D01*
X2121560Y11584381D01*
X2117140Y11597538D01*
X2110994Y11609933D01*
X2103272Y11621465D01*
X2094179Y11631879D01*
X2083765Y11641023D01*
X2072233Y11648694D01*
X2059787Y11654840D01*
X2046681Y11659260D01*
X2033117Y11661952D01*
X2019300Y11662867D01*
X2005482Y11661952D01*
X1991868Y11659260D01*
X1978761Y11654840D01*
X1966366Y11648694D01*
X1954834Y11641023D01*
X1944420Y11631879D01*
X1935276Y11621465D01*
X1927606Y11609933D01*
X1921459Y11597538D01*
X1916988Y11584381D01*
X1914296Y11570817D01*
X1913382Y11557000D01*
X1914296Y11543182D01*
X1916988Y11529568D01*
X1921459Y11516461D01*
X1927606Y11504066D01*
X1931314Y11498529D01*
X1932889Y11494566D01*
X1932686Y11490299D01*
X1930806Y11486540D01*
X1927504Y11483848D01*
X1923440Y11482730D01*
X1919224Y11483390D01*
X1915668Y11485676D01*
X1872081Y11529263D01*
X1870151Y11531904D01*
X1869236Y11535105D01*
X1869338Y11538407D01*
X1870252Y11543182D01*
X1871167Y11557000D01*
X1870252Y11570817D01*
X1867560Y11584381D01*
X1863140Y11597538D01*
X1856993Y11609933D01*
X1849272Y11621465D01*
X1840179Y11631879D01*
X1829765Y11641023D01*
X1818233Y11648694D01*
X1805787Y11654840D01*
X1792681Y11659260D01*
X1779117Y11661952D01*
X1765300Y11662867D01*
X1751482Y11661952D01*
X1737868Y11659260D01*
X1724761Y11654840D01*
X1712366Y11648694D01*
X1700834Y11641023D01*
X1690420Y11631879D01*
X1681276Y11621465D01*
X1673606Y11609933D01*
X1667459Y11597538D01*
X1662988Y11584381D01*
X1660296Y11570817D01*
X1659382Y11557000D01*
X1660296Y11543182D01*
X1662988Y11529568D01*
X1667459Y11516461D01*
X1673606Y11504066D01*
X1681276Y11492534D01*
X1690420Y11482120D01*
X1700834Y11472976D01*
X1712366Y11465306D01*
X1724761Y11459159D01*
X1737868Y11454739D01*
X1751482Y11451996D01*
X1765300Y11451132D01*
X1779117Y11451996D01*
X1783842Y11452961D01*
X1787194Y11453063D01*
X1790344Y11452098D01*
X1793036Y11450167D01*
X2508808Y10734395D01*
X2512568Y10730992D01*
X2516428Y10727994D01*
X2520543Y10725404D01*
X2524861Y10723118D01*
X2529382Y10721238D01*
X2534005Y10719816D01*
X2538780Y10718749D01*
X2543606Y10718088D01*
X2548686Y10717885D01*
X4218940Y10717885D01*
X4222851Y10717123D01*
X4226102Y10714888D01*
X4228338Y10711586D01*
X4229100Y10707725D01*
X4229100Y10538815D01*
X4228338Y10534954D01*
X4226102Y10531652D01*
X4222851Y10529417D01*
X4218940Y10528655D01*
X2436418Y10528604D01*
X2427579Y10527792D01*
X2425141Y10527385D01*
X2416505Y10525252D01*
X2414168Y10524490D01*
X2405938Y10521086D01*
X2403754Y10519968D01*
X2396134Y10515346D01*
X2387295Y10508284D01*
X1000353Y9121394D01*
X997508Y9119412D01*
X994156Y9118447D01*
X986282Y9117685D01*
X973023Y9114485D01*
X960323Y9109608D01*
X948334Y9103055D01*
X937361Y9094978D01*
X927557Y9085478D01*
X919124Y9074759D01*
X912164Y9063024D01*
X906830Y9050477D01*
X903224Y9037320D01*
X901446Y9023807D01*
X901446Y9010192D01*
X903224Y8996680D01*
X906830Y8983522D01*
X912164Y8970975D01*
X919124Y8959240D01*
X927557Y8948521D01*
X937361Y8939022D01*
X948334Y8930944D01*
X960323Y8924391D01*
X973023Y8919514D01*
X986282Y8916365D01*
X999896Y8914993D01*
X1013510Y8915450D01*
X1026972Y8917686D01*
X1039977Y8921750D01*
X1052322Y8927490D01*
X1063853Y8934805D01*
X1074267Y8943644D01*
X1083411Y8953754D01*
X1091133Y8964980D01*
X1097280Y8977172D01*
X1101750Y8990025D01*
X1104442Y9003385D01*
X1104747Y9007551D01*
X1105611Y9011056D01*
X1107694Y9014053D01*
X1140053Y9046413D01*
X1143558Y9048699D01*
X1147724Y9049359D01*
X1151737Y9048343D01*
X1155039Y9045752D01*
X1157020Y9042044D01*
X1157325Y9037878D01*
X1155446Y9023807D01*
X1155446Y9010192D01*
X1157224Y8996680D01*
X1160830Y8983522D01*
X1166164Y8970975D01*
X1173124Y8959240D01*
X1181557Y8948521D01*
X1191361Y8939022D01*
X1202334Y8930944D01*
X1214323Y8924391D01*
X1227023Y8919514D01*
X1240282Y8916365D01*
X1253896Y8914993D01*
X1267510Y8915450D01*
X1272844Y8916314D01*
X1276096Y8916365D01*
X1279144Y8915400D01*
X1281734Y8913520D01*
X1493062Y8702192D01*
X1496822Y8698738D01*
X1500682Y8695791D01*
X1504797Y8693150D01*
X1509115Y8690914D01*
X1513636Y8689035D01*
X1518259Y8687562D01*
X1523034Y8686495D01*
X1527860Y8685885D01*
X1532940Y8685631D01*
X2104694Y8685631D01*
X2108758Y8684818D01*
X2112162Y8682380D01*
X2114296Y8678875D01*
X2114854Y8674760D01*
X2113686Y8670747D01*
X2111044Y8667546D01*
X2107336Y8665667D01*
X2099716Y8663635D01*
X2090826Y8659469D01*
X2082800Y8653881D01*
X2075840Y8646922D01*
X2070201Y8638844D01*
X2066036Y8629954D01*
X2063496Y8620455D01*
X2062632Y8610650D01*
X2063496Y8600897D01*
X2066036Y8591397D01*
X2070201Y8582507D01*
X2075840Y8574430D01*
X2082800Y8567470D01*
X2090826Y8561882D01*
X2099716Y8557717D01*
X2109216Y8555177D01*
X2119020Y8554313D01*
X2124760Y8554770D01*
X4218940Y8554770D01*
X4222851Y8554008D01*
X4226102Y8551773D01*
X4228338Y8548471D01*
X4229100Y8544610D01*
X4229100Y8421116D01*
X4229811Y8419388D01*
X4482388Y8166811D01*
X4484116Y8166100D01*
X5004104Y8166100D01*
X5007965Y8165338D01*
X5011267Y8163102D01*
X5310835Y7863586D01*
X5313172Y7859877D01*
X5313730Y7855508D01*
X5312410Y7851292D01*
X5309412Y7848041D01*
X5305298Y7846364D01*
X5297932Y7845145D01*
X5285028Y7841132D01*
X5272836Y7835493D01*
X5261457Y7828229D01*
X5251145Y7819542D01*
X5242102Y7809534D01*
X5234482Y7798409D01*
X5228437Y7786370D01*
X5224018Y7773670D01*
X5221325Y7760462D01*
X5220411Y7747000D01*
X5221325Y7733538D01*
X5224018Y7720330D01*
X5228437Y7707630D01*
X5234482Y7695590D01*
X5242102Y7684465D01*
X5251145Y7674457D01*
X5261457Y7665770D01*
X5272836Y7658506D01*
X5285028Y7652867D01*
X5297932Y7648854D01*
X5311190Y7646619D01*
X5324652Y7646162D01*
X5338064Y7647533D01*
X5351170Y7650632D01*
X5363768Y7655509D01*
X5375605Y7661960D01*
X5390946Y7673086D01*
X5395163Y7673644D01*
X5399227Y7672476D01*
X5402427Y7669682D01*
X5405577Y7665669D01*
X5408980Y7661909D01*
X5483656Y7587234D01*
X5487416Y7583779D01*
X5491276Y7580833D01*
X5495391Y7578191D01*
X5499709Y7575956D01*
X5504230Y7574076D01*
X5508904Y7572603D01*
X5513628Y7571536D01*
X5518505Y7570927D01*
G37*
G36*
X7939278Y7646111D02*
G01*
X8088122Y7646111D01*
X8094472Y7646822D01*
X8099907Y7648702D01*
X8104835Y7651800D01*
X8108899Y7655864D01*
X8111998Y7660792D01*
X8113877Y7666228D01*
X8114588Y7672578D01*
X8114588Y7821422D01*
X8113877Y7827772D01*
X8111998Y7833207D01*
X8108899Y7838135D01*
X8104835Y7842199D01*
X8099907Y7845298D01*
X8094472Y7847177D01*
X8088122Y7847888D01*
X7939278Y7847888D01*
X7932928Y7847177D01*
X7927492Y7845298D01*
X7922564Y7842199D01*
X7918500Y7838135D01*
X7915402Y7833207D01*
X7913522Y7827772D01*
X7912811Y7821422D01*
X7912811Y7672578D01*
X7913522Y7666228D01*
X7915402Y7660792D01*
X7918500Y7655864D01*
X7922564Y7651800D01*
X7927492Y7648702D01*
X7932928Y7646822D01*
G37*
G36*
X4562652Y7646162D02*
G01*
X4576064Y7647533D01*
X4589170Y7650632D01*
X4601768Y7655509D01*
X4613605Y7661960D01*
X4624425Y7669936D01*
X4634128Y7679334D01*
X4642459Y7689900D01*
X4649317Y7701483D01*
X4654600Y7713929D01*
X4658156Y7726883D01*
X4659934Y7740243D01*
X4659934Y7753756D01*
X4658156Y7767116D01*
X4654600Y7780070D01*
X4649317Y7792516D01*
X4642459Y7804099D01*
X4634128Y7814665D01*
X4624425Y7824063D01*
X4613605Y7832039D01*
X4601768Y7838490D01*
X4589170Y7843367D01*
X4576064Y7846466D01*
X4562652Y7847838D01*
X4549190Y7847380D01*
X4535932Y7845145D01*
X4523028Y7841132D01*
X4510836Y7835493D01*
X4499457Y7828229D01*
X4489145Y7819542D01*
X4480102Y7809534D01*
X4472482Y7798409D01*
X4466437Y7786370D01*
X4462018Y7773670D01*
X4459325Y7760462D01*
X4458411Y7747000D01*
X4459325Y7733538D01*
X4462018Y7720330D01*
X4466437Y7707630D01*
X4472482Y7695590D01*
X4480102Y7684465D01*
X4489145Y7674457D01*
X4499457Y7665770D01*
X4510836Y7658506D01*
X4523028Y7652867D01*
X4535932Y7648854D01*
X4549190Y7646619D01*
G37*
G36*
X4054652Y7646162D02*
G01*
X4068064Y7647533D01*
X4081170Y7650632D01*
X4093768Y7655509D01*
X4105605Y7661960D01*
X4116425Y7669936D01*
X4126128Y7679334D01*
X4134459Y7689900D01*
X4141317Y7701483D01*
X4146600Y7713929D01*
X4150156Y7726883D01*
X4151934Y7740243D01*
X4151934Y7753756D01*
X4150156Y7767116D01*
X4146600Y7780070D01*
X4141317Y7792516D01*
X4134459Y7804099D01*
X4126128Y7814665D01*
X4116425Y7824063D01*
X4105605Y7832039D01*
X4093768Y7838490D01*
X4081170Y7843367D01*
X4068064Y7846466D01*
X4054652Y7847838D01*
X4041190Y7847380D01*
X4027932Y7845145D01*
X4015028Y7841132D01*
X4002836Y7835493D01*
X3991457Y7828229D01*
X3981145Y7819542D01*
X3972102Y7809534D01*
X3964482Y7798409D01*
X3958437Y7786370D01*
X3954018Y7773670D01*
X3951325Y7760462D01*
X3950411Y7747000D01*
X3951325Y7733538D01*
X3954018Y7720330D01*
X3958437Y7707630D01*
X3964482Y7695590D01*
X3972102Y7684465D01*
X3981145Y7674457D01*
X3991457Y7665770D01*
X4002836Y7658506D01*
X4015028Y7652867D01*
X4027932Y7648854D01*
X4041190Y7646619D01*
G37*
G36*
X4816652Y7646162D02*
G01*
X4830064Y7647533D01*
X4843170Y7650632D01*
X4855768Y7655509D01*
X4867605Y7661960D01*
X4878425Y7669936D01*
X4888128Y7679334D01*
X4896459Y7689900D01*
X4903317Y7701483D01*
X4908600Y7713929D01*
X4912156Y7726883D01*
X4913934Y7740243D01*
X4913934Y7753756D01*
X4912156Y7767116D01*
X4908600Y7780070D01*
X4903317Y7792516D01*
X4896459Y7804099D01*
X4888128Y7814665D01*
X4878425Y7824063D01*
X4867605Y7832039D01*
X4855768Y7838490D01*
X4843170Y7843367D01*
X4830064Y7846466D01*
X4816652Y7847838D01*
X4803190Y7847380D01*
X4789932Y7845145D01*
X4777028Y7841132D01*
X4764836Y7835493D01*
X4753457Y7828229D01*
X4743145Y7819542D01*
X4734102Y7809534D01*
X4726482Y7798409D01*
X4720437Y7786370D01*
X4716018Y7773670D01*
X4713325Y7760462D01*
X4712411Y7747000D01*
X4713325Y7733538D01*
X4716018Y7720330D01*
X4720437Y7707630D01*
X4726482Y7695590D01*
X4734102Y7684465D01*
X4743145Y7674457D01*
X4753457Y7665770D01*
X4764836Y7658506D01*
X4777028Y7652867D01*
X4789932Y7648854D01*
X4803190Y7646619D01*
G37*
G36*
X7509052Y7646162D02*
G01*
X7522464Y7647533D01*
X7535570Y7650632D01*
X7548168Y7655509D01*
X7560005Y7661960D01*
X7570825Y7669936D01*
X7580528Y7679334D01*
X7588859Y7689900D01*
X7595717Y7701483D01*
X7601000Y7713929D01*
X7604556Y7726883D01*
X7606334Y7740243D01*
X7606334Y7753756D01*
X7604556Y7767116D01*
X7601000Y7780070D01*
X7595717Y7792516D01*
X7588859Y7804099D01*
X7580528Y7814665D01*
X7570825Y7824063D01*
X7560005Y7832039D01*
X7548168Y7838490D01*
X7535570Y7843367D01*
X7522464Y7846466D01*
X7509052Y7847838D01*
X7495590Y7847380D01*
X7482331Y7845145D01*
X7469428Y7841132D01*
X7457236Y7835493D01*
X7445857Y7828229D01*
X7435545Y7819542D01*
X7426502Y7809534D01*
X7418882Y7798409D01*
X7412837Y7786370D01*
X7408418Y7773670D01*
X7405725Y7760462D01*
X7404811Y7747000D01*
X7405725Y7733538D01*
X7408418Y7720330D01*
X7412837Y7707630D01*
X7418882Y7695590D01*
X7426502Y7684465D01*
X7435545Y7674457D01*
X7445857Y7665770D01*
X7457236Y7658506D01*
X7469428Y7652867D01*
X7482331Y7648854D01*
X7495590Y7646619D01*
G37*
G36*
X5070652Y7646162D02*
G01*
X5084064Y7647533D01*
X5097170Y7650632D01*
X5109768Y7655509D01*
X5121605Y7661960D01*
X5132425Y7669936D01*
X5142128Y7679334D01*
X5150459Y7689900D01*
X5157317Y7701483D01*
X5162600Y7713929D01*
X5166156Y7726883D01*
X5167934Y7740243D01*
X5167934Y7753756D01*
X5166156Y7767116D01*
X5162600Y7780070D01*
X5157317Y7792516D01*
X5150459Y7804099D01*
X5142128Y7814665D01*
X5132425Y7824063D01*
X5121605Y7832039D01*
X5109768Y7838490D01*
X5097170Y7843367D01*
X5084064Y7846466D01*
X5070652Y7847838D01*
X5057190Y7847380D01*
X5043932Y7845145D01*
X5031028Y7841132D01*
X5018836Y7835493D01*
X5007457Y7828229D01*
X4997145Y7819542D01*
X4988102Y7809534D01*
X4980482Y7798409D01*
X4974437Y7786370D01*
X4970018Y7773670D01*
X4967325Y7760462D01*
X4966411Y7747000D01*
X4967325Y7733538D01*
X4970018Y7720330D01*
X4974437Y7707630D01*
X4980482Y7695590D01*
X4988102Y7684465D01*
X4997145Y7674457D01*
X5007457Y7665770D01*
X5018836Y7658506D01*
X5031028Y7652867D01*
X5043932Y7648854D01*
X5057190Y7646619D01*
G37*
G36*
X4308652Y7646162D02*
G01*
X4322064Y7647533D01*
X4335170Y7650632D01*
X4347768Y7655509D01*
X4359605Y7661960D01*
X4370425Y7669936D01*
X4380128Y7679334D01*
X4388459Y7689900D01*
X4395317Y7701483D01*
X4400600Y7713929D01*
X4404156Y7726883D01*
X4405934Y7740243D01*
X4405934Y7753756D01*
X4404156Y7767116D01*
X4400600Y7780070D01*
X4395317Y7792516D01*
X4388459Y7804099D01*
X4380128Y7814665D01*
X4370425Y7824063D01*
X4359605Y7832039D01*
X4347768Y7838490D01*
X4335170Y7843367D01*
X4322064Y7846466D01*
X4308652Y7847838D01*
X4295190Y7847380D01*
X4281932Y7845145D01*
X4269028Y7841132D01*
X4256836Y7835493D01*
X4245457Y7828229D01*
X4235145Y7819542D01*
X4226102Y7809534D01*
X4218482Y7798409D01*
X4212437Y7786370D01*
X4208018Y7773670D01*
X4205325Y7760462D01*
X4204411Y7747000D01*
X4205325Y7733538D01*
X4208018Y7720330D01*
X4212437Y7707630D01*
X4218482Y7695590D01*
X4226102Y7684465D01*
X4235145Y7674457D01*
X4245457Y7665770D01*
X4256836Y7658506D01*
X4269028Y7652867D01*
X4281932Y7648854D01*
X4295190Y7646619D01*
G37*
G36*
X7763052Y7646162D02*
G01*
X7776464Y7647533D01*
X7789570Y7650632D01*
X7802168Y7655509D01*
X7814005Y7661960D01*
X7824825Y7669936D01*
X7834528Y7679334D01*
X7842859Y7689900D01*
X7849717Y7701483D01*
X7855000Y7713929D01*
X7858556Y7726883D01*
X7860334Y7740243D01*
X7860334Y7753756D01*
X7858556Y7767116D01*
X7855000Y7780070D01*
X7849717Y7792516D01*
X7842859Y7804099D01*
X7834528Y7814665D01*
X7824825Y7824063D01*
X7814005Y7832039D01*
X7802168Y7838490D01*
X7789570Y7843367D01*
X7776464Y7846466D01*
X7763052Y7847838D01*
X7749590Y7847380D01*
X7736331Y7845145D01*
X7723428Y7841132D01*
X7711236Y7835493D01*
X7699857Y7828229D01*
X7689545Y7819542D01*
X7680502Y7809534D01*
X7672882Y7798409D01*
X7666837Y7786370D01*
X7662418Y7773670D01*
X7659725Y7760462D01*
X7658811Y7747000D01*
X7659725Y7733538D01*
X7662418Y7720330D01*
X7666837Y7707630D01*
X7672882Y7695590D01*
X7680502Y7684465D01*
X7689545Y7674457D01*
X7699857Y7665770D01*
X7711236Y7658506D01*
X7723428Y7652867D01*
X7736331Y7648854D01*
X7749590Y7646619D01*
G37*
G36*
X704850Y8925204D02*
G01*
X704850Y8972550D01*
X657504Y8972550D01*
X658164Y8970975D01*
X665124Y8959240D01*
X673557Y8948521D01*
X683361Y8939022D01*
X694334Y8930944D01*
G37*
G36*
X793750Y8925356D02*
G01*
X798322Y8927490D01*
X809853Y8934805D01*
X820267Y8943644D01*
X829411Y8953754D01*
X837133Y8964980D01*
X840943Y8972550D01*
X793750Y8972550D01*
G37*
G36*
X793750Y9061450D02*
G01*
X840943Y9061450D01*
X837133Y9069019D01*
X829411Y9080296D01*
X820267Y9090406D01*
X809853Y9099194D01*
X798322Y9106509D01*
X793750Y9108643D01*
G37*
G36*
X657504Y9061450D02*
G01*
X704850Y9061450D01*
X704850Y9108795D01*
X694334Y9103055D01*
X683361Y9094978D01*
X673557Y9085478D01*
X665124Y9074759D01*
X658164Y9063024D01*
G37*
G36*
X11172596Y9944455D02*
G01*
X11186160Y9944912D01*
X11199469Y9947198D01*
X11212423Y9951161D01*
X11224666Y9956901D01*
X11236096Y9964166D01*
X11246408Y9972903D01*
X11255502Y9982911D01*
X11263122Y9994087D01*
X11269268Y10006177D01*
X11273688Y10018928D01*
X11276380Y10032187D01*
X11277295Y10045700D01*
X11276380Y10059212D01*
X11273688Y10072471D01*
X11269268Y10085222D01*
X11263122Y10097312D01*
X11255502Y10108488D01*
X11246408Y10118496D01*
X11236096Y10127234D01*
X11224666Y10134498D01*
X11212423Y10140238D01*
X11199469Y10144201D01*
X11186160Y10146487D01*
X11172596Y10146944D01*
X11159134Y10145572D01*
X11145977Y10142423D01*
X11133378Y10137597D01*
X11121491Y10131094D01*
X11110620Y10123068D01*
X11100866Y10113619D01*
X11092484Y10103002D01*
X11085576Y10091369D01*
X11080343Y10078923D01*
X11076736Y10065867D01*
X11074958Y10052456D01*
X11074958Y10038943D01*
X11076736Y10025532D01*
X11080343Y10012476D01*
X11085576Y10000030D01*
X11092484Y9988397D01*
X11100866Y9977780D01*
X11110620Y9968331D01*
X11121491Y9960305D01*
X11133378Y9953802D01*
X11145977Y9948976D01*
X11159134Y9945827D01*
G37*
G36*
X10805515Y11020907D02*
G01*
X10820044Y11020907D01*
X10834522Y11022736D01*
X10848594Y11026394D01*
X10862157Y11031728D01*
X10874908Y11038738D01*
X10886694Y11047323D01*
X10897311Y11057280D01*
X10906556Y11068507D01*
X10914380Y11080800D01*
X10920577Y11093958D01*
X10925048Y11107775D01*
X10927283Y11119307D01*
X10928756Y11122964D01*
X10931550Y11125809D01*
X10935258Y11127333D01*
X10939221Y11127333D01*
X10942929Y11125809D01*
X10945723Y11122964D01*
X10947196Y11119307D01*
X10949432Y11107775D01*
X10953902Y11093958D01*
X10960100Y11080800D01*
X10967923Y11068507D01*
X10977168Y11057280D01*
X10987786Y11047323D01*
X10999571Y11038738D01*
X11012322Y11031728D01*
X11025886Y11026394D01*
X11039957Y11022736D01*
X11054435Y11020907D01*
X11068964Y11020907D01*
X11083442Y11022736D01*
X11097514Y11026394D01*
X11111077Y11031728D01*
X11123828Y11038738D01*
X11135614Y11047323D01*
X11146231Y11057280D01*
X11155476Y11068507D01*
X11163300Y11080800D01*
X11169497Y11093958D01*
X11173968Y11107775D01*
X11176203Y11119307D01*
X11177676Y11122964D01*
X11180470Y11125809D01*
X11184178Y11127333D01*
X11188141Y11127333D01*
X11191849Y11125809D01*
X11194643Y11122964D01*
X11196116Y11119307D01*
X11198352Y11107775D01*
X11202822Y11093958D01*
X11209020Y11080800D01*
X11216843Y11068507D01*
X11226088Y11057280D01*
X11236706Y11047323D01*
X11248491Y11038738D01*
X11261242Y11031728D01*
X11274806Y11026394D01*
X11288877Y11022736D01*
X11303355Y11020907D01*
X11317884Y11020907D01*
X11332362Y11022736D01*
X11346434Y11026394D01*
X11359997Y11031728D01*
X11372748Y11038738D01*
X11384534Y11047323D01*
X11395151Y11057280D01*
X11404396Y11068507D01*
X11412220Y11080800D01*
X11418417Y11093958D01*
X11422888Y11107775D01*
X11425631Y11122101D01*
X11426545Y11136630D01*
X11425631Y11151158D01*
X11422888Y11165484D01*
X11418417Y11179302D01*
X11412220Y11192459D01*
X11404396Y11204752D01*
X11395151Y11215979D01*
X11384534Y11225936D01*
X11372748Y11234521D01*
X11359997Y11241532D01*
X11346434Y11246866D01*
X11332362Y11250523D01*
X11317884Y11252352D01*
X11303355Y11252352D01*
X11288877Y11250523D01*
X11274806Y11246866D01*
X11261242Y11241532D01*
X11248491Y11234521D01*
X11236706Y11225936D01*
X11226088Y11215979D01*
X11216843Y11204752D01*
X11209020Y11192459D01*
X11202822Y11179302D01*
X11198352Y11165484D01*
X11196116Y11153952D01*
X11194643Y11150295D01*
X11191849Y11147450D01*
X11188141Y11145926D01*
X11184178Y11145926D01*
X11180470Y11147450D01*
X11177676Y11150295D01*
X11176203Y11153952D01*
X11173968Y11165484D01*
X11169497Y11179302D01*
X11163300Y11192459D01*
X11155476Y11204752D01*
X11146231Y11215979D01*
X11135614Y11225936D01*
X11123828Y11234521D01*
X11111077Y11241532D01*
X11097514Y11246866D01*
X11083442Y11250523D01*
X11068964Y11252352D01*
X11054435Y11252352D01*
X11039957Y11250523D01*
X11025886Y11246866D01*
X11012322Y11241532D01*
X10999571Y11234521D01*
X10987786Y11225936D01*
X10977168Y11215979D01*
X10967923Y11204752D01*
X10960100Y11192459D01*
X10953902Y11179302D01*
X10949432Y11165484D01*
X10947196Y11153952D01*
X10945723Y11150295D01*
X10942929Y11147450D01*
X10939221Y11145926D01*
X10935258Y11145926D01*
X10931550Y11147450D01*
X10928756Y11150295D01*
X10927283Y11153952D01*
X10925048Y11165484D01*
X10920577Y11179302D01*
X10914380Y11192459D01*
X10906556Y11204752D01*
X10897311Y11215979D01*
X10886694Y11225936D01*
X10874908Y11234521D01*
X10862157Y11241532D01*
X10848594Y11246866D01*
X10834522Y11250523D01*
X10820044Y11252352D01*
X10805515Y11252352D01*
X10791037Y11250523D01*
X10776966Y11246866D01*
X10763402Y11241532D01*
X10750651Y11234521D01*
X10738866Y11225936D01*
X10728248Y11215979D01*
X10719003Y11204752D01*
X10711180Y11192459D01*
X10704982Y11179302D01*
X10700512Y11165484D01*
X10697768Y11151158D01*
X10696854Y11136630D01*
X10697768Y11122101D01*
X10700512Y11107775D01*
X10704982Y11093958D01*
X10711180Y11080800D01*
X10719003Y11068507D01*
X10728248Y11057280D01*
X10738866Y11047323D01*
X10750651Y11038738D01*
X10763402Y11031728D01*
X10776966Y11026394D01*
X10791037Y11022736D01*
G37*
G36*
X1511300Y11451132D02*
G01*
X1525117Y11451996D01*
X1538681Y11454739D01*
X1551838Y11459159D01*
X1564233Y11465306D01*
X1575765Y11472976D01*
X1586179Y11482120D01*
X1595323Y11492534D01*
X1602994Y11504066D01*
X1609140Y11516461D01*
X1613560Y11529568D01*
X1616252Y11543182D01*
X1617167Y11557000D01*
X1616252Y11570817D01*
X1613560Y11584381D01*
X1609140Y11597538D01*
X1602994Y11609933D01*
X1595323Y11621465D01*
X1586179Y11631879D01*
X1575765Y11641023D01*
X1564233Y11648694D01*
X1551838Y11654840D01*
X1538681Y11659260D01*
X1525117Y11661952D01*
X1511300Y11662867D01*
X1497482Y11661952D01*
X1483868Y11659260D01*
X1470761Y11654840D01*
X1458366Y11648694D01*
X1446834Y11641023D01*
X1436420Y11631879D01*
X1427276Y11621465D01*
X1419606Y11609933D01*
X1413459Y11597538D01*
X1409039Y11584381D01*
X1406296Y11570817D01*
X1405432Y11557000D01*
X1406296Y11543182D01*
X1409039Y11529568D01*
X1413459Y11516461D01*
X1419606Y11504066D01*
X1427276Y11492534D01*
X1436420Y11482120D01*
X1446834Y11472976D01*
X1458366Y11465306D01*
X1470761Y11459159D01*
X1483868Y11454739D01*
X1497482Y11451996D01*
G37*
G36*
X2527300Y11451132D02*
G01*
X2541117Y11451996D01*
X2554681Y11454739D01*
X2567787Y11459159D01*
X2580233Y11465306D01*
X2591765Y11472976D01*
X2602179Y11482120D01*
X2611272Y11492534D01*
X2618994Y11504066D01*
X2625140Y11516461D01*
X2629560Y11529568D01*
X2632252Y11543182D01*
X2633167Y11557000D01*
X2632252Y11570817D01*
X2629560Y11584381D01*
X2625140Y11597538D01*
X2618994Y11609933D01*
X2611272Y11621465D01*
X2602179Y11631879D01*
X2591765Y11641023D01*
X2580233Y11648694D01*
X2567787Y11654840D01*
X2554681Y11659260D01*
X2541117Y11661952D01*
X2527300Y11662867D01*
X2513482Y11661952D01*
X2499868Y11659260D01*
X2486761Y11654840D01*
X2474366Y11648694D01*
X2462834Y11641023D01*
X2452420Y11631879D01*
X2443276Y11621465D01*
X2435606Y11609933D01*
X2429459Y11597538D01*
X2424988Y11584381D01*
X2422296Y11570817D01*
X2421382Y11557000D01*
X2422296Y11543182D01*
X2424988Y11529568D01*
X2429459Y11516461D01*
X2435606Y11504066D01*
X2443276Y11492534D01*
X2452420Y11482120D01*
X2462834Y11472976D01*
X2474366Y11465306D01*
X2486761Y11459159D01*
X2499868Y11454739D01*
X2513482Y11451996D01*
G37*
G36*
X3543300Y11451132D02*
G01*
X3557117Y11451996D01*
X3570681Y11454739D01*
X3583787Y11459159D01*
X3596233Y11465306D01*
X3607765Y11472976D01*
X3618179Y11482120D01*
X3627272Y11492534D01*
X3634994Y11504066D01*
X3641090Y11516461D01*
X3645560Y11529568D01*
X3648252Y11543182D01*
X3649167Y11557000D01*
X3648252Y11570817D01*
X3645560Y11584381D01*
X3641090Y11597538D01*
X3634994Y11609933D01*
X3627272Y11621465D01*
X3618179Y11631879D01*
X3607765Y11641023D01*
X3596233Y11648694D01*
X3583787Y11654840D01*
X3570681Y11659260D01*
X3557117Y11661952D01*
X3543300Y11662867D01*
X3529482Y11661952D01*
X3515868Y11659260D01*
X3502761Y11654840D01*
X3490366Y11648694D01*
X3478834Y11641023D01*
X3468420Y11631879D01*
X3459276Y11621465D01*
X3451606Y11609933D01*
X3445459Y11597538D01*
X3440988Y11584381D01*
X3438296Y11570817D01*
X3437382Y11557000D01*
X3438296Y11543182D01*
X3440988Y11529568D01*
X3445459Y11516461D01*
X3451606Y11504066D01*
X3459276Y11492534D01*
X3468420Y11482120D01*
X3478834Y11472976D01*
X3490366Y11465306D01*
X3502761Y11459159D01*
X3515868Y11454739D01*
X3529482Y11451996D01*
G37*
G36*
X3797300Y11451132D02*
G01*
X3811117Y11451996D01*
X3824681Y11454739D01*
X3837787Y11459159D01*
X3850233Y11465306D01*
X3861765Y11472976D01*
X3872179Y11482120D01*
X3881272Y11492534D01*
X3888994Y11504066D01*
X3895090Y11516461D01*
X3899560Y11529568D01*
X3902252Y11543182D01*
X3903167Y11557000D01*
X3902252Y11570817D01*
X3899560Y11584381D01*
X3895090Y11597538D01*
X3888994Y11609933D01*
X3881272Y11621465D01*
X3872179Y11631879D01*
X3861765Y11641023D01*
X3850233Y11648694D01*
X3837787Y11654840D01*
X3824681Y11659260D01*
X3811117Y11661952D01*
X3797300Y11662867D01*
X3783482Y11661952D01*
X3769868Y11659260D01*
X3756761Y11654840D01*
X3744366Y11648694D01*
X3732834Y11641023D01*
X3722420Y11631879D01*
X3713276Y11621465D01*
X3705606Y11609933D01*
X3699459Y11597538D01*
X3694988Y11584381D01*
X3692296Y11570817D01*
X3691382Y11557000D01*
X3692296Y11543182D01*
X3694988Y11529568D01*
X3699459Y11516461D01*
X3705606Y11504066D01*
X3713276Y11492534D01*
X3722420Y11482120D01*
X3732834Y11472976D01*
X3744366Y11465306D01*
X3756761Y11459159D01*
X3769868Y11454739D01*
X3783482Y11451996D01*
G37*
G36*
X2273300Y11451132D02*
G01*
X2287117Y11451996D01*
X2300681Y11454739D01*
X2313787Y11459159D01*
X2326233Y11465306D01*
X2337765Y11472976D01*
X2348179Y11482120D01*
X2357272Y11492534D01*
X2364994Y11504066D01*
X2371140Y11516461D01*
X2375560Y11529568D01*
X2378252Y11543182D01*
X2379167Y11557000D01*
X2378252Y11570817D01*
X2375560Y11584381D01*
X2371140Y11597538D01*
X2364994Y11609933D01*
X2357272Y11621465D01*
X2348179Y11631879D01*
X2337765Y11641023D01*
X2326233Y11648694D01*
X2313787Y11654840D01*
X2300681Y11659260D01*
X2287117Y11661952D01*
X2273300Y11662867D01*
X2259482Y11661952D01*
X2245868Y11659260D01*
X2232761Y11654840D01*
X2220366Y11648694D01*
X2208834Y11641023D01*
X2198420Y11631879D01*
X2189276Y11621465D01*
X2181606Y11609933D01*
X2175459Y11597538D01*
X2170988Y11584381D01*
X2168296Y11570817D01*
X2167382Y11557000D01*
X2168296Y11543182D01*
X2170988Y11529568D01*
X2175459Y11516461D01*
X2181606Y11504066D01*
X2189276Y11492534D01*
X2198420Y11482120D01*
X2208834Y11472976D01*
X2220366Y11465306D01*
X2232761Y11459159D01*
X2245868Y11454739D01*
X2259482Y11451996D01*
G37*
G36*
X3035300Y11451132D02*
G01*
X3049117Y11451996D01*
X3062681Y11454739D01*
X3075787Y11459159D01*
X3088233Y11465306D01*
X3099765Y11472976D01*
X3110179Y11482120D01*
X3119272Y11492534D01*
X3126994Y11504066D01*
X3133090Y11516461D01*
X3137560Y11529568D01*
X3140252Y11543182D01*
X3141167Y11557000D01*
X3140252Y11570817D01*
X3137560Y11584381D01*
X3133090Y11597538D01*
X3126994Y11609933D01*
X3119272Y11621465D01*
X3110179Y11631879D01*
X3099765Y11641023D01*
X3088233Y11648694D01*
X3075787Y11654840D01*
X3062681Y11659260D01*
X3049117Y11661952D01*
X3035300Y11662867D01*
X3021482Y11661952D01*
X3007868Y11659260D01*
X2994761Y11654840D01*
X2982366Y11648694D01*
X2970834Y11641023D01*
X2960420Y11631879D01*
X2951276Y11621465D01*
X2943606Y11609933D01*
X2937459Y11597538D01*
X2932988Y11584381D01*
X2930296Y11570817D01*
X2929382Y11557000D01*
X2930296Y11543182D01*
X2932988Y11529568D01*
X2937459Y11516461D01*
X2943606Y11504066D01*
X2951276Y11492534D01*
X2960420Y11482120D01*
X2970834Y11472976D01*
X2982366Y11465306D01*
X2994761Y11459159D01*
X3007868Y11454739D01*
X3021482Y11451996D01*
G37*
G36*
X2781300Y11451132D02*
G01*
X2795117Y11451996D01*
X2808681Y11454739D01*
X2821787Y11459159D01*
X2834233Y11465306D01*
X2845765Y11472976D01*
X2856179Y11482120D01*
X2865272Y11492534D01*
X2872994Y11504066D01*
X2879140Y11516461D01*
X2883560Y11529568D01*
X2886252Y11543182D01*
X2887167Y11557000D01*
X2886252Y11570817D01*
X2883560Y11584381D01*
X2879140Y11597538D01*
X2872994Y11609933D01*
X2865272Y11621465D01*
X2856179Y11631879D01*
X2845765Y11641023D01*
X2834233Y11648694D01*
X2821787Y11654840D01*
X2808681Y11659260D01*
X2795117Y11661952D01*
X2781300Y11662867D01*
X2767482Y11661952D01*
X2753868Y11659260D01*
X2740761Y11654840D01*
X2728366Y11648694D01*
X2716834Y11641023D01*
X2706420Y11631879D01*
X2697276Y11621465D01*
X2689606Y11609933D01*
X2683459Y11597538D01*
X2678988Y11584381D01*
X2676296Y11570817D01*
X2675382Y11557000D01*
X2676296Y11543182D01*
X2678988Y11529568D01*
X2683459Y11516461D01*
X2689606Y11504066D01*
X2697276Y11492534D01*
X2706420Y11482120D01*
X2716834Y11472976D01*
X2728366Y11465306D01*
X2740761Y11459159D01*
X2753868Y11454739D01*
X2767482Y11451996D01*
G37*
G36*
X3289300Y11451132D02*
G01*
X3303117Y11451996D01*
X3316681Y11454739D01*
X3329787Y11459159D01*
X3342233Y11465306D01*
X3353765Y11472976D01*
X3364179Y11482120D01*
X3373272Y11492534D01*
X3380994Y11504066D01*
X3387090Y11516461D01*
X3391560Y11529568D01*
X3394252Y11543182D01*
X3395167Y11557000D01*
X3394252Y11570817D01*
X3391560Y11584381D01*
X3387090Y11597538D01*
X3380994Y11609933D01*
X3373272Y11621465D01*
X3364179Y11631879D01*
X3353765Y11641023D01*
X3342233Y11648694D01*
X3329787Y11654840D01*
X3316681Y11659260D01*
X3303117Y11661952D01*
X3289300Y11662867D01*
X3275482Y11661952D01*
X3261867Y11659260D01*
X3248761Y11654840D01*
X3236366Y11648694D01*
X3224834Y11641023D01*
X3214420Y11631879D01*
X3205276Y11621465D01*
X3197606Y11609933D01*
X3191459Y11597538D01*
X3186988Y11584381D01*
X3184296Y11570817D01*
X3183382Y11557000D01*
X3184296Y11543182D01*
X3186988Y11529568D01*
X3191459Y11516461D01*
X3197606Y11504066D01*
X3205276Y11492534D01*
X3214420Y11482120D01*
X3224834Y11472976D01*
X3236366Y11465306D01*
X3248761Y11459159D01*
X3261867Y11454739D01*
X3275482Y11451996D01*
G37*
G36*
X745896Y11454993D02*
G01*
X759510Y11455450D01*
X772972Y11457686D01*
X785977Y11461750D01*
X798322Y11467490D01*
X809853Y11474805D01*
X820267Y11483594D01*
X829411Y11493754D01*
X837133Y11504980D01*
X843280Y11517122D01*
X847750Y11530025D01*
X850442Y11543385D01*
X851357Y11557000D01*
X850442Y11570614D01*
X847750Y11583974D01*
X843280Y11596878D01*
X837133Y11609019D01*
X829411Y11620246D01*
X820267Y11630406D01*
X809853Y11639194D01*
X798322Y11646509D01*
X785977Y11652250D01*
X772972Y11656314D01*
X759510Y11658549D01*
X745896Y11659006D01*
X732282Y11657685D01*
X719023Y11654485D01*
X706323Y11649608D01*
X694334Y11643055D01*
X683361Y11634978D01*
X673557Y11625478D01*
X665124Y11614759D01*
X658164Y11603024D01*
X652830Y11590477D01*
X649224Y11577320D01*
X647446Y11563807D01*
X647446Y11550192D01*
X649224Y11536680D01*
X652830Y11523522D01*
X658164Y11510975D01*
X665124Y11499240D01*
X673557Y11488521D01*
X683361Y11479022D01*
X694334Y11470944D01*
X706323Y11464391D01*
X719023Y11459514D01*
X732282Y11456314D01*
G37*
G36*
X999896Y11454993D02*
G01*
X1013510Y11455450D01*
X1026972Y11457686D01*
X1039977Y11461750D01*
X1052322Y11467490D01*
X1063853Y11474805D01*
X1074267Y11483594D01*
X1083411Y11493754D01*
X1091133Y11504980D01*
X1097280Y11517122D01*
X1101750Y11530025D01*
X1104442Y11543385D01*
X1105357Y11557000D01*
X1104442Y11570614D01*
X1101750Y11583974D01*
X1097280Y11596878D01*
X1091133Y11609019D01*
X1083411Y11620246D01*
X1074267Y11630406D01*
X1063853Y11639194D01*
X1052322Y11646509D01*
X1039977Y11652250D01*
X1026972Y11656314D01*
X1013510Y11658549D01*
X999896Y11659006D01*
X986282Y11657685D01*
X973023Y11654485D01*
X960323Y11649608D01*
X948334Y11643055D01*
X937361Y11634978D01*
X927557Y11625478D01*
X919124Y11614759D01*
X912164Y11603024D01*
X906830Y11590477D01*
X903224Y11577320D01*
X901446Y11563807D01*
X901446Y11550192D01*
X903224Y11536680D01*
X906830Y11523522D01*
X912164Y11510975D01*
X919124Y11499240D01*
X927557Y11488521D01*
X937361Y11479022D01*
X948334Y11470944D01*
X960323Y11464391D01*
X973023Y11459514D01*
X986282Y11456314D01*
G37*
G36*
X1253896Y11454993D02*
G01*
X1267510Y11455450D01*
X1280972Y11457686D01*
X1293977Y11461750D01*
X1306322Y11467490D01*
X1317853Y11474805D01*
X1328267Y11483594D01*
X1337411Y11493754D01*
X1345133Y11504980D01*
X1351280Y11517122D01*
X1355750Y11530025D01*
X1358442Y11543385D01*
X1359357Y11557000D01*
X1358442Y11570614D01*
X1355750Y11583974D01*
X1351280Y11596878D01*
X1345133Y11609019D01*
X1337411Y11620246D01*
X1328267Y11630406D01*
X1317853Y11639194D01*
X1306322Y11646509D01*
X1293977Y11652250D01*
X1280972Y11656314D01*
X1267510Y11658549D01*
X1253896Y11659006D01*
X1240282Y11657685D01*
X1227023Y11654485D01*
X1214323Y11649608D01*
X1202334Y11643055D01*
X1191361Y11634978D01*
X1181557Y11625478D01*
X1173124Y11614759D01*
X1166164Y11603024D01*
X1160830Y11590477D01*
X1157224Y11577320D01*
X1155446Y11563807D01*
X1155446Y11550192D01*
X1157224Y11536680D01*
X1160830Y11523522D01*
X1166164Y11510975D01*
X1173124Y11499240D01*
X1181557Y11488521D01*
X1191361Y11479022D01*
X1202334Y11470944D01*
X1214323Y11464391D01*
X1227023Y11459514D01*
X1240282Y11456314D01*
G37*
G36*
X10337342Y11680037D02*
G01*
X10536072Y11680037D01*
X10542422Y11680799D01*
X10547858Y11682679D01*
X10552785Y11685778D01*
X10556849Y11689842D01*
X10559948Y11694769D01*
X10561828Y11700205D01*
X10562539Y11706555D01*
X10562539Y12065304D01*
X10561828Y12071654D01*
X10559948Y12077090D01*
X10556849Y12082018D01*
X10552785Y12086082D01*
X10547858Y12089180D01*
X10542422Y12091060D01*
X10536072Y12091771D01*
X10337342Y12091771D01*
X10330992Y12091060D01*
X10325557Y12089180D01*
X10320629Y12086082D01*
X10316565Y12082018D01*
X10313466Y12077090D01*
X10311536Y12071654D01*
X10310825Y12065304D01*
X10310825Y11706555D01*
X10311536Y11700205D01*
X10313466Y11694769D01*
X10316565Y11689842D01*
X10320629Y11685778D01*
X10325557Y11682679D01*
X10330992Y11680799D01*
G37*
G36*
X11587327Y11680037D02*
G01*
X11786057Y11680037D01*
X11792407Y11680799D01*
X11797842Y11682679D01*
X11802770Y11685778D01*
X11806834Y11689842D01*
X11809933Y11694769D01*
X11811863Y11700205D01*
X11812574Y11706555D01*
X11812574Y12065304D01*
X11811863Y12071654D01*
X11809933Y12077090D01*
X11806834Y12082018D01*
X11802770Y12086082D01*
X11797842Y12089180D01*
X11792407Y12091060D01*
X11786057Y12091771D01*
X11587327Y12091771D01*
X11580977Y12091060D01*
X11575542Y12089180D01*
X11570614Y12086082D01*
X11566550Y12082018D01*
X11563451Y12077090D01*
X11561572Y12071654D01*
X11560860Y12065304D01*
X11560860Y11706555D01*
X11561572Y11700205D01*
X11563451Y11694769D01*
X11566550Y11689842D01*
X11570614Y11685778D01*
X11575542Y11682679D01*
X11580977Y11680799D01*
G37*
G36*
X11303355Y12471247D02*
G01*
X11317884Y12471247D01*
X11332362Y12473076D01*
X11346434Y12476734D01*
X11359997Y12482068D01*
X11372748Y12489078D01*
X11384534Y12497663D01*
X11395151Y12507620D01*
X11404396Y12518847D01*
X11412220Y12531140D01*
X11418417Y12544298D01*
X11422888Y12558115D01*
X11425631Y12572441D01*
X11426545Y12586970D01*
X11425631Y12601498D01*
X11422888Y12615824D01*
X11418417Y12629642D01*
X11412220Y12642799D01*
X11404396Y12655092D01*
X11395151Y12666319D01*
X11384534Y12676276D01*
X11372748Y12684861D01*
X11359997Y12691872D01*
X11346434Y12697206D01*
X11332362Y12700863D01*
X11317884Y12702692D01*
X11303355Y12702692D01*
X11288877Y12700863D01*
X11274806Y12697206D01*
X11261242Y12691872D01*
X11248491Y12684861D01*
X11236706Y12676276D01*
X11226088Y12666319D01*
X11216843Y12655092D01*
X11209020Y12642799D01*
X11202822Y12629642D01*
X11198352Y12615824D01*
X11195608Y12601498D01*
X11194694Y12586970D01*
X11195608Y12572441D01*
X11198352Y12558115D01*
X11202822Y12544298D01*
X11209020Y12531140D01*
X11216843Y12518847D01*
X11226088Y12507620D01*
X11236706Y12497663D01*
X11248491Y12489078D01*
X11261242Y12482068D01*
X11274806Y12476734D01*
X11288877Y12473076D01*
G37*
G36*
X10805515Y12471247D02*
G01*
X10820044Y12471247D01*
X10834522Y12473076D01*
X10848594Y12476734D01*
X10862157Y12482068D01*
X10874908Y12489078D01*
X10886694Y12497663D01*
X10897311Y12507620D01*
X10906556Y12518847D01*
X10914380Y12531140D01*
X10920577Y12544298D01*
X10925048Y12558115D01*
X10927791Y12572441D01*
X10928705Y12586970D01*
X10927791Y12601498D01*
X10925048Y12615824D01*
X10920577Y12629642D01*
X10914380Y12642799D01*
X10906556Y12655092D01*
X10897311Y12666319D01*
X10886694Y12676276D01*
X10874908Y12684861D01*
X10862157Y12691872D01*
X10848594Y12697206D01*
X10834522Y12700863D01*
X10820044Y12702692D01*
X10805515Y12702692D01*
X10791037Y12700863D01*
X10776966Y12697206D01*
X10763402Y12691872D01*
X10750651Y12684861D01*
X10738866Y12676276D01*
X10728248Y12666319D01*
X10719003Y12655092D01*
X10711180Y12642799D01*
X10704982Y12629642D01*
X10700512Y12615824D01*
X10697768Y12601498D01*
X10696854Y12586970D01*
X10697768Y12572441D01*
X10700512Y12558115D01*
X10704982Y12544298D01*
X10711180Y12531140D01*
X10719003Y12518847D01*
X10728248Y12507620D01*
X10738866Y12497663D01*
X10750651Y12489078D01*
X10763402Y12482068D01*
X10776966Y12476734D01*
X10791037Y12473076D01*
G37*
G36*
X7024878Y12472111D02*
G01*
X7173722Y12472111D01*
X7180072Y12472822D01*
X7185507Y12474702D01*
X7190435Y12477800D01*
X7194499Y12481864D01*
X7197598Y12486792D01*
X7199477Y12492228D01*
X7200188Y12498578D01*
X7200188Y12647422D01*
X7199477Y12653772D01*
X7197598Y12659207D01*
X7194499Y12664135D01*
X7190435Y12668199D01*
X7185507Y12671298D01*
X7180072Y12673177D01*
X7173722Y12673888D01*
X7024878Y12673888D01*
X7018528Y12673177D01*
X7013092Y12671298D01*
X7008164Y12668199D01*
X7004100Y12664135D01*
X7001002Y12659207D01*
X6999122Y12653772D01*
X6998411Y12647422D01*
X6998411Y12498578D01*
X6999122Y12492228D01*
X7001002Y12486792D01*
X7004100Y12481864D01*
X7008164Y12477800D01*
X7013092Y12474702D01*
X7018528Y12472822D01*
G37*
G36*
X6594652Y12472162D02*
G01*
X6608064Y12473533D01*
X6621170Y12476632D01*
X6633768Y12481509D01*
X6645605Y12487960D01*
X6656425Y12495936D01*
X6666128Y12505334D01*
X6674459Y12515900D01*
X6681317Y12527483D01*
X6686600Y12539929D01*
X6690156Y12552883D01*
X6691934Y12566243D01*
X6691934Y12579756D01*
X6690156Y12593116D01*
X6686600Y12606070D01*
X6681317Y12618516D01*
X6674459Y12630099D01*
X6666128Y12640665D01*
X6656425Y12650063D01*
X6645605Y12658039D01*
X6633768Y12664490D01*
X6621170Y12669367D01*
X6608064Y12672466D01*
X6594652Y12673838D01*
X6581190Y12673380D01*
X6567931Y12671145D01*
X6555028Y12667132D01*
X6542836Y12661493D01*
X6531457Y12654229D01*
X6521145Y12645542D01*
X6512102Y12635534D01*
X6504482Y12624409D01*
X6498437Y12612370D01*
X6494018Y12599670D01*
X6491325Y12586462D01*
X6490411Y12573000D01*
X6491325Y12559538D01*
X6494018Y12546330D01*
X6498437Y12533630D01*
X6504482Y12521590D01*
X6512102Y12510465D01*
X6521145Y12500457D01*
X6531457Y12491770D01*
X6542836Y12484506D01*
X6555028Y12478867D01*
X6567931Y12474854D01*
X6581190Y12472619D01*
G37*
G36*
X6848652Y12472162D02*
G01*
X6862064Y12473533D01*
X6875170Y12476632D01*
X6887768Y12481509D01*
X6899605Y12487960D01*
X6910425Y12495936D01*
X6920128Y12505334D01*
X6928459Y12515900D01*
X6935317Y12527483D01*
X6940600Y12539929D01*
X6944156Y12552883D01*
X6945934Y12566243D01*
X6945934Y12579756D01*
X6944156Y12593116D01*
X6940600Y12606070D01*
X6935317Y12618516D01*
X6928459Y12630099D01*
X6920128Y12640665D01*
X6910425Y12650063D01*
X6899605Y12658039D01*
X6887768Y12664490D01*
X6875170Y12669367D01*
X6862064Y12672466D01*
X6848652Y12673838D01*
X6835190Y12673380D01*
X6821931Y12671145D01*
X6809028Y12667132D01*
X6796836Y12661493D01*
X6785457Y12654229D01*
X6775145Y12645542D01*
X6766102Y12635534D01*
X6758482Y12624409D01*
X6752437Y12612370D01*
X6748018Y12599670D01*
X6745325Y12586462D01*
X6744411Y12573000D01*
X6745325Y12559538D01*
X6748018Y12546330D01*
X6752437Y12533630D01*
X6758482Y12521590D01*
X6766102Y12510465D01*
X6775145Y12500457D01*
X6785457Y12491770D01*
X6796836Y12484506D01*
X6809028Y12478867D01*
X6821931Y12474854D01*
X6835190Y12472619D01*
G37*
G36*
X4054652Y12472162D02*
G01*
X4068064Y12473533D01*
X4081170Y12476632D01*
X4093768Y12481509D01*
X4105605Y12487960D01*
X4116425Y12495936D01*
X4126128Y12505334D01*
X4134459Y12515900D01*
X4141317Y12527483D01*
X4146600Y12539929D01*
X4150156Y12552883D01*
X4151934Y12566243D01*
X4151934Y12579756D01*
X4150156Y12593116D01*
X4146600Y12606070D01*
X4141317Y12618516D01*
X4134459Y12630099D01*
X4126128Y12640665D01*
X4116425Y12650063D01*
X4105605Y12658039D01*
X4093768Y12664490D01*
X4081170Y12669367D01*
X4068064Y12672466D01*
X4054652Y12673838D01*
X4041190Y12673380D01*
X4027932Y12671145D01*
X4015028Y12667132D01*
X4002836Y12661493D01*
X3991457Y12654229D01*
X3981145Y12645542D01*
X3972102Y12635534D01*
X3964482Y12624409D01*
X3958437Y12612370D01*
X3954018Y12599670D01*
X3951325Y12586462D01*
X3950411Y12573000D01*
X3951325Y12559538D01*
X3954018Y12546330D01*
X3958437Y12533630D01*
X3964482Y12521590D01*
X3972102Y12510465D01*
X3981145Y12500457D01*
X3991457Y12491770D01*
X4002836Y12484506D01*
X4015028Y12478867D01*
X4027932Y12474854D01*
X4041190Y12472619D01*
G37*
G36*
X5832652Y12472162D02*
G01*
X5846064Y12473533D01*
X5859170Y12476632D01*
X5871768Y12481509D01*
X5883605Y12487960D01*
X5894425Y12495936D01*
X5904128Y12505334D01*
X5912459Y12515900D01*
X5919317Y12527483D01*
X5924600Y12539929D01*
X5928156Y12552883D01*
X5929934Y12566243D01*
X5929934Y12579756D01*
X5928156Y12593116D01*
X5924600Y12606070D01*
X5919317Y12618516D01*
X5912459Y12630099D01*
X5904128Y12640665D01*
X5894425Y12650063D01*
X5883605Y12658039D01*
X5871768Y12664490D01*
X5859170Y12669367D01*
X5846064Y12672466D01*
X5832652Y12673838D01*
X5819190Y12673380D01*
X5805932Y12671145D01*
X5793028Y12667132D01*
X5780836Y12661493D01*
X5769457Y12654229D01*
X5759145Y12645542D01*
X5750102Y12635534D01*
X5742482Y12624409D01*
X5736437Y12612370D01*
X5732018Y12599670D01*
X5729325Y12586462D01*
X5728411Y12573000D01*
X5729325Y12559538D01*
X5732018Y12546330D01*
X5736437Y12533630D01*
X5742482Y12521590D01*
X5750102Y12510465D01*
X5759145Y12500457D01*
X5769457Y12491770D01*
X5780836Y12484506D01*
X5793028Y12478867D01*
X5805932Y12474854D01*
X5819190Y12472619D01*
G37*
G36*
X6381140Y12482271D02*
G01*
X6391605Y12487960D01*
X6402425Y12495936D01*
X6412128Y12505334D01*
X6420459Y12515900D01*
X6427317Y12527483D01*
X6428028Y12529159D01*
X6381140Y12529159D01*
G37*
G36*
X6127140Y12482271D02*
G01*
X6137605Y12487960D01*
X6148425Y12495936D01*
X6158128Y12505334D01*
X6166459Y12515900D01*
X6173317Y12527483D01*
X6174028Y12529159D01*
X6127140Y12529159D01*
G37*
G36*
X6293459Y12482372D02*
G01*
X6293459Y12529159D01*
X6246672Y12529159D01*
X6250482Y12521590D01*
X6258102Y12510465D01*
X6267145Y12500457D01*
X6277457Y12491770D01*
X6288836Y12484506D01*
G37*
G36*
X6039459Y12482372D02*
G01*
X6039459Y12529159D01*
X5992672Y12529159D01*
X5996482Y12521590D01*
X6004102Y12510465D01*
X6013145Y12500457D01*
X6023457Y12491770D01*
X6034836Y12484506D01*
G37*
G36*
X5992672Y12616840D02*
G01*
X6039459Y12616840D01*
X6039459Y12663627D01*
X6034836Y12661493D01*
X6023457Y12654229D01*
X6013145Y12645542D01*
X6004102Y12635534D01*
X5996482Y12624409D01*
G37*
G36*
X6246672Y12616840D02*
G01*
X6293459Y12616840D01*
X6293459Y12663627D01*
X6288836Y12661493D01*
X6277457Y12654229D01*
X6267145Y12645542D01*
X6258102Y12635534D01*
X6250482Y12624409D01*
G37*
G36*
X6381140Y12616840D02*
G01*
X6428028Y12616840D01*
X6427317Y12618516D01*
X6420459Y12630099D01*
X6412128Y12640665D01*
X6402425Y12650063D01*
X6391605Y12658039D01*
X6381140Y12663728D01*
G37*
G36*
X6127140Y12616840D02*
G01*
X6174028Y12616840D01*
X6173317Y12618516D01*
X6166459Y12630099D01*
X6158128Y12640665D01*
X6148425Y12650063D01*
X6137605Y12658039D01*
X6127140Y12663728D01*
G37*
G36*
X762000Y12826492D02*
G01*
X777392Y12827457D01*
X792530Y12830200D01*
X807212Y12834772D01*
X821232Y12841122D01*
X834440Y12849098D01*
X846531Y12858597D01*
X857402Y12869468D01*
X866902Y12881559D01*
X874877Y12894767D01*
X881227Y12908788D01*
X885799Y12923469D01*
X888542Y12938607D01*
X889508Y12954000D01*
X888542Y12969392D01*
X885799Y12984530D01*
X881227Y12999212D01*
X874877Y13013232D01*
X866902Y13026440D01*
X857402Y13038531D01*
X846531Y13049402D01*
X834440Y13058902D01*
X821232Y13066877D01*
X807212Y13073227D01*
X792530Y13077799D01*
X777392Y13080542D01*
X762000Y13081508D01*
X746607Y13080542D01*
X731469Y13077799D01*
X716788Y13073227D01*
X702767Y13066877D01*
X689559Y13058902D01*
X677468Y13049402D01*
X666597Y13038531D01*
X657098Y13026440D01*
X649122Y13013232D01*
X642772Y12999212D01*
X638200Y12984530D01*
X635457Y12969392D01*
X634492Y12954000D01*
X635457Y12938607D01*
X638200Y12923469D01*
X642772Y12908788D01*
X649122Y12894767D01*
X657098Y12881559D01*
X666597Y12869468D01*
X677468Y12858597D01*
X689559Y12849098D01*
X702767Y12841122D01*
X716788Y12834772D01*
X731469Y12830200D01*
X746607Y12827457D01*
G37*
G36*
X12446000Y12828117D02*
G01*
X12461189Y12829032D01*
X12476124Y12831775D01*
X12490653Y12836296D01*
X12504521Y12842544D01*
X12517526Y12850418D01*
X12529464Y12859766D01*
X12540234Y12870535D01*
X12549581Y12882473D01*
X12557455Y12895478D01*
X12563703Y12909346D01*
X12568224Y12923875D01*
X12570968Y12938810D01*
X12571882Y12954000D01*
X12570968Y12969189D01*
X12568224Y12984124D01*
X12563703Y12998653D01*
X12557455Y13012521D01*
X12549581Y13025526D01*
X12540234Y13037464D01*
X12529464Y13048234D01*
X12517526Y13057581D01*
X12504521Y13065455D01*
X12490653Y13071703D01*
X12476124Y13076224D01*
X12461189Y13078968D01*
X12446000Y13079882D01*
X12430810Y13078968D01*
X12415875Y13076224D01*
X12401346Y13071703D01*
X12387478Y13065455D01*
X12374473Y13057581D01*
X12362535Y13048234D01*
X12351766Y13037464D01*
X12342418Y13025526D01*
X12334544Y13012521D01*
X12328296Y12998653D01*
X12323775Y12984124D01*
X12321032Y12969189D01*
X12320117Y12954000D01*
X12321032Y12938810D01*
X12323775Y12923875D01*
X12328296Y12909346D01*
X12334544Y12895478D01*
X12342418Y12882473D01*
X12351766Y12870535D01*
X12362535Y12859766D01*
X12374473Y12850418D01*
X12387478Y12842544D01*
X12401346Y12836296D01*
X12415875Y12831775D01*
X12430810Y12829032D01*
G37*
G36*
X9906000Y12828117D02*
G01*
X9921189Y12829032D01*
X9936124Y12831775D01*
X9950653Y12836296D01*
X9964521Y12842544D01*
X9977526Y12850418D01*
X9989464Y12859766D01*
X10000234Y12870535D01*
X10009581Y12882473D01*
X10017455Y12895478D01*
X10023703Y12909346D01*
X10028224Y12923875D01*
X10030968Y12938810D01*
X10031882Y12954000D01*
X10030968Y12969189D01*
X10028224Y12984124D01*
X10023703Y12998653D01*
X10017455Y13012521D01*
X10009581Y13025526D01*
X10000234Y13037464D01*
X9989464Y13048234D01*
X9977526Y13057581D01*
X9964521Y13065455D01*
X9950653Y13071703D01*
X9936124Y13076224D01*
X9921189Y13078968D01*
X9906000Y13079882D01*
X9890810Y13078968D01*
X9875875Y13076224D01*
X9861346Y13071703D01*
X9847478Y13065455D01*
X9834473Y13057581D01*
X9822535Y13048234D01*
X9811766Y13037464D01*
X9802418Y13025526D01*
X9794544Y13012521D01*
X9788296Y12998653D01*
X9783775Y12984124D01*
X9781032Y12969189D01*
X9780117Y12954000D01*
X9781032Y12938810D01*
X9783775Y12923875D01*
X9788296Y12909346D01*
X9794544Y12895478D01*
X9802418Y12882473D01*
X9811766Y12870535D01*
X9822535Y12859766D01*
X9834473Y12850418D01*
X9847478Y12842544D01*
X9861346Y12836296D01*
X9875875Y12831775D01*
X9890810Y12829032D01*
G37*

%LPD*%
D10*
X6337300Y12573000D02*
G01*
X6083300Y12573000D01*
X1003300Y9017000D02*
G01*
X2439060Y10452760D01*
X5242458Y10452760D01*
D11*
X1257300Y9017000D02*
G01*
X1532737Y8741562D01*
X4834737Y8741562D01*
X5829300Y7747000D01*
X6337884Y8271027D02*
G01*
X5956300Y8652611D01*
X5956300Y9892284D01*
X5074793Y10773790D01*
X2548483Y10773790D01*
X1765274Y11557000D01*
X11430000Y10045700D02*
G01*
X10315829Y11159870D01*
X4448403Y11159870D01*
X4051274Y11557000D01*
X4559274Y11557000D02*
G01*
X4782718Y11333556D01*
X9888143Y11333556D01*
D10*
X7363764Y11557000D02*
G01*
X6083045Y11557000D01*
D11*
X7251700Y7747000D02*
G01*
X7131304Y7626604D01*
X5523356Y7626604D01*
X5448376Y7701584D01*
X5448376Y7805089D01*
X4642789Y8610676D01*
X2119020Y8610676D01*
X2019274Y9017000D02*
G01*
X2206904Y8829370D01*
X4601108Y8829370D01*
X2273274Y9017000D02*
G01*
X2401722Y9145447D01*
X4610785Y9145447D01*
X4686274Y9069959D01*
X4686274Y8949817D01*
X4806543Y8829547D01*
X5661152Y8829547D01*
X6743700Y7747000D01*
X5321300Y12573000D02*
G01*
X4664608Y11916308D01*
X3927347Y11916308D01*
X5067300Y12573000D02*
G01*
X4912918Y12418618D01*
X4584268Y12418618D01*
X4305300Y12573000D02*
G01*
X4426889Y12694589D01*
X5429122Y12694589D01*
X5477789Y12645923D01*
X5477789Y12616637D01*
D10*
X10922000Y10045700D02*
G01*
X9893300Y9017000D01*
X6083274Y9017000D01*
D12*
G01*
X10812779Y11136629D03*
G01*
X11061700Y11136629D03*
G01*
X11310620Y11136629D03*
G01*
X11310620Y12586970D03*
G01*
X10812779Y12586970D03*
D13*
G01*
X10436707Y11885929D03*
G01*
X11686692Y11885929D03*
D14*
G01*
X6083274Y9017000D03*
G01*
X5829274Y9017000D03*
G01*
X5575274Y9017000D03*
G01*
X5321274Y9017000D03*
G01*
X5067274Y9017000D03*
G01*
X4813274Y9017000D03*
G01*
X4559274Y9017000D03*
G01*
X4305274Y9017000D03*
G01*
X4051274Y9017000D03*
G01*
X3797274Y9017000D03*
G01*
X3543274Y9017000D03*
G01*
X3289274Y9017000D03*
G01*
X3035274Y9017000D03*
G01*
X2781274Y9017000D03*
G01*
X2527274Y9017000D03*
G01*
X2273274Y9017000D03*
G01*
X2019274Y9017000D03*
G01*
X1765274Y9017000D03*
G01*
X1511300Y9017000D03*
G01*
X6083045Y11557000D03*
G01*
X5829274Y11557000D03*
G01*
X5575274Y11557000D03*
G01*
X5321274Y11557000D03*
G01*
X5067274Y11557000D03*
G01*
X4813274Y11557000D03*
G01*
X4559274Y11557000D03*
G01*
X4305274Y11557000D03*
G01*
X4051274Y11557000D03*
G01*
X3797274Y11557000D03*
G01*
X3543274Y11557000D03*
G01*
X3289274Y11557000D03*
G01*
X3035274Y11557000D03*
G01*
X2781274Y11557000D03*
G01*
X2527274Y11557000D03*
G01*
X2273274Y11557000D03*
G01*
X2019274Y11557000D03*
G01*
X1765274Y11557000D03*
G01*
X1511300Y11557000D03*
D15*
G01*
X1257300Y11557000D03*
G01*
X1003300Y11557000D03*
G01*
X749300Y11557000D03*
G01*
X1257300Y9017000D03*
G01*
X1003300Y9017000D03*
G01*
X749300Y9017000D03*
D16*
G01*
X10668000Y10045700D03*
D17*
G01*
X10922000Y10045700D03*
G01*
X11176000Y10045700D03*
G01*
X11430000Y10045700D03*
D18*
G01*
X8013700Y7747000D03*
D19*
G01*
X7759700Y7747000D03*
G01*
X7505700Y7747000D03*
G01*
X7251700Y7747000D03*
G01*
X6997700Y7747000D03*
G01*
X6743700Y7747000D03*
G01*
X6489700Y7747000D03*
G01*
X6235700Y7747000D03*
D18*
G01*
X5829300Y7747000D03*
D19*
G01*
X5575300Y7747000D03*
G01*
X5321300Y7747000D03*
G01*
X5067300Y7747000D03*
G01*
X4813300Y7747000D03*
G01*
X4559300Y7747000D03*
G01*
X4305300Y7747000D03*
G01*
X4051300Y7747000D03*
G01*
X4051300Y12573000D03*
G01*
X4305300Y12573000D03*
G01*
X4559300Y12573000D03*
G01*
X4813300Y12573000D03*
G01*
X5067300Y12573000D03*
D18*
G01*
X5321300Y12573000D03*
D19*
G01*
X5829300Y12573000D03*
G01*
X6083300Y12573000D03*
G01*
X6337300Y12573000D03*
G01*
X6591300Y12573000D03*
G01*
X6845300Y12573000D03*
D18*
G01*
X7099300Y12573000D03*
D20*
G01*
X5477789Y12616637D03*
G01*
X4584268Y12418618D03*
G01*
X3927347Y11916308D03*
G01*
X4601108Y8829370D03*
G01*
X2119020Y8610676D03*
D21*
G01*
X7363764Y11557000D03*
D20*
G01*
X9888143Y11333556D03*
G01*
X6337884Y8271027D03*
D21*
G01*
X5242458Y10452760D03*
M02*
