G04 Layer: TopLayer*
G04 EasyEDA v6.5.44, 2024-08-15 16:30:46*
G04 47a5133be28f4d398fb1845f12d33526,080bb0d1436b4706b040d70de8f1a738,10*
G04 Gerber Generator version 0.2*
G04 Scale: 100 percent, Rotated: No, Reflected: No *
G04 Dimensions in millimeters *
G04 leading zeros omitted , absolute positions ,4 integer and 5 decimal *
%FSLAX45Y45*%
%MOMM*%

%ADD10C,0.3000*%
%ADD11C,1.8009*%
%ADD12R,1.9990X3.5992*%
%ADD13C,1.6000*%
%ADD14C,1.5240*%
%ADD15R,1.5080X1.5080*%
%ADD16C,1.5080*%
%ADD17R,1.5000X1.5000*%
%ADD18C,1.5000*%
%ADD19C,0.6100*%
%ADD20C,0.0102*%

%LPD*%
G36*
X798068Y7137908D02*
G01*
X794156Y7138670D01*
X790905Y7140905D01*
X788670Y7144156D01*
X787908Y7148068D01*
X787908Y13171932D01*
X788670Y13175843D01*
X790905Y13179094D01*
X794156Y13181330D01*
X798068Y13182092D01*
X12663932Y13182092D01*
X12667843Y13181330D01*
X12671094Y13179094D01*
X12673330Y13175843D01*
X12674092Y13171932D01*
X12674092Y7148068D01*
X12673330Y7144156D01*
X12671094Y7140905D01*
X12667843Y7138670D01*
X12663932Y7137908D01*
G37*

%LPC*%
G36*
X3484168Y7486345D02*
G01*
X6894830Y7486345D01*
X6903313Y7487158D01*
X6910984Y7489494D01*
X6918045Y7493253D01*
X6924598Y7498689D01*
X7084059Y7658150D01*
X7087108Y7660182D01*
X7090664Y7661097D01*
X7094270Y7660640D01*
X7101331Y7658455D01*
X7114590Y7656220D01*
X7128052Y7655763D01*
X7141464Y7657134D01*
X7154570Y7660233D01*
X7167168Y7665110D01*
X7179005Y7671562D01*
X7189825Y7679537D01*
X7199528Y7688935D01*
X7207859Y7699502D01*
X7214717Y7711084D01*
X7220000Y7723530D01*
X7223556Y7736484D01*
X7225334Y7749844D01*
X7225334Y7763357D01*
X7223556Y7776718D01*
X7220000Y7789672D01*
X7214717Y7802118D01*
X7207859Y7813700D01*
X7199528Y7824266D01*
X7189825Y7833664D01*
X7179005Y7841640D01*
X7167168Y7848092D01*
X7154570Y7852968D01*
X7141464Y7856067D01*
X7128052Y7857439D01*
X7114590Y7856981D01*
X7101331Y7854746D01*
X7088428Y7850733D01*
X7076236Y7845094D01*
X7064857Y7837830D01*
X7054545Y7829143D01*
X7045502Y7819136D01*
X7037882Y7808010D01*
X7031837Y7795971D01*
X7027418Y7783271D01*
X7024725Y7770063D01*
X7023811Y7756601D01*
X7024725Y7743139D01*
X7027418Y7729931D01*
X7028586Y7726476D01*
X7029145Y7722717D01*
X7028332Y7719059D01*
X7026198Y7715961D01*
X6881368Y7571130D01*
X6878066Y7568895D01*
X6874205Y7568133D01*
X6764629Y7568133D01*
X6760718Y7568895D01*
X6757466Y7571130D01*
X6755231Y7574432D01*
X6754469Y7578293D01*
X6755231Y7582204D01*
X6757466Y7585506D01*
X6830059Y7658150D01*
X6833108Y7660182D01*
X6836664Y7661097D01*
X6840270Y7660640D01*
X6847331Y7658455D01*
X6860590Y7656220D01*
X6874052Y7655763D01*
X6887464Y7657134D01*
X6900570Y7660233D01*
X6913168Y7665110D01*
X6925005Y7671562D01*
X6935825Y7679537D01*
X6945528Y7688935D01*
X6953859Y7699502D01*
X6960717Y7711084D01*
X6966000Y7723530D01*
X6969556Y7736484D01*
X6971334Y7749844D01*
X6971334Y7763357D01*
X6969556Y7776718D01*
X6966000Y7789672D01*
X6960717Y7802118D01*
X6953859Y7813700D01*
X6945528Y7824266D01*
X6935825Y7833664D01*
X6925005Y7841640D01*
X6913168Y7848092D01*
X6900570Y7852968D01*
X6887464Y7856067D01*
X6874052Y7857439D01*
X6860590Y7856981D01*
X6847331Y7854746D01*
X6834428Y7850733D01*
X6822236Y7845094D01*
X6810857Y7837830D01*
X6800545Y7829143D01*
X6791502Y7819136D01*
X6783882Y7808010D01*
X6777837Y7795971D01*
X6773418Y7783271D01*
X6770725Y7770063D01*
X6769811Y7756601D01*
X6770725Y7743139D01*
X6773418Y7729931D01*
X6774586Y7726476D01*
X6775145Y7722717D01*
X6774332Y7719059D01*
X6772198Y7715961D01*
X6686600Y7630363D01*
X6683298Y7628128D01*
X6679438Y7627366D01*
X6315862Y7627366D01*
X6311950Y7628128D01*
X6308699Y7630363D01*
X6306464Y7633665D01*
X6305702Y7637525D01*
X6306464Y7641437D01*
X6308699Y7644739D01*
X6322060Y7658150D01*
X6325108Y7660182D01*
X6328664Y7661097D01*
X6332270Y7660640D01*
X6339332Y7658455D01*
X6352590Y7656220D01*
X6366052Y7655763D01*
X6379464Y7657134D01*
X6392570Y7660233D01*
X6405168Y7665110D01*
X6417005Y7671562D01*
X6427825Y7679537D01*
X6437528Y7688935D01*
X6445859Y7699502D01*
X6452717Y7711084D01*
X6458000Y7723530D01*
X6461556Y7736484D01*
X6463334Y7749844D01*
X6463334Y7763357D01*
X6461556Y7776718D01*
X6458000Y7789672D01*
X6452717Y7802118D01*
X6445859Y7813700D01*
X6437528Y7824266D01*
X6427825Y7833664D01*
X6417005Y7841640D01*
X6405168Y7848092D01*
X6392570Y7852968D01*
X6379464Y7856067D01*
X6366052Y7857439D01*
X6352590Y7856981D01*
X6339332Y7854746D01*
X6326428Y7850733D01*
X6314236Y7845094D01*
X6302857Y7837830D01*
X6292545Y7829143D01*
X6283502Y7819136D01*
X6275882Y7808010D01*
X6269837Y7795971D01*
X6265418Y7783271D01*
X6262725Y7770063D01*
X6261811Y7756601D01*
X6262725Y7743139D01*
X6265418Y7729931D01*
X6266586Y7726476D01*
X6267145Y7722717D01*
X6266332Y7719059D01*
X6264198Y7715961D01*
X6231788Y7683550D01*
X6228486Y7681315D01*
X6224625Y7680553D01*
X6197904Y7680553D01*
X6193485Y7681569D01*
X6189980Y7684363D01*
X6187998Y7688427D01*
X6187998Y7692948D01*
X6189929Y7697012D01*
X6191859Y7699502D01*
X6198717Y7711084D01*
X6204000Y7723530D01*
X6207556Y7736484D01*
X6209334Y7749844D01*
X6209334Y7763357D01*
X6207556Y7776718D01*
X6204000Y7789672D01*
X6198717Y7802118D01*
X6191859Y7813700D01*
X6183528Y7824266D01*
X6173825Y7833664D01*
X6163005Y7841640D01*
X6151168Y7848092D01*
X6138570Y7852968D01*
X6125464Y7856067D01*
X6112052Y7857439D01*
X6098590Y7856981D01*
X6085332Y7854746D01*
X6072428Y7850733D01*
X6060236Y7845094D01*
X6048857Y7837830D01*
X6038545Y7829143D01*
X6029502Y7819136D01*
X6021882Y7808010D01*
X6015837Y7795971D01*
X6011418Y7783271D01*
X6008725Y7770063D01*
X6007811Y7756601D01*
X6008725Y7743139D01*
X6011418Y7729931D01*
X6015837Y7717231D01*
X6021882Y7705191D01*
X6027877Y7696453D01*
X6029502Y7692440D01*
X6029299Y7688021D01*
X6027267Y7684160D01*
X6023762Y7681518D01*
X6019495Y7680553D01*
X5943904Y7680553D01*
X5939485Y7681569D01*
X5935980Y7684363D01*
X5933998Y7688427D01*
X5933998Y7692948D01*
X5935929Y7697012D01*
X5937859Y7699502D01*
X5944717Y7711084D01*
X5950000Y7723530D01*
X5953556Y7736484D01*
X5955334Y7749844D01*
X5955334Y7763357D01*
X5953556Y7776718D01*
X5950000Y7789672D01*
X5944717Y7802118D01*
X5937859Y7813700D01*
X5929528Y7824266D01*
X5919825Y7833664D01*
X5909005Y7841640D01*
X5897168Y7848092D01*
X5884570Y7852968D01*
X5871464Y7856067D01*
X5858052Y7857439D01*
X5844590Y7856981D01*
X5831332Y7854746D01*
X5818428Y7850733D01*
X5806236Y7845094D01*
X5794857Y7837830D01*
X5784545Y7829143D01*
X5775502Y7819136D01*
X5767882Y7808010D01*
X5761837Y7795971D01*
X5757418Y7783271D01*
X5754928Y7771180D01*
X5753201Y7767167D01*
X5749950Y7764322D01*
X5745784Y7763052D01*
X5741466Y7763662D01*
X5737809Y7765999D01*
X5367731Y8136077D01*
X5365546Y8139328D01*
X5364784Y8143240D01*
X5365546Y8147151D01*
X5367731Y8150402D01*
X5371033Y8152638D01*
X5374944Y8153400D01*
X6157823Y8153400D01*
X6161735Y8152638D01*
X6165037Y8150402D01*
X6518198Y7797241D01*
X6520332Y7794142D01*
X6521145Y7790484D01*
X6520586Y7786725D01*
X6519418Y7783271D01*
X6516725Y7770063D01*
X6515811Y7756601D01*
X6516725Y7743139D01*
X6519418Y7729931D01*
X6523837Y7717231D01*
X6529882Y7705191D01*
X6537502Y7694066D01*
X6546545Y7684058D01*
X6556857Y7675372D01*
X6568236Y7668107D01*
X6580428Y7662468D01*
X6593331Y7658455D01*
X6606590Y7656220D01*
X6620052Y7655763D01*
X6633464Y7657134D01*
X6646570Y7660233D01*
X6659168Y7665110D01*
X6671005Y7671562D01*
X6681825Y7679537D01*
X6691528Y7688935D01*
X6699859Y7699502D01*
X6706717Y7711084D01*
X6712000Y7723530D01*
X6715556Y7736484D01*
X6717334Y7749844D01*
X6717334Y7763357D01*
X6715556Y7776718D01*
X6712000Y7789672D01*
X6706717Y7802118D01*
X6699859Y7813700D01*
X6691528Y7824266D01*
X6681825Y7833664D01*
X6671005Y7841640D01*
X6659168Y7848092D01*
X6646570Y7852968D01*
X6633464Y7856067D01*
X6620052Y7857439D01*
X6606590Y7856981D01*
X6593331Y7854746D01*
X6586270Y7852562D01*
X6582664Y7852105D01*
X6579108Y7853019D01*
X6576059Y7855051D01*
X6295085Y8136077D01*
X6292900Y8139328D01*
X6292138Y8143240D01*
X6292900Y8147151D01*
X6295085Y8150402D01*
X6298387Y8152638D01*
X6302298Y8153400D01*
X8203184Y8153400D01*
X8204911Y8154111D01*
X8457488Y8406688D01*
X8458200Y8408416D01*
X8458200Y8965946D01*
X8458962Y8969806D01*
X8461197Y8973108D01*
X8464448Y8975293D01*
X8468360Y8976106D01*
X9892792Y8976106D01*
X9901275Y8976918D01*
X9908946Y8979255D01*
X9916007Y8983014D01*
X9922560Y8988450D01*
X10880902Y9946741D01*
X10884154Y9948926D01*
X10887913Y9949738D01*
X10891977Y9948976D01*
X10905134Y9945827D01*
X10918596Y9944455D01*
X10932160Y9944912D01*
X10945469Y9947198D01*
X10958423Y9951161D01*
X10970666Y9956901D01*
X10982096Y9964166D01*
X10992408Y9972903D01*
X11001502Y9982911D01*
X11003280Y9985552D01*
X11005921Y9988194D01*
X11009376Y9989667D01*
X11013084Y9989820D01*
X11016640Y9988651D01*
X11020450Y9985095D01*
X11111331Y9894214D01*
X11117935Y9888778D01*
X11124996Y9885019D01*
X11132667Y9882682D01*
X11141100Y9881870D01*
X11306556Y9881870D01*
X11315039Y9882682D01*
X11322710Y9885019D01*
X11329771Y9888778D01*
X11336324Y9894214D01*
X11388902Y9946741D01*
X11392154Y9948926D01*
X11395913Y9949738D01*
X11399977Y9948976D01*
X11413134Y9945827D01*
X11426596Y9944455D01*
X11440160Y9944912D01*
X11453469Y9947198D01*
X11466423Y9951161D01*
X11478666Y9956901D01*
X11490096Y9964166D01*
X11500408Y9972903D01*
X11509502Y9982911D01*
X11517122Y9994087D01*
X11523268Y10006177D01*
X11527688Y10018928D01*
X11530380Y10032187D01*
X11531295Y10045700D01*
X11530380Y10059212D01*
X11527688Y10072471D01*
X11523268Y10085222D01*
X11517122Y10097312D01*
X11509502Y10108488D01*
X11500408Y10118496D01*
X11490096Y10127234D01*
X11478666Y10134498D01*
X11466423Y10140238D01*
X11453469Y10144201D01*
X11440160Y10146487D01*
X11426596Y10146944D01*
X11413134Y10145572D01*
X11399977Y10142423D01*
X11387378Y10137597D01*
X11375491Y10131094D01*
X11364620Y10123068D01*
X11354866Y10113619D01*
X11346484Y10103002D01*
X11339576Y10091369D01*
X11334343Y10078923D01*
X11330736Y10065867D01*
X11328958Y10052456D01*
X11328958Y10038943D01*
X11330736Y10025532D01*
X11333734Y10014559D01*
X11334089Y10011003D01*
X11333175Y10007600D01*
X11331143Y10004704D01*
X11293094Y9966655D01*
X11289792Y9964420D01*
X11285931Y9963658D01*
X11260937Y9963658D01*
X11257127Y9964420D01*
X11253876Y9966553D01*
X11251692Y9969703D01*
X11250828Y9973513D01*
X11251438Y9977323D01*
X11253419Y9980625D01*
X11255502Y9982911D01*
X11263122Y9994087D01*
X11269268Y10006177D01*
X11273688Y10018928D01*
X11276380Y10032187D01*
X11277295Y10045700D01*
X11276380Y10059212D01*
X11273688Y10072471D01*
X11269268Y10085222D01*
X11263122Y10097312D01*
X11255502Y10108488D01*
X11246408Y10118496D01*
X11236096Y10127234D01*
X11224666Y10134498D01*
X11212423Y10140238D01*
X11199469Y10144201D01*
X11186160Y10146487D01*
X11172596Y10146944D01*
X11159134Y10145572D01*
X11145723Y10142321D01*
X11141913Y10141661D01*
X11138154Y10142474D01*
X11134902Y10144658D01*
X11015929Y10263581D01*
X11009376Y10269016D01*
X11002314Y10272776D01*
X10994644Y10275112D01*
X10986160Y10275925D01*
X8468360Y10275925D01*
X8464448Y10276687D01*
X8461197Y10278922D01*
X8458962Y10282224D01*
X8458200Y10286085D01*
X8458200Y11962384D01*
X8457488Y11964111D01*
X8204911Y12216688D01*
X8203184Y12217400D01*
X5927496Y12217400D01*
X5923584Y12218162D01*
X5920282Y12220397D01*
X5918098Y12223648D01*
X5917336Y12227560D01*
X5918098Y12231471D01*
X5920282Y12234722D01*
X6169660Y12484150D01*
X6172708Y12486182D01*
X6176264Y12487097D01*
X6179870Y12486640D01*
X6186932Y12484455D01*
X6200190Y12482220D01*
X6213652Y12481763D01*
X6227064Y12483134D01*
X6240170Y12486233D01*
X6252768Y12491110D01*
X6264605Y12497562D01*
X6275425Y12505537D01*
X6285128Y12514935D01*
X6293459Y12525502D01*
X6300317Y12537084D01*
X6305600Y12549530D01*
X6309156Y12562484D01*
X6310934Y12575844D01*
X6310934Y12589357D01*
X6309156Y12602718D01*
X6305600Y12615672D01*
X6300317Y12628118D01*
X6293459Y12639700D01*
X6285128Y12650266D01*
X6275425Y12659664D01*
X6264605Y12667640D01*
X6252768Y12674092D01*
X6240170Y12678968D01*
X6227064Y12682067D01*
X6213652Y12683439D01*
X6200190Y12682982D01*
X6186932Y12680746D01*
X6174028Y12676733D01*
X6161836Y12671094D01*
X6150457Y12663830D01*
X6140145Y12655143D01*
X6131102Y12645136D01*
X6123482Y12634010D01*
X6117437Y12621971D01*
X6113018Y12609271D01*
X6110325Y12596063D01*
X6109411Y12582601D01*
X6110325Y12569139D01*
X6113018Y12555931D01*
X6114186Y12552476D01*
X6114745Y12548717D01*
X6113932Y12545060D01*
X6111798Y12541961D01*
X5790234Y12220397D01*
X5786932Y12218162D01*
X5783021Y12217400D01*
X4903216Y12217400D01*
X4901488Y12216688D01*
X4648911Y11964111D01*
X4648200Y11962384D01*
X4648200Y11845391D01*
X4647438Y11841480D01*
X4645202Y11838178D01*
X4641951Y11835993D01*
X4638040Y11835231D01*
X2319274Y11835231D01*
X2310790Y11834368D01*
X2303119Y11832082D01*
X2296058Y11828272D01*
X2289505Y11822887D01*
X2092350Y11625732D01*
X2091131Y11624310D01*
X2087727Y11621566D01*
X2083460Y11620601D01*
X2079193Y11621465D01*
X2075637Y11624056D01*
X2068779Y11631879D01*
X2058365Y11641023D01*
X2046884Y11648694D01*
X2034438Y11654840D01*
X2021332Y11659260D01*
X2007717Y11661952D01*
X1993900Y11662867D01*
X1980082Y11661952D01*
X1966518Y11659260D01*
X1953412Y11654840D01*
X1940966Y11648694D01*
X1929485Y11641023D01*
X1919071Y11631879D01*
X1909927Y11621465D01*
X1902206Y11609933D01*
X1896110Y11597538D01*
X1891639Y11584381D01*
X1888947Y11570817D01*
X1888032Y11557000D01*
X1888947Y11543182D01*
X1891639Y11529568D01*
X1896110Y11516461D01*
X1902206Y11504066D01*
X1909927Y11492534D01*
X1919071Y11482120D01*
X1929485Y11472976D01*
X1940966Y11465306D01*
X1953412Y11459159D01*
X1966518Y11454739D01*
X1980082Y11451996D01*
X1993900Y11451132D01*
X2007717Y11451996D01*
X2021332Y11454739D01*
X2034438Y11459159D01*
X2046884Y11465306D01*
X2058365Y11472976D01*
X2063140Y11477193D01*
X2066493Y11479123D01*
X2070303Y11479682D01*
X2074062Y11478818D01*
X2077212Y11476583D01*
X2079294Y11473332D01*
X2080006Y11469522D01*
X2080006Y9673132D01*
X2079243Y9669272D01*
X2077059Y9665970D01*
X1527505Y9116415D01*
X1524508Y9114332D01*
X1520952Y9113469D01*
X1517294Y9113926D01*
X1509572Y9116314D01*
X1496110Y9118600D01*
X1482496Y9119057D01*
X1468932Y9117685D01*
X1455674Y9114485D01*
X1442923Y9109608D01*
X1430985Y9103055D01*
X1420012Y9094978D01*
X1410208Y9085478D01*
X1401724Y9074759D01*
X1394815Y9063024D01*
X1389481Y9050477D01*
X1385874Y9037320D01*
X1384046Y9023807D01*
X1384046Y9010192D01*
X1385874Y8996680D01*
X1389481Y8983522D01*
X1394815Y8970975D01*
X1401724Y8959240D01*
X1410208Y8948521D01*
X1420012Y8939022D01*
X1430985Y8930944D01*
X1442923Y8924391D01*
X1455674Y8919514D01*
X1468932Y8916365D01*
X1482496Y8914993D01*
X1496110Y8915450D01*
X1509572Y8917686D01*
X1522577Y8921750D01*
X1534972Y8927490D01*
X1546453Y8934805D01*
X1556867Y8943644D01*
X1566011Y8953754D01*
X1573733Y8964980D01*
X1579880Y8977172D01*
X1584350Y8990025D01*
X1587093Y9003385D01*
X1588008Y9017000D01*
X1587093Y9030614D01*
X1584350Y9043974D01*
X1582928Y9048089D01*
X1582369Y9051798D01*
X1583232Y9055455D01*
X1585366Y9058605D01*
X2149500Y9622739D01*
X2154885Y9629292D01*
X2158695Y9636353D01*
X2160981Y9644024D01*
X2161844Y9652508D01*
X2161844Y11469522D01*
X2162556Y11473332D01*
X2164638Y11476532D01*
X2167788Y11478768D01*
X2171547Y11479682D01*
X2175357Y11479123D01*
X2178710Y11477142D01*
X2183434Y11472976D01*
X2194966Y11465306D01*
X2207412Y11459159D01*
X2220518Y11454739D01*
X2234082Y11451996D01*
X2247900Y11451132D01*
X2261717Y11451996D01*
X2275332Y11454739D01*
X2282037Y11456974D01*
X2285746Y11457533D01*
X2289403Y11456670D01*
X2292502Y11454536D01*
X3403549Y10343540D01*
X3410102Y10338104D01*
X3417163Y10334345D01*
X3424834Y10332008D01*
X3433318Y10331196D01*
X4638040Y10331196D01*
X4641951Y10330383D01*
X4645202Y10328198D01*
X4647438Y10324896D01*
X4648200Y10321036D01*
X4648200Y9067698D01*
X4647184Y9063329D01*
X4644390Y9059773D01*
X4640326Y9057843D01*
X4635855Y9057792D01*
X4631791Y9059722D01*
X4628946Y9063228D01*
X4625594Y9069933D01*
X4617923Y9081465D01*
X4608779Y9091879D01*
X4598365Y9101023D01*
X4586833Y9108694D01*
X4574438Y9114840D01*
X4561332Y9119260D01*
X4547717Y9122003D01*
X4533900Y9122867D01*
X4520082Y9122003D01*
X4506518Y9119260D01*
X4493412Y9114840D01*
X4480966Y9108694D01*
X4469434Y9101023D01*
X4459020Y9091879D01*
X4449927Y9081465D01*
X4442206Y9069933D01*
X4436059Y9057538D01*
X4431639Y9044432D01*
X4428947Y9030817D01*
X4428032Y9017000D01*
X4428947Y9003182D01*
X4431639Y8989618D01*
X4436059Y8976461D01*
X4442206Y8964066D01*
X4449927Y8952534D01*
X4459020Y8942120D01*
X4469434Y8932976D01*
X4480966Y8925306D01*
X4493412Y8919159D01*
X4504893Y8915298D01*
X4508398Y8913215D01*
X4510786Y8909964D01*
X4511751Y8906052D01*
X4511090Y8902039D01*
X4508906Y8898636D01*
X4505604Y8896299D01*
X4501591Y8895486D01*
X4312208Y8895486D01*
X4308246Y8896299D01*
X4304893Y8898636D01*
X4302709Y8902039D01*
X4302048Y8906052D01*
X4303014Y8909964D01*
X4305452Y8913215D01*
X4308957Y8915298D01*
X4320438Y8919159D01*
X4332833Y8925306D01*
X4344365Y8932976D01*
X4354779Y8942120D01*
X4363923Y8952534D01*
X4371594Y8964066D01*
X4377740Y8976461D01*
X4382211Y8989618D01*
X4384903Y9003182D01*
X4385818Y9017000D01*
X4384903Y9030817D01*
X4382211Y9044432D01*
X4377740Y9057538D01*
X4371594Y9069933D01*
X4363923Y9081465D01*
X4354779Y9091879D01*
X4344365Y9101023D01*
X4332833Y9108694D01*
X4320438Y9114840D01*
X4307332Y9119260D01*
X4293717Y9122003D01*
X4279900Y9122867D01*
X4266082Y9122003D01*
X4252518Y9119260D01*
X4239412Y9114840D01*
X4226966Y9108694D01*
X4215434Y9101023D01*
X4205020Y9091879D01*
X4195927Y9081465D01*
X4188206Y9069933D01*
X4182059Y9057538D01*
X4177639Y9044432D01*
X4174947Y9030817D01*
X4174032Y9017000D01*
X4174947Y9003182D01*
X4177639Y8989618D01*
X4182059Y8976461D01*
X4188206Y8964066D01*
X4195927Y8952534D01*
X4205020Y8942120D01*
X4215434Y8932976D01*
X4226966Y8925306D01*
X4239412Y8919159D01*
X4250893Y8915298D01*
X4254398Y8913215D01*
X4256786Y8909964D01*
X4257751Y8906052D01*
X4257090Y8902039D01*
X4254906Y8898636D01*
X4251604Y8896299D01*
X4247591Y8895486D01*
X4058208Y8895486D01*
X4054246Y8896299D01*
X4050893Y8898636D01*
X4048709Y8902039D01*
X4048048Y8906052D01*
X4049014Y8909964D01*
X4051452Y8913215D01*
X4054957Y8915298D01*
X4066438Y8919159D01*
X4078833Y8925306D01*
X4090365Y8932976D01*
X4100779Y8942120D01*
X4109923Y8952534D01*
X4117594Y8964066D01*
X4123740Y8976461D01*
X4128211Y8989618D01*
X4130903Y9003182D01*
X4131818Y9017000D01*
X4130903Y9030817D01*
X4128211Y9044432D01*
X4123740Y9057538D01*
X4117594Y9069933D01*
X4109923Y9081465D01*
X4100779Y9091879D01*
X4090365Y9101023D01*
X4078833Y9108694D01*
X4066438Y9114840D01*
X4053332Y9119260D01*
X4039717Y9122003D01*
X4025900Y9122867D01*
X4012082Y9122003D01*
X3998518Y9119260D01*
X3985412Y9114840D01*
X3972966Y9108694D01*
X3961434Y9101023D01*
X3951020Y9091879D01*
X3941927Y9081465D01*
X3934206Y9069933D01*
X3928059Y9057538D01*
X3923639Y9044432D01*
X3920947Y9030817D01*
X3920032Y9017000D01*
X3920947Y9003182D01*
X3923639Y8989618D01*
X3928059Y8976461D01*
X3934206Y8964066D01*
X3941927Y8952534D01*
X3951020Y8942120D01*
X3961434Y8932976D01*
X3972966Y8925306D01*
X3985412Y8919159D01*
X3996893Y8915298D01*
X4000398Y8913215D01*
X4002786Y8909964D01*
X4003751Y8906052D01*
X4003090Y8902039D01*
X4000906Y8898636D01*
X3997604Y8896299D01*
X3993591Y8895486D01*
X3804208Y8895486D01*
X3800246Y8896299D01*
X3796893Y8898636D01*
X3794709Y8902039D01*
X3794048Y8906052D01*
X3795014Y8909964D01*
X3797452Y8913215D01*
X3800957Y8915298D01*
X3812438Y8919159D01*
X3824833Y8925306D01*
X3836365Y8932976D01*
X3846779Y8942120D01*
X3855923Y8952534D01*
X3863594Y8964066D01*
X3869740Y8976461D01*
X3874211Y8989618D01*
X3876903Y9003182D01*
X3877818Y9017000D01*
X3876903Y9030817D01*
X3874211Y9044432D01*
X3869740Y9057538D01*
X3863594Y9069933D01*
X3855923Y9081465D01*
X3846779Y9091879D01*
X3836365Y9101023D01*
X3824833Y9108694D01*
X3812438Y9114840D01*
X3799332Y9119260D01*
X3785717Y9122003D01*
X3771900Y9122867D01*
X3758082Y9122003D01*
X3744518Y9119260D01*
X3731412Y9114840D01*
X3718966Y9108694D01*
X3707434Y9101023D01*
X3697020Y9091879D01*
X3687927Y9081465D01*
X3680206Y9069933D01*
X3674059Y9057538D01*
X3669639Y9044432D01*
X3666947Y9030817D01*
X3666032Y9017000D01*
X3666947Y9003182D01*
X3669639Y8989618D01*
X3674059Y8976461D01*
X3680206Y8964066D01*
X3687927Y8952534D01*
X3697020Y8942120D01*
X3707434Y8932976D01*
X3718966Y8925306D01*
X3731412Y8919159D01*
X3742893Y8915298D01*
X3746398Y8913215D01*
X3748786Y8909964D01*
X3749751Y8906052D01*
X3749090Y8902039D01*
X3746906Y8898636D01*
X3743604Y8896299D01*
X3739591Y8895486D01*
X3550208Y8895486D01*
X3546246Y8896299D01*
X3542893Y8898636D01*
X3540709Y8902039D01*
X3540048Y8906052D01*
X3541014Y8909964D01*
X3543452Y8913215D01*
X3546957Y8915298D01*
X3558438Y8919159D01*
X3570833Y8925306D01*
X3582365Y8932976D01*
X3592779Y8942120D01*
X3601923Y8952534D01*
X3609594Y8964066D01*
X3615740Y8976461D01*
X3620211Y8989618D01*
X3622903Y9003182D01*
X3623818Y9017000D01*
X3622903Y9030817D01*
X3620211Y9044432D01*
X3615740Y9057538D01*
X3609594Y9069933D01*
X3601923Y9081465D01*
X3592779Y9091879D01*
X3582365Y9101023D01*
X3570833Y9108694D01*
X3558438Y9114840D01*
X3545332Y9119260D01*
X3531717Y9122003D01*
X3517900Y9122867D01*
X3504082Y9122003D01*
X3490518Y9119260D01*
X3477412Y9114840D01*
X3464966Y9108694D01*
X3453434Y9101023D01*
X3443020Y9091879D01*
X3433927Y9081465D01*
X3426206Y9069933D01*
X3420059Y9057538D01*
X3415639Y9044432D01*
X3412947Y9030817D01*
X3412032Y9017000D01*
X3412947Y9003182D01*
X3415639Y8989618D01*
X3420059Y8976461D01*
X3426206Y8964066D01*
X3433927Y8952534D01*
X3443020Y8942120D01*
X3453434Y8932976D01*
X3464966Y8925306D01*
X3477412Y8919159D01*
X3488893Y8915298D01*
X3492398Y8913215D01*
X3494786Y8909964D01*
X3495751Y8906052D01*
X3495090Y8902039D01*
X3492906Y8898636D01*
X3489604Y8896299D01*
X3485591Y8895486D01*
X3296208Y8895486D01*
X3292246Y8896299D01*
X3288893Y8898636D01*
X3286709Y8902039D01*
X3286048Y8906052D01*
X3287014Y8909964D01*
X3289452Y8913215D01*
X3292957Y8915298D01*
X3304438Y8919159D01*
X3316833Y8925306D01*
X3328365Y8932976D01*
X3338779Y8942120D01*
X3347923Y8952534D01*
X3355594Y8964066D01*
X3361740Y8976461D01*
X3366211Y8989618D01*
X3368903Y9003182D01*
X3369818Y9017000D01*
X3368903Y9030817D01*
X3366211Y9044432D01*
X3361740Y9057538D01*
X3355594Y9069933D01*
X3347923Y9081465D01*
X3338779Y9091879D01*
X3328365Y9101023D01*
X3316833Y9108694D01*
X3304438Y9114840D01*
X3291332Y9119260D01*
X3277717Y9122003D01*
X3263900Y9122867D01*
X3250082Y9122003D01*
X3236518Y9119260D01*
X3223412Y9114840D01*
X3210966Y9108694D01*
X3199434Y9101023D01*
X3189020Y9091879D01*
X3179622Y9081160D01*
X3176320Y9078671D01*
X3172307Y9077706D01*
X3168243Y9078366D01*
X3164789Y9080652D01*
X3083407Y9162034D01*
X3076803Y9167469D01*
X3069742Y9171228D01*
X3062071Y9173565D01*
X3053638Y9174378D01*
X2618892Y9174378D01*
X2610408Y9173565D01*
X2602738Y9171228D01*
X2595676Y9167469D01*
X2589123Y9162034D01*
X2546502Y9119463D01*
X2543403Y9117330D01*
X2539746Y9116466D01*
X2536037Y9117025D01*
X2529332Y9119260D01*
X2515717Y9122003D01*
X2501900Y9122867D01*
X2488082Y9122003D01*
X2474518Y9119260D01*
X2461412Y9114840D01*
X2448966Y9108694D01*
X2437434Y9101023D01*
X2427020Y9091879D01*
X2417927Y9081465D01*
X2410206Y9069933D01*
X2404110Y9057538D01*
X2399639Y9044432D01*
X2396947Y9030817D01*
X2396032Y9017000D01*
X2396947Y9003182D01*
X2399639Y8989618D01*
X2404110Y8976461D01*
X2410206Y8964066D01*
X2417927Y8952534D01*
X2427020Y8942120D01*
X2437434Y8932976D01*
X2448966Y8925306D01*
X2461412Y8919159D01*
X2474518Y8914739D01*
X2488082Y8912047D01*
X2501900Y8911132D01*
X2515717Y8912047D01*
X2529332Y8914739D01*
X2542438Y8919159D01*
X2554833Y8925306D01*
X2566365Y8932976D01*
X2576779Y8942120D01*
X2585923Y8952534D01*
X2593594Y8964066D01*
X2599740Y8976461D01*
X2604211Y8989618D01*
X2606903Y9003182D01*
X2607818Y9017000D01*
X2606903Y9030817D01*
X2604211Y9044432D01*
X2601925Y9051137D01*
X2601366Y9054846D01*
X2602230Y9058503D01*
X2604363Y9061602D01*
X2632354Y9089593D01*
X2635656Y9091777D01*
X2639517Y9092590D01*
X2660345Y9092590D01*
X2664561Y9091625D01*
X2668066Y9089034D01*
X2670098Y9085173D01*
X2670352Y9080804D01*
X2668778Y9076791D01*
X2664206Y9069933D01*
X2658110Y9057538D01*
X2653639Y9044432D01*
X2650947Y9030817D01*
X2650032Y9017000D01*
X2650947Y9003182D01*
X2653639Y8989618D01*
X2658110Y8976461D01*
X2664206Y8964066D01*
X2671927Y8952534D01*
X2681020Y8942120D01*
X2691434Y8932976D01*
X2702966Y8925306D01*
X2715412Y8919159D01*
X2728518Y8914739D01*
X2742082Y8912047D01*
X2755900Y8911132D01*
X2769717Y8912047D01*
X2783332Y8914739D01*
X2790037Y8917025D01*
X2793746Y8917533D01*
X2797403Y8916670D01*
X2800502Y8914587D01*
X3605123Y8109966D01*
X3611676Y8104530D01*
X3618737Y8100771D01*
X3626408Y8098434D01*
X3634892Y8097621D01*
X5286298Y8097621D01*
X5290159Y8096808D01*
X5293461Y8094624D01*
X5513222Y7874863D01*
X5515457Y7871561D01*
X5516219Y7867650D01*
X5515457Y7863789D01*
X5513222Y7860487D01*
X5509920Y7858302D01*
X5506059Y7857490D01*
X5373878Y7857490D01*
X5367528Y7856778D01*
X5362092Y7854899D01*
X5357164Y7851800D01*
X5353100Y7847736D01*
X5350002Y7842808D01*
X5346903Y7832852D01*
X5344515Y7829905D01*
X5341264Y7828025D01*
X5337505Y7827467D01*
X5333847Y7828280D01*
X5330748Y7830413D01*
X5160568Y8000593D01*
X5153964Y8005978D01*
X5146903Y8009788D01*
X5139232Y8012074D01*
X5130800Y8012938D01*
X3314039Y8012938D01*
X3310128Y8013700D01*
X3306826Y8015884D01*
X2350363Y8972397D01*
X2348230Y8975496D01*
X2347366Y8979154D01*
X2347925Y8982862D01*
X2350211Y8989618D01*
X2352903Y9003182D01*
X2353818Y9017000D01*
X2352903Y9030817D01*
X2350211Y9044432D01*
X2345740Y9057538D01*
X2339594Y9069933D01*
X2331923Y9081465D01*
X2322779Y9091879D01*
X2312365Y9101023D01*
X2300833Y9108694D01*
X2288438Y9114840D01*
X2275332Y9119260D01*
X2261717Y9122003D01*
X2247900Y9122867D01*
X2234082Y9122003D01*
X2220518Y9119260D01*
X2207412Y9114840D01*
X2194966Y9108694D01*
X2183434Y9101023D01*
X2173020Y9091879D01*
X2163927Y9081465D01*
X2156206Y9069933D01*
X2150110Y9057538D01*
X2145639Y9044432D01*
X2142947Y9030817D01*
X2142032Y9017000D01*
X2142947Y9003182D01*
X2145639Y8989618D01*
X2150110Y8976461D01*
X2156206Y8964066D01*
X2163927Y8952534D01*
X2173020Y8942120D01*
X2183434Y8932976D01*
X2194966Y8925306D01*
X2207412Y8919159D01*
X2220518Y8914739D01*
X2234082Y8912047D01*
X2247900Y8911132D01*
X2261717Y8912047D01*
X2275332Y8914739D01*
X2282037Y8917025D01*
X2285746Y8917533D01*
X2289403Y8916670D01*
X2292502Y8914587D01*
X3263595Y7943443D01*
X3270199Y7938058D01*
X3277260Y7934248D01*
X3284931Y7931962D01*
X3293364Y7931099D01*
X5110124Y7931099D01*
X5114036Y7930337D01*
X5117338Y7928152D01*
X5174132Y7871307D01*
X5176418Y7867853D01*
X5177078Y7863789D01*
X5176113Y7859725D01*
X5173573Y7856474D01*
X5169966Y7854442D01*
X5158028Y7850733D01*
X5145836Y7845094D01*
X5134457Y7837830D01*
X5124145Y7829143D01*
X5115102Y7819136D01*
X5107482Y7808010D01*
X5101437Y7795971D01*
X5097018Y7783271D01*
X5094325Y7770063D01*
X5093411Y7756601D01*
X5094325Y7743139D01*
X5097018Y7729931D01*
X5101437Y7717231D01*
X5107482Y7705191D01*
X5115102Y7694066D01*
X5124145Y7684058D01*
X5134457Y7675372D01*
X5145836Y7668107D01*
X5158028Y7662468D01*
X5170932Y7658455D01*
X5184190Y7656220D01*
X5197652Y7655763D01*
X5211064Y7657134D01*
X5224170Y7660233D01*
X5236768Y7665110D01*
X5248605Y7671562D01*
X5259425Y7679537D01*
X5269128Y7688935D01*
X5277510Y7699603D01*
X5280507Y7702753D01*
X5284571Y7704429D01*
X5288940Y7704175D01*
X5292801Y7702143D01*
X5295493Y7698689D01*
X5296408Y7694422D01*
X5296408Y7670444D01*
X5297271Y7661960D01*
X5299557Y7654290D01*
X5303367Y7647228D01*
X5308752Y7640675D01*
X5363921Y7585506D01*
X5366105Y7582204D01*
X5366918Y7578293D01*
X5366105Y7574432D01*
X5363921Y7571130D01*
X5360619Y7568895D01*
X5356758Y7568133D01*
X3504844Y7568133D01*
X3500932Y7568895D01*
X3497630Y7571130D01*
X2096363Y8972448D01*
X2094230Y8975496D01*
X2093366Y8979154D01*
X2093925Y8982862D01*
X2096211Y8989618D01*
X2098903Y9003182D01*
X2099818Y9017000D01*
X2098903Y9030817D01*
X2096211Y9044432D01*
X2091740Y9057538D01*
X2085644Y9069933D01*
X2077923Y9081465D01*
X2068779Y9091879D01*
X2058365Y9101023D01*
X2046884Y9108694D01*
X2034438Y9114840D01*
X2021332Y9119260D01*
X2007717Y9122003D01*
X1993900Y9122867D01*
X1980082Y9122003D01*
X1966518Y9119260D01*
X1953412Y9114840D01*
X1940966Y9108694D01*
X1929485Y9101023D01*
X1919071Y9091879D01*
X1909927Y9081465D01*
X1902206Y9069933D01*
X1896110Y9057538D01*
X1891639Y9044432D01*
X1888947Y9030817D01*
X1888032Y9017000D01*
X1888947Y9003182D01*
X1891639Y8989618D01*
X1896110Y8976461D01*
X1902206Y8964066D01*
X1909927Y8952534D01*
X1919071Y8942120D01*
X1929485Y8932976D01*
X1940966Y8925306D01*
X1953412Y8919159D01*
X1966518Y8914739D01*
X1980082Y8912047D01*
X1993900Y8911132D01*
X2007717Y8912047D01*
X2021332Y8914739D01*
X2028037Y8917025D01*
X2031746Y8917533D01*
X2035403Y8916670D01*
X2038502Y8914587D01*
X3454400Y7498689D01*
X3461004Y7493253D01*
X3468065Y7489494D01*
X3475736Y7487158D01*
G37*
G36*
X10007600Y7494117D02*
G01*
X10022789Y7495031D01*
X10037724Y7497775D01*
X10052253Y7502296D01*
X10066121Y7508544D01*
X10079126Y7516418D01*
X10091064Y7525766D01*
X10101834Y7536535D01*
X10111181Y7548473D01*
X10119055Y7561478D01*
X10125303Y7575346D01*
X10129824Y7589875D01*
X10132568Y7604810D01*
X10133482Y7620000D01*
X10132568Y7635189D01*
X10129824Y7650124D01*
X10125303Y7664653D01*
X10119055Y7678521D01*
X10111181Y7691526D01*
X10101834Y7703464D01*
X10091064Y7714234D01*
X10079126Y7723581D01*
X10066121Y7731455D01*
X10052253Y7737703D01*
X10037724Y7742224D01*
X10022789Y7744968D01*
X10007600Y7745882D01*
X9992410Y7744968D01*
X9977475Y7742224D01*
X9962946Y7737703D01*
X9949078Y7731455D01*
X9936073Y7723581D01*
X9924135Y7714234D01*
X9913366Y7703464D01*
X9904018Y7691526D01*
X9896144Y7678521D01*
X9889896Y7664653D01*
X9885375Y7650124D01*
X9882632Y7635189D01*
X9881717Y7620000D01*
X9882632Y7604810D01*
X9885375Y7589875D01*
X9889896Y7575346D01*
X9896144Y7561478D01*
X9904018Y7548473D01*
X9913366Y7536535D01*
X9924135Y7525766D01*
X9936073Y7516418D01*
X9949078Y7508544D01*
X9962946Y7502296D01*
X9977475Y7497775D01*
X9992410Y7495031D01*
G37*
G36*
X12090400Y7494117D02*
G01*
X12105589Y7495031D01*
X12120524Y7497775D01*
X12135053Y7502296D01*
X12148921Y7508544D01*
X12161926Y7516418D01*
X12173864Y7525766D01*
X12184634Y7536535D01*
X12193981Y7548473D01*
X12201855Y7561478D01*
X12208103Y7575346D01*
X12212624Y7589875D01*
X12215368Y7604810D01*
X12216282Y7620000D01*
X12215368Y7635189D01*
X12212624Y7650124D01*
X12208103Y7664653D01*
X12201855Y7678521D01*
X12193981Y7691526D01*
X12184634Y7703464D01*
X12173864Y7714234D01*
X12161926Y7723581D01*
X12148921Y7731455D01*
X12135053Y7737703D01*
X12120524Y7742224D01*
X12105589Y7744968D01*
X12090400Y7745882D01*
X12075210Y7744968D01*
X12060275Y7742224D01*
X12045746Y7737703D01*
X12031878Y7731455D01*
X12018873Y7723581D01*
X12006935Y7714234D01*
X11996166Y7703464D01*
X11986818Y7691526D01*
X11978944Y7678521D01*
X11972696Y7664653D01*
X11968175Y7650124D01*
X11965432Y7635189D01*
X11964517Y7620000D01*
X11965432Y7604810D01*
X11968175Y7589875D01*
X11972696Y7575346D01*
X11978944Y7561478D01*
X11986818Y7548473D01*
X11996166Y7536535D01*
X12006935Y7525766D01*
X12018873Y7516418D01*
X12031878Y7508544D01*
X12045746Y7502296D01*
X12060275Y7497775D01*
X12075210Y7495031D01*
G37*
G36*
X7558278Y7655712D02*
G01*
X7707122Y7655712D01*
X7713472Y7656423D01*
X7718907Y7658303D01*
X7723835Y7661402D01*
X7727899Y7665466D01*
X7730998Y7670393D01*
X7732877Y7675829D01*
X7733588Y7682179D01*
X7733588Y7831023D01*
X7732877Y7837373D01*
X7730998Y7842808D01*
X7727899Y7847736D01*
X7723835Y7851800D01*
X7718907Y7854899D01*
X7713472Y7856778D01*
X7707122Y7857490D01*
X7558278Y7857490D01*
X7551928Y7856778D01*
X7546492Y7854899D01*
X7541564Y7851800D01*
X7537500Y7847736D01*
X7534402Y7842808D01*
X7532522Y7837373D01*
X7531811Y7831023D01*
X7531811Y7682179D01*
X7532522Y7675829D01*
X7534402Y7670393D01*
X7537500Y7665466D01*
X7541564Y7661402D01*
X7546492Y7658303D01*
X7551928Y7656423D01*
G37*
G36*
X4689652Y7655763D02*
G01*
X4703064Y7657134D01*
X4716170Y7660233D01*
X4728768Y7665110D01*
X4740605Y7671562D01*
X4751425Y7679537D01*
X4761128Y7688935D01*
X4769459Y7699502D01*
X4776317Y7711084D01*
X4781600Y7723530D01*
X4785156Y7736484D01*
X4786934Y7749844D01*
X4786934Y7763357D01*
X4785156Y7776718D01*
X4781600Y7789672D01*
X4776317Y7802118D01*
X4769459Y7813700D01*
X4761128Y7824266D01*
X4751425Y7833664D01*
X4740605Y7841640D01*
X4728768Y7848092D01*
X4716170Y7852968D01*
X4703064Y7856067D01*
X4689652Y7857439D01*
X4676190Y7856981D01*
X4662932Y7854746D01*
X4650028Y7850733D01*
X4637836Y7845094D01*
X4626457Y7837830D01*
X4616145Y7829143D01*
X4607102Y7819136D01*
X4599482Y7808010D01*
X4593437Y7795971D01*
X4589018Y7783271D01*
X4586325Y7770063D01*
X4585411Y7756601D01*
X4586325Y7743139D01*
X4589018Y7729931D01*
X4593437Y7717231D01*
X4599482Y7705191D01*
X4607102Y7694066D01*
X4616145Y7684058D01*
X4626457Y7675372D01*
X4637836Y7668107D01*
X4650028Y7662468D01*
X4662932Y7658455D01*
X4676190Y7656220D01*
G37*
G36*
X3927652Y7655763D02*
G01*
X3941064Y7657134D01*
X3954170Y7660233D01*
X3966768Y7665110D01*
X3978605Y7671562D01*
X3989425Y7679537D01*
X3999128Y7688935D01*
X4007459Y7699502D01*
X4014317Y7711084D01*
X4019600Y7723530D01*
X4023156Y7736484D01*
X4024934Y7749844D01*
X4024934Y7763357D01*
X4023156Y7776718D01*
X4019600Y7789672D01*
X4014317Y7802118D01*
X4007459Y7813700D01*
X3999128Y7824266D01*
X3989425Y7833664D01*
X3978605Y7841640D01*
X3966768Y7848092D01*
X3954170Y7852968D01*
X3941064Y7856067D01*
X3927652Y7857439D01*
X3914190Y7856981D01*
X3900932Y7854746D01*
X3888028Y7850733D01*
X3875836Y7845094D01*
X3864457Y7837830D01*
X3854145Y7829143D01*
X3845102Y7819136D01*
X3837482Y7808010D01*
X3831437Y7795971D01*
X3827018Y7783271D01*
X3824325Y7770063D01*
X3823411Y7756601D01*
X3824325Y7743139D01*
X3827018Y7729931D01*
X3831437Y7717231D01*
X3837482Y7705191D01*
X3845102Y7694066D01*
X3854145Y7684058D01*
X3864457Y7675372D01*
X3875836Y7668107D01*
X3888028Y7662468D01*
X3900932Y7658455D01*
X3914190Y7656220D01*
G37*
G36*
X4181652Y7655763D02*
G01*
X4195064Y7657134D01*
X4208170Y7660233D01*
X4220768Y7665110D01*
X4232605Y7671562D01*
X4243425Y7679537D01*
X4253128Y7688935D01*
X4261459Y7699502D01*
X4268317Y7711084D01*
X4273600Y7723530D01*
X4277156Y7736484D01*
X4278934Y7749844D01*
X4278934Y7763357D01*
X4277156Y7776718D01*
X4273600Y7789672D01*
X4268317Y7802118D01*
X4261459Y7813700D01*
X4253128Y7824266D01*
X4243425Y7833664D01*
X4232605Y7841640D01*
X4220768Y7848092D01*
X4208170Y7852968D01*
X4195064Y7856067D01*
X4181652Y7857439D01*
X4168190Y7856981D01*
X4154932Y7854746D01*
X4142028Y7850733D01*
X4129836Y7845094D01*
X4118457Y7837830D01*
X4108145Y7829143D01*
X4099102Y7819136D01*
X4091482Y7808010D01*
X4085437Y7795971D01*
X4081018Y7783271D01*
X4078325Y7770063D01*
X4077411Y7756601D01*
X4078325Y7743139D01*
X4081018Y7729931D01*
X4085437Y7717231D01*
X4091482Y7705191D01*
X4099102Y7694066D01*
X4108145Y7684058D01*
X4118457Y7675372D01*
X4129836Y7668107D01*
X4142028Y7662468D01*
X4154932Y7658455D01*
X4168190Y7656220D01*
G37*
G36*
X7382052Y7655763D02*
G01*
X7395464Y7657134D01*
X7408570Y7660233D01*
X7421168Y7665110D01*
X7433005Y7671562D01*
X7443825Y7679537D01*
X7453528Y7688935D01*
X7461859Y7699502D01*
X7468717Y7711084D01*
X7474000Y7723530D01*
X7477556Y7736484D01*
X7479334Y7749844D01*
X7479334Y7763357D01*
X7477556Y7776718D01*
X7474000Y7789672D01*
X7468717Y7802118D01*
X7461859Y7813700D01*
X7453528Y7824266D01*
X7443825Y7833664D01*
X7433005Y7841640D01*
X7421168Y7848092D01*
X7408570Y7852968D01*
X7395464Y7856067D01*
X7382052Y7857439D01*
X7368590Y7856981D01*
X7355331Y7854746D01*
X7342428Y7850733D01*
X7330236Y7845094D01*
X7318857Y7837830D01*
X7308545Y7829143D01*
X7299502Y7819136D01*
X7291882Y7808010D01*
X7285837Y7795971D01*
X7281418Y7783271D01*
X7278725Y7770063D01*
X7277811Y7756601D01*
X7278725Y7743139D01*
X7281418Y7729931D01*
X7285837Y7717231D01*
X7291882Y7705191D01*
X7299502Y7694066D01*
X7308545Y7684058D01*
X7318857Y7675372D01*
X7330236Y7668107D01*
X7342428Y7662468D01*
X7355331Y7658455D01*
X7368590Y7656220D01*
G37*
G36*
X4943652Y7655763D02*
G01*
X4957064Y7657134D01*
X4970170Y7660233D01*
X4982768Y7665110D01*
X4994605Y7671562D01*
X5005425Y7679537D01*
X5015128Y7688935D01*
X5023459Y7699502D01*
X5030317Y7711084D01*
X5035600Y7723530D01*
X5039156Y7736484D01*
X5040934Y7749844D01*
X5040934Y7763357D01*
X5039156Y7776718D01*
X5035600Y7789672D01*
X5030317Y7802118D01*
X5023459Y7813700D01*
X5015128Y7824266D01*
X5005425Y7833664D01*
X4994605Y7841640D01*
X4982768Y7848092D01*
X4970170Y7852968D01*
X4957064Y7856067D01*
X4943652Y7857439D01*
X4930190Y7856981D01*
X4916932Y7854746D01*
X4904028Y7850733D01*
X4891836Y7845094D01*
X4880457Y7837830D01*
X4870145Y7829143D01*
X4861102Y7819136D01*
X4853482Y7808010D01*
X4847437Y7795971D01*
X4843018Y7783271D01*
X4840325Y7770063D01*
X4839411Y7756601D01*
X4840325Y7743139D01*
X4843018Y7729931D01*
X4847437Y7717231D01*
X4853482Y7705191D01*
X4861102Y7694066D01*
X4870145Y7684058D01*
X4880457Y7675372D01*
X4891836Y7668107D01*
X4904028Y7662468D01*
X4916932Y7658455D01*
X4930190Y7656220D01*
G37*
G36*
X4435652Y7655763D02*
G01*
X4449064Y7657134D01*
X4462170Y7660233D01*
X4474768Y7665110D01*
X4486605Y7671562D01*
X4497425Y7679537D01*
X4507128Y7688935D01*
X4515459Y7699502D01*
X4522317Y7711084D01*
X4527600Y7723530D01*
X4531156Y7736484D01*
X4532934Y7749844D01*
X4532934Y7763357D01*
X4531156Y7776718D01*
X4527600Y7789672D01*
X4522317Y7802118D01*
X4515459Y7813700D01*
X4507128Y7824266D01*
X4497425Y7833664D01*
X4486605Y7841640D01*
X4474768Y7848092D01*
X4462170Y7852968D01*
X4449064Y7856067D01*
X4435652Y7857439D01*
X4422190Y7856981D01*
X4408932Y7854746D01*
X4396028Y7850733D01*
X4383836Y7845094D01*
X4372457Y7837830D01*
X4362145Y7829143D01*
X4353102Y7819136D01*
X4345482Y7808010D01*
X4339437Y7795971D01*
X4335018Y7783271D01*
X4332325Y7770063D01*
X4331411Y7756601D01*
X4332325Y7743139D01*
X4335018Y7729931D01*
X4339437Y7717231D01*
X4345482Y7705191D01*
X4353102Y7694066D01*
X4362145Y7684058D01*
X4372457Y7675372D01*
X4383836Y7668107D01*
X4396028Y7662468D01*
X4408932Y7658455D01*
X4422190Y7656220D01*
G37*
G36*
X3673652Y7655763D02*
G01*
X3687064Y7657134D01*
X3700170Y7660233D01*
X3712768Y7665110D01*
X3724605Y7671562D01*
X3735425Y7679537D01*
X3745128Y7688935D01*
X3753459Y7699502D01*
X3760317Y7711084D01*
X3765600Y7723530D01*
X3769156Y7736484D01*
X3770934Y7749844D01*
X3770934Y7763357D01*
X3769156Y7776718D01*
X3765600Y7789672D01*
X3760317Y7802118D01*
X3753459Y7813700D01*
X3745128Y7824266D01*
X3735425Y7833664D01*
X3724605Y7841640D01*
X3712768Y7848092D01*
X3700170Y7852968D01*
X3687064Y7856067D01*
X3673652Y7857439D01*
X3660190Y7856981D01*
X3646932Y7854746D01*
X3634028Y7850733D01*
X3621836Y7845094D01*
X3610457Y7837830D01*
X3600145Y7829143D01*
X3591102Y7819136D01*
X3583482Y7808010D01*
X3577437Y7795971D01*
X3573018Y7783271D01*
X3570325Y7770063D01*
X3569411Y7756601D01*
X3570325Y7743139D01*
X3573018Y7729931D01*
X3577437Y7717231D01*
X3583482Y7705191D01*
X3591102Y7694066D01*
X3600145Y7684058D01*
X3610457Y7675372D01*
X3621836Y7668107D01*
X3634028Y7662468D01*
X3646932Y7658455D01*
X3660190Y7656220D01*
G37*
G36*
X1736496Y8914993D02*
G01*
X1750110Y8915450D01*
X1763572Y8917686D01*
X1776577Y8921750D01*
X1788972Y8927490D01*
X1800453Y8934805D01*
X1810867Y8943644D01*
X1820011Y8953754D01*
X1827733Y8964980D01*
X1833880Y8977172D01*
X1838350Y8990025D01*
X1841093Y9003385D01*
X1842007Y9017000D01*
X1841093Y9030614D01*
X1838350Y9043974D01*
X1833880Y9056878D01*
X1827733Y9069019D01*
X1820011Y9080296D01*
X1810867Y9090406D01*
X1800453Y9099194D01*
X1788972Y9106509D01*
X1776577Y9112250D01*
X1763572Y9116314D01*
X1750110Y9118600D01*
X1736496Y9119057D01*
X1722932Y9117685D01*
X1709674Y9114485D01*
X1696923Y9109608D01*
X1684985Y9103055D01*
X1674012Y9094978D01*
X1664207Y9085478D01*
X1655724Y9074759D01*
X1648815Y9063024D01*
X1643481Y9050477D01*
X1639874Y9037320D01*
X1638046Y9023807D01*
X1638046Y9010192D01*
X1639874Y8996680D01*
X1643481Y8983522D01*
X1648815Y8970975D01*
X1655724Y8959240D01*
X1664207Y8948521D01*
X1674012Y8939022D01*
X1684985Y8930944D01*
X1696923Y8924391D01*
X1709674Y8919514D01*
X1722932Y8916365D01*
G37*
G36*
X1187450Y8925204D02*
G01*
X1187450Y8972550D01*
X1140104Y8972550D01*
X1140815Y8970975D01*
X1147724Y8959240D01*
X1156208Y8948521D01*
X1166012Y8939022D01*
X1176985Y8930944D01*
G37*
G36*
X1276350Y8925356D02*
G01*
X1280972Y8927490D01*
X1292453Y8934805D01*
X1302867Y8943644D01*
X1312011Y8953754D01*
X1319733Y8964980D01*
X1323594Y8972550D01*
X1276350Y8972550D01*
G37*
G36*
X1276350Y9061450D02*
G01*
X1323594Y9061450D01*
X1319733Y9069019D01*
X1312011Y9080296D01*
X1302867Y9090406D01*
X1292453Y9099194D01*
X1280972Y9106509D01*
X1276350Y9108643D01*
G37*
G36*
X1140104Y9061450D02*
G01*
X1187450Y9061450D01*
X1187450Y9108795D01*
X1176985Y9103055D01*
X1166012Y9094978D01*
X1156208Y9085478D01*
X1147724Y9074759D01*
X1140815Y9063024D01*
G37*
G36*
X10805515Y11020907D02*
G01*
X10820044Y11020907D01*
X10834522Y11022736D01*
X10848594Y11026394D01*
X10862157Y11031728D01*
X10874908Y11038738D01*
X10886694Y11047323D01*
X10897311Y11057280D01*
X10906556Y11068507D01*
X10914380Y11080800D01*
X10920577Y11093958D01*
X10925048Y11107775D01*
X10927283Y11119307D01*
X10928756Y11122964D01*
X10931550Y11125809D01*
X10935258Y11127333D01*
X10939221Y11127333D01*
X10942929Y11125809D01*
X10945723Y11122964D01*
X10947196Y11119307D01*
X10949432Y11107775D01*
X10953902Y11093958D01*
X10960100Y11080800D01*
X10967923Y11068507D01*
X10977168Y11057280D01*
X10987786Y11047323D01*
X10999571Y11038738D01*
X11012322Y11031728D01*
X11025886Y11026394D01*
X11039957Y11022736D01*
X11054435Y11020907D01*
X11068964Y11020907D01*
X11083442Y11022736D01*
X11097514Y11026394D01*
X11111077Y11031728D01*
X11123828Y11038738D01*
X11135614Y11047323D01*
X11146231Y11057280D01*
X11155476Y11068507D01*
X11163300Y11080800D01*
X11169497Y11093958D01*
X11173968Y11107775D01*
X11176203Y11119307D01*
X11177676Y11122964D01*
X11180470Y11125809D01*
X11184178Y11127333D01*
X11188141Y11127333D01*
X11191849Y11125809D01*
X11194643Y11122964D01*
X11196116Y11119307D01*
X11198352Y11107775D01*
X11202822Y11093958D01*
X11209020Y11080800D01*
X11216843Y11068507D01*
X11226088Y11057280D01*
X11236706Y11047323D01*
X11248491Y11038738D01*
X11261242Y11031728D01*
X11274806Y11026394D01*
X11288877Y11022736D01*
X11303355Y11020907D01*
X11317884Y11020907D01*
X11332362Y11022736D01*
X11346434Y11026394D01*
X11359997Y11031728D01*
X11372748Y11038738D01*
X11384534Y11047323D01*
X11395151Y11057280D01*
X11404396Y11068507D01*
X11412220Y11080800D01*
X11418417Y11093958D01*
X11422888Y11107775D01*
X11425631Y11122101D01*
X11426545Y11136630D01*
X11425631Y11151158D01*
X11422888Y11165484D01*
X11418417Y11179302D01*
X11412220Y11192459D01*
X11404396Y11204752D01*
X11395151Y11215979D01*
X11384534Y11225936D01*
X11372748Y11234521D01*
X11359997Y11241532D01*
X11346434Y11246866D01*
X11332362Y11250523D01*
X11317884Y11252352D01*
X11303355Y11252352D01*
X11288877Y11250523D01*
X11274806Y11246866D01*
X11261242Y11241532D01*
X11248491Y11234521D01*
X11236706Y11225936D01*
X11226088Y11215979D01*
X11216843Y11204752D01*
X11209020Y11192459D01*
X11202822Y11179302D01*
X11198352Y11165484D01*
X11196116Y11153952D01*
X11194643Y11150295D01*
X11191849Y11147450D01*
X11188141Y11145926D01*
X11184178Y11145926D01*
X11180470Y11147450D01*
X11177676Y11150295D01*
X11176203Y11153952D01*
X11173968Y11165484D01*
X11169497Y11179302D01*
X11163300Y11192459D01*
X11155476Y11204752D01*
X11146231Y11215979D01*
X11135614Y11225936D01*
X11123828Y11234521D01*
X11111077Y11241532D01*
X11097514Y11246866D01*
X11083442Y11250523D01*
X11068964Y11252352D01*
X11054435Y11252352D01*
X11039957Y11250523D01*
X11025886Y11246866D01*
X11012322Y11241532D01*
X10999571Y11234521D01*
X10987786Y11225936D01*
X10977168Y11215979D01*
X10967923Y11204752D01*
X10960100Y11192459D01*
X10953902Y11179302D01*
X10949432Y11165484D01*
X10947196Y11153952D01*
X10945723Y11150295D01*
X10942929Y11147450D01*
X10939221Y11145926D01*
X10935258Y11145926D01*
X10931550Y11147450D01*
X10928756Y11150295D01*
X10927283Y11153952D01*
X10925048Y11165484D01*
X10920577Y11179302D01*
X10914380Y11192459D01*
X10906556Y11204752D01*
X10897311Y11215979D01*
X10886694Y11225936D01*
X10874908Y11234521D01*
X10862157Y11241532D01*
X10848594Y11246866D01*
X10834522Y11250523D01*
X10820044Y11252352D01*
X10805515Y11252352D01*
X10791037Y11250523D01*
X10776966Y11246866D01*
X10763402Y11241532D01*
X10750651Y11234521D01*
X10738866Y11225936D01*
X10728248Y11215979D01*
X10719003Y11204752D01*
X10711180Y11192459D01*
X10704982Y11179302D01*
X10700512Y11165484D01*
X10697768Y11151158D01*
X10696854Y11136630D01*
X10697768Y11122101D01*
X10700512Y11107775D01*
X10704982Y11093958D01*
X10711180Y11080800D01*
X10719003Y11068507D01*
X10728248Y11057280D01*
X10738866Y11047323D01*
X10750651Y11038738D01*
X10763402Y11031728D01*
X10776966Y11026394D01*
X10791037Y11022736D01*
G37*
G36*
X1736496Y11454993D02*
G01*
X1750110Y11455450D01*
X1763572Y11457686D01*
X1776577Y11461750D01*
X1788972Y11467490D01*
X1800453Y11474805D01*
X1810867Y11483594D01*
X1820011Y11493754D01*
X1827733Y11504980D01*
X1833880Y11517122D01*
X1838350Y11530025D01*
X1841093Y11543385D01*
X1842007Y11557000D01*
X1841093Y11570614D01*
X1838350Y11583974D01*
X1833880Y11596878D01*
X1827733Y11609019D01*
X1820011Y11620246D01*
X1810867Y11630406D01*
X1800453Y11639194D01*
X1788972Y11646509D01*
X1776577Y11652250D01*
X1763572Y11656314D01*
X1750110Y11658549D01*
X1736496Y11659006D01*
X1722932Y11657685D01*
X1709674Y11654485D01*
X1696923Y11649608D01*
X1684985Y11643055D01*
X1674012Y11634978D01*
X1664207Y11625478D01*
X1655724Y11614759D01*
X1648815Y11603024D01*
X1643481Y11590477D01*
X1639874Y11577320D01*
X1638046Y11563807D01*
X1638046Y11550192D01*
X1639874Y11536680D01*
X1643481Y11523522D01*
X1648815Y11510975D01*
X1655724Y11499240D01*
X1664207Y11488521D01*
X1674012Y11479022D01*
X1684985Y11470944D01*
X1696923Y11464391D01*
X1709674Y11459514D01*
X1722932Y11456314D01*
G37*
G36*
X1482496Y11454993D02*
G01*
X1496110Y11455450D01*
X1509572Y11457686D01*
X1522577Y11461750D01*
X1534972Y11467490D01*
X1546453Y11474805D01*
X1556867Y11483594D01*
X1566011Y11493754D01*
X1573733Y11504980D01*
X1579880Y11517122D01*
X1584350Y11530025D01*
X1587093Y11543385D01*
X1588008Y11557000D01*
X1587093Y11570614D01*
X1584350Y11583974D01*
X1579880Y11596878D01*
X1573733Y11609019D01*
X1566011Y11620246D01*
X1556867Y11630406D01*
X1546453Y11639194D01*
X1534972Y11646509D01*
X1522577Y11652250D01*
X1509572Y11656314D01*
X1496110Y11658549D01*
X1482496Y11659006D01*
X1468932Y11657685D01*
X1455674Y11654485D01*
X1442923Y11649608D01*
X1430985Y11643055D01*
X1420012Y11634978D01*
X1410208Y11625478D01*
X1401724Y11614759D01*
X1394815Y11603024D01*
X1389481Y11590477D01*
X1385874Y11577320D01*
X1384046Y11563807D01*
X1384046Y11550192D01*
X1385874Y11536680D01*
X1389481Y11523522D01*
X1394815Y11510975D01*
X1401724Y11499240D01*
X1410208Y11488521D01*
X1420012Y11479022D01*
X1430985Y11470944D01*
X1442923Y11464391D01*
X1455674Y11459514D01*
X1468932Y11456314D01*
G37*
G36*
X1228496Y11454993D02*
G01*
X1242110Y11455450D01*
X1255572Y11457686D01*
X1268577Y11461750D01*
X1280972Y11467490D01*
X1292453Y11474805D01*
X1302867Y11483594D01*
X1312011Y11493754D01*
X1319733Y11504980D01*
X1325880Y11517122D01*
X1330350Y11530025D01*
X1333093Y11543385D01*
X1334008Y11557000D01*
X1333093Y11570614D01*
X1330350Y11583974D01*
X1325880Y11596878D01*
X1319733Y11609019D01*
X1312011Y11620246D01*
X1302867Y11630406D01*
X1292453Y11639194D01*
X1280972Y11646509D01*
X1268577Y11652250D01*
X1255572Y11656314D01*
X1242110Y11658549D01*
X1228496Y11659006D01*
X1214932Y11657685D01*
X1201674Y11654485D01*
X1188923Y11649608D01*
X1176985Y11643055D01*
X1166012Y11634978D01*
X1156208Y11625478D01*
X1147724Y11614759D01*
X1140815Y11603024D01*
X1135481Y11590477D01*
X1131874Y11577320D01*
X1130046Y11563807D01*
X1130046Y11550192D01*
X1131874Y11536680D01*
X1135481Y11523522D01*
X1140815Y11510975D01*
X1147724Y11499240D01*
X1156208Y11488521D01*
X1166012Y11479022D01*
X1176985Y11470944D01*
X1188923Y11464391D01*
X1201674Y11459514D01*
X1214932Y11456314D01*
G37*
G36*
X10337342Y11680037D02*
G01*
X10536072Y11680037D01*
X10542422Y11680799D01*
X10547858Y11682679D01*
X10552785Y11685778D01*
X10556849Y11689842D01*
X10559948Y11694769D01*
X10561828Y11700205D01*
X10562539Y11706555D01*
X10562539Y12065304D01*
X10561828Y12071654D01*
X10559948Y12077090D01*
X10556849Y12082018D01*
X10552785Y12086082D01*
X10547858Y12089180D01*
X10542422Y12091060D01*
X10536072Y12091771D01*
X10337342Y12091771D01*
X10330992Y12091060D01*
X10325557Y12089180D01*
X10320629Y12086082D01*
X10316565Y12082018D01*
X10313466Y12077090D01*
X10311536Y12071654D01*
X10310825Y12065304D01*
X10310825Y11706555D01*
X10311536Y11700205D01*
X10313466Y11694769D01*
X10316565Y11689842D01*
X10320629Y11685778D01*
X10325557Y11682679D01*
X10330992Y11680799D01*
G37*
G36*
X11587327Y11680037D02*
G01*
X11786057Y11680037D01*
X11792407Y11680799D01*
X11797842Y11682679D01*
X11802770Y11685778D01*
X11806834Y11689842D01*
X11809933Y11694769D01*
X11811863Y11700205D01*
X11812574Y11706555D01*
X11812574Y12065304D01*
X11811863Y12071654D01*
X11809933Y12077090D01*
X11806834Y12082018D01*
X11802770Y12086082D01*
X11797842Y12089180D01*
X11792407Y12091060D01*
X11786057Y12091771D01*
X11587327Y12091771D01*
X11580977Y12091060D01*
X11575542Y12089180D01*
X11570614Y12086082D01*
X11566550Y12082018D01*
X11563451Y12077090D01*
X11561572Y12071654D01*
X11560860Y12065304D01*
X11560860Y11706555D01*
X11561572Y11700205D01*
X11563451Y11694769D01*
X11566550Y11689842D01*
X11570614Y11685778D01*
X11575542Y11682679D01*
X11580977Y11680799D01*
G37*
G36*
X10805515Y12471247D02*
G01*
X10820044Y12471247D01*
X10834522Y12473076D01*
X10848594Y12476734D01*
X10862157Y12482068D01*
X10874908Y12489078D01*
X10886694Y12497663D01*
X10897311Y12507620D01*
X10906556Y12518847D01*
X10914380Y12531140D01*
X10920577Y12544298D01*
X10925048Y12558115D01*
X10927791Y12572441D01*
X10928705Y12586970D01*
X10927791Y12601498D01*
X10925048Y12615824D01*
X10920577Y12629642D01*
X10914380Y12642799D01*
X10906556Y12655092D01*
X10897311Y12666319D01*
X10886694Y12676276D01*
X10874908Y12684861D01*
X10862157Y12691872D01*
X10848594Y12697206D01*
X10834522Y12700863D01*
X10820044Y12702692D01*
X10805515Y12702692D01*
X10791037Y12700863D01*
X10776966Y12697206D01*
X10763402Y12691872D01*
X10750651Y12684861D01*
X10738866Y12676276D01*
X10728248Y12666319D01*
X10719003Y12655092D01*
X10711180Y12642799D01*
X10704982Y12629642D01*
X10700512Y12615824D01*
X10697768Y12601498D01*
X10696854Y12586970D01*
X10697768Y12572441D01*
X10700512Y12558115D01*
X10704982Y12544298D01*
X10711180Y12531140D01*
X10719003Y12518847D01*
X10728248Y12507620D01*
X10738866Y12497663D01*
X10750651Y12489078D01*
X10763402Y12482068D01*
X10776966Y12476734D01*
X10791037Y12473076D01*
G37*
G36*
X11303355Y12471247D02*
G01*
X11317884Y12471247D01*
X11332362Y12473076D01*
X11346434Y12476734D01*
X11359997Y12482068D01*
X11372748Y12489078D01*
X11384534Y12497663D01*
X11395151Y12507620D01*
X11404396Y12518847D01*
X11412220Y12531140D01*
X11418417Y12544298D01*
X11422888Y12558115D01*
X11425631Y12572441D01*
X11426545Y12586970D01*
X11425631Y12601498D01*
X11422888Y12615824D01*
X11418417Y12629642D01*
X11412220Y12642799D01*
X11404396Y12655092D01*
X11395151Y12666319D01*
X11384534Y12676276D01*
X11372748Y12684861D01*
X11359997Y12691872D01*
X11346434Y12697206D01*
X11332362Y12700863D01*
X11317884Y12702692D01*
X11303355Y12702692D01*
X11288877Y12700863D01*
X11274806Y12697206D01*
X11261242Y12691872D01*
X11248491Y12684861D01*
X11236706Y12676276D01*
X11226088Y12666319D01*
X11216843Y12655092D01*
X11209020Y12642799D01*
X11202822Y12629642D01*
X11198352Y12615824D01*
X11195608Y12601498D01*
X11194694Y12586970D01*
X11195608Y12572441D01*
X11198352Y12558115D01*
X11202822Y12544298D01*
X11209020Y12531140D01*
X11216843Y12518847D01*
X11226088Y12507620D01*
X11236706Y12497663D01*
X11248491Y12489078D01*
X11261242Y12482068D01*
X11274806Y12476734D01*
X11288877Y12473076D01*
G37*
G36*
X6643878Y12481712D02*
G01*
X6792722Y12481712D01*
X6799072Y12482423D01*
X6804507Y12484303D01*
X6809435Y12487402D01*
X6813499Y12491466D01*
X6816598Y12496393D01*
X6818477Y12501829D01*
X6819188Y12508179D01*
X6819188Y12657023D01*
X6818477Y12663373D01*
X6816598Y12668808D01*
X6813499Y12673736D01*
X6809435Y12677800D01*
X6804507Y12680899D01*
X6799072Y12682778D01*
X6792722Y12683490D01*
X6643878Y12683490D01*
X6637528Y12682778D01*
X6632092Y12680899D01*
X6627164Y12677800D01*
X6623100Y12673736D01*
X6620002Y12668808D01*
X6618122Y12663373D01*
X6617411Y12657023D01*
X6617411Y12508179D01*
X6618122Y12501829D01*
X6620002Y12496393D01*
X6623100Y12491466D01*
X6627164Y12487402D01*
X6632092Y12484303D01*
X6637528Y12482423D01*
G37*
G36*
X4865878Y12481712D02*
G01*
X5014722Y12481712D01*
X5021072Y12482423D01*
X5026507Y12484303D01*
X5031435Y12487402D01*
X5035499Y12491466D01*
X5038598Y12496393D01*
X5040477Y12501829D01*
X5041188Y12508179D01*
X5041188Y12657023D01*
X5040477Y12663373D01*
X5038598Y12668808D01*
X5035499Y12673736D01*
X5031435Y12677800D01*
X5026507Y12680899D01*
X5021072Y12682778D01*
X5014722Y12683490D01*
X4865878Y12683490D01*
X4859528Y12682778D01*
X4854092Y12680899D01*
X4849164Y12677800D01*
X4845100Y12673736D01*
X4842002Y12668808D01*
X4840122Y12663373D01*
X4839411Y12657023D01*
X4839411Y12508179D01*
X4840122Y12501829D01*
X4842002Y12496393D01*
X4845100Y12491466D01*
X4849164Y12487402D01*
X4854092Y12484303D01*
X4859528Y12482423D01*
G37*
G36*
X3927652Y12481763D02*
G01*
X3941064Y12483134D01*
X3954170Y12486233D01*
X3966768Y12491110D01*
X3978605Y12497562D01*
X3989425Y12505537D01*
X3999128Y12514935D01*
X4007459Y12525502D01*
X4014317Y12537084D01*
X4019600Y12549530D01*
X4023156Y12562484D01*
X4024934Y12575844D01*
X4024934Y12589357D01*
X4023156Y12602718D01*
X4019600Y12615672D01*
X4014317Y12628118D01*
X4007459Y12639700D01*
X3999128Y12650266D01*
X3989425Y12659664D01*
X3978605Y12667640D01*
X3966768Y12674092D01*
X3954170Y12678968D01*
X3941064Y12682067D01*
X3927652Y12683439D01*
X3914190Y12682982D01*
X3900932Y12680746D01*
X3888028Y12676733D01*
X3875836Y12671094D01*
X3864457Y12663830D01*
X3854145Y12655143D01*
X3845102Y12645136D01*
X3837482Y12634010D01*
X3831437Y12621971D01*
X3827018Y12609271D01*
X3824325Y12596063D01*
X3823411Y12582601D01*
X3824325Y12569139D01*
X3827018Y12555931D01*
X3831437Y12543231D01*
X3837482Y12531191D01*
X3845102Y12520066D01*
X3854145Y12510058D01*
X3864457Y12501372D01*
X3875836Y12494107D01*
X3888028Y12488468D01*
X3900932Y12484455D01*
X3914190Y12482220D01*
G37*
G36*
X4689652Y12481763D02*
G01*
X4703064Y12483134D01*
X4716170Y12486233D01*
X4728768Y12491110D01*
X4740605Y12497562D01*
X4751425Y12505537D01*
X4761128Y12514935D01*
X4769459Y12525502D01*
X4776317Y12537084D01*
X4781600Y12549530D01*
X4785156Y12562484D01*
X4786934Y12575844D01*
X4786934Y12589357D01*
X4785156Y12602718D01*
X4781600Y12615672D01*
X4776317Y12628118D01*
X4769459Y12639700D01*
X4761128Y12650266D01*
X4751425Y12659664D01*
X4740605Y12667640D01*
X4728768Y12674092D01*
X4716170Y12678968D01*
X4703064Y12682067D01*
X4689652Y12683439D01*
X4676190Y12682982D01*
X4662932Y12680746D01*
X4650028Y12676733D01*
X4637836Y12671094D01*
X4626457Y12663830D01*
X4616145Y12655143D01*
X4607102Y12645136D01*
X4599482Y12634010D01*
X4593437Y12621971D01*
X4589018Y12609271D01*
X4586325Y12596063D01*
X4585411Y12582601D01*
X4586325Y12569139D01*
X4589018Y12555931D01*
X4593437Y12543231D01*
X4599482Y12531191D01*
X4607102Y12520066D01*
X4616145Y12510058D01*
X4626457Y12501372D01*
X4637836Y12494107D01*
X4650028Y12488468D01*
X4662932Y12484455D01*
X4676190Y12482220D01*
G37*
G36*
X4435652Y12481763D02*
G01*
X4449064Y12483134D01*
X4462170Y12486233D01*
X4474768Y12491110D01*
X4486605Y12497562D01*
X4497425Y12505537D01*
X4507128Y12514935D01*
X4515459Y12525502D01*
X4522317Y12537084D01*
X4527600Y12549530D01*
X4531156Y12562484D01*
X4532934Y12575844D01*
X4532934Y12589357D01*
X4531156Y12602718D01*
X4527600Y12615672D01*
X4522317Y12628118D01*
X4515459Y12639700D01*
X4507128Y12650266D01*
X4497425Y12659664D01*
X4486605Y12667640D01*
X4474768Y12674092D01*
X4462170Y12678968D01*
X4449064Y12682067D01*
X4435652Y12683439D01*
X4422190Y12682982D01*
X4408932Y12680746D01*
X4396028Y12676733D01*
X4383836Y12671094D01*
X4372457Y12663830D01*
X4362145Y12655143D01*
X4353102Y12645136D01*
X4345482Y12634010D01*
X4339437Y12621971D01*
X4335018Y12609271D01*
X4332325Y12596063D01*
X4331411Y12582601D01*
X4332325Y12569139D01*
X4335018Y12555931D01*
X4339437Y12543231D01*
X4345482Y12531191D01*
X4353102Y12520066D01*
X4362145Y12510058D01*
X4372457Y12501372D01*
X4383836Y12494107D01*
X4396028Y12488468D01*
X4408932Y12484455D01*
X4422190Y12482220D01*
G37*
G36*
X5451652Y12481763D02*
G01*
X5465064Y12483134D01*
X5478170Y12486233D01*
X5490768Y12491110D01*
X5502605Y12497562D01*
X5513425Y12505537D01*
X5523128Y12514935D01*
X5531459Y12525502D01*
X5538317Y12537084D01*
X5543600Y12549530D01*
X5547156Y12562484D01*
X5548934Y12575844D01*
X5548934Y12589357D01*
X5547156Y12602718D01*
X5543600Y12615672D01*
X5538317Y12628118D01*
X5531459Y12639700D01*
X5523128Y12650266D01*
X5513425Y12659664D01*
X5502605Y12667640D01*
X5490768Y12674092D01*
X5478170Y12678968D01*
X5465064Y12682067D01*
X5451652Y12683439D01*
X5438190Y12682982D01*
X5424932Y12680746D01*
X5412028Y12676733D01*
X5399836Y12671094D01*
X5388457Y12663830D01*
X5378145Y12655143D01*
X5369102Y12645136D01*
X5361482Y12634010D01*
X5355437Y12621971D01*
X5351018Y12609271D01*
X5348325Y12596063D01*
X5347411Y12582601D01*
X5348325Y12569139D01*
X5351018Y12555931D01*
X5355437Y12543231D01*
X5361482Y12531191D01*
X5369102Y12520066D01*
X5378145Y12510058D01*
X5388457Y12501372D01*
X5399836Y12494107D01*
X5412028Y12488468D01*
X5424932Y12484455D01*
X5438190Y12482220D01*
G37*
G36*
X6467652Y12481763D02*
G01*
X6481064Y12483134D01*
X6494170Y12486233D01*
X6506768Y12491110D01*
X6518605Y12497562D01*
X6529425Y12505537D01*
X6539128Y12514935D01*
X6547459Y12525502D01*
X6554317Y12537084D01*
X6559600Y12549530D01*
X6563156Y12562484D01*
X6564934Y12575844D01*
X6564934Y12589357D01*
X6563156Y12602718D01*
X6559600Y12615672D01*
X6554317Y12628118D01*
X6547459Y12639700D01*
X6539128Y12650266D01*
X6529425Y12659664D01*
X6518605Y12667640D01*
X6506768Y12674092D01*
X6494170Y12678968D01*
X6481064Y12682067D01*
X6467652Y12683439D01*
X6454190Y12682982D01*
X6440932Y12680746D01*
X6428028Y12676733D01*
X6415836Y12671094D01*
X6404457Y12663830D01*
X6394145Y12655143D01*
X6385102Y12645136D01*
X6377482Y12634010D01*
X6371437Y12621971D01*
X6367018Y12609271D01*
X6364325Y12596063D01*
X6363411Y12582601D01*
X6364325Y12569139D01*
X6367018Y12555931D01*
X6371437Y12543231D01*
X6377482Y12531191D01*
X6385102Y12520066D01*
X6394145Y12510058D01*
X6404457Y12501372D01*
X6415836Y12494107D01*
X6428028Y12488468D01*
X6440932Y12484455D01*
X6454190Y12482220D01*
G37*
G36*
X3673652Y12481763D02*
G01*
X3687064Y12483134D01*
X3700170Y12486233D01*
X3712768Y12491110D01*
X3724605Y12497562D01*
X3735425Y12505537D01*
X3745128Y12514935D01*
X3753459Y12525502D01*
X3760317Y12537084D01*
X3765600Y12549530D01*
X3769156Y12562484D01*
X3770934Y12575844D01*
X3770934Y12589357D01*
X3769156Y12602718D01*
X3765600Y12615672D01*
X3760317Y12628118D01*
X3753459Y12639700D01*
X3745128Y12650266D01*
X3735425Y12659664D01*
X3724605Y12667640D01*
X3712768Y12674092D01*
X3700170Y12678968D01*
X3687064Y12682067D01*
X3673652Y12683439D01*
X3660190Y12682982D01*
X3646932Y12680746D01*
X3634028Y12676733D01*
X3621836Y12671094D01*
X3610457Y12663830D01*
X3600145Y12655143D01*
X3591102Y12645136D01*
X3583482Y12634010D01*
X3577437Y12621971D01*
X3573018Y12609271D01*
X3570325Y12596063D01*
X3569411Y12582601D01*
X3570325Y12569139D01*
X3573018Y12555931D01*
X3577437Y12543231D01*
X3583482Y12531191D01*
X3591102Y12520066D01*
X3600145Y12510058D01*
X3610457Y12501372D01*
X3621836Y12494107D01*
X3634028Y12488468D01*
X3646932Y12484455D01*
X3660190Y12482220D01*
G37*
G36*
X4181652Y12481763D02*
G01*
X4195064Y12483134D01*
X4208170Y12486233D01*
X4220768Y12491110D01*
X4232605Y12497562D01*
X4243425Y12505537D01*
X4253128Y12514935D01*
X4261459Y12525502D01*
X4268317Y12537084D01*
X4273600Y12549530D01*
X4277156Y12562484D01*
X4278934Y12575844D01*
X4278934Y12589357D01*
X4277156Y12602718D01*
X4273600Y12615672D01*
X4268317Y12628118D01*
X4261459Y12639700D01*
X4253128Y12650266D01*
X4243425Y12659664D01*
X4232605Y12667640D01*
X4220768Y12674092D01*
X4208170Y12678968D01*
X4195064Y12682067D01*
X4181652Y12683439D01*
X4168190Y12682982D01*
X4154932Y12680746D01*
X4142028Y12676733D01*
X4129836Y12671094D01*
X4118457Y12663830D01*
X4108145Y12655143D01*
X4099102Y12645136D01*
X4091482Y12634010D01*
X4085437Y12621971D01*
X4081018Y12609271D01*
X4078325Y12596063D01*
X4077411Y12582601D01*
X4078325Y12569139D01*
X4081018Y12555931D01*
X4085437Y12543231D01*
X4091482Y12531191D01*
X4099102Y12520066D01*
X4108145Y12510058D01*
X4118457Y12501372D01*
X4129836Y12494107D01*
X4142028Y12488468D01*
X4154932Y12484455D01*
X4168190Y12482220D01*
G37*
G36*
X6000140Y12491872D02*
G01*
X6010605Y12497562D01*
X6021425Y12505537D01*
X6031128Y12514935D01*
X6039459Y12525502D01*
X6046317Y12537084D01*
X6047028Y12538760D01*
X6000140Y12538760D01*
G37*
G36*
X5746140Y12491872D02*
G01*
X5756605Y12497562D01*
X5767425Y12505537D01*
X5777128Y12514935D01*
X5785459Y12525502D01*
X5792317Y12537084D01*
X5793028Y12538760D01*
X5746140Y12538760D01*
G37*
G36*
X5658459Y12491974D02*
G01*
X5658459Y12538760D01*
X5611672Y12538760D01*
X5615482Y12531191D01*
X5623102Y12520066D01*
X5632145Y12510058D01*
X5642457Y12501372D01*
X5653836Y12494107D01*
G37*
G36*
X5912459Y12491974D02*
G01*
X5912459Y12538760D01*
X5865672Y12538760D01*
X5869482Y12531191D01*
X5877102Y12520066D01*
X5886145Y12510058D01*
X5896457Y12501372D01*
X5907836Y12494107D01*
G37*
G36*
X5611672Y12626441D02*
G01*
X5658459Y12626441D01*
X5658459Y12673228D01*
X5653836Y12671094D01*
X5642457Y12663830D01*
X5632145Y12655143D01*
X5623102Y12645136D01*
X5615482Y12634010D01*
G37*
G36*
X5865672Y12626441D02*
G01*
X5912459Y12626441D01*
X5912459Y12673228D01*
X5907836Y12671094D01*
X5896457Y12663830D01*
X5886145Y12655143D01*
X5877102Y12645136D01*
X5869482Y12634010D01*
G37*
G36*
X6000140Y12626441D02*
G01*
X6047028Y12626441D01*
X6046317Y12628118D01*
X6039459Y12639700D01*
X6031128Y12650266D01*
X6021425Y12659664D01*
X6010605Y12667640D01*
X6000140Y12673330D01*
G37*
G36*
X5746140Y12626441D02*
G01*
X5793028Y12626441D01*
X5792317Y12628118D01*
X5785459Y12639700D01*
X5777128Y12650266D01*
X5767425Y12659664D01*
X5756605Y12667640D01*
X5746140Y12673330D01*
G37*
G36*
X12090400Y12663017D02*
G01*
X12105589Y12663932D01*
X12120524Y12666675D01*
X12135053Y12671196D01*
X12148921Y12677444D01*
X12161926Y12685318D01*
X12173864Y12694666D01*
X12184634Y12705435D01*
X12193981Y12717373D01*
X12201855Y12730378D01*
X12208103Y12744246D01*
X12212624Y12758775D01*
X12215368Y12773710D01*
X12216282Y12788900D01*
X12215368Y12804089D01*
X12212624Y12819024D01*
X12208103Y12833553D01*
X12201855Y12847421D01*
X12193981Y12860426D01*
X12184634Y12872364D01*
X12173864Y12883134D01*
X12161926Y12892481D01*
X12148921Y12900355D01*
X12135053Y12906603D01*
X12120524Y12911124D01*
X12105589Y12913868D01*
X12090400Y12914782D01*
X12075210Y12913868D01*
X12060275Y12911124D01*
X12045746Y12906603D01*
X12031878Y12900355D01*
X12018873Y12892481D01*
X12006935Y12883134D01*
X11996166Y12872364D01*
X11986818Y12860426D01*
X11978944Y12847421D01*
X11972696Y12833553D01*
X11968175Y12819024D01*
X11965432Y12804089D01*
X11964517Y12788900D01*
X11965432Y12773710D01*
X11968175Y12758775D01*
X11972696Y12744246D01*
X11978944Y12730378D01*
X11986818Y12717373D01*
X11996166Y12705435D01*
X12006935Y12694666D01*
X12018873Y12685318D01*
X12031878Y12677444D01*
X12045746Y12671196D01*
X12060275Y12666675D01*
X12075210Y12663932D01*
G37*
G36*
X10007600Y12663017D02*
G01*
X10022789Y12663932D01*
X10037724Y12666675D01*
X10052253Y12671196D01*
X10066121Y12677444D01*
X10079126Y12685318D01*
X10091064Y12694666D01*
X10101834Y12705435D01*
X10111181Y12717373D01*
X10119055Y12730378D01*
X10125303Y12744246D01*
X10129824Y12758775D01*
X10132568Y12773710D01*
X10133482Y12788900D01*
X10132568Y12804089D01*
X10129824Y12819024D01*
X10125303Y12833553D01*
X10119055Y12847421D01*
X10111181Y12860426D01*
X10101834Y12872364D01*
X10091064Y12883134D01*
X10079126Y12892481D01*
X10066121Y12900355D01*
X10052253Y12906603D01*
X10037724Y12911124D01*
X10022789Y12913868D01*
X10007600Y12914782D01*
X9992410Y12913868D01*
X9977475Y12911124D01*
X9962946Y12906603D01*
X9949078Y12900355D01*
X9936073Y12892481D01*
X9924135Y12883134D01*
X9913366Y12872364D01*
X9904018Y12860426D01*
X9896144Y12847421D01*
X9889896Y12833553D01*
X9885375Y12819024D01*
X9882632Y12804089D01*
X9881717Y12788900D01*
X9882632Y12773710D01*
X9885375Y12758775D01*
X9889896Y12744246D01*
X9896144Y12730378D01*
X9904018Y12717373D01*
X9913366Y12705435D01*
X9924135Y12694666D01*
X9936073Y12685318D01*
X9949078Y12677444D01*
X9962946Y12671196D01*
X9977475Y12666675D01*
X9992410Y12663932D01*
G37*

%LPD*%
D10*
X5956300Y12582601D02*
G01*
X5702300Y12582601D01*
X6210300Y12582601D02*
G01*
X5422011Y11794312D01*
X2318765Y11794312D01*
X2120925Y11596471D01*
X2120925Y9652000D01*
X1485925Y9017000D01*
X2247900Y11557000D02*
G01*
X3432809Y10372089D01*
X5477078Y10372089D01*
X11430000Y10045700D02*
G01*
X11307063Y9922763D01*
X11140617Y9922763D01*
X11049000Y10014381D01*
X11049000Y10084968D01*
X10982477Y10151490D01*
X5939409Y10151490D01*
X4533900Y11557000D01*
X5041900Y11557000D02*
G01*
X6363868Y10235031D01*
X10986668Y10235031D01*
X11176000Y10045700D01*
X7124700Y7756601D02*
G01*
X6895338Y7527239D01*
X3483686Y7527239D01*
X1993925Y9017000D01*
X6870700Y7756601D02*
G01*
X6700570Y7586471D01*
X5420791Y7586471D01*
X5337327Y7669936D01*
X5337327Y7765973D01*
X5131282Y7972018D01*
X3292881Y7972018D01*
X2247900Y9017000D01*
X6616700Y7756601D02*
G01*
X5518708Y8854592D01*
X3251403Y8854592D01*
X3153511Y8952484D01*
X3153511Y9034094D01*
X3054121Y9133484D01*
X2618384Y9133484D01*
X2501900Y9017000D01*
X6362700Y7756601D02*
G01*
X6245758Y7639659D01*
X5806287Y7639659D01*
X5307431Y8138515D01*
X3634384Y8138515D01*
X2755900Y9017000D01*
X10922000Y10045700D02*
G01*
X9893300Y9017000D01*
X6565900Y9017000D01*
D11*
G01*
X10812779Y11136629D03*
G01*
X11061700Y11136629D03*
G01*
X11310620Y11136629D03*
G01*
X11310620Y12586970D03*
G01*
X10812779Y12586970D03*
D12*
G01*
X10436707Y11885929D03*
G01*
X11686692Y11885929D03*
D13*
G01*
X6565900Y9017000D03*
G01*
X6311900Y9017000D03*
G01*
X6057900Y9017000D03*
G01*
X5803900Y9017000D03*
G01*
X5549900Y9017000D03*
G01*
X5295900Y9017000D03*
G01*
X5041900Y9017000D03*
G01*
X4787900Y9017000D03*
G01*
X4533900Y9017000D03*
G01*
X4279900Y9017000D03*
G01*
X4025900Y9017000D03*
G01*
X3771900Y9017000D03*
G01*
X3517900Y9017000D03*
G01*
X3263900Y9017000D03*
G01*
X3009900Y9017000D03*
G01*
X2755900Y9017000D03*
G01*
X2501900Y9017000D03*
G01*
X2247900Y9017000D03*
G01*
X1993925Y9017000D03*
G01*
X6565671Y11557000D03*
G01*
X6311900Y11557000D03*
G01*
X6057900Y11557000D03*
G01*
X5803900Y11557000D03*
G01*
X5549900Y11557000D03*
G01*
X5295900Y11557000D03*
G01*
X5041900Y11557000D03*
G01*
X4787900Y11557000D03*
G01*
X4533900Y11557000D03*
G01*
X4279900Y11557000D03*
G01*
X4025900Y11557000D03*
G01*
X3771900Y11557000D03*
G01*
X3517900Y11557000D03*
G01*
X3263900Y11557000D03*
G01*
X3009900Y11557000D03*
G01*
X2755900Y11557000D03*
G01*
X2501900Y11557000D03*
G01*
X2247900Y11557000D03*
G01*
X1993925Y11557000D03*
D14*
G01*
X1739925Y11557000D03*
G01*
X1485925Y11557000D03*
G01*
X1231925Y11557000D03*
G01*
X1739925Y9017000D03*
G01*
X1485925Y9017000D03*
G01*
X1231925Y9017000D03*
D15*
G01*
X10668000Y10045700D03*
D16*
G01*
X10922000Y10045700D03*
G01*
X11176000Y10045700D03*
G01*
X11430000Y10045700D03*
D17*
G01*
X7632700Y7756601D03*
D18*
G01*
X7378700Y7756601D03*
G01*
X7124700Y7756601D03*
G01*
X6870700Y7756601D03*
G01*
X6616700Y7756601D03*
G01*
X6362700Y7756601D03*
G01*
X6108700Y7756601D03*
G01*
X5854700Y7756601D03*
D17*
G01*
X5448300Y7756601D03*
D18*
G01*
X5194300Y7756601D03*
G01*
X4940300Y7756601D03*
G01*
X4686300Y7756601D03*
G01*
X4432300Y7756601D03*
G01*
X4178300Y7756601D03*
G01*
X3924300Y7756601D03*
G01*
X3670300Y7756601D03*
G01*
X3670300Y12582601D03*
G01*
X3924300Y12582601D03*
G01*
X4178300Y12582601D03*
G01*
X4432300Y12582601D03*
G01*
X4686300Y12582601D03*
D17*
G01*
X4940300Y12582601D03*
D18*
G01*
X5448300Y12582601D03*
G01*
X5702300Y12582601D03*
G01*
X5956300Y12582601D03*
G01*
X6210300Y12582601D03*
G01*
X6464300Y12582601D03*
D17*
G01*
X6718300Y12582601D03*
D19*
G01*
X5477078Y10372089D03*
M02*
