G04 Layer: TopSolderMaskLayer*
G04 EasyEDA v6.5.44, 2024-08-15 16:42:12*
G04 206e0cd2ca1848caba6ec3024fd8e249,080bb0d1436b4706b040d70de8f1a738,10*
G04 Gerber Generator version 0.2*
G04 Scale: 100 percent, Rotated: No, Reflected: No *
G04 Dimensions in millimeters *
G04 leading zeros omitted , absolute positions ,4 integer and 5 decimal *
%FSLAX45Y45*%
%MOMM*%

%AMMACRO1*4,1,8,-1.0416,-1.9012,-1.1011,-1.8417,-1.1011,1.8417,-1.0416,1.9012,1.0416,1.9012,1.1011,1.8417,1.1011,-1.8417,1.0416,-1.9012,-1.0416,-1.9012,0*%
%AMMACRO2*4,1,8,-0.7751,-0.8048,-0.8048,-0.775,-0.8048,0.7751,-0.7751,0.8048,0.775,0.8048,0.8048,0.7751,0.8048,-0.775,0.775,-0.8048,-0.7751,-0.8048,0*%
%AMMACRO3*4,1,8,-0.7711,-0.8008,-0.8008,-0.771,-0.8008,0.771,-0.7711,0.8008,0.771,0.8008,0.8008,0.771,0.8008,-0.771,0.771,-0.8008,-0.7711,-0.8008,0*%
%AMMACRO4*4,1,8,-0.7711,-0.8008,-0.8008,-0.771,-0.8008,0.7711,-0.7711,0.8008,0.771,0.8008,0.8008,0.7711,0.8008,-0.771,0.771,-0.8008,-0.7711,-0.8008,0*%
%ADD10C,2.0041*%
%ADD11MACRO1*%
%ADD12C,1.7016*%
%ADD13C,1.6256*%
%ADD14MACRO2*%
%ADD15C,1.6096*%
%ADD16MACRO3*%
%ADD17C,1.6016*%
%ADD18MACRO4*%

%LPD*%
D10*
G01*
X10812779Y11136629D03*
G01*
X11061700Y11136629D03*
G01*
X11310620Y11136629D03*
G01*
X11310620Y12586970D03*
G01*
X10812779Y12586970D03*
D11*
G01*
X10436699Y11885930D03*
G01*
X11686700Y11885930D03*
D12*
G01*
X6565900Y9017000D03*
G01*
X6311900Y9017000D03*
G01*
X6057900Y9017000D03*
G01*
X5803900Y9017000D03*
G01*
X5549900Y9017000D03*
G01*
X5295900Y9017000D03*
G01*
X5041900Y9017000D03*
G01*
X4787900Y9017000D03*
G01*
X4533900Y9017000D03*
G01*
X4279900Y9017000D03*
G01*
X4025900Y9017000D03*
G01*
X3771900Y9017000D03*
G01*
X3517900Y9017000D03*
G01*
X3263900Y9017000D03*
G01*
X3009900Y9017000D03*
G01*
X2755900Y9017000D03*
G01*
X2501900Y9017000D03*
G01*
X2247900Y9017000D03*
G01*
X1993925Y9017000D03*
G01*
X6565671Y11557000D03*
G01*
X6311900Y11557000D03*
G01*
X6057900Y11557000D03*
G01*
X5803900Y11557000D03*
G01*
X5549900Y11557000D03*
G01*
X5295900Y11557000D03*
G01*
X5041900Y11557000D03*
G01*
X4787900Y11557000D03*
G01*
X4533900Y11557000D03*
G01*
X4279900Y11557000D03*
G01*
X4025900Y11557000D03*
G01*
X3771900Y11557000D03*
G01*
X3517900Y11557000D03*
G01*
X3263900Y11557000D03*
G01*
X3009900Y11557000D03*
G01*
X2755900Y11557000D03*
G01*
X2501900Y11557000D03*
G01*
X2247900Y11557000D03*
G01*
X1993925Y11557000D03*
D13*
G01*
X1739925Y11557000D03*
G01*
X1485925Y11557000D03*
G01*
X1231925Y11557000D03*
G01*
X1739925Y9017000D03*
G01*
X1485925Y9017000D03*
G01*
X1231925Y9017000D03*
D14*
G01*
X10668000Y10045700D03*
D15*
G01*
X10922000Y10045700D03*
G01*
X11176000Y10045700D03*
G01*
X11430000Y10045700D03*
D16*
G01*
X8013698Y7747000D03*
D17*
G01*
X7759700Y7747000D03*
G01*
X7505700Y7747000D03*
G01*
X7251700Y7747000D03*
G01*
X6997700Y7747000D03*
G01*
X6743700Y7747000D03*
G01*
X6489700Y7747000D03*
G01*
X6235700Y7747000D03*
D16*
G01*
X5829298Y7747000D03*
D17*
G01*
X5575300Y7747000D03*
G01*
X5321300Y7747000D03*
G01*
X5067300Y7747000D03*
G01*
X4813300Y7747000D03*
G01*
X4559300Y7747000D03*
G01*
X4305300Y7747000D03*
G01*
X4051300Y7747000D03*
G01*
X4051300Y12573000D03*
G01*
X4305300Y12573000D03*
G01*
X4559300Y12573000D03*
G01*
X4813300Y12573000D03*
G01*
X5067300Y12573000D03*
D18*
G01*
X5321298Y12573001D03*
D17*
G01*
X5829300Y12573000D03*
G01*
X6083300Y12573000D03*
G01*
X6337300Y12573000D03*
G01*
X6591300Y12573000D03*
G01*
X6845300Y12573000D03*
D18*
G01*
X7099298Y12573001D03*
M02*
