G04 Layer: BottomSilkscreenLayer*
G04 EasyEDA v6.5.44, 2024-08-15 17:23:09*
G04 7abea32b098748a4bef1607296f4ba81,080bb0d1436b4706b040d70de8f1a738,10*
G04 Gerber Generator version 0.2*
G04 Scale: 100 percent, Rotated: No, Reflected: No *
G04 Dimensions in millimeters *
G04 leading zeros omitted , absolute positions ,4 integer and 5 decimal *
%FSLAX45Y45*%
%MOMM*%

%ADD10C,0.2032*%
%ADD11C,0.5000*%
%ADD12C,0.2540*%

%LPD*%
G36*
X6217615Y11464899D02*
G01*
X6217615Y11460937D01*
X6222644Y11457838D01*
X6353708Y11458397D01*
X6357823Y11460937D01*
X6357823Y11464899D01*
G37*
G36*
X6025083Y11464899D02*
G01*
X6025083Y11461140D01*
X6031687Y11458600D01*
X6047740Y11458600D01*
X6054344Y11461140D01*
X6054344Y11464899D01*
G37*
G36*
X5771489Y11464899D02*
G01*
X5773267Y11459667D01*
X5801868Y11459667D01*
X5803595Y11464899D01*
G37*
G36*
X5522468Y11464899D02*
G01*
X5524246Y11459667D01*
X5550712Y11459667D01*
X5552490Y11464899D01*
G37*
G36*
X5271363Y11464899D02*
G01*
X5273090Y11459667D01*
X5287822Y11455908D01*
X5303113Y11458803D01*
X5303113Y11464899D01*
G37*
G36*
X5024424Y11464899D02*
G01*
X5026152Y11459768D01*
X5039766Y11456974D01*
X5050637Y11459870D01*
X5052314Y11464899D01*
G37*
G36*
X4773320Y11464899D02*
G01*
X4775047Y11459667D01*
X4799482Y11459667D01*
X4801209Y11464899D01*
G37*
G36*
X4524298Y11464899D02*
G01*
X4525924Y11459870D01*
X4536846Y11456974D01*
X4550460Y11459768D01*
X4552188Y11464899D01*
G37*
G36*
X4271416Y11464899D02*
G01*
X4271416Y11460581D01*
X4282897Y11456111D01*
X4301439Y11459667D01*
X4303166Y11464899D01*
G37*
G36*
X4024122Y11464899D02*
G01*
X4025849Y11459667D01*
X4046118Y11459667D01*
X4047845Y11464899D01*
G37*
G36*
X3771290Y11464899D02*
G01*
X3771290Y11460784D01*
X3781044Y11458346D01*
X3799179Y11459667D01*
X3800906Y11464899D01*
G37*
G36*
X3520135Y11464899D02*
G01*
X3520135Y11460784D01*
X3529837Y11458346D01*
X3550158Y11459667D01*
X3551885Y11464899D01*
G37*
G36*
X3268675Y11464899D02*
G01*
X3270402Y11459667D01*
X3282645Y11457482D01*
X3299002Y11459667D01*
X3300780Y11464899D01*
G37*
G36*
X3019653Y11464899D02*
G01*
X3021380Y11459667D01*
X3045815Y11459667D01*
X3047542Y11464899D01*
G37*
G36*
X2770632Y11464899D02*
G01*
X2772308Y11459768D01*
X2786024Y11456974D01*
X2800248Y11460886D01*
X2800248Y11464899D01*
G37*
G36*
X2523693Y11464899D02*
G01*
X2525420Y11459667D01*
X2541422Y11458295D01*
X2551226Y11460784D01*
X2551226Y11464899D01*
G37*
G36*
X2272538Y11464899D02*
G01*
X2274316Y11459667D01*
X2296617Y11459667D01*
X2298395Y11464899D01*
G37*
G36*
X2019350Y11464899D02*
G01*
X2021078Y11459718D01*
X2035911Y11456212D01*
X2053183Y11460835D01*
X2053183Y11464899D01*
G37*
G36*
X1768246Y11464899D02*
G01*
X1769922Y11459819D01*
X1783588Y11456314D01*
X1797862Y11461038D01*
X1797862Y11464899D01*
G37*
G36*
X1525473Y11464899D02*
G01*
X1527200Y11459667D01*
X1541170Y11459667D01*
X1542897Y11464899D01*
G37*
G36*
X1268425Y11464899D02*
G01*
X1268425Y11460581D01*
X1273657Y11458803D01*
X1291894Y11454130D01*
X1283868Y11444986D01*
X1276858Y11428272D01*
X1272387Y11415826D01*
X1268476Y11421973D01*
X1268374Y11444986D01*
X1265072Y11450167D01*
X1252728Y11452606D01*
X1244346Y11446357D01*
X1244346Y11342471D01*
X1253591Y11333022D01*
X1257706Y11333022D01*
X1268120Y11342471D01*
X1281633Y11378031D01*
X1284681Y11365484D01*
X1285189Y11342725D01*
X1294282Y11333022D01*
X1298752Y11333175D01*
X1312418Y11344554D01*
X1308201Y11359184D01*
X1308201Y11445392D01*
X1300073Y11452758D01*
X1297381Y11464899D01*
G37*
G36*
X1017320Y11464899D02*
G01*
X1017269Y11455450D01*
X1011377Y11444173D01*
X1004773Y11421313D01*
X996391Y11423497D01*
X996391Y11452098D01*
X987602Y11458244D01*
X975868Y11454130D01*
X973429Y11444986D01*
X973378Y11345875D01*
X979932Y11339322D01*
X991869Y11339322D01*
X1000099Y11349736D01*
X1002741Y11363858D01*
X1010767Y11371122D01*
X1015542Y11368176D01*
X1012698Y11347450D01*
X1020064Y11339322D01*
X1026718Y11339271D01*
X1032865Y11335359D01*
X1020064Y11319459D01*
X1012444Y11296396D01*
X1010666Y11301780D01*
X990244Y11312093D01*
X874877Y11312093D01*
X859840Y11318392D01*
X858266Y11318392D01*
X858266Y11279682D01*
X993241Y11280902D01*
X1013409Y11293297D01*
X1014933Y11293297D01*
X1021537Y11270538D01*
X1032510Y11257483D01*
X1053947Y11246205D01*
X1137615Y11246205D01*
X1158544Y11259058D01*
X1171041Y11276787D01*
X1172616Y11307927D01*
X1165555Y11325707D01*
X1158544Y11333632D01*
X1129385Y11347704D01*
X1116025Y11347704D01*
X1110132Y11349939D01*
X1111859Y11428272D01*
X1106271Y11444579D01*
X1090168Y11457533D01*
X1052068Y11457533D01*
X1049121Y11447068D01*
X1049046Y11428882D01*
X1069543Y11428882D01*
X1076198Y11435588D01*
X1081684Y11435588D01*
X1086713Y11423446D01*
X1085342Y11364569D01*
X1077925Y11357152D01*
X1070660Y11361724D01*
X1069543Y11428882D01*
X1049046Y11428882D01*
X1048715Y11348008D01*
X1042111Y11341404D01*
X1037183Y11341404D01*
X1037183Y11451996D01*
X1046581Y11462004D01*
X1046581Y11464899D01*
G37*
G36*
X921308Y11458600D02*
G01*
X910793Y11454587D01*
X904189Y11444478D01*
X904066Y11407343D01*
X928369Y11407343D01*
X928369Y11434064D01*
X937666Y11437518D01*
X944067Y11428374D01*
X944067Y11417198D01*
X936752Y11408613D01*
X928369Y11407343D01*
X904066Y11407343D01*
X903935Y11352174D01*
X909523Y11340541D01*
X919987Y11337645D01*
X954938Y11337239D01*
X967486Y11350650D01*
X964793Y11367566D01*
X956716Y11375745D01*
X945134Y11371681D01*
X943000Y11359184D01*
X928369Y11359184D01*
X928369Y11392662D01*
X934669Y11390934D01*
X950366Y11389106D01*
X960069Y11391544D01*
X964996Y11402314D01*
X964996Y11441582D01*
X960628Y11453368D01*
X953719Y11458600D01*
G37*
G36*
X1327505Y11454434D02*
G01*
X1317599Y11446408D01*
X1316619Y11368887D01*
X1341678Y11368887D01*
X1341678Y11425377D01*
X1345996Y11433505D01*
X1349400Y11433505D01*
X1356309Y11425834D01*
X1356309Y11366246D01*
X1351991Y11358168D01*
X1345742Y11358168D01*
X1341678Y11368887D01*
X1316619Y11368887D01*
X1316278Y11341912D01*
X1327607Y11333022D01*
X1353870Y11333022D01*
X1372819Y11341150D01*
X1380388Y11352733D01*
X1380388Y11436807D01*
X1372768Y11448491D01*
X1359458Y11454231D01*
G37*
G36*
X1188720Y11454434D02*
G01*
X1176883Y11448288D01*
X1174292Y11438737D01*
X1174292Y11411000D01*
X1197305Y11411000D01*
X1197305Y11427815D01*
X1204620Y11433352D01*
X1206957Y11433505D01*
X1213510Y11428272D01*
X1215847Y11418417D01*
X1212189Y11408714D01*
X1203350Y11405920D01*
X1197305Y11411000D01*
X1174292Y11411000D01*
X1174242Y11343944D01*
X1182268Y11334089D01*
X1222248Y11332616D01*
X1234948Y11341709D01*
X1234948Y11370462D01*
X1231798Y11372240D01*
X1220368Y11374932D01*
X1209802Y11358168D01*
X1202283Y11358168D01*
X1197305Y11363198D01*
X1197305Y11382959D01*
X1203452Y11389156D01*
X1220216Y11386921D01*
X1232916Y11392154D01*
X1234897Y11401044D01*
X1235608Y11411508D01*
X1234948Y11444122D01*
X1224686Y11454434D01*
G37*
G36*
X1576171Y11450320D02*
G01*
X1473149Y11449202D01*
X1465122Y11439296D01*
X1465122Y11399824D01*
X1475435Y11389563D01*
X1498346Y11389563D01*
X1504899Y11396116D01*
X1504899Y11406124D01*
X1499666Y11410696D01*
X1486154Y11418722D01*
X1489659Y11428272D01*
X1508556Y11429492D01*
X1515364Y11422735D01*
X1515364Y11420602D01*
X1535988Y11420602D01*
X1540611Y11429288D01*
X1560728Y11429288D01*
X1563471Y11426494D01*
X1563471Y11417249D01*
X1557477Y11412270D01*
X1538071Y11415166D01*
X1535988Y11420602D01*
X1515364Y11420602D01*
X1515364Y11403990D01*
X1521510Y11392154D01*
X1528267Y11389563D01*
X1574800Y11389563D01*
X1586534Y11400790D01*
X1586534Y11439956D01*
G37*
G36*
X6043879Y11438178D02*
G01*
X6033465Y11431320D01*
X6033465Y11423751D01*
X6050280Y11376456D01*
X6047841Y11367566D01*
X6034786Y11333022D01*
X6028588Y11333022D01*
X6014618Y11343741D01*
X6014618Y11427917D01*
X6007658Y11435588D01*
X6000445Y11435588D01*
X5991301Y11428222D01*
X5990031Y11342471D01*
X5977991Y11336680D01*
X5968593Y11328146D01*
X5968593Y11325453D01*
X5977026Y11316360D01*
X6047028Y11317020D01*
X6054344Y11320627D01*
X6060490Y11332514D01*
X6068364Y11334597D01*
X6073343Y11320830D01*
X6085941Y11316462D01*
X6094120Y11324691D01*
X6094120Y11329162D01*
X6083401Y11357102D01*
X6077051Y11372189D01*
X6085535Y11398961D01*
X6096101Y11424056D01*
X6096203Y11429288D01*
X6087872Y11437670D01*
X6086398Y11437670D01*
X6073394Y11433149D01*
X6068669Y11418824D01*
X6060592Y11414455D01*
X6058204Y11421973D01*
X6054547Y11431168D01*
G37*
G36*
X5302046Y11437924D02*
G01*
X5259273Y11436604D01*
X5250180Y11427561D01*
X5263946Y11401044D01*
X5280761Y11369649D01*
X5286044Y11359184D01*
X5288788Y11344300D01*
X5282692Y11339271D01*
X5275884Y11341862D01*
X5275884Y11351564D01*
X5265369Y11359845D01*
X5256022Y11357610D01*
X5250789Y11351056D01*
X5250789Y11330686D01*
X5255107Y11322608D01*
X5267299Y11316309D01*
X5300675Y11316309D01*
X5313984Y11327485D01*
X5312511Y11361420D01*
X5286044Y11408714D01*
X5288076Y11414048D01*
X5306009Y11416944D01*
X5311495Y11421465D01*
X5311495Y11431168D01*
G37*
G36*
X6313068Y11437721D02*
G01*
X6304432Y11435080D01*
X6297574Y11429034D01*
X6288176Y11399926D01*
X6284569Y11397640D01*
X6280404Y11408664D01*
X6280404Y11431270D01*
X6268720Y11437315D01*
X6260490Y11432794D01*
X6257442Y11428272D01*
X6257340Y11324945D01*
X6270040Y11315903D01*
X6280607Y11322812D01*
X6282944Y11329924D01*
X6295491Y11357102D01*
X6298895Y11348720D01*
X6299250Y11325707D01*
X6302349Y11321135D01*
X6312306Y11315852D01*
X6323076Y11326672D01*
X6322161Y11428069D01*
G37*
G36*
X3328670Y11437721D02*
G01*
X3294481Y11436604D01*
X3283661Y11426494D01*
X3283661Y11402618D01*
X3288944Y11398250D01*
X3299561Y11395608D01*
X3306267Y11403126D01*
X3307740Y11411051D01*
X3314700Y11415471D01*
X3321354Y11409934D01*
X3321202Y11384330D01*
X3315665Y11376964D01*
X3298596Y11376964D01*
X3286912Y11372545D01*
X3283712Y11367566D01*
X3283661Y11326571D01*
X3293922Y11316309D01*
X3335274Y11316309D01*
X3345179Y11326876D01*
X3334918Y11337188D01*
X3314039Y11339880D01*
X3308807Y11343995D01*
X3308807Y11353698D01*
X3313887Y11356898D01*
X3336442Y11359946D01*
X3346450Y11369344D01*
X3346399Y11426190D01*
X3343198Y11431219D01*
G37*
G36*
X3039872Y11437721D02*
G01*
X3002026Y11436604D01*
X2990697Y11429187D01*
X2990697Y11343640D01*
X3013710Y11343640D01*
X3013710Y11410340D01*
X3021838Y11414658D01*
X3023920Y11414658D01*
X3026968Y11409730D01*
X3026918Y11343335D01*
X3022549Y11338915D01*
X3013710Y11343640D01*
X2990697Y11343640D01*
X2990697Y11327587D01*
X2995930Y11321034D01*
X3010154Y11316309D01*
X3036925Y11316309D01*
X3049168Y11322608D01*
X3053486Y11330686D01*
X3053181Y11424056D01*
X3050133Y11431828D01*
G37*
G36*
X6345021Y11437670D02*
G01*
X6333185Y11431574D01*
X6330594Y11424767D01*
X6330594Y11343182D01*
X6354978Y11343182D01*
X6354978Y11410797D01*
X6360922Y11414607D01*
X6365900Y11414658D01*
X6372453Y11408054D01*
X6372453Y11347704D01*
X6364071Y11339322D01*
X6360922Y11339372D01*
X6354978Y11343182D01*
X6330594Y11343182D01*
X6330594Y11327231D01*
X6338417Y11317579D01*
X6366357Y11315801D01*
X6384848Y11322862D01*
X6394450Y11338255D01*
X6394450Y11415725D01*
X6388811Y11428984D01*
X6375603Y11435080D01*
X6369304Y11437366D01*
G37*
G36*
X6201918Y11437670D02*
G01*
X6188303Y11429339D01*
X6188303Y11411102D01*
X6211062Y11411102D01*
X6216548Y11414607D01*
X6222847Y11414302D01*
X6228080Y11412220D01*
X6228080Y11398859D01*
X6221374Y11389309D01*
X6212382Y11390579D01*
X6211062Y11411102D01*
X6188303Y11411102D01*
X6188303Y11329212D01*
X6190894Y11322405D01*
X6202730Y11316309D01*
X6237224Y11316309D01*
X6249009Y11327536D01*
X6249009Y11351971D01*
X6237782Y11356238D01*
X6232093Y11354054D01*
X6224930Y11341404D01*
X6217412Y11338966D01*
X6211316Y11343995D01*
X6211316Y11368430D01*
X6218123Y11372240D01*
X6235750Y11370259D01*
X6249009Y11377117D01*
X6249009Y11427409D01*
X6238697Y11437670D01*
G37*
G36*
X5540146Y11437670D02*
G01*
X5529122Y11428984D01*
X5528919Y11361318D01*
X5525770Y11344554D01*
X5529326Y11326977D01*
X5541975Y11316309D01*
X5551068Y11321135D01*
X5554167Y11325707D01*
X5554167Y11428272D01*
X5551068Y11432794D01*
X5542686Y11437569D01*
G37*
G36*
X5035448Y11437670D02*
G01*
X5024272Y11428018D01*
X5027117Y11414963D01*
X5033162Y11409934D01*
X5033162Y11404752D01*
X5041036Y11394744D01*
X5054904Y11369649D01*
X5064404Y11350802D01*
X5064556Y11343640D01*
X5055412Y11338763D01*
X5047792Y11348161D01*
X5047792Y11353800D01*
X5039715Y11358168D01*
X5029098Y11358168D01*
X5024780Y11350040D01*
X5024780Y11330686D01*
X5029098Y11322608D01*
X5041290Y11316309D01*
X5068925Y11316309D01*
X5081473Y11322761D01*
X5085486Y11333327D01*
X5085486Y11357610D01*
X5074869Y11380114D01*
X5064760Y11396878D01*
X5057292Y11410848D01*
X5065318Y11416741D01*
X5075732Y11416741D01*
X5083352Y11423700D01*
X5083352Y11431168D01*
X5074056Y11437670D01*
G37*
G36*
X4803038Y11437670D02*
G01*
X4796129Y11427155D01*
X4795012Y11361318D01*
X4789728Y11349786D01*
X4795266Y11326622D01*
X4804867Y11316309D01*
X4812792Y11316309D01*
X4819446Y11323675D01*
X4820716Y11429695D01*
X4810861Y11437670D01*
G37*
G36*
X4543348Y11437670D02*
G01*
X4528972Y11431676D01*
X4526483Y11419890D01*
X4524654Y11412575D01*
X4564380Y11412575D01*
X4564380Y11341404D01*
X4551832Y11341404D01*
X4551832Y11412575D01*
X4524654Y11412575D01*
X4522063Y11402415D01*
X4525518Y11396878D01*
X4525772Y11328857D01*
X4537252Y11317376D01*
X4570831Y11315852D01*
X4583582Y11321135D01*
X4587392Y11331244D01*
X4587392Y11424767D01*
X4584700Y11431879D01*
X4571695Y11437518D01*
G37*
G36*
X4225188Y11437670D02*
G01*
X4213301Y11431574D01*
X4210710Y11424767D01*
X4210710Y11403482D01*
X4217670Y11395811D01*
X4225645Y11395811D01*
X4233214Y11399875D01*
X4235653Y11412220D01*
X4244390Y11415014D01*
X4250486Y11409934D01*
X4250486Y11397284D01*
X4228693Y11377218D01*
X4233926Y11367566D01*
X4246751Y11359184D01*
X4301185Y11359184D01*
X4305401Y11364417D01*
X4312208Y11364366D01*
X4317238Y11361166D01*
X4320082Y11343640D01*
X4308754Y11338509D01*
X4301744Y11342928D01*
X4301185Y11359184D01*
X4246751Y11359184D01*
X4248302Y11358168D01*
X4251096Y11347043D01*
X4246880Y11340388D01*
X4239056Y11340388D01*
X4230624Y11353952D01*
X4221480Y11356441D01*
X4213098Y11353749D01*
X4208119Y11338763D01*
X4212844Y11323066D01*
X4224324Y11315242D01*
X4255719Y11315598D01*
X4265523Y11320830D01*
X4277156Y11333886D01*
X4283862Y11320932D01*
X4297172Y11316309D01*
X4326890Y11316309D01*
X4339945Y11324285D01*
X4342434Y11338255D01*
X4342434Y11425580D01*
X4330344Y11437670D01*
X4292904Y11437670D01*
X4281881Y11428984D01*
X4281881Y11402009D01*
X4292650Y11397081D01*
X4299661Y11401501D01*
X4301032Y11410696D01*
X4311040Y11415268D01*
X4317441Y11409934D01*
X4317441Y11391798D01*
X4309364Y11387429D01*
X4291279Y11387429D01*
X4277664Y11379149D01*
X4277664Y11368938D01*
X4271060Y11362283D01*
X4267200Y11364722D01*
X4260951Y11376761D01*
X4265218Y11379352D01*
X4274058Y11396675D01*
X4271670Y11424920D01*
X4266996Y11433708D01*
X4256481Y11437670D01*
G37*
G36*
X3969004Y11437670D02*
G01*
X3956050Y11429746D01*
X3953510Y11411153D01*
X3956761Y11398961D01*
X3972255Y11397640D01*
X3978351Y11412270D01*
X3982872Y11415064D01*
X3992575Y11412626D01*
X3994962Y11403533D01*
X3992857Y11399418D01*
X4047185Y11399418D01*
X4048556Y11413591D01*
X4060088Y11414912D01*
X4062425Y11408867D01*
X4061104Y11390579D01*
X4049725Y11389258D01*
X4047185Y11399418D01*
X3992857Y11399418D01*
X3990492Y11394795D01*
X3973829Y11377472D01*
X3974207Y11376761D01*
X4005630Y11376761D01*
X4016095Y11387277D01*
X4016095Y11391646D01*
X4019905Y11391646D01*
X4030979Y11378488D01*
X4028440Y11371732D01*
X4019245Y11358270D01*
X4010406Y11367820D01*
X4005630Y11376761D01*
X3974207Y11376761D01*
X3979062Y11367770D01*
X3993083Y11354511D01*
X3993083Y11342928D01*
X3989596Y11340388D01*
X4048556Y11340388D01*
X4048556Y11361318D01*
X4060037Y11362639D01*
X4064609Y11350802D01*
X4061002Y11340388D01*
X3989596Y11340388D01*
X3985971Y11337696D01*
X3976573Y11341963D01*
X3972356Y11353952D01*
X3959758Y11353952D01*
X3955440Y11345875D01*
X3955440Y11327079D01*
X3962349Y11320119D01*
X3972458Y11316309D01*
X3998722Y11316309D01*
X4012031Y11320932D01*
X4018483Y11333327D01*
X4029710Y11322050D01*
X4039108Y11315852D01*
X4069486Y11315496D01*
X4083253Y11322761D01*
X4087266Y11333327D01*
X4087266Y11359997D01*
X4078274Y11375186D01*
X4087266Y11391138D01*
X4087215Y11421973D01*
X4081932Y11432336D01*
X4071569Y11437620D01*
X4035551Y11437670D01*
X4019245Y11425834D01*
X4002938Y11437670D01*
G37*
G36*
X3725011Y11437670D02*
G01*
X3712819Y11431371D01*
X3708095Y11413794D01*
X3712921Y11397691D01*
X3719423Y11395202D01*
X3730193Y11398961D01*
X3733647Y11412270D01*
X3741826Y11414912D01*
X3750360Y11410340D01*
X3750360Y11397284D01*
X3728618Y11377269D01*
X3733393Y11366703D01*
X3745331Y11360556D01*
X3750462Y11349278D01*
X3748074Y11341811D01*
X3741369Y11339220D01*
X3734308Y11341455D01*
X3728364Y11355019D01*
X3718610Y11356390D01*
X3710584Y11349126D01*
X3710584Y11327130D01*
X3723436Y11316309D01*
X3732529Y11315801D01*
X3755593Y11316665D01*
X3773373Y11326926D01*
X3773678Y11336172D01*
X3778758Y11322151D01*
X3789070Y11316462D01*
X3829304Y11316309D01*
X3840683Y11325301D01*
X3838803Y11336172D01*
X3823563Y11394744D01*
X3823563Y11401552D01*
X3815130Y11428018D01*
X3808272Y11435588D01*
X3796893Y11435588D01*
X3791712Y11429339D01*
X3793845Y11415725D01*
X3802176Y11384330D01*
X3811828Y11343436D01*
X3807561Y11339169D01*
X3800754Y11341811D01*
X3792321Y11356035D01*
X3784600Y11356035D01*
X3778046Y11350802D01*
X3773474Y11342471D01*
X3773322Y11352936D01*
X3763010Y11373866D01*
X3762908Y11377371D01*
X3771290Y11388039D01*
X3771290Y11426393D01*
X3766058Y11432946D01*
X3757676Y11437569D01*
G37*
G36*
X3547618Y11437670D02*
G01*
X3536848Y11433556D01*
X3531717Y11421973D01*
X3527704Y11419128D01*
X3531356Y11411102D01*
X3553358Y11411102D01*
X3558844Y11414607D01*
X3565144Y11414607D01*
X3570630Y11411102D01*
X3569309Y11390579D01*
X3554679Y11390579D01*
X3553358Y11411102D01*
X3531356Y11411102D01*
X3532682Y11408206D01*
X3532682Y11398351D01*
X3525875Y11395710D01*
X3532428Y11388496D01*
X3531666Y11329720D01*
X3538931Y11318595D01*
X3553663Y11315852D01*
X3582619Y11317478D01*
X3591153Y11325199D01*
X3595878Y11339525D01*
X3593337Y11349736D01*
X3583482Y11356187D01*
X3572967Y11352174D01*
X3568395Y11339068D01*
X3554679Y11340388D01*
X3553358Y11360810D01*
X3557066Y11364518D01*
X3585718Y11367973D01*
X3592931Y11376863D01*
X3595624Y11417808D01*
X3592118Y11430355D01*
X3577691Y11437670D01*
G37*
G36*
X3479342Y11437670D02*
G01*
X3464763Y11430355D01*
X3460953Y11416792D01*
X3464712Y11399062D01*
X3476040Y11395049D01*
X3486658Y11399926D01*
X3486658Y11409934D01*
X3491890Y11414150D01*
X3501288Y11410594D01*
X3501288Y11397742D01*
X3482492Y11377574D01*
X3482492Y11372646D01*
X3501288Y11354358D01*
X3501288Y11341912D01*
X3492093Y11339474D01*
X3487064Y11343690D01*
X3484575Y11353647D01*
X3472281Y11356340D01*
X3463798Y11351818D01*
X3461054Y11336934D01*
X3464814Y11323777D01*
X3477717Y11316258D01*
X3510229Y11315903D01*
X3521100Y11324031D01*
X3524300Y11338255D01*
X3521913Y11361318D01*
X3514344Y11375745D01*
X3523284Y11387785D01*
X3523284Y11427612D01*
X3510737Y11437670D01*
G37*
G36*
X3229559Y11437670D02*
G01*
X3219043Y11433708D01*
X3214370Y11424920D01*
X3213912Y11403990D01*
X3222752Y11395151D01*
X3236366Y11399062D01*
X3239770Y11412270D01*
X3248050Y11414912D01*
X3252266Y11412321D01*
X3252266Y11394033D01*
X3232962Y11377574D01*
X3235756Y11368836D01*
X3249726Y11360200D01*
X3252215Y11350802D01*
X3252266Y11341658D01*
X3248050Y11339068D01*
X3240481Y11341455D01*
X3233521Y11356035D01*
X3221177Y11356035D01*
X3214624Y11349482D01*
X3214624Y11330686D01*
X3218942Y11322608D01*
X3231134Y11316309D01*
X3264408Y11316309D01*
X3277412Y11331092D01*
X3277412Y11361674D01*
X3269132Y11369192D01*
X3266541Y11377320D01*
X3276193Y11387632D01*
X3277870Y11428628D01*
X3259632Y11437670D01*
G37*
G36*
X2795879Y11437670D02*
G01*
X2784043Y11431574D01*
X2781452Y11424767D01*
X2781452Y11400078D01*
X2791460Y11397589D01*
X2801315Y11398961D01*
X2807208Y11412372D01*
X2813507Y11414810D01*
X2816453Y11411508D01*
X2818892Y11383721D01*
X2811780Y11377472D01*
X2788005Y11374628D01*
X2784043Y11369649D01*
X2781604Y11350802D01*
X2784856Y11322050D01*
X2792679Y11316309D01*
X2833014Y11316309D01*
X2842260Y11326114D01*
X2839516Y11333175D01*
X2827680Y11339322D01*
X2812542Y11339322D01*
X2804464Y11343640D01*
X2804464Y11351615D01*
X2813761Y11358168D01*
X2831846Y11358168D01*
X2842107Y11368430D01*
X2842107Y11427256D01*
X2833674Y11434521D01*
X2820162Y11437112D01*
G37*
G36*
X2540965Y11437670D02*
G01*
X2530754Y11433048D01*
X2526639Y11424056D01*
X2521864Y11412220D01*
X2516682Y11413947D01*
X2512263Y11427358D01*
X2503220Y11436400D01*
X2491740Y11432387D01*
X2488133Y11417147D01*
X2479040Y11414709D01*
X2462276Y11414607D01*
X2457754Y11411508D01*
X2457194Y11410492D01*
X2550007Y11410492D01*
X2554173Y11414658D01*
X2563368Y11414658D01*
X2565908Y11408054D01*
X2565908Y11394236D01*
X2559812Y11389207D01*
X2552293Y11390630D01*
X2550007Y11410492D01*
X2457194Y11410492D01*
X2453436Y11403584D01*
X2458909Y11384076D01*
X2482189Y11384076D01*
X2482189Y11393474D01*
X2485796Y11395710D01*
X2488438Y11393017D01*
X2488336Y11375948D01*
X2482189Y11384076D01*
X2458909Y11384076D01*
X2476652Y11332565D01*
X2485339Y11319865D01*
X2494838Y11316411D01*
X2503170Y11324742D01*
X2500325Y11336172D01*
X2492349Y11351615D01*
X2493670Y11363248D01*
X2508148Y11366144D01*
X2513584Y11373612D01*
X2513584Y11394033D01*
X2519527Y11400028D01*
X2522016Y11400028D01*
X2532634Y11375948D01*
X2526131Y11362182D01*
X2526131Y11344554D01*
X2549347Y11344554D01*
X2551785Y11362334D01*
X2558745Y11362334D01*
X2563774Y11357305D01*
X2563774Y11341912D01*
X2554427Y11339423D01*
X2549347Y11344554D01*
X2526131Y11344554D01*
X2526131Y11329111D01*
X2536037Y11317579D01*
X2563723Y11315801D01*
X2578455Y11318595D01*
X2586786Y11327536D01*
X2586786Y11359743D01*
X2580284Y11375390D01*
X2586786Y11389106D01*
X2586786Y11426393D01*
X2581554Y11432946D01*
X2573223Y11437569D01*
G37*
G36*
X2300122Y11437670D02*
G01*
X2291537Y11429085D01*
X2298293Y11403126D01*
X2303932Y11384330D01*
X2306574Y11365687D01*
X2310180Y11361318D01*
X2313127Y11341455D01*
X2306726Y11339017D01*
X2298496Y11343386D01*
X2295956Y11353495D01*
X2284425Y11355781D01*
X2278126Y11349634D01*
X2278278Y11324691D01*
X2285593Y11317325D01*
X2329789Y11315903D01*
X2339898Y11325402D01*
X2339898Y11337036D01*
X2336038Y11346637D01*
X2329078Y11378031D01*
X2316784Y11428272D01*
X2306167Y11437670D01*
G37*
G36*
X1978050Y11437670D02*
G01*
X1967636Y11432946D01*
X1965147Y11426494D01*
X1979879Y11396878D01*
X2004822Y11352936D01*
X2005075Y11341658D01*
X2000605Y11338915D01*
X1990394Y11341506D01*
X1990394Y11348872D01*
X1983892Y11358168D01*
X1974189Y11358168D01*
X1969262Y11352225D01*
X1966975Y11338255D01*
X1970684Y11323929D01*
X1981454Y11315903D01*
X2013559Y11316258D01*
X2021738Y11320627D01*
X2027936Y11332514D01*
X2034184Y11334953D01*
X2039569Y11323980D01*
X2051050Y11315496D01*
X2061260Y11325148D01*
X2061616Y11427866D01*
X2054606Y11435588D01*
X2043226Y11435588D01*
X2037486Y11428679D01*
X2037486Y11360454D01*
X2032660Y11355628D01*
X2025599Y11363401D01*
X1998776Y11409172D01*
X1998776Y11414099D01*
X2017775Y11416233D01*
X2025954Y11423700D01*
X2025954Y11431168D01*
X2016658Y11437670D01*
G37*
G36*
X1797100Y11437670D02*
G01*
X1779727Y11429238D01*
X1777285Y11340388D01*
X1805178Y11340388D01*
X1805178Y11413591D01*
X1816303Y11414912D01*
X1819148Y11410340D01*
X1819148Y11343030D01*
X1815084Y11338966D01*
X1805178Y11340388D01*
X1777285Y11340388D01*
X1777034Y11331092D01*
X1779219Y11325352D01*
X1795322Y11316309D01*
X1827377Y11316309D01*
X1839214Y11322405D01*
X1841804Y11329212D01*
X1841550Y11424056D01*
X1838452Y11431828D01*
X1828241Y11437518D01*
G37*
G36*
X1720596Y11437670D02*
G01*
X1712061Y11428476D01*
X1714652Y11419890D01*
X1745234Y11363401D01*
X1750568Y11345113D01*
X1742846Y11339474D01*
X1739239Y11341709D01*
X1733397Y11355679D01*
X1724355Y11358524D01*
X1714601Y11356086D01*
X1710334Y11343894D01*
X1713890Y11328196D01*
X1724710Y11317325D01*
X1759153Y11316106D01*
X1772767Y11324590D01*
X1772767Y11360962D01*
X1755546Y11394795D01*
X1747774Y11403279D01*
X1746605Y11413388D01*
X1765452Y11417147D01*
X1772767Y11423700D01*
X1772767Y11429288D01*
X1764385Y11437670D01*
G37*
G36*
X5801106Y11436096D02*
G01*
X5784799Y11431930D01*
X5779160Y11435537D01*
X5765901Y11435588D01*
X5757468Y11424869D01*
X5750610Y11404193D01*
X5747816Y11404244D01*
X5741974Y11407952D01*
X5744768Y11428984D01*
X5735370Y11435588D01*
X5723890Y11435588D01*
X5719521Y11427460D01*
X5719521Y11370716D01*
X5754268Y11370716D01*
X5759297Y11365687D01*
X5759297Y11341709D01*
X5750712Y11338966D01*
X5744667Y11343995D01*
X5744667Y11370716D01*
X5719521Y11370716D01*
X5719521Y11324996D01*
X5730595Y11316309D01*
X5765749Y11316309D01*
X5782310Y11324742D01*
X5782411Y11334089D01*
X5783681Y11367566D01*
X5780024Y11378031D01*
X5771184Y11384838D01*
X5771184Y11396878D01*
X5782868Y11423040D01*
X5786170Y11423040D01*
X5794857Y11408918D01*
X5794857Y11401958D01*
X5803239Y11385499D01*
X5803239Y11364264D01*
X5786526Y11330127D01*
X5786526Y11326012D01*
X5795619Y11316309D01*
X5803544Y11316309D01*
X5811469Y11320576D01*
X5816447Y11337239D01*
X5819851Y11337239D01*
X5824677Y11327790D01*
X5835446Y11316309D01*
X5844590Y11316309D01*
X5849569Y11328298D01*
X5842609Y11344554D01*
X5836615Y11364264D01*
X5832551Y11366754D01*
X5832551Y11379352D01*
X5840577Y11398961D01*
X5851652Y11427612D01*
X5844438Y11435588D01*
X5830468Y11435588D01*
X5818936Y11414709D01*
X5816142Y11414658D01*
X5811266Y11429441D01*
G37*
G36*
X4761636Y11435588D02*
G01*
X4757267Y11430304D01*
X4754321Y11418722D01*
X4746701Y11414658D01*
X4726584Y11414607D01*
X4721961Y11411508D01*
X4717135Y11402314D01*
X4720935Y11393728D01*
X4756912Y11393728D01*
X4756912Y11382908D01*
X4751679Y11384635D01*
X4750358Y11393728D01*
X4720935Y11393728D01*
X4723282Y11388496D01*
X4733340Y11361318D01*
X4747514Y11321694D01*
X4763770Y11315496D01*
X4771542Y11325098D01*
X4768900Y11336172D01*
X4761077Y11351717D01*
X4761077Y11361877D01*
X4767732Y11364417D01*
X4775250Y11364417D01*
X4780229Y11370411D01*
X4780229Y11384330D01*
X4786680Y11405920D01*
X4777587Y11433200D01*
X4772609Y11435232D01*
G37*
G36*
X4497425Y11435588D02*
G01*
X4489043Y11427206D01*
X4489043Y11418722D01*
X4478324Y11414658D01*
X4462881Y11414607D01*
X4458309Y11411508D01*
X4453686Y11402771D01*
X4456489Y11392662D01*
X4481372Y11392662D01*
X4485894Y11395760D01*
X4489043Y11395811D01*
X4489043Y11379098D01*
X4484979Y11379098D01*
X4481372Y11392662D01*
X4456489Y11392662D01*
X4459427Y11382197D01*
X4472533Y11344554D01*
X4476953Y11329924D01*
X4485132Y11318392D01*
X4495393Y11315852D01*
X4501591Y11320983D01*
X4501591Y11330838D01*
X4491024Y11358981D01*
X4493107Y11364417D01*
X4507382Y11364417D01*
X4513122Y11371326D01*
X4513427Y11393474D01*
X4519218Y11400434D01*
X4518202Y11413337D01*
X4514697Y11417808D01*
X4511598Y11428272D01*
X4505147Y11435588D01*
G37*
G36*
X2753512Y11435588D02*
G01*
X2745841Y11428679D01*
X2745841Y11423040D01*
X2737459Y11414658D01*
X2716580Y11414658D01*
X2707792Y11405870D01*
X2709875Y11396878D01*
X2718917Y11371732D01*
X2738069Y11322405D01*
X2746806Y11316309D01*
X2752852Y11316309D01*
X2760522Y11323218D01*
X2760522Y11330432D01*
X2752496Y11348720D01*
X2751074Y11360912D01*
X2765755Y11365839D01*
X2770886Y11375948D01*
X2770987Y11395303D01*
X2777236Y11400536D01*
X2777236Y11412067D01*
X2771495Y11416842D01*
X2768854Y11429949D01*
X2764180Y11435588D01*
G37*
G36*
X2252268Y11435588D02*
G01*
X2245715Y11428984D01*
X2245715Y11418722D01*
X2234946Y11414658D01*
X2217318Y11414658D01*
X2208022Y11408156D01*
X2208022Y11400485D01*
X2210480Y11393119D01*
X2233218Y11393119D01*
X2235962Y11395811D01*
X2238400Y11395354D01*
X2245715Y11393424D01*
X2245715Y11379352D01*
X2242210Y11377168D01*
X2233218Y11393119D01*
X2210480Y11393119D01*
X2231542Y11329924D01*
X2241753Y11316309D01*
X2251913Y11316309D01*
X2258161Y11325910D01*
X2249424Y11348720D01*
X2246122Y11359845D01*
X2250744Y11364417D01*
X2260041Y11364417D01*
X2266645Y11371021D01*
X2266645Y11395100D01*
X2277364Y11400840D01*
X2274671Y11411508D01*
X2266645Y11420144D01*
X2266645Y11428780D01*
X2261412Y11433048D01*
X2253030Y11435080D01*
G37*
G36*
X5005984Y11435232D02*
G01*
X4994706Y11432235D01*
X4989982Y11418112D01*
X4981854Y11414963D01*
X4962245Y11414658D01*
X4955692Y11405362D01*
X4955692Y11395659D01*
X4957170Y11391239D01*
X4980330Y11391239D01*
X4983175Y11395811D01*
X4991303Y11395811D01*
X4991303Y11374882D01*
X4988153Y11374932D01*
X4980330Y11391239D01*
X4957170Y11391239D01*
X4976876Y11332159D01*
X4985105Y11318798D01*
X4991608Y11316309D01*
X4999786Y11316309D01*
X5003596Y11326418D01*
X4992471Y11357660D01*
X4998059Y11364417D01*
X5007864Y11364417D01*
X5012232Y11372545D01*
X5012232Y11393373D01*
X5023307Y11401450D01*
X5018684Y11414760D01*
X5012232Y11421211D01*
X5012232Y11428984D01*
G37*
G36*
X1473504Y11381181D02*
G01*
X1464868Y11372545D01*
X1466189Y11365484D01*
X1480820Y11358016D01*
X1533144Y11359743D01*
X1551736Y11353546D01*
X1567535Y11355628D01*
X1583080Y11363401D01*
X1587296Y11370310D01*
X1580134Y11381181D01*
G37*
G36*
X1558594Y11348923D02*
G01*
X1482902Y11347653D01*
X1443177Y11346383D01*
X1422247Y11335308D01*
X1413510Y11327790D01*
X1402334Y11308232D01*
X1402334Y11285728D01*
X1412849Y11264696D01*
X1422247Y11256060D01*
X1443786Y11244935D01*
X1572920Y11246205D01*
X1592326Y11256111D01*
X1608226Y11275110D01*
X1607515Y11314277D01*
X1599539Y11329924D01*
X1591767Y11336934D01*
G37*
G36*
X1634439Y11312093D02*
G01*
X1622196Y11305794D01*
X1617929Y11297716D01*
X1617929Y11291316D01*
X1630476Y11277041D01*
X1630476Y11242903D01*
X1636369Y11228832D01*
X1646174Y11225580D01*
X1635709Y11222532D01*
X1532432Y11222126D01*
X1525676Y11219535D01*
X1520088Y11208512D01*
X1521053Y11164570D01*
X1524101Y11157458D01*
X1537360Y11153241D01*
X1664309Y11154105D01*
X1672336Y11164011D01*
X1672336Y11211102D01*
X1663903Y11221821D01*
X1651406Y11224564D01*
X1651406Y11226698D01*
X1660804Y11234318D01*
X1662125Y11301018D01*
X1648968Y11312093D01*
G37*
G36*
X1378305Y11312042D02*
G01*
X1198321Y11311890D01*
X1183690Y11304778D01*
X1182420Y11290147D01*
X1188567Y11281765D01*
X1381912Y11280597D01*
X1396339Y11291570D01*
X1395018Y11302593D01*
G37*
G36*
X5271668Y11241227D02*
G01*
X5192826Y11239906D01*
X5185918Y11234166D01*
X5185918Y11065256D01*
X5197246Y11057839D01*
X5274157Y11057839D01*
X5282184Y11067745D01*
X5282184Y11230711D01*
G37*
G36*
X4897069Y11241227D02*
G01*
X4817719Y11239906D01*
X4810252Y11232438D01*
X4809286Y11069523D01*
X4819345Y11057839D01*
X4899558Y11057839D01*
X4907584Y11067745D01*
X4907584Y11230711D01*
G37*
G36*
X6396532Y11241024D02*
G01*
X6320282Y11239906D01*
X6312814Y11232438D01*
X6312814Y11065357D01*
X6320282Y11057839D01*
X6383477Y11056416D01*
X6401206Y11059058D01*
X6408420Y11064341D01*
X6409385Y11171885D01*
X6412534Y11174984D01*
X6416852Y11167313D01*
X6430924Y11161420D01*
X6446977Y11161420D01*
X6455105Y11155273D01*
X6458254Y11155172D01*
X6458254Y11190732D01*
X6427470Y11190732D01*
X6414312Y11186160D01*
X6414312Y11180267D01*
X6410147Y11180267D01*
X6409537Y11185499D01*
X6406997Y11235639D01*
G37*
G36*
X5573522Y11240973D02*
G01*
X5563616Y11232946D01*
X5562396Y11067948D01*
X5570626Y11057839D01*
X5648299Y11057839D01*
X5656935Y11066475D01*
X5657291Y11232134D01*
X5654243Y11237061D01*
X5645251Y11240719D01*
G37*
G36*
X5321757Y11240973D02*
G01*
X5311495Y11230711D01*
X5311495Y11065256D01*
X5322824Y11057839D01*
X5399227Y11057839D01*
X5406694Y11065306D01*
X5407812Y11218976D01*
X5405374Y11237010D01*
X5396230Y11240719D01*
G37*
G36*
X5072634Y11240973D02*
G01*
X5063490Y11236147D01*
X5060391Y11231524D01*
X5060340Y11065459D01*
X5071364Y11056823D01*
X5142077Y11056823D01*
X5156454Y11062817D01*
X5158943Y11072672D01*
X5157673Y11232946D01*
X5147767Y11240973D01*
G37*
G36*
X4945735Y11240973D02*
G01*
X4935829Y11232946D01*
X4934661Y11069777D01*
X4944872Y11057839D01*
X5020056Y11056569D01*
X5030927Y11066221D01*
X5032095Y11232946D01*
X5022240Y11240973D01*
G37*
G36*
X4701032Y11240973D02*
G01*
X4687824Y11236350D01*
X4685182Y11225784D01*
X4687468Y11184636D01*
X4681575Y11179759D01*
X4673600Y11189716D01*
X4573930Y11190935D01*
X4564684Y11188649D01*
X4558131Y11182096D01*
X4558131Y11032998D01*
X4566310Y11024311D01*
X4562449Y11018113D01*
X4493209Y11017758D01*
X4482795Y11007953D01*
X4482795Y10931194D01*
X4496358Y10922914D01*
X4658106Y10922863D01*
X4667554Y10930534D01*
X4668672Y10999266D01*
X4664811Y11014456D01*
X4653330Y11019078D01*
X4588052Y11018113D01*
X4581194Y11023803D01*
X4589475Y11034369D01*
X4589475Y11156746D01*
X4594758Y11161064D01*
X4671517Y11162487D01*
X4681118Y11174526D01*
X4685741Y11171682D01*
X4685741Y11069066D01*
X4689856Y11061446D01*
X4703114Y11056823D01*
X4768443Y11056823D01*
X4782007Y11065103D01*
X4782007Y11228679D01*
X4777587Y11237010D01*
X4768443Y11240719D01*
G37*
G36*
X6145377Y11240871D02*
G01*
X6068669Y11239906D01*
X6062726Y11231778D01*
X6062726Y11065814D01*
X6071565Y11057839D01*
X6150203Y11057839D01*
X6158992Y11065814D01*
X6158992Y11226038D01*
X6154877Y11236909D01*
G37*
G36*
X6268872Y11240820D02*
G01*
X6194704Y11239906D01*
X6188151Y11233353D01*
X6188202Y11064138D01*
X6195364Y11058906D01*
X6274155Y11058296D01*
X6282486Y11065814D01*
X6282486Y11228679D01*
X6278016Y11237010D01*
G37*
G36*
X5894273Y11240770D02*
G01*
X5820105Y11239906D01*
X5812688Y11232438D01*
X5811418Y11072520D01*
X5813856Y11062817D01*
X5827877Y11056975D01*
X5899099Y11057839D01*
X5907887Y11065814D01*
X5907836Y11227358D01*
X5905347Y11236553D01*
G37*
G36*
X6017768Y11240668D02*
G01*
X5944108Y11239906D01*
X5937199Y11234166D01*
X5937199Y11065256D01*
X5946597Y11059261D01*
X6001766Y11056264D01*
X6025438Y11059261D01*
X6033465Y11067288D01*
X6033363Y11227358D01*
X6028182Y11237620D01*
G37*
G36*
X5768695Y11240617D02*
G01*
X5691987Y11239906D01*
X5686044Y11231778D01*
X5686044Y11067745D01*
X5694070Y11057839D01*
X5774994Y11059160D01*
X5782310Y11067745D01*
X5782310Y11231778D01*
X5777077Y11238534D01*
G37*
G36*
X5517591Y11240516D02*
G01*
X5443474Y11239906D01*
X5436463Y11232946D01*
X5435346Y11068354D01*
X5439206Y11061141D01*
X5455158Y11056366D01*
X5522722Y11057839D01*
X5531561Y11066678D01*
X5532272Y11231930D01*
X5526735Y11238636D01*
G37*
G36*
X1462024Y11207699D02*
G01*
X1441094Y11206073D01*
X1419402Y11192662D01*
X1410716Y11174780D01*
X1410716Y11152886D01*
X1419199Y11136274D01*
X1438757Y11122101D01*
X1457807Y11119662D01*
X1473606Y11123371D01*
X1491996Y11138408D01*
X1499209Y11157356D01*
X1494637Y11185093D01*
X1482902Y11197539D01*
G37*
G36*
X4093464Y11197437D02*
G01*
X4060139Y11195964D01*
X4048556Y11184178D01*
X4068165Y11166652D01*
X4066286Y11086693D01*
X4075023Y11075619D01*
X4082592Y11075619D01*
X4091635Y11082985D01*
X4091635Y11167770D01*
X4101642Y11174323D01*
X4111345Y11172952D01*
X4113428Y11158321D01*
X4125163Y11152733D01*
X4135374Y11159439D01*
X4135374Y11167211D01*
X4141622Y11172393D01*
X4147921Y11169954D01*
X4147921Y11155324D01*
X4116527Y11124031D01*
X4112361Y11113058D01*
X4112361Y11086592D01*
X4119676Y11077549D01*
X4149902Y11073333D01*
X4166362Y11077803D01*
X4175607Y11085271D01*
X4172000Y11112195D01*
X4160265Y11117834D01*
X4150055Y11111128D01*
X4150055Y11103660D01*
X4144467Y11096040D01*
X4135374Y11100917D01*
X4135374Y11107166D01*
X4142130Y11117478D01*
X4174744Y11149939D01*
X4173982Y11184229D01*
X4164177Y11194694D01*
X4155287Y11196421D01*
X4135882Y11197031D01*
X4114190Y11190020D01*
G37*
G36*
X4222242Y11196421D02*
G01*
X4195013Y11194389D01*
X4181551Y11186312D01*
X4178808Y11171682D01*
X4179892Y11151362D01*
X4204411Y11151362D01*
X4207662Y11170818D01*
X4213860Y11171834D01*
X4221632Y11167262D01*
X4218686Y11143640D01*
X4213860Y11140592D01*
X4208526Y11140541D01*
X4204411Y11151362D01*
X4179892Y11151362D01*
X4180687Y11135766D01*
X4194708Y11124336D01*
X4187139Y11099698D01*
X4181906Y11093450D01*
X4179315Y11084864D01*
X4184548Y11077956D01*
X4195216Y11075416D01*
X4206240Y11084052D01*
X4208932Y11096396D01*
X4217568Y11107369D01*
X4221124Y11101781D01*
X4221175Y11082426D01*
X4226407Y11078362D01*
X4235551Y11076127D01*
X4244187Y11082172D01*
X4244187Y11185753D01*
X4238650Y11193373D01*
G37*
G36*
X2677261Y11188649D02*
G01*
X2664460Y11176711D01*
X2664421Y11153038D01*
X2691282Y11153038D01*
X2695752Y11161420D01*
X2774086Y11161166D01*
X2768879Y11159083D01*
X2796540Y11159083D01*
X2798876Y11161420D01*
X2958236Y11161369D01*
X2964535Y11157407D01*
X2965500Y11068507D01*
X2959201Y11058906D01*
X2916428Y11059668D01*
X2946603Y11062055D01*
X2957220Y11076432D01*
X2957220Y11142726D01*
X2951429Y11156645D01*
X2932988Y11159134D01*
X2855722Y11156746D01*
X2847340Y11149685D01*
X2829001Y11138001D01*
X2816352Y11140541D01*
X2796540Y11159083D01*
X2768879Y11159083D01*
X2763926Y11157102D01*
X2709621Y11157966D01*
X2699816Y11146536D01*
X2699816Y11074603D01*
X2712609Y11060684D01*
X2792933Y11060684D01*
X2788581Y11058906D01*
X2798318Y11058906D01*
X2800858Y11066221D01*
X2811780Y11078108D01*
X2823057Y11084001D01*
X2830626Y11083848D01*
X2853080Y11067338D01*
X2857804Y11061090D01*
X2897581Y11059769D01*
X2788581Y11058906D01*
X2787700Y11058550D01*
X2782468Y11060684D01*
X2776220Y11060684D01*
X2770987Y11058550D01*
X2765755Y11060684D01*
X2712609Y11060684D01*
X2714802Y11058296D01*
X2696819Y11060734D01*
X2691892Y11067491D01*
X2691282Y11153038D01*
X2664421Y11153038D01*
X2664206Y11053318D01*
X2666898Y11039906D01*
X2678684Y11033810D01*
X2979978Y11033810D01*
X2990646Y11043208D01*
X2991612Y11178032D01*
X2981604Y11188649D01*
G37*
G36*
X3586530Y11184991D02*
G01*
X3554679Y11181994D01*
X3540048Y11182197D01*
X3504844Y11184940D01*
X3489198Y11180216D01*
X3486658Y11173663D01*
X3498189Y11162131D01*
X3503472Y11160353D01*
X3504437Y11077397D01*
X3512565Y11071453D01*
X3519322Y11071453D01*
X3527450Y11077397D01*
X3529584Y11160252D01*
X3540912Y11166602D01*
X3545484Y11162030D01*
X3545603Y11152022D01*
X3568852Y11152022D01*
X3570732Y11161115D01*
X3575608Y11162944D01*
X3583584Y11160099D01*
X3583673Y11156492D01*
X3636619Y11156492D01*
X3639667Y11161420D01*
X3647084Y11161420D01*
X3649878Y11158677D01*
X3649878Y11110163D01*
X3672992Y11110163D01*
X3673500Y11156950D01*
X3677056Y11162487D01*
X3677056Y11153292D01*
X3700119Y11153292D01*
X3700119Y11159185D01*
X3707434Y11162995D01*
X3712667Y11161115D01*
X3712667Y11149228D01*
X3710127Y11142624D01*
X3704945Y11142624D01*
X3700119Y11153292D01*
X3677056Y11153292D01*
X3677107Y11139424D01*
X3685489Y11134191D01*
X3685489Y11127943D01*
X3677107Y11112347D01*
X3677056Y11103914D01*
X3672992Y11110163D01*
X3649878Y11110163D01*
X3649878Y11096853D01*
X3643325Y11090300D01*
X3639870Y11090300D01*
X3637584Y11096193D01*
X3636619Y11156492D01*
X3583673Y11156492D01*
X3585159Y11098631D01*
X3580688Y11090300D01*
X3572713Y11090300D01*
X3569411Y11095532D01*
X3568852Y11152022D01*
X3545603Y11152022D01*
X3546449Y11085068D01*
X3554120Y11073485D01*
X3565144Y11070640D01*
X3595471Y11070793D01*
X3604310Y11078768D01*
X3608476Y11089233D01*
X3611168Y11082477D01*
X3625087Y11070844D01*
X3663289Y11071555D01*
X3672890Y11080546D01*
X3672992Y11093450D01*
X3677056Y11099698D01*
X3677090Y11097209D01*
X3700119Y11097209D01*
X3700119Y11110264D01*
X3706622Y11119612D01*
X3710127Y11119612D01*
X3712667Y11112957D01*
X3712667Y11095329D01*
X3707688Y11090351D01*
X3700119Y11097209D01*
X3677090Y11097209D01*
X3677259Y11085068D01*
X3687419Y11072622D01*
X3724198Y11069777D01*
X3737762Y11075416D01*
X3738168Y11085068D01*
X3737457Y11177016D01*
X3735273Y11180572D01*
X3726281Y11184178D01*
X3701135Y11184483D01*
X3686810Y11180368D01*
X3675329Y11169345D01*
X3662781Y11183416D01*
X3622344Y11183416D01*
X3608070Y11167821D01*
X3601821Y11179911D01*
G37*
G36*
X2311958Y11184483D02*
G01*
X2304288Y11177524D01*
X2304288Y11113312D01*
X2312670Y11104930D01*
X2324760Y11104930D01*
X2334615Y11112906D01*
X2335682Y11144300D01*
X2351379Y11136884D01*
X2372309Y11134191D01*
X2377541Y11127181D01*
X2377541Y11109248D01*
X2390546Y11094466D01*
X2395575Y11094466D01*
X2407869Y11107318D01*
X2409291Y11154308D01*
X2401011Y11164468D01*
X2356662Y11166094D01*
X2335682Y11155121D01*
X2335225Y11160404D01*
X2335885Y11169040D01*
X2331567Y11180368D01*
X2322068Y11184178D01*
G37*
G36*
X2216962Y11184483D02*
G01*
X2205939Y11175796D01*
X2205939Y11114024D01*
X2215946Y11104626D01*
X2229612Y11105997D01*
X2238400Y11117783D01*
X2237333Y11172748D01*
X2235149Y11179657D01*
X2225852Y11184178D01*
G37*
G36*
X2166670Y11184483D02*
G01*
X2158288Y11177117D01*
X2153818Y11152022D01*
X2157222Y11112550D01*
X2166670Y11104930D01*
X2178354Y11104930D01*
X2189530Y11118189D01*
X2188159Y11176457D01*
X2178304Y11184483D01*
G37*
G36*
X2271877Y11184331D02*
G01*
X2259685Y11182350D01*
X2254097Y11177676D01*
X2254097Y11113617D01*
X2265121Y11104930D01*
X2276805Y11104930D01*
X2285492Y11115954D01*
X2285492Y11169548D01*
X2281326Y11180368D01*
G37*
G36*
X3171291Y11165636D02*
G01*
X3158083Y11161014D01*
X3155543Y11150904D01*
X3160318Y11145164D01*
X3179470Y11140338D01*
X3295802Y11141354D01*
X3302508Y11135817D01*
X3302508Y11105692D01*
X3312617Y11096193D01*
X3321456Y11098987D01*
X3327755Y11108588D01*
X3326587Y11160302D01*
X3316122Y11165586D01*
G37*
G36*
X3122726Y11165636D02*
G01*
X3046171Y11165586D01*
X3036773Y11163046D01*
X3032252Y11147856D01*
X3033623Y11077854D01*
X3041040Y11070386D01*
X3116834Y11069116D01*
X3128264Y11073841D01*
X3132734Y11083645D01*
X3132836Y11155527D01*
G37*
G36*
X2102358Y11165636D02*
G01*
X2088286Y11161623D01*
X2082596Y11154105D01*
X2082495Y11110163D01*
X2090826Y11097615D01*
X2090826Y11092891D01*
X2069134Y11090808D01*
X2061565Y11081461D01*
X2061565Y11071250D01*
X2071827Y11060988D01*
X2134006Y11060988D01*
X2141372Y11066373D01*
X2143607Y11083340D01*
X2132126Y11092383D01*
X2105507Y11092383D01*
X2105507Y11097768D01*
X2113889Y11114176D01*
X2113889Y11127181D01*
X2119122Y11134191D01*
X2140000Y11136833D01*
X2149652Y11142878D01*
X2148382Y11160302D01*
X2137918Y11165586D01*
G37*
G36*
X1538274Y11146790D02*
G01*
X1523695Y11140694D01*
X1519631Y11130026D01*
X1522323Y11083696D01*
X1531620Y11077549D01*
X1666392Y11078768D01*
X1672336Y11086896D01*
X1672336Y11137747D01*
X1664970Y11144148D01*
X1658721Y11146485D01*
G37*
G36*
X2362758Y11092383D02*
G01*
X2348230Y11086338D01*
X2348230Y11067491D01*
X2357526Y11060988D01*
X2420467Y11061141D01*
X2428697Y11067389D01*
X2428697Y11084458D01*
X2419299Y11092129D01*
G37*
G36*
X2166467Y11088217D02*
G01*
X2157831Y11077194D01*
X2157831Y10925606D01*
X2166620Y10917631D01*
X2324608Y10916462D01*
X2334666Y10924590D01*
X2334666Y11080191D01*
X2324760Y11088217D01*
G37*
G36*
X3349599Y11073180D02*
G01*
X3273653Y11072520D01*
X3264814Y11064544D01*
X3264814Y10988192D01*
X3272840Y10978337D01*
X3356762Y10978337D01*
X3364229Y10985804D01*
X3365550Y11061344D01*
X3359099Y11071148D01*
G37*
G36*
X4220464Y11063224D02*
G01*
X4062374Y11062055D01*
X4056887Y11056620D01*
X4055770Y11001349D01*
X4053687Y10991900D01*
X4040886Y11001349D01*
X3992676Y11002772D01*
X3980535Y10991138D01*
X3980535Y10614507D01*
X4013860Y10614507D01*
X4014063Y10967720D01*
X4017467Y10971123D01*
X4040174Y10973663D01*
X4051808Y10979556D01*
X4055872Y10977016D01*
X4055872Y10956036D01*
X4068267Y10943640D01*
X4222851Y10944860D01*
X4231640Y10952835D01*
X4231690Y10969955D01*
X4234230Y10979404D01*
X4236872Y10979048D01*
X4249420Y10973308D01*
X4268520Y10973104D01*
X4276648Y10967161D01*
X4277664Y10616590D01*
X4270756Y10608970D01*
X4253636Y10608868D01*
X4235399Y10600639D01*
X4231640Y10602925D01*
X4231640Y10623804D01*
X4220870Y10633811D01*
X4079951Y10635132D01*
X4065930Y10632338D01*
X4055465Y10622584D01*
X4057599Y10606532D01*
X4052315Y10593882D01*
X4049826Y10600385D01*
X4039362Y10607192D01*
X4019854Y10608513D01*
X4013860Y10614507D01*
X3980535Y10614507D01*
X3980535Y10588853D01*
X3992270Y10577576D01*
X4038193Y10577576D01*
X4048556Y10584688D01*
X4051503Y10589056D01*
X4055567Y10584891D01*
X4056989Y10523270D01*
X4065270Y10517124D01*
X4086199Y10514736D01*
X4223664Y10515854D01*
X4231640Y10525709D01*
X4231640Y10583621D01*
X4235602Y10586059D01*
X4249420Y10577576D01*
X4292092Y10577576D01*
X4302556Y10581589D01*
X4307382Y10590580D01*
X4307789Y10992510D01*
X4296308Y11002416D01*
X4252366Y11002416D01*
X4235246Y10994136D01*
X4231640Y10996371D01*
X4231640Y11054435D01*
G37*
G36*
X3549243Y11063071D02*
G01*
X3538728Y11052556D01*
X3539591Y10998352D01*
X3534308Y10991951D01*
X3521913Y11002416D01*
X3473907Y11002416D01*
X3463645Y10992104D01*
X3463645Y10966907D01*
X3494278Y10966907D01*
X3498646Y10971276D01*
X3523183Y10973257D01*
X3532886Y10982401D01*
X3539998Y10977930D01*
X3540048Y10953902D01*
X3551783Y10943793D01*
X3697732Y10943793D01*
X3709466Y10948263D01*
X3712616Y10953242D01*
X3712718Y10972038D01*
X3715258Y10981486D01*
X3717899Y10981232D01*
X3727805Y10974374D01*
X3752494Y10971479D01*
X3758996Y10966094D01*
X3757828Y10616285D01*
X3752087Y10609326D01*
X3730447Y10606379D01*
X3719322Y10600690D01*
X3717442Y10595356D01*
X3713835Y10598759D01*
X3712210Y10627918D01*
X3703370Y10634065D01*
X3549243Y10634065D01*
X3538423Y10623296D01*
X3540861Y10602772D01*
X3534308Y10596219D01*
X3528517Y10604449D01*
X3514902Y10608614D01*
X3501085Y10608259D01*
X3495040Y10614355D01*
X3494278Y10966907D01*
X3463645Y10966907D01*
X3463645Y10587837D01*
X3473907Y10577576D01*
X3521913Y10577576D01*
X3534003Y10587736D01*
X3539388Y10584383D01*
X3538778Y10527436D01*
X3543198Y10519156D01*
X3558844Y10514838D01*
X3700322Y10514787D01*
X3712667Y10521188D01*
X3712718Y10582808D01*
X3716375Y10588599D01*
X3730853Y10577576D01*
X3777284Y10577576D01*
X3789070Y10587685D01*
X3789070Y10992307D01*
X3777284Y11002416D01*
X3732072Y11002416D01*
X3716375Y10991748D01*
X3713734Y10994390D01*
X3713226Y11051997D01*
X3709517Y11058245D01*
X3701186Y11062970D01*
G37*
G36*
X1530197Y11063071D02*
G01*
X1521663Y11053927D01*
X1521663Y11031778D01*
X1534312Y11025276D01*
X1666392Y11026444D01*
X1672336Y11034572D01*
X1672336Y11054435D01*
X1661312Y11063071D01*
G37*
G36*
X2358948Y11044275D02*
G01*
X2348687Y11034826D01*
X2346147Y11023600D01*
X2356256Y11011814D01*
X2419045Y11011814D01*
X2429865Y11021974D01*
X2429865Y11034014D01*
X2418791Y11044275D01*
G37*
G36*
X2075992Y11044275D02*
G01*
X2063699Y11037874D01*
X2061057Y11027410D01*
X2066239Y11014964D01*
X2081784Y11010341D01*
X2134666Y11011814D01*
X2141220Y11018367D01*
X2143658Y11033506D01*
X2132888Y11044275D01*
G37*
G36*
X1532686Y11012881D02*
G01*
X1521460Y11004042D01*
X1522679Y10980470D01*
X1534922Y10974628D01*
X1660296Y10975340D01*
X1672336Y10981588D01*
X1672336Y11000587D01*
X1667865Y11008918D01*
X1658721Y11012576D01*
G37*
G36*
X2895498Y11011103D02*
G01*
X2847340Y11008715D01*
X2836875Y11008614D01*
X2764332Y11009731D01*
X2755849Y10999266D01*
X2758744Y10959490D01*
X2765247Y10952226D01*
X2859887Y10951616D01*
X2897581Y10952378D01*
X2904744Y10959490D01*
X2905556Y11000384D01*
G37*
G36*
X1943303Y11008156D02*
G01*
X1907743Y11006429D01*
X1900174Y10997438D01*
X1902002Y10955324D01*
X1904949Y10942523D01*
X1898345Y10937036D01*
X1898345Y10930534D01*
X1905254Y10922863D01*
X1899970Y10906810D01*
X1899361Y10873536D01*
X1906625Y10862462D01*
X1926082Y10859566D01*
X1953768Y10862106D01*
X1961083Y10871047D01*
X1961083Y10909503D01*
X1954936Y10917631D01*
X1954834Y10923676D01*
X1963928Y10933328D01*
X1954834Y10943031D01*
X1954834Y10951667D01*
X1961083Y10956848D01*
X1961083Y10999774D01*
X1955088Y11004804D01*
G37*
G36*
X2389073Y10993577D02*
G01*
X2357983Y10991951D01*
X2348230Y10985550D01*
X2348230Y10969548D01*
X2357069Y10961573D01*
X2419756Y10961573D01*
X2429865Y10973358D01*
X2429865Y10982756D01*
X2423922Y10990884D01*
G37*
G36*
X2074367Y10991951D02*
G01*
X2064207Y10988090D01*
X2061464Y10980928D01*
X2064156Y10966653D01*
X2076754Y10960150D01*
X2134666Y10961573D01*
X2141372Y10968329D01*
X2143658Y10985093D01*
X2133854Y10991951D01*
G37*
G36*
X3043478Y10979404D02*
G01*
X3033623Y10971377D01*
X3032302Y10895736D01*
X3042818Y10885220D01*
X3123590Y10885322D01*
X3131972Y10891672D01*
X3133344Y10968786D01*
X3122726Y10979404D01*
G37*
G36*
X1529842Y10962640D02*
G01*
X1519021Y10951819D01*
X1521612Y10932312D01*
X1532128Y10923066D01*
X1661058Y10923981D01*
X1672336Y10931347D01*
X1672336Y10950346D01*
X1667510Y10959490D01*
X1662887Y10962589D01*
G37*
G36*
X3306826Y10952175D02*
G01*
X3302508Y10944098D01*
X3302457Y10915548D01*
X3298494Y10909249D01*
X3162452Y10907166D01*
X3155797Y10900511D01*
X3158439Y10889945D01*
X3168751Y10885220D01*
X3312718Y10885220D01*
X3324402Y10889640D01*
X3327552Y10894618D01*
X3327603Y10942472D01*
X3318510Y10952175D01*
G37*
G36*
X2395321Y10945317D02*
G01*
X2359253Y10944656D01*
X2348230Y10937443D01*
X2348230Y10919358D01*
X2355799Y10912500D01*
X2414168Y10911382D01*
X2424938Y10914430D01*
X2429865Y10925149D01*
X2429865Y10932769D01*
X2421331Y10943590D01*
G37*
G36*
X2110740Y10945063D02*
G01*
X2073046Y10943386D01*
X2062581Y10936071D01*
X2061362Y10923727D01*
X2071217Y10913059D01*
X2092960Y10910163D01*
X2092960Y10907877D01*
X2083663Y10900308D01*
X2081428Y10857382D01*
X2086254Y10846003D01*
X2095957Y10839196D01*
X2135835Y10839196D01*
X2149449Y10847476D01*
X2149449Y10859465D01*
X2140966Y10867085D01*
X2114905Y10871809D01*
X2112416Y10894720D01*
X2107234Y10904372D01*
X2094230Y10909858D01*
X2135327Y10912957D01*
X2143150Y10920780D01*
X2143150Y10934700D01*
X2133752Y10943539D01*
G37*
G36*
X2947822Y10928096D02*
G01*
X2676347Y10927537D01*
X2665272Y10919307D01*
X2665272Y10806480D01*
X2691434Y10806480D01*
X2691434Y10897412D01*
X2693974Y10904067D01*
X2707132Y10903610D01*
X2713062Y10901934D01*
X2737459Y10901934D01*
X2737459Y10901629D01*
X2782468Y10901375D01*
X2776694Y10900257D01*
X2790850Y10900257D01*
X2801315Y10903610D01*
X2851556Y10903610D01*
X2859241Y10901273D01*
X2905963Y10901222D01*
X2888030Y10899597D01*
X2872486Y10901273D01*
X2859241Y10901273D01*
X2862021Y10900410D01*
X2853690Y10896955D01*
X2830982Y10881004D01*
X2817164Y10881004D01*
X2795930Y10899851D01*
X2790850Y10900257D01*
X2776694Y10900257D01*
X2773019Y10899546D01*
X2765755Y10901476D01*
X2759456Y10901476D01*
X2752039Y10899546D01*
X2746908Y10901629D01*
X2737459Y10901629D01*
X2737459Y10899851D01*
X2735376Y10899851D01*
X2735376Y10901934D01*
X2713062Y10901934D01*
X2717596Y10900613D01*
X2707132Y10897260D01*
X2699816Y10890859D01*
X2699816Y10816082D01*
X2713431Y10807649D01*
X2797149Y10808817D01*
X2820162Y10826597D01*
X2830017Y10826597D01*
X2846628Y10813440D01*
X2862021Y10807954D01*
X2940202Y10807801D01*
X2950921Y10811865D01*
X2958439Y10824210D01*
X2955290Y10863478D01*
X2958592Y10875772D01*
X2954985Y10892536D01*
X2946298Y10899851D01*
X2916428Y10900359D01*
X2922676Y10901680D01*
X2956610Y10903305D01*
X2965602Y10900003D01*
X2965602Y10806480D01*
X2959658Y10798352D01*
X2697378Y10798352D01*
X2691434Y10806480D01*
X2665272Y10806480D01*
X2665272Y10784890D01*
X2672740Y10777423D01*
X2977083Y10776305D01*
X2988462Y10781030D01*
X2991459Y10789970D01*
X2990392Y10919764D01*
X2984296Y10926013D01*
G37*
G36*
X1536547Y10914481D02*
G01*
X1524863Y10910062D01*
X1521714Y10905083D01*
X1521663Y10883341D01*
X1530959Y10876838D01*
X1664665Y10876838D01*
X1672336Y10883747D01*
X1672336Y10905337D01*
X1667103Y10911941D01*
X1660804Y10914176D01*
G37*
G36*
X2395321Y10907979D02*
G01*
X2389784Y10906150D01*
X2385872Y10906150D01*
X2377541Y10892536D01*
X2377541Y10875264D01*
X2372309Y10871149D01*
X2353462Y10868609D01*
X2336952Y10860125D01*
X2333802Y10865256D01*
X2336139Y10882172D01*
X2329891Y10897209D01*
X2319985Y10899089D01*
X2306828Y10895685D01*
X2304084Y10888522D01*
X2304135Y10824260D01*
X2291740Y10807141D01*
X2291740Y10794187D01*
X2299919Y10780776D01*
X2311654Y10774730D01*
X2367584Y10775391D01*
X2379827Y10789970D01*
X2382367Y10800181D01*
X2376525Y10817047D01*
X2361844Y10826953D01*
X2340559Y10824311D01*
X2336088Y10829747D01*
X2333193Y10849254D01*
X2337663Y10856976D01*
X2337765Y10849813D01*
X2355951Y10839196D01*
X2397912Y10839196D01*
X2408936Y10847832D01*
X2408936Y10893298D01*
X2404821Y10904169D01*
G37*
G36*
X3615182Y10904067D02*
G01*
X3590239Y10897616D01*
X3560927Y10883798D01*
X3536187Y10861141D01*
X3522979Y10840212D01*
X3513226Y10813034D01*
X3513025Y10791291D01*
X3543452Y10791291D01*
X3547465Y10816285D01*
X3557117Y10838129D01*
X3580688Y10859668D01*
X3598621Y10868152D01*
X3615385Y10872622D01*
X3640480Y10872216D01*
X3656177Y10868558D01*
X3682949Y10851591D01*
X3700119Y10828934D01*
X3708958Y10805210D01*
X3707231Y10769041D01*
X3693769Y10741863D01*
X3681222Y10728401D01*
X3661562Y10714888D01*
X3634282Y10707319D01*
X3618077Y10707319D01*
X3592880Y10713872D01*
X3581857Y10720679D01*
X3560673Y10738408D01*
X3547414Y10763250D01*
X3543452Y10791291D01*
X3513025Y10791291D01*
X3512820Y10769041D01*
X3520744Y10746028D01*
X3530244Y10727080D01*
X3558844Y10697464D01*
X3579774Y10686999D01*
X3607003Y10677296D01*
X3648862Y10677398D01*
X3680917Y10690860D01*
X3699256Y10702950D01*
X3718661Y10722102D01*
X3729685Y10741812D01*
X3739642Y10766958D01*
X3738067Y10817656D01*
X3728059Y10842294D01*
X3716324Y10860836D01*
X3694887Y10881410D01*
X3676446Y10892282D01*
X3653028Y10900511D01*
X3627932Y10903407D01*
G37*
G36*
X4119676Y10901883D02*
G01*
X4094581Y10892434D01*
X4076344Y10882782D01*
X4050588Y10856925D01*
X4034840Y10825073D01*
X4032345Y10811002D01*
X4063187Y10811002D01*
X4076700Y10838129D01*
X4093006Y10856976D01*
X4120692Y10871098D01*
X4157370Y10872470D01*
X4176014Y10868050D01*
X4197146Y10854334D01*
X4210050Y10840212D01*
X4218381Y10825530D01*
X4225391Y10804956D01*
X4225340Y10775340D01*
X4218990Y10754461D01*
X4208983Y10739780D01*
X4195013Y10725048D01*
X4181856Y10715701D01*
X4155287Y10707370D01*
X4134154Y10707319D01*
X4109923Y10713669D01*
X4092498Y10725810D01*
X4074922Y10743946D01*
X4063237Y10769041D01*
X4063187Y10811002D01*
X4032345Y10811002D01*
X4028694Y10790123D01*
X4033215Y10762792D01*
X4040073Y10743946D01*
X4051808Y10722356D01*
X4078325Y10697565D01*
X4096664Y10687304D01*
X4123791Y10677144D01*
X4165752Y10677499D01*
X4192930Y10688116D01*
X4213860Y10699800D01*
X4237888Y10724134D01*
X4246219Y10740440D01*
X4256786Y10768533D01*
X4256786Y10813542D01*
X4246321Y10841329D01*
X4235145Y10859058D01*
X4210659Y10883036D01*
X4192930Y10892536D01*
X4169918Y10901730D01*
G37*
G36*
X2263394Y10897768D02*
G01*
X2254097Y10891266D01*
X2254097Y10826902D01*
X2260650Y10820349D01*
X2279091Y10820349D01*
X2285796Y10830560D01*
X2284425Y10891824D01*
X2276297Y10897768D01*
G37*
G36*
X2214321Y10897768D02*
G01*
X2205939Y10889386D01*
X2205939Y10829645D01*
X2212441Y10820349D01*
X2228240Y10820349D01*
X2237181Y10829848D01*
X2237740Y10884154D01*
X2233422Y10895228D01*
X2227935Y10897412D01*
G37*
G36*
X2164892Y10897768D02*
G01*
X2157171Y10892129D01*
X2154529Y10848594D01*
X2157526Y10826038D01*
X2161489Y10822127D01*
X2175764Y10818876D01*
X2184806Y10822228D01*
X2189073Y10838129D01*
X2188057Y10889843D01*
X2178304Y10897768D01*
G37*
G36*
X4502658Y10891469D02*
G01*
X4486757Y10887049D01*
X4482795Y10876584D01*
X4482795Y10807598D01*
X4493056Y10797336D01*
X4658106Y10797336D01*
X4666488Y10804652D01*
X4668418Y10875772D01*
X4665726Y10886236D01*
X4655413Y10891418D01*
G37*
G36*
X1536141Y10864291D02*
G01*
X1522272Y10858500D01*
X1519631Y10845444D01*
X1522171Y10832998D01*
X1528572Y10827664D01*
X1664309Y10827664D01*
X1672336Y10837519D01*
X1672336Y10855096D01*
X1667103Y10861700D01*
X1660804Y10863935D01*
G37*
G36*
X3198926Y10847222D02*
G01*
X3190544Y10844580D01*
X3133852Y10845749D01*
X3123895Y10837672D01*
X3124860Y10796320D01*
X3131413Y10789107D01*
X3148685Y10786668D01*
X3182162Y10790478D01*
X3198622Y10784992D01*
X3207308Y10789920D01*
X3262934Y10788446D01*
X3271113Y10795863D01*
X3271113Y10837062D01*
X3262172Y10846003D01*
X3207308Y10843971D01*
G37*
G36*
X1658721Y10813948D02*
G01*
X1531061Y10812881D01*
X1523796Y10809478D01*
X1519732Y10794746D01*
X1522222Y10782503D01*
X1530959Y10776407D01*
X1662988Y10776407D01*
X1672336Y10782909D01*
X1672336Y10801756D01*
X1667865Y10810087D01*
G37*
G36*
X4493869Y10768025D02*
G01*
X4482795Y10757763D01*
X4482795Y10689132D01*
X4487164Y10676534D01*
X4497628Y10671759D01*
X4654600Y10671759D01*
X4666945Y10678160D01*
X4667250Y10723016D01*
X4668824Y10757916D01*
X4658766Y10768025D01*
G37*
G36*
X1539443Y10763808D02*
G01*
X1523796Y10759490D01*
X1519529Y10751566D01*
X1519529Y10737443D01*
X1528013Y10728299D01*
X1537360Y10725962D01*
X1662226Y10727232D01*
X1670202Y10737088D01*
X1670202Y10751566D01*
X1665782Y10759897D01*
X1656638Y10763554D01*
G37*
G36*
X2831338Y10752785D02*
G01*
X2766466Y10752734D01*
X2757373Y10745317D01*
X2758186Y10700410D01*
X2764840Y10693704D01*
X2805480Y10694162D01*
X2847340Y10694924D01*
X2879852Y10692231D01*
X2898597Y10695025D01*
X2904896Y10701375D01*
X2904896Y10741101D01*
X2900070Y10750245D01*
X2896158Y10752785D01*
G37*
G36*
X3121761Y10738967D02*
G01*
X3041040Y10737697D01*
X3033623Y10730230D01*
X3032252Y10660380D01*
X3034690Y10647273D01*
X3045307Y10642447D01*
X3122726Y10642447D01*
X3133496Y10653217D01*
X3131769Y10730890D01*
G37*
G36*
X3309823Y10738459D02*
G01*
X3165043Y10737697D01*
X3158540Y10732312D01*
X3156407Y10724134D01*
X3164687Y10713618D01*
X3291789Y10713618D01*
X3302050Y10709706D01*
X3303574Y10675772D01*
X3309823Y10671810D01*
X3319983Y10671759D01*
X3327603Y10678668D01*
X3327603Y10727436D01*
X3322370Y10734598D01*
G37*
G36*
X1648917Y10716768D02*
G01*
X1531620Y10715904D01*
X1521663Y10709351D01*
X1521663Y10688320D01*
X1532128Y10677804D01*
X1663496Y10679074D01*
X1672336Y10687050D01*
X1672336Y10708894D01*
X1666493Y10713770D01*
G37*
G36*
X2305050Y10705795D02*
G01*
X2290114Y10700867D01*
X2287625Y10691622D01*
X2287574Y10655503D01*
X2295550Y10645597D01*
X2363927Y10647019D01*
X2380691Y10647172D01*
X2416556Y10643971D01*
X2431948Y10649051D01*
X2437942Y10657586D01*
X2435555Y10695838D01*
X2431034Y10701528D01*
X2422550Y10705084D01*
X2351379Y10703001D01*
G37*
G36*
X2164130Y10704576D02*
G01*
X2036064Y10704169D01*
X2028088Y10694314D01*
X2028088Y10654995D01*
X2036064Y10647019D01*
X2064004Y10644022D01*
X2083511Y10647273D01*
X2093975Y10646918D01*
X2166010Y10645597D01*
X2173528Y10653064D01*
X2175611Y10690453D01*
X2173325Y10699953D01*
G37*
G36*
X2972917Y10671200D02*
G01*
X2672740Y10670692D01*
X2665272Y10663224D01*
X2664133Y10548518D01*
X2691434Y10548518D01*
X2691434Y10642244D01*
X2700680Y10648696D01*
X2956153Y10648492D01*
X2965602Y10641939D01*
X2965602Y10548518D01*
X2960928Y10545673D01*
X2696464Y10545470D01*
X2691434Y10548518D01*
X2664133Y10548518D01*
X2663952Y10530281D01*
X2672232Y10520019D01*
X2975000Y10518851D01*
X2984347Y10521137D01*
X2990951Y10531246D01*
X2991104Y10661548D01*
X2983992Y10669422D01*
G37*
G36*
X1537919Y10663224D02*
G01*
X1524000Y10657433D01*
X1519072Y10639298D01*
X1521561Y10606024D01*
X1529740Y10597845D01*
X1551990Y10595203D01*
X1659534Y10595406D01*
X1671269Y10604246D01*
X1671269Y10654842D01*
X1665833Y10660227D01*
X1631492Y10662361D01*
G37*
G36*
X3274009Y10646664D02*
G01*
X3265881Y10640720D01*
X3264611Y10559796D01*
X3270758Y10551414D01*
X3354070Y10550144D01*
X3364229Y10558373D01*
X3365550Y10636097D01*
X3355035Y10646664D01*
G37*
G36*
X2778302Y10640009D02*
G01*
X2751074Y10638282D01*
X2710078Y10638282D01*
X2699816Y10628020D01*
X2699816Y10556748D01*
X2711145Y10549331D01*
X2779623Y10547858D01*
X2798876Y10550753D01*
X2815082Y10567111D01*
X2833014Y10567111D01*
X2855112Y10550652D01*
X2876753Y10547908D01*
X2948432Y10549331D01*
X2957118Y10557205D01*
X2956966Y10630865D01*
X2950311Y10638282D01*
X2857042Y10638282D01*
X2845866Y10634014D01*
X2830677Y10621518D01*
X2820619Y10621518D01*
X2799232Y10637113D01*
G37*
G36*
X4653330Y10639856D02*
G01*
X4490770Y10639298D01*
X4482592Y10629239D01*
X4483252Y10556392D01*
X4491888Y10548366D01*
X4504740Y10546334D01*
X4661001Y10547248D01*
X4668469Y10556443D01*
X4668774Y10628833D01*
X4662830Y10637977D01*
G37*
G36*
X1449425Y10621467D02*
G01*
X1428496Y10611612D01*
X1417218Y10599572D01*
X1410716Y10583976D01*
X1410716Y10563555D01*
X1422552Y10547248D01*
X1438757Y10534904D01*
X1462582Y10533176D01*
X1477467Y10538053D01*
X1494180Y10554817D01*
X1499006Y10578033D01*
X1496263Y10593273D01*
X1485595Y10608868D01*
X1468272Y10618978D01*
X1459890Y10621060D01*
G37*
G36*
X2152599Y10603738D02*
G01*
X2127453Y10603230D01*
X2116632Y10598861D01*
X2111959Y10601756D01*
X2039874Y10602722D01*
X2030171Y10593578D01*
X2030171Y10552480D01*
X2038096Y10544505D01*
X2170633Y10544556D01*
X2178761Y10553242D01*
X2178761Y10589971D01*
X2173833Y10600690D01*
X2165146Y10602620D01*
G37*
G36*
X1530756Y10585958D02*
G01*
X1521510Y10576153D01*
X1519021Y10554970D01*
X1522018Y10526979D01*
X1529994Y10519003D01*
X1661312Y10519003D01*
X1672336Y10527639D01*
X1672336Y10577271D01*
X1661312Y10585958D01*
G37*
G36*
X3046171Y10550347D02*
G01*
X3032556Y10542066D01*
X3032556Y10467136D01*
X3040583Y10457281D01*
X3125012Y10457789D01*
X3131362Y10464139D01*
X3132531Y10539069D01*
X3127756Y10545470D01*
X3119374Y10550245D01*
G37*
G36*
X3313531Y10525252D02*
G01*
X3302508Y10516616D01*
X3302457Y10486542D01*
X3298494Y10480294D01*
X3163519Y10479074D01*
X3156000Y10472318D01*
X3156000Y10466679D01*
X3164382Y10458297D01*
X3318306Y10458297D01*
X3327603Y10464800D01*
X3327603Y10516616D01*
X3316579Y10525252D01*
G37*
G36*
X4499305Y10519003D02*
G01*
X4487062Y10512653D01*
X4482795Y10504627D01*
X4482795Y10429138D01*
X4495139Y10422737D01*
X4658106Y10422737D01*
X4667097Y10430052D01*
X4669028Y10504068D01*
X4664913Y10514939D01*
X4655413Y10518749D01*
G37*
G36*
X1639468Y10512704D02*
G01*
X1631594Y10504017D01*
X1629410Y10463326D01*
X1616862Y10445699D01*
X1623110Y10434624D01*
X1639874Y10428782D01*
X1652727Y10431170D01*
X1661871Y10439654D01*
X1661871Y10504322D01*
X1653489Y10512704D01*
G37*
G36*
X2100021Y10502239D02*
G01*
X2092248Y10496550D01*
X2077262Y10500055D01*
X2052116Y10500055D01*
X2035860Y10496296D01*
X2029510Y10489946D01*
X2029866Y10454182D01*
X2032457Y10446004D01*
X2046579Y10441330D01*
X2114905Y10444073D01*
X2121204Y10443819D01*
X2161336Y10441025D01*
X2176170Y10445902D01*
X2178761Y10458805D01*
X2178761Y10491114D01*
X2169922Y10499090D01*
X2110028Y10499090D01*
X2106879Y10502239D01*
G37*
G36*
X1564589Y10496194D02*
G01*
X1440434Y10494924D01*
X1416100Y10478211D01*
X1403553Y10459466D01*
X1401927Y10433913D01*
X1412748Y10412526D01*
X1426565Y10402011D01*
X1445260Y10393527D01*
X1568704Y10393476D01*
X1591767Y10404195D01*
X1601571Y10413288D01*
X1609039Y10427970D01*
X1608480Y10464190D01*
X1595780Y10480294D01*
G37*
G36*
X2896616Y10495534D02*
G01*
X2764739Y10495432D01*
X2757373Y10490047D01*
X2757068Y10448899D01*
X2758897Y10443514D01*
X2772003Y10436758D01*
X2805480Y10437672D01*
X2853639Y10437469D01*
X2891282Y10436656D01*
X2900629Y10441635D01*
X2904642Y10449204D01*
X2905658Y10488218D01*
G37*
G36*
X1093673Y10495534D02*
G01*
X1056030Y10493705D01*
X1030173Y10481665D01*
X1019860Y10465612D01*
X1014780Y10449610D01*
X1003706Y10452354D01*
X995273Y10460228D01*
X865581Y10461447D01*
X858266Y10465054D01*
X858266Y10424820D01*
X860653Y10424820D01*
X869797Y10429849D01*
X993800Y10431119D01*
X1012088Y10439298D01*
X1016660Y10434218D01*
X1023619Y10415219D01*
X1041450Y10400334D01*
X1054760Y10393426D01*
X1132128Y10393426D01*
X1143914Y10397896D01*
X1165656Y10414711D01*
X1172616Y10432948D01*
X1171092Y10463936D01*
X1156462Y10483037D01*
X1137615Y10492638D01*
G37*
G36*
X1195527Y10460380D02*
G01*
X1182624Y10449560D01*
X1182624Y10437469D01*
X1193444Y10430408D01*
X1381963Y10431272D01*
X1393748Y10437368D01*
X1396492Y10441787D01*
X1394053Y10450982D01*
X1380439Y10460380D01*
G37*
G36*
X4082034Y10420807D02*
G01*
X4071569Y10415320D01*
X4068724Y10375646D01*
X4072890Y10364673D01*
X4083253Y10359948D01*
X4119727Y10359948D01*
X4132579Y10363657D01*
X4197146Y10357967D01*
X4210456Y10360355D01*
X4217314Y10367975D01*
X4219194Y10402874D01*
X4215688Y10415422D01*
X4205478Y10420756D01*
X4138523Y10418165D01*
X4128058Y10418419D01*
G37*
G36*
X3565144Y10420299D02*
G01*
X3554018Y10416133D01*
X3551529Y10402824D01*
X3551986Y10371683D01*
X3556457Y10361930D01*
X3565144Y10359948D01*
X3573526Y10359034D01*
X3640480Y10362285D01*
X3662934Y10357866D01*
X3692398Y10360609D01*
X3700119Y10368330D01*
X3700119Y10411460D01*
X3694887Y10418064D01*
X3688587Y10420045D01*
G37*
G36*
X3257499Y10418318D02*
G01*
X3217773Y10415625D01*
X3203092Y10416286D01*
X3186379Y10416184D01*
X3175914Y10416387D01*
X3134258Y10416387D01*
X3124606Y10410088D01*
X3124606Y10366552D01*
X3135833Y10357713D01*
X3205175Y10360152D01*
X3217773Y10359847D01*
X3262477Y10357612D01*
X3271113Y10366248D01*
X3271113Y10406278D01*
X3266643Y10414609D01*
G37*
G36*
X4649165Y10391190D02*
G01*
X4495647Y10390276D01*
X4483811Y10381488D01*
X4482693Y10303611D01*
X4495139Y10297160D01*
X4658106Y10297160D01*
X4667961Y10305186D01*
X4669383Y10374934D01*
X4664303Y10387228D01*
X4653330Y10389616D01*
G37*
G36*
X5798007Y10388701D02*
G01*
X5701741Y10387177D01*
X5358333Y10387177D01*
X5351119Y10381894D01*
X5350205Y9895535D01*
X5358536Y9889236D01*
X5842355Y9889083D01*
X5850331Y9897922D01*
X5850331Y10378338D01*
X5842508Y10387025D01*
G37*
G36*
X2830068Y10372496D02*
G01*
X2816453Y10369804D01*
X2805480Y10351719D01*
X2791917Y10351566D01*
X2791917Y10347604D01*
X2803398Y10342118D01*
X2803546Y10340086D01*
X2829966Y10340086D01*
X2833624Y10349484D01*
X2856839Y10349484D01*
X2861472Y10339324D01*
X2882950Y10339324D01*
X2892806Y10347401D01*
X2906725Y10347401D01*
X2909519Y10338612D01*
X2904744Y10333888D01*
X2887827Y10334294D01*
X2882950Y10339324D01*
X2861472Y10339324D01*
X2861818Y10338562D01*
X2853639Y10332466D01*
X2834792Y10335158D01*
X2829966Y10340086D01*
X2803546Y10340086D01*
X2805480Y10312857D01*
X2818079Y10311384D01*
X2918714Y10309504D01*
X2929991Y10318394D01*
X2929991Y10362031D01*
X2921660Y10370413D01*
X2887573Y10370413D01*
X2872486Y10365994D01*
X2855722Y10372191D01*
G37*
G36*
X2040788Y10370870D02*
G01*
X2027631Y10357764D01*
X2030171Y10351262D01*
X2030171Y10318089D01*
X2038908Y10309352D01*
X2106523Y10309860D01*
X2170023Y10309352D01*
X2178761Y10318089D01*
X2178761Y10360152D01*
X2167991Y10370870D01*
X2121204Y10368229D01*
X2087727Y10368381D01*
G37*
G36*
X2696667Y10356799D02*
G01*
X2646781Y10355783D01*
X2648966Y10353598D01*
X2692501Y10351770D01*
X2759456Y10354665D01*
G37*
G36*
X2562758Y10356799D02*
G01*
X2512517Y10355122D01*
X2503170Y10348417D01*
X2504186Y10342168D01*
X2513126Y10340898D01*
X2518816Y10353852D01*
X2564841Y10352633D01*
X2640177Y10354564D01*
G37*
G36*
X2608783Y10329672D02*
G01*
X2535529Y10328046D01*
X2528214Y10321645D01*
X2528214Y10284968D01*
X2630779Y10284968D01*
X2630830Y10289844D01*
X2645359Y10299242D01*
X2647492Y10299242D01*
X2647492Y10291165D01*
X2636012Y10283139D01*
X2630779Y10284968D01*
X2528214Y10284968D01*
X2528214Y10264444D01*
X2632862Y10264444D01*
X2632862Y10269728D01*
X2636012Y10271658D01*
X2647492Y10262463D01*
X2647492Y10253218D01*
X2644597Y10253218D01*
X2632862Y10264444D01*
X2528214Y10264444D01*
X2528214Y10233660D01*
X2535123Y10226040D01*
X2654808Y10226090D01*
X2661005Y10230002D01*
X2659735Y10244836D01*
X2662224Y10244836D01*
X2671114Y10239603D01*
X2686202Y10226040D01*
X2775153Y10226040D01*
X2783535Y10234371D01*
X2783535Y10322052D01*
X2774238Y10328554D01*
X2691739Y10328554D01*
X2682036Y10324846D01*
X2670403Y10313974D01*
X2662428Y10309707D01*
X2659786Y10313924D01*
X2662072Y10321239D01*
X2658110Y10327487D01*
G37*
G36*
X3195777Y10316667D02*
G01*
X3185464Y10311993D01*
X3140913Y10315854D01*
X3127248Y10310164D01*
X3124758Y10306151D01*
X3124149Y10265562D01*
X3131769Y10257129D01*
X3188462Y10258145D01*
X3197860Y10253065D01*
X3207308Y10258298D01*
X3260801Y10257028D01*
X3271113Y10263784D01*
X3271113Y10306964D01*
X3263798Y10313517D01*
X3253333Y10315498D01*
X3236569Y10315549D01*
X3211576Y10311485D01*
G37*
G36*
X2829458Y10303459D02*
G01*
X2805938Y10295178D01*
X2804566Y10293807D01*
X2802382Y10248087D01*
X2804464Y10241483D01*
X2916428Y10240365D01*
X2927553Y10244632D01*
X2929991Y10252202D01*
X2930753Y10289844D01*
X2924962Y10298988D01*
X2916428Y10303154D01*
X2903067Y10303459D01*
X2892602Y10299446D01*
X2887827Y10290556D01*
X2894736Y10282885D01*
X2905912Y10280091D01*
X2909011Y10275214D01*
X2909062Y10264140D01*
X2902458Y10261600D01*
X2836672Y10261600D01*
X2831642Y10266629D01*
X2831642Y10275417D01*
X2836672Y10280446D01*
X2849524Y10280446D01*
X2865120Y10267543D01*
X2872232Y10268915D01*
X2880207Y10282580D01*
X2876499Y10298176D01*
X2866186Y10303408D01*
G37*
G36*
X4497120Y10267848D02*
G01*
X4488027Y10263022D01*
X4482896Y10256367D01*
X4482795Y10184384D01*
X4492853Y10172649D01*
X4660493Y10172649D01*
X4667961Y10180116D01*
X4668977Y10253116D01*
X4665014Y10263530D01*
X4651248Y10267492D01*
G37*
G36*
X2167940Y10264190D02*
G01*
X2121204Y10261396D01*
X2108657Y10262158D01*
X2089810Y10261650D01*
X2039569Y10264140D01*
X2030120Y10256367D01*
X2029104Y10215219D01*
X2039416Y10206837D01*
X2094484Y10208158D01*
X2101240Y10202519D01*
X2116988Y10208615D01*
X2159812Y10206126D01*
X2173325Y10208920D01*
X2178761Y10216337D01*
X2178761Y10253421D01*
G37*
G36*
X3818331Y10241940D02*
G01*
X3499510Y10241737D01*
X3487724Y10232898D01*
X3486607Y10092639D01*
X3494684Y10082682D01*
X3826052Y10082682D01*
X3834028Y10092537D01*
X3833977Y10231272D01*
X3826713Y10240314D01*
G37*
G36*
X2805684Y10236200D02*
G01*
X2802178Y10234015D01*
X2804871Y10215930D01*
X2785313Y10207294D01*
X2528366Y10207193D01*
X2509012Y10213746D01*
X2503119Y10211511D01*
X2503119Y10205720D01*
X2510637Y10198912D01*
X2798267Y10198252D01*
X2806547Y10205720D01*
X2806547Y10213238D01*
X2810560Y10215727D01*
X2826410Y10207853D01*
X2853639Y10198100D01*
X2855620Y10196474D01*
X2853418Y10195102D01*
X2877718Y10195102D01*
X2877718Y10202976D01*
X2886049Y10211358D01*
X2904083Y10211358D01*
X2909062Y10206329D01*
X2909062Y10195052D01*
X2902458Y10192512D01*
X2887116Y10192613D01*
X2877718Y10195102D01*
X2853418Y10195102D01*
X2849422Y10192613D01*
X2820416Y10192512D01*
X2810713Y10183418D01*
X2810713Y10178592D01*
X2821076Y10168890D01*
X2920593Y10169753D01*
X2929382Y10175494D01*
X2931922Y10205821D01*
X2929382Y10224262D01*
X2913329Y10234371D01*
X2882950Y10234117D01*
X2854604Y10219029D01*
X2834792Y10227919D01*
X2811780Y10232390D01*
G37*
G36*
X3198926Y10213594D02*
G01*
X3186379Y10210800D01*
X3133902Y10211714D01*
X3124149Y10203840D01*
X3124758Y10162438D01*
X3129127Y10157155D01*
X3144164Y10152227D01*
X3177997Y10155326D01*
X3262325Y10153802D01*
X3271113Y10161778D01*
X3271113Y10205008D01*
X3260394Y10212019D01*
X3205073Y10209479D01*
G37*
G36*
X1062024Y10169499D02*
G01*
X1039926Y10162946D01*
X1021486Y10145979D01*
X1016558Y10128707D01*
X1012799Y10123728D01*
X1005789Y10126319D01*
X995324Y10133736D01*
X858266Y10135006D01*
X858266Y10098379D01*
X860653Y10098379D01*
X868273Y10102443D01*
X990092Y10102850D01*
X1013307Y10115245D01*
X1019403Y10100614D01*
X1019403Y10097008D01*
X1034643Y10079228D01*
X1058113Y10068509D01*
X1127302Y10066477D01*
X1154379Y10079177D01*
X1165656Y10091064D01*
X1172159Y10106609D01*
X1172159Y10128707D01*
X1167587Y10145471D01*
X1147622Y10164775D01*
X1131366Y10169093D01*
G37*
G36*
X1568704Y10169245D02*
G01*
X1438960Y10168483D01*
X1413865Y10151719D01*
X1401927Y10129469D01*
X1401368Y10109860D01*
X1411782Y10089388D01*
X1422247Y10079634D01*
X1443177Y10068407D01*
X1568704Y10068001D01*
X1589633Y10077653D01*
X1601571Y10088930D01*
X1609191Y10103815D01*
X1606804Y10138410D01*
X1595729Y10154970D01*
X1579727Y10165842D01*
G37*
G36*
X2250948Y10154615D02*
G01*
X1950770Y10153802D01*
X1944624Y10147554D01*
X1941982Y10136632D01*
X1952345Y10124541D01*
X2252827Y10123932D01*
X2266645Y10137749D01*
X2263902Y10145471D01*
X2259431Y10151160D01*
G37*
G36*
X4515205Y10141966D02*
G01*
X4490516Y10138867D01*
X4482795Y10129316D01*
X4482846Y10061752D01*
X4485386Y10052151D01*
X4497222Y10046055D01*
X4652416Y10046055D01*
X4666386Y10051897D01*
X4668824Y10065918D01*
X4668875Y10131348D01*
X4660239Y10139172D01*
G37*
G36*
X1372920Y10135006D02*
G01*
X1190650Y10132872D01*
X1182624Y10123017D01*
X1182674Y10114076D01*
X1185773Y10109454D01*
X1196238Y10103713D01*
X1376222Y10102240D01*
X1395018Y10112298D01*
X1396288Y10122560D01*
X1385874Y10132314D01*
G37*
G36*
X1632356Y10133939D02*
G01*
X1620520Y10127843D01*
X1617827Y10120782D01*
X1620469Y10111943D01*
X1631492Y10100157D01*
X1630324Y10065004D01*
X1638909Y10048138D01*
X1646174Y10047833D01*
X1637792Y10044226D01*
X1528572Y10043972D01*
X1521917Y10036606D01*
X1520952Y9985095D01*
X1531061Y9975240D01*
X1600098Y9974376D01*
X1663954Y9974884D01*
X1672336Y9983266D01*
X1672336Y10037419D01*
X1662988Y10043972D01*
X1654200Y10043972D01*
X1651609Y10046512D01*
X1661871Y10062718D01*
X1661871Y10123678D01*
X1651558Y10133939D01*
G37*
G36*
X2296210Y10118344D02*
G01*
X2182876Y10117175D01*
X2175611Y10105288D01*
X2177694Y9967569D01*
X2190648Y9963404D01*
X2304135Y9963404D01*
X2310892Y9970109D01*
X2310434Y10106710D01*
X2307844Y10113467D01*
G37*
G36*
X2017877Y10118242D02*
G01*
X1905406Y10117175D01*
X1896211Y10108641D01*
X1896211Y9971379D01*
X1905050Y9963404D01*
X2023465Y9963404D01*
X2032254Y9971379D01*
X2031949Y10105694D01*
X2025751Y10115346D01*
G37*
G36*
X4047490Y10108844D02*
G01*
X4039108Y10100462D01*
X4039108Y9617049D01*
X4070502Y9617049D01*
X4070502Y10072420D01*
X4075531Y10077450D01*
X4086758Y10077450D01*
X4091736Y10071404D01*
X4087266Y10063073D01*
X4087266Y9903561D01*
X4097528Y9893300D01*
X4251553Y9892842D01*
X4262018Y9893604D01*
X4270349Y9901783D01*
X4269740Y10063835D01*
X4268266Y10076383D01*
X4283710Y10077653D01*
X4289552Y10068001D01*
X4289196Y9614611D01*
X4281068Y9608667D01*
X4078884Y9608667D01*
X4070502Y9617049D01*
X4039108Y9617049D01*
X4039108Y9557105D01*
X4049928Y9546945D01*
X4305960Y9545929D01*
X4316069Y9551111D01*
X4321352Y9565792D01*
X4321556Y10094518D01*
X4315460Y10106355D01*
X4310126Y10108488D01*
G37*
G36*
X3017723Y10108844D02*
G01*
X3007766Y10098887D01*
X3007766Y9617862D01*
X3038805Y9617862D01*
X3039872Y10074198D01*
X3051606Y10078313D01*
X3058718Y10073741D01*
X3056839Y10065918D01*
X3055416Y9908997D01*
X3057702Y9899650D01*
X3069996Y9893300D01*
X3229559Y9893300D01*
X3237280Y9897414D01*
X3241751Y9911080D01*
X3240024Y10063835D01*
X3238703Y10076383D01*
X3251250Y10077399D01*
X3258565Y10073030D01*
X3258565Y9617049D01*
X3250184Y9608667D01*
X3047339Y9608667D01*
X3038805Y9617862D01*
X3007766Y9617862D01*
X3007766Y9558274D01*
X3017520Y9546945D01*
X3270046Y9545675D01*
X3285947Y9550298D01*
X3289960Y9560814D01*
X3289858Y10097312D01*
X3282645Y10106253D01*
X3276346Y10108488D01*
G37*
G36*
X2146300Y10104475D02*
G01*
X2135835Y10102291D01*
X2129739Y10096296D01*
X2127453Y10061803D01*
X2120950Y10060533D01*
X2093264Y10079126D01*
X2073503Y10094163D01*
X2059787Y10094163D01*
X2053031Y10091572D01*
X2047544Y10080599D01*
X2046971Y10035590D01*
X2080107Y10035590D01*
X2081428Y10044684D01*
X2085898Y10046157D01*
X2088743Y10043261D01*
X2088743Y10035590D01*
X2046971Y10035590D01*
X2046782Y10021976D01*
X2049424Y9993630D01*
X2062225Y9986975D01*
X2077770Y9991648D01*
X2105406Y10010190D01*
X2119477Y10020960D01*
X2128520Y10020960D01*
X2128520Y9988245D01*
X2140610Y9976662D01*
X2152192Y9978034D01*
X2160168Y9988804D01*
X2159812Y10092588D01*
X2155444Y10100716D01*
G37*
G36*
X2841091Y10096195D02*
G01*
X2760624Y10095230D01*
X2752445Y10086848D01*
X2749448Y10028275D01*
X2752242Y9953040D01*
X2761234Y9943490D01*
X2845257Y9943592D01*
X2855061Y9951161D01*
X2854655Y10017810D01*
X2857804Y10012984D01*
X2880817Y10005161D01*
X2886049Y10001859D01*
X2886049Y9563455D01*
X2881020Y9558477D01*
X2861614Y9558477D01*
X2854350Y9566452D01*
X2855010Y9592970D01*
X2854655Y9598456D01*
X2831642Y9608616D01*
X2831084Y9618116D01*
X2832049Y9647377D01*
X2822956Y9658908D01*
X2794000Y9658908D01*
X2785618Y9650526D01*
X2785618Y9608820D01*
X2777540Y9604502D01*
X2761284Y9604502D01*
X2752140Y9595967D01*
X2752140Y9567773D01*
X2745638Y9558477D01*
X2695651Y9558477D01*
X2680970Y9541713D01*
X2577185Y9541713D01*
X2562961Y9531248D01*
X2559761Y9531248D01*
X2559710Y9593376D01*
X2556967Y9600641D01*
X2546756Y9604502D01*
X2467762Y9604502D01*
X2456738Y9595002D01*
X2456738Y9459163D01*
X2465070Y9452406D01*
X2518816Y9449663D01*
X2553258Y9452356D01*
X2560320Y9460179D01*
X2559405Y9518751D01*
X2561793Y9522612D01*
X2579471Y9512300D01*
X2747365Y9513011D01*
X2752445Y9509912D01*
X2751124Y9459722D01*
X2760980Y9451746D01*
X2778709Y9451746D01*
X2785211Y9444431D01*
X2788310Y9419285D01*
X2787954Y9417253D01*
X2768193Y9412224D01*
X2757932Y9402013D01*
X2763672Y9389973D01*
X2786380Y9382709D01*
X2789732Y9377426D01*
X2789783Y9364116D01*
X2800807Y9355480D01*
X2808833Y9355480D01*
X2819095Y9365742D01*
X2819095Y9378188D01*
X2830118Y9386874D01*
X2839720Y9386874D01*
X2846324Y9393428D01*
X2846324Y9404908D01*
X2841040Y9412122D01*
X2822244Y9417659D01*
X2821025Y9425736D01*
X2831642Y9435693D01*
X2831642Y9444075D01*
X2838602Y9451746D01*
X2845358Y9451746D01*
X2854655Y9458248D01*
X2854655Y9511944D01*
X2863342Y9514179D01*
X2896768Y9510826D01*
X2911754Y9514179D01*
X2918104Y9520529D01*
X2917190Y10024059D01*
X2911195Y10033304D01*
X2897581Y10037064D01*
X2872181Y10034016D01*
X2863037Y10029139D01*
X2863037Y10025583D01*
X2854655Y10023398D01*
X2854604Y10086848D01*
X2851404Y10091877D01*
G37*
G36*
X2468575Y10096195D02*
G01*
X2458110Y10090912D01*
X2456942Y10032746D01*
X2452471Y10027361D01*
X2435098Y10036403D01*
X2406853Y10035743D01*
X2398268Y10031171D01*
X2394305Y10020655D01*
X2394305Y9526879D01*
X2400401Y9515043D01*
X2410002Y9512452D01*
X2437180Y9512452D01*
X2450795Y9520732D01*
X2450795Y9533178D01*
X2426716Y9547199D01*
X2426716Y9856673D01*
X2446223Y9858908D01*
X2466492Y9877450D01*
X2493213Y9903206D01*
X2492857Y9915245D01*
X2490165Y9930434D01*
X2505913Y9942474D01*
X2553157Y9944557D01*
X2558084Y9949535D01*
X2561691Y9971735D01*
X2559202Y9994798D01*
X2568194Y10006177D01*
X2737358Y10007346D01*
X2744470Y10014458D01*
X2744470Y10027412D01*
X2737358Y10034524D01*
X2577947Y10035743D01*
X2568143Y10029291D01*
X2559710Y10029291D01*
X2558542Y10090912D01*
X2548077Y10096195D01*
G37*
G36*
X1447342Y10031272D02*
G01*
X1424533Y10019893D01*
X1412138Y10004247D01*
X1410208Y9981082D01*
X1417269Y9962540D01*
X1432407Y9949281D01*
X1447088Y9943134D01*
X1464106Y9942880D01*
X1481480Y9951770D01*
X1494078Y9967010D01*
X1498803Y9985857D01*
X1494028Y10008971D01*
X1484477Y10017810D01*
X1472590Y10026192D01*
X1459890Y10031069D01*
G37*
G36*
X3985768Y10024059D02*
G01*
X3330752Y10023144D01*
X3321456Y10020909D01*
X3316732Y10012070D01*
X3315959Y9667595D01*
X3343960Y9667595D01*
X3344570Y9994747D01*
X3348736Y9998964D01*
X3954373Y9998964D01*
X3966921Y9997795D01*
X3976370Y9995763D01*
X3976217Y9668306D01*
X3970731Y9661093D01*
X3347770Y9660839D01*
X3343960Y9667595D01*
X3315959Y9667595D01*
X3315919Y9649510D01*
X3319526Y9638334D01*
X3332835Y9632289D01*
X3983075Y9631527D01*
X3997299Y9636201D01*
X4001465Y9643973D01*
X4001465Y10013746D01*
X3995165Y10022738D01*
G37*
G36*
X4494987Y10016744D02*
G01*
X4482795Y10004501D01*
X4482846Y9936175D01*
X4485233Y9927285D01*
X4495088Y9922002D01*
X4655413Y9921951D01*
X4665065Y9925050D01*
X4669028Y9935413D01*
X4669028Y10001910D01*
X4664252Y10012426D01*
X4653330Y10016439D01*
G37*
G36*
X1534414Y9968636D02*
G01*
X1523796Y9963810D01*
X1521409Y9956292D01*
X1521206Y9909759D01*
X1530756Y9899548D01*
X1662023Y9899548D01*
X1672336Y9909810D01*
X1672336Y9959441D01*
X1667103Y9966045D01*
X1660804Y9968280D01*
G37*
G36*
X2252014Y9959187D02*
G01*
X1956663Y9959035D01*
X1953768Y9954920D01*
X1942033Y9947452D01*
X1943303Y9934092D01*
X1957984Y9926777D01*
X2250948Y9926777D01*
X2263952Y9934752D01*
X2266188Y9946233D01*
G37*
G36*
X2627630Y9935108D02*
G01*
X2594152Y9924440D01*
X2575306Y9915448D01*
X2558542Y9903612D01*
X2541117Y9890150D01*
X2521712Y9866071D01*
X2506776Y9839909D01*
X2495143Y9804349D01*
X2492349Y9768789D01*
X2495088Y9752025D01*
X2525318Y9752025D01*
X2525674Y9798812D01*
X2533091Y9821062D01*
X2546096Y9846208D01*
X2559608Y9864648D01*
X2584399Y9886086D01*
X2608783Y9897110D01*
X2636266Y9905847D01*
X2679954Y9905695D01*
X2692908Y9900056D01*
X2706878Y9896957D01*
X2735834Y9879685D01*
X2763621Y9852101D01*
X2773680Y9835032D01*
X2779725Y9818979D01*
X2785821Y9798050D01*
X2789732Y9775037D01*
X2783433Y9738715D01*
X2773070Y9711131D01*
X2761538Y9693452D01*
X2751074Y9681464D01*
X2725978Y9661652D01*
X2705049Y9650577D01*
X2675737Y9641535D01*
X2636774Y9641738D01*
X2601772Y9652914D01*
X2576372Y9668306D01*
X2551277Y9692589D01*
X2534970Y9720630D01*
X2525318Y9752025D01*
X2495088Y9752025D01*
X2499055Y9727742D01*
X2506980Y9708083D01*
X2516276Y9689236D01*
X2538984Y9659975D01*
X2566111Y9637826D01*
X2594152Y9623501D01*
X2629255Y9612477D01*
X2692501Y9614103D01*
X2719679Y9623907D01*
X2746756Y9638385D01*
X2771038Y9657486D01*
X2793542Y9685324D01*
X2808071Y9714382D01*
X2817774Y9745726D01*
X2818028Y9798050D01*
X2808681Y9832187D01*
X2789072Y9869220D01*
X2772054Y9889490D01*
X2746298Y9909708D01*
X2719679Y9923373D01*
X2686202Y9934803D01*
G37*
G36*
X1956714Y9897465D02*
G01*
X1944420Y9891115D01*
X1941830Y9880752D01*
X1944166Y9874656D01*
X1960930Y9866071D01*
X2250440Y9866071D01*
X2264308Y9874656D01*
X2266848Y9882682D01*
X2262428Y9890963D01*
X2253132Y9897465D01*
G37*
G36*
X4515205Y9892487D02*
G01*
X4492193Y9890861D01*
X4483811Y9882682D01*
X4483608Y9804603D01*
X4491126Y9797034D01*
X4659833Y9797034D01*
X4667961Y9802977D01*
X4669028Y9877602D01*
X4663795Y9889998D01*
G37*
G36*
X1534464Y9884918D02*
G01*
X1523644Y9880803D01*
X1519326Y9869424D01*
X1522069Y9853117D01*
X1536141Y9847224D01*
X1660804Y9847326D01*
X1671269Y9852558D01*
X1672589Y9870998D01*
X1670100Y9880904D01*
X1660804Y9884664D01*
G37*
G36*
X2302052Y9859975D02*
G01*
X2183079Y9858756D01*
X2176881Y9852456D01*
X2176018Y9715042D01*
X2182418Y9707575D01*
X2294890Y9705594D01*
X2309520Y9710216D01*
X2310638Y9851390D01*
G37*
G36*
X2018639Y9859619D02*
G01*
X1903120Y9858756D01*
X1896211Y9853015D01*
X1896211Y9716211D01*
X1901596Y9708896D01*
X1916125Y9705644D01*
X2024430Y9707575D01*
X2032254Y9715398D01*
X2032254Y9847529D01*
X2027783Y9855860D01*
G37*
G36*
X2151227Y9847224D02*
G01*
X2140000Y9847173D01*
X2129586Y9839096D01*
X2128113Y9803282D01*
X2119833Y9803282D01*
X2098192Y9818065D01*
X2071522Y9836759D01*
X2058111Y9836759D01*
X2047951Y9825990D01*
X2047951Y9787026D01*
X2080006Y9787026D01*
X2083562Y9790582D01*
X2089150Y9787077D01*
X2087676Y9779254D01*
X2081479Y9779254D01*
X2080006Y9787026D01*
X2047951Y9787026D01*
X2047951Y9738055D01*
X2057806Y9730028D01*
X2073249Y9730028D01*
X2118410Y9763556D01*
X2128520Y9763556D01*
X2128520Y9730028D01*
X2136902Y9721697D01*
X2149703Y9721697D01*
X2157425Y9725812D01*
X2160219Y9742424D01*
X2160168Y9814814D01*
X2159914Y9836200D01*
G37*
G36*
X1539443Y9834676D02*
G01*
X1523746Y9830308D01*
X1521307Y9818979D01*
X1519732Y9813899D01*
X1523949Y9801758D01*
X1534414Y9797034D01*
X1662988Y9797034D01*
X1672336Y9803536D01*
X1672336Y9825532D01*
X1667103Y9832238D01*
X1658721Y9834219D01*
G37*
G36*
X4260342Y9801352D02*
G01*
X4093718Y9800183D01*
X4088282Y9794748D01*
X4088282Y9624415D01*
X4100880Y9618116D01*
X4245254Y9616795D01*
X4262018Y9619335D01*
X4269587Y9625025D01*
X4269943Y9793528D01*
G37*
G36*
X3065830Y9801199D02*
G01*
X3055569Y9790938D01*
X3055569Y9629343D01*
X3059734Y9621570D01*
X3073349Y9617252D01*
X3211474Y9616440D01*
X3229559Y9616541D01*
X3241954Y9628428D01*
X3239668Y9793884D01*
X3230880Y9801199D01*
G37*
G36*
X1652422Y9786264D02*
G01*
X1530146Y9785502D01*
X1520647Y9776053D01*
X1521104Y9759442D01*
X1527911Y9749078D01*
X1541526Y9746589D01*
X1664309Y9747859D01*
X1672336Y9757714D01*
X1672336Y9775291D01*
X1666900Y9782708D01*
G37*
G36*
X4494987Y9765639D02*
G01*
X4482795Y9753396D01*
X4482795Y9682480D01*
X4491431Y9671456D01*
X4659833Y9671456D01*
X4667961Y9677400D01*
X4669434Y9743744D01*
X4664760Y9761118D01*
X4653330Y9765284D01*
G37*
G36*
X1650339Y9737902D02*
G01*
X1532940Y9737394D01*
X1521663Y9729978D01*
X1521663Y9706965D01*
X1535226Y9698685D01*
X1661312Y9698685D01*
X1672336Y9707321D01*
X1672336Y9729520D01*
X1666748Y9734143D01*
G37*
G36*
X2245715Y9699701D02*
G01*
X1957984Y9698634D01*
X1948586Y9696500D01*
X1941830Y9686137D01*
X1944522Y9675368D01*
X1958898Y9669373D01*
X2252167Y9669373D01*
X2264054Y9675520D01*
X2266848Y9686544D01*
X2260295Y9696500D01*
G37*
G36*
X1591767Y9687153D02*
G01*
X1554073Y9686848D01*
X1530502Y9686086D01*
X1522069Y9678771D01*
X1519478Y9660737D01*
X1531772Y9648444D01*
X1661312Y9648444D01*
X1672336Y9657130D01*
X1672336Y9677095D01*
X1663496Y9685070D01*
G37*
G36*
X4497222Y9642144D02*
G01*
X4485335Y9636048D01*
X4483201Y9626447D01*
X4482541Y9557156D01*
X4490770Y9546945D01*
X4580077Y9545675D01*
X4584039Y9541713D01*
X4577638Y9541713D01*
X4572254Y9530181D01*
X4570476Y9399676D01*
X4576622Y9384995D01*
X4590542Y9382404D01*
X4668672Y9383725D01*
X4681982Y9393580D01*
X4686401Y9389160D01*
X4685538Y9333382D01*
X4695444Y9324086D01*
X4769866Y9323578D01*
X4780991Y9331858D01*
X4781956Y9496704D01*
X4773879Y9507169D01*
X4695850Y9507169D01*
X4685741Y9495434D01*
X4685741Y9405569D01*
X4678680Y9402826D01*
X4677003Y9407855D01*
X4665065Y9414052D01*
X4612792Y9414052D01*
X4602073Y9418167D01*
X4602073Y9530791D01*
X4589729Y9543999D01*
X4594707Y9545777D01*
X4660493Y9546945D01*
X4667961Y9554413D01*
X4668621Y9628225D01*
X4664913Y9638080D01*
X4655413Y9641890D01*
G37*
G36*
X2251252Y9640163D02*
G01*
X1953056Y9639046D01*
X1942084Y9628682D01*
X1943303Y9615982D01*
X1959000Y9610750D01*
X2233168Y9610750D01*
X2233168Y9606330D01*
X2228951Y9608921D01*
X2216861Y9601758D01*
X2210155Y9604349D01*
X2210155Y9610750D01*
X1959000Y9610750D01*
X1960067Y9610394D01*
X2196947Y9609734D01*
X2192375Y9602419D01*
X2185568Y9602419D01*
X2175611Y9594545D01*
X2175611Y9457182D01*
X2188972Y9449409D01*
X2303272Y9449765D01*
X2311196Y9457690D01*
X2310333Y9595104D01*
X2302103Y9603435D01*
X2235250Y9602368D01*
X2235250Y9610750D01*
X2250948Y9610801D01*
X2265578Y9618116D01*
X2265578Y9630460D01*
G37*
G36*
X1641957Y9636912D02*
G01*
X1533601Y9635693D01*
X1521663Y9629495D01*
X1521714Y9609734D01*
X1524762Y9605111D01*
X1533906Y9600285D01*
X1661312Y9600285D01*
X1672336Y9608972D01*
X1672336Y9627209D01*
X1665732Y9633762D01*
X1656638Y9635794D01*
G37*
G36*
X1972614Y9606889D02*
G01*
X1957984Y9604095D01*
X1911908Y9602368D01*
X1902815Y9600285D01*
X1896211Y9593732D01*
X1896211Y9457994D01*
X1904593Y9449612D01*
X1930755Y9449257D01*
X2020366Y9449308D01*
X2031187Y9457436D01*
X2031187Y9593884D01*
X2023770Y9601352D01*
X1976780Y9602724D01*
G37*
G36*
X2143353Y9589820D02*
G01*
X2132888Y9585096D01*
X2128520Y9572498D01*
X2128520Y9546590D01*
X2125878Y9543948D01*
X2110790Y9550298D01*
X2102358Y9557969D01*
X2071116Y9579406D01*
X2057349Y9579406D01*
X2049221Y9571228D01*
X2046325Y9555734D01*
X2047202Y9525863D01*
X2078228Y9525863D01*
X2079701Y9530181D01*
X2086000Y9531451D01*
X2090521Y9526016D01*
X2084324Y9517634D01*
X2078228Y9525863D01*
X2047202Y9525863D01*
X2048510Y9483140D01*
X2055368Y9472676D01*
X2073249Y9472676D01*
X2120341Y9506407D01*
X2127453Y9505035D01*
X2129688Y9471609D01*
X2133092Y9466122D01*
X2143455Y9462211D01*
X2153412Y9464700D01*
X2160219Y9475114D01*
X2159812Y9572752D01*
X2155494Y9585096D01*
X2146300Y9589566D01*
G37*
G36*
X1534007Y9587738D02*
G01*
X1522171Y9581642D01*
X1519529Y9574834D01*
X1519631Y9561576D01*
X1522679Y9557004D01*
X1531823Y9552178D01*
X1658721Y9552228D01*
X1669186Y9557512D01*
X1670405Y9581235D01*
X1658721Y9587585D01*
G37*
G36*
X3838701Y9575190D02*
G01*
X3828796Y9567214D01*
X3827627Y9427616D01*
X3833368Y9419793D01*
X3851808Y9417050D01*
X3934155Y9417202D01*
X3945128Y9427514D01*
X3943908Y9567214D01*
X3934002Y9575190D01*
G37*
G36*
X3614572Y9575190D02*
G01*
X3603142Y9565386D01*
X3602837Y9426702D01*
X3611879Y9417659D01*
X3710432Y9417202D01*
X3717899Y9424670D01*
X3719118Y9567875D01*
X3710127Y9575190D01*
G37*
G36*
X3388004Y9575190D02*
G01*
X3378911Y9570364D01*
X3375812Y9565792D01*
X3375761Y9425330D01*
X3384397Y9416034D01*
X3482797Y9417812D01*
X3492601Y9427057D01*
X3493008Y9534398D01*
X3490264Y9567418D01*
X3482492Y9575190D01*
G37*
G36*
X1531772Y9539630D02*
G01*
X1519021Y9526879D01*
X1521815Y9509252D01*
X1528064Y9503003D01*
X1661058Y9501784D01*
X1672336Y9510623D01*
X1672336Y9530588D01*
X1664970Y9536988D01*
X1658721Y9539274D01*
G37*
G36*
X6337655Y9537547D02*
G01*
X6319926Y9528962D01*
X6304127Y9513163D01*
X6298692Y9493656D01*
X6300571Y9471609D01*
X6310731Y9450679D01*
X6312814Y9331858D01*
X6324650Y9323019D01*
X6399631Y9323120D01*
X6409080Y9332569D01*
X6409486Y9391243D01*
X6414312Y9396069D01*
X6414312Y9391142D01*
X6430873Y9382658D01*
X6458254Y9382658D01*
X6458254Y9415932D01*
X6427927Y9413544D01*
X6411976Y9404807D01*
X6408674Y9410141D01*
X6409385Y9492538D01*
X6406997Y9501835D01*
X6379972Y9529724D01*
X6363055Y9537446D01*
G37*
G36*
X4833315Y9508185D02*
G01*
X4817160Y9505543D01*
X4809693Y9493199D01*
X4809032Y9334550D01*
X4819040Y9324543D01*
X4863134Y9321495D01*
X4896815Y9323070D01*
X4907584Y9333179D01*
X4907584Y9493402D01*
X4902708Y9504172D01*
X4891887Y9506508D01*
X4887722Y9507880D01*
G37*
G36*
X6268872Y9508134D02*
G01*
X6196787Y9507169D01*
X6188252Y9498685D01*
X6188049Y9335566D01*
X6188303Y9330436D01*
X6197752Y9324289D01*
X6263182Y9321495D01*
X6278321Y9326524D01*
X6282486Y9334246D01*
X6282486Y9495942D01*
X6278016Y9504273D01*
G37*
G36*
X6084722Y9508134D02*
G01*
X6068060Y9504273D01*
X6062726Y9496958D01*
X6062726Y9334855D01*
X6065316Y9328099D01*
X6077204Y9322003D01*
X6140297Y9322003D01*
X6154470Y9327896D01*
X6158890Y9336176D01*
X6157976Y9499650D01*
X6153099Y9504476D01*
X6139129Y9507778D01*
G37*
G36*
X5641086Y9508083D02*
G01*
X5574030Y9506356D01*
X5567172Y9503765D01*
X5562549Y9492538D01*
X5563616Y9331858D01*
X5575249Y9323171D01*
X5649010Y9323730D01*
X5656986Y9331756D01*
X5657392Y9494621D01*
X5654395Y9503968D01*
G37*
G36*
X5138826Y9508032D02*
G01*
X5068265Y9507067D01*
X5060340Y9497314D01*
X5060340Y9333179D01*
X5071160Y9323019D01*
X5147919Y9323019D01*
X5158841Y9333280D01*
X5157673Y9499650D01*
X5152796Y9504476D01*
G37*
G36*
X5965444Y9507880D02*
G01*
X5941060Y9504832D01*
X5937250Y9498838D01*
X5937199Y9330994D01*
X5945987Y9323019D01*
X6011265Y9321698D01*
X6025286Y9324289D01*
X6033465Y9332468D01*
X6033465Y9496856D01*
X6027115Y9505848D01*
X6017768Y9507677D01*
G37*
G36*
X5515508Y9507880D02*
G01*
X5446471Y9505899D01*
X5438902Y9503664D01*
X5434939Y9493300D01*
X5434939Y9333179D01*
X5445709Y9323019D01*
X5509006Y9321647D01*
X5522518Y9324187D01*
X5531104Y9331401D01*
X5531815Y9499752D01*
X5526735Y9505899D01*
G37*
G36*
X5264404Y9507880D02*
G01*
X5193893Y9507169D01*
X5185918Y9497314D01*
X5185918Y9332468D01*
X5193842Y9324543D01*
X5258511Y9321495D01*
X5272735Y9324543D01*
X5282184Y9333179D01*
X5282133Y9494621D01*
X5276850Y9505086D01*
G37*
G36*
X5389930Y9507829D02*
G01*
X5322976Y9506864D01*
X5315356Y9503460D01*
X5311495Y9493300D01*
X5311495Y9334195D01*
X5323992Y9321698D01*
X5396941Y9323019D01*
X5407304Y9332772D01*
X5407863Y9493504D01*
X5401513Y9505848D01*
G37*
G36*
X5831484Y9507728D02*
G01*
X5816295Y9504019D01*
X5811570Y9492538D01*
X5812688Y9331858D01*
X5824474Y9323019D01*
X5899048Y9323019D01*
X5907887Y9330994D01*
X5907887Y9496856D01*
X5901537Y9505899D01*
X5885891Y9507372D01*
G37*
G36*
X5762447Y9507626D02*
G01*
X5694730Y9507067D01*
X5686044Y9499193D01*
X5686044Y9330994D01*
X5694121Y9323679D01*
X5759754Y9322612D01*
X5776823Y9325762D01*
X5782310Y9333230D01*
X5782310Y9496856D01*
X5776010Y9505899D01*
G37*
G36*
X4979060Y9507220D02*
G01*
X4944872Y9507169D01*
X4934610Y9495231D01*
X4935169Y9333992D01*
X4944770Y9324340D01*
X4959502Y9321596D01*
X5022545Y9323019D01*
X5030012Y9330486D01*
X5032197Y9494621D01*
X5025390Y9505086D01*
X5013248Y9507220D01*
G37*
G36*
X4123232Y9491624D02*
G01*
X4105148Y9487560D01*
X4099814Y9480245D01*
X4099814Y9441891D01*
X4110431Y9430410D01*
X4165752Y9433356D01*
X4180382Y9432747D01*
X4188764Y9432950D01*
X4236872Y9430359D01*
X4248404Y9439452D01*
X4248404Y9479229D01*
X4243933Y9487560D01*
X4234789Y9491522D01*
X4190847Y9489135D01*
X4163618Y9488119D01*
G37*
G36*
X1534464Y9483140D02*
G01*
X1523847Y9479076D01*
X1520596Y9467443D01*
X1520596Y9428835D01*
X1530146Y9419285D01*
X1631492Y9418929D01*
X1664614Y9421012D01*
X1672336Y9428734D01*
X1672336Y9470288D01*
X1668373Y9480651D01*
X1660804Y9482632D01*
G37*
G36*
X1453642Y9443161D02*
G01*
X1436420Y9439859D01*
X1419758Y9426448D01*
X1410716Y9408363D01*
X1410766Y9394190D01*
X1415135Y9378391D01*
X1427073Y9364776D01*
X1445717Y9355480D01*
X1463192Y9355480D01*
X1483258Y9365640D01*
X1494028Y9379762D01*
X1499057Y9396577D01*
X1494028Y9420910D01*
X1475638Y9438741D01*
X1459890Y9442907D01*
G37*
G36*
X2253030Y9441230D02*
G01*
X1950262Y9440214D01*
X1942287Y9430359D01*
X1942287Y9422892D01*
X1950262Y9413036D01*
X2246731Y9411766D01*
X2262682Y9416389D01*
X2266035Y9425432D01*
X2263190Y9436049D01*
G37*
G36*
X1639874Y9408922D02*
G01*
X1528978Y9407245D01*
X1522272Y9403791D01*
X1519580Y9374784D01*
X1522272Y9348876D01*
X1532991Y9341866D01*
X1636166Y9341459D01*
X1646021Y9334550D01*
X1639468Y9334550D01*
X1631797Y9326016D01*
X1630019Y9285376D01*
X1617929Y9271609D01*
X1617929Y9265818D01*
X1620520Y9259062D01*
X1632356Y9252915D01*
X1650898Y9252915D01*
X1660804Y9260941D01*
X1662175Y9325102D01*
X1649069Y9336074D01*
X1655876Y9342932D01*
X1662988Y9342932D01*
X1672336Y9349435D01*
X1672336Y9403334D01*
X1667103Y9406737D01*
G37*
G36*
X2163826Y9401505D02*
G01*
X2133752Y9396882D01*
X2127656Y9393529D01*
X2146300Y9391294D01*
X2202789Y9391243D01*
X2233574Y9393529D01*
X2228799Y9398355D01*
X2188159Y9400743D01*
G37*
G36*
X2064715Y9400692D02*
G01*
X1960067Y9398965D01*
X1950364Y9392869D01*
X1956511Y9383420D01*
X1958441Y9373260D01*
X1959000Y9384690D01*
X1969973Y9391853D01*
X2104440Y9391142D01*
X2125370Y9393682D01*
X2114905Y9397847D01*
X2087727Y9397441D01*
G37*
G36*
X2237790Y9399422D02*
G01*
X2235352Y9393021D01*
X2248865Y9386570D01*
X2248255Y9281160D01*
X2247798Y9261398D01*
X2236825Y9254236D01*
X1974494Y9252762D01*
X1958593Y9263532D01*
X1952752Y9258706D01*
X1952752Y9249206D01*
X1959356Y9246666D01*
X1978914Y9246565D01*
X1984349Y9243110D01*
X1984080Y9242653D01*
X2027936Y9242653D01*
X2030425Y9246666D01*
X2046681Y9246666D01*
X2049068Y9242755D01*
X2041296Y9228836D01*
X2034336Y9227515D01*
X2031949Y9235135D01*
X2027936Y9242653D01*
X1984080Y9242653D01*
X1975510Y9228124D01*
X1975357Y9207195D01*
X1978406Y9193276D01*
X1996693Y9160967D01*
X1996693Y9157157D01*
X2003145Y9151772D01*
X2001926Y9140952D01*
X1980285Y9139732D01*
X1975307Y9133687D01*
X1977847Y9123527D01*
X1992426Y9118701D01*
X2027021Y9121648D01*
X2034336Y9125407D01*
X2034336Y9137243D01*
X2010816Y9182811D01*
X1998776Y9206941D01*
X1998776Y9214408D01*
X2003806Y9219438D01*
X2009444Y9219438D01*
X2010316Y9217355D01*
X2042718Y9217355D01*
X2042718Y9215272D01*
X2040636Y9215272D01*
X2040636Y9217355D01*
X2010316Y9217355D01*
X2015439Y9205112D01*
X2023872Y9202420D01*
X2038451Y9207703D01*
X2041652Y9204452D01*
X2042515Y9126982D01*
X2047392Y9121089D01*
X2059178Y9121089D01*
X2065731Y9127642D01*
X2065731Y9190482D01*
X2072792Y9216948D01*
X2061311Y9242450D01*
X2064004Y9246819D01*
X2251862Y9246311D01*
X2256485Y9249156D01*
X2255266Y9268561D01*
X2271014Y9277400D01*
X2275840Y9282226D01*
X2278634Y9302089D01*
X2279192Y9285020D01*
X2288590Y9276588D01*
X2293467Y9273844D01*
X2306066Y9284411D01*
X2308860Y9297111D01*
X2313127Y9295688D01*
X2318816Y9279128D01*
X2326284Y9273641D01*
X2336698Y9276283D01*
X2339797Y9281160D01*
X2339898Y9327438D01*
X2344166Y9331706D01*
X2364740Y9327489D01*
X2375458Y9332366D01*
X2375458Y9344710D01*
X2367026Y9347403D01*
X2343759Y9346336D01*
X2339949Y9352330D01*
X2339898Y9371380D01*
X2334869Y9376410D01*
X2323795Y9376410D01*
X2315819Y9367621D01*
X2311603Y9348165D01*
X2305354Y9348165D01*
X2303119Y9370568D01*
X2295144Y9376410D01*
X2291537Y9376410D01*
X2279192Y9370009D01*
X2279192Y9310827D01*
X2277211Y9312808D01*
X2276297Y9370161D01*
X2269794Y9375546D01*
X2254097Y9383623D01*
X2254097Y9385046D01*
X2258568Y9393377D01*
X2253538Y9399422D01*
G37*
G36*
X4116374Y9391446D02*
G01*
X4106367Y9388957D01*
X4099814Y9382353D01*
X4099814Y9340646D01*
X4110329Y9330080D01*
X4157370Y9332112D01*
X4188764Y9332112D01*
X4238193Y9329877D01*
X4248404Y9339478D01*
X4248404Y9384538D01*
X4238955Y9391243D01*
X4163618Y9388805D01*
G37*
G36*
X2420467Y9380474D02*
G01*
X2395372Y9378797D01*
X2385923Y9367774D01*
X2385923Y9327591D01*
X2406853Y9327591D01*
X2406853Y9353042D01*
X2409393Y9359646D01*
X2417064Y9359646D01*
X2419756Y9355277D01*
X2419400Y9301226D01*
X2410510Y9296450D01*
X2406904Y9302089D01*
X2406853Y9327591D01*
X2385923Y9327591D01*
X2385923Y9286646D01*
X2395321Y9275724D01*
X2411780Y9272016D01*
X2428798Y9275419D01*
X2441397Y9282176D01*
X2446070Y9282226D01*
X2451303Y9275927D01*
X2463190Y9275927D01*
X2467508Y9284055D01*
X2467508Y9353042D01*
X2470048Y9359646D01*
X2479598Y9359646D01*
X2482138Y9350248D01*
X2482189Y9280652D01*
X2487930Y9275876D01*
X2506268Y9275978D01*
X2549398Y9273438D01*
X2557526Y9280804D01*
X2557526Y9287814D01*
X2540762Y9301276D01*
X2540762Y9372041D01*
X2532684Y9376410D01*
X2525420Y9376410D01*
X2517749Y9369450D01*
X2517749Y9302851D01*
X2513431Y9294774D01*
X2503576Y9294774D01*
X2501087Y9304172D01*
X2500934Y9369044D01*
X2497886Y9373666D01*
X2488742Y9378492D01*
X2457399Y9378492D01*
X2444546Y9367672D01*
X2431796Y9376816D01*
G37*
G36*
X2156764Y9377680D02*
G01*
X2142134Y9375851D01*
X2133752Y9371533D01*
X2116988Y9358223D01*
X2109520Y9355531D01*
X2110740Y9370923D01*
X2100275Y9376308D01*
X1995119Y9376410D01*
X1981860Y9373768D01*
X1977288Y9365132D01*
X1977539Y9334042D01*
X2080717Y9334042D01*
X2092147Y9345015D01*
X2099208Y9345015D01*
X2099208Y9341154D01*
X2086356Y9328251D01*
X2082952Y9328251D01*
X2080717Y9334042D01*
X1977539Y9334042D01*
X1977755Y9308947D01*
X2082495Y9308947D01*
X2082495Y9313367D01*
X2086305Y9315754D01*
X2099208Y9302851D01*
X2099208Y9298990D01*
X2091893Y9299041D01*
X2082495Y9308947D01*
X1977755Y9308947D01*
X1978050Y9276994D01*
X1984248Y9270695D01*
X2093975Y9269425D01*
X2110740Y9274962D01*
X2109368Y9286392D01*
X2119376Y9286392D01*
X2132025Y9273997D01*
X2143455Y9269679D01*
X2216556Y9269679D01*
X2231034Y9275724D01*
X2231542Y9358630D01*
X2230729Y9369044D01*
X2224633Y9375343D01*
G37*
G36*
X1129284Y9317736D02*
G01*
X1053947Y9316415D01*
X1041806Y9311386D01*
X1026363Y9299143D01*
X1012850Y9271762D01*
X1010208Y9271762D01*
X995324Y9282023D01*
X858266Y9283293D01*
X858266Y9248241D01*
X867664Y9251696D01*
X997407Y9253982D01*
X1012494Y9265462D01*
X1014780Y9265462D01*
X1019911Y9243517D01*
X1036878Y9225889D01*
X1031290Y9208973D01*
X1028242Y9208973D01*
X1025753Y9218930D01*
X1012545Y9224365D01*
X1002334Y9218422D01*
X992936Y9191193D01*
X990812Y9187230D01*
X1025499Y9187230D01*
X1029258Y9197390D01*
X1032205Y9188094D01*
X1045565Y9184538D01*
X1050391Y9186265D01*
X1055573Y9198660D01*
X1063091Y9202724D01*
X1065428Y9202724D01*
X1073302Y9194850D01*
X1073505Y9130690D01*
X1069492Y9123172D01*
X1057198Y9123172D01*
X1052880Y9131249D01*
X1052880Y9143796D01*
X1063701Y9156649D01*
X1069644Y9156649D01*
X1069644Y9159595D01*
X1058367Y9171330D01*
X1043482Y9171228D01*
X1034389Y9168841D01*
X1029411Y9156750D01*
X1031849Y9150400D01*
X1028446Y9141206D01*
X1025499Y9187230D01*
X990812Y9187230D01*
X987602Y9181338D01*
X982776Y9186214D01*
X983792Y9216034D01*
X976884Y9223654D01*
X966012Y9223502D01*
X958037Y9217406D01*
X958799Y9114790D01*
X963574Y9104325D01*
X979627Y9104325D01*
X979627Y9110116D01*
X985113Y9114688D01*
X995070Y9146286D01*
X999540Y9144812D01*
X999875Y9139936D01*
X1029512Y9139936D01*
X1032408Y9122765D01*
X1027785Y9118142D01*
X1027785Y9139936D01*
X999875Y9139936D01*
X1001623Y9113774D01*
X1007871Y9104325D01*
X1087577Y9104325D01*
X1094740Y9116517D01*
X1094740Y9208312D01*
X1102512Y9215374D01*
X1131366Y9217710D01*
X1150213Y9223806D01*
X1161186Y9233052D01*
X1173073Y9251899D01*
X1172464Y9284004D01*
X1166012Y9296450D01*
X1148232Y9311640D01*
G37*
G36*
X1566621Y9317532D02*
G01*
X1438960Y9316770D01*
X1419402Y9305239D01*
X1406398Y9289542D01*
X1399997Y9267596D01*
X1406652Y9244584D01*
X1419809Y9229598D01*
X1445260Y9216440D01*
X1497685Y9217456D01*
X1505813Y9211513D01*
X1499717Y9204248D01*
X1482344Y9196781D01*
X1479448Y9192056D01*
X1485900Y9182150D01*
X1500733Y9177274D01*
X1500733Y9172346D01*
X1522679Y9172346D01*
X1522679Y9178645D01*
X1542186Y9179915D01*
X1544929Y9175445D01*
X1537970Y9172803D01*
X1522679Y9172346D01*
X1500733Y9172346D01*
X1500733Y9148419D01*
X1508810Y9144101D01*
X1524762Y9144203D01*
X1542643Y9152280D01*
X1558290Y9155023D01*
X1566621Y9160052D01*
X1583385Y9164980D01*
X1597101Y9173413D01*
X1600708Y9182811D01*
X1594256Y9190126D01*
X1581200Y9190126D01*
X1565605Y9181795D01*
X1553006Y9181795D01*
X1554073Y9195104D01*
X1543608Y9200540D01*
X1526286Y9200591D01*
X1516430Y9208719D01*
X1520901Y9216085D01*
X1572310Y9217507D01*
X1588516Y9225737D01*
X1603400Y9238843D01*
X1608277Y9247682D01*
X1607159Y9289542D01*
X1600860Y9299244D01*
X1582013Y9312554D01*
G37*
G36*
X1958695Y9306306D02*
G01*
X1956562Y9301073D01*
X1958695Y9295841D01*
G37*
G36*
X1195476Y9282226D02*
G01*
X1185062Y9278264D01*
X1182319Y9269577D01*
X1184910Y9257690D01*
X1195374Y9252915D01*
X1383182Y9252915D01*
X1396085Y9263786D01*
X1396085Y9271406D01*
X1383182Y9282226D01*
G37*
G36*
X5800852Y9240824D02*
G01*
X5754065Y9238284D01*
X5694781Y9240723D01*
X5686044Y9236049D01*
X5686044Y9226245D01*
X5691276Y9222028D01*
X5701741Y9218879D01*
X5704840Y9214205D01*
X5704890Y9127642D01*
X5711444Y9121089D01*
X5722670Y9121140D01*
X5728970Y9125102D01*
X5730240Y9217355D01*
X5742279Y9223603D01*
X5748731Y9221114D01*
X5751474Y9205823D01*
X5755284Y9198508D01*
X5767171Y9198508D01*
X5771489Y9203740D01*
X5775248Y9218422D01*
X5785967Y9219692D01*
X5787948Y9209379D01*
X5783681Y9201708D01*
X5780061Y9198051D01*
X5840679Y9198051D01*
X5841949Y9218422D01*
X5855004Y9219692D01*
X5857646Y9212834D01*
X5857646Y9198254D01*
X5853328Y9190126D01*
X5847842Y9190126D01*
X5840679Y9198051D01*
X5780061Y9198051D01*
X5754674Y9172346D01*
X5749493Y9159798D01*
X5750153Y9131350D01*
X5760364Y9121444D01*
X5777077Y9120479D01*
X5803188Y9121089D01*
X5815838Y9132620D01*
X5811672Y9157716D01*
X5804560Y9162948D01*
X5796686Y9162948D01*
X5788964Y9158833D01*
X5786120Y9142018D01*
X5776468Y9142018D01*
X5773928Y9148622D01*
X5773928Y9159798D01*
X5810808Y9196425D01*
X5817412Y9196425D01*
X5820105Y9182303D01*
X5830468Y9171076D01*
X5830468Y9165234D01*
X5825693Y9153499D01*
X5819952Y9140240D01*
X5817362Y9127388D01*
X5822594Y9121089D01*
X5834329Y9121089D01*
X5842762Y9131808D01*
X5849772Y9151416D01*
X5851448Y9157157D01*
X5857646Y9151975D01*
X5857646Y9130385D01*
X5864148Y9121089D01*
X5876239Y9121089D01*
X5882792Y9130385D01*
X5882792Y9231985D01*
X5874410Y9240367D01*
X5829909Y9240367D01*
X5815990Y9225635D01*
G37*
G36*
X6242812Y9240774D02*
G01*
X6202578Y9239300D01*
X6192469Y9227566D01*
X6192469Y9202267D01*
X6203746Y9182252D01*
X6192113Y9168434D01*
X6193536Y9131858D01*
X6203696Y9121089D01*
X6246164Y9121089D01*
X6255664Y9131198D01*
X6255512Y9152839D01*
X6248908Y9162948D01*
X6238798Y9162948D01*
X6232753Y9156852D01*
X6229908Y9141764D01*
X6218631Y9143085D01*
X6217361Y9162846D01*
X6234328Y9180525D01*
X6234328Y9187281D01*
X6221425Y9199575D01*
X6215989Y9210040D01*
X6219545Y9219438D01*
X6229756Y9219438D01*
X6234023Y9207195D01*
X6242862Y9202470D01*
X6257137Y9207652D01*
X6258407Y9220504D01*
X6262573Y9218422D01*
X6262776Y9209532D01*
X6270244Y9176562D01*
X6276187Y9155226D01*
X6276187Y9139783D01*
X6282232Y9125305D01*
X6293104Y9120327D01*
X6304432Y9124340D01*
X6311138Y9155633D01*
X6318097Y9191193D01*
X6320332Y9206890D01*
X6328156Y9206890D01*
X6330848Y9194749D01*
X6338976Y9187383D01*
X6338976Y9180322D01*
X6330594Y9172752D01*
X6326682Y9157716D01*
X6329781Y9129369D01*
X6336385Y9122765D01*
X6362090Y9119768D01*
X6383578Y9122511D01*
X6391300Y9132011D01*
X6391300Y9156344D01*
X6384696Y9162948D01*
X6374841Y9162948D01*
X6368440Y9156547D01*
X6365697Y9142018D01*
X6360922Y9141510D01*
X6354673Y9142425D01*
X6351574Y9147251D01*
X6351524Y9161068D01*
X6372453Y9181947D01*
X6372453Y9185351D01*
X6351524Y9204604D01*
X6351524Y9214408D01*
X6356553Y9219438D01*
X6364224Y9219438D01*
X6366814Y9212122D01*
X6375298Y9202724D01*
X6384188Y9202724D01*
X6391859Y9208312D01*
X6389827Y9232696D01*
X6380378Y9240367D01*
X6343040Y9240367D01*
X6328156Y9234170D01*
X6315506Y9240723D01*
X6305550Y9238234D01*
X6299809Y9226753D01*
X6297218Y9197746D01*
X6292646Y9193276D01*
X6286652Y9201404D01*
X6286652Y9215475D01*
X6281928Y9234271D01*
X6270091Y9240418D01*
X6253530Y9233763D01*
G37*
G36*
X3991152Y9240723D02*
G01*
X3980535Y9230106D01*
X3980535Y9217456D01*
X3986631Y9201658D01*
X3990594Y9180728D01*
X4004005Y9128404D01*
X4010456Y9121089D01*
X4018483Y9121089D01*
X4026560Y9125407D01*
X4026560Y9133941D01*
X4013758Y9189110D01*
X4007713Y9207957D01*
X4007713Y9217101D01*
X4011980Y9219692D01*
X4019397Y9217355D01*
X4024223Y9204452D01*
X4042410Y9205569D01*
X4047744Y9202318D01*
X4046880Y9129420D01*
X4054398Y9121089D01*
X4063441Y9121089D01*
X4071569Y9127032D01*
X4071874Y9191193D01*
X4077411Y9212427D01*
X4074414Y9228429D01*
X4062272Y9240570D01*
X4046474Y9237573D01*
X4042257Y9238538D01*
G37*
G36*
X2263698Y9240570D02*
G01*
X2251100Y9239300D01*
X2248204Y9228836D01*
X2247798Y9127642D01*
X2254402Y9121089D01*
X2264257Y9121089D01*
X2272487Y9131604D01*
X2272284Y9191193D01*
X2275281Y9212122D01*
X2270607Y9233001D01*
G37*
G36*
X6070549Y9240469D02*
G01*
X6062675Y9237980D01*
X6057036Y9226753D01*
X6054242Y9198559D01*
X6051600Y9191701D01*
X6044184Y9205823D01*
X6041288Y9228836D01*
X6037376Y9236405D01*
X6026810Y9240418D01*
X6014618Y9233204D01*
X6014618Y9227820D01*
X6010910Y9227820D01*
X6008725Y9236151D01*
X5997600Y9240367D01*
X5962040Y9240367D01*
X5953556Y9235846D01*
X5947664Y9221673D01*
X5947664Y9203334D01*
X5960211Y9186011D01*
X5960211Y9181490D01*
X5948984Y9166809D01*
X5947105Y9144000D01*
X5954268Y9125204D01*
X5963361Y9120276D01*
X6002426Y9120022D01*
X6009843Y9129217D01*
X6012586Y9149994D01*
X6007760Y9160611D01*
X6002020Y9162846D01*
X5992418Y9158478D01*
X5986322Y9140952D01*
X5975908Y9142425D01*
X5974892Y9143339D01*
X5974181Y9162948D01*
X5991606Y9179052D01*
X5991606Y9187230D01*
X5976620Y9201658D01*
X5972759Y9208719D01*
X5976823Y9219438D01*
X5987338Y9219438D01*
X5993384Y9204960D01*
X6004864Y9202064D01*
X6012383Y9211360D01*
X6015075Y9225737D01*
X6018326Y9225737D01*
X6020663Y9216288D01*
X6025184Y9179610D01*
X6028690Y9170263D01*
X6031636Y9149334D01*
X6038443Y9126321D01*
X6042304Y9121089D01*
X6055817Y9121089D01*
X6062776Y9128760D01*
X6069228Y9163964D01*
X6075273Y9187992D01*
X6075273Y9204553D01*
X6079083Y9206890D01*
X6085738Y9204350D01*
X6085738Y9199981D01*
X6096203Y9186265D01*
X6096203Y9180220D01*
X6089650Y9174734D01*
X6083655Y9163151D01*
X6083655Y9139529D01*
X6090310Y9125458D01*
X6095949Y9120835D01*
X6135420Y9120428D01*
X6148324Y9129572D01*
X6151067Y9148013D01*
X6147155Y9159798D01*
X6135776Y9163812D01*
X6128664Y9159341D01*
X6122314Y9142272D01*
X6119723Y9139732D01*
X6108801Y9142476D01*
X6108801Y9162542D01*
X6129934Y9180271D01*
X6128664Y9188754D01*
X6109817Y9202013D01*
X6109817Y9218422D01*
X6121298Y9219742D01*
X6129985Y9204960D01*
X6137503Y9202572D01*
X6148120Y9206636D01*
X6150864Y9222790D01*
X6146698Y9233662D01*
X6137148Y9240367D01*
X6099302Y9240367D01*
X6083858Y9232087D01*
X6081166Y9236456D01*
G37*
G36*
X5527294Y9240367D02*
G01*
X5521045Y9234068D01*
X5525262Y9220504D01*
X5531104Y9199575D01*
X5527192Y9198254D01*
X5513425Y9188958D01*
X5511444Y9166809D01*
X5539181Y9166809D01*
X5541010Y9174429D01*
X5544261Y9166961D01*
X5541670Y9164320D01*
X5539181Y9166809D01*
X5511444Y9166809D01*
X5511190Y9163964D01*
X5503672Y9149994D01*
X5509869Y9143085D01*
X5514695Y9125102D01*
X5524906Y9120428D01*
X5535269Y9125153D01*
X5537708Y9136786D01*
X5541060Y9143085D01*
X5567832Y9145168D01*
X5573064Y9148521D01*
X5573064Y9158884D01*
X5566308Y9174429D01*
X5562904Y9187027D01*
X5545734Y9233052D01*
X5536996Y9240367D01*
G37*
G36*
X5252618Y9240367D02*
G01*
X5244490Y9236049D01*
X5244490Y9229699D01*
X5255107Y9219082D01*
X5270855Y9221774D01*
X5282184Y9217456D01*
X5282184Y9207550D01*
X5273903Y9200083D01*
X5250180Y9197492D01*
X5242458Y9187027D01*
X5245201Y9130690D01*
X5254802Y9121089D01*
X5295036Y9121089D01*
X5306720Y9132773D01*
X5305907Y9156395D01*
X5300472Y9162948D01*
X5288737Y9162948D01*
X5282184Y9156344D01*
X5282184Y9146489D01*
X5275427Y9139732D01*
X5270652Y9141307D01*
X5265470Y9151416D01*
X5265420Y9173108D01*
X5272024Y9179661D01*
X5290261Y9179661D01*
X5301945Y9184132D01*
X5305145Y9189110D01*
X5305196Y9225940D01*
X5298998Y9237878D01*
X5293664Y9240062D01*
G37*
G36*
X5004511Y9240367D02*
G01*
X4996789Y9231833D01*
X4995011Y9207601D01*
X5007660Y9202369D01*
X5016754Y9207195D01*
X5021072Y9219692D01*
X5032095Y9218422D01*
X5033365Y9200794D01*
X5028946Y9192514D01*
X5009083Y9189821D01*
X4997856Y9185554D01*
X4993386Y9172803D01*
X4993386Y9162592D01*
X5018481Y9162592D01*
X5021021Y9169196D01*
X5030368Y9169196D01*
X5033162Y9166402D01*
X5033162Y9148622D01*
X5030622Y9142018D01*
X5021072Y9142018D01*
X5018532Y9151416D01*
X5018481Y9162592D01*
X4993386Y9162592D01*
X4993386Y9136380D01*
X5002936Y9122156D01*
X5047843Y9120936D01*
X5058257Y9132163D01*
X5057851Y9224670D01*
X5054955Y9235084D01*
X5044643Y9240316D01*
G37*
G36*
X4753660Y9240367D02*
G01*
X4744364Y9233865D01*
X4744364Y9223349D01*
X4750104Y9203740D01*
X4755032Y9184894D01*
X4762754Y9153499D01*
X4769815Y9126321D01*
X4776520Y9121089D01*
X4787442Y9121089D01*
X4792472Y9126118D01*
X4792472Y9139631D01*
X4787747Y9151416D01*
X4780330Y9180728D01*
X4771542Y9211005D01*
X4771542Y9216847D01*
X4780026Y9219082D01*
X4786426Y9206687D01*
X4796688Y9202775D01*
X4806848Y9207449D01*
X4809591Y9223552D01*
X4806899Y9235643D01*
X4797704Y9240062D01*
G37*
G36*
X4491583Y9240367D02*
G01*
X4482795Y9233052D01*
X4488129Y9222587D01*
X4500575Y9219946D01*
X4516323Y9219438D01*
X4521098Y9208973D01*
X4513986Y9201150D01*
X4489196Y9198305D01*
X4480356Y9187078D01*
X4481728Y9131655D01*
X4490516Y9122867D01*
X4508906Y9118701D01*
X4533442Y9121546D01*
X4540808Y9128912D01*
X4543755Y9152229D01*
X4539386Y9160357D01*
X4528413Y9163100D01*
X4522571Y9158274D01*
X4518304Y9142425D01*
X4512716Y9140291D01*
X4507230Y9143695D01*
X4503928Y9168079D01*
X4508957Y9178645D01*
X4533392Y9181287D01*
X4541723Y9189567D01*
X4542434Y9232341D01*
X4532528Y9240367D01*
G37*
G36*
X4248658Y9240367D02*
G01*
X4238142Y9236354D01*
X4231640Y9223857D01*
X4231640Y9211056D01*
X4240022Y9202724D01*
X4246118Y9202724D01*
X4255973Y9207195D01*
X4260697Y9219742D01*
X4270349Y9218422D01*
X4271084Y9211056D01*
X4302810Y9211056D01*
X4302810Y9200642D01*
X4294428Y9207804D01*
X4294428Y9211056D01*
X4271084Y9211056D01*
X4271721Y9204198D01*
X4269435Y9195054D01*
X4258665Y9190126D01*
X4244390Y9190126D01*
X4235206Y9185960D01*
X4298594Y9185960D01*
X4298594Y9179915D01*
X4294428Y9177324D01*
X4294428Y9185960D01*
X4235206Y9185960D01*
X4234180Y9185503D01*
X4231640Y9172905D01*
X4231640Y9148622D01*
X4256786Y9148622D01*
X4256786Y9162592D01*
X4259326Y9169196D01*
X4302810Y9169196D01*
X4302506Y9157716D01*
X4298899Y9166098D01*
X4298594Y9169196D01*
X4268622Y9169196D01*
X4271416Y9166402D01*
X4271416Y9142018D01*
X4259326Y9142018D01*
X4256786Y9148622D01*
X4231640Y9148622D01*
X4231640Y9132112D01*
X4242104Y9121648D01*
X4262069Y9119311D01*
X4288332Y9121698D01*
X4294428Y9130385D01*
X4294428Y9143695D01*
X4302810Y9141510D01*
X4302810Y9127642D01*
X4309364Y9121089D01*
X4321098Y9121089D01*
X4326483Y9127540D01*
X4327753Y9193276D01*
X4332579Y9210903D01*
X4329988Y9224670D01*
X4321708Y9238284D01*
X4307078Y9238284D01*
X4300220Y9227820D01*
X4294428Y9227820D01*
X4294428Y9231985D01*
X4286046Y9240367D01*
G37*
G36*
X3742232Y9240367D02*
G01*
X3731717Y9236354D01*
X3725214Y9223857D01*
X3725214Y9202978D01*
X3750360Y9202978D01*
X3750360Y9214408D01*
X3755339Y9219438D01*
X3762756Y9219438D01*
X3767429Y9210700D01*
X3764635Y9199626D01*
X3759758Y9196476D01*
X3756914Y9196425D01*
X3750360Y9202978D01*
X3725214Y9202978D01*
X3725214Y9199118D01*
X3735578Y9183878D01*
X3782822Y9183878D01*
X3788765Y9193276D01*
X3793591Y9216288D01*
X3796792Y9186316D01*
X3793540Y9153499D01*
X3788664Y9174480D01*
X3782822Y9183878D01*
X3735578Y9183878D01*
X3725164Y9168536D01*
X3725453Y9156446D01*
X3749903Y9156446D01*
X3753815Y9168180D01*
X3761892Y9169400D01*
X3767074Y9164218D01*
X3767074Y9148775D01*
X3759708Y9139682D01*
X3752545Y9142425D01*
X3749903Y9156446D01*
X3725453Y9156446D01*
X3725773Y9143085D01*
X3729583Y9127337D01*
X3738981Y9121190D01*
X3768140Y9118498D01*
X3785412Y9123222D01*
X3790391Y9129217D01*
X3793794Y9149334D01*
X3794302Y9129776D01*
X3800856Y9123172D01*
X3811066Y9120632D01*
X3821480Y9127439D01*
X3821480Y9194241D01*
X3827881Y9210192D01*
X3820261Y9235084D01*
X3810000Y9240316D01*
X3806494Y9240367D01*
X3794302Y9228124D01*
X3793947Y9218422D01*
X3787546Y9236456D01*
X3777284Y9240367D01*
G37*
G36*
X3515766Y9240367D02*
G01*
X3503929Y9234271D01*
X3501390Y9224670D01*
X3501329Y9208668D01*
X3526434Y9208668D01*
X3530498Y9219438D01*
X3535832Y9219387D01*
X3541776Y9215628D01*
X3541776Y9202521D01*
X3535121Y9195866D01*
X3529076Y9198152D01*
X3526434Y9208668D01*
X3501329Y9208668D01*
X3501288Y9197949D01*
X3510229Y9183522D01*
X3501288Y9165640D01*
X3501288Y9154820D01*
X3525977Y9154820D01*
X3528720Y9169196D01*
X3539083Y9169196D01*
X3543198Y9158325D01*
X3538728Y9141764D01*
X3529888Y9143085D01*
X3525977Y9154820D01*
X3501288Y9154820D01*
X3501288Y9133941D01*
X3512159Y9121089D01*
X3557727Y9121089D01*
X3564432Y9131350D01*
X3565499Y9167215D01*
X3557879Y9184132D01*
X3565144Y9195155D01*
X3564890Y9224670D01*
X3562096Y9235490D01*
X3552596Y9240062D01*
G37*
G36*
X3285286Y9240367D02*
G01*
X3244951Y9240266D01*
X3234639Y9232341D01*
X3232912Y9201912D01*
X3242868Y9183725D01*
X3233470Y9167317D01*
X3233470Y9132163D01*
X3243732Y9121089D01*
X3285947Y9121089D01*
X3296208Y9131350D01*
X3296208Y9156344D01*
X3289655Y9162948D01*
X3277666Y9162948D01*
X3271469Y9156700D01*
X3268624Y9143847D01*
X3262680Y9141561D01*
X3256483Y9146692D01*
X3256483Y9158579D01*
X3261309Y9169196D01*
X3265017Y9169196D01*
X3275279Y9180271D01*
X3275279Y9187637D01*
X3261055Y9200134D01*
X3256483Y9208719D01*
X3256483Y9217050D01*
X3265728Y9219996D01*
X3270046Y9212732D01*
X3277717Y9202724D01*
X3289300Y9202724D01*
X3296767Y9210954D01*
X3294684Y9232798D01*
G37*
G36*
X2974441Y9240367D02*
G01*
X2965043Y9232798D01*
X2963062Y9212072D01*
X2970885Y9202420D01*
X2982112Y9206687D01*
X2988868Y9219692D01*
X3000095Y9218422D01*
X3001213Y9197492D01*
X2997708Y9192158D01*
X2969615Y9188754D01*
X2962605Y9181795D01*
X2961445Y9160713D01*
X2984195Y9160713D01*
X2988767Y9169196D01*
X2998368Y9169196D01*
X3001162Y9166402D01*
X3001162Y9146997D01*
X2995930Y9139986D01*
X2986938Y9142374D01*
X2984195Y9160713D01*
X2961445Y9160713D01*
X2960370Y9141155D01*
X2965297Y9126728D01*
X2971088Y9120987D01*
X3014675Y9120682D01*
X3026460Y9134703D01*
X3028797Y9144101D01*
X3032506Y9144101D01*
X3037332Y9124950D01*
X3047492Y9121089D01*
X3057652Y9123629D01*
X3062681Y9140952D01*
X3067100Y9144050D01*
X3089757Y9144101D01*
X3097428Y9151010D01*
X3097428Y9160764D01*
X3069793Y9233052D01*
X3061411Y9240367D01*
X3055315Y9240367D01*
X3047187Y9236049D01*
X3047187Y9225889D01*
X3055569Y9204655D01*
X3055569Y9198406D01*
X3044037Y9194038D01*
X3034639Y9185249D01*
X3034588Y9175496D01*
X3066034Y9175496D01*
X3066034Y9165031D01*
X3061868Y9165031D01*
X3061868Y9175496D01*
X3034588Y9175496D01*
X3034588Y9166098D01*
X3030677Y9159900D01*
X3027324Y9163304D01*
X3028238Y9218422D01*
X3023870Y9231934D01*
X3013151Y9240367D01*
G37*
G36*
X2500833Y9240367D02*
G01*
X2490571Y9230106D01*
X2490571Y9209024D01*
X2513685Y9209024D01*
X2517648Y9219438D01*
X2528366Y9219438D01*
X2530398Y9214053D01*
X2530071Y9193276D01*
X2552293Y9193276D01*
X2554376Y9216288D01*
X2557424Y9211665D01*
X2557729Y9197492D01*
X2557170Y9184894D01*
X2556256Y9149334D01*
X2554630Y9145168D01*
X2552293Y9193276D01*
X2530071Y9193276D01*
X2529281Y9143085D01*
X2518308Y9141764D01*
X2514904Y9149334D01*
X2513685Y9209024D01*
X2490571Y9209024D01*
X2490571Y9131350D01*
X2500833Y9121089D01*
X2540406Y9121089D01*
X2547518Y9123832D01*
X2554986Y9140444D01*
X2560574Y9130487D01*
X2564942Y9122156D01*
X2578709Y9120784D01*
X2584704Y9125762D01*
X2584704Y9194444D01*
X2591003Y9209481D01*
X2591003Y9217507D01*
X2580640Y9237980D01*
X2568651Y9240367D01*
X2557475Y9227820D01*
X2554122Y9227820D01*
X2544826Y9240367D01*
G37*
G36*
X2291740Y9240367D02*
G01*
X2283358Y9231985D01*
X2282748Y9129420D01*
X2290318Y9121089D01*
X2299309Y9121089D01*
X2307437Y9127032D01*
X2308707Y9227718D01*
X2304034Y9236405D01*
X2294890Y9240113D01*
G37*
G36*
X1798370Y9240367D02*
G01*
X1792935Y9233814D01*
X1792681Y9127998D01*
X1798370Y9121089D01*
X1809394Y9121140D01*
X1815592Y9125051D01*
X1815744Y9195358D01*
X1820875Y9204502D01*
X1820875Y9216847D01*
X1814525Y9235135D01*
X1807514Y9240367D01*
G37*
G36*
X1735277Y9240367D02*
G01*
X1724863Y9235592D01*
X1720443Y9222994D01*
X1720443Y9202928D01*
X1733448Y9183624D01*
X1727250Y9176562D01*
X1720443Y9163151D01*
X1720443Y9139783D01*
X1726387Y9125610D01*
X1736140Y9120378D01*
X1767535Y9120073D01*
X1778711Y9123172D01*
X1783130Y9136786D01*
X1784045Y9151975D01*
X1776628Y9163304D01*
X1765503Y9160510D01*
X1762353Y9155633D01*
X1759813Y9142374D01*
X1751126Y9140139D01*
X1747824Y9142171D01*
X1745183Y9156293D01*
X1747774Y9164472D01*
X1764385Y9181439D01*
X1764385Y9186113D01*
X1747723Y9201658D01*
X1747012Y9210040D01*
X1747672Y9219438D01*
X1758340Y9219438D01*
X1764436Y9204858D01*
X1775002Y9202216D01*
X1783638Y9210040D01*
X1781860Y9231934D01*
X1774189Y9240367D01*
G37*
G36*
X2751074Y9240316D02*
G01*
X2740609Y9235033D01*
X2735478Y9219336D01*
X2735708Y9197238D01*
X2760522Y9197238D01*
X2760522Y9214408D01*
X2765501Y9219438D01*
X2772359Y9219438D01*
X2775153Y9216644D01*
X2775153Y9198864D01*
X2772613Y9192260D01*
X2765501Y9192260D01*
X2760522Y9197238D01*
X2735708Y9197238D01*
X2736443Y9131655D01*
X2746908Y9121241D01*
X2788361Y9120378D01*
X2798165Y9131808D01*
X2798165Y9151112D01*
X2791256Y9158732D01*
X2782824Y9158732D01*
X2775153Y9151823D01*
X2775153Y9144965D01*
X2770632Y9140393D01*
X2762554Y9142526D01*
X2760218Y9151823D01*
X2761538Y9168130D01*
X2789732Y9172346D01*
X2796794Y9179509D01*
X2797759Y9226499D01*
X2793746Y9237167D01*
X2788767Y9240316D01*
G37*
G36*
X4556861Y9238284D02*
G01*
X4551832Y9233255D01*
X4551832Y9130385D01*
X4558334Y9121089D01*
X4571898Y9121089D01*
X4576927Y9126118D01*
X4576927Y9195816D01*
X4581499Y9208820D01*
X4574438Y9233052D01*
X4570171Y9238284D01*
G37*
G36*
X1342694Y9234017D02*
G01*
X1332280Y9228734D01*
X1330960Y9221774D01*
X1339596Y9213138D01*
X1360170Y9213138D01*
X1366774Y9210649D01*
X1366774Y9198660D01*
X1358696Y9194342D01*
X1344371Y9194342D01*
X1330147Y9184741D01*
X1328978Y9129471D01*
X1335582Y9116720D01*
X1346149Y9112707D01*
X1373174Y9112707D01*
X1387144Y9118549D01*
X1391920Y9132163D01*
X1391920Y9150248D01*
X1383792Y9154566D01*
X1370838Y9154566D01*
X1369212Y9149334D01*
X1366672Y9137650D01*
X1357376Y9133992D01*
X1350111Y9142425D01*
X1351432Y9167266D01*
X1355293Y9170974D01*
X1384147Y9174429D01*
X1392123Y9185198D01*
X1387957Y9226042D01*
X1383182Y9231782D01*
X1359458Y9233306D01*
G37*
G36*
X1270711Y9232595D02*
G01*
X1260398Y9225838D01*
X1257554Y9212884D01*
X1264462Y9205264D01*
X1270152Y9168180D01*
X1277213Y9126321D01*
X1286205Y9112758D01*
X1295654Y9112707D01*
X1302359Y9120530D01*
X1310132Y9143085D01*
X1310487Y9159798D01*
X1316482Y9176562D01*
X1316583Y9189110D01*
X1322832Y9209633D01*
X1322832Y9225432D01*
X1316278Y9231985D01*
X1309116Y9231985D01*
X1300429Y9225889D01*
X1297584Y9198203D01*
X1292555Y9190126D01*
X1287576Y9190126D01*
X1284833Y9214205D01*
X1280566Y9228074D01*
G37*
G36*
X938834Y9225686D02*
G01*
X905357Y9223705D01*
X894892Y9215932D01*
X888593Y9203740D01*
X889656Y9134703D01*
X912368Y9134703D01*
X912977Y9195358D01*
X919581Y9202724D01*
X925068Y9202724D01*
X929436Y9194596D01*
X929436Y9129776D01*
X922832Y9123172D01*
X919226Y9123172D01*
X912672Y9129776D01*
X912368Y9134703D01*
X889656Y9134703D01*
X889914Y9117939D01*
X899058Y9104376D01*
X947419Y9104325D01*
X952449Y9118244D01*
X952449Y9216694D01*
X945134Y9223095D01*
G37*
G36*
X1237183Y9219438D02*
G01*
X1232357Y9210446D01*
X1237691Y9194342D01*
X1232865Y9183674D01*
X1232865Y9119514D01*
X1238097Y9115196D01*
X1246479Y9114332D01*
X1251559Y9114790D01*
X1256487Y9124035D01*
X1255623Y9182608D01*
X1248714Y9194241D01*
X1253794Y9208211D01*
X1253794Y9216644D01*
X1251000Y9219438D01*
G37*
G36*
X1180338Y9194342D02*
G01*
X1170076Y9184081D01*
X1170076Y9125458D01*
X1174902Y9114891D01*
X1182624Y9112453D01*
X1191260Y9115145D01*
X1195527Y9126321D01*
X1192733Y9152585D01*
X1195578Y9169196D01*
X1201470Y9169196D01*
X1201978Y9145168D01*
X1201064Y9123375D01*
X1211732Y9112707D01*
X1215796Y9112707D01*
X1228547Y9123426D01*
X1227632Y9183928D01*
X1215085Y9194190D01*
G37*
G36*
X1549908Y9136786D02*
G01*
X1487576Y9136075D01*
X1479194Y9127693D01*
X1481785Y9121038D01*
X1493215Y9116669D01*
X1549908Y9117787D01*
X1570583Y9110421D01*
X1586687Y9113113D01*
X1599082Y9123578D01*
X1599082Y9128810D01*
X1591614Y9135567D01*
G37*
D10*
X1413433Y10740214D02*
G01*
X1431975Y10731070D01*
X1450263Y10712528D01*
X1459661Y10694240D01*
X1459661Y10657156D01*
X1450263Y10638614D01*
X1431975Y10620326D01*
X1413433Y10610928D01*
X1385747Y10601784D01*
X1339519Y10601784D01*
X1311833Y10610928D01*
X1293291Y10620326D01*
X1275003Y10638614D01*
X1265605Y10657156D01*
X1265605Y10694240D01*
X1275003Y10712528D01*
X1293291Y10731070D01*
X1311833Y10740214D01*
X1459661Y10856800D02*
G01*
X1450263Y10838258D01*
X1431975Y10819716D01*
X1413433Y10810572D01*
X1385747Y10801174D01*
X1339519Y10801174D01*
X1311833Y10810572D01*
X1293291Y10819716D01*
X1275003Y10838258D01*
X1265605Y10856800D01*
X1265605Y10893630D01*
X1275003Y10912172D01*
X1293291Y10930460D01*
X1311833Y10939858D01*
X1339519Y10949002D01*
X1385747Y10949002D01*
X1413433Y10939858D01*
X1431975Y10930460D01*
X1450263Y10912172D01*
X1459661Y10893630D01*
X1459661Y10856800D01*
X1459661Y11009962D02*
G01*
X1265605Y11009962D01*
X1459661Y11009962D02*
G01*
X1265605Y11083876D01*
X1459661Y11157790D02*
G01*
X1265605Y11083876D01*
X1459661Y11157790D02*
G01*
X1265605Y11157790D01*
X1444635Y9446414D02*
G01*
X1305951Y9446414D01*
X1278265Y9455812D01*
X1259977Y9474100D01*
X1250579Y9501786D01*
X1250579Y9520328D01*
X1259977Y9548014D01*
X1278265Y9566556D01*
X1305951Y9575700D01*
X1444635Y9575700D01*
X1416949Y9765946D02*
G01*
X1435491Y9747658D01*
X1444635Y9719972D01*
X1444635Y9682888D01*
X1435491Y9655202D01*
X1416949Y9636660D01*
X1398407Y9636660D01*
X1379865Y9646058D01*
X1370721Y9655202D01*
X1361577Y9673744D01*
X1343035Y9729116D01*
X1333891Y9747658D01*
X1324493Y9756802D01*
X1305951Y9765946D01*
X1278265Y9765946D01*
X1259977Y9747658D01*
X1250579Y9719972D01*
X1250579Y9682888D01*
X1259977Y9655202D01*
X1278265Y9636660D01*
X1444635Y9826906D02*
G01*
X1250579Y9826906D01*
X1444635Y9826906D02*
G01*
X1444635Y9910218D01*
X1435491Y9937904D01*
X1426093Y9947048D01*
X1407551Y9956192D01*
X1389263Y9956192D01*
X1370721Y9947048D01*
X1361577Y9937904D01*
X1352179Y9910218D01*
X1352179Y9826906D02*
G01*
X1352179Y9910218D01*
X1343035Y9937904D01*
X1333891Y9947048D01*
X1315349Y9956192D01*
X1287663Y9956192D01*
X1269121Y9947048D01*
X1259977Y9937904D01*
X1250579Y9910218D01*
X1250579Y9826906D01*
D11*
X6974738Y10823856D02*
G01*
X6569636Y10821814D01*
X6644655Y9551494D02*
G01*
X7004781Y9551418D01*
X7004781Y9781542D01*
X6724619Y9781542D01*
X6724619Y10031732D01*
X7004781Y10031732D01*
X7004781Y10316720D01*
X6724619Y10316720D01*
X6724619Y10521698D01*
X6974809Y10521698D01*
X6974809Y11051796D01*
X6564599Y11051796D01*
D12*
X1568368Y10126626D02*
G01*
X813175Y10126626D01*
X813175Y9261401D01*
X1568368Y9261401D01*
X1568368Y10126626D01*
X1558361Y11296931D02*
G01*
X803168Y11296931D01*
X803168Y10431706D01*
X1558361Y10431706D01*
X1558361Y11296931D01*
X800084Y11684002D02*
G01*
X6515074Y11684000D01*
X800084Y11684000D02*
G01*
X800084Y8890005D01*
X6515074Y8890005D02*
G01*
X6515074Y11684000D01*
X800084Y8890005D02*
G01*
X6515069Y8890005D01*
X6479613Y11176901D02*
G01*
X4569404Y11176642D01*
X6484614Y9396455D02*
G01*
X4569404Y9396105D01*
X4569132Y9396455D02*
G01*
X4569132Y11151806D01*
X6479613Y9396453D02*
G01*
X7099607Y9396453D01*
X7099767Y11176187D02*
G01*
X7099767Y9407179D01*
X6479613Y11176904D02*
G01*
X7099612Y11176904D01*
M02*
