G04 Layer: TopSilkscreenLayer*
G04 EasyEDA v6.5.44, 2024-08-15 16:42:12*
G04 206e0cd2ca1848caba6ec3024fd8e249,080bb0d1436b4706b040d70de8f1a738,10*
G04 Gerber Generator version 0.2*
G04 Scale: 100 percent, Rotated: No, Reflected: No *
G04 Dimensions in millimeters *
G04 leading zeros omitted , absolute positions ,4 integer and 5 decimal *
%FSLAX45Y45*%
%MOMM*%

%ADD10C,0.1500*%
%ADD11C,0.1524*%
%ADD12C,0.2540*%
%ADD13C,0.1270*%

%LPD*%
D10*
X5052313Y12220498D02*
G01*
X5090413Y12220501D01*
X5090413Y12220501D02*
G01*
X5090413Y12242345D01*
X5061458Y12281715D02*
G01*
X5057902Y12279680D01*
X5054091Y12276124D01*
X5052313Y12272571D01*
X5052311Y12265202D01*
X5054091Y12261646D01*
X5057902Y12257836D01*
X5061458Y12256061D01*
X5066791Y12254280D01*
X5075936Y12254280D01*
X5081524Y12256061D01*
X5085079Y12257836D01*
X5088636Y12261649D01*
X5090413Y12265202D01*
X5090413Y12272571D01*
X5088636Y12276124D01*
X5085079Y12279680D01*
X5081524Y12281715D01*
X5052313Y12293653D02*
G01*
X5090413Y12293653D01*
X5052313Y12293653D02*
G01*
X5052311Y12306350D01*
X5054091Y12311684D01*
X5057902Y12315494D01*
X5061458Y12317272D01*
X5066791Y12319050D01*
X5075936Y12319050D01*
X5081524Y12317272D01*
X5085079Y12315497D01*
X5088636Y12311687D01*
X5090413Y12306350D01*
X5090413Y12293653D01*
X5103368Y12330988D02*
G01*
X5103368Y12363754D01*
X5052313Y12375692D02*
G01*
X5090413Y12384836D01*
X5052313Y12393983D02*
G01*
X5090413Y12384836D01*
X5052313Y12393983D02*
G01*
X5090413Y12403124D01*
X5052313Y12412017D02*
G01*
X5090413Y12403124D01*
X5052313Y12424209D02*
G01*
X5090413Y12424209D01*
X5052313Y12424209D02*
G01*
X5052313Y12440462D01*
X5054091Y12446053D01*
X5055870Y12447831D01*
X5059679Y12449606D01*
X5063236Y12449606D01*
X5066791Y12447831D01*
X5068824Y12446053D01*
X5070602Y12440462D01*
X5070602Y12424209D01*
X5070602Y12436906D02*
G01*
X5090413Y12449606D01*
X4798313Y12220498D02*
G01*
X4836413Y12220498D01*
X4836413Y12220498D02*
G01*
X4836413Y12242342D01*
X4807458Y12281712D02*
G01*
X4803902Y12279680D01*
X4800091Y12276124D01*
X4798313Y12272568D01*
X4798313Y12265202D01*
X4800091Y12261646D01*
X4803902Y12257836D01*
X4807458Y12256058D01*
X4812791Y12254280D01*
X4821936Y12254280D01*
X4827524Y12256058D01*
X4831079Y12257836D01*
X4834636Y12261646D01*
X4836413Y12265202D01*
X4836413Y12272568D01*
X4834636Y12276124D01*
X4831079Y12279680D01*
X4827524Y12281712D01*
X4798313Y12293650D02*
G01*
X4836413Y12293650D01*
X4798313Y12293650D02*
G01*
X4798313Y12306350D01*
X4800091Y12311684D01*
X4803902Y12315494D01*
X4807458Y12317272D01*
X4812791Y12319050D01*
X4821936Y12319050D01*
X4827524Y12317272D01*
X4831079Y12315494D01*
X4834636Y12311684D01*
X4836413Y12306350D01*
X4836413Y12293650D01*
X4849368Y12330988D02*
G01*
X4849368Y12363754D01*
X4798313Y12375692D02*
G01*
X4836413Y12375692D01*
X4798313Y12375692D02*
G01*
X4798313Y12392202D01*
X4800091Y12397536D01*
X4801870Y12399314D01*
X4805679Y12401346D01*
X4809236Y12401346D01*
X4812791Y12399314D01*
X4814824Y12397536D01*
X4816602Y12392202D01*
X4816602Y12375692D01*
X4816602Y12388392D02*
G01*
X4836413Y12401346D01*
X4803902Y12438684D02*
G01*
X4800091Y12435128D01*
X4798313Y12429540D01*
X4798313Y12422428D01*
X4800091Y12416840D01*
X4803902Y12413284D01*
X4807458Y12413284D01*
X4811013Y12415062D01*
X4812791Y12416840D01*
X4814824Y12420396D01*
X4818379Y12431318D01*
X4820158Y12435128D01*
X4821936Y12436906D01*
X4825491Y12438684D01*
X4831079Y12438684D01*
X4834636Y12435128D01*
X4836413Y12429540D01*
X4836413Y12422428D01*
X4834636Y12416840D01*
X4831079Y12413284D01*
X5306313Y12233198D02*
G01*
X5344413Y12233196D01*
X5344413Y12233196D02*
G01*
X5344413Y12255040D01*
X5315455Y12294412D02*
G01*
X5311902Y12292380D01*
X5308091Y12288824D01*
X5306313Y12285268D01*
X5306313Y12277902D01*
X5308091Y12274346D01*
X5311902Y12270536D01*
X5315458Y12268758D01*
X5320791Y12266980D01*
X5329936Y12266980D01*
X5335521Y12268758D01*
X5339079Y12270536D01*
X5342636Y12274346D01*
X5344413Y12277902D01*
X5344411Y12285268D01*
X5342636Y12288824D01*
X5339079Y12292380D01*
X5335524Y12294412D01*
X5306313Y12306350D02*
G01*
X5344413Y12306353D01*
X5306313Y12306350D02*
G01*
X5306313Y12319050D01*
X5308091Y12324384D01*
X5311902Y12328194D01*
X5315458Y12329972D01*
X5320791Y12331750D01*
X5329936Y12331750D01*
X5335524Y12329972D01*
X5339079Y12328194D01*
X5342636Y12324387D01*
X5344413Y12319050D01*
X5344413Y12306353D01*
X5357368Y12343688D02*
G01*
X5357368Y12376454D01*
X5306313Y12388392D02*
G01*
X5344413Y12388392D01*
X5306313Y12388392D02*
G01*
X5306311Y12404902D01*
X5308091Y12410236D01*
X5309870Y12412014D01*
X5313679Y12414046D01*
X5317236Y12414046D01*
X5320791Y12412014D01*
X5322824Y12410236D01*
X5324602Y12404902D01*
X5324602Y12388392D01*
X5324602Y12401092D02*
G01*
X5344413Y12414046D01*
X5306311Y12425984D02*
G01*
X5344413Y12425984D01*
X5306311Y12425984D02*
G01*
X5306313Y12438684D01*
X5308091Y12444018D01*
X5311904Y12447828D01*
X5315458Y12449606D01*
X5320791Y12451384D01*
X5329936Y12451384D01*
X5335524Y12449606D01*
X5339079Y12447828D01*
X5342636Y12444018D01*
X5344413Y12438684D01*
X5344413Y12425984D01*
X6077458Y12323876D02*
G01*
X6073902Y12322098D01*
X6070091Y12318542D01*
X6068313Y12314986D01*
X6068313Y12307620D01*
X6070091Y12304064D01*
X6073902Y12300254D01*
X6077458Y12298476D01*
X6082791Y12296701D01*
X6091936Y12296698D01*
X6097524Y12298476D01*
X6101079Y12300254D01*
X6104636Y12304064D01*
X6106413Y12307618D01*
X6106413Y12314986D01*
X6104636Y12318545D01*
X6101079Y12322098D01*
X6097524Y12323874D01*
X6091936Y12323876D01*
X6091936Y12314986D02*
G01*
X6091936Y12323876D01*
X6068313Y12336068D02*
G01*
X6106413Y12336068D01*
X6068313Y12336068D02*
G01*
X6106413Y12361471D01*
X6068313Y12361468D02*
G01*
X6106413Y12361471D01*
X6068313Y12373406D02*
G01*
X6106413Y12373406D01*
X6068313Y12373406D02*
G01*
X6068313Y12386106D01*
X6070091Y12391694D01*
X6073902Y12395250D01*
X6077458Y12397026D01*
X6082791Y12398809D01*
X6091936Y12398806D01*
X6097521Y12397028D01*
X6101079Y12395250D01*
X6104636Y12391694D01*
X6106413Y12386106D01*
X6106413Y12373406D01*
X6318758Y12336576D02*
G01*
X6315202Y12334798D01*
X6311391Y12331242D01*
X6309613Y12327686D01*
X6309613Y12320320D01*
X6311391Y12316764D01*
X6315202Y12312954D01*
X6318758Y12311176D01*
X6324091Y12309401D01*
X6333236Y12309398D01*
X6338824Y12311176D01*
X6342379Y12312954D01*
X6345936Y12316764D01*
X6347713Y12320318D01*
X6347713Y12327686D01*
X6345936Y12331245D01*
X6342379Y12334798D01*
X6338824Y12336574D01*
X6333236Y12336576D01*
X6333236Y12327686D02*
G01*
X6333236Y12336576D01*
X6309613Y12348768D02*
G01*
X6347713Y12348768D01*
X6309613Y12348768D02*
G01*
X6347713Y12374171D01*
X6309613Y12374168D02*
G01*
X6347713Y12374171D01*
X6309613Y12386106D02*
G01*
X6347713Y12386106D01*
X6309613Y12386106D02*
G01*
X6309613Y12398806D01*
X6311391Y12404394D01*
X6315202Y12407950D01*
X6318758Y12409726D01*
X6324091Y12411509D01*
X6333236Y12411506D01*
X6338821Y12409728D01*
X6342379Y12407950D01*
X6345936Y12404394D01*
X6347713Y12398806D01*
X6347713Y12386106D01*
X6576313Y12356642D02*
G01*
X6576313Y12338354D01*
X6592824Y12336576D01*
X6590791Y12338354D01*
X6589013Y12343945D01*
X6589013Y12349276D01*
X6590791Y12354867D01*
X6594602Y12358420D01*
X6599936Y12360198D01*
X6603491Y12360198D01*
X6609079Y12358420D01*
X6612636Y12354867D01*
X6614413Y12349276D01*
X6614413Y12343945D01*
X6612636Y12338354D01*
X6610858Y12336576D01*
X6607302Y12334801D01*
X6576313Y12372136D02*
G01*
X6614413Y12386871D01*
X6576311Y12401349D02*
G01*
X6614413Y12386871D01*
X6830313Y12300254D02*
G01*
X6830313Y12320320D01*
X6844791Y12309398D01*
X6844791Y12314986D01*
X6846824Y12318542D01*
X6848602Y12320320D01*
X6853936Y12322098D01*
X6857491Y12322098D01*
X6863079Y12320320D01*
X6866636Y12316764D01*
X6868413Y12311176D01*
X6868413Y12305842D01*
X6866636Y12300254D01*
X6864858Y12298476D01*
X6861302Y12296698D01*
X6859524Y12336068D02*
G01*
X6861304Y12334036D01*
X6863079Y12336068D01*
X6861302Y12337849D01*
X6859524Y12336068D01*
X6830313Y12353338D02*
G01*
X6830313Y12373406D01*
X6844791Y12362484D01*
X6844791Y12368072D01*
X6846824Y12371628D01*
X6848602Y12373406D01*
X6853936Y12375184D01*
X6857489Y12375184D01*
X6863079Y12373406D01*
X6866636Y12369850D01*
X6868413Y12364262D01*
X6868413Y12358928D01*
X6866636Y12353340D01*
X6864858Y12351562D01*
X6861302Y12349784D01*
X6830313Y12387122D02*
G01*
X6868413Y12401854D01*
X6830313Y12416330D02*
G01*
X6868413Y12401854D01*
X7084313Y12271298D02*
G01*
X7122413Y12271301D01*
X7084313Y12271298D02*
G01*
X7084313Y12287557D01*
X7086091Y12293142D01*
X7087870Y12294920D01*
X7091677Y12296698D01*
X7095236Y12296698D01*
X7098791Y12294920D01*
X7100824Y12293142D01*
X7102602Y12287557D01*
X7102602Y12271298D01*
X7102602Y12283998D02*
G01*
X7122413Y12296698D01*
X7084313Y12308636D02*
G01*
X7122413Y12308639D01*
X7084313Y12308636D02*
G01*
X7084313Y12332515D01*
X7102602Y12308639D02*
G01*
X7102602Y12323368D01*
X7122413Y12308639D02*
G01*
X7122413Y12332512D01*
X7089902Y12369853D02*
G01*
X7086091Y12366297D01*
X7084313Y12360709D01*
X7084313Y12353597D01*
X7086091Y12348006D01*
X7089902Y12344450D01*
X7093458Y12344450D01*
X7097013Y12346228D01*
X7098791Y12348006D01*
X7100824Y12351562D01*
X7104379Y12362487D01*
X7106158Y12366297D01*
X7107936Y12368072D01*
X7111491Y12369850D01*
X7117077Y12369850D01*
X7120636Y12366294D01*
X7122413Y12360709D01*
X7122413Y12353597D01*
X7120636Y12348006D01*
X7117079Y12344453D01*
X7084313Y12381791D02*
G01*
X7122413Y12381791D01*
X7084313Y12381791D02*
G01*
X7084313Y12405413D01*
X7102602Y12381788D02*
G01*
X7102602Y12396266D01*
X7122413Y12381791D02*
G01*
X7122413Y12405413D01*
X7084313Y12430302D02*
G01*
X7122413Y12430302D01*
X7084313Y12417602D02*
G01*
X7084313Y12443005D01*
X4798313Y7877098D02*
G01*
X4836413Y7877096D01*
X4836413Y7877096D02*
G01*
X4836413Y7898940D01*
X4807455Y7938312D02*
G01*
X4803902Y7936280D01*
X4800091Y7932724D01*
X4798313Y7929168D01*
X4798313Y7921802D01*
X4800091Y7918246D01*
X4803902Y7914436D01*
X4807458Y7912658D01*
X4812791Y7910880D01*
X4821936Y7910880D01*
X4827521Y7912658D01*
X4831079Y7914436D01*
X4834636Y7918246D01*
X4836413Y7921802D01*
X4836411Y7929168D01*
X4834636Y7932724D01*
X4831079Y7936280D01*
X4827524Y7938312D01*
X4798313Y7950250D02*
G01*
X4836413Y7950253D01*
X4798313Y7950250D02*
G01*
X4798313Y7962950D01*
X4800091Y7968284D01*
X4803902Y7972094D01*
X4807458Y7973872D01*
X4812791Y7975650D01*
X4821936Y7975650D01*
X4827524Y7973872D01*
X4831079Y7972094D01*
X4834636Y7968287D01*
X4836413Y7962950D01*
X4836413Y7950253D01*
X4849368Y7987588D02*
G01*
X4849368Y8020354D01*
X4798313Y8032292D02*
G01*
X4836413Y8032292D01*
X4798313Y8032292D02*
G01*
X4798313Y8044992D01*
X4800091Y8050578D01*
X4803902Y8054136D01*
X4807458Y8055914D01*
X4812791Y8057946D01*
X4821936Y8057946D01*
X4827524Y8055914D01*
X4831079Y8054136D01*
X4834636Y8050580D01*
X4836413Y8044992D01*
X4836413Y8032292D01*
X4798313Y8073440D02*
G01*
X4798313Y8093509D01*
X4812791Y8082584D01*
X4812791Y8087918D01*
X4814826Y8091728D01*
X4816602Y8093506D01*
X4821936Y8095284D01*
X4825491Y8095284D01*
X4831079Y8093509D01*
X4834636Y8089950D01*
X4836413Y8084362D01*
X4836413Y8079028D01*
X4834636Y8073440D01*
X4832860Y8071662D01*
X4829302Y8069884D01*
X4544313Y7877098D02*
G01*
X4582413Y7877101D01*
X4582413Y7877101D02*
G01*
X4582416Y7898940D01*
X4553458Y7938315D02*
G01*
X4549899Y7936280D01*
X4546091Y7932724D01*
X4544313Y7929168D01*
X4544311Y7921802D01*
X4546091Y7918246D01*
X4549899Y7914436D01*
X4553455Y7912658D01*
X4558791Y7910880D01*
X4567936Y7910880D01*
X4573521Y7912658D01*
X4577079Y7914436D01*
X4580636Y7918244D01*
X4582413Y7921802D01*
X4582416Y7929168D01*
X4580633Y7932722D01*
X4577079Y7936280D01*
X4573526Y7938312D01*
X4544313Y7950248D02*
G01*
X4582411Y7950253D01*
X4544313Y7950248D02*
G01*
X4544311Y7962950D01*
X4546091Y7968282D01*
X4549902Y7972094D01*
X4553458Y7973872D01*
X4558791Y7975650D01*
X4567936Y7975650D01*
X4573524Y7973872D01*
X4577079Y7972092D01*
X4580633Y7968284D01*
X4582413Y7962950D01*
X4582411Y7950253D01*
X4595368Y7987588D02*
G01*
X4595368Y8020354D01*
X4544313Y8032292D02*
G01*
X4582413Y8032292D01*
X4544313Y8032292D02*
G01*
X4544313Y8044992D01*
X4546094Y8050580D01*
X4549902Y8054131D01*
X4553458Y8055914D01*
X4558791Y8057946D01*
X4567936Y8057946D01*
X4573524Y8055917D01*
X4577079Y8054136D01*
X4580636Y8050580D01*
X4582413Y8044992D01*
X4582413Y8032292D01*
X4553460Y8071662D02*
G01*
X4551679Y8071662D01*
X4547870Y8073440D01*
X4546094Y8075218D01*
X4544313Y8079028D01*
X4544313Y8086140D01*
X4546091Y8089953D01*
X4547872Y8091728D01*
X4551682Y8093504D01*
X4555233Y8093506D01*
X4558794Y8091728D01*
X4564379Y8087918D01*
X4582416Y8069882D01*
X4582413Y8095284D01*
X5052313Y7877098D02*
G01*
X5090413Y7877096D01*
X5090413Y7877096D02*
G01*
X5090413Y7898940D01*
X5061455Y7938312D02*
G01*
X5057902Y7936280D01*
X5054091Y7932724D01*
X5052313Y7929168D01*
X5052313Y7921802D01*
X5054091Y7918246D01*
X5057902Y7914436D01*
X5061458Y7912658D01*
X5066791Y7910880D01*
X5075936Y7910880D01*
X5081521Y7912658D01*
X5085079Y7914436D01*
X5088636Y7918246D01*
X5090413Y7921802D01*
X5090411Y7929168D01*
X5088636Y7932724D01*
X5085079Y7936280D01*
X5081524Y7938312D01*
X5052313Y7950250D02*
G01*
X5090413Y7950253D01*
X5052313Y7950250D02*
G01*
X5052313Y7962950D01*
X5054091Y7968284D01*
X5057902Y7972094D01*
X5061458Y7973872D01*
X5066791Y7975650D01*
X5075936Y7975650D01*
X5081524Y7973872D01*
X5085079Y7972094D01*
X5088636Y7968287D01*
X5090413Y7962950D01*
X5090413Y7950253D01*
X5103368Y7987588D02*
G01*
X5103368Y8020354D01*
X5052313Y8032292D02*
G01*
X5090413Y8032292D01*
X5052313Y8032292D02*
G01*
X5052313Y8044992D01*
X5054091Y8050578D01*
X5057902Y8054136D01*
X5061458Y8055914D01*
X5066791Y8057946D01*
X5075936Y8057946D01*
X5081524Y8055914D01*
X5085079Y8054136D01*
X5088636Y8050580D01*
X5090413Y8044992D01*
X5090413Y8032292D01*
X5052313Y8087916D02*
G01*
X5077713Y8069884D01*
X5077713Y8097062D01*
X5052313Y8087916D02*
G01*
X5090413Y8087918D01*
X5306313Y7877098D02*
G01*
X5344413Y7877096D01*
X5344413Y7877096D02*
G01*
X5344413Y7898940D01*
X5315455Y7938312D02*
G01*
X5311902Y7936280D01*
X5308091Y7932724D01*
X5306313Y7929168D01*
X5306313Y7921802D01*
X5308091Y7918246D01*
X5311902Y7914436D01*
X5315458Y7912658D01*
X5320791Y7910880D01*
X5329936Y7910880D01*
X5335521Y7912658D01*
X5339079Y7914436D01*
X5342636Y7918246D01*
X5344413Y7921802D01*
X5344411Y7929168D01*
X5342636Y7932724D01*
X5339079Y7936280D01*
X5335524Y7938312D01*
X5306313Y7950250D02*
G01*
X5344413Y7950253D01*
X5306313Y7950250D02*
G01*
X5306313Y7962950D01*
X5308091Y7968284D01*
X5311902Y7972094D01*
X5315458Y7973872D01*
X5320791Y7975650D01*
X5329936Y7975650D01*
X5335524Y7973872D01*
X5339079Y7972094D01*
X5342636Y7968287D01*
X5344413Y7962950D01*
X5344413Y7950253D01*
X5357368Y7987588D02*
G01*
X5357368Y8020354D01*
X5306313Y8032292D02*
G01*
X5344413Y8032292D01*
X5306313Y8032292D02*
G01*
X5306313Y8044992D01*
X5308091Y8050578D01*
X5311902Y8054136D01*
X5315458Y8055914D01*
X5320791Y8057946D01*
X5329936Y8057946D01*
X5335524Y8055914D01*
X5339079Y8054136D01*
X5342636Y8050580D01*
X5344413Y8044992D01*
X5344413Y8032292D01*
X5306311Y8091728D02*
G01*
X5306313Y8073440D01*
X5322824Y8071662D01*
X5320791Y8073440D01*
X5319013Y8079028D01*
X5319013Y8084362D01*
X5320791Y8089950D01*
X5324602Y8093506D01*
X5329936Y8095284D01*
X5333491Y8095284D01*
X5339079Y8093509D01*
X5342636Y8089950D01*
X5344413Y8084362D01*
X5344413Y8079028D01*
X5342636Y8073440D01*
X5340860Y8071662D01*
X5337302Y8069884D01*
X5560313Y7877098D02*
G01*
X5598413Y7877096D01*
X5598413Y7877096D02*
G01*
X5598413Y7898940D01*
X5569455Y7938312D02*
G01*
X5565902Y7936280D01*
X5562091Y7932724D01*
X5560313Y7929168D01*
X5560313Y7921802D01*
X5562091Y7918246D01*
X5565902Y7914436D01*
X5569458Y7912658D01*
X5574791Y7910880D01*
X5583936Y7910880D01*
X5589521Y7912658D01*
X5593079Y7914436D01*
X5596636Y7918246D01*
X5598413Y7921802D01*
X5598411Y7929168D01*
X5596636Y7932724D01*
X5593079Y7936280D01*
X5589524Y7938312D01*
X5560313Y7950250D02*
G01*
X5598413Y7950253D01*
X5560313Y7950250D02*
G01*
X5560313Y7962950D01*
X5562091Y7968284D01*
X5565902Y7972094D01*
X5569458Y7973872D01*
X5574791Y7975650D01*
X5583936Y7975650D01*
X5589524Y7973872D01*
X5593079Y7972094D01*
X5596636Y7968287D01*
X5598413Y7962950D01*
X5598413Y7950253D01*
X5611368Y7987588D02*
G01*
X5611368Y8020354D01*
X5560313Y8032292D02*
G01*
X5598413Y8032292D01*
X5560313Y8032292D02*
G01*
X5560313Y8044992D01*
X5562091Y8050578D01*
X5565902Y8054136D01*
X5569458Y8055914D01*
X5574791Y8057946D01*
X5583936Y8057946D01*
X5589524Y8055914D01*
X5593079Y8054136D01*
X5596636Y8050580D01*
X5598413Y8044992D01*
X5598413Y8032292D01*
X5565904Y8091728D02*
G01*
X5562091Y8089950D01*
X5560313Y8084362D01*
X5560311Y8080806D01*
X5562091Y8075218D01*
X5567679Y8071662D01*
X5576826Y8069884D01*
X5585713Y8069884D01*
X5593079Y8071662D01*
X5596636Y8075218D01*
X5598413Y8080806D01*
X5598413Y8082584D01*
X5596636Y8087918D01*
X5593079Y8091728D01*
X5587491Y8093506D01*
X5585713Y8093506D01*
X5580379Y8091728D01*
X5576824Y8087918D01*
X5574791Y8082584D01*
X5574791Y8080806D01*
X5576824Y8075218D01*
X5580379Y8071662D01*
X5585713Y8069884D01*
X5801613Y7877098D02*
G01*
X5839713Y7877096D01*
X5839713Y7877096D02*
G01*
X5839713Y7898940D01*
X5810755Y7938312D02*
G01*
X5807202Y7936280D01*
X5803391Y7932724D01*
X5801613Y7929168D01*
X5801613Y7921802D01*
X5803391Y7918246D01*
X5807202Y7914436D01*
X5810758Y7912658D01*
X5816091Y7910880D01*
X5825236Y7910880D01*
X5830821Y7912658D01*
X5834379Y7914436D01*
X5837936Y7918246D01*
X5839713Y7921802D01*
X5839711Y7929168D01*
X5837936Y7932724D01*
X5834379Y7936280D01*
X5830824Y7938312D01*
X5801613Y7950250D02*
G01*
X5839713Y7950253D01*
X5801613Y7950250D02*
G01*
X5801613Y7962950D01*
X5803391Y7968284D01*
X5807202Y7972094D01*
X5810758Y7973872D01*
X5816091Y7975650D01*
X5825236Y7975650D01*
X5830824Y7973872D01*
X5834379Y7972094D01*
X5837936Y7968287D01*
X5839713Y7962950D01*
X5839713Y7950253D01*
X5852668Y7987588D02*
G01*
X5852668Y8020354D01*
X5801613Y8032292D02*
G01*
X5839713Y8032292D01*
X5801613Y8032292D02*
G01*
X5801613Y8044992D01*
X5803391Y8050578D01*
X5807202Y8054136D01*
X5810758Y8055914D01*
X5816091Y8057946D01*
X5825236Y8057946D01*
X5830824Y8055914D01*
X5834379Y8054136D01*
X5837936Y8050580D01*
X5839713Y8044992D01*
X5839713Y8032292D01*
X5801613Y8095284D02*
G01*
X5839713Y8076996D01*
X5801611Y8069884D02*
G01*
X5801613Y8095284D01*
X6208013Y7877098D02*
G01*
X6246113Y7877096D01*
X6246113Y7877096D02*
G01*
X6246113Y7898940D01*
X6217158Y7938310D02*
G01*
X6213602Y7936280D01*
X6209791Y7932724D01*
X6208013Y7929168D01*
X6208013Y7921802D01*
X6209791Y7918246D01*
X6213602Y7914436D01*
X6217158Y7912658D01*
X6222491Y7910880D01*
X6231636Y7910880D01*
X6237224Y7912656D01*
X6240779Y7914436D01*
X6244336Y7918246D01*
X6246113Y7921802D01*
X6246113Y7929166D01*
X6244336Y7932724D01*
X6240779Y7936280D01*
X6237224Y7938312D01*
X6208013Y7950250D02*
G01*
X6246111Y7950250D01*
X6208013Y7950250D02*
G01*
X6208013Y7962950D01*
X6209791Y7968284D01*
X6213602Y7972094D01*
X6217158Y7973872D01*
X6222491Y7975650D01*
X6231636Y7975650D01*
X6237224Y7973872D01*
X6240779Y7972094D01*
X6244333Y7968284D01*
X6246116Y7962950D01*
X6246111Y7950250D01*
X6259068Y7987588D02*
G01*
X6259068Y8020354D01*
X6208013Y8032292D02*
G01*
X6246113Y8032292D01*
X6208013Y8032292D02*
G01*
X6208013Y8044992D01*
X6209791Y8050578D01*
X6213602Y8054136D01*
X6217158Y8055912D01*
X6222491Y8057946D01*
X6231636Y8057946D01*
X6237224Y8055914D01*
X6240779Y8054136D01*
X6244336Y8050580D01*
X6246113Y8044992D01*
X6246113Y8032292D01*
X6208013Y8080804D02*
G01*
X6209791Y8075218D01*
X6215379Y8071662D01*
X6224524Y8069882D01*
X6229858Y8069884D01*
X6239002Y8071662D01*
X6244336Y8075218D01*
X6246113Y8080806D01*
X6246113Y8084362D01*
X6244336Y8089950D01*
X6239002Y8093506D01*
X6229860Y8095284D01*
X6224524Y8095284D01*
X6215379Y8093506D01*
X6209791Y8089950D01*
X6208016Y8084362D01*
X6208013Y8080804D01*
X6462013Y7889798D02*
G01*
X6500113Y7889796D01*
X6500113Y7889796D02*
G01*
X6500113Y7911640D01*
X6471158Y7951010D02*
G01*
X6467602Y7948980D01*
X6463791Y7945424D01*
X6462013Y7941868D01*
X6462013Y7934502D01*
X6463791Y7930946D01*
X6467602Y7927136D01*
X6471158Y7925358D01*
X6476491Y7923580D01*
X6485636Y7923580D01*
X6491224Y7925356D01*
X6494779Y7927136D01*
X6498336Y7930946D01*
X6500113Y7934502D01*
X6500113Y7941866D01*
X6498336Y7945424D01*
X6494779Y7948980D01*
X6491224Y7951012D01*
X6462013Y7962950D02*
G01*
X6500111Y7962950D01*
X6462013Y7962950D02*
G01*
X6462013Y7975650D01*
X6463791Y7980984D01*
X6467602Y7984794D01*
X6471158Y7986572D01*
X6476491Y7988350D01*
X6485636Y7988350D01*
X6491224Y7986572D01*
X6494779Y7984794D01*
X6498333Y7980984D01*
X6500116Y7975650D01*
X6500111Y7962950D01*
X6513068Y8000288D02*
G01*
X6513068Y8033054D01*
X6462013Y8044992D02*
G01*
X6500113Y8044992D01*
X6462013Y8044992D02*
G01*
X6462013Y8057692D01*
X6463791Y8063278D01*
X6467602Y8066836D01*
X6471158Y8068612D01*
X6476491Y8070646D01*
X6485636Y8070646D01*
X6491224Y8068614D01*
X6494779Y8066836D01*
X6498336Y8063280D01*
X6500113Y8057692D01*
X6500113Y8044992D01*
X6469379Y8082582D02*
G01*
X6467602Y8086140D01*
X6462013Y8091728D01*
X6500113Y8091728D01*
X6721602Y7927898D02*
G01*
X6717791Y7924342D01*
X6716013Y7918754D01*
X6716013Y7911642D01*
X6717791Y7906054D01*
X6721602Y7902498D01*
X6725158Y7902498D01*
X6728713Y7904276D01*
X6730491Y7906054D01*
X6732524Y7909864D01*
X6736079Y7920786D01*
X6737858Y7924342D01*
X6739636Y7926120D01*
X6743191Y7927898D01*
X6748779Y7927898D01*
X6752336Y7924345D01*
X6754113Y7918754D01*
X6754113Y7911642D01*
X6752336Y7906054D01*
X6748779Y7902498D01*
X6716013Y7939836D02*
G01*
X6754113Y7939834D01*
X6716013Y7939836D02*
G01*
X6716013Y7952790D01*
X6717791Y7958124D01*
X6721602Y7961680D01*
X6725155Y7963712D01*
X6730491Y7965490D01*
X6739636Y7965490D01*
X6745224Y7963712D01*
X6748779Y7961680D01*
X6752336Y7958124D01*
X6754113Y7952790D01*
X6754113Y7939834D01*
X6767068Y7977428D02*
G01*
X6767068Y8010194D01*
X6721602Y8047532D02*
G01*
X6717791Y8043976D01*
X6716013Y8038388D01*
X6716013Y8031276D01*
X6717791Y8025688D01*
X6721602Y8022132D01*
X6725155Y8022132D01*
X6728713Y8023910D01*
X6730491Y8025688D01*
X6732524Y8029498D01*
X6736079Y8040420D01*
X6737858Y8043974D01*
X6739636Y8045754D01*
X6743191Y8047535D01*
X6748779Y8047532D01*
X6752336Y8043976D01*
X6754113Y8038388D01*
X6754113Y8031276D01*
X6752336Y8025688D01*
X6748779Y8022130D01*
X6721602Y8085124D02*
G01*
X6717791Y8081314D01*
X6716013Y8075983D01*
X6716013Y8068614D01*
X6717791Y8063280D01*
X6721602Y8059470D01*
X6725158Y8059470D01*
X6728713Y8061502D01*
X6730491Y8063280D01*
X6732524Y8066836D01*
X6736079Y8077758D01*
X6737858Y8081314D01*
X6739636Y8083346D01*
X6743191Y8085124D01*
X6748779Y8085124D01*
X6752336Y8081314D01*
X6754113Y8075980D01*
X6754113Y8068614D01*
X6752336Y8063280D01*
X6748779Y8059470D01*
X6975602Y7940598D02*
G01*
X6971791Y7937042D01*
X6970013Y7931454D01*
X6970013Y7924342D01*
X6971791Y7918754D01*
X6975602Y7915198D01*
X6979158Y7915198D01*
X6982713Y7916976D01*
X6984491Y7918754D01*
X6986524Y7922564D01*
X6990079Y7933486D01*
X6991858Y7937042D01*
X6993636Y7938820D01*
X6997191Y7940598D01*
X7002779Y7940598D01*
X7006336Y7937045D01*
X7008113Y7931454D01*
X7008113Y7924342D01*
X7006336Y7918754D01*
X7002779Y7915198D01*
X6970013Y7952536D02*
G01*
X7008113Y7952534D01*
X6970013Y7952536D02*
G01*
X6970013Y7965490D01*
X6971791Y7970824D01*
X6975602Y7974380D01*
X6979155Y7976412D01*
X6984491Y7978190D01*
X6993636Y7978190D01*
X6999224Y7976412D01*
X7002779Y7974380D01*
X7006336Y7970824D01*
X7008113Y7965490D01*
X7008113Y7952534D01*
X7021068Y7990128D02*
G01*
X7021068Y8022894D01*
X6970013Y8034830D02*
G01*
X7008113Y8034832D01*
X6970013Y8034830D02*
G01*
X6970016Y8047532D01*
X6971791Y8053120D01*
X6975602Y8056676D01*
X6979158Y8058457D01*
X6984491Y8060232D01*
X6993636Y8060232D01*
X6999224Y8058454D01*
X7002779Y8056676D01*
X7006336Y8053120D01*
X7008111Y8047532D01*
X7008113Y8034832D01*
X6970013Y8072170D02*
G01*
X7008113Y8072170D01*
X7229602Y7927898D02*
G01*
X7225791Y7924342D01*
X7224013Y7918754D01*
X7224013Y7911642D01*
X7225791Y7906054D01*
X7229602Y7902498D01*
X7233158Y7902498D01*
X7236713Y7904276D01*
X7238491Y7906054D01*
X7240524Y7909864D01*
X7244079Y7920786D01*
X7245858Y7924342D01*
X7247636Y7926120D01*
X7251191Y7927898D01*
X7256779Y7927898D01*
X7260336Y7924345D01*
X7262113Y7918754D01*
X7262113Y7911642D01*
X7260336Y7906054D01*
X7256779Y7902498D01*
X7224013Y7939836D02*
G01*
X7262113Y7939834D01*
X7224013Y7939836D02*
G01*
X7224013Y7952790D01*
X7225791Y7958124D01*
X7229602Y7961680D01*
X7233155Y7963712D01*
X7238491Y7965490D01*
X7247636Y7965490D01*
X7253224Y7963712D01*
X7256779Y7961680D01*
X7260336Y7958124D01*
X7262113Y7952790D01*
X7262113Y7939834D01*
X7275068Y7977428D02*
G01*
X7275068Y8010194D01*
X7224013Y8022130D02*
G01*
X7262113Y8022132D01*
X7224013Y8022130D02*
G01*
X7224016Y8034832D01*
X7225791Y8040420D01*
X7229602Y8043976D01*
X7233158Y8045757D01*
X7238491Y8047532D01*
X7247636Y8047532D01*
X7253224Y8045754D01*
X7256779Y8043976D01*
X7260336Y8040420D01*
X7262111Y8034832D01*
X7262113Y8022132D01*
X7224013Y8070392D02*
G01*
X7225791Y8066836D01*
X7229602Y8063280D01*
X7233158Y8061502D01*
X7238491Y8059470D01*
X7247636Y8059470D01*
X7253224Y8061502D01*
X7256779Y8063280D01*
X7260336Y8066836D01*
X7262113Y8070392D01*
X7262113Y8077758D01*
X7260336Y8081314D01*
X7256779Y8085124D01*
X7253224Y8086902D01*
X7247636Y8088680D01*
X7238491Y8088680D01*
X7233158Y8086905D01*
X7229602Y8085124D01*
X7225791Y8081314D01*
X7224016Y8077758D01*
X7224013Y8070392D01*
X7496302Y7915198D02*
G01*
X7492491Y7911642D01*
X7490713Y7906054D01*
X7490713Y7898942D01*
X7492491Y7893354D01*
X7496302Y7889798D01*
X7499858Y7889798D01*
X7503413Y7891576D01*
X7505191Y7893354D01*
X7507224Y7897164D01*
X7510779Y7908086D01*
X7512558Y7911642D01*
X7514336Y7913420D01*
X7517891Y7915198D01*
X7523479Y7915198D01*
X7527036Y7911645D01*
X7528813Y7906054D01*
X7528813Y7898942D01*
X7527036Y7893354D01*
X7523479Y7889798D01*
X7490713Y7927136D02*
G01*
X7528813Y7927134D01*
X7490713Y7927136D02*
G01*
X7490713Y7940090D01*
X7492491Y7945424D01*
X7496302Y7948980D01*
X7499855Y7951012D01*
X7505191Y7952790D01*
X7514336Y7952790D01*
X7519924Y7951012D01*
X7523479Y7948980D01*
X7527036Y7945424D01*
X7528813Y7940090D01*
X7528813Y7927134D01*
X7541768Y7964728D02*
G01*
X7541768Y7997494D01*
X7496302Y8034832D02*
G01*
X7492491Y8031276D01*
X7490713Y8025688D01*
X7490713Y8018576D01*
X7492491Y8012988D01*
X7496302Y8009432D01*
X7499855Y8009432D01*
X7503413Y8011210D01*
X7505191Y8012988D01*
X7507224Y8016798D01*
X7510779Y8027720D01*
X7512558Y8031274D01*
X7514336Y8033054D01*
X7517891Y8034835D01*
X7523479Y8034832D01*
X7527036Y8031276D01*
X7528813Y8025688D01*
X7528813Y8018576D01*
X7527036Y8012988D01*
X7523479Y8009430D01*
X7499858Y8074205D02*
G01*
X7496302Y8072424D01*
X7492491Y8068614D01*
X7490716Y8065058D01*
X7490713Y8057692D01*
X7492491Y8054136D01*
X7496302Y8050580D01*
X7499858Y8048802D01*
X7505191Y8046770D01*
X7514336Y8046770D01*
X7519924Y8048802D01*
X7523479Y8050580D01*
X7527036Y8054136D01*
X7528813Y8057692D01*
X7528813Y8065058D01*
X7527036Y8068614D01*
X7523479Y8072424D01*
X7519924Y8074202D01*
X7490713Y8086140D02*
G01*
X7528813Y8086140D01*
X7490713Y8111538D02*
G01*
X7516113Y8086140D01*
X7507224Y8095284D02*
G01*
X7528813Y8111540D01*
X4531613Y12220498D02*
G01*
X4569713Y12220498D01*
X4569713Y12220498D02*
G01*
X4569713Y12242342D01*
X4540758Y12281712D02*
G01*
X4537202Y12279680D01*
X4533391Y12276124D01*
X4531613Y12272568D01*
X4531613Y12265202D01*
X4533391Y12261646D01*
X4537202Y12257836D01*
X4540758Y12256058D01*
X4546091Y12254280D01*
X4555236Y12254280D01*
X4560824Y12256058D01*
X4564379Y12257836D01*
X4567936Y12261646D01*
X4569713Y12265202D01*
X4569713Y12272568D01*
X4567936Y12276124D01*
X4564379Y12279680D01*
X4560824Y12281712D01*
X4531613Y12293650D02*
G01*
X4569713Y12293650D01*
X4531613Y12293650D02*
G01*
X4531613Y12306350D01*
X4533391Y12311684D01*
X4537202Y12315494D01*
X4540758Y12317272D01*
X4546091Y12319050D01*
X4555236Y12319050D01*
X4560824Y12317272D01*
X4564379Y12315494D01*
X4567936Y12311684D01*
X4569713Y12306350D01*
X4569713Y12293650D01*
X4582668Y12330988D02*
G01*
X4582668Y12363754D01*
X4540758Y12403124D02*
G01*
X4537202Y12401346D01*
X4533391Y12397536D01*
X4531613Y12393980D01*
X4531613Y12386614D01*
X4533391Y12383058D01*
X4537202Y12379502D01*
X4540758Y12377470D01*
X4546091Y12375692D01*
X4555236Y12375692D01*
X4560824Y12377470D01*
X4564379Y12379502D01*
X4567936Y12383058D01*
X4569713Y12386614D01*
X4569713Y12393980D01*
X4567936Y12397536D01*
X4564379Y12401346D01*
X4560824Y12403124D01*
X4537202Y12440462D02*
G01*
X4533391Y12436906D01*
X4531613Y12431318D01*
X4531613Y12424206D01*
X4533391Y12418618D01*
X4537202Y12415062D01*
X4540758Y12415062D01*
X4544313Y12416840D01*
X4546091Y12418618D01*
X4548124Y12422428D01*
X4551679Y12433350D01*
X4553458Y12436906D01*
X4555236Y12438684D01*
X4558791Y12440462D01*
X4564379Y12440462D01*
X4567936Y12436906D01*
X4569713Y12431318D01*
X4569713Y12424206D01*
X4567936Y12418618D01*
X4564379Y12415062D01*
X4277613Y12195098D02*
G01*
X4315713Y12195098D01*
X4315713Y12195098D02*
G01*
X4315713Y12216942D01*
X4286758Y12256312D02*
G01*
X4283202Y12254280D01*
X4279391Y12250724D01*
X4277613Y12247168D01*
X4277613Y12239802D01*
X4279391Y12236246D01*
X4283202Y12232436D01*
X4286758Y12230658D01*
X4292091Y12228880D01*
X4301236Y12228880D01*
X4306824Y12230658D01*
X4310379Y12232436D01*
X4313936Y12236246D01*
X4315713Y12239802D01*
X4315713Y12247168D01*
X4313936Y12250724D01*
X4310379Y12254280D01*
X4306824Y12256312D01*
X4277613Y12268250D02*
G01*
X4315713Y12268250D01*
X4277613Y12268250D02*
G01*
X4277613Y12280950D01*
X4279391Y12286284D01*
X4283202Y12290094D01*
X4286758Y12291872D01*
X4292091Y12293650D01*
X4301236Y12293650D01*
X4306824Y12291872D01*
X4310379Y12290094D01*
X4313936Y12286284D01*
X4315713Y12280950D01*
X4315713Y12268250D01*
X4328668Y12305588D02*
G01*
X4328668Y12338354D01*
X4277613Y12350292D02*
G01*
X4315713Y12350292D01*
X4277613Y12350292D02*
G01*
X4277613Y12366802D01*
X4279391Y12372136D01*
X4281170Y12373914D01*
X4284979Y12375946D01*
X4288536Y12375946D01*
X4292091Y12373914D01*
X4294124Y12372136D01*
X4295902Y12366802D01*
X4295902Y12350292D01*
X4295902Y12362992D02*
G01*
X4315713Y12375946D01*
X4283202Y12413284D02*
G01*
X4279391Y12409728D01*
X4277613Y12404140D01*
X4277613Y12397028D01*
X4279391Y12391440D01*
X4283202Y12387884D01*
X4286758Y12387884D01*
X4290313Y12389662D01*
X4292091Y12391440D01*
X4294124Y12394996D01*
X4297679Y12405918D01*
X4299458Y12409728D01*
X4301236Y12411506D01*
X4304791Y12413284D01*
X4310379Y12413284D01*
X4313936Y12409728D01*
X4315713Y12404140D01*
X4315713Y12397028D01*
X4313936Y12391440D01*
X4310379Y12387884D01*
X4277613Y12437922D02*
G01*
X4315713Y12437922D01*
X4277613Y12425222D02*
G01*
X4277613Y12450622D01*
X4023613Y12271298D02*
G01*
X4061713Y12271298D01*
X4023613Y12271298D02*
G01*
X4023613Y12294920D01*
X4041902Y12271298D02*
G01*
X4041902Y12285776D01*
X4074668Y12306858D02*
G01*
X4074668Y12339624D01*
X4032758Y12378994D02*
G01*
X4029202Y12377216D01*
X4025391Y12373406D01*
X4023613Y12369850D01*
X4023613Y12362484D01*
X4025391Y12358928D01*
X4029202Y12355372D01*
X4032758Y12353594D01*
X4038091Y12351562D01*
X4047236Y12351562D01*
X4052824Y12353594D01*
X4056379Y12355372D01*
X4059936Y12358928D01*
X4061713Y12362484D01*
X4061713Y12369850D01*
X4059936Y12373406D01*
X4056379Y12377216D01*
X4052824Y12378994D01*
X4029202Y12416332D02*
G01*
X4025391Y12412776D01*
X4023613Y12407188D01*
X4023613Y12400076D01*
X4025391Y12394488D01*
X4029202Y12390932D01*
X4032758Y12390932D01*
X4036313Y12392710D01*
X4038091Y12394488D01*
X4040124Y12398298D01*
X4043679Y12409220D01*
X4045458Y12412776D01*
X4047236Y12414554D01*
X4050791Y12416332D01*
X4056379Y12416332D01*
X4059936Y12412776D01*
X4061713Y12407188D01*
X4061713Y12400076D01*
X4059936Y12394488D01*
X4056379Y12390932D01*
X10631677Y9873742D02*
G01*
X10629900Y9877297D01*
X10626343Y9881108D01*
X10622788Y9882886D01*
X10615422Y9882886D01*
X10611865Y9881108D01*
X10608056Y9877297D01*
X10606277Y9873742D01*
X10604500Y9868408D01*
X10604500Y9859263D01*
X10606277Y9853676D01*
X10608056Y9850120D01*
X10611865Y9846563D01*
X10615422Y9844786D01*
X10622788Y9844786D01*
X10626343Y9846563D01*
X10629900Y9850120D01*
X10631677Y9853676D01*
X10631677Y9859263D01*
X10622788Y9859263D02*
G01*
X10631677Y9859263D01*
X10643870Y9882886D02*
G01*
X10643870Y9844786D01*
X10643870Y9882886D02*
G01*
X10669270Y9844786D01*
X10669270Y9882886D02*
G01*
X10669270Y9844786D01*
X10681208Y9882886D02*
G01*
X10681208Y9844786D01*
X10681208Y9882886D02*
G01*
X10693908Y9882886D01*
X10699495Y9881108D01*
X10703052Y9877297D01*
X10704829Y9873742D01*
X10706608Y9868408D01*
X10706608Y9859263D01*
X10704829Y9853676D01*
X10703052Y9850120D01*
X10699495Y9846563D01*
X10693908Y9844786D01*
X10681208Y9844786D01*
X10858500Y9882886D02*
G01*
X10872977Y9844786D01*
X10887709Y9882886D02*
G01*
X10872977Y9844786D01*
X10926825Y9873742D02*
G01*
X10925047Y9877297D01*
X10921491Y9881108D01*
X10917681Y9882886D01*
X10910570Y9882886D01*
X10906759Y9881108D01*
X10903204Y9877297D01*
X10901425Y9873742D01*
X10899647Y9868408D01*
X10899647Y9859263D01*
X10901425Y9853676D01*
X10903204Y9850120D01*
X10906759Y9846563D01*
X10910570Y9844786D01*
X10917681Y9844786D01*
X10921491Y9846563D01*
X10925047Y9850120D01*
X10926825Y9853676D01*
X10966195Y9873742D02*
G01*
X10964418Y9877297D01*
X10960608Y9881108D01*
X10957052Y9882886D01*
X10949686Y9882886D01*
X10946129Y9881108D01*
X10942574Y9877297D01*
X10940795Y9873742D01*
X10938763Y9868408D01*
X10938763Y9859263D01*
X10940795Y9853676D01*
X10942574Y9850120D01*
X10946129Y9846563D01*
X10949686Y9844786D01*
X10957052Y9844786D01*
X10960608Y9846563D01*
X10964418Y9850120D01*
X10966195Y9853676D01*
X11150600Y9877297D02*
G01*
X11147043Y9881108D01*
X11141456Y9882886D01*
X11134343Y9882886D01*
X11128756Y9881108D01*
X11125200Y9877297D01*
X11125200Y9873742D01*
X11126977Y9870186D01*
X11128756Y9868408D01*
X11132565Y9866376D01*
X11143488Y9862820D01*
X11147043Y9861042D01*
X11148822Y9859263D01*
X11150600Y9855708D01*
X11150600Y9850120D01*
X11147043Y9846563D01*
X11141456Y9844786D01*
X11134343Y9844786D01*
X11128756Y9846563D01*
X11125200Y9850120D01*
X11189970Y9873742D02*
G01*
X11188191Y9877297D01*
X11184381Y9881108D01*
X11180825Y9882886D01*
X11173459Y9882886D01*
X11169904Y9881108D01*
X11166347Y9877297D01*
X11164570Y9873742D01*
X11162538Y9868408D01*
X11162538Y9859263D01*
X11164570Y9853676D01*
X11166347Y9850120D01*
X11169904Y9846563D01*
X11173459Y9844786D01*
X11180825Y9844786D01*
X11184381Y9846563D01*
X11188191Y9850120D01*
X11189970Y9853676D01*
X11201908Y9882886D02*
G01*
X11201908Y9844786D01*
X11201908Y9844786D02*
G01*
X11223752Y9844786D01*
X11417300Y9877297D02*
G01*
X11413743Y9881108D01*
X11408156Y9882886D01*
X11401043Y9882886D01*
X11395456Y9881108D01*
X11391900Y9877297D01*
X11391900Y9873742D01*
X11393677Y9870186D01*
X11395456Y9868408D01*
X11399265Y9866376D01*
X11410188Y9862820D01*
X11413743Y9861042D01*
X11415522Y9859263D01*
X11417300Y9855708D01*
X11417300Y9850120D01*
X11413743Y9846563D01*
X11408156Y9844786D01*
X11401043Y9844786D01*
X11395456Y9846563D01*
X11391900Y9850120D01*
X11429238Y9882886D02*
G01*
X11429238Y9844786D01*
X11429238Y9882886D02*
G01*
X11442191Y9882886D01*
X11447525Y9881108D01*
X11451081Y9877297D01*
X11453113Y9873742D01*
X11454891Y9868408D01*
X11454891Y9859263D01*
X11453113Y9853676D01*
X11451081Y9850120D01*
X11447525Y9846563D01*
X11442191Y9844786D01*
X11429238Y9844786D01*
X11481308Y9882886D02*
G01*
X11466829Y9844786D01*
X11481308Y9882886D02*
G01*
X11495786Y9844786D01*
X11472163Y9857486D02*
G01*
X11490452Y9857486D01*
D11*
X11121643Y12812521D02*
G01*
X11111229Y12822936D01*
X11095736Y12828015D01*
X11074908Y12828015D01*
X11059413Y12822936D01*
X11049000Y12812521D01*
X11049000Y12802108D01*
X11054079Y12791694D01*
X11059413Y12786360D01*
X11069827Y12781279D01*
X11101070Y12770865D01*
X11111229Y12765786D01*
X11116563Y12760452D01*
X11121643Y12750037D01*
X11121643Y12734544D01*
X11111229Y12724129D01*
X11095736Y12719050D01*
X11074908Y12719050D01*
X11059413Y12724129D01*
X11049000Y12734544D01*
X11155934Y12828015D02*
G01*
X11182095Y12719050D01*
X11208004Y12828015D02*
G01*
X11182095Y12719050D01*
X11208004Y12828015D02*
G01*
X11233911Y12719050D01*
X11259820Y12828015D02*
G01*
X11233911Y12719050D01*
X11294109Y12807187D02*
G01*
X11304524Y12812521D01*
X11320272Y12828015D01*
X11320272Y12719050D01*
D12*
X9646300Y12948000D02*
G01*
X1297299Y12948000D01*
X1297299Y7384999D01*
X9646300Y7384999D01*
X9646300Y12948000D01*
X1828800Y12601498D02*
G01*
X1828800Y7705496D01*
X9172798Y7705496D01*
X9172798Y12601498D01*
X1828800Y12601498D01*
D13*
X10287000Y7378700D02*
G01*
X10414000Y7569200D01*
X11684000Y7569200D01*
X11811000Y7378700D01*
X9906000Y9588500D02*
G01*
X12192000Y9588500D01*
X12192000Y8216900D01*
X9906000Y8216900D01*
X9906000Y9588500D01*
X9677400Y10172700D02*
G01*
X12420600Y10172700D01*
X12420600Y7378700D01*
X11811000Y7378700D01*
X10287000Y7378700D01*
X9677400Y7378700D01*
X9677400Y10172700D01*
D12*
X10477500Y12609829D02*
G01*
X11645900Y12609829D01*
X11645900Y11235689D01*
X10477500Y11235689D01*
X10477500Y12609829D01*
G75*
G01
X11361420Y11885930D02*
G03X11361420Y11885930I-299720J0D01*
G75*
G01
X11562080Y11885930D02*
G03X11562080Y11885930I-500380J0D01*
G75*
G01
X11412220Y11885930D02*
G03X11412220Y11885930I-350520J0D01*
M02*
