G04 Layer: TopSolderMaskLayer*
G04 EasyEDA v6.5.44, 2024-08-21 21:21:16*
G04 a079ae6def3d47c492197c10d7659819,080bb0d1436b4706b040d70de8f1a738,10*
G04 Gerber Generator version 0.2*
G04 Scale: 100 percent, Rotated: No, Reflected: No *
G04 Dimensions in millimeters *
G04 leading zeros omitted , absolute positions ,4 integer and 5 decimal *
%FSLAX45Y45*%
%MOMM*%

%AMMACRO1*4,1,8,-1.0416,-1.9012,-1.1011,-1.8417,-1.1011,1.8417,-1.0416,1.9012,1.0416,1.9012,1.1011,1.8417,1.1011,-1.8417,1.0416,-1.9012,-1.0416,-1.9012,0*%
%AMMACRO2*4,1,8,-0.7751,-0.8048,-0.8048,-0.775,-0.8048,0.7751,-0.7751,0.8048,0.775,0.8048,0.8048,0.7751,0.8048,-0.775,0.775,-0.8048,-0.7751,-0.8048,0*%
%AMMACRO3*4,1,8,-0.7711,-0.8008,-0.8008,-0.771,-0.8008,0.771,-0.7711,0.8008,0.771,0.8008,0.8008,0.771,0.8008,-0.771,0.771,-0.8008,-0.7711,-0.8008,0*%
%AMMACRO4*4,1,8,-0.7711,-0.8008,-0.8008,-0.771,-0.8008,0.7711,-0.7711,0.8008,0.771,0.8008,0.8008,0.7711,0.8008,-0.771,0.771,-0.8008,-0.7711,-0.8008,0*%
%ADD10C,2.0041*%
%ADD11MACRO1*%
%ADD12C,1.7016*%
%ADD13C,1.6256*%
%ADD14MACRO2*%
%ADD15C,1.6096*%
%ADD16MACRO3*%
%ADD17C,1.6016*%
%ADD18MACRO4*%

%LPD*%
D10*
G01*
X10812779Y11136629D03*
G01*
X11061700Y11136629D03*
G01*
X11310620Y11136629D03*
G01*
X11310620Y12586970D03*
G01*
X10812779Y12586970D03*
D11*
G01*
X10436699Y11885930D03*
G01*
X11686700Y11885930D03*
D12*
G01*
X7319111Y9027236D03*
G01*
X7065111Y9027236D03*
G01*
X6811111Y9027236D03*
G01*
X6557111Y9027236D03*
G01*
X6303111Y9027236D03*
G01*
X6049111Y9027236D03*
G01*
X5795111Y9027236D03*
G01*
X5541111Y9027236D03*
G01*
X5287111Y9027236D03*
G01*
X5033111Y9027236D03*
G01*
X4779111Y9027236D03*
G01*
X4525111Y9027236D03*
G01*
X4271111Y9027236D03*
G01*
X4017111Y9027236D03*
G01*
X3763111Y9027236D03*
G01*
X3509111Y9027236D03*
G01*
X3255111Y9027236D03*
G01*
X3001111Y9027236D03*
G01*
X2747136Y9027236D03*
G01*
X7318883Y11567236D03*
G01*
X7065111Y11567236D03*
G01*
X6811111Y11567236D03*
G01*
X6557111Y11567236D03*
G01*
X6303111Y11567236D03*
G01*
X6049111Y11567236D03*
G01*
X5795111Y11567236D03*
G01*
X5541111Y11567236D03*
G01*
X5287111Y11567236D03*
G01*
X5033111Y11567236D03*
G01*
X4779111Y11567236D03*
G01*
X4525111Y11567236D03*
G01*
X4271111Y11567236D03*
G01*
X4017111Y11567236D03*
G01*
X3763111Y11567236D03*
G01*
X3509111Y11567236D03*
G01*
X3255111Y11567236D03*
G01*
X3001111Y11567236D03*
G01*
X2747136Y11567236D03*
D13*
G01*
X2493136Y11567236D03*
G01*
X2239136Y11567236D03*
G01*
X1985136Y11567236D03*
G01*
X2493136Y9027236D03*
G01*
X2239136Y9027236D03*
G01*
X1985136Y9027236D03*
D14*
G01*
X10602112Y9856810D03*
D15*
G01*
X10856112Y9856810D03*
G01*
X11110112Y9856810D03*
G01*
X11364112Y9856810D03*
D16*
G01*
X6812761Y7743977D03*
D17*
G01*
X6558762Y7743977D03*
G01*
X6304762Y7743977D03*
G01*
X6050762Y7743977D03*
G01*
X5796762Y7743977D03*
G01*
X5542762Y7743977D03*
G01*
X5288762Y7743977D03*
G01*
X5034762Y7743977D03*
D16*
G01*
X4628361Y7743977D03*
D17*
G01*
X4374362Y7743977D03*
G01*
X4120362Y7743977D03*
G01*
X3866362Y7743977D03*
G01*
X3612362Y7743977D03*
G01*
X3358362Y7743977D03*
G01*
X3104362Y7743977D03*
G01*
X2850362Y7743977D03*
G01*
X2850362Y12569977D03*
G01*
X3104362Y12569977D03*
G01*
X3358362Y12569977D03*
G01*
X3612362Y12569977D03*
G01*
X3866362Y12569977D03*
D18*
G01*
X4120361Y12569978D03*
D17*
G01*
X4628362Y12569977D03*
G01*
X4882362Y12569977D03*
G01*
X5136362Y12569977D03*
G01*
X5390362Y12569977D03*
G01*
X5644362Y12569977D03*
D18*
G01*
X5898361Y12569978D03*
M02*
