G04 Layer: BottomSolderMaskLayer*
G04 EasyEDA v6.5.44, 2024-08-15 16:30:46*
G04 47a5133be28f4d398fb1845f12d33526,080bb0d1436b4706b040d70de8f1a738,10*
G04 Gerber Generator version 0.2*
G04 Scale: 100 percent, Rotated: No, Reflected: No *
G04 Dimensions in millimeters *
G04 leading zeros omitted , absolute positions ,4 integer and 5 decimal *
%FSLAX45Y45*%
%MOMM*%

%AMMACRO1*4,1,8,-1.0416,-1.9012,-1.1011,-1.8417,-1.1011,1.8417,-1.0416,1.9012,1.0416,1.9012,1.1011,1.8417,1.1011,-1.8417,1.0416,-1.9012,-1.0416,-1.9012,0*%
%AMMACRO2*4,1,8,-0.7751,-0.8048,-0.8048,-0.775,-0.8048,0.7751,-0.7751,0.8048,0.775,0.8048,0.8048,0.7751,0.8048,-0.775,0.775,-0.8048,-0.7751,-0.8048,0*%
%AMMACRO3*4,1,8,-0.7711,-0.8008,-0.8008,-0.771,-0.8008,0.771,-0.7711,0.8008,0.771,0.8008,0.8008,0.771,0.8008,-0.771,0.771,-0.8008,-0.7711,-0.8008,0*%
%AMMACRO4*4,1,8,-0.7711,-0.8008,-0.8008,-0.771,-0.8008,0.7711,-0.7711,0.8008,0.771,0.8008,0.8008,0.7711,0.8008,-0.771,0.771,-0.8008,-0.7711,-0.8008,0*%
%ADD10C,2.0041*%
%ADD11MACRO1*%
%ADD12C,1.7016*%
%ADD13C,1.6256*%
%ADD14MACRO2*%
%ADD15C,1.6096*%
%ADD16MACRO3*%
%ADD17C,1.6016*%
%ADD18MACRO4*%

%LPD*%
D10*
G01*
X10812779Y11136629D03*
G01*
X11061700Y11136629D03*
G01*
X11310620Y11136629D03*
G01*
X11310620Y12586970D03*
G01*
X10812779Y12586970D03*
D11*
G01*
X10436699Y11885930D03*
G01*
X11686700Y11885930D03*
D12*
G01*
X6565900Y9017000D03*
G01*
X6311900Y9017000D03*
G01*
X6057900Y9017000D03*
G01*
X5803900Y9017000D03*
G01*
X5549900Y9017000D03*
G01*
X5295900Y9017000D03*
G01*
X5041900Y9017000D03*
G01*
X4787900Y9017000D03*
G01*
X4533900Y9017000D03*
G01*
X4279900Y9017000D03*
G01*
X4025900Y9017000D03*
G01*
X3771900Y9017000D03*
G01*
X3517900Y9017000D03*
G01*
X3263900Y9017000D03*
G01*
X3009900Y9017000D03*
G01*
X2755900Y9017000D03*
G01*
X2501900Y9017000D03*
G01*
X2247900Y9017000D03*
G01*
X1993925Y9017000D03*
G01*
X6565671Y11557000D03*
G01*
X6311900Y11557000D03*
G01*
X6057900Y11557000D03*
G01*
X5803900Y11557000D03*
G01*
X5549900Y11557000D03*
G01*
X5295900Y11557000D03*
G01*
X5041900Y11557000D03*
G01*
X4787900Y11557000D03*
G01*
X4533900Y11557000D03*
G01*
X4279900Y11557000D03*
G01*
X4025900Y11557000D03*
G01*
X3771900Y11557000D03*
G01*
X3517900Y11557000D03*
G01*
X3263900Y11557000D03*
G01*
X3009900Y11557000D03*
G01*
X2755900Y11557000D03*
G01*
X2501900Y11557000D03*
G01*
X2247900Y11557000D03*
G01*
X1993925Y11557000D03*
D13*
G01*
X1739925Y11557000D03*
G01*
X1485925Y11557000D03*
G01*
X1231925Y11557000D03*
G01*
X1739925Y9017000D03*
G01*
X1485925Y9017000D03*
G01*
X1231925Y9017000D03*
D14*
G01*
X10668000Y10045700D03*
D15*
G01*
X10922000Y10045700D03*
G01*
X11176000Y10045700D03*
G01*
X11430000Y10045700D03*
D16*
G01*
X7632698Y7756601D03*
D17*
G01*
X7378700Y7756601D03*
G01*
X7124700Y7756601D03*
G01*
X6870700Y7756601D03*
G01*
X6616700Y7756601D03*
G01*
X6362700Y7756601D03*
G01*
X6108700Y7756601D03*
G01*
X5854700Y7756601D03*
D16*
G01*
X5448298Y7756601D03*
D17*
G01*
X5194300Y7756601D03*
G01*
X4940300Y7756601D03*
G01*
X4686300Y7756601D03*
G01*
X4432300Y7756601D03*
G01*
X4178300Y7756601D03*
G01*
X3924300Y7756601D03*
G01*
X3670300Y7756601D03*
G01*
X3670300Y12582601D03*
G01*
X3924300Y12582601D03*
G01*
X4178300Y12582601D03*
G01*
X4432300Y12582601D03*
G01*
X4686300Y12582601D03*
D18*
G01*
X4940298Y12582602D03*
D17*
G01*
X5448300Y12582601D03*
G01*
X5702300Y12582601D03*
G01*
X5956300Y12582601D03*
G01*
X6210300Y12582601D03*
G01*
X6464300Y12582601D03*
D18*
G01*
X6718298Y12582602D03*
M02*
