G04 Layer: BottomLayer*
G04 EasyEDA v6.5.44, 2024-08-14 22:57:35*
G04 e2365b2007be4636825aa8bea70769d7,080bb0d1436b4706b040d70de8f1a738,10*
G04 Gerber Generator version 0.2*
G04 Scale: 100 percent, Rotated: No, Reflected: No *
G04 Dimensions in millimeters *
G04 leading zeros omitted , absolute positions ,4 integer and 5 decimal *
%FSLAX45Y45*%
%MOMM*%

%ADD10C,0.3000*%
%ADD11R,1.5080X1.5080*%
%ADD12C,1.5080*%
%ADD13R,1.5000X1.5000*%
%ADD14C,1.5000*%
%ADD15C,1.8009*%
%ADD16R,1.9990X3.5992*%
%ADD17C,1.6000*%
%ADD18C,1.5240*%
%ADD19C,0.6100*%
%ADD20C,0.0198*%

%LPD*%
G36*
X798068Y7137908D02*
G01*
X794156Y7138670D01*
X790905Y7140905D01*
X788670Y7144156D01*
X787908Y7148068D01*
X787908Y13171932D01*
X788670Y13175843D01*
X790905Y13179094D01*
X794156Y13181330D01*
X798068Y13182092D01*
X12663932Y13182092D01*
X12667843Y13181330D01*
X12671094Y13179094D01*
X12673330Y13175843D01*
X12674092Y13171932D01*
X12674092Y7148068D01*
X12673330Y7144156D01*
X12671094Y7140905D01*
X12667843Y7138670D01*
X12663932Y7137908D01*
G37*

%LPC*%
G36*
X12090400Y7494117D02*
G01*
X12105589Y7495031D01*
X12120524Y7497775D01*
X12135053Y7502296D01*
X12148921Y7508544D01*
X12161926Y7516418D01*
X12173864Y7525766D01*
X12184634Y7536535D01*
X12193981Y7548473D01*
X12201855Y7561478D01*
X12208103Y7575346D01*
X12212624Y7589875D01*
X12215368Y7604810D01*
X12216282Y7620000D01*
X12215368Y7635189D01*
X12212624Y7650124D01*
X12208103Y7664653D01*
X12201855Y7678521D01*
X12193981Y7691526D01*
X12184634Y7703464D01*
X12173864Y7714234D01*
X12161926Y7723581D01*
X12148921Y7731455D01*
X12135053Y7737703D01*
X12120524Y7742224D01*
X12105589Y7744968D01*
X12090400Y7745882D01*
X12075210Y7744968D01*
X12060275Y7742224D01*
X12045746Y7737703D01*
X12031878Y7731455D01*
X12018873Y7723581D01*
X12006935Y7714234D01*
X11996166Y7703464D01*
X11986818Y7691526D01*
X11978944Y7678521D01*
X11972696Y7664653D01*
X11968175Y7650124D01*
X11965432Y7635189D01*
X11964517Y7620000D01*
X11965432Y7604810D01*
X11968175Y7589875D01*
X11972696Y7575346D01*
X11978944Y7561478D01*
X11986818Y7548473D01*
X11996166Y7536535D01*
X12006935Y7525766D01*
X12018873Y7516418D01*
X12031878Y7508544D01*
X12045746Y7502296D01*
X12060275Y7497775D01*
X12075210Y7495031D01*
G37*
G36*
X10007600Y7494117D02*
G01*
X10022789Y7495031D01*
X10037724Y7497775D01*
X10052253Y7502296D01*
X10066121Y7508544D01*
X10079126Y7516418D01*
X10091064Y7525766D01*
X10101834Y7536535D01*
X10111181Y7548473D01*
X10119055Y7561478D01*
X10125303Y7575346D01*
X10129824Y7589875D01*
X10132568Y7604810D01*
X10133482Y7620000D01*
X10132568Y7635189D01*
X10129824Y7650124D01*
X10125303Y7664653D01*
X10119055Y7678521D01*
X10111181Y7691526D01*
X10101834Y7703464D01*
X10091064Y7714234D01*
X10079126Y7723581D01*
X10066121Y7731455D01*
X10052253Y7737703D01*
X10037724Y7742224D01*
X10022789Y7744968D01*
X10007600Y7745882D01*
X9992410Y7744968D01*
X9977475Y7742224D01*
X9962946Y7737703D01*
X9949078Y7731455D01*
X9936073Y7723581D01*
X9924135Y7714234D01*
X9913366Y7703464D01*
X9904018Y7691526D01*
X9896144Y7678521D01*
X9889896Y7664653D01*
X9885375Y7650124D01*
X9882632Y7635189D01*
X9881717Y7620000D01*
X9882632Y7604810D01*
X9885375Y7589875D01*
X9889896Y7575346D01*
X9896144Y7561478D01*
X9904018Y7548473D01*
X9913366Y7536535D01*
X9924135Y7525766D01*
X9936073Y7516418D01*
X9949078Y7508544D01*
X9962946Y7502296D01*
X9977475Y7497775D01*
X9992410Y7495031D01*
G37*
G36*
X3936746Y7608316D02*
G01*
X6407200Y7608316D01*
X6415633Y7609179D01*
X6423304Y7611465D01*
X6430365Y7615275D01*
X6436969Y7620660D01*
X6499809Y7683500D01*
X6505194Y7690103D01*
X6509004Y7697165D01*
X6511290Y7704836D01*
X6511493Y7706868D01*
X6512763Y7710881D01*
X6515607Y7714030D01*
X6519418Y7715808D01*
X6523634Y7715808D01*
X6527495Y7714132D01*
X6530340Y7711033D01*
X6533540Y7705699D01*
X6541871Y7695133D01*
X6551574Y7685735D01*
X6562394Y7677759D01*
X6574231Y7671308D01*
X6586829Y7666431D01*
X6599936Y7663332D01*
X6613347Y7661960D01*
X6626809Y7662418D01*
X6640068Y7664653D01*
X6652971Y7668666D01*
X6665163Y7674305D01*
X6676542Y7681569D01*
X6686854Y7690256D01*
X6695897Y7700264D01*
X6703517Y7711389D01*
X6709562Y7723428D01*
X6713981Y7736128D01*
X6716674Y7749336D01*
X6717588Y7762798D01*
X6716674Y7776260D01*
X6713981Y7789468D01*
X6709562Y7802168D01*
X6703517Y7814208D01*
X6695897Y7825333D01*
X6686854Y7835341D01*
X6676542Y7844028D01*
X6665163Y7851292D01*
X6652971Y7856931D01*
X6640068Y7860944D01*
X6626809Y7863179D01*
X6613347Y7863636D01*
X6599936Y7862265D01*
X6586829Y7859166D01*
X6574231Y7854289D01*
X6562394Y7847838D01*
X6551574Y7839862D01*
X6541871Y7830464D01*
X6533540Y7819898D01*
X6531051Y7815681D01*
X6528054Y7812481D01*
X6523990Y7810855D01*
X6519621Y7811058D01*
X6515760Y7813141D01*
X6513068Y7816596D01*
X6512153Y7820863D01*
X6512153Y8206740D01*
X6512915Y8210651D01*
X6515100Y8213902D01*
X6518402Y8216138D01*
X6522313Y8216900D01*
X8368284Y8216900D01*
X8370011Y8217611D01*
X8622588Y8470188D01*
X8623300Y8471916D01*
X8623300Y11505946D01*
X8624062Y11509806D01*
X8626297Y11513108D01*
X8629548Y11515293D01*
X8633460Y11516106D01*
X9029954Y11516106D01*
X9033814Y11515293D01*
X9037116Y11513108D01*
X10533126Y10017150D01*
X10539679Y10011714D01*
X10546740Y10007955D01*
X10554411Y10005618D01*
X10557510Y10005314D01*
X10561116Y10004298D01*
X10564063Y10002012D01*
X10565993Y9998862D01*
X10566704Y9995204D01*
X10566704Y9970871D01*
X10567416Y9964572D01*
X10569295Y9959086D01*
X10572394Y9954209D01*
X10576509Y9950094D01*
X10581386Y9946995D01*
X10586872Y9945116D01*
X10593171Y9944404D01*
X10742828Y9944404D01*
X10749127Y9945116D01*
X10754614Y9946995D01*
X10759490Y9950094D01*
X10763605Y9954209D01*
X10766704Y9959086D01*
X10768584Y9964572D01*
X10769295Y9970871D01*
X10769295Y10120528D01*
X10768584Y10126827D01*
X10766704Y10132314D01*
X10763605Y10137190D01*
X10759490Y10141305D01*
X10754614Y10144404D01*
X10749127Y10146284D01*
X10742828Y10146995D01*
X10593171Y10146995D01*
X10586872Y10146284D01*
X10581386Y10144404D01*
X10576509Y10141305D01*
X10572394Y10137190D01*
X10569295Y10132314D01*
X10567416Y10126827D01*
X10566908Y10122357D01*
X10565790Y10118750D01*
X10563453Y10115804D01*
X10560151Y10113924D01*
X10556443Y10113365D01*
X10552734Y10114178D01*
X10549636Y10116312D01*
X9080347Y11585549D01*
X9073794Y11590985D01*
X9066733Y11594744D01*
X9059062Y11597081D01*
X9050578Y11597894D01*
X8633460Y11597894D01*
X8629548Y11598656D01*
X8626297Y11600891D01*
X8624062Y11604193D01*
X8623300Y11608054D01*
X8623300Y12025884D01*
X8622588Y12027611D01*
X8370011Y12280188D01*
X8368284Y12280900D01*
X6272479Y12280900D01*
X6268567Y12281662D01*
X6265265Y12283897D01*
X6263081Y12287148D01*
X6262319Y12291060D01*
X6262319Y12524232D01*
X6263182Y12528296D01*
X6265570Y12531699D01*
X6269126Y12533833D01*
X6273241Y12534392D01*
X6277254Y12533223D01*
X6280454Y12530531D01*
X6287871Y12521133D01*
X6297574Y12511735D01*
X6308394Y12503759D01*
X6320231Y12497308D01*
X6332829Y12492431D01*
X6345936Y12489332D01*
X6359347Y12487960D01*
X6372809Y12488418D01*
X6386068Y12490653D01*
X6398971Y12494666D01*
X6411163Y12500305D01*
X6422542Y12507569D01*
X6432854Y12516256D01*
X6441897Y12526264D01*
X6449517Y12537389D01*
X6455562Y12549428D01*
X6459982Y12562128D01*
X6462674Y12575336D01*
X6463588Y12588798D01*
X6462674Y12602260D01*
X6459982Y12615468D01*
X6455562Y12628168D01*
X6449517Y12640208D01*
X6441897Y12651333D01*
X6432854Y12661341D01*
X6422542Y12670028D01*
X6411163Y12677292D01*
X6398971Y12682931D01*
X6386068Y12686944D01*
X6372809Y12689179D01*
X6359347Y12689636D01*
X6345936Y12688265D01*
X6332829Y12685166D01*
X6320231Y12680289D01*
X6308394Y12673838D01*
X6297574Y12665862D01*
X6287871Y12656464D01*
X6279540Y12645948D01*
X6276492Y12643358D01*
X6272733Y12642138D01*
X6268720Y12642494D01*
X6265214Y12644323D01*
X6262624Y12647422D01*
X6259169Y12658953D01*
X6255359Y12666014D01*
X6249974Y12672568D01*
X6146088Y12776454D01*
X6139535Y12781838D01*
X6132474Y12785648D01*
X6124803Y12787934D01*
X6116320Y12788798D01*
X5506262Y12788798D01*
X5497830Y12787934D01*
X5490159Y12785648D01*
X5483098Y12781838D01*
X5476494Y12776454D01*
X5387340Y12687249D01*
X5384292Y12685217D01*
X5380736Y12684302D01*
X5377129Y12684760D01*
X5370068Y12686944D01*
X5356809Y12689179D01*
X5343347Y12689636D01*
X5329936Y12688265D01*
X5316829Y12685166D01*
X5304231Y12680289D01*
X5292394Y12673838D01*
X5281574Y12665862D01*
X5271871Y12656464D01*
X5263540Y12645898D01*
X5256682Y12634315D01*
X5251399Y12621869D01*
X5247843Y12608915D01*
X5246065Y12595555D01*
X5246065Y12582042D01*
X5247843Y12568682D01*
X5251399Y12555728D01*
X5256682Y12543282D01*
X5263540Y12531699D01*
X5271871Y12521133D01*
X5281574Y12511735D01*
X5292394Y12503759D01*
X5304231Y12497308D01*
X5316829Y12492431D01*
X5329936Y12489332D01*
X5343347Y12487960D01*
X5356809Y12488418D01*
X5370068Y12490653D01*
X5382971Y12494666D01*
X5395163Y12500305D01*
X5406542Y12507569D01*
X5416854Y12516256D01*
X5425897Y12526264D01*
X5433517Y12537389D01*
X5439562Y12549428D01*
X5443982Y12562128D01*
X5446674Y12575336D01*
X5447588Y12588798D01*
X5446674Y12602260D01*
X5443982Y12615468D01*
X5442813Y12618923D01*
X5442254Y12622682D01*
X5443067Y12626340D01*
X5445201Y12629438D01*
X5519724Y12704013D01*
X5523026Y12706197D01*
X5526938Y12706959D01*
X5575909Y12706959D01*
X5579973Y12706096D01*
X5583377Y12703657D01*
X5585510Y12700050D01*
X5586018Y12695885D01*
X5584799Y12691872D01*
X5582056Y12688722D01*
X5578246Y12686944D01*
X5570829Y12685166D01*
X5558231Y12680289D01*
X5546394Y12673838D01*
X5535574Y12665862D01*
X5525871Y12656464D01*
X5517540Y12645898D01*
X5510682Y12634315D01*
X5505399Y12621869D01*
X5501843Y12608915D01*
X5500065Y12595555D01*
X5500065Y12582042D01*
X5501843Y12568682D01*
X5505399Y12555728D01*
X5510682Y12543282D01*
X5517540Y12531699D01*
X5525871Y12521133D01*
X5535574Y12511735D01*
X5546394Y12503759D01*
X5558231Y12497308D01*
X5570829Y12492431D01*
X5583936Y12489332D01*
X5597347Y12487960D01*
X5610809Y12488418D01*
X5624068Y12490653D01*
X5636971Y12494666D01*
X5649163Y12500305D01*
X5660542Y12507569D01*
X5670854Y12516256D01*
X5679897Y12526264D01*
X5687517Y12537389D01*
X5693562Y12549428D01*
X5697982Y12562128D01*
X5700674Y12575336D01*
X5701588Y12588798D01*
X5700674Y12602260D01*
X5697982Y12615468D01*
X5696813Y12618923D01*
X5696254Y12622682D01*
X5697067Y12626340D01*
X5699201Y12629438D01*
X5723991Y12654280D01*
X5727293Y12656464D01*
X5731205Y12657226D01*
X5760415Y12657226D01*
X5764580Y12656362D01*
X5767984Y12653822D01*
X5770118Y12650165D01*
X5770524Y12645948D01*
X5769152Y12641884D01*
X5764682Y12634315D01*
X5759399Y12621869D01*
X5755843Y12608915D01*
X5754065Y12595555D01*
X5754065Y12582042D01*
X5755843Y12568682D01*
X5758789Y12557963D01*
X5759094Y12554458D01*
X5758180Y12551003D01*
X5756148Y12548108D01*
X5491937Y12283897D01*
X5488635Y12281662D01*
X5484723Y12280900D01*
X5219954Y12280900D01*
X5216093Y12281662D01*
X5212791Y12283897D01*
X5210606Y12287148D01*
X5209794Y12291060D01*
X5209794Y12512090D01*
X5208981Y12520574D01*
X5206644Y12528245D01*
X5202885Y12535306D01*
X5197449Y12541859D01*
X5191201Y12548158D01*
X5189067Y12551257D01*
X5188254Y12554915D01*
X5188813Y12558674D01*
X5189982Y12562128D01*
X5192674Y12575336D01*
X5193588Y12588798D01*
X5192674Y12602260D01*
X5189982Y12615468D01*
X5185562Y12628168D01*
X5179517Y12640208D01*
X5171897Y12651333D01*
X5162854Y12661341D01*
X5152542Y12670028D01*
X5141163Y12677292D01*
X5128971Y12682931D01*
X5116068Y12686944D01*
X5102809Y12689179D01*
X5089347Y12689636D01*
X5075936Y12688265D01*
X5062829Y12685166D01*
X5050231Y12680289D01*
X5038394Y12673838D01*
X5027574Y12665862D01*
X5017871Y12656464D01*
X5009438Y12645796D01*
X5006441Y12642596D01*
X5002428Y12640919D01*
X4998008Y12641173D01*
X4994148Y12643205D01*
X4991506Y12646660D01*
X4990541Y12650978D01*
X4990541Y12675565D01*
X4989728Y12684048D01*
X4987391Y12691719D01*
X4983632Y12698780D01*
X4978196Y12705334D01*
X4960772Y12722809D01*
X4954168Y12728194D01*
X4947107Y12732004D01*
X4939436Y12734290D01*
X4931003Y12735153D01*
X4030218Y12735153D01*
X4021785Y12734290D01*
X4014114Y12732004D01*
X4007053Y12728194D01*
X4000449Y12722809D01*
X3964940Y12687249D01*
X3961892Y12685217D01*
X3958336Y12684302D01*
X3954729Y12684760D01*
X3947668Y12686944D01*
X3934409Y12689179D01*
X3920947Y12689636D01*
X3907536Y12688265D01*
X3894429Y12685166D01*
X3881831Y12680289D01*
X3869994Y12673838D01*
X3859174Y12665862D01*
X3849471Y12656464D01*
X3841140Y12645898D01*
X3834282Y12634315D01*
X3828999Y12621869D01*
X3825443Y12608915D01*
X3823665Y12595555D01*
X3823665Y12582042D01*
X3825443Y12568682D01*
X3828999Y12555728D01*
X3834282Y12543282D01*
X3841140Y12531699D01*
X3849471Y12521133D01*
X3859174Y12511735D01*
X3869994Y12503759D01*
X3881831Y12497308D01*
X3894429Y12492431D01*
X3907536Y12489332D01*
X3920947Y12487960D01*
X3934409Y12488418D01*
X3947668Y12490653D01*
X3960571Y12494666D01*
X3972763Y12500305D01*
X3984142Y12507569D01*
X3994454Y12516256D01*
X4003497Y12526264D01*
X4011117Y12537389D01*
X4017162Y12549428D01*
X4021582Y12562128D01*
X4024274Y12575336D01*
X4025188Y12588798D01*
X4024274Y12602260D01*
X4021582Y12615468D01*
X4020413Y12618923D01*
X4019854Y12622682D01*
X4020667Y12626340D01*
X4022801Y12629438D01*
X4043679Y12650368D01*
X4046982Y12652552D01*
X4050893Y12653314D01*
X4081678Y12653314D01*
X4085844Y12652451D01*
X4089298Y12649911D01*
X4091381Y12646253D01*
X4091787Y12642037D01*
X4090466Y12637973D01*
X4088282Y12634315D01*
X4082999Y12621869D01*
X4079443Y12608915D01*
X4077665Y12595555D01*
X4077665Y12582042D01*
X4079443Y12568682D01*
X4082389Y12557963D01*
X4082694Y12554458D01*
X4081779Y12551003D01*
X4079748Y12548108D01*
X3932174Y12400534D01*
X3928872Y12398298D01*
X3925011Y12397536D01*
X3053435Y12397536D01*
X3049524Y12398298D01*
X3046272Y12400534D01*
X3044037Y12403836D01*
X3043275Y12407696D01*
X3044037Y12411608D01*
X3046272Y12414910D01*
X3121507Y12490145D01*
X3124758Y12492329D01*
X3128518Y12493142D01*
X3132429Y12492431D01*
X3145536Y12489332D01*
X3158947Y12487960D01*
X3172409Y12488418D01*
X3185668Y12490653D01*
X3198571Y12494666D01*
X3210763Y12500305D01*
X3222142Y12507569D01*
X3232454Y12516256D01*
X3241497Y12526264D01*
X3249117Y12537389D01*
X3255162Y12549428D01*
X3259582Y12562128D01*
X3262274Y12575336D01*
X3263188Y12588798D01*
X3262274Y12602260D01*
X3259582Y12615468D01*
X3255162Y12628168D01*
X3249269Y12639852D01*
X3248202Y12643815D01*
X3248812Y12647879D01*
X3250946Y12651384D01*
X3254298Y12653772D01*
X3258362Y12654584D01*
X3288436Y12654584D01*
X3292348Y12653822D01*
X3295650Y12651638D01*
X3317748Y12629489D01*
X3319779Y12626594D01*
X3320694Y12623139D01*
X3320389Y12619634D01*
X3317443Y12608915D01*
X3315665Y12595555D01*
X3315665Y12582042D01*
X3317443Y12568682D01*
X3320999Y12555728D01*
X3326282Y12543282D01*
X3333140Y12531699D01*
X3341471Y12521133D01*
X3351174Y12511735D01*
X3361994Y12503759D01*
X3373831Y12497308D01*
X3386429Y12492431D01*
X3399536Y12489332D01*
X3412947Y12487960D01*
X3426409Y12488418D01*
X3439668Y12490653D01*
X3452571Y12494666D01*
X3464763Y12500305D01*
X3476142Y12507569D01*
X3486454Y12516256D01*
X3495497Y12526264D01*
X3503117Y12537389D01*
X3509162Y12549428D01*
X3513582Y12562128D01*
X3516274Y12575336D01*
X3517188Y12588798D01*
X3516274Y12602260D01*
X3513582Y12615468D01*
X3509162Y12628168D01*
X3503117Y12640208D01*
X3495497Y12651333D01*
X3486454Y12661341D01*
X3476142Y12670028D01*
X3464763Y12677292D01*
X3452571Y12682931D01*
X3439668Y12686944D01*
X3426409Y12689179D01*
X3412947Y12689636D01*
X3399536Y12688265D01*
X3386378Y12685115D01*
X3382518Y12684455D01*
X3378758Y12685268D01*
X3375507Y12687452D01*
X3338880Y12724079D01*
X3332276Y12729464D01*
X3325215Y12733274D01*
X3317544Y12735560D01*
X3309112Y12736423D01*
X2464968Y12736423D01*
X2456535Y12735560D01*
X2448864Y12733274D01*
X2441803Y12729464D01*
X2435199Y12724079D01*
X1345641Y11634470D01*
X1340205Y11627916D01*
X1336446Y11620855D01*
X1334973Y11616029D01*
X1333246Y11612676D01*
X1330350Y11610187D01*
X1326794Y11608917D01*
X1323035Y11609019D01*
X1319580Y11610543D01*
X1316888Y11613184D01*
X1312011Y11620246D01*
X1302867Y11630406D01*
X1292453Y11639194D01*
X1280972Y11646509D01*
X1268577Y11652250D01*
X1255572Y11656314D01*
X1242110Y11658549D01*
X1228496Y11659006D01*
X1214932Y11657685D01*
X1201674Y11654485D01*
X1188923Y11649608D01*
X1176985Y11643055D01*
X1166012Y11634978D01*
X1156208Y11625478D01*
X1147724Y11614759D01*
X1140815Y11603024D01*
X1135481Y11590477D01*
X1131874Y11577320D01*
X1130046Y11563807D01*
X1130046Y11550192D01*
X1131874Y11536680D01*
X1135481Y11523522D01*
X1140815Y11510975D01*
X1147724Y11499240D01*
X1156208Y11488521D01*
X1166012Y11479022D01*
X1176985Y11470944D01*
X1188923Y11464391D01*
X1201674Y11459514D01*
X1214932Y11456314D01*
X1228496Y11454993D01*
X1242110Y11455450D01*
X1255572Y11457686D01*
X1268577Y11461750D01*
X1280972Y11467490D01*
X1292453Y11474805D01*
X1302867Y11483594D01*
X1312011Y11493754D01*
X1314754Y11497716D01*
X1317853Y11500612D01*
X1321866Y11502034D01*
X1326134Y11501628D01*
X1329842Y11499545D01*
X1332382Y11496141D01*
X1333296Y11491925D01*
X1333296Y9082074D01*
X1332382Y9077909D01*
X1329842Y9074454D01*
X1326134Y9072372D01*
X1321866Y9071965D01*
X1317853Y9073388D01*
X1314754Y9076334D01*
X1312011Y9080296D01*
X1302867Y9090406D01*
X1292453Y9099194D01*
X1280972Y9106509D01*
X1276350Y9108643D01*
X1276350Y9061450D01*
X1323136Y9061450D01*
X1326997Y9060688D01*
X1330299Y9058503D01*
X1332534Y9055201D01*
X1333296Y9051290D01*
X1333296Y8982710D01*
X1332534Y8978849D01*
X1330299Y8975547D01*
X1326997Y8973312D01*
X1323136Y8972550D01*
X1276350Y8972550D01*
X1276350Y8925356D01*
X1280972Y8927490D01*
X1292453Y8934805D01*
X1302867Y8943644D01*
X1312011Y8953754D01*
X1315516Y8958783D01*
X1318463Y8961628D01*
X1322324Y8963101D01*
X1326388Y8962898D01*
X1330096Y8961069D01*
X1332738Y8957970D01*
X1334109Y8952687D01*
X1336446Y8945016D01*
X1340205Y8937955D01*
X1345641Y8931351D01*
X1451864Y8825128D01*
X1458417Y8819743D01*
X1465478Y8815933D01*
X1473149Y8813647D01*
X1481632Y8812784D01*
X2084120Y8812784D01*
X2092553Y8813647D01*
X2100224Y8815933D01*
X2107285Y8819743D01*
X2113889Y8825128D01*
X2203348Y8914587D01*
X2206396Y8916670D01*
X2210054Y8917533D01*
X2213762Y8917025D01*
X2220518Y8914739D01*
X2234082Y8912047D01*
X2247900Y8911132D01*
X2261717Y8912047D01*
X2275332Y8914739D01*
X2288438Y8919159D01*
X2300833Y8925306D01*
X2312365Y8932976D01*
X2322779Y8942120D01*
X2331923Y8952534D01*
X2339594Y8964066D01*
X2345740Y8976461D01*
X2350211Y8989618D01*
X2352903Y9003182D01*
X2353818Y9017000D01*
X2352903Y9030817D01*
X2350211Y9044432D01*
X2345740Y9057538D01*
X2339594Y9069933D01*
X2331923Y9081465D01*
X2322779Y9091879D01*
X2312365Y9101023D01*
X2300833Y9108694D01*
X2288438Y9114840D01*
X2275332Y9119260D01*
X2261717Y9122003D01*
X2247900Y9122867D01*
X2234082Y9122003D01*
X2220518Y9119260D01*
X2207412Y9114840D01*
X2194966Y9108694D01*
X2183434Y9101023D01*
X2173020Y9091879D01*
X2163927Y9081465D01*
X2156206Y9069933D01*
X2150110Y9057538D01*
X2145639Y9044432D01*
X2142947Y9030817D01*
X2142032Y9017000D01*
X2142947Y9003182D01*
X2145639Y8989618D01*
X2147925Y8982862D01*
X2148433Y8979154D01*
X2147620Y8975547D01*
X2145487Y8972448D01*
X2070658Y8897569D01*
X2067356Y8895384D01*
X2063445Y8894622D01*
X2023364Y8894622D01*
X2019350Y8895435D01*
X2016048Y8897721D01*
X2013864Y8901176D01*
X2013204Y8905189D01*
X2014169Y8909151D01*
X2016607Y8912352D01*
X2020112Y8914384D01*
X2034489Y8919210D01*
X2046884Y8925306D01*
X2058365Y8932976D01*
X2068779Y8942120D01*
X2077923Y8952534D01*
X2085644Y8964066D01*
X2091740Y8976461D01*
X2096211Y8989618D01*
X2098903Y9003182D01*
X2099818Y9017000D01*
X2098903Y9030817D01*
X2096211Y9044432D01*
X2091740Y9057538D01*
X2085644Y9069933D01*
X2077923Y9081465D01*
X2068779Y9091879D01*
X2058365Y9101023D01*
X2046884Y9108694D01*
X2034438Y9114840D01*
X2021332Y9119260D01*
X2007717Y9122003D01*
X1993900Y9122867D01*
X1980082Y9122003D01*
X1966518Y9119260D01*
X1953412Y9114840D01*
X1940966Y9108694D01*
X1929485Y9101023D01*
X1919071Y9091879D01*
X1909927Y9081465D01*
X1902206Y9069933D01*
X1896110Y9057538D01*
X1891639Y9044432D01*
X1888947Y9030817D01*
X1888032Y9017000D01*
X1888947Y9003182D01*
X1891639Y8989618D01*
X1893925Y8982862D01*
X1894433Y8979154D01*
X1893620Y8975496D01*
X1891487Y8972397D01*
X1866493Y8947404D01*
X1863191Y8945219D01*
X1859330Y8944457D01*
X1832965Y8944457D01*
X1828647Y8945372D01*
X1825193Y8948064D01*
X1823161Y8951925D01*
X1822907Y8956294D01*
X1824583Y8960358D01*
X1827733Y8964980D01*
X1833880Y8977172D01*
X1838350Y8990025D01*
X1841093Y9003385D01*
X1842007Y9017000D01*
X1841093Y9030614D01*
X1838350Y9043974D01*
X1836928Y9048089D01*
X1836369Y9051798D01*
X1837232Y9055455D01*
X1839366Y9058605D01*
X3688537Y10907776D01*
X3693972Y10914380D01*
X3697732Y10921441D01*
X3700068Y10929112D01*
X3700881Y10937544D01*
X3700881Y11458346D01*
X3701846Y11462613D01*
X3704437Y11466068D01*
X3708298Y11468150D01*
X3712667Y11468404D01*
X3716680Y11466830D01*
X3718966Y11465306D01*
X3731412Y11459159D01*
X3744518Y11454739D01*
X3758082Y11451996D01*
X3771900Y11451132D01*
X3785717Y11451996D01*
X3799332Y11454739D01*
X3812438Y11459159D01*
X3824833Y11465306D01*
X3836365Y11472976D01*
X3846779Y11482120D01*
X3855923Y11492534D01*
X3863594Y11504066D01*
X3869740Y11516461D01*
X3874211Y11529568D01*
X3876903Y11543182D01*
X3877818Y11557000D01*
X3876903Y11570817D01*
X3874211Y11584381D01*
X3869740Y11597538D01*
X3863594Y11609933D01*
X3855923Y11621465D01*
X3846779Y11631879D01*
X3836365Y11641023D01*
X3824833Y11648694D01*
X3812438Y11654840D01*
X3799332Y11659260D01*
X3785717Y11661952D01*
X3780383Y11662308D01*
X3776675Y11663324D01*
X3773576Y11665610D01*
X3771544Y11668861D01*
X3770934Y11672671D01*
X3771747Y11676430D01*
X3773881Y11679631D01*
X4334611Y12240361D01*
X4338320Y12242698D01*
X4342688Y12243308D01*
X4346854Y12241987D01*
X4350105Y12238990D01*
X4352391Y12235738D01*
X4353712Y12232995D01*
X4354220Y12229947D01*
X4354220Y11653418D01*
X4353255Y11649202D01*
X4350664Y11645696D01*
X4346803Y11643664D01*
X4342434Y11643410D01*
X4338421Y11644985D01*
X4332833Y11648694D01*
X4320438Y11654840D01*
X4307332Y11659260D01*
X4293717Y11661952D01*
X4279900Y11662867D01*
X4266082Y11661952D01*
X4252518Y11659260D01*
X4239412Y11654840D01*
X4226966Y11648694D01*
X4215434Y11641023D01*
X4205020Y11631879D01*
X4195927Y11621465D01*
X4188206Y11609933D01*
X4182059Y11597538D01*
X4177639Y11584381D01*
X4174947Y11570817D01*
X4174032Y11557000D01*
X4174947Y11543182D01*
X4177639Y11529568D01*
X4182059Y11516461D01*
X4188206Y11504066D01*
X4195927Y11492534D01*
X4205020Y11482120D01*
X4215434Y11472976D01*
X4226966Y11465306D01*
X4239412Y11459159D01*
X4252518Y11454739D01*
X4266082Y11451996D01*
X4279900Y11451132D01*
X4293717Y11451996D01*
X4307332Y11454739D01*
X4320438Y11459159D01*
X4332833Y11465306D01*
X4338421Y11469014D01*
X4342434Y11470589D01*
X4346803Y11470335D01*
X4350664Y11468303D01*
X4353255Y11464798D01*
X4354220Y11460530D01*
X4354220Y10931347D01*
X4353458Y10927486D01*
X4351223Y10924184D01*
X2546502Y9119463D01*
X2543403Y9117330D01*
X2539746Y9116466D01*
X2536037Y9117025D01*
X2529332Y9119260D01*
X2515717Y9122003D01*
X2501900Y9122867D01*
X2488082Y9122003D01*
X2474518Y9119260D01*
X2461412Y9114840D01*
X2448966Y9108694D01*
X2437434Y9101023D01*
X2427020Y9091879D01*
X2417927Y9081465D01*
X2410206Y9069933D01*
X2404110Y9057538D01*
X2399639Y9044432D01*
X2396947Y9030817D01*
X2396032Y9017000D01*
X2396947Y9003182D01*
X2399639Y8989618D01*
X2404110Y8976461D01*
X2410206Y8964066D01*
X2417927Y8952534D01*
X2427020Y8942120D01*
X2437434Y8932976D01*
X2448966Y8925306D01*
X2461412Y8919159D01*
X2474518Y8914739D01*
X2488082Y8912047D01*
X2501900Y8911132D01*
X2515717Y8912047D01*
X2529332Y8914739D01*
X2542438Y8919159D01*
X2554833Y8925306D01*
X2566365Y8932976D01*
X2576779Y8942120D01*
X2585923Y8952534D01*
X2593594Y8964066D01*
X2599740Y8976461D01*
X2604211Y8989618D01*
X2606903Y9003182D01*
X2607818Y9017000D01*
X2606903Y9030817D01*
X2604211Y9044432D01*
X2601925Y9051137D01*
X2601366Y9054846D01*
X2602230Y9058503D01*
X2604363Y9061602D01*
X4423664Y10880953D01*
X4429099Y10887506D01*
X4432858Y10894568D01*
X4435195Y10902238D01*
X4436008Y10910722D01*
X4436008Y11481358D01*
X4436821Y11485372D01*
X4439158Y11488724D01*
X4442612Y11490858D01*
X4446625Y11491518D01*
X4450588Y11490553D01*
X4453839Y11488064D01*
X4459020Y11482120D01*
X4469434Y11472976D01*
X4480966Y11465306D01*
X4493412Y11459159D01*
X4506518Y11454739D01*
X4520082Y11451996D01*
X4533900Y11451132D01*
X4547717Y11451996D01*
X4561332Y11454739D01*
X4574438Y11459159D01*
X4586833Y11465306D01*
X4598365Y11472976D01*
X4608779Y11482120D01*
X4617923Y11492534D01*
X4625594Y11504066D01*
X4631740Y11516461D01*
X4636211Y11529568D01*
X4638903Y11543182D01*
X4639818Y11557000D01*
X4638903Y11570817D01*
X4636211Y11584381D01*
X4631740Y11597538D01*
X4625594Y11609933D01*
X4617923Y11621465D01*
X4608779Y11631879D01*
X4598365Y11641023D01*
X4586833Y11648694D01*
X4574438Y11654840D01*
X4561332Y11659260D01*
X4547717Y11661952D01*
X4533900Y11662867D01*
X4520082Y11661952D01*
X4506518Y11659260D01*
X4493412Y11654840D01*
X4480966Y11648694D01*
X4469434Y11641023D01*
X4459020Y11631879D01*
X4453839Y11625935D01*
X4450588Y11623446D01*
X4446625Y11622481D01*
X4442612Y11623090D01*
X4439158Y11625275D01*
X4436821Y11628628D01*
X4436008Y11632641D01*
X4436008Y12229947D01*
X4436516Y12232995D01*
X4437837Y12235738D01*
X4443933Y12244425D01*
X4448098Y12253315D01*
X4450638Y12262815D01*
X4451502Y12272619D01*
X4450638Y12282424D01*
X4448098Y12291923D01*
X4443933Y12300813D01*
X4438294Y12308840D01*
X4431334Y12315799D01*
X4428744Y12317628D01*
X4425746Y12320879D01*
X4424426Y12325045D01*
X4425035Y12329414D01*
X4427372Y12333122D01*
X4639157Y12544907D01*
X4642459Y12547092D01*
X4646320Y12547904D01*
X4727651Y12547904D01*
X4731512Y12547092D01*
X4734814Y12544907D01*
X4736998Y12541605D01*
X4737811Y12537744D01*
X4737811Y12514376D01*
X4738522Y12508026D01*
X4740402Y12502591D01*
X4743500Y12497663D01*
X4747564Y12493599D01*
X4752492Y12490500D01*
X4757928Y12488621D01*
X4764278Y12487910D01*
X4898593Y12487910D01*
X4902454Y12487097D01*
X4905756Y12484912D01*
X4907991Y12481610D01*
X4908753Y12477750D01*
X4908753Y12136120D01*
X4907991Y12132259D01*
X4905756Y12128957D01*
X4894783Y12117984D01*
X4889398Y12111380D01*
X4885588Y12104319D01*
X4884115Y12099391D01*
X4883099Y12097156D01*
X4881575Y12095175D01*
X4814011Y12027611D01*
X4813300Y12025884D01*
X4813300Y11672062D01*
X4812436Y11667998D01*
X4810099Y11664645D01*
X4806543Y11662460D01*
X4802479Y11661902D01*
X4787900Y11662867D01*
X4774082Y11661952D01*
X4760518Y11659260D01*
X4747361Y11654840D01*
X4734966Y11648694D01*
X4723434Y11641023D01*
X4713020Y11631879D01*
X4703876Y11621465D01*
X4696206Y11609933D01*
X4690059Y11597538D01*
X4685639Y11584381D01*
X4682947Y11570817D01*
X4682032Y11557000D01*
X4682947Y11543182D01*
X4685639Y11529568D01*
X4690059Y11516461D01*
X4696206Y11504066D01*
X4703876Y11492534D01*
X4713020Y11482120D01*
X4723434Y11472976D01*
X4734966Y11465306D01*
X4747361Y11459159D01*
X4760518Y11454739D01*
X4774082Y11451996D01*
X4787900Y11451132D01*
X4802479Y11452098D01*
X4806543Y11451488D01*
X4810099Y11449354D01*
X4812436Y11446002D01*
X4813300Y11441938D01*
X4813300Y11136477D01*
X4812538Y11132566D01*
X4810302Y11129264D01*
X2800502Y9119463D01*
X2797403Y9117330D01*
X2793746Y9116466D01*
X2790037Y9117025D01*
X2783332Y9119260D01*
X2769717Y9122003D01*
X2755900Y9122867D01*
X2742082Y9122003D01*
X2728518Y9119260D01*
X2715412Y9114840D01*
X2702966Y9108694D01*
X2691434Y9101023D01*
X2681020Y9091879D01*
X2671927Y9081465D01*
X2664206Y9069933D01*
X2658110Y9057538D01*
X2653639Y9044432D01*
X2650947Y9030817D01*
X2650032Y9017000D01*
X2650947Y9003182D01*
X2653639Y8989618D01*
X2658110Y8976461D01*
X2664206Y8964066D01*
X2671927Y8952534D01*
X2681020Y8942120D01*
X2691434Y8932976D01*
X2702966Y8925306D01*
X2715412Y8919159D01*
X2728518Y8914739D01*
X2742082Y8912047D01*
X2755900Y8911132D01*
X2769717Y8912047D01*
X2783332Y8914739D01*
X2796438Y8919159D01*
X2808833Y8925306D01*
X2820365Y8932976D01*
X2830779Y8942120D01*
X2839923Y8952534D01*
X2847594Y8964066D01*
X2853740Y8976461D01*
X2858211Y8989618D01*
X2860903Y9003182D01*
X2861818Y9017000D01*
X2860903Y9030817D01*
X2858211Y9044432D01*
X2855925Y9051137D01*
X2855366Y9054846D01*
X2856230Y9058503D01*
X2858363Y9061602D01*
X4795977Y10999216D01*
X4799228Y11001400D01*
X4803140Y11002162D01*
X4807051Y11001400D01*
X4810302Y10999216D01*
X4812538Y10995914D01*
X4813300Y10992002D01*
X4813300Y9908387D01*
X4812538Y9904476D01*
X4810302Y9901174D01*
X4395927Y9486798D01*
X4393031Y9484766D01*
X4389628Y9483852D01*
X4385157Y9483445D01*
X4375658Y9480905D01*
X4366768Y9476740D01*
X4358690Y9471152D01*
X4351731Y9464192D01*
X4346143Y9456115D01*
X4341977Y9447225D01*
X4339437Y9437725D01*
X4338574Y9427921D01*
X4339437Y9418167D01*
X4341977Y9408668D01*
X4346143Y9399778D01*
X4351731Y9391700D01*
X4358690Y9384741D01*
X4361332Y9382912D01*
X4364278Y9379661D01*
X4365599Y9375495D01*
X4365040Y9371126D01*
X4362704Y9367418D01*
X4099814Y9104528D01*
X4096969Y9102547D01*
X4093616Y9101632D01*
X4090162Y9101886D01*
X4086961Y9103258D01*
X4078833Y9108694D01*
X4066438Y9114840D01*
X4053332Y9119260D01*
X4039717Y9122003D01*
X4025900Y9122867D01*
X4012082Y9122003D01*
X3998518Y9119260D01*
X3985412Y9114840D01*
X3972966Y9108694D01*
X3961434Y9101023D01*
X3951020Y9091879D01*
X3941927Y9081465D01*
X3934206Y9069933D01*
X3928059Y9057538D01*
X3923639Y9044432D01*
X3920947Y9030817D01*
X3920032Y9017000D01*
X3920947Y9003182D01*
X3923639Y8989618D01*
X3928059Y8976461D01*
X3934206Y8964066D01*
X3936288Y8959240D01*
X3936034Y8954871D01*
X3934002Y8951061D01*
X3930548Y8948420D01*
X3926281Y8947505D01*
X3903472Y8947505D01*
X3899560Y8948267D01*
X3896258Y8950452D01*
X3874363Y8972397D01*
X3872229Y8975496D01*
X3871366Y8979154D01*
X3871925Y8982862D01*
X3874211Y8989618D01*
X3876903Y9003182D01*
X3877818Y9017000D01*
X3876903Y9030817D01*
X3874211Y9044432D01*
X3869740Y9057538D01*
X3863594Y9069933D01*
X3855923Y9081465D01*
X3846779Y9091879D01*
X3836365Y9101023D01*
X3824833Y9108694D01*
X3812438Y9114840D01*
X3799332Y9119260D01*
X3785717Y9122003D01*
X3771900Y9122867D01*
X3758082Y9122003D01*
X3744518Y9119260D01*
X3731412Y9114840D01*
X3718966Y9108694D01*
X3707434Y9101023D01*
X3697020Y9091879D01*
X3687927Y9081465D01*
X3680206Y9069933D01*
X3674059Y9057538D01*
X3669639Y9044432D01*
X3666947Y9030817D01*
X3666032Y9017000D01*
X3666947Y9003182D01*
X3669639Y8989618D01*
X3674059Y8976461D01*
X3680206Y8964066D01*
X3687927Y8952534D01*
X3697020Y8942120D01*
X3707434Y8932976D01*
X3718966Y8925306D01*
X3731412Y8919159D01*
X3744518Y8914739D01*
X3758082Y8912047D01*
X3771900Y8911132D01*
X3785717Y8912047D01*
X3799332Y8914739D01*
X3806037Y8917025D01*
X3809746Y8917533D01*
X3813403Y8916670D01*
X3816502Y8914587D01*
X3853027Y8878011D01*
X3859631Y8872626D01*
X3866692Y8868816D01*
X3874363Y8866530D01*
X3882796Y8865666D01*
X4435754Y8865666D01*
X4439666Y8864904D01*
X4442968Y8862720D01*
X4810302Y8495334D01*
X4812538Y8492032D01*
X4813300Y8488121D01*
X4813300Y8471916D01*
X4814011Y8470188D01*
X5066588Y8217611D01*
X5068316Y8216900D01*
X5084521Y8216900D01*
X5088432Y8216138D01*
X5091734Y8213902D01*
X5424576Y7881061D01*
X5426811Y7877759D01*
X5427573Y7873847D01*
X5426811Y7869986D01*
X5424576Y7866684D01*
X5421274Y7864500D01*
X5417413Y7863687D01*
X5272278Y7863687D01*
X5265928Y7862976D01*
X5260492Y7861096D01*
X5255564Y7857998D01*
X5251500Y7853934D01*
X5248402Y7849006D01*
X5246522Y7843570D01*
X5246014Y7839405D01*
X5244947Y7835798D01*
X5242560Y7832852D01*
X5239308Y7830972D01*
X5235549Y7830413D01*
X5231892Y7831226D01*
X5228742Y7833359D01*
X4621784Y8440318D01*
X4615180Y8445754D01*
X4608118Y8449513D01*
X4600448Y8451850D01*
X4592015Y8452662D01*
X3636264Y8452662D01*
X3632403Y8453424D01*
X3629101Y8455660D01*
X3112363Y8972397D01*
X3110230Y8975496D01*
X3109366Y8979154D01*
X3109925Y8982862D01*
X3112211Y8989618D01*
X3114903Y9003182D01*
X3115818Y9017000D01*
X3114903Y9030817D01*
X3112211Y9044432D01*
X3107740Y9057538D01*
X3101594Y9069933D01*
X3093923Y9081465D01*
X3084779Y9091879D01*
X3074365Y9101023D01*
X3062833Y9108694D01*
X3050438Y9114840D01*
X3037332Y9119260D01*
X3023717Y9122003D01*
X3009900Y9122867D01*
X2996082Y9122003D01*
X2982518Y9119260D01*
X2969412Y9114840D01*
X2956966Y9108694D01*
X2945434Y9101023D01*
X2935020Y9091879D01*
X2925927Y9081465D01*
X2918206Y9069933D01*
X2912110Y9057538D01*
X2907639Y9044432D01*
X2904947Y9030817D01*
X2904032Y9017000D01*
X2904947Y9003182D01*
X2907639Y8989618D01*
X2912110Y8976461D01*
X2918206Y8964066D01*
X2925927Y8952534D01*
X2935020Y8942120D01*
X2945434Y8932976D01*
X2956966Y8925306D01*
X2969412Y8919159D01*
X2982518Y8914739D01*
X2996082Y8912047D01*
X3009900Y8911132D01*
X3023717Y8912047D01*
X3037332Y8914739D01*
X3044037Y8917025D01*
X3047746Y8917533D01*
X3051403Y8916670D01*
X3054502Y8914587D01*
X3585870Y8383219D01*
X3592423Y8377783D01*
X3599484Y8374024D01*
X3607155Y8371687D01*
X3615639Y8370874D01*
X4571339Y8370874D01*
X4575251Y8370062D01*
X4578553Y8367877D01*
X5212181Y7734249D01*
X5218785Y7728813D01*
X5225846Y7725054D01*
X5233517Y7722717D01*
X5236616Y7722412D01*
X5240223Y7721396D01*
X5243169Y7719110D01*
X5245100Y7715961D01*
X5245811Y7712303D01*
X5245811Y7700314D01*
X5244998Y7696403D01*
X5242814Y7693101D01*
X5239512Y7690916D01*
X5235651Y7690154D01*
X4930241Y7690154D01*
X4925923Y7691069D01*
X4922469Y7693761D01*
X4920437Y7697622D01*
X4920183Y7701991D01*
X4921859Y7706055D01*
X4925517Y7711389D01*
X4931562Y7723428D01*
X4935982Y7736128D01*
X4938674Y7749336D01*
X4939588Y7762798D01*
X4938674Y7776260D01*
X4935982Y7789468D01*
X4931562Y7802168D01*
X4925517Y7814208D01*
X4917897Y7825333D01*
X4908854Y7835341D01*
X4898542Y7844028D01*
X4887163Y7851292D01*
X4874971Y7856931D01*
X4862068Y7860944D01*
X4848809Y7863179D01*
X4835347Y7863636D01*
X4821936Y7862265D01*
X4808829Y7859166D01*
X4796231Y7854289D01*
X4784394Y7847838D01*
X4773574Y7839862D01*
X4763871Y7830464D01*
X4755540Y7819898D01*
X4748682Y7808315D01*
X4743399Y7795869D01*
X4739843Y7782915D01*
X4738065Y7769555D01*
X4738065Y7756042D01*
X4739843Y7742681D01*
X4743399Y7729728D01*
X4748682Y7717281D01*
X4755642Y7705496D01*
X4757013Y7701432D01*
X4756607Y7697216D01*
X4754473Y7693558D01*
X4751070Y7691018D01*
X4746904Y7690154D01*
X4676241Y7690154D01*
X4671923Y7691069D01*
X4668469Y7693761D01*
X4666437Y7697622D01*
X4666183Y7701991D01*
X4667859Y7706055D01*
X4671517Y7711389D01*
X4675327Y7718958D01*
X4628540Y7718958D01*
X4628540Y7700314D01*
X4627778Y7696403D01*
X4625594Y7693101D01*
X4622292Y7690916D01*
X4618380Y7690154D01*
X4551019Y7690154D01*
X4547108Y7690916D01*
X4543806Y7693101D01*
X4541621Y7696403D01*
X4540859Y7700314D01*
X4540859Y7718958D01*
X4493971Y7718958D01*
X4494682Y7717281D01*
X4501642Y7705496D01*
X4503013Y7701432D01*
X4502607Y7697216D01*
X4500473Y7693558D01*
X4497070Y7691018D01*
X4492904Y7690154D01*
X4422241Y7690154D01*
X4417923Y7691069D01*
X4414469Y7693761D01*
X4412437Y7697622D01*
X4412183Y7701991D01*
X4413859Y7706055D01*
X4417517Y7711389D01*
X4421327Y7718958D01*
X4374540Y7718958D01*
X4374540Y7700314D01*
X4373778Y7696403D01*
X4371594Y7693101D01*
X4368292Y7690916D01*
X4364380Y7690154D01*
X4297019Y7690154D01*
X4293108Y7690916D01*
X4289806Y7693101D01*
X4287621Y7696403D01*
X4286859Y7700314D01*
X4286859Y7718958D01*
X4239971Y7718958D01*
X4240682Y7717281D01*
X4247642Y7705496D01*
X4249013Y7701432D01*
X4248607Y7697216D01*
X4246473Y7693558D01*
X4243070Y7691018D01*
X4238904Y7690154D01*
X4168241Y7690154D01*
X4163923Y7691069D01*
X4160469Y7693761D01*
X4158437Y7697622D01*
X4158183Y7701991D01*
X4159859Y7706055D01*
X4163517Y7711389D01*
X4169562Y7723428D01*
X4173982Y7736128D01*
X4176674Y7749336D01*
X4177588Y7762798D01*
X4176674Y7776260D01*
X4173982Y7789468D01*
X4169562Y7802168D01*
X4163517Y7814208D01*
X4155897Y7825333D01*
X4146854Y7835341D01*
X4136542Y7844028D01*
X4125163Y7851292D01*
X4112971Y7856931D01*
X4100068Y7860944D01*
X4086809Y7863179D01*
X4073347Y7863636D01*
X4059936Y7862265D01*
X4046829Y7859166D01*
X4034231Y7854289D01*
X4022394Y7847838D01*
X4011574Y7839862D01*
X4001871Y7830464D01*
X3993540Y7819898D01*
X3986682Y7808315D01*
X3981399Y7795869D01*
X3977843Y7782915D01*
X3976065Y7769555D01*
X3976065Y7756042D01*
X3977843Y7742681D01*
X3981399Y7729728D01*
X3986682Y7717281D01*
X3993642Y7705496D01*
X3995013Y7701432D01*
X3994607Y7697216D01*
X3992473Y7693558D01*
X3989070Y7691018D01*
X3984904Y7690154D01*
X3957421Y7690154D01*
X3953510Y7690916D01*
X3950208Y7693101D01*
X3921201Y7722158D01*
X3919067Y7725257D01*
X3918254Y7728915D01*
X3918813Y7732674D01*
X3919982Y7736128D01*
X3922674Y7749336D01*
X3923588Y7762798D01*
X3922674Y7776260D01*
X3919982Y7789468D01*
X3915562Y7802168D01*
X3909517Y7814208D01*
X3901897Y7825333D01*
X3892854Y7835341D01*
X3882542Y7844028D01*
X3871163Y7851292D01*
X3858971Y7856931D01*
X3846068Y7860944D01*
X3832809Y7863179D01*
X3819347Y7863636D01*
X3805936Y7862265D01*
X3792829Y7859166D01*
X3780231Y7854289D01*
X3768394Y7847838D01*
X3757574Y7839862D01*
X3747871Y7830464D01*
X3739540Y7819898D01*
X3732682Y7808315D01*
X3727399Y7795869D01*
X3723843Y7782915D01*
X3722065Y7769555D01*
X3722065Y7756042D01*
X3723843Y7742681D01*
X3727399Y7729728D01*
X3732682Y7717281D01*
X3739540Y7705699D01*
X3747871Y7695133D01*
X3757574Y7685735D01*
X3768394Y7677759D01*
X3780231Y7671308D01*
X3792829Y7666431D01*
X3805936Y7663332D01*
X3819347Y7661960D01*
X3832809Y7662418D01*
X3846068Y7664653D01*
X3853129Y7666837D01*
X3856736Y7667294D01*
X3860292Y7666380D01*
X3863340Y7664348D01*
X3906977Y7620660D01*
X3913581Y7615275D01*
X3920642Y7611465D01*
X3928313Y7609179D01*
G37*
G36*
X3494278Y7661909D02*
G01*
X3643122Y7661909D01*
X3649472Y7662621D01*
X3654907Y7664500D01*
X3659835Y7667599D01*
X3663899Y7671663D01*
X3666998Y7676591D01*
X3668877Y7682026D01*
X3669588Y7688376D01*
X3669588Y7837220D01*
X3668877Y7843570D01*
X3666998Y7849006D01*
X3663899Y7853934D01*
X3659835Y7857998D01*
X3654907Y7861096D01*
X3649472Y7862976D01*
X3643122Y7863687D01*
X3494278Y7863687D01*
X3487928Y7862976D01*
X3482492Y7861096D01*
X3477564Y7857998D01*
X3473500Y7853934D01*
X3470401Y7849006D01*
X3468522Y7843570D01*
X3467811Y7837220D01*
X3467811Y7688376D01*
X3468522Y7682026D01*
X3470401Y7676591D01*
X3473500Y7671663D01*
X3477564Y7667599D01*
X3482492Y7664500D01*
X3487928Y7662621D01*
G37*
G36*
X4374540Y7806639D02*
G01*
X4421327Y7806639D01*
X4417517Y7814208D01*
X4409897Y7825333D01*
X4400854Y7835341D01*
X4390542Y7844028D01*
X4379163Y7851292D01*
X4374540Y7853425D01*
G37*
G36*
X4628540Y7806639D02*
G01*
X4675327Y7806639D01*
X4671517Y7814208D01*
X4663897Y7825333D01*
X4654854Y7835341D01*
X4644542Y7844028D01*
X4633163Y7851292D01*
X4628540Y7853425D01*
G37*
G36*
X4493971Y7806639D02*
G01*
X4540859Y7806639D01*
X4540859Y7853527D01*
X4530394Y7847838D01*
X4519574Y7839862D01*
X4509871Y7830464D01*
X4501540Y7819898D01*
X4494682Y7808315D01*
G37*
G36*
X4239971Y7806639D02*
G01*
X4286859Y7806639D01*
X4286859Y7853527D01*
X4276394Y7847838D01*
X4265574Y7839862D01*
X4255871Y7830464D01*
X4247540Y7819898D01*
X4240682Y7808315D01*
G37*
G36*
X3517900Y8911132D02*
G01*
X3531717Y8912047D01*
X3545332Y8914739D01*
X3558438Y8919159D01*
X3570833Y8925306D01*
X3582365Y8932976D01*
X3592779Y8942120D01*
X3601923Y8952534D01*
X3609594Y8964066D01*
X3615740Y8976461D01*
X3620211Y8989618D01*
X3622903Y9003182D01*
X3623818Y9017000D01*
X3622903Y9030817D01*
X3620211Y9044432D01*
X3615740Y9057538D01*
X3609594Y9069933D01*
X3601923Y9081465D01*
X3592779Y9091879D01*
X3582365Y9101023D01*
X3570833Y9108694D01*
X3558438Y9114840D01*
X3545332Y9119260D01*
X3531717Y9122003D01*
X3517900Y9122867D01*
X3504082Y9122003D01*
X3490518Y9119260D01*
X3477412Y9114840D01*
X3464966Y9108694D01*
X3453434Y9101023D01*
X3443020Y9091879D01*
X3433927Y9081465D01*
X3426206Y9069933D01*
X3420059Y9057538D01*
X3415639Y9044432D01*
X3412947Y9030817D01*
X3412032Y9017000D01*
X3412947Y9003182D01*
X3415639Y8989618D01*
X3420059Y8976461D01*
X3426206Y8964066D01*
X3433927Y8952534D01*
X3443020Y8942120D01*
X3453434Y8932976D01*
X3464966Y8925306D01*
X3477412Y8919159D01*
X3490518Y8914739D01*
X3504082Y8912047D01*
G37*
G36*
X3263900Y8911132D02*
G01*
X3277717Y8912047D01*
X3291332Y8914739D01*
X3304438Y8919159D01*
X3316833Y8925306D01*
X3328365Y8932976D01*
X3338779Y8942120D01*
X3347923Y8952534D01*
X3355594Y8964066D01*
X3361740Y8976461D01*
X3366211Y8989618D01*
X3368903Y9003182D01*
X3369818Y9017000D01*
X3368903Y9030817D01*
X3366211Y9044432D01*
X3361740Y9057538D01*
X3355594Y9069933D01*
X3347923Y9081465D01*
X3338779Y9091879D01*
X3328365Y9101023D01*
X3316833Y9108694D01*
X3304438Y9114840D01*
X3291332Y9119260D01*
X3277717Y9122003D01*
X3263900Y9122867D01*
X3250082Y9122003D01*
X3236518Y9119260D01*
X3223412Y9114840D01*
X3210966Y9108694D01*
X3199434Y9101023D01*
X3189020Y9091879D01*
X3179927Y9081465D01*
X3172206Y9069933D01*
X3166110Y9057538D01*
X3161639Y9044432D01*
X3158947Y9030817D01*
X3158032Y9017000D01*
X3158947Y9003182D01*
X3161639Y8989618D01*
X3166110Y8976461D01*
X3172206Y8964066D01*
X3179927Y8952534D01*
X3189020Y8942120D01*
X3199434Y8932976D01*
X3210966Y8925306D01*
X3223412Y8919159D01*
X3236518Y8914739D01*
X3250082Y8912047D01*
G37*
G36*
X1187450Y8925204D02*
G01*
X1187450Y8972550D01*
X1140104Y8972550D01*
X1140815Y8970975D01*
X1147724Y8959240D01*
X1156208Y8948521D01*
X1166012Y8939022D01*
X1176985Y8930944D01*
G37*
G36*
X1140104Y9061450D02*
G01*
X1187450Y9061450D01*
X1187450Y9108795D01*
X1176985Y9103055D01*
X1166012Y9094978D01*
X1156208Y9085478D01*
X1147724Y9074759D01*
X1140815Y9063024D01*
G37*
G36*
X10007600Y9805517D02*
G01*
X10022789Y9806432D01*
X10037724Y9809175D01*
X10052253Y9813696D01*
X10066121Y9819944D01*
X10079126Y9827818D01*
X10091064Y9837166D01*
X10101834Y9847935D01*
X10111181Y9859873D01*
X10119055Y9872878D01*
X10125303Y9886746D01*
X10129824Y9901275D01*
X10132568Y9916210D01*
X10133482Y9931400D01*
X10132568Y9946589D01*
X10129824Y9961524D01*
X10125303Y9976053D01*
X10119055Y9989921D01*
X10111181Y10002926D01*
X10101834Y10014864D01*
X10091064Y10025634D01*
X10079126Y10034981D01*
X10066121Y10042855D01*
X10052253Y10049103D01*
X10037724Y10053624D01*
X10022789Y10056368D01*
X10007600Y10057282D01*
X9992410Y10056368D01*
X9977475Y10053624D01*
X9962946Y10049103D01*
X9949078Y10042855D01*
X9936073Y10034981D01*
X9924135Y10025634D01*
X9913366Y10014864D01*
X9904018Y10002926D01*
X9896144Y9989921D01*
X9889896Y9976053D01*
X9885375Y9961524D01*
X9882632Y9946589D01*
X9881717Y9931400D01*
X9882632Y9916210D01*
X9885375Y9901275D01*
X9889896Y9886746D01*
X9896144Y9872878D01*
X9904018Y9859873D01*
X9913366Y9847935D01*
X9924135Y9837166D01*
X9936073Y9827818D01*
X9949078Y9819944D01*
X9962946Y9813696D01*
X9977475Y9809175D01*
X9992410Y9806432D01*
G37*
G36*
X12090400Y9805517D02*
G01*
X12105589Y9806432D01*
X12120524Y9809175D01*
X12135053Y9813696D01*
X12148921Y9819944D01*
X12161926Y9827818D01*
X12173864Y9837166D01*
X12184634Y9847935D01*
X12193981Y9859873D01*
X12201855Y9872878D01*
X12208103Y9886746D01*
X12212624Y9901275D01*
X12215368Y9916210D01*
X12216282Y9931400D01*
X12215368Y9946589D01*
X12212624Y9961524D01*
X12208103Y9976053D01*
X12201855Y9989921D01*
X12193981Y10002926D01*
X12184634Y10014864D01*
X12173864Y10025634D01*
X12161926Y10034981D01*
X12148921Y10042855D01*
X12135053Y10049103D01*
X12120524Y10053624D01*
X12105589Y10056368D01*
X12090400Y10057282D01*
X12075210Y10056368D01*
X12060275Y10053624D01*
X12045746Y10049103D01*
X12031878Y10042855D01*
X12018873Y10034981D01*
X12006935Y10025634D01*
X11996166Y10014864D01*
X11986818Y10002926D01*
X11978944Y9989921D01*
X11972696Y9976053D01*
X11968175Y9961524D01*
X11965432Y9946589D01*
X11964517Y9931400D01*
X11965432Y9916210D01*
X11968175Y9901275D01*
X11972696Y9886746D01*
X11978944Y9872878D01*
X11986818Y9859873D01*
X11996166Y9847935D01*
X12006935Y9837166D01*
X12018873Y9827818D01*
X12031878Y9819944D01*
X12045746Y9813696D01*
X12060275Y9809175D01*
X12075210Y9806432D01*
G37*
G36*
X10918596Y9944455D02*
G01*
X10932160Y9944912D01*
X10945469Y9947198D01*
X10958423Y9951161D01*
X10970666Y9956901D01*
X10982096Y9964166D01*
X10992408Y9972903D01*
X11001502Y9982911D01*
X11009122Y9994087D01*
X11015268Y10006177D01*
X11019688Y10018928D01*
X11022380Y10032187D01*
X11023295Y10045700D01*
X11022380Y10059212D01*
X11019688Y10072471D01*
X11015268Y10085222D01*
X11009122Y10097312D01*
X11001502Y10108488D01*
X10992408Y10118496D01*
X10982096Y10127234D01*
X10970666Y10134498D01*
X10958423Y10140238D01*
X10945469Y10144201D01*
X10932160Y10146487D01*
X10918596Y10146944D01*
X10905134Y10145572D01*
X10891977Y10142423D01*
X10879378Y10137597D01*
X10867491Y10131094D01*
X10856620Y10123068D01*
X10846866Y10113619D01*
X10838484Y10103002D01*
X10831576Y10091369D01*
X10826343Y10078923D01*
X10822736Y10065867D01*
X10820958Y10052456D01*
X10820958Y10038943D01*
X10822736Y10025532D01*
X10826343Y10012476D01*
X10831576Y10000030D01*
X10838484Y9988397D01*
X10846866Y9977780D01*
X10856620Y9968331D01*
X10867491Y9960305D01*
X10879378Y9953802D01*
X10891977Y9948976D01*
X10905134Y9945827D01*
G37*
G36*
X11172596Y9944455D02*
G01*
X11186160Y9944912D01*
X11199469Y9947198D01*
X11212423Y9951161D01*
X11224666Y9956901D01*
X11236096Y9964166D01*
X11246408Y9972903D01*
X11255502Y9982911D01*
X11263122Y9994087D01*
X11269268Y10006177D01*
X11273688Y10018928D01*
X11276380Y10032187D01*
X11277295Y10045700D01*
X11276380Y10059212D01*
X11273688Y10072471D01*
X11269268Y10085222D01*
X11263122Y10097312D01*
X11255502Y10108488D01*
X11246408Y10118496D01*
X11236096Y10127234D01*
X11224666Y10134498D01*
X11212423Y10140238D01*
X11199469Y10144201D01*
X11186160Y10146487D01*
X11172596Y10146944D01*
X11159134Y10145572D01*
X11145977Y10142423D01*
X11133378Y10137597D01*
X11121491Y10131094D01*
X11110620Y10123068D01*
X11100866Y10113619D01*
X11092484Y10103002D01*
X11085576Y10091369D01*
X11080343Y10078923D01*
X11076736Y10065867D01*
X11074958Y10052456D01*
X11074958Y10038943D01*
X11076736Y10025532D01*
X11080343Y10012476D01*
X11085576Y10000030D01*
X11092484Y9988397D01*
X11100866Y9977780D01*
X11110620Y9968331D01*
X11121491Y9960305D01*
X11133378Y9953802D01*
X11145977Y9948976D01*
X11159134Y9945827D01*
G37*
G36*
X11426596Y9944455D02*
G01*
X11440160Y9944912D01*
X11453469Y9947198D01*
X11466423Y9951161D01*
X11478666Y9956901D01*
X11490096Y9964166D01*
X11500408Y9972903D01*
X11509502Y9982911D01*
X11517122Y9994087D01*
X11523268Y10006177D01*
X11527688Y10018928D01*
X11530380Y10032187D01*
X11531295Y10045700D01*
X11530380Y10059212D01*
X11527688Y10072471D01*
X11523268Y10085222D01*
X11517122Y10097312D01*
X11509502Y10108488D01*
X11500408Y10118496D01*
X11490096Y10127234D01*
X11478666Y10134498D01*
X11466423Y10140238D01*
X11453469Y10144201D01*
X11440160Y10146487D01*
X11426596Y10146944D01*
X11413134Y10145572D01*
X11399977Y10142423D01*
X11387378Y10137597D01*
X11375491Y10131094D01*
X11364620Y10123068D01*
X11354866Y10113619D01*
X11346484Y10103002D01*
X11339576Y10091369D01*
X11334343Y10078923D01*
X11330736Y10065867D01*
X11328958Y10052456D01*
X11328958Y10038943D01*
X11330736Y10025532D01*
X11334343Y10012476D01*
X11339576Y10000030D01*
X11346484Y9988397D01*
X11354866Y9977780D01*
X11364620Y9968331D01*
X11375491Y9960305D01*
X11387378Y9953802D01*
X11399977Y9948976D01*
X11413134Y9945827D01*
G37*
G36*
X10805515Y11020907D02*
G01*
X10820044Y11020907D01*
X10834522Y11022736D01*
X10848594Y11026394D01*
X10862157Y11031728D01*
X10874908Y11038738D01*
X10886694Y11047323D01*
X10897311Y11057280D01*
X10906556Y11068507D01*
X10914380Y11080800D01*
X10920577Y11093958D01*
X10925048Y11107775D01*
X10927283Y11119307D01*
X10928756Y11122964D01*
X10931550Y11125809D01*
X10935258Y11127333D01*
X10939221Y11127333D01*
X10942929Y11125809D01*
X10945723Y11122964D01*
X10947196Y11119307D01*
X10949432Y11107775D01*
X10953902Y11093958D01*
X10960100Y11080800D01*
X10967923Y11068507D01*
X10977168Y11057280D01*
X10987786Y11047323D01*
X10999571Y11038738D01*
X11012322Y11031728D01*
X11025886Y11026394D01*
X11039957Y11022736D01*
X11054435Y11020907D01*
X11068964Y11020907D01*
X11083442Y11022736D01*
X11097514Y11026394D01*
X11111077Y11031728D01*
X11123828Y11038738D01*
X11135614Y11047323D01*
X11146231Y11057280D01*
X11155476Y11068507D01*
X11163300Y11080800D01*
X11169497Y11093958D01*
X11173968Y11107775D01*
X11176203Y11119307D01*
X11177676Y11122964D01*
X11180470Y11125809D01*
X11184178Y11127333D01*
X11188141Y11127333D01*
X11191849Y11125809D01*
X11194643Y11122964D01*
X11196116Y11119307D01*
X11198352Y11107775D01*
X11202822Y11093958D01*
X11209020Y11080800D01*
X11216843Y11068507D01*
X11226088Y11057280D01*
X11236706Y11047323D01*
X11248491Y11038738D01*
X11261242Y11031728D01*
X11274806Y11026394D01*
X11288877Y11022736D01*
X11303355Y11020907D01*
X11317884Y11020907D01*
X11332362Y11022736D01*
X11346434Y11026394D01*
X11359997Y11031728D01*
X11372748Y11038738D01*
X11384534Y11047323D01*
X11395151Y11057280D01*
X11404396Y11068507D01*
X11412220Y11080800D01*
X11418417Y11093958D01*
X11422888Y11107775D01*
X11425631Y11122101D01*
X11426545Y11136630D01*
X11425631Y11151158D01*
X11422888Y11165484D01*
X11418417Y11179302D01*
X11412220Y11192459D01*
X11404396Y11204752D01*
X11395151Y11215979D01*
X11384534Y11225936D01*
X11372748Y11234521D01*
X11359997Y11241532D01*
X11346434Y11246866D01*
X11332362Y11250523D01*
X11317884Y11252352D01*
X11303355Y11252352D01*
X11288877Y11250523D01*
X11274806Y11246866D01*
X11261242Y11241532D01*
X11248491Y11234521D01*
X11236706Y11225936D01*
X11226088Y11215979D01*
X11216843Y11204752D01*
X11209020Y11192459D01*
X11202822Y11179302D01*
X11198352Y11165484D01*
X11196116Y11153952D01*
X11194643Y11150295D01*
X11191849Y11147450D01*
X11188141Y11145926D01*
X11184178Y11145926D01*
X11180470Y11147450D01*
X11177676Y11150295D01*
X11176203Y11153952D01*
X11173968Y11165484D01*
X11169497Y11179302D01*
X11163300Y11192459D01*
X11155476Y11204752D01*
X11146231Y11215979D01*
X11135614Y11225936D01*
X11123828Y11234521D01*
X11111077Y11241532D01*
X11097514Y11246866D01*
X11083442Y11250523D01*
X11068964Y11252352D01*
X11054435Y11252352D01*
X11039957Y11250523D01*
X11025886Y11246866D01*
X11012322Y11241532D01*
X10999571Y11234521D01*
X10987786Y11225936D01*
X10977168Y11215979D01*
X10967923Y11204752D01*
X10960100Y11192459D01*
X10953902Y11179302D01*
X10949432Y11165484D01*
X10947196Y11153952D01*
X10945723Y11150295D01*
X10942929Y11147450D01*
X10939221Y11145926D01*
X10935258Y11145926D01*
X10931550Y11147450D01*
X10928756Y11150295D01*
X10927283Y11153952D01*
X10925048Y11165484D01*
X10920577Y11179302D01*
X10914380Y11192459D01*
X10906556Y11204752D01*
X10897311Y11215979D01*
X10886694Y11225936D01*
X10874908Y11234521D01*
X10862157Y11241532D01*
X10848594Y11246866D01*
X10834522Y11250523D01*
X10820044Y11252352D01*
X10805515Y11252352D01*
X10791037Y11250523D01*
X10776966Y11246866D01*
X10763402Y11241532D01*
X10750651Y11234521D01*
X10738866Y11225936D01*
X10728248Y11215979D01*
X10719003Y11204752D01*
X10711180Y11192459D01*
X10704982Y11179302D01*
X10700512Y11165484D01*
X10697768Y11151158D01*
X10696854Y11136630D01*
X10697768Y11122101D01*
X10700512Y11107775D01*
X10704982Y11093958D01*
X10711180Y11080800D01*
X10719003Y11068507D01*
X10728248Y11057280D01*
X10738866Y11047323D01*
X10750651Y11038738D01*
X10763402Y11031728D01*
X10776966Y11026394D01*
X10791037Y11022736D01*
G37*
G36*
X4025900Y11451132D02*
G01*
X4039717Y11451996D01*
X4053332Y11454739D01*
X4066438Y11459159D01*
X4078833Y11465306D01*
X4090365Y11472976D01*
X4100779Y11482120D01*
X4109923Y11492534D01*
X4117594Y11504066D01*
X4123740Y11516461D01*
X4128211Y11529568D01*
X4130903Y11543182D01*
X4131818Y11557000D01*
X4130903Y11570817D01*
X4128211Y11584381D01*
X4123740Y11597538D01*
X4117594Y11609933D01*
X4109923Y11621465D01*
X4100779Y11631879D01*
X4090365Y11641023D01*
X4078833Y11648694D01*
X4066438Y11654840D01*
X4053332Y11659260D01*
X4039717Y11661952D01*
X4025900Y11662867D01*
X4012082Y11661952D01*
X3998518Y11659260D01*
X3985412Y11654840D01*
X3972966Y11648694D01*
X3961434Y11641023D01*
X3951020Y11631879D01*
X3941927Y11621465D01*
X3934206Y11609933D01*
X3928059Y11597538D01*
X3923639Y11584381D01*
X3920947Y11570817D01*
X3920032Y11557000D01*
X3920947Y11543182D01*
X3923639Y11529568D01*
X3928059Y11516461D01*
X3934206Y11504066D01*
X3941927Y11492534D01*
X3951020Y11482120D01*
X3961434Y11472976D01*
X3972966Y11465306D01*
X3985412Y11459159D01*
X3998518Y11454739D01*
X4012082Y11451996D01*
G37*
G36*
X11587327Y11680037D02*
G01*
X11786057Y11680037D01*
X11792407Y11680799D01*
X11797842Y11682679D01*
X11802770Y11685778D01*
X11806834Y11689842D01*
X11809933Y11694769D01*
X11811863Y11700205D01*
X11812574Y11706555D01*
X11812574Y12065304D01*
X11811863Y12071654D01*
X11809933Y12077090D01*
X11806834Y12082018D01*
X11802770Y12086082D01*
X11797842Y12089180D01*
X11792407Y12091060D01*
X11786057Y12091771D01*
X11587327Y12091771D01*
X11580977Y12091060D01*
X11575542Y12089180D01*
X11570614Y12086082D01*
X11566550Y12082018D01*
X11563451Y12077090D01*
X11561572Y12071654D01*
X11560860Y12065304D01*
X11560860Y11706555D01*
X11561572Y11700205D01*
X11563451Y11694769D01*
X11566550Y11689842D01*
X11570614Y11685778D01*
X11575542Y11682679D01*
X11580977Y11680799D01*
G37*
G36*
X10337342Y11680037D02*
G01*
X10536072Y11680037D01*
X10542422Y11680799D01*
X10547858Y11682679D01*
X10552785Y11685778D01*
X10556849Y11689842D01*
X10559948Y11694769D01*
X10561828Y11700205D01*
X10562539Y11706555D01*
X10562539Y12065304D01*
X10561828Y12071654D01*
X10559948Y12077090D01*
X10556849Y12082018D01*
X10552785Y12086082D01*
X10547858Y12089180D01*
X10542422Y12091060D01*
X10536072Y12091771D01*
X10337342Y12091771D01*
X10330992Y12091060D01*
X10325557Y12089180D01*
X10320629Y12086082D01*
X10316565Y12082018D01*
X10313466Y12077090D01*
X10311536Y12071654D01*
X10310825Y12065304D01*
X10310825Y11706555D01*
X10311536Y11700205D01*
X10313466Y11694769D01*
X10316565Y11689842D01*
X10320629Y11685778D01*
X10325557Y11682679D01*
X10330992Y11680799D01*
G37*
G36*
X11303355Y12471247D02*
G01*
X11317884Y12471247D01*
X11332362Y12473076D01*
X11346434Y12476734D01*
X11359997Y12482068D01*
X11372748Y12489078D01*
X11384534Y12497663D01*
X11395151Y12507620D01*
X11404396Y12518847D01*
X11412220Y12531140D01*
X11418417Y12544298D01*
X11422888Y12558115D01*
X11425631Y12572441D01*
X11426545Y12586970D01*
X11425631Y12601498D01*
X11422888Y12615824D01*
X11418417Y12629642D01*
X11412220Y12642799D01*
X11404396Y12655092D01*
X11395151Y12666319D01*
X11384534Y12676276D01*
X11372748Y12684861D01*
X11359997Y12691872D01*
X11346434Y12697206D01*
X11332362Y12700863D01*
X11317884Y12702692D01*
X11303355Y12702692D01*
X11288877Y12700863D01*
X11274806Y12697206D01*
X11261242Y12691872D01*
X11248491Y12684861D01*
X11236706Y12676276D01*
X11226088Y12666319D01*
X11216843Y12655092D01*
X11209020Y12642799D01*
X11202822Y12629642D01*
X11198352Y12615824D01*
X11195608Y12601498D01*
X11194694Y12586970D01*
X11195608Y12572441D01*
X11198352Y12558115D01*
X11202822Y12544298D01*
X11209020Y12531140D01*
X11216843Y12518847D01*
X11226088Y12507620D01*
X11236706Y12497663D01*
X11248491Y12489078D01*
X11261242Y12482068D01*
X11274806Y12476734D01*
X11288877Y12473076D01*
G37*
G36*
X10805515Y12471247D02*
G01*
X10820044Y12471247D01*
X10834522Y12473076D01*
X10848594Y12476734D01*
X10862157Y12482068D01*
X10874908Y12489078D01*
X10886694Y12497663D01*
X10897311Y12507620D01*
X10906556Y12518847D01*
X10914380Y12531140D01*
X10920577Y12544298D01*
X10925048Y12558115D01*
X10927791Y12572441D01*
X10928705Y12586970D01*
X10927791Y12601498D01*
X10925048Y12615824D01*
X10920577Y12629642D01*
X10914380Y12642799D01*
X10906556Y12655092D01*
X10897311Y12666319D01*
X10886694Y12676276D01*
X10874908Y12684861D01*
X10862157Y12691872D01*
X10848594Y12697206D01*
X10834522Y12700863D01*
X10820044Y12702692D01*
X10805515Y12702692D01*
X10791037Y12700863D01*
X10776966Y12697206D01*
X10763402Y12691872D01*
X10750651Y12684861D01*
X10738866Y12676276D01*
X10728248Y12666319D01*
X10719003Y12655092D01*
X10711180Y12642799D01*
X10704982Y12629642D01*
X10700512Y12615824D01*
X10697768Y12601498D01*
X10696854Y12586970D01*
X10697768Y12572441D01*
X10700512Y12558115D01*
X10704982Y12544298D01*
X10711180Y12531140D01*
X10719003Y12518847D01*
X10728248Y12507620D01*
X10738866Y12497663D01*
X10750651Y12489078D01*
X10763402Y12482068D01*
X10776966Y12476734D01*
X10791037Y12473076D01*
G37*
G36*
X6613347Y12487960D02*
G01*
X6626809Y12488418D01*
X6640068Y12490653D01*
X6652971Y12494666D01*
X6665163Y12500305D01*
X6676542Y12507569D01*
X6686854Y12516256D01*
X6695897Y12526264D01*
X6703517Y12537389D01*
X6709562Y12549428D01*
X6713981Y12562128D01*
X6716674Y12575336D01*
X6717588Y12588798D01*
X6716674Y12602260D01*
X6713981Y12615468D01*
X6709562Y12628168D01*
X6703517Y12640208D01*
X6695897Y12651333D01*
X6686854Y12661341D01*
X6676542Y12670028D01*
X6665163Y12677292D01*
X6652971Y12682931D01*
X6640068Y12686944D01*
X6626809Y12689179D01*
X6613347Y12689636D01*
X6599936Y12688265D01*
X6586829Y12685166D01*
X6574231Y12680289D01*
X6562394Y12673838D01*
X6551574Y12665862D01*
X6541871Y12656464D01*
X6533540Y12645898D01*
X6526682Y12634315D01*
X6521399Y12621869D01*
X6517843Y12608915D01*
X6516065Y12595555D01*
X6516065Y12582042D01*
X6517843Y12568682D01*
X6521399Y12555728D01*
X6526682Y12543282D01*
X6533540Y12531699D01*
X6541871Y12521133D01*
X6551574Y12511735D01*
X6562394Y12503759D01*
X6574231Y12497308D01*
X6586829Y12492431D01*
X6599936Y12489332D01*
G37*
G36*
X3666947Y12487960D02*
G01*
X3680409Y12488418D01*
X3693668Y12490653D01*
X3706571Y12494666D01*
X3718763Y12500305D01*
X3730142Y12507569D01*
X3740454Y12516256D01*
X3749497Y12526264D01*
X3757117Y12537389D01*
X3763162Y12549428D01*
X3767582Y12562128D01*
X3770274Y12575336D01*
X3771188Y12588798D01*
X3770274Y12602260D01*
X3767582Y12615468D01*
X3763162Y12628168D01*
X3757117Y12640208D01*
X3749497Y12651333D01*
X3740454Y12661341D01*
X3730142Y12670028D01*
X3718763Y12677292D01*
X3706571Y12682931D01*
X3693668Y12686944D01*
X3680409Y12689179D01*
X3666947Y12689636D01*
X3653536Y12688265D01*
X3640429Y12685166D01*
X3627831Y12680289D01*
X3615994Y12673838D01*
X3605174Y12665862D01*
X3595471Y12656464D01*
X3587140Y12645898D01*
X3580282Y12634315D01*
X3574999Y12621869D01*
X3571443Y12608915D01*
X3569665Y12595555D01*
X3569665Y12582042D01*
X3571443Y12568682D01*
X3574999Y12555728D01*
X3580282Y12543282D01*
X3587140Y12531699D01*
X3595471Y12521133D01*
X3605174Y12511735D01*
X3615994Y12503759D01*
X3627831Y12497308D01*
X3640429Y12492431D01*
X3653536Y12489332D01*
G37*

%LPD*%
D10*
X2755900Y9017000D02*
G01*
X4923358Y11184458D01*
X4923358Y12088698D01*
X4949647Y12114987D01*
X4949647Y12676073D01*
X4931486Y12694234D01*
X4029735Y12694234D01*
X3924300Y12588798D01*
X6311900Y9017000D02*
G01*
X6471234Y8857665D01*
X6471234Y7712786D01*
X6407683Y7649235D01*
X3936263Y7649235D01*
X3822700Y7762798D01*
X1231925Y9017000D02*
G01*
X1985746Y8263178D01*
X3830320Y8263178D01*
X4330700Y7762798D01*
X3009900Y9017000D02*
G01*
X3615131Y8411768D01*
X4592497Y8411768D01*
X5241467Y7762798D01*
X5346700Y7762798D02*
G01*
X5241467Y7762798D01*
X3771900Y9017000D02*
G01*
X3882313Y8906586D01*
X4456912Y8906586D01*
X5600700Y7762798D01*
X5041900Y9017000D02*
G01*
X5854700Y8204200D01*
X5854700Y7762798D01*
X5295900Y9017000D02*
G01*
X6108700Y8204200D01*
X6108700Y7762798D01*
X5549900Y9017000D02*
G01*
X6362700Y8204200D01*
X6362700Y7762798D01*
X4025900Y9017000D02*
G01*
X4070121Y9017000D01*
X5422900Y10369778D01*
X5422900Y12156998D01*
X5854700Y12588798D01*
X4279900Y9017000D02*
G01*
X5676900Y10414000D01*
X5676900Y12245492D01*
X5964377Y12532969D01*
X5964377Y12649301D01*
X5915533Y12698145D01*
X5710047Y12698145D01*
X5600700Y12588798D01*
X4533900Y9017000D02*
G01*
X5930900Y10414000D01*
X5930900Y11597309D01*
X6221399Y11887809D01*
X6221399Y12643307D01*
X6116827Y12747879D01*
X5505780Y12747879D01*
X5346700Y12588798D01*
X4838700Y12588798D02*
G01*
X4625187Y12588798D01*
X3659987Y11623598D01*
X3659987Y10937062D01*
X1739925Y9017000D01*
X2247900Y11557000D02*
G01*
X2479547Y11788647D01*
X3632149Y11788647D01*
X4432300Y12588798D01*
X1993925Y11557000D02*
G01*
X2793568Y12356642D01*
X3946143Y12356642D01*
X4178300Y12588798D01*
X2247900Y9017000D02*
G01*
X2084603Y8853703D01*
X1481124Y8853703D01*
X1374190Y8960637D01*
X1374190Y11605209D01*
X2464485Y12695504D01*
X3309594Y12695504D01*
X3416300Y12588798D01*
X1993925Y9017000D02*
G01*
X1880463Y8903538D01*
X1689252Y8903538D01*
X1620062Y8972727D01*
X1620062Y10846968D01*
X1864258Y11091163D01*
X1864258Y11585727D01*
X2705252Y12426721D01*
X3000222Y12426721D01*
X3162300Y12588798D01*
X6565671Y11557000D02*
G01*
X9051086Y11557000D01*
X10562386Y10045700D01*
X10668000Y10045700D02*
G01*
X10562386Y10045700D01*
X4394936Y9427946D02*
G01*
X5168900Y10201910D01*
X5168900Y12512598D01*
X5092700Y12588798D01*
X4395114Y12272619D02*
G01*
X4395114Y10910214D01*
X2501900Y9017000D01*
D11*
G01*
X10668000Y10045700D03*
D12*
G01*
X10922000Y10045700D03*
G01*
X11176000Y10045700D03*
G01*
X11430000Y10045700D03*
D13*
G01*
X2654300Y12588798D03*
D14*
G01*
X2908300Y12588798D03*
G01*
X3162300Y12588798D03*
G01*
X3416300Y12588798D03*
G01*
X3670300Y12588798D03*
G01*
X3924300Y12588798D03*
G01*
X4178300Y12588798D03*
G01*
X4432300Y12588798D03*
D13*
G01*
X4838700Y12588798D03*
D14*
G01*
X5092700Y12588798D03*
G01*
X5346700Y12588798D03*
G01*
X5600700Y12588798D03*
G01*
X5854700Y12588798D03*
G01*
X6108700Y12588798D03*
G01*
X6362700Y12588798D03*
G01*
X6616700Y12588798D03*
G01*
X6616700Y7762798D03*
G01*
X6362700Y7762798D03*
G01*
X6108700Y7762798D03*
G01*
X5854700Y7762798D03*
G01*
X5600700Y7762798D03*
D13*
G01*
X5346700Y7762798D03*
D14*
G01*
X4838700Y7762798D03*
G01*
X4584700Y7762798D03*
G01*
X4330700Y7762798D03*
G01*
X4076700Y7762798D03*
G01*
X3822700Y7762798D03*
D13*
G01*
X3568700Y7762798D03*
D15*
G01*
X10812779Y11136629D03*
G01*
X11061700Y11136629D03*
G01*
X11310620Y11136629D03*
G01*
X11310620Y12586970D03*
G01*
X10812779Y12586970D03*
D16*
G01*
X10436707Y11885929D03*
G01*
X11686692Y11885929D03*
D17*
G01*
X6565900Y9017000D03*
G01*
X6311900Y9017000D03*
G01*
X6057900Y9017000D03*
G01*
X5803900Y9017000D03*
G01*
X5549900Y9017000D03*
G01*
X5295900Y9017000D03*
G01*
X5041900Y9017000D03*
G01*
X4787900Y9017000D03*
G01*
X4533900Y9017000D03*
G01*
X4279900Y9017000D03*
G01*
X4025900Y9017000D03*
G01*
X3771900Y9017000D03*
G01*
X3517900Y9017000D03*
G01*
X3263900Y9017000D03*
G01*
X3009900Y9017000D03*
G01*
X2755900Y9017000D03*
G01*
X2501900Y9017000D03*
G01*
X2247900Y9017000D03*
G01*
X1993925Y9017000D03*
G01*
X6565671Y11557000D03*
G01*
X6311900Y11557000D03*
G01*
X6057900Y11557000D03*
G01*
X5803900Y11557000D03*
G01*
X5549900Y11557000D03*
G01*
X5295900Y11557000D03*
G01*
X5041900Y11557000D03*
G01*
X4787900Y11557000D03*
G01*
X4533900Y11557000D03*
G01*
X4279900Y11557000D03*
G01*
X4025900Y11557000D03*
G01*
X3771900Y11557000D03*
G01*
X3517900Y11557000D03*
G01*
X3263900Y11557000D03*
G01*
X3009900Y11557000D03*
G01*
X2755900Y11557000D03*
G01*
X2501900Y11557000D03*
G01*
X2247900Y11557000D03*
G01*
X1993925Y11557000D03*
D18*
G01*
X1739925Y11557000D03*
G01*
X1485925Y11557000D03*
G01*
X1231925Y11557000D03*
G01*
X1739925Y9017000D03*
G01*
X1485925Y9017000D03*
G01*
X1231925Y9017000D03*
D19*
G01*
X4395114Y12272619D03*
G01*
X4394936Y9427946D03*
M02*
