G04 Layer: BottomLayer*
G04 EasyEDA v6.5.44, 2024-08-15 16:57:17*
G04 730f8030baaa4eecbbdbbe0e4218c4d4,080bb0d1436b4706b040d70de8f1a738,10*
G04 Gerber Generator version 0.2*
G04 Scale: 100 percent, Rotated: No, Reflected: No *
G04 Dimensions in millimeters *
G04 leading zeros omitted , absolute positions ,4 integer and 5 decimal *
%FSLAX45Y45*%
%MOMM*%

%ADD10C,0.3000*%
%ADD11C,1.8009*%
%ADD12R,1.9990X3.5992*%
%ADD13C,1.6000*%
%ADD14C,1.5240*%
%ADD15R,1.5080X1.5080*%
%ADD16C,1.5080*%
%ADD17R,1.5000X1.5000*%
%ADD18C,1.5000*%
%ADD19C,0.6100*%
%ADD20C,0.0100*%

%LPD*%
G36*
X798068Y7137908D02*
G01*
X794156Y7138670D01*
X790905Y7140905D01*
X788670Y7144156D01*
X787908Y7148068D01*
X787908Y13171932D01*
X788670Y13175843D01*
X790905Y13179094D01*
X794156Y13181330D01*
X798068Y13182092D01*
X12663932Y13182092D01*
X12667843Y13181330D01*
X12671094Y13179094D01*
X12673330Y13175843D01*
X12674092Y13171932D01*
X12674092Y7148068D01*
X12673330Y7144156D01*
X12671094Y7140905D01*
X12667843Y7138670D01*
X12663932Y7137908D01*
G37*

%LPC*%
G36*
X1016000Y7238492D02*
G01*
X1031392Y7239457D01*
X1046530Y7242200D01*
X1061212Y7246772D01*
X1075232Y7253122D01*
X1088440Y7261098D01*
X1100531Y7270597D01*
X1111402Y7281468D01*
X1120902Y7293559D01*
X1128877Y7306767D01*
X1135227Y7320788D01*
X1139799Y7335469D01*
X1142542Y7350607D01*
X1143508Y7366000D01*
X1142542Y7381392D01*
X1139799Y7396530D01*
X1135227Y7411212D01*
X1128877Y7425232D01*
X1120902Y7438440D01*
X1111402Y7450531D01*
X1100531Y7461402D01*
X1088440Y7470902D01*
X1075232Y7478877D01*
X1061212Y7485227D01*
X1046530Y7489799D01*
X1031392Y7492542D01*
X1016000Y7493508D01*
X1000607Y7492542D01*
X985469Y7489799D01*
X970787Y7485227D01*
X956767Y7478877D01*
X943559Y7470902D01*
X931468Y7461402D01*
X920597Y7450531D01*
X911098Y7438440D01*
X903122Y7425232D01*
X896772Y7411212D01*
X892200Y7396530D01*
X889457Y7381392D01*
X888492Y7366000D01*
X889457Y7350607D01*
X892200Y7335469D01*
X896772Y7320788D01*
X903122Y7306767D01*
X911098Y7293559D01*
X920597Y7281468D01*
X931468Y7270597D01*
X943559Y7261098D01*
X956767Y7253122D01*
X970787Y7246772D01*
X985469Y7242200D01*
X1000607Y7239457D01*
G37*
G36*
X12090400Y7494117D02*
G01*
X12105589Y7495031D01*
X12120524Y7497775D01*
X12135053Y7502296D01*
X12148921Y7508544D01*
X12161926Y7516418D01*
X12173864Y7525766D01*
X12184634Y7536535D01*
X12193981Y7548473D01*
X12201855Y7561478D01*
X12208103Y7575346D01*
X12212624Y7589875D01*
X12215368Y7604810D01*
X12216282Y7620000D01*
X12215368Y7635189D01*
X12212624Y7650124D01*
X12208103Y7664653D01*
X12201855Y7678521D01*
X12193981Y7691526D01*
X12184634Y7703464D01*
X12173864Y7714234D01*
X12161926Y7723581D01*
X12148921Y7731455D01*
X12135053Y7737703D01*
X12120524Y7742224D01*
X12105589Y7744968D01*
X12090400Y7745882D01*
X12075210Y7744968D01*
X12060275Y7742224D01*
X12045746Y7737703D01*
X12031878Y7731455D01*
X12018873Y7723581D01*
X12006935Y7714234D01*
X11996166Y7703464D01*
X11986818Y7691526D01*
X11978944Y7678521D01*
X11972696Y7664653D01*
X11968175Y7650124D01*
X11965432Y7635189D01*
X11964517Y7620000D01*
X11965432Y7604810D01*
X11968175Y7589875D01*
X11972696Y7575346D01*
X11978944Y7561478D01*
X11986818Y7548473D01*
X11996166Y7536535D01*
X12006935Y7525766D01*
X12018873Y7516418D01*
X12031878Y7508544D01*
X12045746Y7502296D01*
X12060275Y7497775D01*
X12075210Y7495031D01*
G37*
G36*
X10007600Y7494117D02*
G01*
X10022789Y7495031D01*
X10037724Y7497775D01*
X10052253Y7502296D01*
X10066121Y7508544D01*
X10079126Y7516418D01*
X10091064Y7525766D01*
X10101834Y7536535D01*
X10111181Y7548473D01*
X10119055Y7561478D01*
X10125303Y7575346D01*
X10129824Y7589875D01*
X10132568Y7604810D01*
X10133482Y7620000D01*
X10132568Y7635189D01*
X10129824Y7650124D01*
X10125303Y7664653D01*
X10119055Y7678521D01*
X10111181Y7691526D01*
X10101834Y7703464D01*
X10091064Y7714234D01*
X10079126Y7723581D01*
X10066121Y7731455D01*
X10052253Y7737703D01*
X10037724Y7742224D01*
X10022789Y7744968D01*
X10007600Y7745882D01*
X9992410Y7744968D01*
X9977475Y7742224D01*
X9962946Y7737703D01*
X9949078Y7731455D01*
X9936073Y7723581D01*
X9924135Y7714234D01*
X9913366Y7703464D01*
X9904018Y7691526D01*
X9896144Y7678521D01*
X9889896Y7664653D01*
X9885375Y7650124D01*
X9882632Y7635189D01*
X9881717Y7620000D01*
X9882632Y7604810D01*
X9885375Y7589875D01*
X9889896Y7575346D01*
X9896144Y7561478D01*
X9904018Y7548473D01*
X9913366Y7536535D01*
X9924135Y7525766D01*
X9936073Y7516418D01*
X9949078Y7508544D01*
X9962946Y7502296D01*
X9977475Y7497775D01*
X9992410Y7495031D01*
G37*
G36*
X3188462Y7540701D02*
G01*
X7339838Y7540701D01*
X7348270Y7541564D01*
X7355941Y7543850D01*
X7363002Y7547660D01*
X7369606Y7553045D01*
X7465059Y7648549D01*
X7468108Y7650581D01*
X7471664Y7651496D01*
X7475270Y7651038D01*
X7482331Y7648854D01*
X7495590Y7646619D01*
X7509052Y7646162D01*
X7522464Y7647533D01*
X7535570Y7650632D01*
X7548168Y7655509D01*
X7560005Y7661960D01*
X7570825Y7669936D01*
X7580528Y7679334D01*
X7588859Y7689900D01*
X7595717Y7701483D01*
X7601000Y7713929D01*
X7604556Y7726883D01*
X7606334Y7740243D01*
X7606334Y7753756D01*
X7604556Y7767116D01*
X7601000Y7780070D01*
X7595717Y7792516D01*
X7588859Y7804099D01*
X7580528Y7814665D01*
X7570825Y7824063D01*
X7560005Y7832039D01*
X7548168Y7838490D01*
X7535570Y7843367D01*
X7522464Y7846466D01*
X7509052Y7847838D01*
X7495590Y7847380D01*
X7482331Y7845145D01*
X7469428Y7841132D01*
X7457236Y7835493D01*
X7445857Y7828229D01*
X7435545Y7819542D01*
X7426502Y7809534D01*
X7418882Y7798409D01*
X7412837Y7786370D01*
X7408418Y7773670D01*
X7405725Y7760462D01*
X7404811Y7747000D01*
X7405725Y7733538D01*
X7408418Y7720330D01*
X7409586Y7716875D01*
X7410145Y7713116D01*
X7409332Y7709458D01*
X7407198Y7706359D01*
X7326375Y7625486D01*
X7323074Y7623302D01*
X7319162Y7622540D01*
X6447586Y7622540D01*
X6443726Y7623302D01*
X6440424Y7625486D01*
X6438239Y7628788D01*
X6437426Y7632700D01*
X6438239Y7636560D01*
X6440424Y7639862D01*
X6449060Y7648549D01*
X6452108Y7650581D01*
X6455664Y7651496D01*
X6459270Y7651038D01*
X6466332Y7648854D01*
X6479590Y7646619D01*
X6493052Y7646162D01*
X6506464Y7647533D01*
X6519570Y7650632D01*
X6532168Y7655509D01*
X6544005Y7661960D01*
X6554825Y7669936D01*
X6564528Y7679334D01*
X6572859Y7689900D01*
X6579717Y7701483D01*
X6585000Y7713929D01*
X6588556Y7726883D01*
X6590334Y7740243D01*
X6590334Y7753756D01*
X6588556Y7767116D01*
X6585000Y7780070D01*
X6579717Y7792516D01*
X6572859Y7804099D01*
X6564528Y7814665D01*
X6554825Y7824063D01*
X6544005Y7832039D01*
X6532168Y7838490D01*
X6519570Y7843367D01*
X6506464Y7846466D01*
X6493052Y7847838D01*
X6479590Y7847380D01*
X6466332Y7845145D01*
X6453428Y7841132D01*
X6441236Y7835493D01*
X6429857Y7828229D01*
X6419545Y7819542D01*
X6410502Y7809534D01*
X6402882Y7798409D01*
X6396837Y7786370D01*
X6392418Y7773670D01*
X6389725Y7760462D01*
X6388811Y7747000D01*
X6389725Y7733538D01*
X6392418Y7720330D01*
X6393586Y7716875D01*
X6394145Y7713116D01*
X6393332Y7709458D01*
X6391198Y7706359D01*
X6369405Y7684516D01*
X6366103Y7682331D01*
X6362192Y7681569D01*
X6331762Y7681569D01*
X6327597Y7682433D01*
X6324193Y7684973D01*
X6322060Y7688630D01*
X6321653Y7692847D01*
X6323025Y7696911D01*
X6325717Y7701483D01*
X6331000Y7713929D01*
X6334556Y7726883D01*
X6336334Y7740243D01*
X6336334Y7753756D01*
X6334556Y7767116D01*
X6331000Y7780070D01*
X6325717Y7792516D01*
X6318859Y7804099D01*
X6310528Y7814665D01*
X6300825Y7824063D01*
X6290005Y7832039D01*
X6278168Y7838490D01*
X6265570Y7843367D01*
X6252464Y7846466D01*
X6239052Y7847838D01*
X6225590Y7847380D01*
X6212332Y7845145D01*
X6205270Y7842961D01*
X6201664Y7842503D01*
X6198108Y7843418D01*
X6195060Y7845450D01*
X5917184Y8123377D01*
X5914999Y8126628D01*
X5914237Y8130540D01*
X5914999Y8134451D01*
X5917184Y8137702D01*
X5920486Y8139938D01*
X5924397Y8140700D01*
X8457184Y8140700D01*
X8458911Y8141411D01*
X8711488Y8393988D01*
X8712200Y8395716D01*
X8712200Y11949684D01*
X8711488Y11951411D01*
X8458911Y12203988D01*
X8457184Y12204700D01*
X6896353Y12204700D01*
X6892493Y12205462D01*
X6889191Y12207697D01*
X6887006Y12210948D01*
X6886194Y12214860D01*
X6886194Y12474600D01*
X6886854Y12478156D01*
X6888683Y12481255D01*
X6891477Y12483541D01*
X6899605Y12487960D01*
X6910425Y12495936D01*
X6920128Y12505334D01*
X6928459Y12515900D01*
X6935317Y12527483D01*
X6940600Y12539929D01*
X6944156Y12552883D01*
X6945934Y12566243D01*
X6945934Y12579756D01*
X6944156Y12593116D01*
X6940600Y12606070D01*
X6935317Y12618516D01*
X6928459Y12630099D01*
X6920128Y12640665D01*
X6910425Y12650063D01*
X6899605Y12658039D01*
X6887768Y12664490D01*
X6875170Y12669367D01*
X6862064Y12672466D01*
X6848652Y12673838D01*
X6835190Y12673380D01*
X6821931Y12671145D01*
X6809028Y12667132D01*
X6796836Y12661493D01*
X6785457Y12654229D01*
X6775145Y12645542D01*
X6766102Y12635534D01*
X6758482Y12624409D01*
X6752437Y12612370D01*
X6748018Y12599670D01*
X6745325Y12586462D01*
X6744411Y12573000D01*
X6745325Y12559538D01*
X6748018Y12546330D01*
X6752437Y12533630D01*
X6758482Y12521590D01*
X6766102Y12510465D01*
X6775145Y12500457D01*
X6785457Y12491770D01*
X6796836Y12484506D01*
X6798513Y12483744D01*
X6801612Y12481509D01*
X6803694Y12478308D01*
X6804406Y12474549D01*
X6804406Y12214860D01*
X6803644Y12210948D01*
X6801408Y12207697D01*
X6798106Y12205462D01*
X6794246Y12204700D01*
X6248552Y12204700D01*
X6244640Y12205462D01*
X6241338Y12207697D01*
X6239154Y12210948D01*
X6238392Y12214860D01*
X6238392Y12506502D01*
X6239256Y12510668D01*
X6241796Y12514072D01*
X6245555Y12516205D01*
X6249771Y12516561D01*
X6253835Y12515189D01*
X6256934Y12512243D01*
X6258102Y12510465D01*
X6267145Y12500457D01*
X6277457Y12491770D01*
X6288836Y12484506D01*
X6293459Y12482372D01*
X6293459Y12529159D01*
X6248552Y12529159D01*
X6244640Y12529921D01*
X6241338Y12532106D01*
X6239154Y12535408D01*
X6238392Y12539319D01*
X6238392Y12606680D01*
X6239154Y12610592D01*
X6241338Y12613894D01*
X6244640Y12616078D01*
X6248552Y12616840D01*
X6293459Y12616840D01*
X6293459Y12663627D01*
X6288836Y12661493D01*
X6277457Y12654229D01*
X6267145Y12645542D01*
X6258102Y12635534D01*
X6253073Y12628219D01*
X6250127Y12625324D01*
X6246215Y12623901D01*
X6242100Y12624155D01*
X6238392Y12625984D01*
X6235750Y12629184D01*
X6231432Y12637363D01*
X6226048Y12643916D01*
X6054801Y12815163D01*
X6052566Y12818465D01*
X6051804Y12822377D01*
X6052566Y12826238D01*
X6054801Y12829540D01*
X6058052Y12831724D01*
X6061964Y12832537D01*
X6269736Y12832537D01*
X6273596Y12831724D01*
X6276898Y12829540D01*
X6492798Y12613640D01*
X6494932Y12610541D01*
X6495745Y12606883D01*
X6495186Y12603124D01*
X6494018Y12599670D01*
X6491325Y12586462D01*
X6490411Y12573000D01*
X6491325Y12559538D01*
X6494018Y12546330D01*
X6498437Y12533630D01*
X6504482Y12521590D01*
X6512102Y12510465D01*
X6521145Y12500457D01*
X6531457Y12491770D01*
X6542836Y12484506D01*
X6555028Y12478867D01*
X6567931Y12474854D01*
X6581190Y12472619D01*
X6594652Y12472162D01*
X6608064Y12473533D01*
X6621170Y12476632D01*
X6633768Y12481509D01*
X6645605Y12487960D01*
X6656425Y12495936D01*
X6666128Y12505334D01*
X6674459Y12515900D01*
X6681317Y12527483D01*
X6686600Y12539929D01*
X6690156Y12552883D01*
X6691934Y12566243D01*
X6691934Y12579756D01*
X6690156Y12593116D01*
X6686600Y12606070D01*
X6681317Y12618516D01*
X6674459Y12630099D01*
X6666128Y12640665D01*
X6656425Y12650063D01*
X6645605Y12658039D01*
X6633768Y12664490D01*
X6621170Y12669367D01*
X6608064Y12672466D01*
X6594652Y12673838D01*
X6581190Y12673380D01*
X6567931Y12671145D01*
X6560870Y12668961D01*
X6557264Y12668504D01*
X6553708Y12669418D01*
X6550659Y12671450D01*
X6320129Y12901980D01*
X6313576Y12907416D01*
X6306515Y12911175D01*
X6298844Y12913512D01*
X6290360Y12914325D01*
X2664815Y12914325D01*
X2656382Y12913512D01*
X2648712Y12911175D01*
X2641650Y12907416D01*
X2635046Y12901980D01*
X1344980Y11611965D01*
X1341272Y11609578D01*
X1336852Y11609019D01*
X1332687Y11610340D01*
X1329436Y11613388D01*
X1324711Y11620246D01*
X1315567Y11630406D01*
X1305153Y11639194D01*
X1293622Y11646509D01*
X1281277Y11652250D01*
X1268272Y11656314D01*
X1254810Y11658549D01*
X1241196Y11659006D01*
X1227582Y11657685D01*
X1214323Y11654485D01*
X1201623Y11649608D01*
X1189634Y11643055D01*
X1178661Y11634978D01*
X1168857Y11625478D01*
X1160424Y11614759D01*
X1153464Y11603024D01*
X1148130Y11590477D01*
X1144524Y11577320D01*
X1142746Y11563807D01*
X1142746Y11550192D01*
X1144524Y11536680D01*
X1148130Y11523522D01*
X1153464Y11510975D01*
X1160424Y11499240D01*
X1168857Y11488521D01*
X1178661Y11479022D01*
X1189634Y11470944D01*
X1201623Y11464391D01*
X1214323Y11459514D01*
X1227582Y11456314D01*
X1241196Y11454993D01*
X1254810Y11455450D01*
X1268272Y11457686D01*
X1281277Y11461750D01*
X1293622Y11467490D01*
X1305153Y11474805D01*
X1313992Y11482273D01*
X1317294Y11484152D01*
X1321104Y11484660D01*
X1324813Y11483746D01*
X1327912Y11481511D01*
X1329994Y11478260D01*
X1330706Y11474500D01*
X1330706Y11332159D01*
X1329944Y11328247D01*
X1327708Y11324945D01*
X846429Y10843666D01*
X840994Y10837062D01*
X837234Y10830001D01*
X834898Y10822330D01*
X834085Y10813897D01*
X834085Y8981135D01*
X834898Y8972651D01*
X837234Y8964980D01*
X840994Y8957919D01*
X846429Y8951366D01*
X925779Y8872016D01*
X932332Y8866581D01*
X939393Y8862822D01*
X947064Y8860485D01*
X955548Y8859672D01*
X1127658Y8859672D01*
X1136142Y8860485D01*
X1143812Y8862822D01*
X1150874Y8866581D01*
X1157427Y8872016D01*
X1202893Y8917432D01*
X1206093Y8919616D01*
X1209903Y8920429D01*
X1227582Y8916365D01*
X1241196Y8914993D01*
X1254810Y8915450D01*
X1268272Y8917686D01*
X1281277Y8921750D01*
X1293622Y8927490D01*
X1305153Y8934805D01*
X1315567Y8943644D01*
X1324711Y8953754D01*
X1332433Y8964980D01*
X1338580Y8977172D01*
X1343050Y8990025D01*
X1345742Y9003385D01*
X1346657Y9017000D01*
X1345742Y9030614D01*
X1343050Y9043974D01*
X1338580Y9056878D01*
X1332433Y9069019D01*
X1324711Y9080296D01*
X1315567Y9090406D01*
X1305153Y9099194D01*
X1293622Y9106509D01*
X1281277Y9112250D01*
X1268272Y9116314D01*
X1254810Y9118600D01*
X1241196Y9119057D01*
X1227582Y9117685D01*
X1214323Y9114485D01*
X1201623Y9109608D01*
X1189634Y9103055D01*
X1178661Y9094978D01*
X1168857Y9085478D01*
X1160424Y9074759D01*
X1153464Y9063024D01*
X1148130Y9050477D01*
X1144524Y9037320D01*
X1142746Y9023807D01*
X1142746Y9010192D01*
X1144524Y8996680D01*
X1147673Y8985199D01*
X1148029Y8981643D01*
X1147114Y8978239D01*
X1145082Y8975344D01*
X1114196Y8944457D01*
X1110894Y8942222D01*
X1107033Y8941460D01*
X1081582Y8941460D01*
X1077315Y8942425D01*
X1073810Y8945067D01*
X1071778Y8948928D01*
X1071575Y8953347D01*
X1073200Y8957360D01*
X1078433Y8964980D01*
X1082243Y8972550D01*
X1035050Y8972550D01*
X1035050Y8951620D01*
X1034237Y8947759D01*
X1032052Y8944457D01*
X1028750Y8942222D01*
X1024890Y8941460D01*
X976172Y8941460D01*
X972312Y8942222D01*
X969010Y8944457D01*
X949096Y8964371D01*
X946912Y8967622D01*
X946150Y8972550D01*
X941222Y8973312D01*
X937920Y8975547D01*
X918870Y8994597D01*
X916686Y8997899D01*
X915873Y9001760D01*
X915873Y9051290D01*
X916686Y9055201D01*
X918870Y9058503D01*
X922172Y9060688D01*
X926033Y9061450D01*
X946150Y9061450D01*
X946150Y9108795D01*
X935634Y9103055D01*
X932078Y9100413D01*
X928014Y9098635D01*
X923544Y9098737D01*
X919581Y9100769D01*
X916838Y9104274D01*
X915873Y9108592D01*
X915873Y10793222D01*
X916686Y10797133D01*
X918870Y10800435D01*
X1400149Y11281714D01*
X1405585Y11288318D01*
X1409344Y11295380D01*
X1411681Y11303050D01*
X1412494Y11311483D01*
X1412494Y11474602D01*
X1413256Y11478463D01*
X1415440Y11481714D01*
X1418691Y11483949D01*
X1422552Y11484762D01*
X1426413Y11484051D01*
X1429715Y11481866D01*
X1432661Y11479022D01*
X1443634Y11470944D01*
X1455623Y11464391D01*
X1468323Y11459514D01*
X1481582Y11456314D01*
X1495196Y11454993D01*
X1508810Y11455450D01*
X1522272Y11457686D01*
X1535430Y11461800D01*
X1539036Y11462207D01*
X1542592Y11461343D01*
X1545640Y11459260D01*
X2089708Y10915192D01*
X2091893Y10911890D01*
X2092655Y10908030D01*
X2092655Y9104477D01*
X2091943Y9100667D01*
X2089861Y9097467D01*
X2086711Y9095232D01*
X2082952Y9094317D01*
X2079142Y9094876D01*
X2075789Y9096857D01*
X2071065Y9101023D01*
X2059533Y9108694D01*
X2047087Y9114840D01*
X2033981Y9119260D01*
X2020417Y9122003D01*
X2006600Y9122867D01*
X1992782Y9122003D01*
X1979168Y9119260D01*
X1966061Y9114840D01*
X1953666Y9108694D01*
X1942134Y9101023D01*
X1931720Y9091879D01*
X1922576Y9081465D01*
X1914906Y9069933D01*
X1908759Y9057538D01*
X1904288Y9044432D01*
X1901596Y9030817D01*
X1900682Y9017000D01*
X1901596Y9003182D01*
X1904288Y8989618D01*
X1908759Y8976461D01*
X1914906Y8964066D01*
X1922576Y8952534D01*
X1931720Y8942120D01*
X1942134Y8932976D01*
X1953666Y8925306D01*
X1966061Y8919159D01*
X1979168Y8914739D01*
X1992782Y8912047D01*
X2006600Y8911132D01*
X2020417Y8912047D01*
X2033981Y8914739D01*
X2047087Y8919159D01*
X2059533Y8925306D01*
X2071065Y8932976D01*
X2081479Y8942120D01*
X2089861Y8951620D01*
X2093112Y8954109D01*
X2097125Y8955074D01*
X2101189Y8954363D01*
X2104644Y8952128D01*
X3203346Y7853375D01*
X3205378Y7850530D01*
X3206292Y7847075D01*
X3206699Y7842605D01*
X3209239Y7833106D01*
X3213404Y7824216D01*
X3218992Y7816189D01*
X3225952Y7809230D01*
X3234029Y7803591D01*
X3242919Y7799425D01*
X3252419Y7796885D01*
X3262223Y7796022D01*
X3271977Y7796885D01*
X3281476Y7799425D01*
X3290366Y7803591D01*
X3298444Y7809230D01*
X3305403Y7816189D01*
X3310991Y7824216D01*
X3315157Y7833106D01*
X3317697Y7842605D01*
X3318560Y7852409D01*
X3317697Y7862214D01*
X3315157Y7871714D01*
X3310991Y7880603D01*
X3305403Y7888630D01*
X3298444Y7895590D01*
X3290366Y7901228D01*
X3281476Y7905394D01*
X3271977Y7907934D01*
X3267506Y7908290D01*
X3264103Y7909204D01*
X3261207Y7911236D01*
X2276195Y8896248D01*
X2273858Y8899956D01*
X2273249Y8904224D01*
X2274519Y8908389D01*
X2277414Y8911691D01*
X2281377Y8913418D01*
X2287981Y8914739D01*
X2301087Y8919159D01*
X2313533Y8925306D01*
X2325065Y8932976D01*
X2335479Y8942120D01*
X2341626Y8949182D01*
X2345182Y8951772D01*
X2349449Y8952636D01*
X2353716Y8951620D01*
X2357120Y8948928D01*
X2358999Y8946642D01*
X3665778Y7639862D01*
X3667963Y7636560D01*
X3668776Y7632700D01*
X3667963Y7628788D01*
X3665778Y7625486D01*
X3662476Y7623302D01*
X3658615Y7622540D01*
X3209137Y7622540D01*
X3205226Y7623302D01*
X3201924Y7625486D01*
X1855012Y8972448D01*
X1852930Y8975496D01*
X1852066Y8979154D01*
X1852574Y8982862D01*
X1854860Y8989618D01*
X1857552Y9003182D01*
X1858467Y9017000D01*
X1857552Y9030817D01*
X1854860Y9044432D01*
X1850440Y9057538D01*
X1844293Y9069933D01*
X1836623Y9081465D01*
X1827479Y9091879D01*
X1817065Y9101023D01*
X1805533Y9108694D01*
X1793138Y9114840D01*
X1779981Y9119260D01*
X1766417Y9122003D01*
X1752600Y9122867D01*
X1738782Y9122003D01*
X1725168Y9119260D01*
X1712061Y9114840D01*
X1699666Y9108694D01*
X1688134Y9101023D01*
X1677720Y9091879D01*
X1668576Y9081465D01*
X1660906Y9069933D01*
X1654759Y9057538D01*
X1650339Y9044432D01*
X1647596Y9030817D01*
X1646732Y9017000D01*
X1647596Y9003182D01*
X1650339Y8989618D01*
X1654759Y8976461D01*
X1660906Y8964066D01*
X1668576Y8952534D01*
X1677720Y8942120D01*
X1688134Y8932976D01*
X1699666Y8925306D01*
X1712061Y8919159D01*
X1725168Y8914739D01*
X1738782Y8912047D01*
X1752600Y8911132D01*
X1766417Y8912047D01*
X1779981Y8914739D01*
X1786737Y8917025D01*
X1790446Y8917533D01*
X1794103Y8916670D01*
X1797151Y8914587D01*
X3158693Y7553045D01*
X3165297Y7547660D01*
X3172358Y7543850D01*
X3180029Y7541564D01*
G37*
G36*
X7939278Y7646111D02*
G01*
X8088122Y7646111D01*
X8094472Y7646822D01*
X8099907Y7648702D01*
X8104835Y7651800D01*
X8108899Y7655864D01*
X8111998Y7660792D01*
X8113877Y7666228D01*
X8114588Y7672578D01*
X8114588Y7821422D01*
X8113877Y7827772D01*
X8111998Y7833207D01*
X8108899Y7838135D01*
X8104835Y7842199D01*
X8099907Y7845298D01*
X8094472Y7847177D01*
X8088122Y7847888D01*
X7939278Y7847888D01*
X7932928Y7847177D01*
X7927492Y7845298D01*
X7922564Y7842199D01*
X7918500Y7838135D01*
X7915402Y7833207D01*
X7913522Y7827772D01*
X7912811Y7821422D01*
X7912811Y7672578D01*
X7913522Y7666228D01*
X7915402Y7660792D01*
X7918500Y7655864D01*
X7922564Y7651800D01*
X7927492Y7648702D01*
X7932928Y7646822D01*
G37*
G36*
X7001052Y7646162D02*
G01*
X7014464Y7647533D01*
X7027570Y7650632D01*
X7040168Y7655509D01*
X7052005Y7661960D01*
X7062825Y7669936D01*
X7072528Y7679334D01*
X7080859Y7689900D01*
X7087717Y7701483D01*
X7093000Y7713929D01*
X7096556Y7726883D01*
X7098334Y7740243D01*
X7098334Y7753756D01*
X7096556Y7767116D01*
X7093000Y7780070D01*
X7087717Y7792516D01*
X7080859Y7804099D01*
X7072528Y7814665D01*
X7062825Y7824063D01*
X7052005Y7832039D01*
X7040168Y7838490D01*
X7027570Y7843367D01*
X7014464Y7846466D01*
X7001052Y7847838D01*
X6987590Y7847380D01*
X6974331Y7845145D01*
X6961428Y7841132D01*
X6949236Y7835493D01*
X6937857Y7828229D01*
X6927545Y7819542D01*
X6918502Y7809534D01*
X6910882Y7798409D01*
X6904837Y7786370D01*
X6900418Y7773670D01*
X6897725Y7760462D01*
X6896811Y7747000D01*
X6897725Y7733538D01*
X6900418Y7720330D01*
X6904837Y7707630D01*
X6910882Y7695590D01*
X6918502Y7684465D01*
X6927545Y7674457D01*
X6937857Y7665770D01*
X6949236Y7658506D01*
X6961428Y7652867D01*
X6974331Y7648854D01*
X6987590Y7646619D01*
G37*
G36*
X7763052Y7646162D02*
G01*
X7776464Y7647533D01*
X7789570Y7650632D01*
X7802168Y7655509D01*
X7814005Y7661960D01*
X7824825Y7669936D01*
X7834528Y7679334D01*
X7842859Y7689900D01*
X7849717Y7701483D01*
X7855000Y7713929D01*
X7858556Y7726883D01*
X7860334Y7740243D01*
X7860334Y7753756D01*
X7858556Y7767116D01*
X7855000Y7780070D01*
X7849717Y7792516D01*
X7842859Y7804099D01*
X7834528Y7814665D01*
X7824825Y7824063D01*
X7814005Y7832039D01*
X7802168Y7838490D01*
X7789570Y7843367D01*
X7776464Y7846466D01*
X7763052Y7847838D01*
X7749590Y7847380D01*
X7736331Y7845145D01*
X7723428Y7841132D01*
X7711236Y7835493D01*
X7699857Y7828229D01*
X7689545Y7819542D01*
X7680502Y7809534D01*
X7672882Y7798409D01*
X7666837Y7786370D01*
X7662418Y7773670D01*
X7659725Y7760462D01*
X7658811Y7747000D01*
X7659725Y7733538D01*
X7662418Y7720330D01*
X7666837Y7707630D01*
X7672882Y7695590D01*
X7680502Y7684465D01*
X7689545Y7674457D01*
X7699857Y7665770D01*
X7711236Y7658506D01*
X7723428Y7652867D01*
X7736331Y7648854D01*
X7749590Y7646619D01*
G37*
G36*
X6747052Y7646162D02*
G01*
X6760464Y7647533D01*
X6773570Y7650632D01*
X6786168Y7655509D01*
X6798005Y7661960D01*
X6808825Y7669936D01*
X6818528Y7679334D01*
X6826859Y7689900D01*
X6833717Y7701483D01*
X6839000Y7713929D01*
X6842556Y7726883D01*
X6844334Y7740243D01*
X6844334Y7753756D01*
X6842556Y7767116D01*
X6839000Y7780070D01*
X6833717Y7792516D01*
X6826859Y7804099D01*
X6818528Y7814665D01*
X6808825Y7824063D01*
X6798005Y7832039D01*
X6786168Y7838490D01*
X6773570Y7843367D01*
X6760464Y7846466D01*
X6747052Y7847838D01*
X6733590Y7847380D01*
X6720331Y7845145D01*
X6707428Y7841132D01*
X6695236Y7835493D01*
X6683857Y7828229D01*
X6673545Y7819542D01*
X6664502Y7809534D01*
X6656882Y7798409D01*
X6650837Y7786370D01*
X6646418Y7773670D01*
X6643725Y7760462D01*
X6642811Y7747000D01*
X6643725Y7733538D01*
X6646418Y7720330D01*
X6650837Y7707630D01*
X6656882Y7695590D01*
X6664502Y7684465D01*
X6673545Y7674457D01*
X6683857Y7665770D01*
X6695236Y7658506D01*
X6707428Y7652867D01*
X6720331Y7648854D01*
X6733590Y7646619D01*
G37*
G36*
X7255052Y7646162D02*
G01*
X7268464Y7647533D01*
X7281570Y7650632D01*
X7294168Y7655509D01*
X7306005Y7661960D01*
X7316825Y7669936D01*
X7326528Y7679334D01*
X7334859Y7689900D01*
X7341717Y7701483D01*
X7347000Y7713929D01*
X7350556Y7726883D01*
X7352334Y7740243D01*
X7352334Y7753756D01*
X7350556Y7767116D01*
X7347000Y7780070D01*
X7341717Y7792516D01*
X7334859Y7804099D01*
X7326528Y7814665D01*
X7316825Y7824063D01*
X7306005Y7832039D01*
X7294168Y7838490D01*
X7281570Y7843367D01*
X7268464Y7846466D01*
X7255052Y7847838D01*
X7241590Y7847380D01*
X7228331Y7845145D01*
X7215428Y7841132D01*
X7203236Y7835493D01*
X7191857Y7828229D01*
X7181545Y7819542D01*
X7172502Y7809534D01*
X7164882Y7798409D01*
X7158837Y7786370D01*
X7154418Y7773670D01*
X7151725Y7760462D01*
X7150811Y7747000D01*
X7151725Y7733538D01*
X7154418Y7720330D01*
X7158837Y7707630D01*
X7164882Y7695590D01*
X7172502Y7684465D01*
X7181545Y7674457D01*
X7191857Y7665770D01*
X7203236Y7658506D01*
X7215428Y7652867D01*
X7228331Y7648854D01*
X7241590Y7646619D01*
G37*
G36*
X1495196Y8914993D02*
G01*
X1508810Y8915450D01*
X1522272Y8917686D01*
X1535277Y8921750D01*
X1547622Y8927490D01*
X1559153Y8934805D01*
X1569567Y8943644D01*
X1578711Y8953754D01*
X1586433Y8964980D01*
X1592580Y8977172D01*
X1597050Y8990025D01*
X1599742Y9003385D01*
X1600657Y9017000D01*
X1599742Y9030614D01*
X1597050Y9043974D01*
X1592580Y9056878D01*
X1586433Y9069019D01*
X1578711Y9080296D01*
X1569567Y9090406D01*
X1559153Y9099194D01*
X1547622Y9106509D01*
X1535277Y9112250D01*
X1522272Y9116314D01*
X1508810Y9118600D01*
X1495196Y9119057D01*
X1481582Y9117685D01*
X1468323Y9114485D01*
X1455623Y9109608D01*
X1443634Y9103055D01*
X1432661Y9094978D01*
X1422857Y9085478D01*
X1414424Y9074759D01*
X1407464Y9063024D01*
X1402130Y9050477D01*
X1398524Y9037320D01*
X1396746Y9023807D01*
X1396746Y9010192D01*
X1398524Y8996680D01*
X1402130Y8983522D01*
X1407464Y8970975D01*
X1414424Y8959240D01*
X1422857Y8948521D01*
X1432661Y8939022D01*
X1443634Y8930944D01*
X1455623Y8924391D01*
X1468323Y8919514D01*
X1481582Y8916365D01*
G37*
G36*
X1035050Y9061450D02*
G01*
X1082243Y9061450D01*
X1078433Y9069019D01*
X1070711Y9080296D01*
X1061567Y9090406D01*
X1051153Y9099194D01*
X1039621Y9106509D01*
X1035050Y9108643D01*
G37*
G36*
X10593171Y9944404D02*
G01*
X10742828Y9944404D01*
X10749127Y9945116D01*
X10754614Y9946995D01*
X10759490Y9950094D01*
X10763605Y9954209D01*
X10766704Y9959086D01*
X10768584Y9964572D01*
X10769295Y9970871D01*
X10769295Y10120528D01*
X10768584Y10126827D01*
X10766704Y10132314D01*
X10763605Y10137190D01*
X10759490Y10141305D01*
X10754614Y10144404D01*
X10749127Y10146284D01*
X10742828Y10146995D01*
X10593171Y10146995D01*
X10586872Y10146284D01*
X10581386Y10144404D01*
X10576509Y10141305D01*
X10572394Y10137190D01*
X10569295Y10132314D01*
X10567416Y10126827D01*
X10566704Y10120528D01*
X10566704Y9970871D01*
X10567416Y9964572D01*
X10569295Y9959086D01*
X10572394Y9954209D01*
X10576509Y9950094D01*
X10581386Y9946995D01*
X10586872Y9945116D01*
G37*
G36*
X11426596Y9944455D02*
G01*
X11440160Y9944912D01*
X11453469Y9947198D01*
X11466423Y9951161D01*
X11478666Y9956901D01*
X11490096Y9964166D01*
X11500408Y9972903D01*
X11509502Y9982911D01*
X11517122Y9994087D01*
X11523268Y10006177D01*
X11527688Y10018928D01*
X11530380Y10032187D01*
X11531295Y10045700D01*
X11530380Y10059212D01*
X11527688Y10072471D01*
X11523268Y10085222D01*
X11517122Y10097312D01*
X11509502Y10108488D01*
X11500408Y10118496D01*
X11490096Y10127234D01*
X11478666Y10134498D01*
X11466423Y10140238D01*
X11453469Y10144201D01*
X11440160Y10146487D01*
X11426596Y10146944D01*
X11413134Y10145572D01*
X11399977Y10142423D01*
X11387378Y10137597D01*
X11375491Y10131094D01*
X11364620Y10123068D01*
X11354866Y10113619D01*
X11346484Y10103002D01*
X11339576Y10091369D01*
X11334343Y10078923D01*
X11330736Y10065867D01*
X11328958Y10052456D01*
X11328958Y10038943D01*
X11330736Y10025532D01*
X11334343Y10012476D01*
X11339576Y10000030D01*
X11346484Y9988397D01*
X11354866Y9977780D01*
X11364620Y9968331D01*
X11375491Y9960305D01*
X11387378Y9953802D01*
X11399977Y9948976D01*
X11413134Y9945827D01*
G37*
G36*
X10918596Y9944455D02*
G01*
X10932160Y9944912D01*
X10945469Y9947198D01*
X10958423Y9951161D01*
X10970666Y9956901D01*
X10982096Y9964166D01*
X10992408Y9972903D01*
X11001502Y9982911D01*
X11009122Y9994087D01*
X11015268Y10006177D01*
X11019688Y10018928D01*
X11022380Y10032187D01*
X11023295Y10045700D01*
X11022380Y10059212D01*
X11019688Y10072471D01*
X11015268Y10085222D01*
X11009122Y10097312D01*
X11001502Y10108488D01*
X10992408Y10118496D01*
X10982096Y10127234D01*
X10970666Y10134498D01*
X10958423Y10140238D01*
X10945469Y10144201D01*
X10932160Y10146487D01*
X10918596Y10146944D01*
X10905134Y10145572D01*
X10891977Y10142423D01*
X10879378Y10137597D01*
X10867491Y10131094D01*
X10856620Y10123068D01*
X10846866Y10113619D01*
X10838484Y10103002D01*
X10831576Y10091369D01*
X10826343Y10078923D01*
X10822736Y10065867D01*
X10820958Y10052456D01*
X10820958Y10038943D01*
X10822736Y10025532D01*
X10826343Y10012476D01*
X10831576Y10000030D01*
X10838484Y9988397D01*
X10846866Y9977780D01*
X10856620Y9968331D01*
X10867491Y9960305D01*
X10879378Y9953802D01*
X10891977Y9948976D01*
X10905134Y9945827D01*
G37*
G36*
X11172596Y9944455D02*
G01*
X11186160Y9944912D01*
X11199469Y9947198D01*
X11212423Y9951161D01*
X11224666Y9956901D01*
X11236096Y9964166D01*
X11246408Y9972903D01*
X11255502Y9982911D01*
X11263122Y9994087D01*
X11269268Y10006177D01*
X11273688Y10018928D01*
X11276380Y10032187D01*
X11277295Y10045700D01*
X11276380Y10059212D01*
X11273688Y10072471D01*
X11269268Y10085222D01*
X11263122Y10097312D01*
X11255502Y10108488D01*
X11246408Y10118496D01*
X11236096Y10127234D01*
X11224666Y10134498D01*
X11212423Y10140238D01*
X11199469Y10144201D01*
X11186160Y10146487D01*
X11172596Y10146944D01*
X11159134Y10145572D01*
X11145723Y10142321D01*
X11141913Y10141661D01*
X11138154Y10142474D01*
X11134902Y10144658D01*
X10849864Y10429646D01*
X10843310Y10435082D01*
X10836249Y10438841D01*
X10828578Y10441178D01*
X10820095Y10441990D01*
X10165283Y10441990D01*
X10162235Y10442498D01*
X10159492Y10443819D01*
X10150805Y10449915D01*
X10141915Y10454081D01*
X10132415Y10456621D01*
X10122611Y10457484D01*
X10112806Y10456621D01*
X10103307Y10454081D01*
X10094417Y10449915D01*
X10086390Y10444276D01*
X10079431Y10437317D01*
X10073792Y10429290D01*
X10069626Y10420400D01*
X10067086Y10410901D01*
X10066223Y10401096D01*
X10067086Y10391292D01*
X10069626Y10381792D01*
X10073792Y10372902D01*
X10079431Y10364876D01*
X10086390Y10357916D01*
X10094417Y10352278D01*
X10103307Y10348112D01*
X10112806Y10345572D01*
X10122611Y10344708D01*
X10132415Y10345572D01*
X10141915Y10348112D01*
X10150805Y10352278D01*
X10159492Y10358374D01*
X10162235Y10359694D01*
X10165283Y10360202D01*
X10799470Y10360202D01*
X10803331Y10359390D01*
X10806633Y10357205D01*
X11077143Y10086695D01*
X11079175Y10083800D01*
X11080089Y10080396D01*
X11079734Y10076840D01*
X11076736Y10065867D01*
X11074958Y10052456D01*
X11074958Y10038943D01*
X11076736Y10025532D01*
X11080343Y10012476D01*
X11085576Y10000030D01*
X11092484Y9988397D01*
X11100866Y9977780D01*
X11110620Y9968331D01*
X11121491Y9960305D01*
X11133378Y9953802D01*
X11145977Y9948976D01*
X11159134Y9945827D01*
G37*
G36*
X10805515Y11020907D02*
G01*
X10820044Y11020907D01*
X10834522Y11022736D01*
X10848594Y11026394D01*
X10862157Y11031728D01*
X10874908Y11038738D01*
X10886694Y11047323D01*
X10897311Y11057280D01*
X10906556Y11068507D01*
X10914380Y11080800D01*
X10920577Y11093958D01*
X10925048Y11107775D01*
X10927283Y11119307D01*
X10928756Y11122964D01*
X10931550Y11125809D01*
X10935258Y11127333D01*
X10939221Y11127333D01*
X10942929Y11125809D01*
X10945723Y11122964D01*
X10947196Y11119307D01*
X10949432Y11107775D01*
X10953902Y11093958D01*
X10960100Y11080800D01*
X10967923Y11068507D01*
X10977168Y11057280D01*
X10987786Y11047323D01*
X10999571Y11038738D01*
X11012322Y11031728D01*
X11025886Y11026394D01*
X11039957Y11022736D01*
X11054435Y11020907D01*
X11068964Y11020907D01*
X11083442Y11022736D01*
X11097514Y11026394D01*
X11111077Y11031728D01*
X11123828Y11038738D01*
X11135614Y11047323D01*
X11146231Y11057280D01*
X11155476Y11068507D01*
X11163300Y11080800D01*
X11169497Y11093958D01*
X11173968Y11107775D01*
X11176203Y11119307D01*
X11177676Y11122964D01*
X11180470Y11125809D01*
X11184178Y11127333D01*
X11188141Y11127333D01*
X11191849Y11125809D01*
X11194643Y11122964D01*
X11196116Y11119307D01*
X11198352Y11107775D01*
X11202822Y11093958D01*
X11209020Y11080800D01*
X11216843Y11068507D01*
X11226088Y11057280D01*
X11236706Y11047323D01*
X11248491Y11038738D01*
X11261242Y11031728D01*
X11274806Y11026394D01*
X11288877Y11022736D01*
X11303355Y11020907D01*
X11317884Y11020907D01*
X11332362Y11022736D01*
X11346434Y11026394D01*
X11359997Y11031728D01*
X11372748Y11038738D01*
X11384534Y11047323D01*
X11395151Y11057280D01*
X11404396Y11068507D01*
X11412220Y11080800D01*
X11418417Y11093958D01*
X11422888Y11107775D01*
X11425631Y11122101D01*
X11426545Y11136630D01*
X11425631Y11151158D01*
X11422888Y11165484D01*
X11418417Y11179302D01*
X11412220Y11192459D01*
X11404396Y11204752D01*
X11395151Y11215979D01*
X11384534Y11225936D01*
X11372748Y11234521D01*
X11359997Y11241532D01*
X11346434Y11246866D01*
X11332362Y11250523D01*
X11317884Y11252352D01*
X11303355Y11252352D01*
X11288877Y11250523D01*
X11274806Y11246866D01*
X11261242Y11241532D01*
X11248491Y11234521D01*
X11236706Y11225936D01*
X11226088Y11215979D01*
X11216843Y11204752D01*
X11209020Y11192459D01*
X11202822Y11179302D01*
X11198352Y11165484D01*
X11196116Y11153952D01*
X11194643Y11150295D01*
X11191849Y11147450D01*
X11188141Y11145926D01*
X11184178Y11145926D01*
X11180470Y11147450D01*
X11177676Y11150295D01*
X11176203Y11153952D01*
X11173968Y11165484D01*
X11169497Y11179302D01*
X11163300Y11192459D01*
X11155476Y11204752D01*
X11146231Y11215979D01*
X11135614Y11225936D01*
X11123828Y11234521D01*
X11111077Y11241532D01*
X11097514Y11246866D01*
X11083442Y11250523D01*
X11068964Y11252352D01*
X11054435Y11252352D01*
X11039957Y11250523D01*
X11025886Y11246866D01*
X11012322Y11241532D01*
X10999571Y11234521D01*
X10987786Y11225936D01*
X10977168Y11215979D01*
X10967923Y11204752D01*
X10960100Y11192459D01*
X10953902Y11179302D01*
X10949432Y11165484D01*
X10947196Y11153952D01*
X10945723Y11150295D01*
X10942929Y11147450D01*
X10939221Y11145926D01*
X10935258Y11145926D01*
X10931550Y11147450D01*
X10928756Y11150295D01*
X10927283Y11153952D01*
X10925048Y11165484D01*
X10920577Y11179302D01*
X10914380Y11192459D01*
X10906556Y11204752D01*
X10897311Y11215979D01*
X10886694Y11225936D01*
X10874908Y11234521D01*
X10862157Y11241532D01*
X10848594Y11246866D01*
X10834522Y11250523D01*
X10820044Y11252352D01*
X10805515Y11252352D01*
X10791037Y11250523D01*
X10776966Y11246866D01*
X10763402Y11241532D01*
X10750651Y11234521D01*
X10738866Y11225936D01*
X10728248Y11215979D01*
X10719003Y11204752D01*
X10711180Y11192459D01*
X10704982Y11179302D01*
X10700512Y11165484D01*
X10697768Y11151158D01*
X10696854Y11136630D01*
X10697768Y11122101D01*
X10700512Y11107775D01*
X10704982Y11093958D01*
X10711180Y11080800D01*
X10719003Y11068507D01*
X10728248Y11057280D01*
X10738866Y11047323D01*
X10750651Y11038738D01*
X10763402Y11031728D01*
X10776966Y11026394D01*
X10791037Y11022736D01*
G37*
G36*
X987196Y11454993D02*
G01*
X1000810Y11455450D01*
X1014272Y11457686D01*
X1027277Y11461750D01*
X1039621Y11467490D01*
X1051153Y11474805D01*
X1061567Y11483594D01*
X1070711Y11493754D01*
X1078433Y11504980D01*
X1084580Y11517122D01*
X1089050Y11530025D01*
X1091742Y11543385D01*
X1092657Y11557000D01*
X1091742Y11570614D01*
X1089050Y11583974D01*
X1084580Y11596878D01*
X1078433Y11609019D01*
X1070711Y11620246D01*
X1061567Y11630406D01*
X1051153Y11639194D01*
X1039621Y11646509D01*
X1027277Y11652250D01*
X1014272Y11656314D01*
X1000810Y11658549D01*
X987196Y11659006D01*
X973582Y11657685D01*
X960323Y11654485D01*
X947623Y11649608D01*
X935634Y11643055D01*
X924661Y11634978D01*
X914857Y11625478D01*
X906424Y11614759D01*
X899464Y11603024D01*
X894130Y11590477D01*
X890524Y11577320D01*
X888746Y11563807D01*
X888746Y11550192D01*
X890524Y11536680D01*
X894130Y11523522D01*
X899464Y11510975D01*
X906424Y11499240D01*
X914857Y11488521D01*
X924661Y11479022D01*
X935634Y11470944D01*
X947623Y11464391D01*
X960323Y11459514D01*
X973582Y11456314D01*
G37*
G36*
X10337342Y11680037D02*
G01*
X10536072Y11680037D01*
X10542422Y11680799D01*
X10547858Y11682679D01*
X10552785Y11685778D01*
X10556849Y11689842D01*
X10559948Y11694769D01*
X10561828Y11700205D01*
X10562539Y11706555D01*
X10562539Y12065304D01*
X10561828Y12071654D01*
X10559948Y12077090D01*
X10556849Y12082018D01*
X10552785Y12086082D01*
X10547858Y12089180D01*
X10542422Y12091060D01*
X10536072Y12091771D01*
X10337342Y12091771D01*
X10330992Y12091060D01*
X10325557Y12089180D01*
X10320629Y12086082D01*
X10316565Y12082018D01*
X10313466Y12077090D01*
X10311536Y12071654D01*
X10310825Y12065304D01*
X10310825Y11706555D01*
X10311536Y11700205D01*
X10313466Y11694769D01*
X10316565Y11689842D01*
X10320629Y11685778D01*
X10325557Y11682679D01*
X10330992Y11680799D01*
G37*
G36*
X11587327Y11680037D02*
G01*
X11786057Y11680037D01*
X11792407Y11680799D01*
X11797842Y11682679D01*
X11802770Y11685778D01*
X11806834Y11689842D01*
X11809933Y11694769D01*
X11811863Y11700205D01*
X11812574Y11706555D01*
X11812574Y12065304D01*
X11811863Y12071654D01*
X11809933Y12077090D01*
X11806834Y12082018D01*
X11802770Y12086082D01*
X11797842Y12089180D01*
X11792407Y12091060D01*
X11786057Y12091771D01*
X11587327Y12091771D01*
X11580977Y12091060D01*
X11575542Y12089180D01*
X11570614Y12086082D01*
X11566550Y12082018D01*
X11563451Y12077090D01*
X11561572Y12071654D01*
X11560860Y12065304D01*
X11560860Y11706555D01*
X11561572Y11700205D01*
X11563451Y11694769D01*
X11566550Y11689842D01*
X11570614Y11685778D01*
X11575542Y11682679D01*
X11580977Y11680799D01*
G37*
G36*
X10805515Y12471247D02*
G01*
X10820044Y12471247D01*
X10834522Y12473076D01*
X10848594Y12476734D01*
X10862157Y12482068D01*
X10874908Y12489078D01*
X10886694Y12497663D01*
X10897311Y12507620D01*
X10906556Y12518847D01*
X10914380Y12531140D01*
X10920577Y12544298D01*
X10925048Y12558115D01*
X10927791Y12572441D01*
X10928705Y12586970D01*
X10927791Y12601498D01*
X10925048Y12615824D01*
X10920577Y12629642D01*
X10914380Y12642799D01*
X10906556Y12655092D01*
X10897311Y12666319D01*
X10886694Y12676276D01*
X10874908Y12684861D01*
X10862157Y12691872D01*
X10848594Y12697206D01*
X10834522Y12700863D01*
X10820044Y12702692D01*
X10805515Y12702692D01*
X10791037Y12700863D01*
X10776966Y12697206D01*
X10763402Y12691872D01*
X10750651Y12684861D01*
X10738866Y12676276D01*
X10728248Y12666319D01*
X10719003Y12655092D01*
X10711180Y12642799D01*
X10704982Y12629642D01*
X10700512Y12615824D01*
X10697768Y12601498D01*
X10696854Y12586970D01*
X10697768Y12572441D01*
X10700512Y12558115D01*
X10704982Y12544298D01*
X10711180Y12531140D01*
X10719003Y12518847D01*
X10728248Y12507620D01*
X10738866Y12497663D01*
X10750651Y12489078D01*
X10763402Y12482068D01*
X10776966Y12476734D01*
X10791037Y12473076D01*
G37*
G36*
X11303355Y12471247D02*
G01*
X11317884Y12471247D01*
X11332362Y12473076D01*
X11346434Y12476734D01*
X11359997Y12482068D01*
X11372748Y12489078D01*
X11384534Y12497663D01*
X11395151Y12507620D01*
X11404396Y12518847D01*
X11412220Y12531140D01*
X11418417Y12544298D01*
X11422888Y12558115D01*
X11425631Y12572441D01*
X11426545Y12586970D01*
X11425631Y12601498D01*
X11422888Y12615824D01*
X11418417Y12629642D01*
X11412220Y12642799D01*
X11404396Y12655092D01*
X11395151Y12666319D01*
X11384534Y12676276D01*
X11372748Y12684861D01*
X11359997Y12691872D01*
X11346434Y12697206D01*
X11332362Y12700863D01*
X11317884Y12702692D01*
X11303355Y12702692D01*
X11288877Y12700863D01*
X11274806Y12697206D01*
X11261242Y12691872D01*
X11248491Y12684861D01*
X11236706Y12676276D01*
X11226088Y12666319D01*
X11216843Y12655092D01*
X11209020Y12642799D01*
X11202822Y12629642D01*
X11198352Y12615824D01*
X11195608Y12601498D01*
X11194694Y12586970D01*
X11195608Y12572441D01*
X11198352Y12558115D01*
X11202822Y12544298D01*
X11209020Y12531140D01*
X11216843Y12518847D01*
X11226088Y12507620D01*
X11236706Y12497663D01*
X11248491Y12489078D01*
X11261242Y12482068D01*
X11274806Y12476734D01*
X11288877Y12473076D01*
G37*
G36*
X7024878Y12472111D02*
G01*
X7173722Y12472111D01*
X7180072Y12472822D01*
X7185507Y12474702D01*
X7190435Y12477800D01*
X7194499Y12481864D01*
X7197598Y12486792D01*
X7199477Y12492228D01*
X7200188Y12498578D01*
X7200188Y12647422D01*
X7199477Y12653772D01*
X7197598Y12659207D01*
X7194499Y12664135D01*
X7190435Y12668199D01*
X7185507Y12671298D01*
X7180072Y12673177D01*
X7173722Y12673888D01*
X7024878Y12673888D01*
X7018528Y12673177D01*
X7013092Y12671298D01*
X7008164Y12668199D01*
X7004100Y12664135D01*
X7001002Y12659207D01*
X6999122Y12653772D01*
X6998411Y12647422D01*
X6998411Y12498578D01*
X6999122Y12492228D01*
X7001002Y12486792D01*
X7004100Y12481864D01*
X7008164Y12477800D01*
X7013092Y12474702D01*
X7018528Y12472822D01*
G37*
G36*
X6381140Y12482271D02*
G01*
X6391605Y12487960D01*
X6402425Y12495936D01*
X6412128Y12505334D01*
X6420459Y12515900D01*
X6427317Y12527483D01*
X6428028Y12529159D01*
X6381140Y12529159D01*
G37*
G36*
X6381140Y12616840D02*
G01*
X6428028Y12616840D01*
X6427317Y12618516D01*
X6420459Y12630099D01*
X6412128Y12640665D01*
X6402425Y12650063D01*
X6391605Y12658039D01*
X6381140Y12663728D01*
G37*
G36*
X1016000Y12826492D02*
G01*
X1031392Y12827457D01*
X1046530Y12830200D01*
X1061212Y12834772D01*
X1075232Y12841122D01*
X1088440Y12849098D01*
X1100531Y12858597D01*
X1111402Y12869468D01*
X1120902Y12881559D01*
X1128877Y12894767D01*
X1135227Y12908788D01*
X1139799Y12923469D01*
X1142542Y12938607D01*
X1143508Y12954000D01*
X1142542Y12969392D01*
X1139799Y12984530D01*
X1135227Y12999212D01*
X1128877Y13013232D01*
X1120902Y13026440D01*
X1111402Y13038531D01*
X1100531Y13049402D01*
X1088440Y13058902D01*
X1075232Y13066877D01*
X1061212Y13073227D01*
X1046530Y13077799D01*
X1031392Y13080542D01*
X1016000Y13081508D01*
X1000607Y13080542D01*
X985469Y13077799D01*
X970787Y13073227D01*
X956767Y13066877D01*
X943559Y13058902D01*
X931468Y13049402D01*
X920597Y13038531D01*
X911098Y13026440D01*
X903122Y13013232D01*
X896772Y12999212D01*
X892200Y12984530D01*
X889457Y12969392D01*
X888492Y12954000D01*
X889457Y12938607D01*
X892200Y12923469D01*
X896772Y12908788D01*
X903122Y12894767D01*
X911098Y12881559D01*
X920597Y12869468D01*
X931468Y12858597D01*
X943559Y12849098D01*
X956767Y12841122D01*
X970787Y12834772D01*
X985469Y12830200D01*
X1000607Y12827457D01*
G37*
G36*
X12446000Y12828117D02*
G01*
X12461189Y12829032D01*
X12476124Y12831775D01*
X12490653Y12836296D01*
X12504521Y12842544D01*
X12517526Y12850418D01*
X12529464Y12859766D01*
X12540234Y12870535D01*
X12549581Y12882473D01*
X12557455Y12895478D01*
X12563703Y12909346D01*
X12568224Y12923875D01*
X12570968Y12938810D01*
X12571882Y12954000D01*
X12570968Y12969189D01*
X12568224Y12984124D01*
X12563703Y12998653D01*
X12557455Y13012521D01*
X12549581Y13025526D01*
X12540234Y13037464D01*
X12529464Y13048234D01*
X12517526Y13057581D01*
X12504521Y13065455D01*
X12490653Y13071703D01*
X12476124Y13076224D01*
X12461189Y13078968D01*
X12446000Y13079882D01*
X12430810Y13078968D01*
X12415875Y13076224D01*
X12401346Y13071703D01*
X12387478Y13065455D01*
X12374473Y13057581D01*
X12362535Y13048234D01*
X12351766Y13037464D01*
X12342418Y13025526D01*
X12334544Y13012521D01*
X12328296Y12998653D01*
X12323775Y12984124D01*
X12321032Y12969189D01*
X12320117Y12954000D01*
X12321032Y12938810D01*
X12323775Y12923875D01*
X12328296Y12909346D01*
X12334544Y12895478D01*
X12342418Y12882473D01*
X12351766Y12870535D01*
X12362535Y12859766D01*
X12374473Y12850418D01*
X12387478Y12842544D01*
X12401346Y12836296D01*
X12415875Y12831775D01*
X12430810Y12829032D01*
G37*
G36*
X9906000Y12828117D02*
G01*
X9921189Y12829032D01*
X9936124Y12831775D01*
X9950653Y12836296D01*
X9964521Y12842544D01*
X9977526Y12850418D01*
X9989464Y12859766D01*
X10000234Y12870535D01*
X10009581Y12882473D01*
X10017455Y12895478D01*
X10023703Y12909346D01*
X10028224Y12923875D01*
X10030968Y12938810D01*
X10031882Y12954000D01*
X10030968Y12969189D01*
X10028224Y12984124D01*
X10023703Y12998653D01*
X10017455Y13012521D01*
X10009581Y13025526D01*
X10000234Y13037464D01*
X9989464Y13048234D01*
X9977526Y13057581D01*
X9964521Y13065455D01*
X9950653Y13071703D01*
X9936124Y13076224D01*
X9921189Y13078968D01*
X9906000Y13079882D01*
X9890810Y13078968D01*
X9875875Y13076224D01*
X9861346Y13071703D01*
X9847478Y13065455D01*
X9834473Y13057581D01*
X9822535Y13048234D01*
X9811766Y13037464D01*
X9802418Y13025526D01*
X9794544Y13012521D01*
X9788296Y12998653D01*
X9783775Y12984124D01*
X9781032Y12969189D01*
X9780117Y12954000D01*
X9781032Y12938810D01*
X9783775Y12923875D01*
X9788296Y12909346D01*
X9794544Y12895478D01*
X9802418Y12882473D01*
X9811766Y12870535D01*
X9822535Y12859766D01*
X9834473Y12850418D01*
X9847478Y12842544D01*
X9861346Y12836296D01*
X9875875Y12831775D01*
X9890810Y12829032D01*
G37*

%LPD*%
G36*
X5994654Y12204700D02*
G01*
X5990742Y12205462D01*
X5987440Y12207697D01*
X5985256Y12210948D01*
X5984494Y12214860D01*
X5984494Y12506350D01*
X5985357Y12510516D01*
X5987897Y12513970D01*
X5991656Y12516053D01*
X5995873Y12516408D01*
X5999937Y12515037D01*
X6003036Y12512090D01*
X6004102Y12510465D01*
X6013145Y12500457D01*
X6023457Y12491770D01*
X6034836Y12484506D01*
X6039459Y12482372D01*
X6039459Y12529159D01*
X5994654Y12529159D01*
X5990742Y12529921D01*
X5987440Y12532106D01*
X5985256Y12535408D01*
X5984494Y12539319D01*
X5984494Y12606680D01*
X5985256Y12610592D01*
X5987440Y12613894D01*
X5990742Y12616078D01*
X5994654Y12616840D01*
X6039459Y12616840D01*
X6039459Y12663627D01*
X6034836Y12661493D01*
X6023457Y12654229D01*
X6013145Y12645542D01*
X6004102Y12635534D01*
X5998819Y12627762D01*
X5995822Y12624917D01*
X5991961Y12623495D01*
X5987796Y12623698D01*
X5984138Y12625578D01*
X5981496Y12628727D01*
X5977534Y12636093D01*
X5972149Y12642646D01*
X5845048Y12769748D01*
X5842863Y12773050D01*
X5842050Y12776962D01*
X5842863Y12780822D01*
X5845048Y12784124D01*
X5848350Y12786309D01*
X5852210Y12787122D01*
X5962954Y12787122D01*
X5966815Y12786309D01*
X5970117Y12784124D01*
X6124194Y12630099D01*
X6126378Y12626797D01*
X6127140Y12622885D01*
X6127140Y12616840D01*
X6133185Y12616840D01*
X6137097Y12616078D01*
X6140399Y12613894D01*
X6153607Y12600686D01*
X6155791Y12597384D01*
X6156553Y12593472D01*
X6156553Y12539319D01*
X6155791Y12535408D01*
X6153607Y12532106D01*
X6150305Y12529921D01*
X6146393Y12529159D01*
X6127140Y12529159D01*
X6127140Y12482271D01*
X6137605Y12487960D01*
X6140399Y12490043D01*
X6144463Y12491821D01*
X6148882Y12491669D01*
X6152845Y12489688D01*
X6155588Y12486182D01*
X6156553Y12481864D01*
X6156553Y12214860D01*
X6155791Y12210948D01*
X6153607Y12207697D01*
X6150305Y12205462D01*
X6146393Y12204700D01*
G37*

%LPD*%
D10*
X1244600Y9017000D02*
G01*
X1128166Y8900566D01*
X955039Y8900566D01*
X874979Y8980627D01*
X874979Y10814380D01*
X1371600Y11311001D01*
X1371600Y11580698D01*
X2664333Y12873431D01*
X6290868Y12873431D01*
X6591300Y12573000D01*
X3262198Y7852410D02*
G01*
X2133574Y8981033D01*
X2133574Y10929162D01*
X1505737Y11557000D01*
X1498600Y11557000D01*
X6489700Y7747000D02*
G01*
X6383350Y7640650D01*
X3722852Y7640650D01*
X2387574Y8975928D01*
X2387574Y10922025D01*
X1752600Y11557000D01*
X2006574Y11557000D02*
G01*
X2648229Y10915345D01*
X2648229Y8969349D01*
X2714066Y8903512D01*
X3580028Y8903512D01*
X3657574Y8981059D01*
X3657574Y9055100D01*
X3734765Y9132290D01*
X4598517Y9132290D01*
X4673574Y9057233D01*
X4673574Y8979966D01*
X5289524Y8364016D01*
X5618683Y8364016D01*
X6235700Y7747000D01*
X11176000Y10045700D02*
G01*
X10820603Y10401096D01*
X10122611Y10401096D01*
X7505700Y7747000D02*
G01*
X7340320Y7581620D01*
X3187979Y7581620D01*
X1752600Y9017000D01*
X5321300Y12467767D02*
G01*
X4673574Y11820042D01*
X4673574Y10922000D01*
X2768574Y9017000D01*
X5321300Y12573000D02*
G01*
X5321300Y12467767D01*
X5067300Y12573000D02*
G01*
X5172709Y12678410D01*
X5417947Y12678410D01*
X5426709Y12669646D01*
X5426709Y10913135D01*
X3530574Y9017000D01*
X4813300Y7747000D02*
G01*
X4813300Y7988274D01*
X3784574Y9017000D01*
X5067300Y7747000D02*
G01*
X5067300Y7988274D01*
X4038574Y9017000D01*
X5321300Y7747000D02*
G01*
X5321300Y7988274D01*
X4292574Y9017000D01*
X5575300Y7747000D02*
G01*
X5575300Y7988274D01*
X4546574Y9017000D01*
X4813300Y12573000D02*
G01*
X4964125Y12723825D01*
X5439257Y12723825D01*
X5673928Y12489154D01*
X5673928Y9890353D01*
X4800574Y9017000D01*
X4559300Y12573000D02*
G01*
X4763592Y12777292D01*
X5779668Y12777292D01*
X5943574Y12613386D01*
X5943574Y9906000D01*
X5054574Y9017000D01*
X4305300Y12573000D02*
G01*
X4560315Y12828015D01*
X5984087Y12828015D01*
X6197472Y12614630D01*
X6197472Y9905898D01*
X5308574Y9017000D01*
X6845300Y12573000D02*
G01*
X6845300Y9791725D01*
X6070574Y9017000D01*
D11*
G01*
X10812779Y11136629D03*
G01*
X11061700Y11136629D03*
G01*
X11310620Y11136629D03*
G01*
X11310620Y12586970D03*
G01*
X10812779Y12586970D03*
D12*
G01*
X10436707Y11885929D03*
G01*
X11686692Y11885929D03*
D13*
G01*
X6324574Y9017000D03*
G01*
X6070574Y9017000D03*
G01*
X5816574Y9017000D03*
G01*
X5562574Y9017000D03*
G01*
X5308574Y9017000D03*
G01*
X5054574Y9017000D03*
G01*
X4800574Y9017000D03*
G01*
X4546574Y9017000D03*
G01*
X4292574Y9017000D03*
G01*
X4038574Y9017000D03*
G01*
X3784574Y9017000D03*
G01*
X3530574Y9017000D03*
G01*
X3276574Y9017000D03*
G01*
X3022574Y9017000D03*
G01*
X2768574Y9017000D03*
G01*
X2514574Y9017000D03*
G01*
X2260574Y9017000D03*
G01*
X2006574Y9017000D03*
G01*
X1752600Y9017000D03*
G01*
X6324345Y11557000D03*
G01*
X6070574Y11557000D03*
G01*
X5816574Y11557000D03*
G01*
X5562574Y11557000D03*
G01*
X5308574Y11557000D03*
G01*
X5054574Y11557000D03*
G01*
X4800574Y11557000D03*
G01*
X4546574Y11557000D03*
G01*
X4292574Y11557000D03*
G01*
X4038574Y11557000D03*
G01*
X3784574Y11557000D03*
G01*
X3530574Y11557000D03*
G01*
X3276574Y11557000D03*
G01*
X3022574Y11557000D03*
G01*
X2768574Y11557000D03*
G01*
X2514574Y11557000D03*
G01*
X2260574Y11557000D03*
G01*
X2006574Y11557000D03*
G01*
X1752600Y11557000D03*
D14*
G01*
X1498600Y11557000D03*
G01*
X1244600Y11557000D03*
G01*
X990600Y11557000D03*
G01*
X1498600Y9017000D03*
G01*
X1244600Y9017000D03*
G01*
X990600Y9017000D03*
D15*
G01*
X10668000Y10045700D03*
D16*
G01*
X10922000Y10045700D03*
G01*
X11176000Y10045700D03*
G01*
X11430000Y10045700D03*
D17*
G01*
X8013700Y7747000D03*
D18*
G01*
X7759700Y7747000D03*
G01*
X7505700Y7747000D03*
G01*
X7251700Y7747000D03*
G01*
X6997700Y7747000D03*
G01*
X6743700Y7747000D03*
G01*
X6489700Y7747000D03*
G01*
X6235700Y7747000D03*
D17*
G01*
X5829300Y7747000D03*
D18*
G01*
X5575300Y7747000D03*
G01*
X5321300Y7747000D03*
G01*
X5067300Y7747000D03*
G01*
X4813300Y7747000D03*
G01*
X4559300Y7747000D03*
G01*
X4305300Y7747000D03*
G01*
X4051300Y7747000D03*
G01*
X4051300Y12573000D03*
G01*
X4305300Y12573000D03*
G01*
X4559300Y12573000D03*
G01*
X4813300Y12573000D03*
G01*
X5067300Y12573000D03*
D17*
G01*
X5321300Y12573000D03*
D18*
G01*
X5829300Y12573000D03*
G01*
X6083300Y12573000D03*
G01*
X6337300Y12573000D03*
G01*
X6591300Y12573000D03*
G01*
X6845300Y12573000D03*
D17*
G01*
X7099300Y12573000D03*
D19*
G01*
X10122611Y10401096D03*
G01*
X3262198Y7852410D03*
M02*
