G04 Layer: BottomLayer*
G04 EasyEDA v6.5.44, 2024-08-15 16:42:12*
G04 206e0cd2ca1848caba6ec3024fd8e249,080bb0d1436b4706b040d70de8f1a738,10*
G04 Gerber Generator version 0.2*
G04 Scale: 100 percent, Rotated: No, Reflected: No *
G04 Dimensions in millimeters *
G04 leading zeros omitted , absolute positions ,4 integer and 5 decimal *
%FSLAX45Y45*%
%MOMM*%

%ADD10C,0.3000*%
%ADD11C,1.8009*%
%ADD12R,1.9990X3.5992*%
%ADD13C,1.6000*%
%ADD14C,1.5240*%
%ADD15R,1.5080X1.5080*%
%ADD16C,1.5080*%
%ADD17R,1.5000X1.5000*%
%ADD18C,1.5000*%
%ADD19C,0.6100*%
%ADD20C,0.0119*%

%LPD*%
G36*
X798068Y7137908D02*
G01*
X794156Y7138670D01*
X790905Y7140905D01*
X788670Y7144156D01*
X787908Y7148068D01*
X787908Y13171932D01*
X788670Y13175843D01*
X790905Y13179094D01*
X794156Y13181330D01*
X798068Y13182092D01*
X12663932Y13182092D01*
X12667843Y13181330D01*
X12671094Y13179094D01*
X12673330Y13175843D01*
X12674092Y13171932D01*
X12674092Y7148068D01*
X12673330Y7144156D01*
X12671094Y7140905D01*
X12667843Y7138670D01*
X12663932Y7137908D01*
G37*

%LPC*%
G36*
X1016000Y7238492D02*
G01*
X1031392Y7239457D01*
X1046530Y7242200D01*
X1061212Y7246772D01*
X1075232Y7253122D01*
X1088440Y7261098D01*
X1100531Y7270597D01*
X1111402Y7281468D01*
X1120902Y7293559D01*
X1128877Y7306767D01*
X1135227Y7320788D01*
X1139799Y7335469D01*
X1142542Y7350607D01*
X1143508Y7366000D01*
X1142542Y7381392D01*
X1139799Y7396530D01*
X1135227Y7411212D01*
X1128877Y7425232D01*
X1120902Y7438440D01*
X1111402Y7450531D01*
X1100531Y7461402D01*
X1088440Y7470902D01*
X1075232Y7478877D01*
X1061212Y7485227D01*
X1046530Y7489799D01*
X1031392Y7492542D01*
X1016000Y7493508D01*
X1000607Y7492542D01*
X985469Y7489799D01*
X970787Y7485227D01*
X956767Y7478877D01*
X943559Y7470902D01*
X931468Y7461402D01*
X920597Y7450531D01*
X911098Y7438440D01*
X903122Y7425232D01*
X896772Y7411212D01*
X892200Y7396530D01*
X889457Y7381392D01*
X888492Y7366000D01*
X889457Y7350607D01*
X892200Y7335469D01*
X896772Y7320788D01*
X903122Y7306767D01*
X911098Y7293559D01*
X920597Y7281468D01*
X931468Y7270597D01*
X943559Y7261098D01*
X956767Y7253122D01*
X970787Y7246772D01*
X985469Y7242200D01*
X1000607Y7239457D01*
G37*
G36*
X12090400Y7494117D02*
G01*
X12105589Y7495031D01*
X12120524Y7497775D01*
X12135053Y7502296D01*
X12148921Y7508544D01*
X12161926Y7516418D01*
X12173864Y7525766D01*
X12184634Y7536535D01*
X12193981Y7548473D01*
X12201855Y7561478D01*
X12208103Y7575346D01*
X12212624Y7589875D01*
X12215368Y7604810D01*
X12216282Y7620000D01*
X12215368Y7635189D01*
X12212624Y7650124D01*
X12208103Y7664653D01*
X12201855Y7678521D01*
X12193981Y7691526D01*
X12184634Y7703464D01*
X12173864Y7714234D01*
X12161926Y7723581D01*
X12148921Y7731455D01*
X12135053Y7737703D01*
X12120524Y7742224D01*
X12105589Y7744968D01*
X12090400Y7745882D01*
X12075210Y7744968D01*
X12060275Y7742224D01*
X12045746Y7737703D01*
X12031878Y7731455D01*
X12018873Y7723581D01*
X12006935Y7714234D01*
X11996166Y7703464D01*
X11986818Y7691526D01*
X11978944Y7678521D01*
X11972696Y7664653D01*
X11968175Y7650124D01*
X11965432Y7635189D01*
X11964517Y7620000D01*
X11965432Y7604810D01*
X11968175Y7589875D01*
X11972696Y7575346D01*
X11978944Y7561478D01*
X11986818Y7548473D01*
X11996166Y7536535D01*
X12006935Y7525766D01*
X12018873Y7516418D01*
X12031878Y7508544D01*
X12045746Y7502296D01*
X12060275Y7497775D01*
X12075210Y7495031D01*
G37*
G36*
X10007600Y7494117D02*
G01*
X10022789Y7495031D01*
X10037724Y7497775D01*
X10052253Y7502296D01*
X10066121Y7508544D01*
X10079126Y7516418D01*
X10091064Y7525766D01*
X10101834Y7536535D01*
X10111181Y7548473D01*
X10119055Y7561478D01*
X10125303Y7575346D01*
X10129824Y7589875D01*
X10132568Y7604810D01*
X10133482Y7620000D01*
X10132568Y7635189D01*
X10129824Y7650124D01*
X10125303Y7664653D01*
X10119055Y7678521D01*
X10111181Y7691526D01*
X10101834Y7703464D01*
X10091064Y7714234D01*
X10079126Y7723581D01*
X10066121Y7731455D01*
X10052253Y7737703D01*
X10037724Y7742224D01*
X10022789Y7744968D01*
X10007600Y7745882D01*
X9992410Y7744968D01*
X9977475Y7742224D01*
X9962946Y7737703D01*
X9949078Y7731455D01*
X9936073Y7723581D01*
X9924135Y7714234D01*
X9913366Y7703464D01*
X9904018Y7691526D01*
X9896144Y7678521D01*
X9889896Y7664653D01*
X9885375Y7650124D01*
X9882632Y7635189D01*
X9881717Y7620000D01*
X9882632Y7604810D01*
X9885375Y7589875D01*
X9889896Y7575346D01*
X9896144Y7561478D01*
X9904018Y7548473D01*
X9913366Y7536535D01*
X9924135Y7525766D01*
X9936073Y7516418D01*
X9949078Y7508544D01*
X9962946Y7502296D01*
X9977475Y7497775D01*
X9992410Y7495031D01*
G37*
G36*
X3424682Y7545831D02*
G01*
X7344918Y7545831D01*
X7353401Y7546644D01*
X7361072Y7548981D01*
X7368133Y7552740D01*
X7374686Y7558176D01*
X7465059Y7648549D01*
X7468108Y7650581D01*
X7471664Y7651496D01*
X7475270Y7651038D01*
X7482331Y7648854D01*
X7495590Y7646619D01*
X7509052Y7646162D01*
X7522464Y7647533D01*
X7535570Y7650632D01*
X7548168Y7655509D01*
X7560005Y7661960D01*
X7570825Y7669936D01*
X7580528Y7679334D01*
X7588859Y7689900D01*
X7595717Y7701483D01*
X7601000Y7713929D01*
X7604556Y7726883D01*
X7606334Y7740243D01*
X7606334Y7753756D01*
X7604556Y7767116D01*
X7601000Y7780070D01*
X7595717Y7792516D01*
X7588859Y7804099D01*
X7580528Y7814665D01*
X7570825Y7824063D01*
X7560005Y7832039D01*
X7548168Y7838490D01*
X7535570Y7843367D01*
X7522464Y7846466D01*
X7509052Y7847838D01*
X7495590Y7847380D01*
X7482331Y7845145D01*
X7469428Y7841132D01*
X7457236Y7835493D01*
X7445857Y7828229D01*
X7435545Y7819542D01*
X7426502Y7809534D01*
X7418882Y7798409D01*
X7412837Y7786370D01*
X7408418Y7773670D01*
X7405725Y7760462D01*
X7404811Y7747000D01*
X7405725Y7733538D01*
X7408418Y7720330D01*
X7409586Y7716875D01*
X7410145Y7713116D01*
X7409332Y7709458D01*
X7407198Y7706359D01*
X7331456Y7630617D01*
X7328153Y7628381D01*
X7324293Y7627620D01*
X7271512Y7627620D01*
X7267397Y7628483D01*
X7263993Y7630922D01*
X7261859Y7634528D01*
X7261352Y7638694D01*
X7262622Y7642707D01*
X7265365Y7645908D01*
X7269124Y7647686D01*
X7281570Y7650632D01*
X7294168Y7655509D01*
X7306005Y7661960D01*
X7316825Y7669936D01*
X7326528Y7679334D01*
X7334859Y7689900D01*
X7341717Y7701483D01*
X7347000Y7713929D01*
X7350556Y7726883D01*
X7352334Y7740243D01*
X7352334Y7753756D01*
X7350556Y7767116D01*
X7347000Y7780070D01*
X7341717Y7792516D01*
X7334859Y7804099D01*
X7326528Y7814665D01*
X7316825Y7824063D01*
X7306005Y7832039D01*
X7294168Y7838490D01*
X7281570Y7843367D01*
X7268464Y7846466D01*
X7255052Y7847838D01*
X7241590Y7847380D01*
X7228331Y7845145D01*
X7215428Y7841132D01*
X7203236Y7835493D01*
X7191857Y7828229D01*
X7181545Y7819542D01*
X7172502Y7809534D01*
X7164882Y7798409D01*
X7158837Y7786370D01*
X7154418Y7773670D01*
X7151725Y7760462D01*
X7150811Y7747000D01*
X7151725Y7733538D01*
X7154418Y7720330D01*
X7158837Y7707630D01*
X7164882Y7695590D01*
X7172502Y7684465D01*
X7181545Y7674457D01*
X7191857Y7665770D01*
X7203236Y7658506D01*
X7215428Y7652867D01*
X7228331Y7648854D01*
X7234529Y7647787D01*
X7238542Y7646212D01*
X7241489Y7643114D01*
X7242911Y7639100D01*
X7242556Y7634833D01*
X7240473Y7631074D01*
X7237018Y7628534D01*
X7232853Y7627620D01*
X7017512Y7627620D01*
X7013397Y7628483D01*
X7009993Y7630922D01*
X7007859Y7634528D01*
X7007352Y7638694D01*
X7008622Y7642707D01*
X7011365Y7645908D01*
X7015124Y7647686D01*
X7027570Y7650632D01*
X7040168Y7655509D01*
X7052005Y7661960D01*
X7062825Y7669936D01*
X7072528Y7679334D01*
X7080859Y7689900D01*
X7087717Y7701483D01*
X7093000Y7713929D01*
X7096556Y7726883D01*
X7098334Y7740243D01*
X7098334Y7753756D01*
X7096556Y7767116D01*
X7093000Y7780070D01*
X7087717Y7792516D01*
X7080859Y7804099D01*
X7072528Y7814665D01*
X7062825Y7824063D01*
X7052005Y7832039D01*
X7040168Y7838490D01*
X7027570Y7843367D01*
X7014464Y7846466D01*
X7001052Y7847838D01*
X6987590Y7847380D01*
X6974331Y7845145D01*
X6961428Y7841132D01*
X6949236Y7835493D01*
X6937857Y7828229D01*
X6927545Y7819542D01*
X6918502Y7809534D01*
X6910882Y7798409D01*
X6904837Y7786370D01*
X6900418Y7773670D01*
X6897725Y7760462D01*
X6896811Y7747000D01*
X6897725Y7733538D01*
X6900418Y7720330D01*
X6904837Y7707630D01*
X6910882Y7695590D01*
X6918502Y7684465D01*
X6927545Y7674457D01*
X6937857Y7665770D01*
X6949236Y7658506D01*
X6961428Y7652867D01*
X6974331Y7648854D01*
X6980529Y7647787D01*
X6984542Y7646212D01*
X6987489Y7643114D01*
X6988911Y7639100D01*
X6988556Y7634833D01*
X6986473Y7631074D01*
X6983018Y7628534D01*
X6978853Y7627620D01*
X6763512Y7627620D01*
X6759397Y7628483D01*
X6755993Y7630922D01*
X6753859Y7634528D01*
X6753352Y7638694D01*
X6754622Y7642707D01*
X6757365Y7645908D01*
X6761124Y7647686D01*
X6773570Y7650632D01*
X6786168Y7655509D01*
X6798005Y7661960D01*
X6808825Y7669936D01*
X6818528Y7679334D01*
X6826859Y7689900D01*
X6833717Y7701483D01*
X6839000Y7713929D01*
X6842556Y7726883D01*
X6844334Y7740243D01*
X6844334Y7753756D01*
X6842556Y7767116D01*
X6839000Y7780070D01*
X6833717Y7792516D01*
X6826859Y7804099D01*
X6818528Y7814665D01*
X6808825Y7824063D01*
X6798005Y7832039D01*
X6786168Y7838490D01*
X6773570Y7843367D01*
X6760464Y7846466D01*
X6747052Y7847838D01*
X6733590Y7847380D01*
X6720331Y7845145D01*
X6707428Y7841132D01*
X6695236Y7835493D01*
X6683857Y7828229D01*
X6673545Y7819542D01*
X6664502Y7809534D01*
X6656882Y7798409D01*
X6650837Y7786370D01*
X6646418Y7773670D01*
X6643725Y7760462D01*
X6642811Y7747000D01*
X6643725Y7733538D01*
X6646418Y7720330D01*
X6650837Y7707630D01*
X6656882Y7695590D01*
X6664502Y7684465D01*
X6673545Y7674457D01*
X6683857Y7665770D01*
X6695236Y7658506D01*
X6707428Y7652867D01*
X6720331Y7648854D01*
X6726529Y7647787D01*
X6730542Y7646212D01*
X6733489Y7643114D01*
X6734911Y7639100D01*
X6734556Y7634833D01*
X6732473Y7631074D01*
X6729018Y7628534D01*
X6724853Y7627620D01*
X6509512Y7627620D01*
X6505397Y7628483D01*
X6501993Y7630922D01*
X6499860Y7634528D01*
X6499352Y7638694D01*
X6500622Y7642707D01*
X6503365Y7645908D01*
X6507124Y7647686D01*
X6519570Y7650632D01*
X6532168Y7655509D01*
X6544005Y7661960D01*
X6554825Y7669936D01*
X6564528Y7679334D01*
X6572859Y7689900D01*
X6579717Y7701483D01*
X6585000Y7713929D01*
X6588556Y7726883D01*
X6590334Y7740243D01*
X6590334Y7753756D01*
X6588556Y7767116D01*
X6585000Y7780070D01*
X6579717Y7792516D01*
X6572859Y7804099D01*
X6564528Y7814665D01*
X6554825Y7824063D01*
X6544005Y7832039D01*
X6532168Y7838490D01*
X6519570Y7843367D01*
X6506464Y7846466D01*
X6493052Y7847838D01*
X6479590Y7847380D01*
X6466332Y7845145D01*
X6453428Y7841132D01*
X6441236Y7835493D01*
X6429857Y7828229D01*
X6419545Y7819542D01*
X6410502Y7809534D01*
X6402882Y7798409D01*
X6396837Y7786370D01*
X6392418Y7773670D01*
X6389725Y7760462D01*
X6388811Y7747000D01*
X6389725Y7733538D01*
X6392418Y7720330D01*
X6393586Y7716875D01*
X6394145Y7713116D01*
X6393332Y7709458D01*
X6391198Y7706359D01*
X6367780Y7682941D01*
X6364478Y7680706D01*
X6360617Y7679944D01*
X6330797Y7679944D01*
X6326632Y7680858D01*
X6323228Y7683347D01*
X6321145Y7687056D01*
X6320739Y7691272D01*
X6322060Y7695285D01*
X6325717Y7701483D01*
X6331000Y7713929D01*
X6334556Y7726883D01*
X6336334Y7740243D01*
X6336334Y7753756D01*
X6334556Y7767116D01*
X6331000Y7780070D01*
X6325717Y7792516D01*
X6318859Y7804099D01*
X6310528Y7814665D01*
X6300825Y7824063D01*
X6290005Y7832039D01*
X6278168Y7838490D01*
X6265570Y7843367D01*
X6252464Y7846466D01*
X6246622Y7847075D01*
X6243066Y7848092D01*
X6240068Y7850378D01*
X6238138Y7853527D01*
X6237478Y7857185D01*
X6237478Y8155940D01*
X6238240Y8159851D01*
X6240424Y8163102D01*
X6243726Y8165338D01*
X6247638Y8166100D01*
X8888984Y8166100D01*
X8890711Y8166811D01*
X9143288Y8419388D01*
X9144000Y8421116D01*
X9144000Y10502087D01*
X9144762Y10505998D01*
X9146997Y10509300D01*
X9150248Y10511485D01*
X9154160Y10512247D01*
X9158071Y10511485D01*
X9161322Y10509300D01*
X9376562Y10294061D01*
X9383166Y10288676D01*
X9390227Y10284866D01*
X9397898Y10282580D01*
X9406331Y10281716D01*
X10877905Y10281716D01*
X10881817Y10280954D01*
X10885119Y10278770D01*
X11077143Y10086695D01*
X11079175Y10083800D01*
X11080089Y10080396D01*
X11079734Y10076840D01*
X11076736Y10065867D01*
X11074958Y10052456D01*
X11074958Y10038943D01*
X11076736Y10025532D01*
X11080343Y10012476D01*
X11085576Y10000030D01*
X11092484Y9988397D01*
X11100866Y9977780D01*
X11110620Y9968331D01*
X11121491Y9960305D01*
X11133378Y9953802D01*
X11145977Y9948976D01*
X11159134Y9945827D01*
X11172596Y9944455D01*
X11186160Y9944912D01*
X11199469Y9947198D01*
X11212423Y9951161D01*
X11224666Y9956901D01*
X11236096Y9964166D01*
X11246408Y9972903D01*
X11255502Y9982911D01*
X11263122Y9994087D01*
X11269268Y10006177D01*
X11273688Y10018928D01*
X11276380Y10032187D01*
X11277295Y10045700D01*
X11276380Y10059212D01*
X11273688Y10072471D01*
X11269268Y10085222D01*
X11263122Y10097312D01*
X11255502Y10108488D01*
X11246408Y10118496D01*
X11236096Y10127234D01*
X11224666Y10134498D01*
X11212423Y10140238D01*
X11199469Y10144201D01*
X11186160Y10146487D01*
X11172596Y10146944D01*
X11159134Y10145572D01*
X11145723Y10142321D01*
X11141913Y10141661D01*
X11138154Y10142474D01*
X11134902Y10144658D01*
X10928350Y10351211D01*
X10921746Y10356596D01*
X10914684Y10360406D01*
X10907014Y10362692D01*
X10898581Y10363555D01*
X9427006Y10363555D01*
X9423095Y10364317D01*
X9419793Y10366502D01*
X9146997Y10639348D01*
X9144762Y10642650D01*
X9144000Y10646562D01*
X9144000Y11975084D01*
X9143288Y11976811D01*
X8890711Y12229388D01*
X8888984Y12230100D01*
X6896353Y12230100D01*
X6892493Y12230862D01*
X6889191Y12233097D01*
X6887006Y12236348D01*
X6886194Y12240260D01*
X6886194Y12474600D01*
X6886854Y12478156D01*
X6888683Y12481255D01*
X6891477Y12483541D01*
X6899605Y12487960D01*
X6910425Y12495936D01*
X6920128Y12505334D01*
X6928459Y12515900D01*
X6935317Y12527483D01*
X6940600Y12539929D01*
X6944156Y12552883D01*
X6945934Y12566243D01*
X6945934Y12579756D01*
X6944156Y12593116D01*
X6940600Y12606070D01*
X6935317Y12618516D01*
X6928459Y12630099D01*
X6920128Y12640665D01*
X6910425Y12650063D01*
X6899605Y12658039D01*
X6887768Y12664490D01*
X6875170Y12669367D01*
X6862064Y12672466D01*
X6848652Y12673838D01*
X6835190Y12673380D01*
X6821931Y12671145D01*
X6809028Y12667132D01*
X6796836Y12661493D01*
X6785457Y12654229D01*
X6775145Y12645542D01*
X6766102Y12635534D01*
X6758482Y12624409D01*
X6752437Y12612370D01*
X6748018Y12599670D01*
X6745325Y12586462D01*
X6744411Y12573000D01*
X6745325Y12559538D01*
X6748018Y12546330D01*
X6752437Y12533630D01*
X6758482Y12521590D01*
X6766102Y12510465D01*
X6775145Y12500457D01*
X6785457Y12491770D01*
X6796836Y12484506D01*
X6798513Y12483744D01*
X6801612Y12481509D01*
X6803694Y12478308D01*
X6804406Y12474549D01*
X6804406Y12240260D01*
X6803644Y12236348D01*
X6801408Y12233097D01*
X6798106Y12230862D01*
X6794246Y12230100D01*
X6493764Y12230100D01*
X6489903Y12230862D01*
X6486601Y12233097D01*
X6484416Y12236348D01*
X6483604Y12240260D01*
X6483604Y12520269D01*
X6484620Y12524638D01*
X6487414Y12528194D01*
X6491427Y12530175D01*
X6495897Y12530226D01*
X6499961Y12528296D01*
X6502857Y12524841D01*
X6504482Y12521590D01*
X6512102Y12510465D01*
X6521145Y12500457D01*
X6531457Y12491770D01*
X6542836Y12484506D01*
X6555028Y12478867D01*
X6567931Y12474854D01*
X6581190Y12472619D01*
X6594652Y12472162D01*
X6608064Y12473533D01*
X6621170Y12476632D01*
X6633768Y12481509D01*
X6645605Y12487960D01*
X6656425Y12495936D01*
X6666128Y12505334D01*
X6674459Y12515900D01*
X6681317Y12527483D01*
X6686600Y12539929D01*
X6690156Y12552883D01*
X6691934Y12566243D01*
X6691934Y12579756D01*
X6690156Y12593116D01*
X6686600Y12606070D01*
X6681317Y12618516D01*
X6674459Y12630099D01*
X6666128Y12640665D01*
X6656425Y12650063D01*
X6645605Y12658039D01*
X6633768Y12664490D01*
X6621170Y12669367D01*
X6608064Y12672466D01*
X6594652Y12673838D01*
X6581190Y12673380D01*
X6567931Y12671145D01*
X6560870Y12668961D01*
X6557264Y12668504D01*
X6553708Y12669418D01*
X6550659Y12671450D01*
X6250838Y12971322D01*
X6244234Y12976707D01*
X6237173Y12980517D01*
X6229502Y12982803D01*
X6221069Y12983667D01*
X2965450Y12983667D01*
X2956966Y12982803D01*
X2949295Y12980517D01*
X2942234Y12976707D01*
X2935681Y12971322D01*
X1584350Y11619992D01*
X1583029Y11618417D01*
X1580184Y11616029D01*
X1576628Y11614810D01*
X1572920Y11614962D01*
X1569466Y11616486D01*
X1556867Y11630406D01*
X1546453Y11639194D01*
X1534972Y11646509D01*
X1522577Y11652250D01*
X1509572Y11656314D01*
X1496110Y11658549D01*
X1482496Y11659006D01*
X1468932Y11657685D01*
X1455674Y11654485D01*
X1442923Y11649608D01*
X1430985Y11643055D01*
X1420012Y11634978D01*
X1410208Y11625478D01*
X1401724Y11614759D01*
X1394815Y11603024D01*
X1389481Y11590477D01*
X1385874Y11577320D01*
X1384046Y11563807D01*
X1384046Y11550192D01*
X1385874Y11536680D01*
X1389481Y11523522D01*
X1394815Y11510975D01*
X1401724Y11499240D01*
X1410208Y11488521D01*
X1420012Y11479022D01*
X1430985Y11470944D01*
X1442923Y11464391D01*
X1455674Y11459514D01*
X1468932Y11456314D01*
X1482496Y11454993D01*
X1496110Y11455450D01*
X1509572Y11457686D01*
X1522577Y11461750D01*
X1534972Y11467490D01*
X1546453Y11474805D01*
X1555292Y11482273D01*
X1558645Y11484152D01*
X1562404Y11484660D01*
X1566113Y11483746D01*
X1569262Y11481511D01*
X1571294Y11478260D01*
X1572006Y11474500D01*
X1572006Y11332159D01*
X1571244Y11328247D01*
X1569059Y11324945D01*
X1082446Y10838383D01*
X1077061Y10831779D01*
X1073251Y10824718D01*
X1070965Y10817047D01*
X1070102Y10808614D01*
X1070102Y8978696D01*
X1070965Y8970213D01*
X1073251Y8962542D01*
X1077061Y8955481D01*
X1082446Y8948928D01*
X1159408Y8871966D01*
X1165961Y8866581D01*
X1173022Y8862771D01*
X1180693Y8860485D01*
X1189177Y8859621D01*
X1368958Y8859621D01*
X1377442Y8860485D01*
X1385112Y8862771D01*
X1392174Y8866581D01*
X1398727Y8871966D01*
X1444244Y8917432D01*
X1447444Y8919616D01*
X1451254Y8920429D01*
X1468932Y8916365D01*
X1482496Y8914993D01*
X1496110Y8915450D01*
X1509572Y8917686D01*
X1522577Y8921750D01*
X1534972Y8927490D01*
X1546453Y8934805D01*
X1556867Y8943644D01*
X1566011Y8953754D01*
X1573733Y8964980D01*
X1579880Y8977172D01*
X1584350Y8990025D01*
X1587093Y9003385D01*
X1588008Y9017000D01*
X1587093Y9030614D01*
X1584350Y9043974D01*
X1579880Y9056878D01*
X1573733Y9069019D01*
X1566011Y9080296D01*
X1556867Y9090406D01*
X1546453Y9099194D01*
X1534972Y9106509D01*
X1522577Y9112250D01*
X1509572Y9116314D01*
X1496110Y9118600D01*
X1482496Y9119057D01*
X1468932Y9117685D01*
X1455674Y9114485D01*
X1442923Y9109608D01*
X1430985Y9103055D01*
X1420012Y9094978D01*
X1410208Y9085478D01*
X1401724Y9074759D01*
X1394815Y9063024D01*
X1389481Y9050477D01*
X1385874Y9037320D01*
X1384046Y9023807D01*
X1384046Y9010192D01*
X1385874Y8996680D01*
X1389024Y8985199D01*
X1389329Y8981643D01*
X1388414Y8978239D01*
X1386382Y8975344D01*
X1355496Y8944406D01*
X1352194Y8942222D01*
X1348333Y8941460D01*
X1322882Y8941460D01*
X1318615Y8942374D01*
X1315110Y8945067D01*
X1313078Y8948928D01*
X1312875Y8953296D01*
X1314500Y8957360D01*
X1319733Y8964980D01*
X1323594Y8972550D01*
X1276350Y8972550D01*
X1276350Y8951620D01*
X1275588Y8947708D01*
X1273403Y8944406D01*
X1270101Y8942222D01*
X1266190Y8941460D01*
X1209802Y8941460D01*
X1205941Y8942222D01*
X1202639Y8944406D01*
X1190447Y8956649D01*
X1188212Y8959900D01*
X1187450Y8963812D01*
X1187450Y8972550D01*
X1178712Y8972550D01*
X1174851Y8973312D01*
X1171549Y8975547D01*
X1154887Y8992158D01*
X1152702Y8995460D01*
X1151940Y8999321D01*
X1151940Y9051290D01*
X1152702Y9055201D01*
X1154887Y9058503D01*
X1158189Y9060688D01*
X1162100Y9061450D01*
X1187450Y9061450D01*
X1187450Y9108795D01*
X1176985Y9103055D01*
X1168095Y9096502D01*
X1164031Y9094724D01*
X1159611Y9094825D01*
X1155649Y9096857D01*
X1152906Y9100362D01*
X1151940Y9104680D01*
X1151940Y10787938D01*
X1152702Y10791850D01*
X1154887Y10795152D01*
X1641500Y11281714D01*
X1646885Y11288318D01*
X1650695Y11295380D01*
X1652981Y11303050D01*
X1653844Y11311483D01*
X1653844Y11474602D01*
X1654606Y11478463D01*
X1656791Y11481714D01*
X1660042Y11483949D01*
X1663903Y11484762D01*
X1667764Y11484051D01*
X1671066Y11481866D01*
X1674012Y11479022D01*
X1684985Y11470944D01*
X1696923Y11464391D01*
X1709674Y11459514D01*
X1722932Y11456314D01*
X1736496Y11454993D01*
X1750110Y11455450D01*
X1763572Y11457686D01*
X1771294Y11460073D01*
X1774952Y11460530D01*
X1778507Y11459667D01*
X1781505Y11457584D01*
X2584958Y10654131D01*
X2587193Y10650829D01*
X2587955Y10646918D01*
X2587955Y9104528D01*
X2587193Y9100718D01*
X2585110Y9097518D01*
X2581960Y9095282D01*
X2578201Y9094368D01*
X2574391Y9094927D01*
X2571089Y9096857D01*
X2566365Y9101023D01*
X2554833Y9108694D01*
X2542438Y9114840D01*
X2529332Y9119260D01*
X2515717Y9122003D01*
X2501900Y9122867D01*
X2488082Y9122003D01*
X2474518Y9119260D01*
X2461412Y9114840D01*
X2448966Y9108694D01*
X2437434Y9101023D01*
X2427020Y9091879D01*
X2417927Y9081465D01*
X2410206Y9069933D01*
X2404110Y9057538D01*
X2399639Y9044432D01*
X2396947Y9030817D01*
X2396032Y9017000D01*
X2396947Y9003182D01*
X2399639Y8989618D01*
X2404110Y8976461D01*
X2410206Y8964066D01*
X2417927Y8952534D01*
X2427020Y8942120D01*
X2437434Y8932976D01*
X2448966Y8925306D01*
X2461412Y8919159D01*
X2474518Y8914739D01*
X2488082Y8912047D01*
X2501900Y8911132D01*
X2515717Y8912047D01*
X2529332Y8914739D01*
X2542438Y8919159D01*
X2554833Y8925306D01*
X2566365Y8932976D01*
X2576779Y8942120D01*
X2583027Y8949232D01*
X2586532Y8951823D01*
X2590800Y8952687D01*
X2595067Y8951671D01*
X2598521Y8948978D01*
X2600299Y8946794D01*
X3659174Y7887919D01*
X3665728Y7882534D01*
X3672789Y7878724D01*
X3680460Y7876438D01*
X3688943Y7875574D01*
X4368647Y7875574D01*
X4372559Y7874812D01*
X4375861Y7872628D01*
X4460798Y7787640D01*
X4462932Y7784541D01*
X4463745Y7780883D01*
X4463186Y7777124D01*
X4462018Y7773670D01*
X4459325Y7760462D01*
X4458411Y7747000D01*
X4459325Y7733538D01*
X4462018Y7720330D01*
X4466437Y7707630D01*
X4472482Y7695590D01*
X4480102Y7684465D01*
X4489145Y7674457D01*
X4499457Y7665770D01*
X4510836Y7658506D01*
X4523028Y7652867D01*
X4535932Y7648854D01*
X4542129Y7647787D01*
X4546142Y7646212D01*
X4549089Y7643114D01*
X4550511Y7639100D01*
X4550156Y7634833D01*
X4548073Y7631074D01*
X4544618Y7628534D01*
X4540453Y7627620D01*
X4325112Y7627620D01*
X4320997Y7628483D01*
X4317593Y7630922D01*
X4315460Y7634528D01*
X4314952Y7638694D01*
X4316222Y7642707D01*
X4318965Y7645908D01*
X4322724Y7647686D01*
X4335170Y7650632D01*
X4347768Y7655509D01*
X4359605Y7661960D01*
X4370425Y7669936D01*
X4380128Y7679334D01*
X4388459Y7689900D01*
X4395317Y7701483D01*
X4400600Y7713929D01*
X4404156Y7726883D01*
X4405934Y7740243D01*
X4405934Y7753756D01*
X4404156Y7767116D01*
X4400600Y7780070D01*
X4395317Y7792516D01*
X4388459Y7804099D01*
X4380128Y7814665D01*
X4370425Y7824063D01*
X4359605Y7832039D01*
X4347768Y7838490D01*
X4335170Y7843367D01*
X4322064Y7846466D01*
X4308652Y7847838D01*
X4295190Y7847380D01*
X4281932Y7845145D01*
X4269028Y7841132D01*
X4256836Y7835493D01*
X4245457Y7828229D01*
X4235145Y7819542D01*
X4226102Y7809534D01*
X4218482Y7798409D01*
X4212437Y7786370D01*
X4208018Y7773670D01*
X4205325Y7760462D01*
X4204411Y7747000D01*
X4205325Y7733538D01*
X4208018Y7720330D01*
X4212437Y7707630D01*
X4218482Y7695590D01*
X4226102Y7684465D01*
X4235145Y7674457D01*
X4245457Y7665770D01*
X4256836Y7658506D01*
X4269028Y7652867D01*
X4281932Y7648854D01*
X4288129Y7647787D01*
X4292142Y7646212D01*
X4295089Y7643114D01*
X4296511Y7639100D01*
X4296156Y7634833D01*
X4294073Y7631074D01*
X4290618Y7628534D01*
X4286453Y7627620D01*
X4071112Y7627620D01*
X4066997Y7628483D01*
X4063593Y7630922D01*
X4061460Y7634528D01*
X4060951Y7638694D01*
X4062222Y7642707D01*
X4064965Y7645908D01*
X4068724Y7647686D01*
X4081170Y7650632D01*
X4093768Y7655509D01*
X4105605Y7661960D01*
X4116425Y7669936D01*
X4126128Y7679334D01*
X4134459Y7689900D01*
X4141317Y7701483D01*
X4146600Y7713929D01*
X4150156Y7726883D01*
X4151934Y7740243D01*
X4151934Y7753756D01*
X4150156Y7767116D01*
X4146600Y7780070D01*
X4141317Y7792516D01*
X4134459Y7804099D01*
X4126128Y7814665D01*
X4116425Y7824063D01*
X4105605Y7832039D01*
X4093768Y7838490D01*
X4081170Y7843367D01*
X4068064Y7846466D01*
X4054652Y7847838D01*
X4041190Y7847380D01*
X4027932Y7845145D01*
X4015028Y7841132D01*
X4002836Y7835493D01*
X3991457Y7828229D01*
X3981145Y7819542D01*
X3972102Y7809534D01*
X3964482Y7798409D01*
X3958437Y7786370D01*
X3954018Y7773670D01*
X3951325Y7760462D01*
X3950411Y7747000D01*
X3951325Y7733538D01*
X3954018Y7720330D01*
X3958437Y7707630D01*
X3964482Y7695590D01*
X3972102Y7684465D01*
X3981145Y7674457D01*
X3991457Y7665770D01*
X4002836Y7658506D01*
X4015028Y7652867D01*
X4027932Y7648854D01*
X4034129Y7647787D01*
X4038142Y7646212D01*
X4041089Y7643114D01*
X4042511Y7639100D01*
X4042156Y7634833D01*
X4040073Y7631074D01*
X4036618Y7628534D01*
X4032453Y7627620D01*
X3445357Y7627620D01*
X3441446Y7628381D01*
X3438144Y7630617D01*
X2096363Y8972448D01*
X2094230Y8975496D01*
X2093366Y8979154D01*
X2093925Y8982862D01*
X2096211Y8989618D01*
X2098903Y9003182D01*
X2099818Y9017000D01*
X2098903Y9030817D01*
X2096211Y9044432D01*
X2091740Y9057538D01*
X2085644Y9069933D01*
X2077923Y9081465D01*
X2068779Y9091879D01*
X2058365Y9101023D01*
X2046884Y9108694D01*
X2034438Y9114840D01*
X2021332Y9119260D01*
X2007717Y9122003D01*
X1993900Y9122867D01*
X1980082Y9122003D01*
X1966518Y9119260D01*
X1953412Y9114840D01*
X1940966Y9108694D01*
X1929485Y9101023D01*
X1919071Y9091879D01*
X1909927Y9081465D01*
X1902206Y9069933D01*
X1896110Y9057538D01*
X1891639Y9044432D01*
X1888947Y9030817D01*
X1888032Y9017000D01*
X1888947Y9003182D01*
X1891639Y8989618D01*
X1896110Y8976461D01*
X1902206Y8964066D01*
X1909927Y8952534D01*
X1919071Y8942120D01*
X1929485Y8932976D01*
X1940966Y8925306D01*
X1953412Y8919159D01*
X1966518Y8914739D01*
X1980082Y8912047D01*
X1993900Y8911132D01*
X2007717Y8912047D01*
X2021332Y8914739D01*
X2028037Y8917025D01*
X2031746Y8917533D01*
X2035403Y8916670D01*
X2038502Y8914587D01*
X3394913Y7558176D01*
X3401517Y7552740D01*
X3408578Y7548981D01*
X3416249Y7546644D01*
G37*
G36*
X7939278Y7646111D02*
G01*
X8088122Y7646111D01*
X8094472Y7646822D01*
X8099907Y7648702D01*
X8104835Y7651800D01*
X8108899Y7655864D01*
X8111998Y7660792D01*
X8113877Y7666228D01*
X8114588Y7672578D01*
X8114588Y7821422D01*
X8113877Y7827772D01*
X8111998Y7833207D01*
X8108899Y7838135D01*
X8104835Y7842199D01*
X8099907Y7845298D01*
X8094472Y7847177D01*
X8088122Y7847888D01*
X7939278Y7847888D01*
X7932928Y7847177D01*
X7927492Y7845298D01*
X7922564Y7842199D01*
X7918500Y7838135D01*
X7915402Y7833207D01*
X7913522Y7827772D01*
X7912811Y7821422D01*
X7912811Y7672578D01*
X7913522Y7666228D01*
X7915402Y7660792D01*
X7918500Y7655864D01*
X7922564Y7651800D01*
X7927492Y7648702D01*
X7932928Y7646822D01*
G37*
G36*
X7763052Y7646162D02*
G01*
X7776464Y7647533D01*
X7789570Y7650632D01*
X7802168Y7655509D01*
X7814005Y7661960D01*
X7824825Y7669936D01*
X7834528Y7679334D01*
X7842859Y7689900D01*
X7849717Y7701483D01*
X7855000Y7713929D01*
X7858556Y7726883D01*
X7860334Y7740243D01*
X7860334Y7753756D01*
X7858556Y7767116D01*
X7855000Y7780070D01*
X7849717Y7792516D01*
X7842859Y7804099D01*
X7834528Y7814665D01*
X7824825Y7824063D01*
X7814005Y7832039D01*
X7802168Y7838490D01*
X7789570Y7843367D01*
X7776464Y7846466D01*
X7763052Y7847838D01*
X7749590Y7847380D01*
X7736331Y7845145D01*
X7723428Y7841132D01*
X7711236Y7835493D01*
X7699857Y7828229D01*
X7689545Y7819542D01*
X7680502Y7809534D01*
X7672882Y7798409D01*
X7666837Y7786370D01*
X7662418Y7773670D01*
X7659725Y7760462D01*
X7658811Y7747000D01*
X7659725Y7733538D01*
X7662418Y7720330D01*
X7666837Y7707630D01*
X7672882Y7695590D01*
X7680502Y7684465D01*
X7689545Y7674457D01*
X7699857Y7665770D01*
X7711236Y7658506D01*
X7723428Y7652867D01*
X7736331Y7648854D01*
X7749590Y7646619D01*
G37*
G36*
X2247900Y8911132D02*
G01*
X2261717Y8912047D01*
X2275332Y8914739D01*
X2288438Y8919159D01*
X2300833Y8925306D01*
X2312365Y8932976D01*
X2322779Y8942120D01*
X2331923Y8952534D01*
X2339594Y8964066D01*
X2345740Y8976461D01*
X2350211Y8989618D01*
X2352903Y9003182D01*
X2353818Y9017000D01*
X2352903Y9030817D01*
X2350211Y9044432D01*
X2345740Y9057538D01*
X2339594Y9069933D01*
X2331923Y9081465D01*
X2322779Y9091879D01*
X2312365Y9101023D01*
X2300833Y9108694D01*
X2288438Y9114840D01*
X2275332Y9119260D01*
X2261717Y9122003D01*
X2247900Y9122867D01*
X2234082Y9122003D01*
X2220518Y9119260D01*
X2207412Y9114840D01*
X2194966Y9108694D01*
X2183434Y9101023D01*
X2173020Y9091879D01*
X2163927Y9081465D01*
X2156206Y9069933D01*
X2150110Y9057538D01*
X2145639Y9044432D01*
X2142947Y9030817D01*
X2142032Y9017000D01*
X2142947Y9003182D01*
X2145639Y8989618D01*
X2150110Y8976461D01*
X2156206Y8964066D01*
X2163927Y8952534D01*
X2173020Y8942120D01*
X2183434Y8932976D01*
X2194966Y8925306D01*
X2207412Y8919159D01*
X2220518Y8914739D01*
X2234082Y8912047D01*
G37*
G36*
X1736496Y8914993D02*
G01*
X1750110Y8915450D01*
X1763572Y8917686D01*
X1776577Y8921750D01*
X1788972Y8927490D01*
X1800453Y8934805D01*
X1810867Y8943644D01*
X1820011Y8953754D01*
X1827733Y8964980D01*
X1833880Y8977172D01*
X1838350Y8990025D01*
X1841093Y9003385D01*
X1842007Y9017000D01*
X1841093Y9030614D01*
X1838350Y9043974D01*
X1833880Y9056878D01*
X1827733Y9069019D01*
X1820011Y9080296D01*
X1810867Y9090406D01*
X1800453Y9099194D01*
X1788972Y9106509D01*
X1776577Y9112250D01*
X1763572Y9116314D01*
X1750110Y9118600D01*
X1736496Y9119057D01*
X1722932Y9117685D01*
X1709674Y9114485D01*
X1696923Y9109608D01*
X1684985Y9103055D01*
X1674012Y9094978D01*
X1664207Y9085478D01*
X1655724Y9074759D01*
X1648815Y9063024D01*
X1643481Y9050477D01*
X1639874Y9037320D01*
X1638046Y9023807D01*
X1638046Y9010192D01*
X1639874Y8996680D01*
X1643481Y8983522D01*
X1648815Y8970975D01*
X1655724Y8959240D01*
X1664207Y8948521D01*
X1674012Y8939022D01*
X1684985Y8930944D01*
X1696923Y8924391D01*
X1709674Y8919514D01*
X1722932Y8916365D01*
G37*
G36*
X1276350Y9061450D02*
G01*
X1323594Y9061450D01*
X1319733Y9069019D01*
X1312011Y9080296D01*
X1302867Y9090406D01*
X1292453Y9099194D01*
X1280972Y9106509D01*
X1276350Y9108643D01*
G37*
G36*
X10593171Y9944404D02*
G01*
X10742828Y9944404D01*
X10749127Y9945116D01*
X10754614Y9946995D01*
X10759490Y9950094D01*
X10763605Y9954209D01*
X10766704Y9959086D01*
X10768584Y9964572D01*
X10769295Y9970871D01*
X10769295Y10120528D01*
X10768584Y10126827D01*
X10766704Y10132314D01*
X10763605Y10137190D01*
X10759490Y10141305D01*
X10754614Y10144404D01*
X10749127Y10146284D01*
X10742828Y10146995D01*
X10593171Y10146995D01*
X10586872Y10146284D01*
X10581386Y10144404D01*
X10576509Y10141305D01*
X10572394Y10137190D01*
X10569295Y10132314D01*
X10567416Y10126827D01*
X10566704Y10120528D01*
X10566704Y9970871D01*
X10567416Y9964572D01*
X10569295Y9959086D01*
X10572394Y9954209D01*
X10576509Y9950094D01*
X10581386Y9946995D01*
X10586872Y9945116D01*
G37*
G36*
X10918596Y9944455D02*
G01*
X10932160Y9944912D01*
X10945469Y9947198D01*
X10958423Y9951161D01*
X10970666Y9956901D01*
X10982096Y9964166D01*
X10992408Y9972903D01*
X11001502Y9982911D01*
X11009122Y9994087D01*
X11015268Y10006177D01*
X11019688Y10018928D01*
X11022380Y10032187D01*
X11023295Y10045700D01*
X11022380Y10059212D01*
X11019688Y10072471D01*
X11015268Y10085222D01*
X11009122Y10097312D01*
X11001502Y10108488D01*
X10992408Y10118496D01*
X10982096Y10127234D01*
X10970666Y10134498D01*
X10958423Y10140238D01*
X10945469Y10144201D01*
X10932160Y10146487D01*
X10918596Y10146944D01*
X10905134Y10145572D01*
X10891977Y10142423D01*
X10879378Y10137597D01*
X10867491Y10131094D01*
X10856620Y10123068D01*
X10846866Y10113619D01*
X10838484Y10103002D01*
X10831576Y10091369D01*
X10826343Y10078923D01*
X10822736Y10065867D01*
X10820958Y10052456D01*
X10820958Y10038943D01*
X10822736Y10025532D01*
X10826343Y10012476D01*
X10831576Y10000030D01*
X10838484Y9988397D01*
X10846866Y9977780D01*
X10856620Y9968331D01*
X10867491Y9960305D01*
X10879378Y9953802D01*
X10891977Y9948976D01*
X10905134Y9945827D01*
G37*
G36*
X11426596Y9944455D02*
G01*
X11440160Y9944912D01*
X11453469Y9947198D01*
X11466423Y9951161D01*
X11478666Y9956901D01*
X11490096Y9964166D01*
X11500408Y9972903D01*
X11509502Y9982911D01*
X11517122Y9994087D01*
X11523268Y10006177D01*
X11527688Y10018928D01*
X11530380Y10032187D01*
X11531295Y10045700D01*
X11530380Y10059212D01*
X11527688Y10072471D01*
X11523268Y10085222D01*
X11517122Y10097312D01*
X11509502Y10108488D01*
X11500408Y10118496D01*
X11490096Y10127234D01*
X11478666Y10134498D01*
X11466423Y10140238D01*
X11453469Y10144201D01*
X11440160Y10146487D01*
X11426596Y10146944D01*
X11413134Y10145572D01*
X11399723Y10142321D01*
X11395913Y10141661D01*
X11392154Y10142474D01*
X11388902Y10144658D01*
X10299192Y11234318D01*
X10292638Y11239754D01*
X10285577Y11243513D01*
X10277906Y11245850D01*
X10269423Y11246662D01*
X9463684Y11246662D01*
X9460636Y11247170D01*
X9457842Y11248491D01*
X9449155Y11254587D01*
X9440265Y11258753D01*
X9430766Y11261293D01*
X9421012Y11262156D01*
X9411208Y11261293D01*
X9401708Y11258753D01*
X9392818Y11254587D01*
X9384741Y11248948D01*
X9377781Y11241989D01*
X9372193Y11233962D01*
X9368028Y11225072D01*
X9365488Y11215573D01*
X9364624Y11205768D01*
X9365488Y11195964D01*
X9368028Y11186464D01*
X9372193Y11177574D01*
X9377781Y11169548D01*
X9384741Y11162588D01*
X9392818Y11156950D01*
X9401708Y11152784D01*
X9411208Y11150244D01*
X9421012Y11149380D01*
X9430766Y11150244D01*
X9440265Y11152784D01*
X9449155Y11156950D01*
X9457842Y11163046D01*
X9460636Y11164366D01*
X9463684Y11164874D01*
X10248798Y11164874D01*
X10252659Y11164062D01*
X10255961Y11161877D01*
X11331143Y10086695D01*
X11333175Y10083800D01*
X11334089Y10080396D01*
X11333734Y10076840D01*
X11330736Y10065867D01*
X11328958Y10052456D01*
X11328958Y10038943D01*
X11330736Y10025532D01*
X11334343Y10012476D01*
X11339576Y10000030D01*
X11346484Y9988397D01*
X11354866Y9977780D01*
X11364620Y9968331D01*
X11375491Y9960305D01*
X11387378Y9953802D01*
X11399977Y9948976D01*
X11413134Y9945827D01*
G37*
G36*
X10805515Y11020907D02*
G01*
X10820044Y11020907D01*
X10834522Y11022736D01*
X10848594Y11026394D01*
X10862157Y11031728D01*
X10874908Y11038738D01*
X10886694Y11047323D01*
X10897311Y11057280D01*
X10906556Y11068507D01*
X10914380Y11080800D01*
X10920577Y11093958D01*
X10925048Y11107775D01*
X10927283Y11119307D01*
X10928756Y11122964D01*
X10931550Y11125809D01*
X10935258Y11127333D01*
X10939221Y11127333D01*
X10942929Y11125809D01*
X10945723Y11122964D01*
X10947196Y11119307D01*
X10949432Y11107775D01*
X10953902Y11093958D01*
X10960100Y11080800D01*
X10967923Y11068507D01*
X10977168Y11057280D01*
X10987786Y11047323D01*
X10999571Y11038738D01*
X11012322Y11031728D01*
X11025886Y11026394D01*
X11039957Y11022736D01*
X11054435Y11020907D01*
X11068964Y11020907D01*
X11083442Y11022736D01*
X11097514Y11026394D01*
X11111077Y11031728D01*
X11123828Y11038738D01*
X11135614Y11047323D01*
X11146231Y11057280D01*
X11155476Y11068507D01*
X11163300Y11080800D01*
X11169497Y11093958D01*
X11173968Y11107775D01*
X11176203Y11119307D01*
X11177676Y11122964D01*
X11180470Y11125809D01*
X11184178Y11127333D01*
X11188141Y11127333D01*
X11191849Y11125809D01*
X11194643Y11122964D01*
X11196116Y11119307D01*
X11198352Y11107775D01*
X11202822Y11093958D01*
X11209020Y11080800D01*
X11216843Y11068507D01*
X11226088Y11057280D01*
X11236706Y11047323D01*
X11248491Y11038738D01*
X11261242Y11031728D01*
X11274806Y11026394D01*
X11288877Y11022736D01*
X11303355Y11020907D01*
X11317884Y11020907D01*
X11332362Y11022736D01*
X11346434Y11026394D01*
X11359997Y11031728D01*
X11372748Y11038738D01*
X11384534Y11047323D01*
X11395151Y11057280D01*
X11404396Y11068507D01*
X11412220Y11080800D01*
X11418417Y11093958D01*
X11422888Y11107775D01*
X11425631Y11122101D01*
X11426545Y11136630D01*
X11425631Y11151158D01*
X11422888Y11165484D01*
X11418417Y11179302D01*
X11412220Y11192459D01*
X11404396Y11204752D01*
X11395151Y11215979D01*
X11384534Y11225936D01*
X11372748Y11234521D01*
X11359997Y11241532D01*
X11346434Y11246866D01*
X11332362Y11250523D01*
X11317884Y11252352D01*
X11303355Y11252352D01*
X11288877Y11250523D01*
X11274806Y11246866D01*
X11261242Y11241532D01*
X11248491Y11234521D01*
X11236706Y11225936D01*
X11226088Y11215979D01*
X11216843Y11204752D01*
X11209020Y11192459D01*
X11202822Y11179302D01*
X11198352Y11165484D01*
X11196116Y11153952D01*
X11194643Y11150295D01*
X11191849Y11147450D01*
X11188141Y11145926D01*
X11184178Y11145926D01*
X11180470Y11147450D01*
X11177676Y11150295D01*
X11176203Y11153952D01*
X11173968Y11165484D01*
X11169497Y11179302D01*
X11163300Y11192459D01*
X11155476Y11204752D01*
X11146231Y11215979D01*
X11135614Y11225936D01*
X11123828Y11234521D01*
X11111077Y11241532D01*
X11097514Y11246866D01*
X11083442Y11250523D01*
X11068964Y11252352D01*
X11054435Y11252352D01*
X11039957Y11250523D01*
X11025886Y11246866D01*
X11012322Y11241532D01*
X10999571Y11234521D01*
X10987786Y11225936D01*
X10977168Y11215979D01*
X10967923Y11204752D01*
X10960100Y11192459D01*
X10953902Y11179302D01*
X10949432Y11165484D01*
X10947196Y11153952D01*
X10945723Y11150295D01*
X10942929Y11147450D01*
X10939221Y11145926D01*
X10935258Y11145926D01*
X10931550Y11147450D01*
X10928756Y11150295D01*
X10927283Y11153952D01*
X10925048Y11165484D01*
X10920577Y11179302D01*
X10914380Y11192459D01*
X10906556Y11204752D01*
X10897311Y11215979D01*
X10886694Y11225936D01*
X10874908Y11234521D01*
X10862157Y11241532D01*
X10848594Y11246866D01*
X10834522Y11250523D01*
X10820044Y11252352D01*
X10805515Y11252352D01*
X10791037Y11250523D01*
X10776966Y11246866D01*
X10763402Y11241532D01*
X10750651Y11234521D01*
X10738866Y11225936D01*
X10728248Y11215979D01*
X10719003Y11204752D01*
X10711180Y11192459D01*
X10704982Y11179302D01*
X10700512Y11165484D01*
X10697768Y11151158D01*
X10696854Y11136630D01*
X10697768Y11122101D01*
X10700512Y11107775D01*
X10704982Y11093958D01*
X10711180Y11080800D01*
X10719003Y11068507D01*
X10728248Y11057280D01*
X10738866Y11047323D01*
X10750651Y11038738D01*
X10763402Y11031728D01*
X10776966Y11026394D01*
X10791037Y11022736D01*
G37*
G36*
X1228496Y11454993D02*
G01*
X1242110Y11455450D01*
X1255572Y11457686D01*
X1268577Y11461750D01*
X1280972Y11467490D01*
X1292453Y11474805D01*
X1302867Y11483594D01*
X1312011Y11493754D01*
X1319733Y11504980D01*
X1325880Y11517122D01*
X1330350Y11530025D01*
X1333093Y11543385D01*
X1334008Y11557000D01*
X1333093Y11570614D01*
X1330350Y11583974D01*
X1325880Y11596878D01*
X1319733Y11609019D01*
X1312011Y11620246D01*
X1302867Y11630406D01*
X1292453Y11639194D01*
X1280972Y11646509D01*
X1268577Y11652250D01*
X1255572Y11656314D01*
X1242110Y11658549D01*
X1228496Y11659006D01*
X1214932Y11657685D01*
X1201674Y11654485D01*
X1188923Y11649608D01*
X1176985Y11643055D01*
X1166012Y11634978D01*
X1156208Y11625478D01*
X1147724Y11614759D01*
X1140815Y11603024D01*
X1135481Y11590477D01*
X1131874Y11577320D01*
X1130046Y11563807D01*
X1130046Y11550192D01*
X1131874Y11536680D01*
X1135481Y11523522D01*
X1140815Y11510975D01*
X1147724Y11499240D01*
X1156208Y11488521D01*
X1166012Y11479022D01*
X1176985Y11470944D01*
X1188923Y11464391D01*
X1201674Y11459514D01*
X1214932Y11456314D01*
G37*
G36*
X10337342Y11680037D02*
G01*
X10536072Y11680037D01*
X10542422Y11680799D01*
X10547858Y11682679D01*
X10552785Y11685778D01*
X10556849Y11689842D01*
X10559948Y11694769D01*
X10561828Y11700205D01*
X10562539Y11706555D01*
X10562539Y12065304D01*
X10561828Y12071654D01*
X10559948Y12077090D01*
X10556849Y12082018D01*
X10552785Y12086082D01*
X10547858Y12089180D01*
X10542422Y12091060D01*
X10536072Y12091771D01*
X10337342Y12091771D01*
X10330992Y12091060D01*
X10325557Y12089180D01*
X10320629Y12086082D01*
X10316565Y12082018D01*
X10313466Y12077090D01*
X10311536Y12071654D01*
X10310825Y12065304D01*
X10310825Y11706555D01*
X10311536Y11700205D01*
X10313466Y11694769D01*
X10316565Y11689842D01*
X10320629Y11685778D01*
X10325557Y11682679D01*
X10330992Y11680799D01*
G37*
G36*
X11587327Y11680037D02*
G01*
X11786057Y11680037D01*
X11792407Y11680799D01*
X11797842Y11682679D01*
X11802770Y11685778D01*
X11806834Y11689842D01*
X11809933Y11694769D01*
X11811863Y11700205D01*
X11812574Y11706555D01*
X11812574Y12065304D01*
X11811863Y12071654D01*
X11809933Y12077090D01*
X11806834Y12082018D01*
X11802770Y12086082D01*
X11797842Y12089180D01*
X11792407Y12091060D01*
X11786057Y12091771D01*
X11587327Y12091771D01*
X11580977Y12091060D01*
X11575542Y12089180D01*
X11570614Y12086082D01*
X11566550Y12082018D01*
X11563451Y12077090D01*
X11561572Y12071654D01*
X11560860Y12065304D01*
X11560860Y11706555D01*
X11561572Y11700205D01*
X11563451Y11694769D01*
X11566550Y11689842D01*
X11570614Y11685778D01*
X11575542Y11682679D01*
X11580977Y11680799D01*
G37*
G36*
X11303355Y12471247D02*
G01*
X11317884Y12471247D01*
X11332362Y12473076D01*
X11346434Y12476734D01*
X11359997Y12482068D01*
X11372748Y12489078D01*
X11384534Y12497663D01*
X11395151Y12507620D01*
X11404396Y12518847D01*
X11412220Y12531140D01*
X11418417Y12544298D01*
X11422888Y12558115D01*
X11425631Y12572441D01*
X11426545Y12586970D01*
X11425631Y12601498D01*
X11422888Y12615824D01*
X11418417Y12629642D01*
X11412220Y12642799D01*
X11404396Y12655092D01*
X11395151Y12666319D01*
X11384534Y12676276D01*
X11372748Y12684861D01*
X11359997Y12691872D01*
X11346434Y12697206D01*
X11332362Y12700863D01*
X11317884Y12702692D01*
X11303355Y12702692D01*
X11288877Y12700863D01*
X11274806Y12697206D01*
X11261242Y12691872D01*
X11248491Y12684861D01*
X11236706Y12676276D01*
X11226088Y12666319D01*
X11216843Y12655092D01*
X11209020Y12642799D01*
X11202822Y12629642D01*
X11198352Y12615824D01*
X11195608Y12601498D01*
X11194694Y12586970D01*
X11195608Y12572441D01*
X11198352Y12558115D01*
X11202822Y12544298D01*
X11209020Y12531140D01*
X11216843Y12518847D01*
X11226088Y12507620D01*
X11236706Y12497663D01*
X11248491Y12489078D01*
X11261242Y12482068D01*
X11274806Y12476734D01*
X11288877Y12473076D01*
G37*
G36*
X10805515Y12471247D02*
G01*
X10820044Y12471247D01*
X10834522Y12473076D01*
X10848594Y12476734D01*
X10862157Y12482068D01*
X10874908Y12489078D01*
X10886694Y12497663D01*
X10897311Y12507620D01*
X10906556Y12518847D01*
X10914380Y12531140D01*
X10920577Y12544298D01*
X10925048Y12558115D01*
X10927791Y12572441D01*
X10928705Y12586970D01*
X10927791Y12601498D01*
X10925048Y12615824D01*
X10920577Y12629642D01*
X10914380Y12642799D01*
X10906556Y12655092D01*
X10897311Y12666319D01*
X10886694Y12676276D01*
X10874908Y12684861D01*
X10862157Y12691872D01*
X10848594Y12697206D01*
X10834522Y12700863D01*
X10820044Y12702692D01*
X10805515Y12702692D01*
X10791037Y12700863D01*
X10776966Y12697206D01*
X10763402Y12691872D01*
X10750651Y12684861D01*
X10738866Y12676276D01*
X10728248Y12666319D01*
X10719003Y12655092D01*
X10711180Y12642799D01*
X10704982Y12629642D01*
X10700512Y12615824D01*
X10697768Y12601498D01*
X10696854Y12586970D01*
X10697768Y12572441D01*
X10700512Y12558115D01*
X10704982Y12544298D01*
X10711180Y12531140D01*
X10719003Y12518847D01*
X10728248Y12507620D01*
X10738866Y12497663D01*
X10750651Y12489078D01*
X10763402Y12482068D01*
X10776966Y12476734D01*
X10791037Y12473076D01*
G37*
G36*
X7024878Y12472111D02*
G01*
X7173722Y12472111D01*
X7180072Y12472822D01*
X7185507Y12474702D01*
X7190435Y12477800D01*
X7194499Y12481864D01*
X7197598Y12486792D01*
X7199477Y12492228D01*
X7200188Y12498578D01*
X7200188Y12647422D01*
X7199477Y12653772D01*
X7197598Y12659207D01*
X7194499Y12664135D01*
X7190435Y12668199D01*
X7185507Y12671298D01*
X7180072Y12673177D01*
X7173722Y12673888D01*
X7024878Y12673888D01*
X7018528Y12673177D01*
X7013092Y12671298D01*
X7008164Y12668199D01*
X7004100Y12664135D01*
X7001002Y12659207D01*
X6999122Y12653772D01*
X6998411Y12647422D01*
X6998411Y12498578D01*
X6999122Y12492228D01*
X7001002Y12486792D01*
X7004100Y12481864D01*
X7008164Y12477800D01*
X7013092Y12474702D01*
X7018528Y12472822D01*
G37*
G36*
X1016000Y12826492D02*
G01*
X1031392Y12827457D01*
X1046530Y12830200D01*
X1061212Y12834772D01*
X1075232Y12841122D01*
X1088440Y12849098D01*
X1100531Y12858597D01*
X1111402Y12869468D01*
X1120902Y12881559D01*
X1128877Y12894767D01*
X1135227Y12908788D01*
X1139799Y12923469D01*
X1142542Y12938607D01*
X1143508Y12954000D01*
X1142542Y12969392D01*
X1139799Y12984530D01*
X1135227Y12999212D01*
X1128877Y13013232D01*
X1120902Y13026440D01*
X1111402Y13038531D01*
X1100531Y13049402D01*
X1088440Y13058902D01*
X1075232Y13066877D01*
X1061212Y13073227D01*
X1046530Y13077799D01*
X1031392Y13080542D01*
X1016000Y13081508D01*
X1000607Y13080542D01*
X985469Y13077799D01*
X970787Y13073227D01*
X956767Y13066877D01*
X943559Y13058902D01*
X931468Y13049402D01*
X920597Y13038531D01*
X911098Y13026440D01*
X903122Y13013232D01*
X896772Y12999212D01*
X892200Y12984530D01*
X889457Y12969392D01*
X888492Y12954000D01*
X889457Y12938607D01*
X892200Y12923469D01*
X896772Y12908788D01*
X903122Y12894767D01*
X911098Y12881559D01*
X920597Y12869468D01*
X931468Y12858597D01*
X943559Y12849098D01*
X956767Y12841122D01*
X970787Y12834772D01*
X985469Y12830200D01*
X1000607Y12827457D01*
G37*
G36*
X12446000Y12828117D02*
G01*
X12461189Y12829032D01*
X12476124Y12831775D01*
X12490653Y12836296D01*
X12504521Y12842544D01*
X12517526Y12850418D01*
X12529464Y12859766D01*
X12540234Y12870535D01*
X12549581Y12882473D01*
X12557455Y12895478D01*
X12563703Y12909346D01*
X12568224Y12923875D01*
X12570968Y12938810D01*
X12571882Y12954000D01*
X12570968Y12969189D01*
X12568224Y12984124D01*
X12563703Y12998653D01*
X12557455Y13012521D01*
X12549581Y13025526D01*
X12540234Y13037464D01*
X12529464Y13048234D01*
X12517526Y13057581D01*
X12504521Y13065455D01*
X12490653Y13071703D01*
X12476124Y13076224D01*
X12461189Y13078968D01*
X12446000Y13079882D01*
X12430810Y13078968D01*
X12415875Y13076224D01*
X12401346Y13071703D01*
X12387478Y13065455D01*
X12374473Y13057581D01*
X12362535Y13048234D01*
X12351766Y13037464D01*
X12342418Y13025526D01*
X12334544Y13012521D01*
X12328296Y12998653D01*
X12323775Y12984124D01*
X12321032Y12969189D01*
X12320117Y12954000D01*
X12321032Y12938810D01*
X12323775Y12923875D01*
X12328296Y12909346D01*
X12334544Y12895478D01*
X12342418Y12882473D01*
X12351766Y12870535D01*
X12362535Y12859766D01*
X12374473Y12850418D01*
X12387478Y12842544D01*
X12401346Y12836296D01*
X12415875Y12831775D01*
X12430810Y12829032D01*
G37*
G36*
X9906000Y12828117D02*
G01*
X9921189Y12829032D01*
X9936124Y12831775D01*
X9950653Y12836296D01*
X9964521Y12842544D01*
X9977526Y12850418D01*
X9989464Y12859766D01*
X10000234Y12870535D01*
X10009581Y12882473D01*
X10017455Y12895478D01*
X10023703Y12909346D01*
X10028224Y12923875D01*
X10030968Y12938810D01*
X10031882Y12954000D01*
X10030968Y12969189D01*
X10028224Y12984124D01*
X10023703Y12998653D01*
X10017455Y13012521D01*
X10009581Y13025526D01*
X10000234Y13037464D01*
X9989464Y13048234D01*
X9977526Y13057581D01*
X9964521Y13065455D01*
X9950653Y13071703D01*
X9936124Y13076224D01*
X9921189Y13078968D01*
X9906000Y13079882D01*
X9890810Y13078968D01*
X9875875Y13076224D01*
X9861346Y13071703D01*
X9847478Y13065455D01*
X9834473Y13057581D01*
X9822535Y13048234D01*
X9811766Y13037464D01*
X9802418Y13025526D01*
X9794544Y13012521D01*
X9788296Y12998653D01*
X9783775Y12984124D01*
X9781032Y12969189D01*
X9780117Y12954000D01*
X9781032Y12938810D01*
X9783775Y12923875D01*
X9788296Y12909346D01*
X9794544Y12895478D01*
X9802418Y12882473D01*
X9811766Y12870535D01*
X9822535Y12859766D01*
X9834473Y12850418D01*
X9847478Y12842544D01*
X9861346Y12836296D01*
X9875875Y12831775D01*
X9890810Y12829032D01*
G37*

%LPD*%
G36*
X5998565Y12230100D02*
G01*
X5994654Y12230862D01*
X5991352Y12233097D01*
X5989167Y12236348D01*
X5988405Y12240260D01*
X5988405Y12501473D01*
X5989218Y12505436D01*
X5991504Y12508788D01*
X5994908Y12510973D01*
X5998870Y12511633D01*
X6002832Y12510719D01*
X6006084Y12508280D01*
X6013145Y12500457D01*
X6023457Y12491770D01*
X6034836Y12484506D01*
X6039459Y12482372D01*
X6039459Y12529159D01*
X5998565Y12529159D01*
X5994654Y12529921D01*
X5991352Y12532106D01*
X5989167Y12535408D01*
X5988405Y12539319D01*
X5988405Y12606680D01*
X5989167Y12610592D01*
X5991352Y12613894D01*
X5994654Y12616078D01*
X5998565Y12616840D01*
X6039459Y12616840D01*
X6039459Y12663627D01*
X6034836Y12661493D01*
X6023457Y12654229D01*
X6013145Y12645542D01*
X6004102Y12635534D01*
X6001359Y12631521D01*
X5998413Y12628676D01*
X5994501Y12627203D01*
X5990386Y12627457D01*
X5986678Y12629286D01*
X5984036Y12632486D01*
X5981446Y12637312D01*
X5976061Y12643866D01*
X5838240Y12781686D01*
X5836056Y12784988D01*
X5835243Y12788900D01*
X5836056Y12792760D01*
X5838240Y12796062D01*
X5841542Y12798247D01*
X5845403Y12799060D01*
X5957417Y12799060D01*
X5961329Y12798247D01*
X5964631Y12796062D01*
X6124194Y12636500D01*
X6126378Y12633198D01*
X6127140Y12629337D01*
X6127140Y12616840D01*
X6139637Y12616840D01*
X6143498Y12616078D01*
X6146800Y12613894D01*
X6157620Y12603073D01*
X6159804Y12599771D01*
X6160566Y12595910D01*
X6160566Y12539319D01*
X6159804Y12535408D01*
X6157620Y12532106D01*
X6154318Y12529921D01*
X6150406Y12529159D01*
X6127140Y12529159D01*
X6127140Y12482271D01*
X6137605Y12487960D01*
X6144412Y12492990D01*
X6148476Y12494768D01*
X6152896Y12494666D01*
X6156858Y12492634D01*
X6159601Y12489129D01*
X6160566Y12484811D01*
X6160566Y12240260D01*
X6159804Y12236348D01*
X6157620Y12233097D01*
X6154318Y12230862D01*
X6150406Y12230100D01*
G37*

%LPD*%
G36*
X6252565Y12230100D02*
G01*
X6248654Y12230862D01*
X6245352Y12233097D01*
X6243167Y12236348D01*
X6242405Y12240260D01*
X6242405Y12501473D01*
X6243218Y12505436D01*
X6245504Y12508788D01*
X6248908Y12510973D01*
X6252870Y12511633D01*
X6256832Y12510719D01*
X6260084Y12508280D01*
X6267145Y12500457D01*
X6277457Y12491770D01*
X6288836Y12484506D01*
X6293459Y12482372D01*
X6293459Y12529159D01*
X6252565Y12529159D01*
X6248654Y12529921D01*
X6245352Y12532106D01*
X6243167Y12535408D01*
X6242405Y12539319D01*
X6242405Y12606680D01*
X6243167Y12610592D01*
X6245352Y12613894D01*
X6248654Y12616078D01*
X6252565Y12616840D01*
X6293459Y12616840D01*
X6293459Y12663627D01*
X6288836Y12661493D01*
X6277457Y12654229D01*
X6267145Y12645542D01*
X6258102Y12635534D01*
X6256121Y12632588D01*
X6253124Y12629743D01*
X6249263Y12628270D01*
X6245098Y12628524D01*
X6241440Y12630353D01*
X6238748Y12633553D01*
X6235446Y12639751D01*
X6230061Y12646304D01*
X6037326Y12839090D01*
X6035090Y12842392D01*
X6034328Y12846253D01*
X6035090Y12850164D01*
X6037326Y12853466D01*
X6040577Y12855651D01*
X6044488Y12856413D01*
X6154267Y12856413D01*
X6158179Y12855651D01*
X6161481Y12853466D01*
X6378194Y12636754D01*
X6380378Y12633452D01*
X6381140Y12629540D01*
X6381140Y12616840D01*
X6391656Y12616840D01*
X6395516Y12616078D01*
X6398818Y12613894D01*
X6401054Y12610592D01*
X6401816Y12606680D01*
X6401816Y12539319D01*
X6401054Y12535408D01*
X6398818Y12532106D01*
X6395516Y12529921D01*
X6391656Y12529159D01*
X6381140Y12529159D01*
X6381140Y12482271D01*
X6386779Y12485319D01*
X6390741Y12486538D01*
X6394907Y12486030D01*
X6398514Y12483896D01*
X6400952Y12480493D01*
X6401816Y12476429D01*
X6401816Y12240260D01*
X6401054Y12236348D01*
X6398818Y12233097D01*
X6395516Y12230862D01*
X6391656Y12230100D01*
G37*

%LPD*%
D10*
X1485925Y9017000D02*
G01*
X1369466Y8900540D01*
X1188669Y8900540D01*
X1111021Y8978188D01*
X1111021Y10809096D01*
X1612925Y11311001D01*
X1612925Y11590731D01*
X2964941Y12942747D01*
X6221552Y12942747D01*
X6591300Y12573000D01*
X1739925Y11557000D02*
G01*
X2628849Y10668076D01*
X2628849Y8976080D01*
X3688435Y7916494D01*
X4389805Y7916494D01*
X4559300Y7747000D01*
X6489700Y7747000D02*
G01*
X6381750Y7639050D01*
X4760722Y7639050D01*
X4686249Y7713522D01*
X4686249Y7785379D01*
X3631031Y8840596D01*
X3023539Y8840596D01*
X2866796Y8997340D01*
X2866796Y10684129D01*
X1993925Y11557000D01*
X6235700Y7747000D02*
G01*
X6196558Y7786141D01*
X6196558Y9416465D01*
X6442709Y9662617D01*
X6442709Y12630048D01*
X6175425Y12897332D01*
X3588232Y12897332D01*
X2247900Y11557000D01*
X11430000Y10045700D02*
G01*
X10269931Y11205768D01*
X9420986Y11205768D01*
X11176000Y10045700D02*
G01*
X10899063Y10322636D01*
X9405848Y10322636D01*
X8379459Y11349024D01*
X7505700Y7747000D02*
G01*
X7345425Y7586726D01*
X3424199Y7586726D01*
X1993925Y9017000D01*
X5321300Y12467767D02*
G01*
X4660900Y11807367D01*
X4660900Y10668000D01*
X3009900Y9017000D01*
X5321300Y12573000D02*
G01*
X5321300Y12467767D01*
X5067300Y12573000D02*
G01*
X5172709Y12678410D01*
X5417947Y12678410D01*
X5426709Y12669646D01*
X5426709Y10671810D01*
X3771900Y9017000D01*
X4813300Y7747000D02*
G01*
X4025900Y8534400D01*
X4025900Y9017000D01*
X5067300Y7747000D02*
G01*
X5067300Y8229600D01*
X4279900Y9017000D01*
X5321300Y7747000D02*
G01*
X5321300Y8229600D01*
X4533900Y9017000D01*
X5575300Y7747000D02*
G01*
X5575300Y8229600D01*
X4787900Y9017000D01*
X4813300Y12573000D02*
G01*
X4976495Y12736195D01*
X5441238Y12736195D01*
X5660313Y12517120D01*
X5660313Y9635413D01*
X5041900Y9017000D01*
X4559300Y12573000D02*
G01*
X4772482Y12786182D01*
X5775909Y12786182D01*
X5947486Y12614605D01*
X5947486Y9668586D01*
X5295900Y9017000D01*
X4305300Y12573000D02*
G01*
X4572254Y12839954D01*
X5978575Y12839954D01*
X6201486Y12617043D01*
X6201486Y9668586D01*
X5549900Y9017000D01*
X6845300Y12573000D02*
G01*
X6845300Y9550400D01*
X6311900Y9017000D01*
D11*
G01*
X10812779Y11136629D03*
G01*
X11061700Y11136629D03*
G01*
X11310620Y11136629D03*
G01*
X11310620Y12586970D03*
G01*
X10812779Y12586970D03*
D12*
G01*
X10436707Y11885929D03*
G01*
X11686692Y11885929D03*
D13*
G01*
X6565900Y9017000D03*
G01*
X6311900Y9017000D03*
G01*
X6057900Y9017000D03*
G01*
X5803900Y9017000D03*
G01*
X5549900Y9017000D03*
G01*
X5295900Y9017000D03*
G01*
X5041900Y9017000D03*
G01*
X4787900Y9017000D03*
G01*
X4533900Y9017000D03*
G01*
X4279900Y9017000D03*
G01*
X4025900Y9017000D03*
G01*
X3771900Y9017000D03*
G01*
X3517900Y9017000D03*
G01*
X3263900Y9017000D03*
G01*
X3009900Y9017000D03*
G01*
X2755900Y9017000D03*
G01*
X2501900Y9017000D03*
G01*
X2247900Y9017000D03*
G01*
X1993925Y9017000D03*
G01*
X6565671Y11557000D03*
G01*
X6311900Y11557000D03*
G01*
X6057900Y11557000D03*
G01*
X5803900Y11557000D03*
G01*
X5549900Y11557000D03*
G01*
X5295900Y11557000D03*
G01*
X5041900Y11557000D03*
G01*
X4787900Y11557000D03*
G01*
X4533900Y11557000D03*
G01*
X4279900Y11557000D03*
G01*
X4025900Y11557000D03*
G01*
X3771900Y11557000D03*
G01*
X3517900Y11557000D03*
G01*
X3263900Y11557000D03*
G01*
X3009900Y11557000D03*
G01*
X2755900Y11557000D03*
G01*
X2501900Y11557000D03*
G01*
X2247900Y11557000D03*
G01*
X1993925Y11557000D03*
D14*
G01*
X1739925Y11557000D03*
G01*
X1485925Y11557000D03*
G01*
X1231925Y11557000D03*
G01*
X1739925Y9017000D03*
G01*
X1485925Y9017000D03*
G01*
X1231925Y9017000D03*
D15*
G01*
X10668000Y10045700D03*
D16*
G01*
X10922000Y10045700D03*
G01*
X11176000Y10045700D03*
G01*
X11430000Y10045700D03*
D17*
G01*
X8013700Y7747000D03*
D18*
G01*
X7759700Y7747000D03*
G01*
X7505700Y7747000D03*
G01*
X7251700Y7747000D03*
G01*
X6997700Y7747000D03*
G01*
X6743700Y7747000D03*
G01*
X6489700Y7747000D03*
G01*
X6235700Y7747000D03*
D17*
G01*
X5829300Y7747000D03*
D18*
G01*
X5575300Y7747000D03*
G01*
X5321300Y7747000D03*
G01*
X5067300Y7747000D03*
G01*
X4813300Y7747000D03*
G01*
X4559300Y7747000D03*
G01*
X4305300Y7747000D03*
G01*
X4051300Y7747000D03*
G01*
X4051300Y12573000D03*
G01*
X4305300Y12573000D03*
G01*
X4559300Y12573000D03*
G01*
X4813300Y12573000D03*
G01*
X5067300Y12573000D03*
D17*
G01*
X5321300Y12573000D03*
D18*
G01*
X5829300Y12573000D03*
G01*
X6083300Y12573000D03*
G01*
X6337300Y12573000D03*
G01*
X6591300Y12573000D03*
G01*
X6845300Y12573000D03*
D17*
G01*
X7099300Y12573000D03*
D19*
G01*
X8379459Y11349024D03*
G01*
X9420986Y11205768D03*
M02*
