G04 Layer: BottomLayer*
G04 EasyEDA v6.5.44, 2024-08-14 14:30:52*
G04 cf61b4c688ef4e7b83ea2baf6eaa1fc3,080bb0d1436b4706b040d70de8f1a738,10*
G04 Gerber Generator version 0.2*
G04 Scale: 100 percent, Rotated: No, Reflected: No *
G04 Dimensions in millimeters *
G04 leading zeros omitted , absolute positions ,4 integer and 5 decimal *
%FSLAX45Y45*%
%MOMM*%

%ADD10C,0.3000*%
%ADD11C,1.6000*%
%ADD12C,1.5240*%
%ADD13R,1.5080X1.5080*%
%ADD14C,1.5080*%
%ADD15R,1.5000X1.5000*%
%ADD16C,1.5000*%
%ADD17C,1.8009*%
%ADD18R,1.9990X3.5992*%
%ADD19C,0.6100*%

%LPD*%
D10*
X2755900Y9017000D02*
G01*
X4923358Y11184458D01*
X4923358Y12088698D01*
X4949647Y12114987D01*
X4949647Y12676073D01*
X4931486Y12694234D01*
X4029735Y12694234D01*
X3924300Y12588798D01*
X6311900Y9017000D02*
G01*
X6471234Y8857665D01*
X6471234Y7712786D01*
X6407683Y7649235D01*
X3936263Y7649235D01*
X3822700Y7762798D01*
X1231925Y9017000D02*
G01*
X1985746Y8263178D01*
X3830320Y8263178D01*
X4330700Y7762798D01*
X3009900Y9017000D02*
G01*
X3615131Y8411768D01*
X4592497Y8411768D01*
X5241467Y7762798D01*
X5346700Y7762798D02*
G01*
X5241467Y7762798D01*
X3771900Y9017000D02*
G01*
X3882313Y8906586D01*
X4456912Y8906586D01*
X5600700Y7762798D01*
X5041900Y9017000D02*
G01*
X5854700Y8204200D01*
X5854700Y7762798D01*
X5295900Y9017000D02*
G01*
X6108700Y8204200D01*
X6108700Y7762798D01*
X5549900Y9017000D02*
G01*
X6362700Y8204200D01*
X6362700Y7762798D01*
X4025900Y9017000D02*
G01*
X4070121Y9017000D01*
X5422900Y10369778D01*
X5422900Y12156998D01*
X5854700Y12588798D01*
X4279900Y9017000D02*
G01*
X5676900Y10414000D01*
X5676900Y12245492D01*
X5964377Y12532969D01*
X5964377Y12649301D01*
X5915533Y12698145D01*
X5710047Y12698145D01*
X5600700Y12588798D01*
X4533900Y9017000D02*
G01*
X5930900Y10414000D01*
X5930900Y11597309D01*
X6221399Y11887809D01*
X6221399Y12643307D01*
X6116827Y12747879D01*
X5505780Y12747879D01*
X5346700Y12588798D01*
X4838700Y12588798D02*
G01*
X4625187Y12588798D01*
X3659987Y11623598D01*
X3659987Y10937062D01*
X1739925Y9017000D01*
X2247900Y11557000D02*
G01*
X2479547Y11788647D01*
X3632149Y11788647D01*
X4432300Y12588798D01*
X1993925Y11557000D02*
G01*
X2793568Y12356642D01*
X3946143Y12356642D01*
X4178300Y12588798D01*
X2247900Y9017000D02*
G01*
X2084603Y8853703D01*
X1481124Y8853703D01*
X1374190Y8960637D01*
X1374190Y11605209D01*
X2464485Y12695504D01*
X3309594Y12695504D01*
X3416300Y12588798D01*
X1993925Y9017000D02*
G01*
X1880463Y8903538D01*
X1689252Y8903538D01*
X1620062Y8972727D01*
X1620062Y10846968D01*
X1864258Y11091163D01*
X1864258Y11585727D01*
X2705252Y12426721D01*
X3000222Y12426721D01*
X3162300Y12588798D01*
X6565671Y11557000D02*
G01*
X9051086Y11557000D01*
X10562386Y10045700D01*
X10668000Y10045700D02*
G01*
X10562386Y10045700D01*
X4394936Y9427946D02*
G01*
X5168900Y10201910D01*
X5168900Y12512598D01*
X5092700Y12588798D01*
X4395114Y12272619D02*
G01*
X4395114Y10910214D01*
X2501900Y9017000D01*
D11*
G01*
X6565894Y9017002D03*
G01*
X6311894Y9017002D03*
G01*
X6057894Y9017002D03*
G01*
X5803894Y9017002D03*
G01*
X5549894Y9017002D03*
G01*
X5295894Y9017002D03*
G01*
X5041894Y9017002D03*
G01*
X4787894Y9017002D03*
G01*
X4533894Y9017002D03*
G01*
X4279894Y9017002D03*
G01*
X4025894Y9017002D03*
G01*
X3771894Y9017002D03*
G01*
X3517894Y9017002D03*
G01*
X3263894Y9017002D03*
G01*
X3009894Y9017002D03*
G01*
X2755894Y9017002D03*
G01*
X2501894Y9017002D03*
G01*
X2247894Y9017002D03*
G01*
X1993920Y9017002D03*
G01*
X6565666Y11557002D03*
G01*
X6311894Y11557002D03*
G01*
X6057894Y11557002D03*
G01*
X5803894Y11557002D03*
G01*
X5549894Y11557002D03*
G01*
X5295894Y11557002D03*
G01*
X5041894Y11557002D03*
G01*
X4787894Y11557002D03*
G01*
X4533894Y11557002D03*
G01*
X4279894Y11557002D03*
G01*
X4025894Y11557002D03*
G01*
X3771894Y11557002D03*
G01*
X3517894Y11557002D03*
G01*
X3263894Y11557002D03*
G01*
X3009894Y11557002D03*
G01*
X2755894Y11557002D03*
G01*
X2501894Y11557002D03*
G01*
X2247894Y11557002D03*
G01*
X1993920Y11557002D03*
D12*
G01*
X1739920Y11557002D03*
G01*
X1485920Y11557002D03*
G01*
X1231920Y11557002D03*
G01*
X1739920Y9017002D03*
G01*
X1485920Y9017002D03*
G01*
X1231920Y9017002D03*
D13*
G01*
X10668000Y10045700D03*
D14*
G01*
X10922000Y10045700D03*
G01*
X11176000Y10045700D03*
G01*
X11430000Y10045700D03*
D15*
G01*
X2654300Y12588798D03*
D16*
G01*
X2908300Y12588798D03*
G01*
X3162300Y12588798D03*
G01*
X3416300Y12588798D03*
G01*
X3670300Y12588798D03*
G01*
X3924300Y12588798D03*
G01*
X4178300Y12588798D03*
G01*
X4432300Y12588798D03*
D15*
G01*
X4838700Y12588798D03*
D16*
G01*
X5092700Y12588798D03*
G01*
X5346700Y12588798D03*
G01*
X5600700Y12588798D03*
G01*
X5854700Y12588798D03*
G01*
X6108700Y12588798D03*
G01*
X6362700Y12588798D03*
G01*
X6616700Y12588798D03*
G01*
X6616700Y7762798D03*
G01*
X6362700Y7762798D03*
G01*
X6108700Y7762798D03*
G01*
X5854700Y7762798D03*
G01*
X5600700Y7762798D03*
D15*
G01*
X5346700Y7762798D03*
D16*
G01*
X4838700Y7762798D03*
G01*
X4584700Y7762798D03*
G01*
X4330700Y7762798D03*
G01*
X4076700Y7762798D03*
G01*
X3822700Y7762798D03*
D15*
G01*
X3568700Y7762798D03*
D17*
G01*
X10812779Y11136629D03*
G01*
X11061700Y11136629D03*
G01*
X11310620Y11136629D03*
G01*
X11310620Y12586970D03*
G01*
X10812779Y12586970D03*
D18*
G01*
X10436707Y11885929D03*
G01*
X11686692Y11885929D03*
D19*
G01*
X4395114Y12272619D03*
G01*
X4394936Y9427946D03*
M02*
